<svg xmlns="http://www.w3.org/2000/svg" viewBox="0 0 54.6 43.9"><defs><style>.cls-1{fill:#fff;}.cls-2{fill:#164072;}.cls-3{fill:#5581ad;}.cls-4{fill:#ffd710;}.cls-5{fill:#f15a24;}.cls-6{fill:#f7931e;}</style></defs><title>personaji_3</title><g id="Слой_1" data-name="Слой 1"><path class="cls-1" d="M11.29,28.63l-.53-.44h0a.53.53,0,0,1-.06-.1,8.6,8.6,0,0,0-.39-1.65c-.23-.65-3.09.23-2.89.78.1.3.18.61.25.92-.27.16-.5.36-.3.54l.37.33.14.52c0,.17.33.24.69.22h0c.43.33,1.42,0,1.86-.17.19-.07,1-.4.93-.7A.17.17,0,0,0,11.29,28.63Z"/><path class="cls-1" d="M9.27,18.94a6.7,6.7,0,0,0-.95-.28h0c0-.22,0-.44,0-.66A34.33,34.33,0,0,0,9,12.85a42.13,42.13,0,0,0,1.84-4,.32.32,0,0,0,0-.3A9.31,9.31,0,0,0,11.64,8c.24-.2.29-.37.23-.52.73-.62-1.54-1.37-2.29-1.08A23.26,23.26,0,0,0,3.72,9.57c-.31.23-.3.44-.12.62l-.32.4a.77.77,0,0,0-.36.2,10.72,10.72,0,0,0-1.13,1.55A6.69,6.69,0,0,0,.56,14.75.45.45,0,0,1,.64,15c-.06.69-.2,1.33-.3,2,0,.48-.08,1-.11,1.44a4.72,4.72,0,0,0,.11,1,12,12,0,0,0,1.18,3.19.51.51,0,0,1,.54.48v0a.55.55,0,0,1,0,.91v0c.06.32.1.63.13.95a.4.4,0,0,1,.17.27c0,.05,0,.09,0,.13h0a2.68,2.68,0,0,0,.2.94.35.35,0,0,1,.19.19c.17.38.34.75.54,1.12a0,0,0,0,1,0,0,4.62,4.62,0,0,0,1.28.33,5.86,5.86,0,0,0,.78.42c1.12,1.47,3.61.8,4.32-.36a1.94,1.94,0,0,0,.47-.48,1.67,1.67,0,0,0,.58-1.42.66.66,0,0,0-.27-.47,1.12,1.12,0,0,0,.95-.37,2.78,2.78,0,0,0,.4-1.76C13.6,22.08,11.34,19.44,9.27,18.94Z"/><path class="cls-1" d="M38.64,22.79a4.93,4.93,0,0,0-1.75-3.24,3.6,3.6,0,0,0-1.67-2.05c.21-.15.33-.33.26-.52-.55-1.56-2.55-2.1-4.33-2.33a.88.88,0,0,0-.37-.08h0a5.07,5.07,0,0,0-1.55-.24,3.3,3.3,0,0,0-1.46-.2l-.1,0c-1.45-.87-3.52,0-5,.45a4.47,4.47,0,0,0-.7.38A5.43,5.43,0,0,0,20,16,9.1,9.1,0,0,0,17,19.24a5.42,5.42,0,0,0-.6.67c-2,1.2-2.63,4.2-2.72,6.67,0,.13.09.19.26.21,0,.12,0,.25,0,.37a4,4,0,0,0,.22,2.91.52.52,0,0,0,.35.2,3.15,3.15,0,0,0,.75,1.19,3.56,3.56,0,0,0,2,3.43,1.89,1.89,0,0,0,1,1.22c.07,1,1,1.65,2.1,1.84a2.5,2.5,0,0,0,2.19.55,3.8,3.8,0,0,0,.51.16,2.28,2.28,0,0,0,1.82.66,5.13,5.13,0,0,0,.59.12,2.8,2.8,0,0,0,1.62.05A3.76,3.76,0,0,0,28.7,39a6.41,6.41,0,0,0,4.68-1.51c.19-.15.15-.23,0-.27a8.46,8.46,0,0,0,2.1-1.49,6,6,0,0,0,.71-.59c2.07-1.28,3-4.37,3-6.88A10.79,10.79,0,0,0,38.64,22.79Z"/><path class="cls-2" d="M24.53,11.13,24.26,11a2.49,2.49,0,0,0-1.15-.12,3,3,0,0,0-.93-.27,6.54,6.54,0,0,0-2.94.59A5,5,0,0,0,18,11.3,6.13,6.13,0,0,0,14.15,13a4.29,4.29,0,0,0-1.76,1.19,2.84,2.84,0,0,0-1.27,3.57,6.36,6.36,0,0,0,.26,1,10,10,0,0,1,.28,1.11,3.25,3.25,0,0,0-.94.08l1.84,1.68c.1.1-.35.11-.25.21-.61.08-.33.46-.54.89A10.59,10.59,0,0,0,11,30.1c.31,1.21,3.21.45,2.9-.78a9,9,0,0,1,.61-6.3.62.62,0,0,0-.45-1,1.67,1.67,0,0,0,.89-.74,19.45,19.45,0,0,0,.7-3.07l.07,0a1.19,1.19,0,0,0,.22-.23,3.11,3.11,0,0,0,2-.31,5.36,5.36,0,0,0,2.39-3,3.34,3.34,0,0,0,1.05-.29,4.08,4.08,0,0,0,.48-.28,2.84,2.84,0,0,0,.34.15A3,3,0,0,0,25.32,13a.86.86,0,0,0,.39-.7C25.71,11.61,25.19,11.25,24.53,11.13Z"/><path class="cls-2" d="M42.17,21.5c-.15-.41-.23-.69-.94-.5.35-.2-.06-.19,0-.55.3-2.37,1.64-5.94-.46-7.75S34.33,9.87,31.6,9.8c-1.35,0-5.45.51-4.58,2.85a1.8,1.8,0,0,0,2.43.94,1.29,1.29,0,0,0,.49.29c2.84,1.06,5.85,2.24,7.22,5.16a1.27,1.27,0,0,0,1.26.63c-.05.34-.09.68-.13,1-.1.8.78,1,1.6.85-.43.21-.71.48-.62.73A11.91,11.91,0,0,1,39.55,30c-.23.78,2.63.39,2.88-.45A12.54,12.54,0,0,0,42.17,21.5Z"/><path class="cls-3" d="M34.75,10.1a9.1,9.1,0,0,0-4.43.12,6.34,6.34,0,0,0-.73.26,2.69,2.69,0,0,0-.58,0,2.06,2.06,0,0,0-1.66.93,1.61,1.61,0,0,0,.15,1.83,2.19,2.19,0,0,0,2,0c.77-.32.87-.69,1.19-1.37.21-.46.33-.45.87-.46a5.86,5.86,0,0,1,1.38.17A2.62,2.62,0,0,0,35,11C35.45,10.62,35.34,10.23,34.75,10.1Z"/><path class="cls-3" d="M26.13,12.54a5.65,5.65,0,0,0-1.27-1.22,8.94,8.94,0,0,0-2.39-.67,10,10,0,0,0-4.64.12c-.33.09-1.43.43-1.3,1s1.31.26,1.6.18a6.71,6.71,0,0,1,3.35.31,3.9,3.9,0,0,1,1.94,1.38C24,14.2,26.72,13.16,26.13,12.54Z"/><path d="M39.09,26.7c-.35,7-5.8,13.12-13.27,12.37a12.7,12.7,0,0,1-11.23-12.5,12.3,12.3,0,0,1,12-12.36C33.7,14.09,38.75,20,39.09,26.7c.06,1.13,2.14.86,2.09-.13-.39-7.73-6.26-14.11-14.26-14-7.71.08-14.39,6.34-14.42,14.16a14.19,14.19,0,0,0,14.26,14A14.59,14.59,0,0,0,41.18,26.57C41.23,25.45,39.14,25.7,39.09,26.7Z"/><path d="M25.49,19.65c-.37-.48-1.48-.14-1.9,0l-.06,0a2.52,2.52,0,0,0,.07-.56,1.78,1.78,0,0,0-1.5-2,1.78,1.78,0,0,0-1.5,2,2.22,2.22,0,0,0,.48,1.43,14.9,14.9,0,0,0-2.29,1.07c-.4.24-.84.73-.27,1.05a2.46,2.46,0,0,0,2-.29,22,22,0,0,1,4.14-1.64C25.08,20.61,25.87,20.13,25.49,19.65Z"/><path d="M28.35,19.65c.37-.48,1.48-.14,1.9,0l.06,0a2.52,2.52,0,0,1-.07-.56,1.78,1.78,0,0,1,1.5-2,1.78,1.78,0,0,1,1.5,2,2.22,2.22,0,0,1-.48,1.43,14.9,14.9,0,0,1,2.29,1.07c.41.24.84.73.27,1.05a2.46,2.46,0,0,1-2-.29,22,22,0,0,0-4.14-1.64C28.76,20.61,28,20.13,28.35,19.65Z"/><path d="M9.24,29.45c-7.41-1-5.87-6.58-6.13-6.73C-1.6,19.89,2.85,10.86,6.25,8.14,7.67,7,9.7,6.89,11.65,6.78c-1.28,3.06-4.25,6.64-4,10.62-.08.39.17,1.73.09,2.13-.18.86.66,1.5,1.06,1l0,0s.05-.08.07-.12A1.23,1.23,0,0,0,9,20.14c0-.24.13-1,.18-1.22A6.14,6.14,0,0,1,10.82,20a4.06,4.06,0,0,1-.15-1.14,5,5,0,0,1,0-.67c-.46-.27-.92-.53-1.38-.76a12.89,12.89,0,0,1,3.27-8.78,12.66,12.66,0,0,1,1.31-2,2.22,2.22,0,0,0-1.5-1.41A1.32,1.32,0,0,0,11.59,5C6.08,5.79,2.44,7.32.78,13.23c-1,3.54-1.42,7.76,1.09,10-1.44,3.87,5.41,8.32,9.06,8.29C12.05,31.5,10,29.45,9.24,29.45Z"/><path class="cls-1" d="M52.46,15.38a10,10,0,0,0-.7-1.43c-.19-.35-.39-.14-.58-.27a1.32,1.32,0,0,1-.39-.51c-1.07-1.81-2.2-3.37-4.34-3.85A5.24,5.24,0,0,0,44.6,8.24c-.2-.09-.24-.3-.39-.49s-.42-.12-.58-.26-.41-.64-.76-.83c-.06,0-.06-.14-.15-.18a1.78,1.78,0,0,0-2.58,1.27.21.21,0,0,0,0,.16c.84,2,2.76,3.43,4.17,5.09.42.49.9,1.17,1.36,1.8,0,0,0,.11,0,.18.19.62.77,3.07.33,4.17-.08.21-.11.51-.21.75s-.24.64-.37.89c-1.07-.91-.8-1.31-2-.71-.49.24-.78.92-1.14,1.42a33.53,33.53,0,0,1,.56,4.5c.15,1.39-.53,2.85-.58,4.25a1.57,1.57,0,0,0,.48,0c.25,0,.5-.17.68-.2a1.37,1.37,0,0,1,.41,0,4.14,4.14,0,0,0,1.67-.46,7.35,7.35,0,0,0,1.17-.53c.25-.17.28-.25.41-.34.68-.46,1.26-.89,1.11-1.74a2.83,2.83,0,0,0,1.19-2.1,10.37,10.37,0,0,0,3.52-3.66c.15-.26,0-.34-.07-.46s.17-.49.17-.6,0-.09,0-.14A9.46,9.46,0,0,0,52.46,15.38Z"/><path d="M40.79,5.33c-.24-.08-.48.07-.76.13-.83.17-1.58,1-1.09,1.74,2.39,3.73,6.1,6.87,5.83,11.53-1.41.05-1.29.25-2.62.72a6.38,6.38,0,0,0-.86-6c-1.59-2-3.46-2.33-5.71-2.82-3.34-.71-6.75-2-9.68.27-3.51-2.17-8-.82-11.43.49-2.3.88-3.54,1.82-4.32,3.91-1.13,3,.21,5.14,1.52,7.76.1-.08.35,0,.41-.09a.48.48,0,0,0,.08-.11c.16-.38.45-.73.59-1.09a2.24,2.24,0,0,0,.07-1.09c-1.5-3.51-1.83-5.87,2.41-7.87,2.36-1.11,8.23-3.45,9.93.41a1.22,1.22,0,0,0,2.18.18c.25-.31,0-1,.12-1.28,1.41-2.6,7.83-.18,9.77.28,4.16,1,4.17,3.52,3.31,7a7.6,7.6,0,0,0,.05,1.08,2,2,0,0,0,.39.73,4.24,4.24,0,0,0,1,.7c1.23-1.1.82-1.71,2.48-1.75,0,0-.09.09,0,.14s.26.2.26.37A.42.42,0,0,0,45,21a.3.3,0,0,0,.31-.06,4.78,4.78,0,0,1,.44-.32c.09,0,.11,0,.13,0a3.67,3.67,0,0,0,.58-1.24C47.2,14,41.5,11.64,40.43,7c2.54.8,6,1.87,7.85,3.66,4.55,4.29,7.2,11,.51,14.47a4.9,4.9,0,0,0-.45,1.4s-.05,0-.06,0,0,.12-.06.2l-.22.45c0,.06.06,0,0,.05C46.47,30,43.91,30.28,41,29.66c-.51-.11-3.46.86-2.16,1.27,4.25,1.34,11.32.82,11.11-5.06,3.06-2,5.4-4.62,4.45-8.65C52.78,10.47,47.07,7.38,40.79,5.33Z"/><path d="M49.66,22.83,48.22,22c-.27-.16-1.13-.49-1.16-.81a1,1,0,0,1,.34-.58c.17-.13.19-.17.39,0,0,0,.63,1,.33,1-.14,0-.49.05-.55.2s0,.18.2.17c.38,0,.94-.11,1.15-.49s-.12-1-.46-1.28c-.91-.65-2,.44-2.26,1.25a.07.07,0,0,0,0,.08c.88.53,1.77,1,2.67,1.55.22.12.91-.22.77-.3Z"/><path d="M51.29,20.51l-2-1.75L49.1,19a17.17,17.17,0,0,0,1.54-.79s.14-.1.07-.16c-.52-.44-1.05-.86-1.59-1.28l-.24.25a12,12,0,0,0,2-1c.35-.2-.47-.13-.64,0a9.38,9.38,0,0,1-1.69.81c-.05,0-.36.15-.24.25.31.24,1,.62,1.2.95s-.53.68-.93.86c-.06,0-.24.13-.15.21l2.05,1.74c.17.15.91-.16.77-.28Z"/><path d="M47.33,14.63a21.63,21.63,0,0,0,3.14-1.1c.49-.21-.28-.16-.47-.08a21,21,0,0,1-2.73,1c-.47.12-.42.36.06.23Z"/><path d="M49.46,13.67c-.18-.64-.37-1.27-.53-1.92-.09-.37-.92-.15-.82.22.15.65.34,1.28.53,1.92.1.37.92.15.82-.22Z"/><path d="M49.08,13.74l-1.85-1.4c-.32-.23-1,.21-.63.5l1.85,1.4c.32.24,1-.2.63-.5Z"/><path class="cls-3" d="M9,23.94a1.5,1.5,0,0,0-.72-.87c.25-.25.51-.49.79-.72s-.67-.45-.91-.25-.35.32-.53.48l-.89-.69a3.23,3.23,0,0,0-.51-3.45.73.73,0,0,0-.46-.11.9.9,0,0,0-.87,0,9.47,9.47,0,0,0-1.42,1.34c-.26.26-1.14.89-1.09,1.27s.88,1,1.16,1.26a2.52,2.52,0,0,0,1.3.58,1.89,1.89,0,0,0,1.29-.24l.86.67c-.24.25-.48.51-.7.79s.8.41,1,.15.26-.29.38-.43a.73.73,0,0,1,.28.41C8,24.57,9,24.48,9,23.94ZM5.38,18.86h0A2.71,2.71,0,0,1,6,20.56a5.06,5.06,0,0,0-1-1.2l-.1-.05C5.07,19.16,5.22,19,5.38,18.86ZM4.42,22a3.87,3.87,0,0,1-.7-.7c-.08-.1-.31-.29-.3-.43a.72.72,0,0,1,.2-.23A15.11,15.11,0,0,0,5.2,21.68a1,1,0,0,0,.42.12A.75.75,0,0,1,4.42,22Z"/><path d="M11.24,22.68a9.18,9.18,0,0,0-.66,7.64c.07.21.89,0,.82-.22a9,9,0,0,1,.66-7.56c.07-.13-.7-.08-.82.14Z"/><path d="M41.52,21a10.39,10.39,0,0,1,.94,4.8,18.54,18.54,0,0,1-.18,2.58,14.4,14.4,0,0,0-.41,1.76c0,.12.42,0,.44,0h0c.07,0,.4-.11.37-.23v0c0-.17-.86,0-.82.22v0l.38-.23h.4a17,17,0,0,1,.43-1.74,20.51,20.51,0,0,0,.16-2.6,10.39,10.39,0,0,0-.94-4.8c-.1-.2-.88.09-.82.22Z"/><polygon class="cls-4" points="19.23 0.59 34.33 0.58 37.24 15.53 16.37 15.54 19.23 0.59"/><path class="cls-5" d="M18.84,1.18H31.57c.64,0,2.34.22,2-.13s.09,1.8.16,2.15l1,5.14,1.45,7.47,1.43-.86h-8c-3.74,0-8-.56-11.69,0-1.54.23-.62.4-.44-.2.46-1.55.63-3.26.93-4.84L20.26.46c.15-.78-1.92-.44-2.05.26l-2.87,15c-.06.34.38.46.63.46l20.87,0c.41,0,1.55-.24,1.43-.86L35.35.31C35.3.06,34.92,0,34.72,0H19.63C18.86,0,17.45,1.18,18.84,1.18Z"/><path class="cls-5" d="M21.5,4.29c.29,1.17,1.82,2,3.84,2l.17,0a1.49,1.49,0,0,0-.31.36C23.82,7,22,7.46,22,8.64s2,2,3.7,2.16,4-.32,5-1.26c1.2-1.13-.46-2.27-1.9-2.77a.62.62,0,0,0-.24,0,1.74,1.74,0,0,0-.14-.27s0,0,0,0c1.69-.34,2.55-.9,2.91-2,.17-.51.69-2.28-.58-2.45a.58.58,0,0,0-.3,0c-1,0-2.45.12-3,.66a1.67,1.67,0,0,0-1,.47.56.56,0,0,0-.41-.33,1.24,1.24,0,0,0-.66,0,5.78,5.78,0,0,0-3-.56.41.41,0,0,0-.15,0C20.87,2.32,21.37,3.74,21.5,4.29Zm6.35,3.48a1.09,1.09,0,0,1-1.39.61,1,1,0,0,1-.59-.53,1.41,1.41,0,0,1,.05-1.12c.33-.88,1.82-.39,1.94.26,0,0,0,.06.08.08A1,1,0,0,1,27.85,7.77ZM27,3.55c0-.11.18-.46.39-.48s.1.47.05.8c-.1,0-.17.07-.17.13s-.22,0-.25-.06l0-.09A.44.44,0,0,1,27,3.55Zm-.23,1.76a2.84,2.84,0,0,1,1,.8c.12.11.78-.08.73-.13a3.45,3.45,0,0,0-1-.8,1.4,1.4,0,0,0-.54-.1,1.35,1.35,0,0,1-.1-.71,1.43,1.43,0,0,0,.93-.13c.14,0,.28-.07.3-.15a2.21,2.21,0,0,0,.09-.67l1,0a1.67,1.67,0,0,1-.06.44c0,.11.65,0,.68-.07a1.49,1.49,0,0,0,.05-.36c.14,0,.36,0,.41-.12s-.06-.14-.2-.14c-.59,0-1.17,0-1.75,0l-.14,0A.43.43,0,0,0,28,2.86c.28-.51,1.64-.56,2.39-.56h0l.11,0c.52.07.23,1.59.16,1.87-.26,1-.89,1.62-2.57,1.94A.43.43,0,0,0,28,6.2,2.75,2.75,0,0,0,26.22,6a1.37,1.37,0,0,0-.43.16.82.82,0,0,1,.52-.81A.71.71,0,0,0,26.77,5.31ZM25.63,3.12c.07,0,.2.15.21.17a.42.42,0,0,1,0,.27c0,.14-.05.28-.06.41a.38.38,0,0,0-.22.11.58.58,0,0,1-.17-.43S25.5,3.13,25.63,3.12Zm-3.46-.6h.08A4.75,4.75,0,0,1,25,3.1a.44.44,0,0,0-.12.15s0,.07-.05.1A3.78,3.78,0,0,1,24,3.22H23.9l-.35-.1c-.23-.08-.86.11-.56.22.12,0,.24.08.37.12a1.65,1.65,0,0,0,.17.73c.09.17.8.05.71-.12a1.74,1.74,0,0,1-.16-.47c.21,0,.42,0,.63,0a.62.62,0,0,0,.39.72,1.21,1.21,0,0,0,1.14-.1.84.84,0,0,0,.19-.07l.07,0c-.17,0-.34.08-.36.17a1.67,1.67,0,0,0,.09.79c-.62.14-1.1.46-1.17.87a3.61,3.61,0,0,1-2.69-1.41C22.14,4.14,21.81,3.08,22.17,2.52Z"/><path class="cls-5" d="M20.36,13a1.12,1.12,0,0,0,.73-.17c.05,0,.05-.07,0-.11l0,0h0a3.11,3.11,0,0,1,.33-.38l.38-.44.8-.93c.11-.13-.66-.08-.8.08l-.93,1.06c-.18.2-.7.61-.65.85C20.22,13,20.31,13,20.36,13Z"/><path class="cls-5" d="M25.16,13.79l0,0h0l0-.05s0,0,0,0c.11-.68.36-1.33.4-2,0-.13-.8,0-.81.15,0,.67-.35,1.34-.45,2C24.32,14.07,25.06,13.88,25.16,13.79Z"/><path class="cls-5" d="M29.09,11.87c.22.35.45.69.71,1s.39.67.78.73c.21,0,.53,0,.63-.16s0-.14,0-.22a.31.31,0,0,0-.22-.07,5.13,5.13,0,0,1-.5-.68c-.2-.26-.38-.52-.55-.79S29,11.64,29.09,11.87Z"/><path class="cls-5" d="M31.11,10.67l1.56.74c.19.09.85-.14.74-.19l-1.56-.74C31.66,10.39,31,10.62,31.11,10.67Z"/><path class="cls-1" d="M39.71,4.76a1.76,1.76,0,0,0-.14-.46l-.06-.09a1.61,1.61,0,0,0-.29-.75,1.79,1.79,0,0,0-1.06-.7,2,2,0,0,0-1-.26c-.84,0-2.41.43-2.53,1.48a1,1,0,0,0,0,.39,2.13,2.13,0,0,0-.16,2,2.6,2.6,0,0,0,2,2,3.1,3.1,0,0,0,2.8-.57A2.46,2.46,0,0,0,39.71,4.76Z"/><path d="M39.53,5.19a2.46,2.46,0,0,1-2,2.93A2.63,2.63,0,0,1,35,5.88,2.46,2.46,0,0,1,36.68,3a2.58,2.58,0,0,1,2.85,2.19c.24,1,2.3.45,2-.55C40.31-.6,31.87,1.15,32.89,6.43a4.27,4.27,0,0,0,5,3.18,4.4,4.4,0,0,0,3.66-5C41.45,3.65,39.39,4.17,39.53,5.19Z"/><path class="cls-1" d="M19,4.56a1.82,1.82,0,0,0-.29-.67,1.06,1.06,0,0,0,.07-.37c.07-2.22-4.29-1.57-4.5.11a2.08,2.08,0,0,0,0,.25,1.09,1.09,0,0,0-.05.26,2.54,2.54,0,0,0-.18.41,1.87,1.87,0,0,0-.28.7,2.13,2.13,0,0,0,.74,2l.18.22c.18.61.8.75,1.53.64l.08,0a3.88,3.88,0,0,0,2.06-.67,1.54,1.54,0,0,0,.58-1.6A2.77,2.77,0,0,0,19,5C19.36,4.74,19.46,4.57,19,4.56Z"/><path d="M17.77,7.44C16.4,8.54,15,8,14.38,6.37a3.32,3.32,0,0,1,.91-3.52c1.32-1.17,2.83-.49,3.39,1.07a3.39,3.39,0,0,1-.91,3.52c-.24.23,1.6.85,2,.46a3.56,3.56,0,0,0-.52-5.63c-1.67-1.09-4.41-1.26-6,.12A3.55,3.55,0,0,0,13.8,8a5.33,5.33,0,0,0,6-.12C20,7.73,18.22,7.07,17.77,7.44Z"/><path d="M14.48,30.1c-.12-.49-.83-.49-1.2-.4a4.49,4.49,0,0,1-2.59-.15,1.41,1.41,0,0,0-1.36.31c-.27.25-.42.69,0,.94a6.82,6.82,0,0,0,3.93,1c.43,0,1.08-.32,1.14-.81a.47.47,0,0,0-.09-.34A.6.6,0,0,0,14.48,30.1Z"/><path class="cls-6" d="M13.91,13.19c-1.78,0-4.25-.38-5.85.56a.69.69,0,0,0-.38.62v.05a.39.39,0,0,0,.21.24l0,0a1.62,1.62,0,0,0,1.46-.18l0,0a4.27,4.27,0,0,0,.56,0c.37,0,.74,0,1.1,0h2c.42,0,1.14-.13,1.35-.57S14.31,13.19,13.91,13.19Z"/><path class="cls-6" d="M14.12,15.76a2.49,2.49,0,0,0-1.37.48l-1.83,1.62-.87.77a2.67,2.67,0,0,0-.7.68.11.11,0,0,0,0,.16l0,0a2.1,2.1,0,0,0,2-.53l0,0c.05-.06,0-.1,0-.13.31,0,1.36-1.11,1.55-1.28l1.64-1.45C15,15.76,14.29,15.75,14.12,15.76Z"/><path class="cls-6" d="M46.21,16.24a9.88,9.88,0,0,0-2.65-1.19,5,5,0,0,1-2.36-1c-.38-.37-2.25.39-1.93.7a4.3,4.3,0,0,0,2.07,1,10.08,10.08,0,0,1,2.93,1.23C44.76,17.26,46.49,16.42,46.21,16.24Z"/><path class="cls-6" d="M42.79,21.68c-1-1.53-1.89-3.08-2.73-4.69-.39-.74-2.39-.09-2.05.55.89,1.7,1.84,3.35,2.88,5C41.29,23.12,43.28,22.43,42.79,21.68Z"/><path class="cls-6" d="M45,10.22c-1.54.07-3.08.09-4.63,0-.41,0-1.15.15-1.35.57s.17.6.56.61c1.54,0,3.08,0,4.62,0,.42,0,1.15-.12,1.36-.56S45.43,10.21,45,10.22Z"/><path class="cls-6" d="M14.69,9.33A39.37,39.37,0,0,0,8.55,9.1c-1.15.05-1.6,1.51-.2,1.45a37.69,37.69,0,0,1,5.62.22C15,10.88,16.07,9.48,14.69,9.33Z"/><path class="cls-4" d="M38.56,36.18c.29-.28.34-.58-.13-.76l-.29-.11a1.23,1.23,0,0,0-.83-.32c-4.8-1.79-10.74-3.41-15.69-1.89-2.85.87-7.08,4.11-4.67,7.35C20.91,45.78,42.07,45.35,38.56,36.18Zm-10,5.65c-2.12,0-7.44-.2-8.74-2.53-2.58-4.61,5.91-5,9-4.47a37.6,37.6,0,0,1,6.68,1.86C37.34,41.09,31.58,41.83,28.61,41.83Z"/></g></svg>