<svg xmlns="http://www.w3.org/2000/svg" viewBox="0 0 51.5 65.5"><defs><style>.cls-1{fill:#fff;}.cls-2{fill:#444;}.cls-3{fill:#d8d8d8;}.cls-4{fill:#b2b2b2;}.cls-5{fill:#868786;}.cls-6{fill:#99503a;}.cls-7{fill:#191919;}.cls-8{fill:#7f7f7f;}</style></defs><title>personaji_v1-</title><g id="Слой_1" data-name="Слой 1"><path class="cls-1" d="M17,53.16a34.5,34.5,0,0,0,7.6,3.26c1.08,0,2.14-.15,3.22-.29a18.78,18.78,0,0,0,2.27-.3,12.29,12.29,0,0,0,2-1,.47.47,0,0,1,.46,0,30.46,30.46,0,0,0,6.27-6.73c3-4.1-3.84-8-6.84-4l-.35.49a3.55,3.55,0,0,0-2.58-.93c-4.4.08-8.6-1.69-12.94-.88a4,4,0,0,0-2.91,3.82C13.12,49.69,14.48,51.6,17,53.16Z"/><path class="cls-2" d="M12.86,41.16c.09.23.52.27.77.26a4.51,4.51,0,0,0,2.71,1A8.51,8.51,0,0,0,21,43.8l.16,0c-.22.36-.15.75.53.86a22.9,22.9,0,0,0,4.68.19,6.12,6.12,0,0,0,1.38-.23,1.12,1.12,0,0,0,.67,0A17.78,17.78,0,0,0,31.71,44a1.66,1.66,0,0,0,.37-.14l1.06-.26a1.88,1.88,0,0,0,.37-.06,5.12,5.12,0,0,0,1.58-.6,1.9,1.9,0,0,0,.45-.23,2.65,2.65,0,0,0,.83-.38,5.4,5.4,0,0,0,.55-.26A16,16,0,0,0,39,41c.77-.47-.46-.46-1-.39l-.14-.27c-.5-4.07-2.51-6.61-5.27-7.93a.38.38,0,0,0,0-.15l0-.12a.6.6,0,0,0,0-.12c-.19-.73-.68-.94-1.38-1.06a.25.25,0,0,0-.15-.1,9.06,9.06,0,0,0-3.87-.48c-2-.11-4.21,0-5.09,1.07l-.37.05-.62.16a2.73,2.73,0,0,0-.65-.22c-1.46-.31-2.75.9-3.27,2.28a2.09,2.09,0,0,0-.5.22,4.44,4.44,0,0,0-2.19,3.5l0,.09a3.19,3.19,0,0,0-.38.36A2.39,2.39,0,0,0,13.48,39a5.24,5.24,0,0,0-.69,1.85A.3.3,0,0,0,12.86,41.16Z"/><path class="cls-3" d="M12.13,45.26a3,3,0,0,0,3.17-.39h0a.61.61,0,0,0,.17.14,2.46,2.46,0,0,0,.27.17c0,.11.11.21.3.32a8.61,8.61,0,0,0,2.48.91,2.16,2.16,0,0,0,.89-.12l.49.16c-.06.18.06.33.5.39L21.6,47h.19L22,47A8.2,8.2,0,0,0,23,47.2a1.21,1.21,0,0,0,.31,0l.42,0c.34,0,.68.06,1,.07a2.33,2.33,0,0,0,.8-.18c.36.08.71.16,1.1.21a2.88,2.88,0,0,0,.92-.19l.25,0a1,1,0,0,0,.82.48,12.67,12.67,0,0,0,5.75-1.33,1.58,1.58,0,0,0,.51-.38.93.93,0,0,0,.23,0A8.47,8.47,0,0,0,37,45.14a1.82,1.82,0,0,0,.91-.65,4,4,0,0,0,.9-.64.56.56,0,0,1,0-.08,3.25,3.25,0,0,0,.29-.33c1-1.27-1-1.63-1.84-1.23a3.12,3.12,0,0,0-1.34,1,1.59,1.59,0,0,0-.5.1c-.62.24-1.25.44-1.88.63a13.4,13.4,0,0,0-1.93.51,1.65,1.65,0,0,0-.19.1,1.36,1.36,0,0,0-.65-.05L28.16,45a1.8,1.8,0,0,0-.93.22c-1.25-.4-3-.83-4.09-.29l-1.37-.24a8.4,8.4,0,0,0-3.08-.75,10.42,10.42,0,0,0-2.17-1.21,1.24,1.24,0,0,0-.51,0l-.07,0a.25.25,0,0,0-.09,0l-.1-.1a.41.41,0,0,0-.11-.07.71.71,0,0,0-.47-.21C13.66,41.92,9.37,43.59,12.13,45.26Z"/><path class="cls-4" d="M9.4,31.19a.66.66,0,0,0,.46.38c0,.14,0,.29,0,.5,0,.49.39.64.91.6a4.9,4.9,0,0,1,0,.54c-1.56,2.25-.78,5-.26,7.82.18,1,2.91.21,2.9-.77a8.24,8.24,0,0,1,0-1.86.73.73,0,0,0,.2-.27c.33-.82.7-1.61,1.1-2.39A1.63,1.63,0,0,0,16,34.17c0-.78,0-.89-.52-1.28a9,9,0,0,1-.76-3.19c0-.51.12-1,.11-1.51,0-.85-.3-1.18-.16-1.41.48-.78,1.5-1.09,2-2.07a4,4,0,0,0,.18-3c-.11-.41-.65-.52-1.23-.45a1.76,1.76,0,0,0-.42-.31,2.55,2.55,0,0,0-2.31.47,4,4,0,0,0-1.53,3.36.46.46,0,0,0,.29.29c.14.06.28.09.42.14v0a.37.37,0,0,0,.19.29L12,25.9c-.82-.16-2.23.39-2.34,1L9.46,28a.61.61,0,0,0,0,.14A3.21,3.21,0,0,0,9.4,31.19Z"/><path class="cls-4" d="M35.31,27.37a4,4,0,0,0,1,.71c.26.13,1.44.31,1.54.43.65.74-.07,2.46-.76,3.66a1.35,1.35,0,0,0-.48.43,2.63,2.63,0,0,0-.45.92L36,34c-.27.55-.11.86.24,1-.05.13-.09.25-.13.39-.31,1.07,1.48,1.1,2.42.43l-.09.31c-.39,1.8.42,4,.76,5.76.16.82,2.79.1,2.89-.6.31-2.23,1-4.68.31-6.88a.61.61,0,0,0-.53-.33,13.65,13.65,0,0,0,.9-2.66c.29-1.63.46-2.66-.58-4a3,3,0,0,0-1-.39,3.48,3.48,0,0,1-2.37-2.6c-.34-.58-.38-1.53-1-2a2.74,2.74,0,0,0-2.66.05l-.09,0a1.6,1.6,0,0,0-.95.36C32.67,24.15,34.19,26.34,35.31,27.37Z"/><path class="cls-4" d="M16.92,55.5a.37.37,0,0,0,0,.35,1.11,1.11,0,0,0,.11.16h0a1.4,1.4,0,0,0,.69.62l.07.08a.87.87,0,0,0,.63.25,1.73,1.73,0,0,0,.87.51,4,4,0,0,0,2,.59.72.72,0,0,0,.25.13,17.35,17.35,0,0,0,6.33.39,12.12,12.12,0,0,0,3.21-.27,3.46,3.46,0,0,0,2.35-.78c.12,0,.25-.09.37-.15.65-.31.84-.65.74-.92a3.63,3.63,0,0,0,.38-.55c.17-.29.15-.47,0-.58a4.67,4.67,0,0,0,.61-1.12c.37-1-2.28-.33-2.6,0s-1.66.86-2.61,1.56c-.14-.14-.46-.21-1-.14a26.23,26.23,0,0,1-4.06.18,2.92,2.92,0,0,0-1.28.47,4.19,4.19,0,0,0-1.88-.37,1.92,1.92,0,0,0-.94-.21.39.39,0,0,0-.14-.08l-.86-1a2.65,2.65,0,0,0-.42-.54c-.51-.57-3.11,0-2.8.93A.37.37,0,0,0,16.92,55.5Z"/><path class="cls-5" d="M10.35,32.57a2,2,0,0,0,2.54-1,2.56,2.56,0,0,0,1.44-3.51l0,0a1.16,1.16,0,0,0-.79-.93,1.94,1.94,0,0,0-.33-.07,2.56,2.56,0,0,0-.73-.15l-.06-.11c-.5-.76-2.33-.07-2.7.53C8.91,28.61,8.48,32,10.35,32.57Z"/><path class="cls-1" d="M8.65,29.77a2.54,2.54,0,0,0,.35.78,1.28,1.28,0,0,0,.34.9.92.92,0,0,0,.54,1.29,3,3,0,0,0,2.83-.82,1.9,1.9,0,0,0,.34-.41l.19-.06a2.5,2.5,0,0,0,1.56-.77,2.81,2.81,0,0,0,.11-2.93,1.49,1.49,0,0,0-1.53-.63,2.59,2.59,0,0,0-.63-.07,2.15,2.15,0,0,0-.54-.19,2.54,2.54,0,0,0-2.7.15A2.5,2.5,0,0,0,8.65,29.77Z"/><path class="cls-1" d="M38.1,29.89c-.43.67-.18,1.46.89,1.73a4,4,0,0,0,.73.11.75.75,0,0,1,.36.14c.23.22.13.56.39.8.49.44,3.1-.07,2.8-.92a3.3,3.3,0,0,1-.2-1.46A.34.34,0,0,0,43,30a.68.68,0,0,0-.18-.56.82.82,0,0,0-.33-1.25,2.11,2.11,0,0,0,0-.71,1.23,1.23,0,0,0-1.34-1.17,3,3,0,0,0-2.53,1.3,2.13,2.13,0,0,0-.38.56,1.83,1.83,0,0,0-.13,1.35A2.34,2.34,0,0,0,38.1,29.89Z"/><path class="cls-6" d="M32.36,18.05a1.16,1.16,0,0,0,1.27.62,16.14,16.14,0,0,0,.67,2.7c.42,1.25,3.31.44,2.89-.77-1.18-3.44-1-7-1.64-10.53-.3-1.78-.76-4.93-3.06-5.17C26.31,4.26,31.55,15.83,32.36,18.05Z"/><path class="cls-3" d="M28.12,55.62c.6.62,2.63,0,2.81-.74a15.13,15.13,0,0,0,4.82-3.23,11.62,11.62,0,0,0,2.89-6.24c.15-1.15-2.77-.64-2.9.36a10.2,10.2,0,0,1-4.06,7C31.1,53.19,27,54.43,28.12,55.62Z"/><path class="cls-7" d="M26.52,31.26c2.5.59,4.84,1.72,6.09,4.1a55.24,55.24,0,0,1,2.73,7.2c.23.65,3.09-.23,2.9-.78-.09-.23-.17-.47-.25-.7.43-.23.85-.59.68-1a20.76,20.76,0,0,0-1.49-2.89.79.79,0,0,0-.6-.34,13.12,13.12,0,0,0-1.8-3.4,10,10,0,0,0-5.88-3.29C28.24,30,25.73,31.07,26.52,31.26Z"/><path class="cls-8" d="M35.57,44.59c-.18,1,2.73.55,2.89-.39a4.72,4.72,0,0,0,0-1.5c-.08-.59-1.29-.38-1.63-.29s-1.35.46-1.27,1.06A3.5,3.5,0,0,1,35.57,44.59Z"/><path d="M13.51,42.77a13.84,13.84,0,0,1,2.25-7.34c2.07-3,3.91-3.48,7.61-4.19,3.53-.68,4.83-1.13,7.77.46A13.33,13.33,0,0,1,38,43.32c0,8.23-8.12,15.08-16.51,11.54-5-2.13-7.76-6.78-8-12.09,0-.38-2.09,0-2.06.55.91,18,28.67,17.13,28.65-.55,0-18.26-27.77-16.89-28.65.55C11.44,43.63,13.47,43.38,13.51,42.77Z"/><path d="M38.28,44a25.15,25.15,0,0,1-24.79-.29c-.52-.3-2.21.54-1.94.7a28.69,28.69,0,0,0,28.31-.34c.86-.5-1.19-.3-1.58-.07Z"/><path d="M38.28,41.24A25.1,25.1,0,0,1,13.49,41c-.52-.29-2.21.55-1.94.71a28.67,28.67,0,0,0,28.31-.35c.86-.5-1.19-.29-1.58-.07Z"/><path d="M16,53.74c-2.22,6.77,8.41,5.63,12.14,5.38,4.71-.31,10.07-.48,8.35-6.71-.13-.49-2.19.06-2.05.55A8.65,8.65,0,0,1,34.84,55c-.57,2.22-1.8,3.23-3.69,3.05a20.27,20.27,0,0,1-4.33.29c-3.38.11-10.59.4-8.83-5,.14-.42-1.85-.19-2,.35Z"/><path d="M22.35,58.15a8,8,0,0,1-.1-2.24c.1-1-2-.68-2.07.19a8.73,8.73,0,0,0,.12,2.6c.16.89,2.22.37,2.05-.55Z"/><path d="M31.38,57.81l.19-2.41c0-.39-2-.13-2.05.55l-.19,2.41c0,.39,2,.13,2.05-.55Z"/><path class="cls-1" d="M17.82,39.11a5.85,5.85,0,0,1,1.27-2.2.58.58,0,0,0-.26-1,1.43,1.43,0,0,0-1.45.39,6.74,6.74,0,0,0-1.52,2.56c-.36,1.11,1.69,1.07,2,.22Z"/><path class="cls-1" d="M22.72,34.12a.7.7,0,0,1,.16-.14L23,34c.22-.05,1-.3.93-.64s-.94-.13-1.12-.09a4.21,4.21,0,0,0-1.92,1c-.35.33.3.41.5.4a2.26,2.26,0,0,0,1.37-.5Z"/><path d="M13,42.86c-2.66-2.56-4-5.81-2-9.23v-.11A8.11,8.11,0,0,1,9.64,30a7,7,0,0,1,.22-2.77c2.47-.94,3.77-.52,3.92,1.24.19,1-.68,2.38-.35,3.37.24.69,1.32,1.34,1.83,1.79s2.29-.4,1.93-.72c-1.26-1.12-1.55-1.05-1.51-3.08,0-.5.18-1,.15-1.46a2.86,2.86,0,0,0-1.63-2.74c-1.31-.56-4.77-.06-5.8,1-2.22,2.35.34,5.74.06,8.27-.17,1.58-.72,2.6-.28,4.25a9.66,9.66,0,0,0,2.93,4.44c.41.39,2.29-.37,1.93-.71Z"/><path d="M11.12,34.23A3.69,3.69,0,0,1,14,32.63c1.19-.06,1.57-1.64.17-1.57a6.3,6.3,0,0,0-4.81,2.51c-.79,1.06,1.14,1.45,1.73.66Z"/><path d="M41,43.16c2.89-2.78,3.12-5,2.69-8.72-.28-2.39,2.61-6.71-.39-8.46a5.91,5.91,0,0,0-5.68.21,3.07,3.07,0,0,0-1.31,2.23c-.36,2.45.84,2.93-1.33,4.86-.47.41,1.47.23,1.87-.12,2.19-1.95,1.58-1.67,1.52-4.38-.27-2.45,1-2.83,3.9-1.16a7.29,7.29,0,0,1,.28,1.91A7.72,7.72,0,0,1,41.1,34v.1c1.91,3.39.67,6.65-2,9.2-.46.45,1.49.25,1.87-.11Z"/><path d="M42.8,33.44a5.93,5.93,0,0,0-4.46-2.38,1.33,1.33,0,0,0-1.33.65.68.68,0,0,0,.64.91,4.18,4.18,0,0,1,3.27,1.74c.58.78,2.53,0,1.88-.92Z"/><path d="M11.91,24.34c-.15-1.1.3-3.08,1.77-3A2.92,2.92,0,0,1,16,23.75c.18,1-.29,3-1.62,3s-2.2-1.34-2.46-2.41c-.1-.4-2.16.12-2.05.55,1.09,4.5,9,2.77,8.18-1.69s-8.77-2.76-8.18,1.69C9.9,25.24,12,24.84,11.91,24.34Z"/><path d="M34.67,25.11c-.14-1.07.28-3,1.71-2.91a2.87,2.87,0,0,1,2.26,2.33c.18,1-.27,2.91-1.56,2.94s-2.16-1.33-2.41-2.36c-.1-.4-2.16.12-2.05.55,1.07,4.43,8.87,2.71,8.07-1.68s-8.65-2.7-8.07,1.68C32.66,26,34.73,25.6,34.67,25.11Z"/><path d="M37.75,21.32c.2-4.2.9-19.46-7-17.25-2.05.57-2.66,2.11-2.33,4.13C29.16,13,31.61,18,33.71,22.34c.29.6,2.28-.08,2.06-.55a85.18,85.18,0,0,1-3.55-8.36C31.79,12.2,31.37,11,31,9.73c-.55-1.84-1.37-2.71.69-3.4q1.85-1.35,2.42,1a9.45,9.45,0,0,1,.62,1.86,28.21,28.21,0,0,1,.63,3.54,49.29,49.29,0,0,1,.34,9.09c0,.45,2,.15,2-.55Z"/><path d="M12.84,45.5c-1.76,2.21-3.46,5.16-5.93,6.62-1.18.7.64.88,1.25.52C10.93,51,12.77,48,14.73,45.49c.53-.66-1.51-.48-1.89,0Z"/><path d="M8.44,53.51a1.18,1.18,0,0,0-1-1.71c-.87-.12-2.27.39-2.29,1.44s1.41,1.26,2.19.91,1.26-1.42.34-1.81a1.5,1.5,0,0,0-1.46.16c-.27.18-.62.72-.15.93-.11,0,1.71-.49.73-.42l.5,0s-.1,0-.07-.1,0-.05,0,0a8.28,8.28,0,0,0-.84.16c0,.09.15.18.09.3-.44,1,1.62.87,1.94.14Z"/></g></svg>