<svg xmlns="http://www.w3.org/2000/svg" viewBox="0 0 141.67 85.67"><defs><style>.cls-1{fill:#fff;}.cls-2{fill:#8a4c0f;}.cls-3{fill:#dd9d56;}.cls-4{font-size:4.67px;font-family:v_SilverAgeLCBB, v;}.cls-5{fill:#ccc;}.cls-6{fill:#1a1a1a;}.cls-7{fill:#164072;}.cls-8{fill:#0f2c49;}.cls-9{fill:none;stroke:#fff;stroke-linejoin:bevel;stroke-width:2.13px;}</style></defs><title>personaji_3</title><g id="Слой_1" data-name="Слой 1"><path class="cls-1" d="M135.94,13.93v6a3.57,3.57,0,0,1-3.56,3.58l-41.3-.42C88.73,26.49,78.4,29,78.4,29A8.76,8.76,0,0,0,81,22.88c-2,0-4.45-1-4.45-2.95v-6a3.57,3.57,0,0,1,3.58-3.57h52.25A3.56,3.56,0,0,1,135.94,13.93Z"/><path d="M135.31,13.93c0,3.27.75,7.56-3.21,8.94-1.33.46-3.7,0-5.09-.06l-20.23-.2-9.61-.1c-1.65,0-4-.47-5.59-.05s-2.52,1.71-4,2.56a38,38,0,0,1-9.32,3.4l.62,1.06a9.9,9.9,0,0,0,2.79-6.6.66.66,0,0,0-.64-.64c-5.18-.57-5.46-10-.65-11.25a18.92,18.92,0,0,1,4.12,0h38c2.92,0,12.08-1.68,12.85,3.11.13.81,1.36.47,1.23-.34-.93-5.77-9.11-4-13.29-4H83.91c-1.53,0-3.58-.32-5.08.2-3.52,1.24-3.08,5.45-2.92,8.46.09,1.58-.06,2.69,1.2,3.87.24.23,2.39,1,2.51,1.11C81,25,79.15,27.27,78,28.58a.64.64,0,0,0,.62,1.07,43.38,43.38,0,0,0,9.15-3.27c2.13-1.1,2.8-2.26,4.82-2.64,2.53-.47,5.68.06,8.23.08l12,.13c6.27.06,12.63.46,18.89.19,5.91-.26,5-5.74,5-10.21A.64.64,0,0,0,135.31,13.93Z"/><path d="M83.42,16.37a1.51,1.51,0,0,1-.13.6,2.29,2.29,0,0,1-.36.6.79.79,0,0,1-.61.24,2.62,2.62,0,0,1-.53-.08c-.54-.12-.82-.54-.82-1.23a1.55,1.55,0,0,1,0-.31,1.37,1.37,0,0,1,.38-.79.9.9,0,0,1,.8-.29h.11a3.33,3.33,0,0,1,.49.09A1.24,1.24,0,0,1,83.42,16.37ZM83,16a.65.65,0,0,0-.43-.26l-.23,0c-.17,0-.23,0-.2,0l-.06,0a1,1,0,0,0-.48.33.86.86,0,0,0-.23.5.55.55,0,0,0,.25.47.81.81,0,0,0,.54.13A1.09,1.09,0,0,0,82.7,17a.83.83,0,0,0,.34-.48A.58.58,0,0,0,83,16Z"/><path d="M85.36,16.21c0-.08,0-.17,0-.29v-.26a1.43,1.43,0,0,1,0-.36c0-.09.08-.13.14-.13s.17.06.18.19a6,6,0,0,1,0,.66v.74h0c0,.14,0,.39,0,.75a.31.31,0,0,1-.06.28.25.25,0,0,1-.29.05.23.23,0,0,1-.08-.21,2.78,2.78,0,0,1,.08-.44,1.22,1.22,0,0,0,0-.22l0-.34a6,6,0,0,1-.61.07l-.32,0-.11,0a1.36,1.36,0,0,1,0,.2,3.1,3.1,0,0,1,.07.37l0,.18a.16.16,0,0,1,0,.17.3.3,0,0,1-.22.09s-.09,0-.15-.1A.54.54,0,0,1,84,17.3v-.39a2.24,2.24,0,0,0,0-.52l0-.49s0-.11,0-.23,0-.19,0-.25a.27.27,0,0,1,0-.19c.23-.18.34,0,.34.66v0a1,1,0,0,0,0,.24.24.24,0,0,0,.21.06h.31a1,1,0,0,0,.3,0A.84.84,0,0,0,85.36,16.21Z"/><path d="M88.17,17.11l0,.33,0,.16a.13.13,0,0,1,0,.15.33.33,0,0,1-.21.07.31.31,0,0,1-.15-.09s-.08-.19-.1-.45c0,0,0,0-.09.1a3.73,3.73,0,0,1-.55.3.72.72,0,0,1-.64,0,.53.53,0,0,1-.17-.47,1.39,1.39,0,0,1,0-.39l0-.26c0-.05,0-.12,0-.2l0-.49a1.34,1.34,0,0,0,0-.23c0-.11,0-.19,0-.25a.27.27,0,0,1,0-.19c.23-.18.34,0,.34.66v0a2.52,2.52,0,0,0,0,.37v.37a1,1,0,0,0,0,.47c0,.12.13.14.34.06a1.28,1.28,0,0,0,.58-.49,1.16,1.16,0,0,0,.08-.48,1.22,1.22,0,0,0,0-.32,1.57,1.57,0,0,1,0-.26,1,1,0,0,1,0-.36c0-.09.08-.13.14-.13s.16.06.18.19a6.25,6.25,0,0,1,0,.66l0,.61s0,.14,0,.32S88.17,17.08,88.17,17.11Z"/><path d="M92.68,17.73q-.17.14-.24.06a.22.22,0,0,1-.09-.21c0-.08,0-.2,0-.39a1,1,0,0,0,0-.22l0-.58a1.11,1.11,0,0,0-.09-.58c0-.09-.3-.09-.79,0-.19,0-.28.22-.29.56q0,.25,0,.57c0,.08,0,.21.07.37l0,.18a.15.15,0,0,1,0,.17.28.28,0,0,1-.22.09s-.08,0-.14-.1a.54.54,0,0,1-.09-.35l0-.84c0-.35,0-.62,0-.8a.32.32,0,0,1,0-.21A.21.21,0,0,1,91,15.3l.17,0,.43-.06a2.26,2.26,0,0,1,.54,0c.32,0,.5.07.53.18a1.45,1.45,0,0,1,0,.63c0-.08,0,.16,0,.74a4.47,4.47,0,0,0,0,.73A.37.37,0,0,1,92.68,17.73Z"/><path d="M95.72,16.37a1.53,1.53,0,0,1-.14.6,2.08,2.08,0,0,1-.35.6.81.81,0,0,1-.62.24,2.62,2.62,0,0,1-.53-.08c-.54-.12-.81-.54-.81-1.23a3,3,0,0,1,0-.31,1.32,1.32,0,0,1,.39-.79.88.88,0,0,1,.79-.29h.11a3,3,0,0,1,.49.09A1.25,1.25,0,0,1,95.72,16.37Zm-.46-.4a.62.62,0,0,0-.43-.26l-.23,0c-.16,0-.23,0-.19,0l-.06,0a1,1,0,0,0-.49.33.84.84,0,0,0-.22.5.52.52,0,0,0,.24.47.84.84,0,0,0,.55.13A1.09,1.09,0,0,0,95,17a.87.87,0,0,0,.34-.48A.59.59,0,0,0,95.26,16Z"/><path d="M96.75,16.41q0-.19.06-.21l.25,0c.37,0,.55-.13.52-.32a.34.34,0,0,0-.16-.18l-.23-.07a.84.84,0,0,0-.21,0,.61.61,0,0,0-.4.12c-.14.08-.23.1-.29,0a.27.27,0,0,1,0-.25.44.44,0,0,1,.25-.27,1.07,1.07,0,0,1,.41-.1,1.87,1.87,0,0,1,.46,0,1,1,0,0,1,.38.16.66.66,0,0,1,.21.23.83.83,0,0,1,.06.28.53.53,0,0,1-.08.31.6.6,0,0,1-.11.14.77.77,0,0,1,.34.41,1.14,1.14,0,0,1,0,.33.68.68,0,0,1-.33.63,2,2,0,0,1-1.06.23,1,1,0,0,1-.33-.08.73.73,0,0,1-.29-.29q-.14-.21.06-.3c.13-.06.23-.06.3,0a.49.49,0,0,0,.27.13,1.6,1.6,0,0,0,.38,0,1.18,1.18,0,0,0,.44-.14c.09-.06.14-.12.14-.2a.31.31,0,0,0-.11-.21.94.94,0,0,0-.62-.16Q96.78,16.61,96.75,16.41Z"/><path d="M101.05,16.37a1.38,1.38,0,0,1-.14.6,2.08,2.08,0,0,1-.35.6.81.81,0,0,1-.61.24,2.7,2.7,0,0,1-.54-.08c-.54-.12-.81-.54-.81-1.23a3,3,0,0,1,0-.31A1.45,1.45,0,0,1,99,15.4a.88.88,0,0,1,.79-.29h.11a3,3,0,0,1,.49.09A1.25,1.25,0,0,1,101.05,16.37Zm-.46-.4a.62.62,0,0,0-.43-.26l-.23,0c-.16,0-.23,0-.19,0l-.06,0a1,1,0,0,0-.49.33.84.84,0,0,0-.22.5.54.54,0,0,0,.24.47.85.85,0,0,0,.55.13,1.09,1.09,0,0,0,.57-.22.87.87,0,0,0,.34-.48A.59.59,0,0,0,100.59,16Z"/><path d="M103.88,16.43a1.25,1.25,0,0,1-.12.54,1.21,1.21,0,0,1-1,.74.69.69,0,0,1-.35,0q-.22-.08-.3,0a.34.34,0,0,0-.1.13c0,.1,0,.26,0,.48a2.12,2.12,0,0,1,0,.54.23.23,0,0,1-.15.17.11.11,0,0,1-.18-.05l0-.07s0-.19,0-.55a2.42,2.42,0,0,0,0-.38v-.22c0-.05,0-.26,0-.61a3.44,3.44,0,0,0,0-.61c0-.07,0-.17,0-.29l0-.3,0-.26a.33.33,0,0,1,0-.25.35.35,0,0,1,.22-.13h0a1.21,1.21,0,0,1,.6-.13,1.91,1.91,0,0,1,1,.25A1.21,1.21,0,0,1,103.88,16.43Zm-.61-.44a.92.92,0,0,0-.63-.24.79.79,0,0,0-.23,0,.55.55,0,0,0-.33.43,1.21,1.21,0,0,0,0,.61l0,0c0,.15.19.22.43.22a1.22,1.22,0,0,0,.32,0,.72.72,0,0,0,.58-.49A.49.49,0,0,0,103.27,16Z"/><path d="M104.85,16.83l-.22-.16a.68.68,0,0,1-.25-.37.74.74,0,0,1,0-.27.6.6,0,0,1,.08-.28,1.1,1.1,0,0,1,.6-.5,2,2,0,0,1,.56-.08,3.29,3.29,0,0,1,.59,0c.26,0,.36.15.3.34a.46.46,0,0,0-.11.35.5.5,0,0,1,0,.19c0,.18,0,.37,0,.56a.91.91,0,0,0,0,.17c0,.06,0,.28.08.65a.53.53,0,0,1-.06.24c-.06.09-.13.13-.22.1a.19.19,0,0,1-.13-.17l0-.33a1,1,0,0,0,0-.25c0-.08-.06-.11-.19-.1a.75.75,0,0,0-.24,0l-.21.15a2.38,2.38,0,0,1-.24.26l-.24.27a.67.67,0,0,1-.26.21.13.13,0,0,1-.14,0,.21.21,0,0,1-.09-.11.22.22,0,0,1,0-.14l.38-.63A.13.13,0,0,0,104.85,16.83Zm1-1.15a.86.86,0,0,0-.55,0c-.26.1-.42.23-.46.41s0,.2.16.29a1.26,1.26,0,0,0,.49.11,1.76,1.76,0,0,0,.31,0,.35.35,0,0,0,.12-.07.5.5,0,0,0,0-.13v-.14C106,15.87,106,15.71,105.85,15.68Z"/><path d="M110.05,17.19a2.67,2.67,0,0,1,0,.37.21.21,0,0,1-.24.19.17.17,0,0,1-.2-.15.56.56,0,0,1,0-.36,2.78,2.78,0,0,0,0-.41v-.31c0-.1,0-.2,0-.29a.3.3,0,0,0-.24-.33.66.66,0,0,0-.43,0c-.15.07-.24.28-.28.61a2,2,0,0,0,0,.38.46.46,0,0,1,0,.17.92.92,0,0,0,0,.19.39.39,0,0,1-.07.28c-.11.09-.21.11-.29.06a.24.24,0,0,1-.08-.21,2.28,2.28,0,0,1,.07-.44v-.6c0-.32-.07-.52-.19-.59a.65.65,0,0,0-.43,0c-.2.07-.3.26-.3.55l0,.25a1.29,1.29,0,0,1,0,.32c0,.08,0,.21.07.37l0,.18a.16.16,0,0,1,0,.17.3.3,0,0,1-.22.09.19.19,0,0,1-.15-.1.5.5,0,0,1-.1-.35l0-.84c0-.35,0-.62,0-.8a2.07,2.07,0,0,1,0-.38.25.25,0,0,1,.12-.13.17.17,0,0,1,.17,0l0,0,0,.09s0,0,.07,0l.35-.09a.82.82,0,0,1,.26,0,.47.47,0,0,1,.37.18h0a.35.35,0,0,0,.16.06,1,1,0,0,0,.4-.07l.41-.11a.48.48,0,0,1,.38.09.64.64,0,0,1,.18.35c.05.19.08.32.09.37a1.74,1.74,0,0,1,0,.23,1.34,1.34,0,0,0,0,.22Z"/><path d="M113.18,15.08a3.46,3.46,0,0,1,0,.43c0,.67,0,1.08,0,1.25s0,.41,0,.53a1,1,0,0,1,0,.48.35.35,0,0,1-.23.12s-.09-.05-.13-.14a.8.8,0,0,1-.08-.48l.06-1.13c0-.29,0-.59,0-.88v-.21s0-.07,0-.1l0-.29c0-.25.28-.37.85-.37l.7,0,.78,0s.06,0,.07.09v.3a2.28,2.28,0,0,0,0,.25c0,.15,0,.27,0,.34s0,.15,0,.27a10.26,10.26,0,0,0,.07,1l.06.58a2.38,2.38,0,0,1,0,.3.3.3,0,0,1-.06.2s-.1,0-.17,0a.29.29,0,0,1-.15-.14,1.12,1.12,0,0,1-.09-.53V16.5c0-.19,0-.54,0-1.05v-.33a1.56,1.56,0,0,0,0-.2c0-.05,0-.07-.06-.07h-.93A1.53,1.53,0,0,0,113.18,15.08Z"/><path d="M117.87,15.08c.15,0,.2.11.15.31a2.8,2.8,0,0,1-.15.42,2.6,2.6,0,0,0-.26.6l-.07.22-.19.6-.18.63-.16.58a1.71,1.71,0,0,1-.09.3.17.17,0,0,1-.17.12.32.32,0,0,1-.2-.08.18.18,0,0,1-.09-.17.46.46,0,0,1,.08-.25,1.23,1.23,0,0,0,.13-.31,4.36,4.36,0,0,0,.12-.6.71.71,0,0,0,0-.21,1.24,1.24,0,0,0-.32-.63c0-.06-.1-.16-.17-.29l-.16-.28a3.61,3.61,0,0,1-.36-.57.49.49,0,0,1,.06-.32c.07-.13.14-.17.21-.13a1.67,1.67,0,0,1,.4.57l.12.21a.86.86,0,0,0,.41.47c.18.12.35-.06.5-.52a1.74,1.74,0,0,1,.13-.58A.36.36,0,0,1,117.87,15.08Z"/><path d="M121.4,17.19a2.67,2.67,0,0,1,0,.37.23.23,0,0,1-.25.19.18.18,0,0,1-.2-.15.64.64,0,0,1,0-.36,1.58,1.58,0,0,0,0-.41c0-.09,0-.19,0-.31s0-.2,0-.29a.3.3,0,0,0-.23-.33.65.65,0,0,0-.43,0c-.15.07-.25.28-.28.61a2,2,0,0,0,0,.38v.17a1,1,0,0,0,0,.19c0,.14,0,.23-.07.28s-.2.11-.28.06a.22.22,0,0,1-.09-.21,2.6,2.6,0,0,1,.08-.44s0-.18,0-.6-.06-.52-.19-.59a.64.64,0,0,0-.43,0c-.19.07-.29.26-.29.55l0,.25a1.2,1.2,0,0,1,0,.32c0,.08,0,.21.07.37l0,.18a.16.16,0,0,1,0,.17.28.28,0,0,1-.22.09s-.09,0-.15-.1a.56.56,0,0,1-.09-.35l0-.84c0-.35,0-.62,0-.8a1,1,0,0,1,0-.38.25.25,0,0,1,.12-.13.17.17,0,0,1,.17,0l0,0,.06.09s0,0,.07,0l.34-.09a.92.92,0,0,1,.26,0,.46.46,0,0,1,.37.18h0a.35.35,0,0,0,.16.06.94.94,0,0,0,.39-.07l.41-.11a.5.5,0,0,1,.39.09.81.81,0,0,1,.18.35c0,.19.08.32.09.37a2.11,2.11,0,0,1,0,.23c0,.1,0,.18,0,.22Z"/><path d="M123.86,17.11l0,.33,0,.16a.14.14,0,0,1,0,.15.35.35,0,0,1-.22.07.44.44,0,0,1-.15-.09,1,1,0,0,1-.09-.45.32.32,0,0,1-.09.1,3.73,3.73,0,0,1-.55.3.72.72,0,0,1-.64,0c-.12-.07-.17-.23-.17-.47a1.39,1.39,0,0,1,0-.39l0-.26v-.2l0-.49a1.34,1.34,0,0,0,0-.23c0-.11,0-.19,0-.25a.27.27,0,0,1,0-.19c.23-.18.34,0,.34.66v0c0,.08,0,.2,0,.37v.37a1.3,1.3,0,0,0,0,.47c0,.12.14.14.35.06a1.33,1.33,0,0,0,.58-.49,1.16,1.16,0,0,0,.08-.48,1.22,1.22,0,0,0,0-.32,1.57,1.57,0,0,1,0-.26,1,1,0,0,1,0-.36c0-.09.07-.13.14-.13s.16.06.18.19a6.25,6.25,0,0,1,0,.66l0,.61s0,.14,0,.32A1.32,1.32,0,0,0,123.86,17.11Z"/><path d="M125.83,16.21c0-.08,0-.17,0-.29a1.57,1.57,0,0,1,0-.26,1,1,0,0,1,0-.36c0-.09.07-.13.14-.13s.16.06.18.19a6.25,6.25,0,0,1,0,.66v.74h0a6.34,6.34,0,0,0,0,.75.38.38,0,0,1-.06.28c-.12.08-.21.1-.29.05a.23.23,0,0,1-.08-.21,2.39,2.39,0,0,1,.07-.44,1,1,0,0,0,0-.22l0-.34c-.25,0-.45.06-.61.07a1.73,1.73,0,0,0-.32,0l-.11,0c0,.07,0,.13,0,.2s0,.21.07.37l0,.18a.16.16,0,0,1,0,.17.29.29,0,0,1-.22.09s-.09,0-.14-.1a.49.49,0,0,1-.1-.35v-.39a4.41,4.41,0,0,0,0-.52l0-.49s0-.11,0-.23a1.29,1.29,0,0,1,0-.25c0-.1,0-.16,0-.19.23-.18.34,0,.34.66v.29a.24.24,0,0,0,.21.06h.31a1,1,0,0,0,.31,0A.74.74,0,0,0,125.83,16.21Z"/><path d="M129.05,17v.33a2.57,2.57,0,0,1,0,.34.22.22,0,0,1-.16.2l-.22,0-.37,0h-.16a2.67,2.67,0,0,1-1.1-.17.67.67,0,0,1-.32-.62.86.86,0,0,1,.05-.32.76.76,0,0,1,.89-.51,2.6,2.6,0,0,0,.55,0c.26,0,.38-.1.38-.19s0-.16-.17-.23a.67.67,0,0,0-.35-.1l-.42.07-.42.07c-.13,0-.19,0-.19-.17a.61.61,0,0,1,.07-.28.18.18,0,0,1,.17-.11l.51-.11.27,0a.85.85,0,0,1,.36.05,1.18,1.18,0,0,1,.43.28.9.9,0,0,1,.23.65c0,.06,0,.15,0,.26s0,.23,0,.28S129,16.84,129.05,17Zm-1.07.32c.44,0,.67-.1.71-.29v-.1c-.06-.13-.19-.19-.41-.19H128a1.12,1.12,0,0,0-.7.19.3.3,0,0,0-.15.16c0,.05,0,.1.13.14a1.74,1.74,0,0,0,.49.09Z"/><path d="M130.41,17.56a.17.17,0,0,1-.09.18.81.81,0,0,1-.44.2c-.19,0-.27-.12-.23-.32s.15-.23.4-.24l0,0a.31.31,0,0,1,.18.05A.18.18,0,0,1,130.41,17.56Zm.26-2.84c-.13.54-.2.83-.2.86l-.06.26a2.15,2.15,0,0,0-.07.26s0,.2-.05.53a.23.23,0,0,1-.08.17.22.22,0,0,1-.22,0c-.08,0-.13-.07-.13-.14l0-.23a.63.63,0,0,0,0-.17l0-.19a1.14,1.14,0,0,0,.06-.25c0-.08,0-.23,0-.44s0-.34,0-.45v-.41c0-.18,0-.29.07-.32a.63.63,0,0,1,.28,0c.14,0,.22,0,.23.05A.86.86,0,0,1,130.67,14.72Z"/><path class="cls-2" d="M51.27,57.66A5.12,5.12,0,1,0,56.37,63a5.21,5.21,0,0,0-5.1-5.32c-1.93-.1-1.93,2.9,0,3,2.71.15,2.73,4.24,0,4.24s-2.72-4.09,0-4.24C53.19,60.56,53.2,57.56,51.27,57.66Z"/><path class="cls-2" d="M47.65,61.28H40.86a1.5,1.5,0,0,0,0,3h6.79a1.5,1.5,0,0,0,0-3Z"/><polygon class="cls-3" points="20.32 74.29 20.32 51.42 40.86 54.42 40.86 71.29 20.32 74.29"/><path class="cls-2" d="M21.82,74.29V51.42l-1.9,1.44,20.54,3-1.1-1.44V71.29l1.1-1.45-20.54,3c-1.9.28-1.09,3.17.8,2.9l20.54-3a1.51,1.51,0,0,0,1.1-1.45V54.42A1.51,1.51,0,0,0,41.26,53L20.72,50a1.53,1.53,0,0,0-1.9,1.45V74.29A1.5,1.5,0,0,0,21.82,74.29Z"/><path d="M39.28,70.7l-4.43-7.26c-.71-1.17-2.55-.1-1.84,1.07l4.43,7.26c.71,1.16,2.55.1,1.84-1.07Z"/><rect class="cls-1" x="32.35" y="69.71" width="12.65" height="7.74" transform="translate(-30.52 27.52) rotate(-28.62)"/><path d="M31.8,74.12l11.1-6.05-1.45-.38,3.7,6.79L45.53,73l-11.1,6.06,1.46.38-3.71-6.79c-.65-1.2-2.49-.13-1.83,1.07l3.7,6.8a1.09,1.09,0,0,0,1.46.38l11.1-6.06A1.09,1.09,0,0,0,47,73.4l-3.71-6.79a1.08,1.08,0,0,0-1.45-.38l-11.1,6.06C29.53,72.94,30.6,74.78,31.8,74.12Z"/><text class="cls-4" transform="matrix(-0.88, 0.48, -0.48, -0.88, 42.61, 70.35)">Сквер</text><path d="M33.39,54.93l-3.86,7.58c-.62,1.21,1.21,2.29,1.84,1.07L35.23,56c.62-1.21-1.21-2.29-1.84-1.07Z"/><rect class="cls-1" x="32.28" y="47.65" width="7.74" height="12.65" transform="translate(-28.66 58.54) rotate(-60.22)"/><path d="M40.25,59.56l-11-6.28.38,1.45L33.5,48,32,48.4l11,6.28-.38-1.46-3.85,6.72A1.06,1.06,0,0,0,40.63,61l3.84-6.71a1.08,1.08,0,0,0-.38-1.46l-11-6.28a1.09,1.09,0,0,0-1.46.38l-3.84,6.72a1.08,1.08,0,0,0,.38,1.45l11,6.28A1.06,1.06,0,0,0,40.25,59.56Z"/><path d="M32.61,50.93l-.16.24q-.35.59-.42.75l-.16.32c-.08.18-.14.27-.17.28a.27.27,0,0,1-.18,0,.22.22,0,0,1,0-.14.61.61,0,0,1,.11-.31l.42-.64c.11-.17.22-.35.31-.52l.07-.13,0-.06.07-.19c.09-.14.3-.12.63.07l.41.25a4.43,4.43,0,0,1,.45.29.08.08,0,0,1,0,.07l-.1.19-.09.15a1.08,1.08,0,0,0-.13.19.64.64,0,0,0-.1.16c-.11.19-.21.4-.32.64l-.16.37a1,1,0,0,1-.08.19.17.17,0,0,1-.1.09s-.07,0-.11,0a.37.37,0,0,1,0-.14.8.8,0,0,1,.13-.34l.19-.34.35-.63.11-.19a.67.67,0,0,0,.06-.12s0-.05,0-.07l-.08,0-.2-.11a1.52,1.52,0,0,0-.2-.11l-.08,0C32.82,50.93,32.67,50.9,32.61,50.93Z"/><path d="M35.18,53.41a.91.91,0,0,1-.28.31,1.61,1.61,0,0,1-.42.24.54.54,0,0,1-.44-.07,1.47,1.47,0,0,1-.29-.22.74.74,0,0,1-.06-1,1.08,1.08,0,0,1,.11-.18,1,1,0,0,1,.5-.34.6.6,0,0,1,.57.1l.06,0a1.39,1.39,0,0,1,.26.23A.84.84,0,0,1,35.18,53.41ZM35.05,53a.42.42,0,0,0-.17-.3l-.13-.09c-.1-.06-.14-.07-.12-.05h-.05a.64.64,0,0,0-.4,0,.54.54,0,0,0-.3.22.36.36,0,0,0,0,.36.51.51,0,0,0,.28.26.71.71,0,0,0,.41.06.56.56,0,0,0,.36-.17A.4.4,0,0,0,35.05,53Z"/><path d="M35.78,53.79c0-.09.07-.12.11-.1l.16.06c.23.11.37.11.42,0a.23.23,0,0,0,0-.16.57.57,0,0,0-.11-.12.58.58,0,0,0-.12-.08.51.51,0,0,0-.28-.07c-.11,0-.17,0-.18-.07a.15.15,0,0,1,.06-.16A.26.26,0,0,1,36,53a.61.61,0,0,1,.28.08.88.88,0,0,1,.26.17.77.77,0,0,1,.17.22.54.54,0,0,1,0,.21,1.45,1.45,0,0,1-.06.19.36.36,0,0,1-.15.15.33.33,0,0,1-.12,0,.45.45,0,0,1,.06.36.58.58,0,0,1-.07.21.45.45,0,0,1-.42.26,1.33,1.33,0,0,1-.7-.22.44.44,0,0,1-.17-.16.48.48,0,0,1-.08-.27c0-.11,0-.16.14-.16s.16,0,.17.11a.38.38,0,0,0,.12.17,1.28,1.28,0,0,0,.23.14.84.84,0,0,0,.3.06.16.16,0,0,0,.15-.07.17.17,0,0,0,0-.16c0-.1-.13-.2-.31-.31S35.75,53.87,35.78,53.79Z"/><path d="M38.35,55.22a1,1,0,0,1-.29.31,1.46,1.46,0,0,1-.41.24.57.57,0,0,1-.45-.07,2.45,2.45,0,0,1-.29-.22.74.74,0,0,1-.06-1,1.88,1.88,0,0,1,.12-.18,1,1,0,0,1,.5-.34.63.63,0,0,1,.57.1l.06,0a1.9,1.9,0,0,1,.26.23A.84.84,0,0,1,38.35,55.22Zm-.14-.39a.41.41,0,0,0-.16-.3l-.13-.09c-.1,0-.14-.07-.13,0h0a.71.71,0,0,0-.4,0,.53.53,0,0,0-.31.22A.38.38,0,0,0,37,55a.59.59,0,0,0,.28.26.83.83,0,0,0,.41.07.62.62,0,0,0,.37-.18A.38.38,0,0,0,38.21,54.83Z"/><path d="M40,56.22a.87.87,0,0,1-.26.28.83.83,0,0,1-.82.11.37.37,0,0,1-.21-.12c-.07-.08-.13-.12-.17-.12a.24.24,0,0,0-.1.05c0,.06-.09.16-.16.29l-.18.32a.2.2,0,0,1-.15,0c-.06,0-.09,0-.09-.1v0a2.93,2.93,0,0,1,.19-.33l.15-.21.06-.13.21-.37a3.07,3.07,0,0,0,.18-.38,1.78,1.78,0,0,0,.08-.18l.08-.19.06-.17a.25.25,0,0,1,.11-.13.19.19,0,0,1,.18,0h0a1,1,0,0,1,.41.13,1.32,1.32,0,0,1,.48.48A.84.84,0,0,1,40,56.22Zm-.21-.47a.64.64,0,0,0-.3-.35.47.47,0,0,0-.15-.06.38.38,0,0,0-.34.14,1,1,0,0,0-.18.38v0c0,.1,0,.2.17.28a1.31,1.31,0,0,0,.21.08.5.5,0,0,0,.51-.09A.36.36,0,0,0,39.8,55.75Z"/><path d="M29.33,72.77l3.26-7.86c.52-1.26-1.53-1.81-2.05-.56L27.28,72.2c-.52,1.27,1.53,1.82,2,.57Z"/><rect class="cls-1" x="22.72" y="67.79" width="7.74" height="12.65" transform="translate(-51.77 66.47) rotate(-64.69)"/><path d="M22,68.83l11.44,5.41L33,72.78l-3.3,7,1.45-.38L19.76,74l.38,1.45,3.31-7c.58-1.23-1.25-2.31-1.84-1.07l-3.31,7a1.08,1.08,0,0,0,.39,1.45l11.43,5.41a1.08,1.08,0,0,0,1.45-.38l3.31-7a1.09,1.09,0,0,0-.38-1.46L23.07,67C21.84,66.41,20.76,68.24,22,68.83Z"/><path d="M28.43,74.06a.25.25,0,0,1,.14-.13c.09,0,.14,0,.17.11a.72.72,0,0,0,0,.13v.12a1.94,1.94,0,0,0,.06.22c0,.09,0,.16.05.22a.86.86,0,0,0,.16.46.15.15,0,0,0,.16.06.74.74,0,0,0,.18-.07,5,5,0,0,0,.46-.29l.2-.15a.18.18,0,0,1,.22,0,.17.17,0,0,1,0,.18.89.89,0,0,1-.36.28l-.22.1-.15.07q-.3.15-.33.36a1.56,1.56,0,0,0,.05.5,1.39,1.39,0,0,1,0,.58q-.07.1-.24,0a.22.22,0,0,1-.13-.19v0c0-.05,0-.14,0-.29s0-.24-.05-.29-.07-.21-.11-.23a.21.21,0,0,0-.18,0,3.76,3.76,0,0,0-.44.21l-.1.07-.11.08a.25.25,0,0,1-.23,0,.18.18,0,0,1-.05-.2,2.16,2.16,0,0,1,.64-.36c.26-.12.38-.24.37-.38s0-.14-.05-.23-.06-.2-.07-.23A1.67,1.67,0,0,1,28.43,74.06Z"/><path d="M26.38,74a1,1,0,0,1,.23-.3.87.87,0,0,1,.82-.18.42.42,0,0,1,.21.11c.09.07.14.11.18.1a.16.16,0,0,0,.1,0c0-.06.08-.17.13-.3s.14-.31.16-.34a.2.2,0,0,1,.15-.06.08.08,0,0,1,.09.09v.06l-.17.33a1,1,0,0,0-.12.23l-.06.14s-.08.16-.18.38a2.92,2.92,0,0,0-.15.38l-.07.2-.06.19,0,.18a.2.2,0,0,1-.1.13.18.18,0,0,1-.17,0h0a.91.91,0,0,1-.41-.09,1.4,1.4,0,0,1-.53-.44A.87.87,0,0,1,26.38,74Zm.25.45a.61.61,0,0,0,.32.33.42.42,0,0,0,.16,0,.39.39,0,0,0,.33-.17.82.82,0,0,0,.14-.39v0c0-.11-.06-.2-.2-.27l-.21-.07a.51.51,0,0,0-.51.14A.34.34,0,0,0,26.63,74.46Z"/><path d="M24.81,72.85l.09-.21a1.31,1.31,0,0,1,.11-.2.15.15,0,0,1,.16-.08l.12.09.23.1.11,0a1.8,1.8,0,0,1,.62.42.46.46,0,0,1,0,.48.83.83,0,0,1-.13.18.53.53,0,0,1-.71.06,1.34,1.34,0,0,0-.34-.15c-.17,0-.26,0-.29,0s0,.11,0,.19a.39.39,0,0,0,.18.16,1.67,1.67,0,0,0,.29.08l.28.08a.11.11,0,0,1,.07.17.58.58,0,0,1-.13.15.14.14,0,0,1-.14,0l-.34-.08a.59.59,0,0,0-.18-.06.54.54,0,0,1-.21-.14.67.67,0,0,1-.19-.3.66.66,0,0,1,.05-.47l.09-.15.09-.17Zm.75.12c-.27-.13-.44-.14-.52,0L25,73c0,.1.07.18.2.24l.19.09a.86.86,0,0,0,.49.1.31.31,0,0,0,.14-.06s0-.08,0-.13a1.19,1.19,0,0,0-.27-.19Z"/><path d="M24.74,72.21a.17.17,0,0,1,0,.18l-.33.37c-.18.18-.29.31-.35.38a1.35,1.35,0,0,0-.13.21,1.24,1.24,0,0,1-.14.21.27.27,0,0,1-.22.1c-.1,0-.17,0-.2-.11a1.19,1.19,0,0,1,0-.43c0-.15,0-.23,0-.24s-.07,0-.14.07a4.49,4.49,0,0,1-.37.3.15.15,0,0,1-.16,0,.17.17,0,0,1-.11-.2,2,2,0,0,1,.06-.23l.06-.23a3,3,0,0,0,.09-.47,4.08,4.08,0,0,1,.1-.49v0a.14.14,0,0,1,.14-.12.17.17,0,0,1,.16.07.75.75,0,0,1,0,.36c0,.13,0,.25-.05.36,0,.26,0,.37,0,.34a.76.76,0,0,0,.24-.24l.16-.24a1,1,0,0,1,.17-.23.14.14,0,0,1,.17,0c.08,0,.1.09.09.18a1.63,1.63,0,0,1-.09.23,1.16,1.16,0,0,0-.07.24s0,0,0,.09,0,.09,0,.12,0,.15,0,.16.17-.09.38-.36.31-.38.37-.39A.16.16,0,0,1,24.74,72.21Z"/><rect class="cls-1" x="26.07" y="56.7" width="7.74" height="12.65" transform="translate(-33.9 34.86) rotate(-40.78)"/><path d="M28,56.46,36.24,66v-1.5l-5.86,5h1.51L23.63,60v1.5l5.86-5.06c1-.89-.48-2.39-1.51-1.5L22.12,60a1.09,1.09,0,0,0,0,1.5l8.26,9.57a1.08,1.08,0,0,0,1.51,0l5.86-5a1.09,1.09,0,0,0,0-1.5L29.49,55C28.59,53.92,27.09,55.43,28,56.46Z"/><text class="cls-4" transform="translate(33.03 65.09) rotate(-130.78)">ЕКБ</text><path class="cls-5" d="M61.84,58.34a1.69,1.69,0,0,0,1.31-1.47,1.11,1.11,0,0,0,.4-.46,2.25,2.25,0,0,0-.25-2.06,1.79,1.79,0,0,0-.55-.49l-.1-.06h0a1.32,1.32,0,0,0-.33-.18A1.24,1.24,0,0,0,61,54a1.11,1.11,0,0,0-.29.07,1.91,1.91,0,0,0-1.29,0,.51.51,0,0,0-.56-.1,1.11,1.11,0,0,0-.55.5,2.25,2.25,0,0,0,.55,2.42,2.87,2.87,0,0,0,.25.43A2.59,2.59,0,0,0,61.84,58.34Z"/><path class="cls-5" d="M57.87,55.8a1.37,1.37,0,0,0-.68.7.73.73,0,0,0-.32.15c-.58.55-.26,2,0,2.62s1,.64,1.67.64l.07,0h.13a.29.29,0,0,0,.12-.07.92.92,0,0,0,.87-.34.84.84,0,0,0,.77-.39l.11.1c.44.46.63-.27.66-.62a3,3,0,0,0-.46-2,4.5,4.5,0,0,0-1.34-.93l0,0A1.24,1.24,0,0,0,57.87,55.8Z"/><path class="cls-1" d="M52.54,62.06c-.27.78,1.43,1.58,2,1.65,1,.11,1.7-.75,2.37-1.33.44-.37.86-.76,1.26-1.16.31-.24.63-.46.95-.7a.34.34,0,0,0,.11-.46s.18-1,.2-1c.32.68-1.87,1.08-2.32.58-.21-.22-.77-.94-1-.76s-1.11,0-1.53.33A6.19,6.19,0,0,0,52.54,62.06Z"/><path class="cls-5" d="M55.82,59l1.35,1.17a2.51,2.51,0,0,0,1.44.6l.12,0c.21,0,.72,0,.66-.37,0-.05,0-.09,0-.14h0c.36,0,.59-.11.62-.36a.3.3,0,0,0,.18-.34c.37-.16.26-1,.65-1.31s-.87-.9-1.09-.48-1-.22-1.66-.12l-.08,0a5.52,5.52,0,0,0-.54-.16c-.28-.06-.77-.13-.92.12a.35.35,0,0,0-.17.15,1.17,1.17,0,0,0-1,0C54.78,58.11,55.58,58.81,55.82,59Z"/><path d="M57.42,54.77A47.88,47.88,0,0,0,52.54,60c-1.38,1.77-2.23,4.52.89,4.38,2.57-.12,4.71-1.88,6.6-3.47,2.3-1.93,4.54-4.33,5.11-7.37.15-.79-1.92-.46-2,.25a10.68,10.68,0,0,1-3.31,5.51c-1.25,1.23-3.05,3.1-4.81,3.55-3.45.88,0-3.36.92-4.39s2.08-2.24,3.18-3.3c.87-.82-1.15-.82-1.65-.35Z"/><path d="M59.46,16.11l9.33,5.68C70,22.51,71,20.67,69.86,20l-9.33-5.69c-1.17-.71-2.24,1.13-1.07,1.84Z"/><path class="cls-6" d="M65,49.46c-.1.5.36.73.75.91s1.45-.34,1-.55c-.21-.09-.58-.24-.51-.54S65,49.09,65,49.46Z"/><path class="cls-6" d="M67,29.91a2.9,2.9,0,0,0-2.31-.05c-.55.23-1.23.83-.69,1.43.31.34,1.48-.12,1.14-.5s.68-.35.88-.26a1,1,0,0,0,.88-.1c.16-.11.38-.4.1-.52Z"/><path class="cls-5" d="M67,30.6c.29,0,.56-.09.63-.53A1.7,1.7,0,0,0,68,29a3.56,3.56,0,0,0-.09-.73,6.19,6.19,0,0,0-.74-2.32,1.13,1.13,0,0,0-.32-.37,2.52,2.52,0,0,0-2.46-1h0a3.29,3.29,0,0,0-.44.05l0,0a1.07,1.07,0,0,0-.89.52.88.88,0,0,0-.19.24l-.18-.07c-1.11-.22-2.23.28-3.33.35-.62,0-.1,2.95.77,2.9l1.7-.11a2,2,0,0,0,.73,0l.06,0h0a.53.53,0,0,0,.35.16h.7a.19.19,0,0,0,.15-.08,3.32,3.32,0,0,0,2.18.79.24.24,0,0,1,0,.08l.13.25.08.15a2.13,2.13,0,0,0,.16.25.71.71,0,0,0,.1.14s.06.06.09.09.05.08.09.11l.18.13h0l.08,0,.07,0Z"/><path d="M58.1,28.07c2.18-1.21,5.19-5.33,7.56-2.9,1.76,1.8,1.55,4.21,1,6.5-.22.85,1.87.56,2.06-.21.77-3,.69-6.68-2.52-8.24-3.43-1.67-6.8,2.68-9.37,4.12-1.21.67.56,1.15,1.31.73Z"/><circle class="cls-1" cx="57.98" cy="41.21" r="13.3"/><path d="M58.36,53.85c-5.92-.3-11.23-4.22-12.38-10.24-1.4-7.35,3.88-15.07,11.75-15,15.85.19,16.48,24.4.37,25.21-1.09.06-1.65,1.38-.24,1.31,7.65-.39,14.41-6,14.45-14.06A14,14,0,0,0,58.23,27.26c-7.17,0-13.79,5.4-14.51,12.69-.84,8.44,5.82,14.81,13.88,15.21C58.48,55.21,59.75,53.92,58.36,53.85Z"/><ellipse cx="65.5" cy="46.38" rx="1.96" ry="1.5"/><ellipse cx="65.5" cy="36.47" rx="1.96" ry="1.5"/><path class="cls-7" d="M51.67,46.24a29.89,29.89,0,0,0,6.41.27c1.81-.07,3.82-.1,5.06-1.59a1.47,1.47,0,0,0,0-.83l.16-.36a1.52,1.52,0,0,0,0-.74h.21c.19,0,.1-.82-.12-1.24a3.58,3.58,0,0,0-.09-1c0-.17,0-.34,0-.56a.5.5,0,0,0,0-.14,5.72,5.72,0,0,0-.11-1,3.23,3.23,0,0,0-1.27-2.33c-.07-.06-.12,0-.14.07a.21.21,0,0,0-.08-.06l-.1-.09,0,0A1.71,1.71,0,0,0,59.8,36a5.65,5.65,0,0,0-1.91-.1,7.42,7.42,0,0,0-1.26,0c-.08,0-.11.12-.11.28a17.49,17.49,0,0,0-2.91-.23c-.16,0-.12.49,0,.9a2.18,2.18,0,0,0-.27-.11h-.08a.92.92,0,0,0-.49-.09,1.75,1.75,0,0,0-1.66-.78,2,2,0,0,0-.69,0,1.79,1.79,0,0,0-1.1.25,4.32,4.32,0,0,0-2,.58.34.34,0,0,0-.09.08l-.43.18a.39.39,0,0,0-.2.31l-.19.08a.33.33,0,0,0-.16.19l-.24.13a.46.46,0,0,0-.18.28,1,1,0,0,0-.25.29A1.41,1.41,0,0,0,45,39.71c-.31.17-.47.6-.31,1.19,0,.05,0,.08,0,.13a2.07,2.07,0,0,0,.35,1.14A4.08,4.08,0,0,0,46.3,45a.54.54,0,0,0,.18.17,5.3,5.3,0,0,0,1,.63,4,4,0,0,0,3.49.53A4.71,4.71,0,0,0,51.67,46.24Z"/><path class="cls-8" d="M46.28,42.16c0-1.52,1.55-2.92,2.81-3.65a4.32,4.32,0,0,1,3.85-.22,4.22,4.22,0,0,1,.47.39c.31.28.52.26.66.08.51-.15.37-1.71-.21-2.06a4.26,4.26,0,0,0-.74-.37c-3.82-2.64-8.68.55-8.2,5.33C45,42.45,46.28,43.5,46.28,42.16Z"/><path d="M50.87,46.58c-5.47-.3-7.95-8.75-2-10.35,6.63-1.77,8.64,10,1.76,10.34-.61,0-2.22,1-.86.94,3.39-.19,6.81-2.16,7.24-5.83a6.17,6.17,0,0,0-6.27-6.76c-3.17,0-6.54,1.95-7.25,5.21-.86,4,2.24,7.17,6.06,7.37C50.06,47.53,51.92,46.63,50.87,46.58Z"/><path d="M52.58,47c3.06-.59,6.62.88,9.49-.69,2.57-1.42,2.4-4.29,2.27-6.86-.27-5.54-7.49-4.1-11.27-4.1-.5,0-1.78.74-.69.74,3.36,0,10-1.3,10.32,3.55.12,1.8.41,5.08-1.35,6.21-1.42.91-4.21.36-5.84.36a14.65,14.65,0,0,0-2.65.09c-.68.13-1.42.92-.28.7Z"/><path d="M50.23,40.55l-.83.28c-.26.08-.65.26-.69.59s.27.47.54.47h.21a1.14,1.14,0,0,0,1.07-.48c.16-.34-.14-.62-.48-.62h-.21l-.16,1.06.82-.28c.3-.1.78-.33.69-.73s-.69-.39-1-.29Z"/><path d="M50.49,42.61a21.84,21.84,0,0,1,2.14,2.64c.25.37,1.84-.15,1.53-.6A22.36,22.36,0,0,0,52,42c-.33-.34-1.88.25-1.54.6Z"/><path d="M52,39.87a6.59,6.59,0,0,0,2-3.44c.06-.45-1.57-.15-1.62.27A6.14,6.14,0,0,1,50.52,40c-.25.28.22.32.4.32A1.73,1.73,0,0,0,52,39.87Z"/><path d="M49.53,39.56a6.56,6.56,0,0,0-2.38-2.24,1.2,1.2,0,0,0-1.17.13c-.24.17-.48.55-.12.74A5.72,5.72,0,0,1,48,40.24c.33.54,1.92,0,1.52-.68Z"/><path d="M48.37,43.1a5,5,0,0,1-2,2.07c-.24.12-.48.4-.16.58a1.41,1.41,0,0,0,1.16-.17A6.23,6.23,0,0,0,50,42.87c.17-.33-.56-.32-.69-.3a1.18,1.18,0,0,0-.94.53Z"/><path class="cls-5" d="M66.21,26.84a1.31,1.31,0,0,0,.71-.66.88.88,0,0,0,.33-.13c.61-.52.36-2,.08-2.62s-1-.69-1.63-.72c0,0,0,0-.07,0a.29.29,0,0,0-.13,0,.26.26,0,0,0-.12.05,1,1,0,0,0-.89.31.84.84,0,0,0-.78.35l-.11-.11c-.42-.48-.64.24-.69.6-.07.57-.86,1.6-.44,2.08a11,11,0,0,0,2.1.95l.05,0A1.21,1.21,0,0,0,66.21,26.84Z"/><path class="cls-1" d="M72,20.67c.31-.76-1.35-1.65-1.92-1.74-.94-.16-1.73.67-2.43,1.21-.45.35-.89.72-1.31,1.11l-1,.65a.35.35,0,0,0-.14.45.46.46,0,0,0-.07.07c-.52.55,1.8,2.07,2.38,1.74.26-.15.51-.32.76-.48a5.91,5.91,0,0,0,1.2-.64A6,6,0,0,0,72,20.67Z"/><path class="cls-5" d="M68.61,23.19,67.32,22a2.46,2.46,0,0,0-1.41-.67l-.12,0c-.21,0-.72,0-.67.33a.7.7,0,0,0,0,.14h0c-.35-.07-.58.09-.63.33a.3.3,0,0,0-.2.33c-.38.14-.3.93-.7,1.28s.82.94,1.06.53,1,.27,1.65.2l.08,0c.18.07.36.14.53.19s.76.16.92-.08a.38.38,0,0,0,.19-.14,1.14,1.14,0,0,0,1,.1C69.6,24.14,68.84,23.41,68.61,23.19Z"/><path d="M66.32,27.6c1.25-1.08,9.09-7.24,6.65-9.21-1.32-1.07-4.38.29-5.53,1a44.88,44.88,0,0,0-7.07,5.75c-.44.4,1.48.2,1.86-.14,1.58-1.45,3.16-2.9,4.86-4.2.65-.5,2.16-1.9,3.06-1.75s1,1.31.87,1.94a3.86,3.86,0,0,1-1,1.46,62.65,62.65,0,0,1-5.59,5.34c-.44.37,1.47.18,1.86-.15Z"/><rect class="cls-1" x="50.14" y="7.73" width="16.25" height="9.94" transform="translate(15.08 53.82) rotate(-55.89)"/><path d="M66,8.22,56.91,21.68l1.45-.39-8.23-5.57.38,1.45L59.62,3.72l-1.45.38L66.4,9.68c1.14.77,2.2-1.08,1.07-1.84L59.24,2.26a1.08,1.08,0,0,0-1.45.39L48.67,16.1a1.08,1.08,0,0,0,.38,1.45l8.24,5.58a1.07,1.07,0,0,0,1.45-.38L67.85,9.29C68.62,8.16,66.78,7.09,66,8.22Z"/><path d="M54.17,16.65l.3.23c.48.33.79.53.92.6l.4.24c.22.12.33.2.34.25a.3.3,0,0,1,0,.22.21.21,0,0,1-.17,0,.67.67,0,0,1-.39-.18l-.79-.6L54.13,17,54,16.9l-.08,0-.23-.12c-.18-.12-.13-.38.15-.8.15-.22.27-.39.36-.5l.41-.55a.11.11,0,0,1,.1,0l.23.14.18.13.23.2.19.13a7.35,7.35,0,0,0,.8.47l.45.24.24.12a.27.27,0,0,1,.11.14.11.11,0,0,1-.08.13.24.24,0,0,1-.18,0,1.07,1.07,0,0,1-.43-.19L56,16.15l-.77-.51L55,15.48l-.16-.09s-.06,0-.08,0l-.07.09a2.38,2.38,0,0,1-.16.25,2.89,2.89,0,0,0-.16.25l-.06.09A1.33,1.33,0,0,0,54.17,16.65Z"/><path d="M56.48,13.24c.08-.11.18-.1.3,0a2.23,2.23,0,0,1,.23.31,2.46,2.46,0,0,0,.31.49l.12.16c.09.11.2.26.35.43s.31.37.37.45l.35.4a1.16,1.16,0,0,1,.16.21.15.15,0,0,1,0,.19.29.29,0,0,1-.16.1c-.07,0-.12,0-.16,0a.4.4,0,0,1-.15-.18,1.31,1.31,0,0,0-.16-.25c-.17-.18-.29-.31-.37-.38l-.16-.11A1.19,1.19,0,0,0,56.9,15l-.29,0-.28,0a3,3,0,0,1-.6,0,.45.45,0,0,1-.2-.21c-.06-.1-.06-.18,0-.21a1.47,1.47,0,0,1,.61,0l.21,0a.8.8,0,0,0,.55-.07c.17-.07.13-.28-.13-.62s-.35-.33-.36-.38A.35.35,0,0,1,56.48,13.24Z"/><path d="M59.76,11.71a1.52,1.52,0,0,1,.26.19.19.19,0,0,1,0,.27.15.15,0,0,1-.21.07.55.55,0,0,1-.25-.2,1.89,1.89,0,0,0-.29-.22l-.22-.14-.22-.14a.25.25,0,0,0-.35,0,.54.54,0,0,0-.18.34c0,.14.08.31.3.5l.27.21.12.08.15.09c.1.06.16.12.16.18s0,.21-.09.24a.21.21,0,0,1-.2,0,1.94,1.94,0,0,1-.28-.27l-.43-.28c-.24-.16-.41-.21-.53-.16a.58.58,0,0,0-.2.33c0,.17,0,.33.26.48l.19.11a.83.83,0,0,1,.24.15,2.7,2.7,0,0,1,.3.13l.16,0a.17.17,0,0,1,.1.12.27.27,0,0,1,0,.21.23.23,0,0,1-.15.06.56.56,0,0,1-.31-.11l-.6-.43c-.25-.17-.45-.3-.59-.38a1.32,1.32,0,0,1-.27-.18.29.29,0,0,1,0-.16.14.14,0,0,1,.09-.12h.13l.06,0,.11-.29a.69.69,0,0,1,.09-.21.41.41,0,0,1,.32-.18h0a.31.31,0,0,0,.12-.09.88.88,0,0,0,.14-.32c.07-.21.12-.33.13-.35a.39.39,0,0,1,.25-.24.66.66,0,0,1,.35,0l.31.12.16.11.15.13Z"/><path d="M60.91,9.88l.27.12.13,0c.06,0,.09.06.09.11a.34.34,0,0,1,0,.2.31.31,0,0,1-.14.06.84.84,0,0,1-.38-.15.3.3,0,0,1,0,.11,4.68,4.68,0,0,1,0,.55c-.06.27-.16.43-.29.48a.44.44,0,0,1-.43-.1,1.34,1.34,0,0,1-.28-.21l-.17-.16-.14-.1-.36-.23L59,10.51l-.2-.11a.24.24,0,0,1-.11-.13c0-.26.2-.23.65.07l0,0a1.23,1.23,0,0,0,.27.18l.27.18a1,1,0,0,0,.35.22c.1,0,.17,0,.21-.22a1,1,0,0,0-.07-.66.86.86,0,0,0-.3-.3,1.17,1.17,0,0,0-.25-.14l-.19-.12a1.25,1.25,0,0,1-.25-.21.14.14,0,0,1,0-.17c0-.07.13-.08.23,0a3.61,3.61,0,0,1,.49.3l.45.29.25.13Z"/><path d="M61.23,8,61,7.87l-.19-.13a1,1,0,0,1-.25-.2c0-.07-.06-.12,0-.17s.13-.09.24,0a4.35,4.35,0,0,1,.49.3L61.8,8h0a5.22,5.22,0,0,0,.57.34c.1.06.16.12.17.18s0,.21-.1.24a.21.21,0,0,1-.2,0A1.94,1.94,0,0,1,62,8.45a.76.76,0,0,0-.15-.12l-.26-.15c-.1.2-.18.36-.25.48a2.08,2.08,0,0,0-.14.24l0,.09.15.08.31.14.15.06a.14.14,0,0,1,.1.12.24.24,0,0,1,0,.2s-.07.05-.15.05a.46.46,0,0,1-.3-.1l-.28-.2a2.07,2.07,0,0,0-.37-.27l-.36-.23-.18-.1L60,8.63c-.07-.05-.11-.09-.12-.13,0-.25.2-.22.65.08l0,0,.18.12a.22.22,0,0,0,.15-.12L61,8.38a1.58,1.58,0,0,0,.14-.23Z"/><path class="cls-9" d="M9.21,42h0S9.07,42,8.93,42l-.8,0a3.45,3.45,0,0,1-.51,0L7.4,42l-.23,0-.12,0a.27.27,0,0,1-.18.06.5.5,0,0,0,0,.13,3.44,3.44,0,0,0-.06.45.48.48,0,0,1-.29,0,.25.25,0,0,1-.14-.22c0-.34,0-.6,0-.77s0-.21.11-.24l.27-.06c.07-.2.17-.48.31-.82.28-.66.48-1.16.62-1.52a1.19,1.19,0,0,1,.33-.57.52.52,0,0,1,.24-.08q.15,0,.27.21c0,.08.08.2.13.36a2.27,2.27,0,0,0,.13.38,4.69,4.69,0,0,1,.24.79l.2.64a3.63,3.63,0,0,0,.23.6h0a.88.88,0,0,1,.28.07c.07,0,.11.11.11.24s0,.43,0,.77a.23.23,0,0,1-.13.22.48.48,0,0,1-.29,0,3.44,3.44,0,0,0-.06-.45.36.36,0,0,0-.08-.15Zm-2-.66.89,0a3.31,3.31,0,0,0,.7-.06h0q-.12-.42-.33-1.05c-.18-.52-.36-.77-.52-.77a.27.27,0,0,0-.2.12,4.43,4.43,0,0,0-.32.92C7.35,40.94,7.27,41.21,7.21,41.38Z"/><path class="cls-9" d="M10.92,41c-.14,0-.18.12-.15.23a.78.78,0,0,0,.74.38,1.38,1.38,0,0,0,.59-.11,2.4,2.4,0,0,1,.36-.16c.07,0,.11.09.11.26a.58.58,0,0,1-.39.49,1.64,1.64,0,0,1-.71.15.91.91,0,0,1-.27,0,1.31,1.31,0,0,1-.95-1.27,2,2,0,0,1,.14-.93,1,1,0,0,1,.57-.62,1.34,1.34,0,0,1,.52-.12,1.49,1.49,0,0,1,.92.29l.14.11a1,1,0,0,1,.29.77.68.68,0,0,1-.08.34,8.08,8.08,0,0,0-.8.12c-.28,0-.51.06-.69.07Zm1.13-.56c.16,0,.23-.13.2-.23s0,0,0-.07L12.13,40a.3.3,0,0,0-.07-.08s-.09,0-.36-.1a.9.9,0,0,0-.9.29c-.07.1-.08.18,0,.24a.25.25,0,0,0,.24.08h.33a1.16,1.16,0,0,0,.33,0Z"/><path class="cls-9" d="M15.83,40.2a2.68,2.68,0,0,1,0,.52,2.52,2.52,0,0,1-.08.55,1.11,1.11,0,0,1-.27.47,1.69,1.69,0,0,1-.36.29,1.3,1.3,0,0,1-.69.14,1.19,1.19,0,0,1-.66-.25,1.22,1.22,0,0,1-.52-1,1.32,1.32,0,0,1,.13-.53,1.08,1.08,0,0,1,1-.67,1.3,1.3,0,0,1,.62.05l.18,0,0-.15a.46.46,0,0,0-.24-.32,1.06,1.06,0,0,0-.35-.14,1.92,1.92,0,0,0-.49,0,3.17,3.17,0,0,1-.44.09c-.14,0-.21,0-.21-.19a.64.64,0,0,1,.07-.24.19.19,0,0,1,.18-.12l.55-.11a2,2,0,0,1,.35,0,1.59,1.59,0,0,1,.34.08.76.76,0,0,1,.4.27,1.19,1.19,0,0,1,.35.57A3.18,3.18,0,0,1,15.83,40.2Zm-1,.08a1.21,1.21,0,0,0-.43,0,.76.76,0,0,0-.62.51.46.46,0,0,0,.2.5.72.72,0,0,0,.58.25.57.57,0,0,0,.25,0,.63.63,0,0,0,.4-.29.74.74,0,0,0,.14-.41,1.05,1.05,0,0,0-.08-.35C15.19,40.35,15.05,40.29,14.8,40.28Z"/><path class="cls-9" d="M20.63,40.53A.75.75,0,0,1,21,41a1,1,0,0,1,.06.34.7.7,0,0,1-.35.66,2.72,2.72,0,0,1-1.09.17h-.18l-.39,0-.2,0a.32.32,0,0,1-.21-.24,1.71,1.71,0,0,1,0-.26v-.36c0-.14,0-.26,0-.37s0-.15,0-.3,0-.37,0-.44a2.12,2.12,0,0,1,0-.42.32.32,0,0,1,.13-.23.84.84,0,0,1,.38-.12,3.17,3.17,0,0,1,.87,0,1.15,1.15,0,0,1,.44.17,1,1,0,0,1,.22.23.93.93,0,0,1,.07.33.53.53,0,0,1-.08.31A.24.24,0,0,1,20.63,40.53ZM20,41.59a2.67,2.67,0,0,0,.52-.09c.09-.08.14-.14.14-.2a.45.45,0,0,0-.16-.19,1.19,1.19,0,0,0-.75-.2h-.26a.48.48,0,0,0-.44.22v.11c0,.23.27.35.68.35Zm.26-1.69L20,39.83l-.3,0c-.28,0-.45,0-.51.11a.54.54,0,0,0,0,.31c0,.1.14.16.41.17l.31,0c.43-.06.61-.17.53-.32A.33.33,0,0,0,20.21,39.9Z"/><path class="cls-9" d="M26.27,41.92s-.05.11-.13.18-.24-.05-.51-.3l-.24-.27-.22-.26a2.41,2.41,0,0,0-.53-.46.2.2,0,0,0-.22,0l-.06,0a.43.43,0,0,0-.07.22v.12l0,.23.05.26a.31.31,0,0,1-.06.24c-.09.08-.16.12-.23.11S24,42,24,41.91a.86.86,0,0,1-.11-.49l0-1.14q0-.9,0-1a.3.3,0,0,1,.16-.17.13.13,0,0,1,.19.06l0,.07a2.21,2.21,0,0,1,0,.48c0,.11,0,.18,0,.22s.1.22.27.22a.51.51,0,0,0,.22-.07,2.94,2.94,0,0,0,.57-.59.9.9,0,0,1,.53-.41c.13,0,.19,0,.18.13a1.44,1.44,0,0,1-.08.28,3.26,3.26,0,0,1-.34.44l-.15.2a.85.85,0,0,0-.14.21q0,.11.42.69a2.81,2.81,0,0,1,.24.32,3,3,0,0,0,.22.33A.49.49,0,0,1,26.27,41.92Z"/><path class="cls-9" d="M27.45,41c-.13,0-.18.12-.14.23a.88.88,0,0,0,.38.33,1,1,0,0,0,.35.05,1.35,1.35,0,0,0,.59-.11,3,3,0,0,1,.36-.16c.08,0,.12.09.12.26a.59.59,0,0,1-.4.49,1.6,1.6,0,0,1-.7.15.91.91,0,0,1-.27,0,1.33,1.33,0,0,1-1-1.27,2.17,2.17,0,0,1,.14-.93,1.1,1.1,0,0,1,.57-.62,1.38,1.38,0,0,1,.52-.12,1.54,1.54,0,0,1,.93.29l.14.11a1,1,0,0,1,.28.77.68.68,0,0,1-.08.34l-.8.12c-.28,0-.5.06-.68.07Zm1.13-.56c.17,0,.23-.13.21-.23s0,0-.05-.07L28.66,40l-.06-.08s-.09,0-.37-.1a.87.87,0,0,0-.89.29c-.08.1-.08.18,0,.24a.24.24,0,0,0,.24.08h.32a1.16,1.16,0,0,0,.33,0Z"/><path class="cls-9" d="M31.85,42c-.11.09-.2.11-.26.06a.27.27,0,0,1-.08-.23c0-.08,0-.21,0-.41a1.36,1.36,0,0,0,0-.24l0-.61a1.25,1.25,0,0,0-.09-.62c0-.1-.33-.1-.85,0-.19,0-.3.23-.3.59,0,.18,0,.39,0,.62a2.86,2.86,0,0,1,.07.39l.05.2a.2.2,0,0,1-.05.18.33.33,0,0,1-.24.09s-.09,0-.15-.11a.54.54,0,0,1-.1-.38l0-.89c0-.37,0-.66,0-.85a.34.34,0,0,1,0-.22.23.23,0,0,1,.17-.16.54.54,0,0,1,.18,0l.46-.06a2.5,2.5,0,0,1,.57,0c.35,0,.53.07.56.19a1.44,1.44,0,0,1,0,.67c0-.09,0,.18,0,.79a5.58,5.58,0,0,0,.05.78A.37.37,0,0,1,31.85,42Z"/><path class="cls-9" d="M35,41.92s-.05.11-.13.18-.24-.05-.51-.3l-.24-.27-.22-.26a2.67,2.67,0,0,0-.53-.46.2.2,0,0,0-.22,0l-.06,0s0,.09-.07.22v.12l0,.23.05.26a.31.31,0,0,1-.06.24c-.09.08-.16.12-.23.11s-.08,0-.14-.14a1,1,0,0,1-.1-.49l0-1.14c0-.6,0-.92,0-1a.3.3,0,0,1,.16-.17.12.12,0,0,1,.18.06l.05.07a2.21,2.21,0,0,1,0,.48c0,.11,0,.18,0,.22s.1.22.27.22a.51.51,0,0,0,.22-.07,2.68,2.68,0,0,0,.56-.59,1,1,0,0,1,.54-.41c.13,0,.19,0,.18.13a1.44,1.44,0,0,1-.08.28,2.86,2.86,0,0,1-.35.44,1.43,1.43,0,0,1-.14.2,1.27,1.27,0,0,0-.15.21c0,.07.13.3.43.69a2.81,2.81,0,0,1,.24.32c.1.17.18.28.21.33S35,41.88,35,41.92Z"/><path class="cls-9" d="M36.17,41c-.13,0-.18.12-.14.23a.88.88,0,0,0,.38.33,1,1,0,0,0,.35.05,1.35,1.35,0,0,0,.59-.11,2.4,2.4,0,0,1,.36-.16c.08,0,.11.09.11.26a.58.58,0,0,1-.39.49,1.6,1.6,0,0,1-.7.15.82.82,0,0,1-.27,0,1.32,1.32,0,0,1-1-1.27,2,2,0,0,1,.14-.93,1.1,1.1,0,0,1,.57-.62,1.38,1.38,0,0,1,.52-.12,1.54,1.54,0,0,1,.93.29l.13.11a1,1,0,0,1,.29.77.68.68,0,0,1-.08.34l-.8.12c-.28,0-.51.06-.69.07Zm1.13-.56c.17,0,.23-.13.2-.23s0,0,0-.07a.29.29,0,0,1-.08-.08l-.06-.08s-.09,0-.37-.1a.87.87,0,0,0-.89.29c-.08.1-.08.18,0,.24a.26.26,0,0,0,.24.08h.33a1.16,1.16,0,0,0,.33,0Z"/><path d="M9.21,42h0S9.07,42,8.93,42l-.8,0a3.45,3.45,0,0,1-.51,0L7.4,42l-.23,0-.12,0a.27.27,0,0,1-.18.06.5.5,0,0,0,0,.13,3.44,3.44,0,0,0-.06.45.48.48,0,0,1-.29,0,.25.25,0,0,1-.14-.22c0-.34,0-.6,0-.77s0-.21.11-.24l.27-.06c.07-.2.17-.48.31-.82.28-.66.48-1.16.62-1.52a1.19,1.19,0,0,1,.33-.57.52.52,0,0,1,.24-.08q.15,0,.27.21c0,.08.08.2.13.36a2.27,2.27,0,0,0,.13.38,4.69,4.69,0,0,1,.24.79l.2.64a3.63,3.63,0,0,0,.23.6h0a.88.88,0,0,1,.28.07c.07,0,.11.11.11.24s0,.43,0,.77a.23.23,0,0,1-.13.22.48.48,0,0,1-.29,0,3.44,3.44,0,0,0-.06-.45.36.36,0,0,0-.08-.15Zm-2-.66.89,0a3.31,3.31,0,0,0,.7-.06h0q-.12-.42-.33-1.05c-.18-.52-.36-.77-.52-.77a.27.27,0,0,0-.2.12,4.43,4.43,0,0,0-.32.92C7.35,40.94,7.27,41.21,7.21,41.38Z"/><path d="M10.92,41c-.14,0-.18.12-.15.23a.78.78,0,0,0,.74.38,1.38,1.38,0,0,0,.59-.11,2.4,2.4,0,0,1,.36-.16c.07,0,.11.09.11.26a.58.58,0,0,1-.39.49,1.64,1.64,0,0,1-.71.15.91.91,0,0,1-.27,0,1.31,1.31,0,0,1-.95-1.27,2,2,0,0,1,.14-.93,1,1,0,0,1,.57-.62,1.34,1.34,0,0,1,.52-.12,1.49,1.49,0,0,1,.92.29l.14.11a1,1,0,0,1,.29.77.68.68,0,0,1-.08.34,8.08,8.08,0,0,0-.8.12c-.28,0-.51.06-.69.07Zm1.13-.56c.16,0,.23-.13.2-.23s0,0,0-.07L12.13,40a.3.3,0,0,0-.07-.08s-.09,0-.36-.1a.9.9,0,0,0-.9.29c-.07.1-.08.18,0,.24a.25.25,0,0,0,.24.08h.33a1.16,1.16,0,0,0,.33,0Z"/><path d="M15.83,40.2a2.68,2.68,0,0,1,0,.52,2.52,2.52,0,0,1-.08.55,1.11,1.11,0,0,1-.27.47,1.69,1.69,0,0,1-.36.29,1.3,1.3,0,0,1-.69.14,1.19,1.19,0,0,1-.66-.25,1.22,1.22,0,0,1-.52-1,1.32,1.32,0,0,1,.13-.53,1.08,1.08,0,0,1,1-.67,1.3,1.3,0,0,1,.62.05l.18,0,0-.15a.46.46,0,0,0-.24-.32,1.06,1.06,0,0,0-.35-.14,1.92,1.92,0,0,0-.49,0,3.17,3.17,0,0,1-.44.09c-.14,0-.21,0-.21-.19a.64.64,0,0,1,.07-.24.19.19,0,0,1,.18-.12l.55-.11a2,2,0,0,1,.35,0,1.59,1.59,0,0,1,.34.08.76.76,0,0,1,.4.27,1.19,1.19,0,0,1,.35.57A3.18,3.18,0,0,1,15.83,40.2Zm-1,.08a1.21,1.21,0,0,0-.43,0,.76.76,0,0,0-.62.51.46.46,0,0,0,.2.5.72.72,0,0,0,.58.25.57.57,0,0,0,.25,0,.63.63,0,0,0,.4-.29.74.74,0,0,0,.14-.41,1.05,1.05,0,0,0-.08-.35C15.19,40.35,15.05,40.29,14.8,40.28Z"/><path d="M20.63,40.53A.75.75,0,0,1,21,41a1,1,0,0,1,.06.34.7.7,0,0,1-.35.66,2.72,2.72,0,0,1-1.09.17h-.18l-.39,0-.2,0a.32.32,0,0,1-.21-.24,1.71,1.71,0,0,1,0-.26v-.36c0-.14,0-.26,0-.37s0-.15,0-.3,0-.37,0-.44a2.12,2.12,0,0,1,0-.42.32.32,0,0,1,.13-.23.84.84,0,0,1,.38-.12,3.17,3.17,0,0,1,.87,0,1.15,1.15,0,0,1,.44.17,1,1,0,0,1,.22.23.93.93,0,0,1,.07.33.53.53,0,0,1-.08.31A.24.24,0,0,1,20.63,40.53ZM20,41.59a2.67,2.67,0,0,0,.52-.09c.09-.08.14-.14.14-.2a.45.45,0,0,0-.16-.19,1.19,1.19,0,0,0-.75-.2h-.26a.48.48,0,0,0-.44.22v.11c0,.23.27.35.68.35Zm.26-1.69L20,39.83l-.3,0c-.28,0-.45,0-.51.11a.54.54,0,0,0,0,.31c0,.1.14.16.41.17l.31,0c.43-.06.61-.17.53-.32A.33.33,0,0,0,20.21,39.9Z"/><path d="M26.27,41.92s-.05.11-.13.18-.24-.05-.51-.3l-.24-.27-.22-.26a2.41,2.41,0,0,0-.53-.46.2.2,0,0,0-.22,0l-.06,0a.43.43,0,0,0-.07.22v.12l0,.23.05.26a.31.31,0,0,1-.06.24c-.09.08-.16.12-.23.11S24,42,24,41.91a.86.86,0,0,1-.11-.49l0-1.14q0-.9,0-1a.3.3,0,0,1,.16-.17.13.13,0,0,1,.19.06l0,.07a2.21,2.21,0,0,1,0,.48c0,.11,0,.18,0,.22s.1.22.27.22a.51.51,0,0,0,.22-.07,2.94,2.94,0,0,0,.57-.59.9.9,0,0,1,.53-.41c.13,0,.19,0,.18.13a1.44,1.44,0,0,1-.08.28,3.26,3.26,0,0,1-.34.44l-.15.2a.85.85,0,0,0-.14.21q0,.11.42.69a2.81,2.81,0,0,1,.24.32,3,3,0,0,0,.22.33A.49.49,0,0,1,26.27,41.92Z"/><path d="M27.45,41c-.13,0-.18.12-.14.23a.88.88,0,0,0,.38.33,1,1,0,0,0,.35.05,1.35,1.35,0,0,0,.59-.11,3,3,0,0,1,.36-.16c.08,0,.12.09.12.26a.59.59,0,0,1-.4.49,1.6,1.6,0,0,1-.7.15.91.91,0,0,1-.27,0,1.33,1.33,0,0,1-1-1.27,2.17,2.17,0,0,1,.14-.93,1.1,1.1,0,0,1,.57-.62,1.38,1.38,0,0,1,.52-.12,1.54,1.54,0,0,1,.93.29l.14.11a1,1,0,0,1,.28.77.68.68,0,0,1-.08.34l-.8.12c-.28,0-.5.06-.68.07Zm1.13-.56c.17,0,.23-.13.21-.23s0,0-.05-.07L28.66,40l-.06-.08s-.09,0-.37-.1a.87.87,0,0,0-.89.29c-.08.1-.08.18,0,.24a.24.24,0,0,0,.24.08h.32a1.16,1.16,0,0,0,.33,0Z"/><path d="M31.85,42c-.11.09-.2.11-.26.06a.27.27,0,0,1-.08-.23c0-.08,0-.21,0-.41a1.36,1.36,0,0,0,0-.24l0-.61a1.25,1.25,0,0,0-.09-.62c0-.1-.33-.1-.85,0-.19,0-.3.23-.3.59,0,.18,0,.39,0,.62a2.86,2.86,0,0,1,.07.39l.05.2a.2.2,0,0,1-.05.18.33.33,0,0,1-.24.09s-.09,0-.15-.11a.54.54,0,0,1-.1-.38l0-.89c0-.37,0-.66,0-.85a.34.34,0,0,1,0-.22.23.23,0,0,1,.17-.16.54.54,0,0,1,.18,0l.46-.06a2.5,2.5,0,0,1,.57,0c.35,0,.53.07.56.19a1.44,1.44,0,0,1,0,.67c0-.09,0,.18,0,.79a5.58,5.58,0,0,0,.05.78A.37.37,0,0,1,31.85,42Z"/><path d="M35,41.92s-.05.11-.13.18-.24-.05-.51-.3l-.24-.27-.22-.26a2.67,2.67,0,0,0-.53-.46.2.2,0,0,0-.22,0l-.06,0s0,.09-.07.22v.12l0,.23.05.26a.31.31,0,0,1-.06.24c-.09.08-.16.12-.23.11s-.08,0-.14-.14a1,1,0,0,1-.1-.49l0-1.14c0-.6,0-.92,0-1a.3.3,0,0,1,.16-.17.12.12,0,0,1,.18.06l.05.07a2.21,2.21,0,0,1,0,.48c0,.11,0,.18,0,.22s.1.22.27.22a.51.51,0,0,0,.22-.07,2.68,2.68,0,0,0,.56-.59,1,1,0,0,1,.54-.41c.13,0,.19,0,.18.13a1.44,1.44,0,0,1-.08.28,2.86,2.86,0,0,1-.35.44,1.43,1.43,0,0,1-.14.2,1.27,1.27,0,0,0-.15.21c0,.07.13.3.43.69a2.81,2.81,0,0,1,.24.32c.1.17.18.28.21.33S35,41.88,35,41.92Z"/><path d="M36.17,41c-.13,0-.18.12-.14.23a.88.88,0,0,0,.38.33,1,1,0,0,0,.35.05,1.35,1.35,0,0,0,.59-.11,2.4,2.4,0,0,1,.36-.16c.08,0,.11.09.11.26a.58.58,0,0,1-.39.49,1.6,1.6,0,0,1-.7.15.82.82,0,0,1-.27,0,1.32,1.32,0,0,1-1-1.27,2,2,0,0,1,.14-.93,1.1,1.1,0,0,1,.57-.62,1.38,1.38,0,0,1,.52-.12,1.54,1.54,0,0,1,.93.29l.13.11a1,1,0,0,1,.29.77.68.68,0,0,1-.08.34l-.8.12c-.28,0-.51.06-.69.07Zm1.13-.56c.17,0,.23-.13.2-.23s0,0,0-.07a.29.29,0,0,1-.08-.08l-.06-.08s-.09,0-.37-.1a.87.87,0,0,0-.89.29c-.08.1-.08.18,0,.24a.26.26,0,0,0,.24.08h.33a1.16,1.16,0,0,0,.33,0Z"/></g></svg>