<svg xmlns="http://www.w3.org/2000/svg" viewBox="0 0 43.83 55.3"><defs><style>.cls-1,.cls-5,.cls-9{fill:none;}.cls-1{stroke:#fff;stroke-width:2.13px;}.cls-1,.cls-9{stroke-linejoin:bevel;}.cls-2{fill:#fff;}.cls-3{fill:#f774bc;}.cls-4{fill:#d14919;}.cls-6{fill:#d4145a;}.cls-7{fill:#441a0d;}.cls-8{fill:#69aa03;}.cls-9{stroke:#00592f;stroke-width:1px;}.cls-10{fill:#f94a3d;}</style></defs><title>personaji_3</title><g id="Слой_1" data-name="Слой 1"><path class="cls-1" d="M5,52H5s-.1,0-.24,0L4,52a3.65,3.65,0,0,1-.52,0l-.21,0L3,52l-.12,0A.46.46,0,0,1,2.7,52l-.06.13a3.61,3.61,0,0,0-.06.44.34.34,0,0,1-.28,0,.23.23,0,0,1-.14-.21q0-.51,0-.78a.25.25,0,0,1,.11-.24,1.45,1.45,0,0,1,.27,0c.07-.2.17-.48.31-.83.27-.65.48-1.15.62-1.51a1,1,0,0,1,.33-.57A.45.45,0,0,1,4,48.32c.11,0,.2.08.27.22a1.76,1.76,0,0,1,.13.36c.06.17.1.3.14.38a4.55,4.55,0,0,1,.24.78l.2.65a4,4,0,0,0,.23.6h0a.88.88,0,0,1,.28.07c.07,0,.1.11.11.23s0,.44,0,.78a.22.22,0,0,1-.14.21.34.34,0,0,1-.28,0,3.61,3.61,0,0,0-.06-.44A.36.36,0,0,0,5.05,52Zm-2-.66.88,0a4.27,4.27,0,0,0,.71-.06h0q-.12-.44-.33-1c-.18-.52-.36-.78-.52-.78a.27.27,0,0,0-.2.13,3.92,3.92,0,0,0-.32.92C3.18,50.89,3.09,51.16,3,51.33Z"/><path class="cls-1" d="M6.75,50.9c-.14,0-.19.11-.15.23a1,1,0,0,0,.39.33,1,1,0,0,0,.35,0,1.55,1.55,0,0,0,.59-.11,1.93,1.93,0,0,1,.35-.16c.08,0,.12.09.12.26A.58.58,0,0,1,8,52a1.64,1.64,0,0,1-.71.15.91.91,0,0,1-.27,0,1.32,1.32,0,0,1-1-1.27,2,2,0,0,1,.14-.94,1,1,0,0,1,.56-.61,1.43,1.43,0,0,1,.53-.12,1.51,1.51,0,0,1,.92.29l.14.11a1,1,0,0,1,.28.76.63.63,0,0,1-.08.35l-.8.12c-.27,0-.5.06-.68.07Zm1.13-.57c.16,0,.23-.12.2-.22A.2.2,0,0,0,8,50S8,50,8,50l-.07-.07s-.09,0-.36-.1a.88.88,0,0,0-.9.29c-.07.09-.08.17,0,.24a.26.26,0,0,0,.24.08h.33a1.07,1.07,0,0,0,.32,0Z"/><path class="cls-1" d="M11.09,50.48a.75.75,0,0,1,.36.42,1,1,0,0,1,.06.34.7.7,0,0,1-.35.66,2.72,2.72,0,0,1-1.09.17H9.89L9.5,52l-.21,0a.31.31,0,0,1-.2-.25,1.49,1.49,0,0,1,0-.25v-.36c0-.14,0-.26,0-.37a2.12,2.12,0,0,1,0-.3c0-.23,0-.37,0-.44a4.1,4.1,0,0,1,0-.43.38.38,0,0,1,.13-.22.81.81,0,0,1,.39-.12,3.74,3.74,0,0,1,.87,0,1.32,1.32,0,0,1,.44.18,1,1,0,0,1,.22.23.93.93,0,0,1,.07.33.53.53,0,0,1-.08.31A.24.24,0,0,1,11.09,50.48Zm-.68,1.05a2,2,0,0,0,.51-.08c.1-.08.15-.15.14-.2s-.05-.11-.15-.2a1.26,1.26,0,0,0-.75-.19H9.9a.48.48,0,0,0-.44.23v.11c0,.23.26.35.68.35Zm.25-1.68a1.3,1.3,0,0,0-.23-.07l-.3,0c-.28,0-.45,0-.51.11a.47.47,0,0,0,0,.31c0,.1.13.15.41.16a1.35,1.35,0,0,0,.31,0c.43-.07.6-.17.53-.33A.33.33,0,0,0,10.66,49.85Z"/><path class="cls-1" d="M14.16,49.15c.16,0,.21.11.16.33a2.27,2.27,0,0,1-.16.45,3.3,3.3,0,0,0-.28.64l-.07.23c-.06.16-.12.38-.2.65s-.16.55-.2.67c-.08.3-.13.51-.16.61a3,3,0,0,1-.1.32.18.18,0,0,1-.19.13.37.37,0,0,1-.21-.08.2.2,0,0,1-.09-.18.58.58,0,0,1,.08-.28,1.11,1.11,0,0,0,.14-.32,3.92,3.92,0,0,0,.13-.64.85.85,0,0,0,0-.23,1.45,1.45,0,0,0-.34-.67,2.35,2.35,0,0,1-.18-.31l-.18-.3a2.85,2.85,0,0,1-.37-.61.44.44,0,0,1,.06-.34c.07-.13.14-.18.22-.14a2,2,0,0,1,.43.61l.12.23a.94.94,0,0,0,.44.5c.19.12.37-.06.54-.55a1.54,1.54,0,0,1,.14-.62A.37.37,0,0,1,14.16,49.15Z"/><path class="cls-1" d="M14.7,49.91a2.24,2.24,0,0,1,0-.39.23.23,0,0,1,.26-.21.17.17,0,0,1,.21.15.65.65,0,0,1,0,.39,1.69,1.69,0,0,0,0,.44c0,.09,0,.2,0,.32s0,.25,0,.4a.3.3,0,0,0,.26.34.59.59,0,0,0,.46,0,1.15,1.15,0,0,0,.28-.77,2.49,2.49,0,0,0,0-.41.92.92,0,0,1,0-.19c0-.08,0-.14,0-.19s0-.25.06-.3.21-.13.3-.07.09.11.09.22a1.74,1.74,0,0,1-.06.47s0,.19,0,.63.08.53.22.6a.7.7,0,0,0,.46,0,.5.5,0,0,0,.29-.55l0-.27a1.13,1.13,0,0,1,0-.34c0-.09,0-.22-.08-.4l-.05-.19a.18.18,0,0,1,0-.18.35.35,0,0,1,.23-.11c.05,0,.1,0,.16.11a.54.54,0,0,1,.12.37l0,.9a5.69,5.69,0,0,0,.1.91,1.07,1.07,0,0,1,0,.41.29.29,0,0,1-.12.15.33.33,0,0,1-.24,0l0,0-.07-.1a.72.72,0,0,0-.11-.12l-.36.1a.79.79,0,0,1-.28.05.52.52,0,0,1-.4-.14v0a.24.24,0,0,0-.17,0,.55.55,0,0,0-.31.08,1,1,0,0,1-.46.12.69.69,0,0,1-.49-.11.88.88,0,0,1-.21-.3c-.05-.2-.09-.33-.1-.38a1,1,0,0,1,0-.24c0-.18,0-.29,0-.33Z"/><path class="cls-1" d="M21,51.87c0,.05,0,.11-.13.17s-.23,0-.51-.3l-.23-.26-.23-.26a2.71,2.71,0,0,0-.52-.46.19.19,0,0,0-.23,0l-.06,0a.61.61,0,0,0-.06.23v.12l0,.23.05.26a.22.22,0,0,1-.06.23.31.31,0,0,1-.22.12s-.09,0-.14-.14a.9.9,0,0,1-.1-.49l0-1.15a6.53,6.53,0,0,1,0-1,.26.26,0,0,1,.15-.16.13.13,0,0,1,.19.06l0,.07a1.86,1.86,0,0,1,0,.48c0,.1,0,.18,0,.22a.23.23,0,0,0,.27.21.46.46,0,0,0,.22-.06,2.69,2.69,0,0,0,.57-.59.93.93,0,0,1,.53-.42c.13,0,.19,0,.18.14a.93.93,0,0,1-.08.28,2.55,2.55,0,0,1-.34.44,1,1,0,0,1-.15.2,1.51,1.51,0,0,0-.14.21c0,.07.13.3.43.68.05.06.12.17.23.33s.18.28.22.33A.38.38,0,0,1,21,51.87Z"/><path class="cls-1" d="M24,51.16v.36a2.85,2.85,0,0,1,0,.36c0,.12-.08.19-.18.21l-.23,0-.39,0H23a2.74,2.74,0,0,1-1.16-.18.7.7,0,0,1-.35-.66,1,1,0,0,1,.06-.34.8.8,0,0,1,.95-.54,2.93,2.93,0,0,0,.58,0c.27,0,.41-.1.41-.2s0-.17-.18-.25a.76.76,0,0,0-.37-.1,3.63,3.63,0,0,0-.45.07l-.45.08c-.14,0-.21,0-.21-.19a.67.67,0,0,1,.08-.29.21.21,0,0,1,.18-.12l.54-.12.29,0a.72.72,0,0,1,.39,0,1.11,1.11,0,0,1,.46.3.93.93,0,0,1,.24.69c0,.06,0,.16,0,.27s0,.25,0,.3A2.38,2.38,0,0,0,24,51.16Zm-1.14.35c.46,0,.71-.11.75-.31v-.11c-.07-.14-.21-.2-.44-.2h-.33a1.19,1.19,0,0,0-.75.2.38.38,0,0,0-.16.17s0,.1.14.15a1.61,1.61,0,0,0,.52.09Z"/><path class="cls-1" d="M27.23,50.41c0,.11,0,.18-.1.21a4.54,4.54,0,0,1-.59.06,4.52,4.52,0,0,1-.79,0l-.29,0-.56,0c-.13,0-.21,0-.23-.1a.44.44,0,0,1,0-.3c0-.07.17-.11.37-.11h.24l.59,0h.32a3.31,3.31,0,0,1,.9,0A.24.24,0,0,1,27.23,50.41Z"/><path class="cls-1" d="M29.74,50.48a.75.75,0,0,1,.36.42,1,1,0,0,1,.06.34.7.7,0,0,1-.35.66,2.72,2.72,0,0,1-1.09.17h-.18l-.39,0L28,52a.3.3,0,0,1-.21-.25,1.49,1.49,0,0,1,0-.25v-.36c0-.14,0-.26,0-.37a2.12,2.12,0,0,1,0-.3c0-.23,0-.37,0-.44a4.1,4.1,0,0,1,0-.43A.35.35,0,0,1,28,49.4a.73.73,0,0,1,.38-.12,3.74,3.74,0,0,1,.87,0,1.32,1.32,0,0,1,.44.18.8.8,0,0,1,.22.23.93.93,0,0,1,.07.33.53.53,0,0,1-.08.31A.24.24,0,0,1,29.74,50.48Zm-.68,1.05a2.22,2.22,0,0,0,.52-.08c.09-.08.14-.15.13-.2s-.05-.11-.15-.2a1.26,1.26,0,0,0-.75-.19h-.26a.48.48,0,0,0-.44.23v.11c0,.23.27.35.68.35Zm.25-1.68a1.3,1.3,0,0,0-.23-.07l-.3,0c-.28,0-.45,0-.51.11a.54.54,0,0,0,0,.31c0,.1.14.15.41.16a1.35,1.35,0,0,0,.31,0c.43-.07.6-.17.53-.33A.33.33,0,0,0,29.31,49.85Z"/><path class="cls-1" d="M31.32,50.9c-.14,0-.19.11-.15.23a.9.9,0,0,0,.39.33.92.92,0,0,0,.35,0,1.55,1.55,0,0,0,.59-.11,1.93,1.93,0,0,1,.35-.16c.08,0,.12.09.12.26a.58.58,0,0,1-.39.49,1.64,1.64,0,0,1-.71.15.91.91,0,0,1-.27,0,1.32,1.32,0,0,1-1-1.27,2,2,0,0,1,.14-.94,1,1,0,0,1,.56-.61,1.43,1.43,0,0,1,.53-.12,1.51,1.51,0,0,1,.92.29l.14.11a1,1,0,0,1,.28.76.63.63,0,0,1-.08.35l-.8.12c-.27,0-.5.06-.68.07Zm1.12-.57c.17,0,.24-.12.21-.22a.15.15,0,0,0,0-.08s0,0-.08-.08l-.06-.07s-.09,0-.37-.1a.86.86,0,0,0-.89.29c-.07.09-.08.17,0,.24a.26.26,0,0,0,.24.08h.33a1.07,1.07,0,0,0,.32,0Z"/><path class="cls-1" d="M36,51.13c.1,0,.16.09.18.25s-.14.46-.48.61a1.39,1.39,0,0,1-.8.14A1.32,1.32,0,0,1,33.7,51a1.9,1.9,0,0,1,0-.35,1.26,1.26,0,0,1,.68-1.25,1.66,1.66,0,0,1,.71-.18,1.72,1.72,0,0,1,.81.23l.12.07a.24.24,0,0,1,.14.25c0,.17-.06.27-.2.29a1,1,0,0,1-.38-.08l-.33-.08-.22,0a.92.92,0,0,0-.92.55.46.46,0,0,0,0,.21.75.75,0,0,0,.22.52.78.78,0,0,0,.51.28H35a1.2,1.2,0,0,0,.57-.13A1.32,1.32,0,0,1,36,51.13Z"/><path class="cls-1" d="M38.25,50.36c0-.09,0-.19,0-.32a1.64,1.64,0,0,1,0-.27,1.17,1.17,0,0,1,0-.39c0-.09.08-.14.15-.14s.17.07.19.21,0,.43,0,.7v.79h0c0,.15,0,.42,0,.8a.34.34,0,0,1-.06.3c-.12.09-.23.11-.31.05s-.09-.1-.09-.22a3.15,3.15,0,0,1,.08-.47,1.25,1.25,0,0,0,0-.24l0-.35-.65.06-.34,0-.12,0a1.49,1.49,0,0,1,0,.21c0,.09,0,.22.08.4l0,.19a.21.21,0,0,1,0,.19A.32.32,0,0,1,37,52s-.1,0-.16-.11a.62.62,0,0,1-.1-.38V51.1a5.12,5.12,0,0,0,0-.56l0-.51a2.14,2.14,0,0,0,0-.25c0-.12,0-.21,0-.27a.3.3,0,0,1,0-.2c.25-.19.37,0,.37.7v.32a.29.29,0,0,0,.23.06h.33a1.07,1.07,0,0,0,.32,0Z"/><path class="cls-1" d="M41.68,51.16v.36a2.24,2.24,0,0,1,0,.36.23.23,0,0,1-.17.21l-.24,0-.39,0H40.7a2.79,2.79,0,0,1-1.17-.18.7.7,0,0,1-.35-.66,1,1,0,0,1,.06-.34.8.8,0,0,1,.95-.54,3.07,3.07,0,0,0,.59,0c.27,0,.4-.1.4-.2s0-.17-.18-.25a.74.74,0,0,0-.37-.1,3.63,3.63,0,0,0-.45.07l-.44.08c-.14,0-.21,0-.21-.19a.55.55,0,0,1,.08-.29.19.19,0,0,1,.18-.12l.54-.12.29,0a.69.69,0,0,1,.38,0,1.05,1.05,0,0,1,.46.3.93.93,0,0,1,.24.69c0,.06,0,.16,0,.27s0,.25,0,.3S41.67,51,41.68,51.16Zm-1.14.35c.46,0,.71-.11.75-.31v-.11c-.06-.14-.21-.2-.44-.2h-.33a1.19,1.19,0,0,0-.75.2c-.1.07-.15.13-.15.17s0,.1.14.15a1.52,1.52,0,0,0,.51.09Z"/><path d="M5,52H5s-.1,0-.24,0L4,52a3.65,3.65,0,0,1-.52,0l-.21,0L3,52l-.12,0A.46.46,0,0,1,2.7,52l-.06.13a3.61,3.61,0,0,0-.06.44.34.34,0,0,1-.28,0,.23.23,0,0,1-.14-.21q0-.51,0-.78a.25.25,0,0,1,.11-.24,1.45,1.45,0,0,1,.27,0c.07-.2.17-.48.31-.83.27-.65.48-1.15.62-1.51a1,1,0,0,1,.33-.57A.45.45,0,0,1,4,48.32c.11,0,.2.08.27.22a1.76,1.76,0,0,1,.13.36c.06.17.1.3.14.38a4.55,4.55,0,0,1,.24.78l.2.65a4,4,0,0,0,.23.6h0a.88.88,0,0,1,.28.07c.07,0,.1.11.11.23s0,.44,0,.78a.22.22,0,0,1-.14.21.34.34,0,0,1-.28,0,3.61,3.61,0,0,0-.06-.44A.36.36,0,0,0,5.05,52Zm-2-.66.88,0a4.27,4.27,0,0,0,.71-.06h0q-.12-.44-.33-1c-.18-.52-.36-.78-.52-.78a.27.27,0,0,0-.2.13,3.92,3.92,0,0,0-.32.92C3.18,50.89,3.09,51.16,3,51.33Z"/><path d="M6.75,50.9c-.14,0-.19.11-.15.23a1,1,0,0,0,.39.33,1,1,0,0,0,.35,0,1.55,1.55,0,0,0,.59-.11,1.93,1.93,0,0,1,.35-.16c.08,0,.12.09.12.26A.58.58,0,0,1,8,52a1.64,1.64,0,0,1-.71.15.91.91,0,0,1-.27,0,1.32,1.32,0,0,1-1-1.27,2,2,0,0,1,.14-.94,1,1,0,0,1,.56-.61,1.43,1.43,0,0,1,.53-.12,1.51,1.51,0,0,1,.92.29l.14.11a1,1,0,0,1,.28.76.63.63,0,0,1-.08.35l-.8.12c-.27,0-.5.06-.68.07Zm1.13-.57c.16,0,.23-.12.2-.22A.2.2,0,0,0,8,50S8,50,8,50l-.07-.07s-.09,0-.36-.1a.88.88,0,0,0-.9.29c-.07.09-.08.17,0,.24a.26.26,0,0,0,.24.08h.33a1.07,1.07,0,0,0,.32,0Z"/><path d="M11.09,50.48a.75.75,0,0,1,.36.42,1,1,0,0,1,.06.34.7.7,0,0,1-.35.66,2.72,2.72,0,0,1-1.09.17H9.89L9.5,52l-.21,0a.31.31,0,0,1-.2-.25,1.49,1.49,0,0,1,0-.25v-.36c0-.14,0-.26,0-.37a2.12,2.12,0,0,1,0-.3c0-.23,0-.37,0-.44a4.1,4.1,0,0,1,0-.43.38.38,0,0,1,.13-.22.81.81,0,0,1,.39-.12,3.74,3.74,0,0,1,.87,0,1.32,1.32,0,0,1,.44.18,1,1,0,0,1,.22.23.93.93,0,0,1,.07.33.53.53,0,0,1-.08.31A.24.24,0,0,1,11.09,50.48Zm-.68,1.05a2,2,0,0,0,.51-.08c.1-.08.15-.15.14-.2s-.05-.11-.15-.2a1.26,1.26,0,0,0-.75-.19H9.9a.48.48,0,0,0-.44.23v.11c0,.23.26.35.68.35Zm.25-1.68a1.3,1.3,0,0,0-.23-.07l-.3,0c-.28,0-.45,0-.51.11a.47.47,0,0,0,0,.31c0,.1.13.15.41.16a1.35,1.35,0,0,0,.31,0c.43-.07.6-.17.53-.33A.33.33,0,0,0,10.66,49.85Z"/><path d="M14.16,49.15c.16,0,.21.11.16.33a2.27,2.27,0,0,1-.16.45,3.3,3.3,0,0,0-.28.64l-.07.23c-.06.16-.12.38-.2.65s-.16.55-.2.67c-.08.3-.13.51-.16.61a3,3,0,0,1-.1.32.18.18,0,0,1-.19.13.37.37,0,0,1-.21-.08.2.2,0,0,1-.09-.18.58.58,0,0,1,.08-.28,1.11,1.11,0,0,0,.14-.32,3.92,3.92,0,0,0,.13-.64.85.85,0,0,0,0-.23,1.45,1.45,0,0,0-.34-.67,2.35,2.35,0,0,1-.18-.31l-.18-.3a2.85,2.85,0,0,1-.37-.61.44.44,0,0,1,.06-.34c.07-.13.14-.18.22-.14a2,2,0,0,1,.43.61l.12.23a.94.94,0,0,0,.44.5c.19.12.37-.06.54-.55a1.54,1.54,0,0,1,.14-.62A.37.37,0,0,1,14.16,49.15Z"/><path d="M14.7,49.91a2.24,2.24,0,0,1,0-.39.23.23,0,0,1,.26-.21.17.17,0,0,1,.21.15.65.65,0,0,1,0,.39,1.69,1.69,0,0,0,0,.44c0,.09,0,.2,0,.32s0,.25,0,.4a.3.3,0,0,0,.26.34.59.59,0,0,0,.46,0,1.15,1.15,0,0,0,.28-.77,2.49,2.49,0,0,0,0-.41.92.92,0,0,1,0-.19c0-.08,0-.14,0-.19s0-.25.06-.3.21-.13.3-.07.09.11.09.22a1.74,1.74,0,0,1-.06.47s0,.19,0,.63.08.53.22.6a.7.7,0,0,0,.46,0,.5.5,0,0,0,.29-.55l0-.27a1.13,1.13,0,0,1,0-.34c0-.09,0-.22-.08-.4l-.05-.19a.18.18,0,0,1,0-.18.35.35,0,0,1,.23-.11c.05,0,.1,0,.16.11a.54.54,0,0,1,.12.37l0,.9a5.69,5.69,0,0,0,.1.91,1.07,1.07,0,0,1,0,.41.29.29,0,0,1-.12.15.33.33,0,0,1-.24,0l0,0-.07-.1a.72.72,0,0,0-.11-.12l-.36.1a.79.79,0,0,1-.28.05.52.52,0,0,1-.4-.14v0a.24.24,0,0,0-.17,0,.55.55,0,0,0-.31.08,1,1,0,0,1-.46.12.69.69,0,0,1-.49-.11.88.88,0,0,1-.21-.3c-.05-.2-.09-.33-.1-.38a1,1,0,0,1,0-.24c0-.18,0-.29,0-.33Z"/><path d="M21,51.87c0,.05,0,.11-.13.17s-.23,0-.51-.3l-.23-.26-.23-.26a2.71,2.71,0,0,0-.52-.46.19.19,0,0,0-.23,0l-.06,0a.61.61,0,0,0-.06.23v.12l0,.23.05.26a.22.22,0,0,1-.06.23.31.31,0,0,1-.22.12s-.09,0-.14-.14a.9.9,0,0,1-.1-.49l0-1.15a6.53,6.53,0,0,1,0-1,.26.26,0,0,1,.15-.16.13.13,0,0,1,.19.06l0,.07a1.86,1.86,0,0,1,0,.48c0,.1,0,.18,0,.22a.23.23,0,0,0,.27.21.46.46,0,0,0,.22-.06,2.69,2.69,0,0,0,.57-.59.93.93,0,0,1,.53-.42c.13,0,.19,0,.18.14a.93.93,0,0,1-.08.28,2.55,2.55,0,0,1-.34.44,1,1,0,0,1-.15.2,1.51,1.51,0,0,0-.14.21c0,.07.13.3.43.68.05.06.12.17.23.33s.18.28.22.33A.38.38,0,0,1,21,51.87Z"/><path d="M24,51.16v.36a2.85,2.85,0,0,1,0,.36c0,.12-.08.19-.18.21l-.23,0-.39,0H23a2.74,2.74,0,0,1-1.16-.18.7.7,0,0,1-.35-.66,1,1,0,0,1,.06-.34.8.8,0,0,1,.95-.54,2.93,2.93,0,0,0,.58,0c.27,0,.41-.1.41-.2s0-.17-.18-.25a.76.76,0,0,0-.37-.1,3.63,3.63,0,0,0-.45.07l-.45.08c-.14,0-.21,0-.21-.19a.67.67,0,0,1,.08-.29.21.21,0,0,1,.18-.12l.54-.12.29,0a.72.72,0,0,1,.39,0,1.11,1.11,0,0,1,.46.3.93.93,0,0,1,.24.69c0,.06,0,.16,0,.27s0,.25,0,.3A2.38,2.38,0,0,0,24,51.16Zm-1.14.35c.46,0,.71-.11.75-.31v-.11c-.07-.14-.21-.2-.44-.2h-.33a1.19,1.19,0,0,0-.75.2.38.38,0,0,0-.16.17s0,.1.14.15a1.61,1.61,0,0,0,.52.09Z"/><path d="M27.23,50.41c0,.11,0,.18-.1.21a4.54,4.54,0,0,1-.59.06,4.52,4.52,0,0,1-.79,0l-.29,0-.56,0c-.13,0-.21,0-.23-.1a.44.44,0,0,1,0-.3c0-.07.17-.11.37-.11h.24l.59,0h.32a3.31,3.31,0,0,1,.9,0A.24.24,0,0,1,27.23,50.41Z"/><path d="M29.74,50.48a.75.75,0,0,1,.36.42,1,1,0,0,1,.06.34.7.7,0,0,1-.35.66,2.72,2.72,0,0,1-1.09.17h-.18l-.39,0L28,52a.3.3,0,0,1-.21-.25,1.49,1.49,0,0,1,0-.25v-.36c0-.14,0-.26,0-.37a2.12,2.12,0,0,1,0-.3c0-.23,0-.37,0-.44a4.1,4.1,0,0,1,0-.43A.35.35,0,0,1,28,49.4a.73.73,0,0,1,.38-.12,3.74,3.74,0,0,1,.87,0,1.32,1.32,0,0,1,.44.18.8.8,0,0,1,.22.23.93.93,0,0,1,.07.33.53.53,0,0,1-.08.31A.24.24,0,0,1,29.74,50.48Zm-.68,1.05a2.22,2.22,0,0,0,.52-.08c.09-.08.14-.15.13-.2s-.05-.11-.15-.2a1.26,1.26,0,0,0-.75-.19h-.26a.48.48,0,0,0-.44.23v.11c0,.23.27.35.68.35Zm.25-1.68a1.3,1.3,0,0,0-.23-.07l-.3,0c-.28,0-.45,0-.51.11a.54.54,0,0,0,0,.31c0,.1.14.15.41.16a1.35,1.35,0,0,0,.31,0c.43-.07.6-.17.53-.33A.33.33,0,0,0,29.31,49.85Z"/><path d="M31.32,50.9c-.14,0-.19.11-.15.23a.9.9,0,0,0,.39.33.92.92,0,0,0,.35,0,1.55,1.55,0,0,0,.59-.11,1.93,1.93,0,0,1,.35-.16c.08,0,.12.09.12.26a.58.58,0,0,1-.39.49,1.64,1.64,0,0,1-.71.15.91.91,0,0,1-.27,0,1.32,1.32,0,0,1-1-1.27,2,2,0,0,1,.14-.94,1,1,0,0,1,.56-.61,1.43,1.43,0,0,1,.53-.12,1.51,1.51,0,0,1,.92.29l.14.11a1,1,0,0,1,.28.76.63.63,0,0,1-.08.35l-.8.12c-.27,0-.5.06-.68.07Zm1.12-.57c.17,0,.24-.12.21-.22a.15.15,0,0,0,0-.08s0,0-.08-.08l-.06-.07s-.09,0-.37-.1a.86.86,0,0,0-.89.29c-.07.09-.08.17,0,.24a.26.26,0,0,0,.24.08h.33a1.07,1.07,0,0,0,.32,0Z"/><path d="M36,51.13c.1,0,.16.09.18.25s-.14.46-.48.61a1.39,1.39,0,0,1-.8.14A1.32,1.32,0,0,1,33.7,51a1.9,1.9,0,0,1,0-.35,1.26,1.26,0,0,1,.68-1.25,1.66,1.66,0,0,1,.71-.18,1.72,1.72,0,0,1,.81.23l.12.07a.24.24,0,0,1,.14.25c0,.17-.06.27-.2.29a1,1,0,0,1-.38-.08l-.33-.08-.22,0a.92.92,0,0,0-.92.55.46.46,0,0,0,0,.21.75.75,0,0,0,.22.52.78.78,0,0,0,.51.28H35a1.2,1.2,0,0,0,.57-.13A1.32,1.32,0,0,1,36,51.13Z"/><path d="M38.25,50.36c0-.09,0-.19,0-.32a1.64,1.64,0,0,1,0-.27,1.17,1.17,0,0,1,0-.39c0-.09.08-.14.15-.14s.17.07.19.21,0,.43,0,.7v.79h0c0,.15,0,.42,0,.8a.34.34,0,0,1-.06.3c-.12.09-.23.11-.31.05s-.09-.1-.09-.22a3.15,3.15,0,0,1,.08-.47,1.25,1.25,0,0,0,0-.24l0-.35-.65.06-.34,0-.12,0a1.49,1.49,0,0,1,0,.21c0,.09,0,.22.08.4l0,.19a.21.21,0,0,1,0,.19A.32.32,0,0,1,37,52s-.1,0-.16-.11a.62.62,0,0,1-.1-.38V51.1a5.12,5.12,0,0,0,0-.56l0-.51a2.14,2.14,0,0,0,0-.25c0-.12,0-.21,0-.27a.3.3,0,0,1,0-.2c.25-.19.37,0,.37.7v.32a.29.29,0,0,0,.23.06h.33a1.07,1.07,0,0,0,.32,0Z"/><path d="M41.68,51.16v.36a2.24,2.24,0,0,1,0,.36.23.23,0,0,1-.17.21l-.24,0-.39,0H40.7a2.79,2.79,0,0,1-1.17-.18.7.7,0,0,1-.35-.66,1,1,0,0,1,.06-.34.8.8,0,0,1,.95-.54,3.07,3.07,0,0,0,.59,0c.27,0,.4-.1.4-.2s0-.17-.18-.25a.74.74,0,0,0-.37-.1,3.63,3.63,0,0,0-.45.07l-.44.08c-.14,0-.21,0-.21-.19a.55.55,0,0,1,.08-.29.19.19,0,0,1,.18-.12l.54-.12.29,0a.69.69,0,0,1,.38,0,1.05,1.05,0,0,1,.46.3.93.93,0,0,1,.24.69c0,.06,0,.16,0,.27s0,.25,0,.3S41.67,51,41.68,51.16Zm-1.14.35c.46,0,.71-.11.75-.31v-.11c-.06-.14-.21-.2-.44-.2h-.33a1.19,1.19,0,0,0-.75.2c-.1.07-.15.13-.15.17s0,.1.14.15a1.52,1.52,0,0,0,.51.09Z"/><path class="cls-2" d="M21.61,34a.4.4,0,0,0,.3.12,3.78,3.78,0,0,0,3.32-2.29,2.24,2.24,0,0,0,.48-.54,3.26,3.26,0,0,0,1-1.21,2.06,2.06,0,0,0,1-1,3.87,3.87,0,0,0,.77-2.28c.28,0,.46-.28.58-.75,0,0,0,0,.07-.06a7.47,7.47,0,0,0,.76-2.32c.08,0,.14-.08.15-.24a9.75,9.75,0,0,0,0-1.62,5,5,0,0,0-.45-2.26,8.43,8.43,0,0,0-.38-1c-.12-1.22-.44-2.73-1.16-3A4.32,4.32,0,0,0,24.56,12s0-.05-.07-.06c-.36-.16-.7-.3-1-.43-1-2-4.43-2.66-6.27-2.15a.31.31,0,0,0-.15.23h-.18c-.25,0-.26.39-.18.85l-1.3,0c-.17,0-.22.28-.2.64l-.63,0c-.49,0-.12,1.39.26,2.23-.87.09-1.69.22-2.29.3-.24,0-.24.47-.17.91l-1.42.14c-.29,0-.25.78-.06,1.51a4.6,4.6,0,0,0,.43,2.22c-.48,0-.93.08-1.33.1s-.21,1.13.09,2l-.22,0c-.32.06-.25.91,0,1.67-.25.55.33,2.64.8,2.75l.61.13a3.15,3.15,0,0,0-.58.48c-.38.42.17,2.67.75,2.79l.5.09a2.54,2.54,0,0,0,.34.65l.1.08a2.37,2.37,0,0,0-.12,1.17,3.4,3.4,0,0,0,2.92,2.78,2.8,2.8,0,0,0,.8,1.57A4.9,4.9,0,0,0,21.61,34Z"/><path class="cls-3" d="M22.82,41.18a2,2,0,0,0,1.82-1.6,2.15,2.15,0,0,0,.46-.33,6.17,6.17,0,0,0,5.08-1,2.31,2.31,0,0,0,1-.79c1.92-.22,2.62-2.44,2.26-4.4a7.27,7.27,0,0,0-.3-2.3,3.69,3.69,0,0,0-.15-.75l.28-.13c1.84.14,2.39-.83,2.22-2a1.57,1.57,0,0,0,.62-1.05,3.1,3.1,0,0,0,1.94-3.66L38,23a3,3,0,0,0,.12-1,3,3,0,0,0,.13-1.4,3.52,3.52,0,0,0-.91-1.93,3.4,3.4,0,0,0-1.8-2.06,2.51,2.51,0,0,0-1.12-.17,3.74,3.74,0,0,0-.32-.63A6.06,6.06,0,0,0,33.46,13a8.08,8.08,0,0,0-.25-1.85,1,1,0,0,0,0-.17c.91-1.47-.41-3.28-2.16-4.36l-.26-.2A3.9,3.9,0,0,0,29,5.8a3.41,3.41,0,0,0-1.38,0,1.76,1.76,0,0,0-1-.42,6.47,6.47,0,0,0-.89-.92A6.11,6.11,0,0,0,24,2.75a4.05,4.05,0,0,0-3.65-1,.34.34,0,0,1-.1,0,.2.2,0,0,0-.12.12,2,2,0,0,0-.68.55A2.34,2.34,0,0,0,19,4a8.49,8.49,0,0,1-2.33,1.56c-.84.45-.18,2.93.78,2.9a12.24,12.24,0,0,1,3.45.29c.38.16.77.31,1.18.44s.64.31,1,.48l1.13.63c.25.26.51.51.79.75a1.06,1.06,0,0,0,.09.32,10.35,10.35,0,0,0,3.36,4,13.53,13.53,0,0,1,1.08,2.27,2.38,2.38,0,0,0,.29.54v0a3.09,3.09,0,0,0,.2.37L30,22.09a2.65,2.65,0,0,0,.32,1L29.93,25a21,21,0,0,0-.86,3.14c0,.11-.37.44-.27.8l-2.63,2.46c-.29.23-.26,1-.06,1.67l-.26.17a6.24,6.24,0,0,0-3.25,1.4,4.45,4.45,0,0,0-.93.32,2.17,2.17,0,0,0-1.89.52,1,1,0,0,0-.19.88,11.72,11.72,0,0,0-2.48-.76,18.21,18.21,0,0,0-2-.69c-1-.28-.28,2,0,2.51a1.58,1.58,0,0,0,.21.42C16.56,39.22,20.82,43.08,22.82,41.18Z"/><path class="cls-4" d="M5.66,42.69a.83.83,0,0,0,.74-.1,2.6,2.6,0,0,0,.69-.83A1.89,1.89,0,0,0,7.84,40a2.29,2.29,0,0,0,.25-.84c0-.08,0-.15,0-.23l.09-.08a2.68,2.68,0,0,0,.71-1.36,2.94,2.94,0,0,0,.33-1.89A3.37,3.37,0,0,0,9,34.71a2.1,2.1,0,0,0,.74-1.94,1.18,1.18,0,0,0,.17-.22.61.61,0,0,0,0-.11c.52.39,1.08.79,1.7,1.21.46.53.41.46,1.34.9.1,0,.15,0,.18-.21l.07,0c.18.09.21-.27.16-.77l0,0c.34.09.33-.45.2-1.08a1,1,0,0,0,.37-.4,1.13,1.13,0,0,0,.27-.22l.14,0c.17-.07.17-.38.18-.51v-.06a3.12,3.12,0,0,0,.1-1c-.05-.92-.69-2.47-1.57-2.46A1.21,1.21,0,0,0,13,27.6a7,7,0,0,0-.52-.56c0-.12,0-.22,0-.35a3.08,3.08,0,0,0-.08-.8,3.31,3.31,0,0,0,0-.73A1.83,1.83,0,0,0,12.7,25c1.37-1.07.42-5-1.11-6.81a3.74,3.74,0,0,0-.79-.84,2.66,2.66,0,0,0,.36-1,2.93,2.93,0,0,0,0-.41,1.58,1.58,0,0,0,1.27-.24,1.81,1.81,0,0,0,1.68-1.74,1.84,1.84,0,0,0,.91.15,1.75,1.75,0,0,0,1.22-.66c.29.06.57-.16.68-.54a2.19,2.19,0,0,0-.16-1.39c-.29-2.68-3.7-2.31-5.54-1.28a1.79,1.79,0,0,0-.85,1.06,1.48,1.48,0,0,0-.29.22,7.42,7.42,0,0,0-1.79.37c-.24.07-.27.55-.18,1.1-1,.15-1.53,1.42-1.49,2.59A20.81,20.81,0,0,0,4.5,17.4c-.22.22-.1.94.12,1.6a2.73,2.73,0,0,0-.16,1.05A3.62,3.62,0,0,0,4.21,22h0l-.06.17a2.54,2.54,0,0,0,.2,1.2,2.19,2.19,0,0,0,0,.86,9.74,9.74,0,0,0,1.86,4.53,2.41,2.41,0,0,0,.3.84l-.26.08a2.1,2.1,0,0,0-.84.19,2.51,2.51,0,0,0-1.13,1,2.56,2.56,0,0,0-1.06,2.81,4.23,4.23,0,0,0,.21,3.46,4.69,4.69,0,0,0,.42,2.4A2.72,2.72,0,0,0,4,40c0,.1.09.21.14.31l-.06.12C3.79,41.22,4.66,43.46,5.66,42.69Z"/><circle class="cls-5" cx="16.98" cy="22.27" r="13.3"/><ellipse cx="24.5" cy="27.45" rx="1.96" ry="1.5"/><ellipse cx="24.5" cy="17.53" rx="1.96" ry="1.5"/><path class="cls-6" d="M12.34,36.09c1.26,3.71,4.58,7.14,8.79,7.13a7.52,7.52,0,0,0,2.9-.73c2.11-.76-5-.46,3.18-1.47.71-.08,1.49.24,2.23.16,4.09-.41,5.39-3.83,6-7.34.8-5,5.63-7.5,5.48-13.13-.07-2.58-.76-3.26-2.26-4.81-1.7-1.77-1,3.32-3.09-2.84-.43-1.24.09-2.78-.24-4A5.92,5.92,0,0,0,33,5.48c-1.32-.77-2.84.29-4-.22C27.68,4.64,27.47,2,26.13,1a5.93,5.93,0,0,0-4-1c-4.39.38-5.44,4.76-7.76,7.71-1.09,1.4,1.68,1.54,2.37.65C17.56,7.33,18.11,6,18.94,5q1.21-3.17,5.53-1.79l.8,1.91a3.22,3.22,0,0,0,2.64,2.05c1.49.38,2.33-.52,3.69.85s.72,3.07.89,4.57c.3,2.7.84,3.37,3,4.68,4.52,2.77,2.29,8.49-.9,11.66-.64.63-1.47,1.07-1.87,1.9-1.74,3.57,1.37,3.85-2.82,6.59-2.47,1.61-3.6,1.24-6.12,2.13-.54.19-.89,1.05-1.35,1.19-3.69,1.12-6.2-2.6-7.16-5.41-.4-1.15-3.28-.34-2.9.77Z"/><path class="cls-6" d="M35.42,29.87a15.87,15.87,0,0,0-2.51-1.25,1.88,1.88,0,0,0-2,.55.94.94,0,0,0,.4,1.51,12.46,12.46,0,0,1,1.95.93,1.84,1.84,0,0,0,2.08-.14c.46-.37.78-1.22.13-1.6Z"/><path class="cls-6" d="M35.29,15.58c-.83.26-1.68.48-2.54.68-.36.08-1.41.44-1.29,1s1.32.27,1.61.2c.86-.19,1.7-.41,2.54-.67.36-.11,1.41-.43,1.29-1s-1.32-.28-1.61-.2Z"/><path class="cls-6" d="M26.9,39a20.67,20.67,0,0,0-1.38-2.69c-.13-.19-.6-.24-.78-.24a2.93,2.93,0,0,0-1.14.22c-.45.19-1.11.61-.78,1.15A16.44,16.44,0,0,1,24,39.77c.24.58,1.16.46,1.64.33s1.49-.54,1.26-1.1Z"/><path class="cls-7" d="M15.82,34.51c-1.07-1.39-.48-2.68,1.78-3.89.14-.12.52-.49.22-.68a8.2,8.2,0,0,1-2.39-1.82c-1.38-1.2-1.64-2.46-.78-3.8.13-1.36.72-1.22.63-2.42-.14-1.64-2.61-3.14-2.66-4.46,0-1.81,3.08-2.52,4.1-3,3-1.32,3.26-3.56.37-6-.7-.58-3.35.53-2.71,1.06s1.91,1.72,1.79,2.62c-.22,1.69-1.11,1-2.09,1.43a16,16,0,0,0-2.21.86c-3.16,2-1.7,3.65-.39,6.33,1,2,.65,1.22.11,3.35a6.77,6.77,0,0,0-.39,1.15,5.84,5.84,0,0,0,1.52,3.88c1.73,2.4,1.22,1,.33,3.19-.48,1.19-.83,1.64-.12,2.91.47.85,3.24-.16,2.89-.78Z"/><path class="cls-7" d="M4.72,28.49C2.22,29.6,1.19,32.22.88,34.85c-.43,3.57,3.67,6.79-.07,9.58-.7.52,0,1.1.6,1.08A10.19,10.19,0,0,0,8,42.87a7.12,7.12,0,0,0,2-2.7c.74-2,0-4.05,1-6,.6-1.26-2.29-.94-2.71-.07-1.63,3.4.19,9.55-5.73,9.73l.6,1.08c1.54-1.15,2.79-2.7,2.33-4.68-.33-1.41-1.3-2.59-1.61-4s.32-5.78,2-6.53S6,27.91,4.72,28.49Z"/><path d="M16.88,34.54c-7-.36-13.25-5.71-12.46-13.25A12.79,12.79,0,0,1,17.17,10.08c7.48,0,13.81,6.72,12.14,14.36-1.34,6.13-6.53,9.8-12.6,10.1-.78,0-.34,2.1.55,2.06C35.36,35.68,34.73,7.86,16.79,8-1.52,8-.64,35.71,17.09,36.6,18,36.65,17.68,34.58,16.88,34.54Z"/><path class="cls-8" d="M12.85,36l.07.13c.54,1,1.29.48,1.33-.33l.27.26,0-.15.15.27c.5.29.72,0,.77-.48l.25.14.18.07a3.47,3.47,0,0,1,.49-.29l.33-.37,0,0a.68.68,0,0,0-.23,0c0-.07,0-.15,0-.22.47,0,.59-.57.52-1.11l.22.13c.65.41.83-.28.75-.94.81.32,1-.76.69-1.47h0c.53-.18.59-.86.39-1.39l.27-.12a1.19,1.19,0,0,0-.08-2c.22-.12.42-.25.65-.36.75-.39.16-1.86-.53-2l-.36.15,0,0c-.12.05-.23.12-.35.18Q16.31,27,20,25.19a1.17,1.17,0,0,0-.35-2.06l-.14,0,.17-.1c.6-.35.3-1.56-.27-1.89l.2-.13c.51-.31.37-1.17,0-1.64l.27-.22a1.24,1.24,0,0,0-.46-2c.35-.56.17-1.66-.54-1.8.19-.28.4-.56.57-.85.35-.52,0-1.94-.76-1.83.21-.28.42-.57.66-.86.48-.58,0-1.85-.81-1.81.08-.08.14-.18.22-.26.5-.6-.2-2.31-1.05-1.73-.13.1-.27.18-.4.27-.2-.55-.6-1-1.07-.61L16,7.84c-.23-.64-1.12-1.31-1.4-.38l-.41.71c-.32-.24-.68-.27-.87.29l-.14.29c.05-.71-1.05-2.18-1.46-.94l-.37.79c-.44-.28-1-.08-1,.66-.48-.32-1.11,0-1,.78l-.71.39c-.82-1-1.44.33-1.09,1.14l0,.1-.31-.24L7,11.25c-.82-.85-1.36.92-.79,1.54l.16.18-.69-.22c-1-.78-1.25.92-.79,1.54l.06.09-.52-.17c-1-.46-.91.88-.61,1.56-.86-.39-.9,1.25-.52,1.69l.12.15c-.57,0-.68.93-.44,1.47l-.1,0c-1.14-.44-1,1.56-.25,2,.18.07.35.17.53.26-1,0-.69,2,.22,2.07l.37,0-1.07.29c-.8.25-.54,1.78.18,2l-.23.14c-.65.41-.24,2,.53,2h.09a1.32,1.32,0,0,0,.18,1.48c-.35.64.24,1.77,1,1.71h.06a1.09,1.09,0,0,0,.91.84c-.19.67.23,1.57,1,1.51l.59,0c0,.59.43,1.2,1,1.11l1-.07v0c-.07.56.49,1.81,1.21,1.29l.59-.09c-.13.7.66,1.91,1.35,1.15A8.92,8.92,0,0,0,12.85,36Zm-1.93-3.45a1.05,1.05,0,0,0-.71-1l-.13,0a1,1,0,0,0-.68-.75L9,30.76c.12-.54-.13-1.25-.68-1.32l-.45-.05a1.28,1.28,0,0,0-.24-.48,1.38,1.38,0,0,0-.32-1.12h0c.47-.48.28-1.61-.42-1.75l0,0A1.06,1.06,0,0,0,7,24.7a2.7,2.7,0,0,0,.42-.41A1.19,1.19,0,0,0,7.35,23v0A1.71,1.71,0,0,0,7,21.91a1.23,1.23,0,0,0,0-1.06c.48-.06.5-.79.34-1.25l.38,0c.72.09.67-1.15.34-1.53.42-.06.49-.72.38-1.13a2.09,2.09,0,0,0,.76-.11.73.73,0,0,0,.41-.66c.46.06.58-.74.51-1.11,0-.08,0-.14-.05-.21l.2.09c.39.19.7-.17.74-.56,0-.21.05-.37.06-.52a.51.51,0,0,0,.67-.34.65.65,0,0,0,.15-.17c.29-.47.46-.73.57-.94a.64.64,0,0,0,.61.26l.43-.08a.51.51,0,0,0,.85,0l.42-.47a.5.5,0,0,0,.24,0,1,1,0,0,0,.44.58c0,.45.25.91.69.93h0c-.19.31-.38.64-.56,1s-.13,1.44.42,1.59c-.09.11-.18.23-.28.33a1.23,1.23,0,0,0,.3,1.51,1.2,1.2,0,0,0,.33,1.45l0,0a1.12,1.12,0,0,0-.1,1.33c-.11.09-.24.18-.35.28a1.17,1.17,0,0,0,.18,1.65l-.17.13c-.53.42-.24,1.39.29,1.68a2.14,2.14,0,0,0-.61,1.08A1.2,1.2,0,0,0,16.15,27l.09.05c-.14.12-.3.22-.44.34a1.18,1.18,0,0,0,0,1.5,1.12,1.12,0,0,0-.1.87l-.07,0a.44.44,0,0,0-.62.17.78.78,0,0,0-.16.51c-.46,0-.65.64-.52,1.07l-.11,0c-.5-.16-.69.17-.71.58-.42-.16-.6.12-.64.49-.25-.14-.55-.08-.73.31l-.19.28A1.27,1.27,0,0,0,10.92,32.59Z"/><path class="cls-9" d="M12.85,36l.07.13c.54,1,1.29.48,1.33-.33l.27.26,0-.15.15.27c.5.29.72,0,.77-.48l.25.14.18.07a3.47,3.47,0,0,1,.49-.29l.33-.37,0,0a.68.68,0,0,0-.23,0c0-.07,0-.15,0-.22.47,0,.59-.57.52-1.11l.22.13c.65.41.83-.28.75-.94.81.32,1-.76.69-1.47h0c.53-.18.59-.86.39-1.39l.27-.12a1.19,1.19,0,0,0-.08-2c.22-.12.42-.25.65-.36.75-.39.16-1.86-.53-2l-.36.15,0,0c-.12.05-.23.12-.35.18Q16.31,27,20,25.19a1.17,1.17,0,0,0-.35-2.06l-.14,0,.17-.1c.6-.35.3-1.56-.27-1.89l.2-.13c.51-.31.37-1.17,0-1.64l.27-.22a1.24,1.24,0,0,0-.46-2c.35-.56.17-1.66-.54-1.8.19-.28.4-.56.57-.85.35-.52,0-1.94-.76-1.83.21-.28.42-.57.66-.86.48-.58,0-1.85-.81-1.81.08-.08.14-.18.22-.26.5-.6-.2-2.31-1.05-1.73-.13.1-.27.18-.4.27-.2-.55-.6-1-1.07-.61L16,7.84c-.23-.64-1.12-1.31-1.4-.38l-.41.71c-.32-.24-.68-.27-.87.29l-.14.29c.05-.71-1.05-2.18-1.46-.94l-.37.79c-.44-.28-1-.08-1,.66-.48-.32-1.11,0-1,.78l-.71.39c-.82-1-1.44.33-1.09,1.14l0,.1-.31-.24L7,11.25c-.82-.85-1.36.92-.79,1.54l.16.18-.69-.22c-1-.78-1.25.92-.79,1.54l.06.09-.52-.17c-1-.46-.91.88-.61,1.56-.86-.39-.9,1.25-.52,1.69l.12.15c-.57,0-.68.93-.44,1.47l-.1,0c-1.14-.44-1,1.56-.25,2,.18.07.35.17.53.26-1,0-.69,2,.22,2.07l.37,0-1.07.29c-.8.25-.54,1.78.18,2l-.23.14c-.65.41-.24,2,.53,2h.09a1.32,1.32,0,0,0,.18,1.48c-.35.64.24,1.77,1,1.71h.06a1.09,1.09,0,0,0,.91.84c-.19.67.23,1.57,1,1.51l.59,0c0,.59.43,1.2,1,1.11l1-.07v0c-.07.56.49,1.81,1.21,1.29l.59-.09c-.13.7.66,1.91,1.35,1.15A8.92,8.92,0,0,0,12.85,36Zm-1.93-3.45a1.05,1.05,0,0,0-.71-1l-.13,0a1,1,0,0,0-.68-.75L9,30.76c.12-.54-.13-1.25-.68-1.32l-.45-.05a1.28,1.28,0,0,0-.24-.48,1.38,1.38,0,0,0-.32-1.12h0c.47-.48.28-1.61-.42-1.75l0,0A1.06,1.06,0,0,0,7,24.7a2.7,2.7,0,0,0,.42-.41A1.19,1.19,0,0,0,7.35,23v0A1.71,1.71,0,0,0,7,21.91a1.23,1.23,0,0,0,0-1.06c.48-.06.5-.79.34-1.25l.38,0c.72.09.67-1.15.34-1.53.42-.06.49-.72.38-1.13a2.09,2.09,0,0,0,.76-.11.73.73,0,0,0,.41-.66c.46.06.58-.74.51-1.11,0-.08,0-.14-.05-.21l.2.09c.39.19.7-.17.74-.56,0-.21.05-.37.06-.52a.51.51,0,0,0,.67-.34.65.65,0,0,0,.15-.17c.29-.47.46-.73.57-.94a.64.64,0,0,0,.61.26l.43-.08a.51.51,0,0,0,.85,0l.42-.47a.5.5,0,0,0,.24,0,1,1,0,0,0,.44.58c0,.45.25.91.69.93h0c-.19.31-.38.64-.56,1s-.13,1.44.42,1.59c-.09.11-.18.23-.28.33a1.23,1.23,0,0,0,.3,1.51,1.2,1.2,0,0,0,.33,1.45l0,0a1.12,1.12,0,0,0-.1,1.33c-.11.09-.24.18-.35.28a1.17,1.17,0,0,0,.18,1.65l-.17.13c-.53.42-.24,1.39.29,1.68a2.14,2.14,0,0,0-.61,1.08A1.2,1.2,0,0,0,16.15,27l.09.05c-.14.12-.3.22-.44.34a1.18,1.18,0,0,0,0,1.5,1.12,1.12,0,0,0-.1.87l-.07,0a.44.44,0,0,0-.62.17.78.78,0,0,0-.16.51c-.46,0-.65.64-.52,1.07l-.11,0c-.5-.16-.69.17-.71.58-.42-.16-.6.12-.64.49-.25-.14-.55-.08-.73.31l-.19.28A1.27,1.27,0,0,0,10.92,32.59Z"/><path class="cls-10" d="M17.92,34.6a1.36,1.36,0,0,0,.95-.6c.27-.4,0-1.28-.13-1.67s-.3-1.07-.74-1.15h0a.6.6,0,0,0-.58-.18,2.05,2.05,0,0,0-1.08.75c-.28.37,0,1.31.14,1.67s.31,1.14.73,1.15h.07a1.55,1.55,0,0,0,.48,0A.27.27,0,0,0,17.92,34.6Z"/><path class="cls-10" d="M12.42,37.7a.92.92,0,0,0,.23-.29c.95-.35.75-1.33.47-2L13,35.12a1.26,1.26,0,0,0,.57-2A2.75,2.75,0,0,0,11.66,32h-.13a5,5,0,0,0-.56-.07,1.3,1.3,0,0,0-1.41,1,1.55,1.55,0,0,0,.52,1.4,2,2,0,0,0,.47.57,3,3,0,0,0,.83,2.6C11.63,37.76,12,38,12.42,37.7Z"/><path class="cls-10" d="M5.9,32c.19,0,.28-.18.31-.42.54-.44-.14-2.4-.57-2.69l-.38-.25c-.31-.21-.49-.07-.59.16l-.2,0c-.42.09-.34.95-.3,1.22a2.69,2.69,0,0,0,.72,1.56,1.33,1.33,0,0,0,.84.38v0A1,1,0,0,0,5.9,32Z"/><path class="cls-10" d="M20.46,26.26c.47-.74.07-2.45-.92-2.59a1.68,1.68,0,0,0-1.3.33,1.2,1.2,0,0,0-.28.13c-1,.18-.74,2.36.17,2.82a1,1,0,0,0,.36.17A1.81,1.81,0,0,0,20.46,26.26Z"/><path class="cls-10" d="M4.7,20.82a1.88,1.88,0,0,0-1.28-.67,1.31,1.31,0,0,0-.52,0H2.82a2.26,2.26,0,0,0-.59.23,1.19,1.19,0,0,0-.46,1.19v.09A2,2,0,0,0,4,23.65C5.42,23.52,5.48,21.74,4.7,20.82Z"/><path class="cls-10" d="M5.36,15.78A3.54,3.54,0,0,0,5,13.44a1.7,1.7,0,0,0-.53-.7c-.13-.17-.27-.26-.42-.12l-.16.16v0a.56.56,0,0,0-.19.07c-.32.21-.16.88-.12,1.17a3.39,3.39,0,0,0,.86,2A.56.56,0,0,0,5.36,15.78Z"/><path class="cls-10" d="M10,11.4c1.29-.56.76-2.89-.31-3.42a.61.61,0,0,0-.52,0,.83.83,0,0,0-.78,0,1.63,1.63,0,0,0-.63,1.59C7.91,10.6,8.8,11.94,10,11.4Z"/><path class="cls-10" d="M16.6,12.32c1.17-.08.76-2.75-.44-2.93h0a1.36,1.36,0,0,0-.3-.13,1.15,1.15,0,0,0-1.17.55,2,2,0,0,0-.09,1.94,1.55,1.55,0,0,0,1.13,1A1,1,0,0,0,16.6,12.32Z"/><path class="cls-10" d="M18.57,18.93a2.46,2.46,0,0,0-.23-2.64,1.72,1.72,0,0,0-.83-.59.94.94,0,0,0-.46-.13,2.39,2.39,0,0,0-2.18,1.23c-.57,1.11-.19,3,1.2,3.29A2.38,2.38,0,0,0,18.57,18.93Z"/><path class="cls-10" d="M20.7,14.28a2.16,2.16,0,0,0-.55-2L19.9,12a.74.74,0,0,0-1.28.35,2.14,2.14,0,0,0,.55,2.05l.25.25A.74.74,0,0,0,20.7,14.28Z"/><path class="cls-10" d="M8.85,34.72l0-.4c0-.57-.24-1.93-1-2a1,1,0,0,0-1.09.59,2.15,2.15,0,0,0,.67,2.5.72.72,0,0,0,.5.11l0,0C8.45,35.87,8.86,35.25,8.85,34.72Z"/><path class="cls-3" d="M28.2,11.63a1.29,1.29,0,0,0,.69-.69.59.59,0,0,0,.33-.14c.59-.53.31-2,0-2.62s-1-.66-1.66-.67l-.07,0h-.13a.39.39,0,0,0-.11.06.92.92,0,0,0-.88.33.86.86,0,0,0-.78.37l-.11-.1c-.43-.47-.63.25-.67.61a2.9,2.9,0,0,0,.41,2,4.09,4.09,0,0,0,1.33,1l0,0A1.23,1.23,0,0,0,28.2,11.63Z"/><path class="cls-2" d="M33.87,5.3c.29-.77-1.4-1.61-2-1.69-.94-.13-1.71.72-2.4,1.28-.44.36-.86.74-1.27,1.14l-1,.68a.33.33,0,0,0-.12.45l-.08.07c-.5.57,1.86,2,2.43,1.68.26-.16.5-.33.75-.5a5.8,5.8,0,0,0,1.18-.67A6.06,6.06,0,0,0,33.87,5.3Z"/><path class="cls-3" d="M30.51,7.92l-1.32-1.2a2.62,2.62,0,0,0-1.43-.64l-.12,0c-.21,0-.73,0-.67.35l0,.15h0c-.36-.06-.58.1-.62.34a.3.3,0,0,0-.19.34c-.38.15-.28.94-.67,1.29s.84.92,1.08.5,1,.25,1.65.17l.08,0a3.8,3.8,0,0,0,.54.18c.27.06.76.14.91-.11A.38.38,0,0,0,30,9.09a1.12,1.12,0,0,0,1,.07C31.52,8.84,30.75,8.13,30.51,7.92Z"/><path d="M28.33,12.4c1.13-1,9.06-7.72,6.3-9.42-1.6-1-4.54.56-5.83,1.41a26.2,26.2,0,0,0-6.56,6,2.63,2.63,0,0,0,2-.37,24.54,24.54,0,0,1,4.56-4.49C29.5,5,31,3.64,31.91,3.66c1.26,0,1.28,1.07.94,1.93a4.6,4.6,0,0,1-.93,1.49,57.53,57.53,0,0,1-5.45,5.48c-.41.38,1.49.17,1.86-.16Z"/><path class="cls-3" d="M28.33,31.41a1.41,1.41,0,0,1,.91.37.69.69,0,0,1,.35,0c.75.27,1.07,1.76,1,2.41s-.69,1-1.27,1.27h-.07l-.12.06a.29.29,0,0,1-.13,0,.91.91,0,0,1-.94,0,.81.81,0,0,1-.86,0l-.06.14c-.21.6-.68,0-.85-.3a2.9,2.9,0,0,1-.4-2,4.33,4.33,0,0,1,.84-1.4s0,0,0-.05A1.23,1.23,0,0,1,28.33,31.41Z"/><path class="cls-2" d="M35.75,35c.56.6-.67,2-1.16,2.32-.82.49-1.86,0-2.71-.25-.55-.16-1.09-.35-1.62-.56l-1.15-.25a.35.35,0,0,1-.29-.37s-.58-.87-.59-.84c0,.76,2.15.23,2.36-.4.1-.29.32-1.17.61-1.11s1-.42,1.53-.32A6.25,6.25,0,0,1,35.75,35Z"/><path class="cls-3" d="M31.52,33.52l-.76,1.62a2.53,2.53,0,0,1-1.07,1.13l-.1.07c-.19.11-.67.29-.75-.06a.89.89,0,0,1,0-.14h0c-.31.19-.58.13-.71-.08a.3.3,0,0,1-.31-.24c-.4,0-.62-.76-1.11-.93s.42-1.18.8-.88.84-.62,1.46-.79H29a3.7,3.7,0,0,1,.42-.37c.23-.16.65-.43.89-.26a.43.43,0,0,1,.22.06,1.17,1.17,0,0,1,.9-.45C32.09,32.27,31.65,33.23,31.52,33.52Z"/><path d="M26.8,31.21c2.33.83,5.82,1.79,7.65,3.51,1.64,1.55,0,2.27-1.68,2-.68-.13-1.36-.3-2-.49a24.66,24.66,0,0,1-5.86-2.37c-.53-.31-2.27.53-1.93.73,3.24,1.89,10.24,5.08,13.81,2.2,3.14-2.54-6.77-5.83-8.29-6.37-.5-.18-2.34.6-1.68.84Z"/><path class="cls-3" d="M28.2,11.63a1.29,1.29,0,0,0,.69-.69.59.59,0,0,0,.33-.14c.59-.53.31-2,0-2.62s-1-.66-1.66-.67l-.07,0h-.13a.39.39,0,0,0-.11.06.92.92,0,0,0-.88.33.86.86,0,0,0-.78.37l-.11-.1c-.43-.47-.63.25-.67.61a2.9,2.9,0,0,0,.41,2,4.09,4.09,0,0,0,1.33,1l0,0A1.23,1.23,0,0,0,28.2,11.63Z"/><path class="cls-2" d="M33.87,5.3c.29-.77-1.4-1.61-2-1.69-.94-.13-1.71.72-2.4,1.28-.44.36-.86.74-1.27,1.14l-1,.68a.33.33,0,0,0-.12.45l-.08.07c-.5.57,1.86,2,2.43,1.68.26-.16.5-.33.75-.5a5.8,5.8,0,0,0,1.18-.67A6.06,6.06,0,0,0,33.87,5.3Z"/><path class="cls-3" d="M30.51,7.92l-1.32-1.2a2.62,2.62,0,0,0-1.43-.64l-.12,0c-.21,0-.73,0-.67.35l0,.15h0c-.36-.06-.58.1-.62.34a.3.3,0,0,0-.19.34c-.38.15-.28.94-.67,1.29s.84.92,1.08.5,1,.25,1.65.17l.08,0a3.8,3.8,0,0,0,.54.18c.27.06.76.14.91-.11A.38.38,0,0,0,30,9.09a1.12,1.12,0,0,0,1,.07C31.52,8.84,30.75,8.13,30.51,7.92Z"/><path d="M28.33,12.41c1.14-1,9.08-7.71,6.29-9.44-1.6-1-4.52.54-5.82,1.4a26.25,26.25,0,0,0-6.56,6.05c-.15.2,1.65.14,2-.36A24.6,24.6,0,0,1,29,5.45c.68-.53,2-1.78,2.92-1.76,1.25,0,1.27,1,.93,1.9a4.84,4.84,0,0,1-.93,1.48,61.28,61.28,0,0,1-5.45,5.48c-.44.4,1.48.21,1.86-.14Z"/><path class="cls-3" d="M28.33,31.41a1.41,1.41,0,0,1,.91.37.69.69,0,0,1,.35,0c.75.27,1.07,1.76,1,2.41s-.69,1-1.27,1.27h-.07l-.12.06a.29.29,0,0,1-.13,0,.91.91,0,0,1-.94,0,.81.81,0,0,1-.86,0l-.06.14c-.21.6-.68,0-.85-.3a2.9,2.9,0,0,1-.4-2,4.33,4.33,0,0,1,.84-1.4s0,0,0-.05A1.23,1.23,0,0,1,28.33,31.41Z"/><path class="cls-2" d="M35.75,35c.56.6-.67,2-1.16,2.32-.82.49-1.86,0-2.71-.25-.55-.16-1.09-.35-1.62-.56l-1.15-.25a.35.35,0,0,1-.29-.37s-.58-.87-.59-.84c0,.76,2.15.23,2.36-.4.1-.29.32-1.17.61-1.11s1-.42,1.53-.32A6.25,6.25,0,0,1,35.75,35Z"/><path class="cls-3" d="M31.52,33.52l-.76,1.62a2.53,2.53,0,0,1-1.07,1.13l-.1.07c-.19.11-.67.29-.75-.06a.89.89,0,0,1,0-.14h0c-.31.19-.58.13-.71-.08a.3.3,0,0,1-.31-.24c-.4,0-.62-.76-1.11-.93s.42-1.18.8-.88.84-.62,1.46-.79H29a3.7,3.7,0,0,1,.42-.37c.23-.16.65-.43.89-.26a.43.43,0,0,1,.22.06,1.17,1.17,0,0,1,.9-.45C32.09,32.27,31.65,33.23,31.52,33.52Z"/><path d="M27.05,31.5c2.32.83,5.46,1.72,7.34,3.32,1.44,1.21-.1,1.67-1.51,1.61a12.29,12.29,0,0,1-2.74-.65,24,24,0,0,1-5.43-2.21c-.81-.47-2.59.62-1.57,1.21,2.71,1.59,11.36,5.71,14,2,2.24-3.18-7.12-6-8.91-6.67-.92-.33-2.41,1-1.18,1.42Z"/></g></svg>