<svg xmlns="http://www.w3.org/2000/svg" viewBox="0 0 28.18 42.7"><defs><style>.cls-1{fill:#943028;}.cls-2{fill:#4e1614;}.cls-3{fill:#fbb03b;}.cls-4{fill:#fff;}.cls-5{fill:#010101;}.cls-6{fill:#676767;}.cls-7{fill:#333;stroke:#e6e6e5;stroke-miterlimit:10;stroke-width:0.16px;}.cls-8{fill:#f15b27;}.cls-9{fill:#1072ba;}.cls-10{fill:#fcb556;}.cls-11{fill:#eb9636;}.cls-12{fill:#ec9735;}</style></defs><title>devi-u-popa</title><g id="Layer_2" data-name="Layer 2"><g id="Layer_4" data-name="Layer 4"><g id="Слой_1" data-name="Слой 1"><path class="cls-1" d="M13.6,38.84s1.72,3.42,2.63,3.32A23.08,23.08,0,0,0,21,40.25c.09-.19,2.61.94,2.61.94a2.69,2.69,0,0,0-2.14-3.37c-2.84-.64-3.68.67-4.18.1s-.82-.57-.82-.57Z"/><path class="cls-2" d="M13,39.4a10.71,10.71,0,0,0,1.84,2.85c.8.78,1.56.38,2.52,0a21.15,21.15,0,0,0,3.45-1.52c.74-.42-.29-.18,0,.14.11.12.54.18.72.25.52.2,1,.42,1.54.65.36.16,1.1-.68,1.17-1,.8-3.42-3-4.08-5.53-3.5-.85.2-.67-.21-1.4-.46a.84.84,0,0,0-.66,0,14.32,14.32,0,0,0-2.71,1.42c-.33.17-1.31,1.47-.6,1.1l2.28-1.2c.57-.3.35-.33.73,0s.41.49.88.49a4.76,4.76,0,0,0,1.11-.28,5.71,5.71,0,0,1,2.6.06,2.59,2.59,0,0,1,2,3.16l1.17-1c-.73-.32-1.86-1.05-2.66-1-.21,0-1,.51-.49.26-.58.29-1.17.56-1.77.8-1.16.48-2.37,1.32-3.33.24a12.2,12.2,0,0,1-1.67-2.65C14.08,38,12.76,39,13,39.4Z"/><path class="cls-1" d="M17.7,30.94a2.54,2.54,0,0,0-1.11-1l-.26-.1c-.6-.64-1.86-1.15-2.36-.07h0c-.46.15-.51.8-.11,1.2,0,.07-.37.29-.4.36s-.36,0-.33.11a1.58,1.58,0,0,0-.09.31l-.21.07-.71.24c-.09.05-.2-.16-.28-.1s-.29-.19-.49-.19-.05-.1-.31-.13a2.4,2.4,0,0,1-.21-.31l0,.22a1.93,1.93,0,0,1,0,.27c0-.3-.33-.45-.65-.33a1.8,1.8,0,0,0-.75.45,2.94,2.94,0,0,0-.7.75,1.53,1.53,0,0,0-.65.41c-.78.34-1.34,1.57-.73,2.19a4.21,4.21,0,0,0-.49.88l-.14.08c-.31.09-1.13.69-.74,1.1,1.63,1.74,5.42,2,7.54,1.23,2.59-.91,3.84-3.15,4.43-5.69a.31.31,0,0,0-.06-.32A2,2,0,0,0,17.7,30.94Z"/><path class="cls-3" d="M3.51,30.11c0-.16-.14-.28-.4-.21a.94.94,0,0,0-.64.07,2.09,2.09,0,0,0-.36.19,3.34,3.34,0,0,0-1,.86,1,1,0,0,0-.15.24,1.41,1.41,0,0,0,0,1.49h0l.12.22h0a.6.6,0,0,0,.45.35.61.61,0,0,0,.18,0,.45.45,0,0,0,0,.11,5.85,5.85,0,0,0,.86,1.64c.16.31,1.55-.55,1.35-1a9.37,9.37,0,0,1-.4-.85,1,1,0,0,0-.19-.37v0h0a.38.38,0,0,0,0-.21l-.14-.36a.16.16,0,0,0-.08-.06A1.85,1.85,0,0,0,3,31l0,0a.65.65,0,0,0,.11-.12l.07,0,.08-.15.06-.09,0-.06,0-.07,0-.12h0s0,0,0,0l0,0A.21.21,0,0,0,3.51,30.11Z"/><path class="cls-3" d="M18.51,25.91a.37.37,0,0,0-.3-.29,2.79,2.79,0,0,0-.18-.34l-.14-.11a.74.74,0,0,0-.38-.48.63.63,0,0,0-.45,0,.37.37,0,0,0-.14-.07.76.76,0,0,0-.61,0l-.06,0a1.21,1.21,0,0,0-.38-.06h-.32a1.09,1.09,0,0,0-.31.08,1.24,1.24,0,0,0-.74.66c-.09.22,0,.55.26.57a3.62,3.62,0,0,0,.57,0l.07,0,0,0c0,.24.16.44.55.51a.79.79,0,0,0,.26.08,2.16,2.16,0,0,0,.61.93,6,6,0,0,0,.32.93l.11.15c0,.23,0,.47.08.7.08.81,1.37-.18,1.46-.59a3.57,3.57,0,0,0,0-1.13.26.26,0,0,0-.13-.26A3.32,3.32,0,0,0,18.51,25.91Z"/><path class="cls-4" d="M16.09,27.19a4.81,4.81,0,0,0-.57-.44,2.08,2.08,0,0,0-.24-.34,2.38,2.38,0,0,0-1.43-.81.35.35,0,0,0-.21-.41,4.13,4.13,0,0,0-3-.43,2,2,0,0,0-1.18.15,3.28,3.28,0,0,0-1.9.85,3.08,3.08,0,0,0-1.69,1.1,2.47,2.47,0,0,0-.67.9l0,0a2.22,2.22,0,0,0-1,1.65c-.33.63-.47,1.21-.18,1.53A3.68,3.68,0,0,0,4,32.2a2.89,2.89,0,0,0,.21,1.74,1.36,1.36,0,0,0,.51,1,4,4,0,0,0,.45.95,2.13,2.13,0,0,0,.4.62c.19.21.54.09.75,0a1.54,1.54,0,0,0,.31-.21,1.37,1.37,0,0,0,1.1-.8c-.3-.15-.29-.66-.13-1a.93.93,0,0,1,.16-.72.94.94,0,0,1,.44-.44,1.43,1.43,0,0,1,.64-.75,1.69,1.69,0,0,1,.79-.68.68.68,0,0,1,.57-.3h.2a.19.19,0,0,1,.15.09,2.73,2.73,0,0,0,.27-.54,3.26,3.26,0,0,0,.33.31,1.6,1.6,0,0,0,1.89.3,2.09,2.09,0,0,0,.87-.29.29.29,0,0,1-.14-.39.32.32,0,0,1,.11-.12.36.36,0,0,1,0-.14.81.81,0,0,1-.35-.7.35.35,0,0,1,.24-.35.55.55,0,0,1,.47,0,.53.53,0,0,1,.74,0h0a.48.48,0,0,1,.29,0,.64.64,0,0,1,.33.19.57.57,0,0,1,.65.22.41.41,0,0,1,.07.11.5.5,0,0,1,.32.23.38.38,0,0,1,.21,0c.35-.18.63-.54.57-.84A3.82,3.82,0,0,0,16.09,27.19Z"/><path class="cls-2" d="M18.33,30.66c-1.62-2.18-3.69-2.27-5.87-.89-.25.13.78,1.15,1.2,1.09-.8.73-2.27,1.26-3-.19a.47.47,0,0,0-.65.08l0,0c-1,1.29-5.2,2.78-2.7,4.91L7.58,35c-1.35.34-2.82,1.12-2,2.69.19.38,1-.16.75-.57l1.22-1.37c.29-.07.63-.47.34-.72-1.15-1,2.12-3.13,2.67-3.86l-.68.1c1.1,1,4,1.68,4.44-.29a1.17,1.17,0,0,0-1-1.18c0,.22,3-.17,4.21,1.47C17.85,31.59,18.6,31,18.33,30.66Z"/><path class="cls-5" d="M17.28,29.59c1.48,4.34-1,9.44-6.19,9.35a7.31,7.31,0,0,1-6.63-4.62A6.7,6.7,0,0,1,11,25a7.47,7.47,0,0,1,6.3,4.61c.09.18,1-.46.87-.8C14,19.66-.11,26,3.55,35.07c3.8,9.46,17.76,3,14.64-6.18C18.09,28.6,17.18,29.3,17.28,29.59Z"/><ellipse class="cls-5" cx="12" cy="27.02" rx="0.83" ry="1.09" transform="translate(-9.13 6.34) rotate(-21.66)"/><ellipse class="cls-5" cx="6.88" cy="29.06" rx="0.83" ry="1.09" transform="translate(-10.24 4.59) rotate(-21.66)"/><path class="cls-2" d="M13.27,35.46A3.45,3.45,0,0,0,15,31.93c-.06-.29-1,.37-.9.68a2.15,2.15,0,0,1-.62,2.12c-.19.1-.53.36-.54.6s.2.18.35.07Z"/><path class="cls-2" d="M11.33,36c-.3.4-1.11.16-1.44,0s-1.09.66-.87.8a2.33,2.33,0,0,0,3-.86c.11-.14.17-.36-.06-.37S11.46,35.85,11.33,36Z"/><path class="cls-2" d="M12.73,34.79a1.66,1.66,0,0,0-1.27-1.22c-.33-.08-1.05.79-.76.86a1.46,1.46,0,0,1,1.09,1c.08.31,1-.37.9-.67Z"/><path class="cls-2" d="M12.1,36.78a1.7,1.7,0,0,0,1.43.9.93.93,0,0,0,.64-.39c.06,0,.36-.46.14-.47A1.56,1.56,0,0,1,13,36c-.1-.19-1,.49-.87.8Z"/><path class="cls-5" d="M18.9,30.81c.19-1.7,1.42-5-.28-6.26A3.79,3.79,0,0,0,14,25c-.58.45,0,1.05.57.62,1.07-.83,3.12-1,3.65.51s-.21,3.37-.38,4.85C17.8,31.67,18.83,31.35,18.9,30.81Z"/><path class="cls-5" d="M5,35.77c-1.13-1-2.69-1.53-3.63-2.71-1.43-1.76.7-2.81,2.19-3,.36,0,1-1,.55-.91-1.67.22-3.3.83-4,2.49-1,2.5,2.45,3.67,4,4.92.33.27,1.16-.56.87-.8Z"/></g><g id="Слой_1-2" data-name="Слой 1"><path class="cls-6" d="M6.51,16.1H7a.9.9,0,0,1,1,.84l0,1.49a.85.85,0,0,1-.85.85l-.52,0Z"/><ellipse class="cls-7" cx="7.29" cy="17.66" rx="0.39" ry="0.41" transform="translate(-11.33 21.92) rotate(-80.45)"/><path class="cls-8" d="M12,16.21l-.71.1a1.3,1.3,0,0,0-1,.61.35.35,0,0,0,.37.53l.49-.07a.85.85,0,0,0,.52-.08l.08,0a1.12,1.12,0,0,0,.67-.66.34.34,0,0,0-.27-.4A.5.5,0,0,0,12,16.21Z"/><path class="cls-9" d="M9.75,16a.85.85,0,0,0-.94.06c-.24.16-.61.56-.38.87a.81.81,0,0,0,.86.26,1,1,0,0,0,.83-.75A.39.39,0,0,0,9.75,16Z"/><path class="cls-8" d="M10.16,15.51a.77.77,0,0,0-.46.26.34.34,0,0,0-.2,0c-.39.18-.45,1-.37,1.33s.48.49.79.58h.18a.53.53,0,0,0,.52,0,.47.47,0,0,0,.47-.08l0,.07c.17.3.38-.05.45-.22a1.5,1.5,0,0,0,.06-1.12,2.28,2.28,0,0,0-.58-.66h0A.72.72,0,0,0,10.16,15.51Z"/><path class="cls-4" d="M6.24,18c-.27.35.52,1,.8,1.14.49.2,1-.13,1.47-.32a8.36,8.36,0,0,0,.85-.42l.6-.21a.18.18,0,0,0,.12-.22l.05,0c.38-.18-.68-1.26-1-1.17l-.47.15a3.12,3.12,0,0,0-.73.18A3.2,3.2,0,0,0,6.24,18Z"/><path class="cls-8" d="M8.4,17.08l.54.8a1.4,1.4,0,0,0,.67.53h.07c.11,0,.39.1.4-.09l0-.07h0c.18.08.32,0,.38-.09a.17.17,0,0,0,.15-.15c.22,0,.28-.44.54-.56s-.32-.62-.5-.41-.52-.27-.87-.31h0a1.91,1.91,0,0,0-.27-.16c-.13-.08-.39-.19-.5-.09a.22.22,0,0,0-.12.05.69.69,0,0,0-.53-.18C8,16.47,8.31,16.94,8.4,17.08Z"/><path class="cls-5" d="M10.55,14.65c-1.11.54-2.21,1.15-3.26,1.78-.79.46-2,1.28-1.81,2.38.52,2.83,6.43-.68,7.41-1.41.42-.31,0-1.35-.52-.95A13.3,13.3,0,0,1,9.28,18.1a6.65,6.65,0,0,1-1.94.57c-.79,0-1.1-.18-.35-.76a22,22,0,0,1,3.88-2.17c.48-.23.23-1.34-.32-1.08Z"/><path class="cls-8" d="M13.05,5a.71.71,0,0,1-.34-.4.66.66,0,0,1-.17-.12c-.29-.33,0-1.09.15-1.38s.62-.28,1-.25h.18a.56.56,0,0,1,.46.23.51.51,0,0,1,.41.25l.06,0c.27-.22.34.18.33.37a1.46,1.46,0,0,1-.34,1,2.3,2.3,0,0,1-.8.43h0A.71.71,0,0,1,13.05,5Z"/><path class="cls-4" d="M10.41,1.45C10.3,1,11.26.7,11.59.69c.54,0,.91.5,1.25.83s.43.45.64.68l.49.42a.18.18,0,0,1,0,.24h0s.05.57.06.54c.22-.35-1-.68-1.25-.45s-.47.46-.59.36-.61-.11-.83-.26A3.34,3.34,0,0,1,10.41,1.45Z"/><path class="cls-8" d="M12.07,3.24l.81-.54a1.41,1.41,0,0,1,.82-.24h.08c.12,0,.4.07.35.23v.08h0c.2,0,.32.09.32.22a.16.16,0,0,1,.09.2c.2.1.09.5.29.72s-.52.42-.63.19-.57.06-.92,0h0l-.31,0c-.16,0-.43,0-.5-.11a.25.25,0,0,1-.12-.11.73.73,0,0,1-.56,0C11.46,3.65,12,3.34,12.07,3.24Z"/><path class="cls-5" d="M13.27,5c-.48-.5-.88-1-1.31-1.55s-1.33-1.35-1.18-1.95c.24-1,2.15.58,2.6,1A11.14,11.14,0,0,1,15.76,5c.18.28.25-.77.1-1-.54-.83-5.37-5.88-5.77-3.31C9.8,2.7,12,4.71,13.18,6c.25.27.29-.81.11-1Z"/><path class="cls-10" d="M20.56,10.45s3.82-.37,4.21.46a21.89,21.89,0,0,1,.92,5c-.11.17,2.19,1.69,2.19,1.69a2.69,2.69,0,0,1-4,0c-2.06-2.06-1.41-3.47-2.15-3.58s-.92-.4-.92-.4Z"/><path class="cls-11" d="M20.64,11.28a12.37,12.37,0,0,1,3.1,0c1,.16,1,.52,1.19,1.4.16.69.28,1.39.38,2.1,0,.28.07.57.1.84-.05-.61,0,.05,0,.12a2.13,2.13,0,0,0,.24,1,7.37,7.37,0,0,0,2.25,1.71l-.16-1.6a2.59,2.59,0,0,1-3,.62,5,5,0,0,1-2.1-2.56,6.94,6.94,0,0,0-.4-1.19,1.1,1.1,0,0,0-.48-.45c-.37-.23-1.11-.54-.63.34a1.8,1.8,0,0,1,0-.52c-.05-.87-.14-1.75-.2-2.62s-.65-.93-.58.05a31.57,31.57,0,0,0,.26,3.15,1.52,1.52,0,0,0,.32.87,2.11,2.11,0,0,0,.52.26c.75.4.37.06.72.69.85,1.41,1.21,3.17,3,3.8A2.89,2.89,0,0,0,28,18.4a1.46,1.46,0,0,0-.16-1.6c-.43-.29-.85-.57-1.26-.88-.85-.62-.45-.73-.65.5a2.7,2.7,0,0,0,0-.49,24.63,24.63,0,0,0-.64-4.1C25.13,10.85,25,10,24,9.66a10.15,10.15,0,0,0-3.52,0C20.08,9.66,20.23,11.32,20.64,11.28Z"/><path class="cls-10" d="M17.59,4.66a2.58,2.58,0,0,0-1.43.43L16,5.27c-.86.18-1.94,1-1.26,2h0c-.08.48.42.84,1,.7.05.07.07.47.11.53s-.17.31-.06.34a2.73,2.73,0,0,0,.23.25,1.55,1.55,0,0,0,0,.21l-.15.73c0,.1-.24.09-.23.2s-.31.15-.41.32-.12,0-.27.2c0,0-.36,0-.38,0l.18.13.22.16c-.27-.14-.54.06-.63.39a1.64,1.64,0,0,0,0,.88,2.59,2.59,0,0,0,.29,1,1.31,1.31,0,0,0,0,.76c-.11.85.67,2,1.51,1.74a3.55,3.55,0,0,0,.51.86v.16c-.05.32,0,1.33.57,1.23,2.34-.52,4.45-3.69,4.89-5.89.55-2.7-.76-4.91-2.64-6.71a.29.29,0,0,0-.31-.11A2,2,0,0,0,17.59,4.66Z"/><path class="cls-4" d="M13.54,4.12a4.17,4.17,0,0,0-.65.29,1.9,1.9,0,0,0-.41,0,2.35,2.35,0,0,0-1.42.82.37.37,0,0,0-.47,0A4.18,4.18,0,0,0,8.7,7.58a2.17,2.17,0,0,0-.47,1.1A3.28,3.28,0,0,0,8,10.77a3.08,3.08,0,0,0,.08,2,2.41,2.41,0,0,0,.43,1v0A2.19,2.19,0,0,0,9.4,15.6c.39.58.79,1,1.22.94a3.72,3.72,0,0,0,1.08.61,2.84,2.84,0,0,0,1.58.67,1.31,1.31,0,0,0,1.11.08,3.62,3.62,0,0,0,1,.07,2.24,2.24,0,0,0,.73,0c.28-.06.35-.41.37-.65a1.14,1.14,0,0,0,0-.37,1.4,1.4,0,0,0-.12-1.37c-.29.19-.72-.08-.95-.4a.93.93,0,0,1-.53-.5.89.89,0,0,1-.15-.59,1.43,1.43,0,0,1-.33-.93,1.64,1.64,0,0,1-.18-1,.74.74,0,0,1,0-.65l.1-.17a.21.21,0,0,1,.15-.09,3.84,3.84,0,0,0-.32-.5,3.38,3.38,0,0,0,.42-.13c.9-.37,1.25-.92,1.24-1.49A2.25,2.25,0,0,0,16,8.21a.28.28,0,0,1-.4-.08.27.27,0,0,1,0-.15l-.12-.09a.76.76,0,0,1-.73-.08.33.33,0,0,1-.18-.38A.6.6,0,0,1,14.81,7a.52.52,0,0,1,.34-.65h0a.43.43,0,0,1,.1-.27.59.59,0,0,1,.33-.19.53.53,0,0,1,.53-.45l.13,0a.39.39,0,0,1,.35-.16.32.32,0,0,1,.1-.18c0-.39-.14-.81-.43-.91A3.62,3.62,0,0,0,13.54,4.12Z"/><path class="cls-12" d="M17.67,4C15,4.27,13.83,6,13.92,8.58c0,.28,1.38-.09,1.54-.49.22,1.06-.07,2.6-1.7,2.54a.48.48,0,0,0-.27.61v0c.63,1.51-.25,5.9,2.85,4.83l-.45-.64c-.4,1.34-.47,3,1.28,3.1.43,0,.36-.92-.1-.94l-.55-1.75c.08-.29-.09-.78-.46-.64-1.44.5-1.62-3.43-2-4.28l-.26.63c1.45-.41,3.45-2.57,2-4a1.16,1.16,0,0,0-1.5.21c.19.09,1.37-2.66,3.4-2.88.45,0,.35-1-.1-.94Z"/><path class="cls-5" d="M16.09,4.34c3.82.8,6.76,4.29,5.7,8.35a7.07,7.07,0,0,1-7.93,5.06A6.73,6.73,0,0,1,8.44,8.82,7.19,7.19,0,0,1,16.2,4.36c.48,0,.41-1.12-.12-1.18C6.05,2.13,3.93,17.46,13.86,19S25.9,5.2,16.19,3.19C15.63,3.08,15.62,4.25,16.09,4.34Z"/><ellipse class="cls-5" cx="11.32" cy="7.58" rx="0.83" ry="1.09" transform="translate(2.07 17.59) rotate(-81.09)"/><ellipse class="cls-5" cx="10.46" cy="13.03" rx="0.83" ry="1.09" transform="translate(-4.03 21.35) rotate(-81.09)"/><path class="cls-11" d="M19.2,11.84a3.73,3.73,0,0,0-1-3.93c-.17-.15-.22.37-.22.43a.94.94,0,0,0,.22.72,1.78,1.78,0,0,1,.64,2,1.14,1.14,0,0,0,.08.83c.12.18.23.2.31,0Z"/><path class="cls-11" d="M18.68,12.71c.21.54-.29,1-.74,1.25-.28.15-.09,1.29.23,1.12a2.34,2.34,0,0,0,.85-3c-.06-.17-.17-.37-.33-.19A.91.91,0,0,0,18.68,12.71Z"/><path class="cls-11" d="M18.44,10.9a1.66,1.66,0,0,0-1.68.44.88.88,0,0,0-.09.74c0,.08.15.55.31.38a1.48,1.48,0,0,1,1.45-.41c.33.09.3-1.08,0-1.13Z"/></g></g></g></svg>