<svg xmlns="http://www.w3.org/2000/svg" viewBox="0 0 30.14 51.72"><defs><style>.cls-1{fill:#f50c15;}.cls-2{fill:#fff;}.cls-3{fill:#c49c74;}.cls-4{fill:#fbb03b;}.cls-5{fill:#c1272d;}.cls-6{fill:#700b12;}.cls-7{fill:#9d3d07;}.cls-8{fill:#ea4e00;}.cls-9{fill:#a83c0b;}.cls-10{fill:#601b08;}</style></defs><title>personaji_3</title><g id="Слой_1" data-name="Слой 1"><path class="cls-1" d="M13.64,6.91l-.09-.19h0a.69.69,0,0,0-.25-.31l-.09-.06h0a1.54,1.54,0,0,0-1.14-.16c-.47.08-1.42.45-1.42,1.06v.29c0,1.26,2.13.91,2.65.22l0,0C13.6,7.49,13.79,7.21,13.64,6.91Z"/><path class="cls-2" d="M24.91,30c0-.45-.07-.39-.6-1-.39-.46-2.48.15-2.8.68-.4.2-.66.44-.55.59l.22.35a1.28,1.28,0,0,0-.82.62,2.54,2.54,0,0,0,.12,2.28A1,1,0,0,0,20,34a4.8,4.8,0,0,0,.9,4.75,23.64,23.64,0,0,0,.55,3.89.33.33,0,0,0,.22.24,3.51,3.51,0,0,0-.27.4,8.86,8.86,0,0,0-2.55,3.3,10.44,10.44,0,0,0-3.64.4,3.73,3.73,0,0,0-.95-.21,3.78,3.78,0,0,0-.67,0,3.26,3.26,0,0,0-2.35.5,3.15,3.15,0,0,0-.38.3,12.48,12.48,0,0,1-1.39-1l-.19-.23a2.84,2.84,0,0,0,4-.87c1.08-1.43.52-3.61-.71-4.95a2.78,2.78,0,0,0-.73-1.54C11.7,37.33,11,36,9.7,35.64l-.27,0a2.7,2.7,0,0,0-.74-1.53,10.89,10.89,0,0,0-.29-1.3c-.21-.73-1.84-.13-2.56.35,0-.16,0-.31.07-.47A18.94,18.94,0,0,1,8,28.82c.41-.61-2.27-.07-2.56.15a6.41,6.41,0,0,0-2.33,4,13.26,13.26,0,0,0-.83,7.17,9.36,9.36,0,0,0,2.86,5.54.2.2,0,0,0,0,.17,5.06,5.06,0,0,0,2,2.1,1,1,0,0,0,.32.09,11.69,11.69,0,0,0,2.49,1.44c1.22,1,2.26,1,3.85,1l.14,0c.18.27.54.26.83.25h.08A3.89,3.89,0,0,0,17.69,50a2.52,2.52,0,0,0,.4-.21c1.41-.14,3.08-.59,3.74-1.81a6.42,6.42,0,0,0,2.42-2.32,3.15,3.15,0,0,0,.38-.35,2.59,2.59,0,0,0,.78-1.05,4,4,0,0,0,.44-1.84,16.24,16.24,0,0,0,1.45-4.66C27.81,34.71,26.38,32.53,24.91,30Z"/><path class="cls-3" d="M27.44,17.46l.06-1.16a.51.51,0,0,0,.09-.26v-.41c0-.89,0-1.78,0-2.67a.42.42,0,0,0,0-.16A29,29,0,0,0,27,6.38a4.17,4.17,0,0,0,.51-1.88c.58-1.32.51-2.77-1-3.4a2.07,2.07,0,0,0-1.47,0,2.38,2.38,0,0,0-.81.23c-.13-.21-.47-.36-1.09-.3l-8.09.7H15c0-.29-.21-.52-.81-.52a25.62,25.62,0,0,0-6,.38,1.89,1.89,0,0,0-.38-.06,9.55,9.55,0,0,0-1.69,0,3.61,3.61,0,0,0-1.87-.15,2.75,2.75,0,0,0-2.08.59.73.73,0,0,0-.33.71c0,.1,0,.17.06.24l0,.13a.43.43,0,0,0,.11.4l.27.28s0,0,0,0c.06.3.11.61.16.91A36.13,36.13,0,0,0,2.59,11a.56.56,0,0,0-.13.22,18.42,18.42,0,0,0-.7,5.11.55.55,0,0,0,.16.41c-.37.29-.49.61,0,.87l.21.11A.53.53,0,0,0,2,18a19.06,19.06,0,0,0-.37,4.79c0,.24,0,.49,0,.73,0,.09.08.15.19.18a2.17,2.17,0,0,0,.12.36c0,.28,0,.56,0,.84h0a.14.14,0,0,0,0,.14v.16c0,.13.13.19.34.2-.32.19-.5.36-.29.45-.11.2-.05.31.4.32H4a4.05,4.05,0,0,0,1.51-.27,3,3,0,0,0,1.2-.54c.41-.33.37-.6.52-1.11a5.59,5.59,0,0,1,.26-.72,1.77,1.77,0,0,0,.84-1.19l.09-.18.34-.35c.34-.29,0-.39-.27-.42A.78.78,0,0,0,8.17,21a3.5,3.5,0,0,0-.59-.9,2,2,0,0,0-1.49-1.48l-.33,0-.2,0c0-.32-.07-.63-.13-1,.37-.23.61-.49.51-.72s-.09-.29-.33-.41l-.1,0a.56.56,0,0,0-.14-.26A4.72,4.72,0,0,1,5,14.93a6.31,6.31,0,0,0,.15-.73,6.36,6.36,0,0,0,.36-2.48s0,0,0,0a4.16,4.16,0,0,0,1-2.4,15.58,15.58,0,0,1,.87-1.54A12.28,12.28,0,0,0,8.78,6c1.31-.48,2.57-1,3.84-1.6A2.62,2.62,0,0,0,13,4.16a40.24,40.24,0,0,0,4.56.48,1.91,1.91,0,0,0,.36,0l.25.12a7,7,0,0,0,2.11,1c.35.41.71.8,1.08,1.19a3.85,3.85,0,0,0,1.11,2,1.39,1.39,0,0,0,1.25.27,16.21,16.21,0,0,0,.3,2.32.58.58,0,0,0,.19.32c0,.32.07.63.12,1,0,.05,0,.09,0,.13,0,.74.07,1.49.15,2.26a.43.43,0,0,0,.13.28v.12c-.54,2.84-2.3,4.41-4.15,6.56-.35.41.12.74.47.84,0,.6.07,1.2.11,1.79a.59.59,0,0,0,.24.51,2.28,2.28,0,0,0,.49.95c.43.53,1.64.25,2.16-.07.52.79,2.36.31,2.74-.41h0C28.88,24.13,27.33,19.56,27.44,17.46Z"/><path class="cls-4" d="M23.92,12.85a8.24,8.24,0,0,0-5.09-7.42,1.23,1.23,0,0,0-.51-.61A2.53,2.53,0,0,0,17,4.71a1.3,1.3,0,0,0-.87-.18,1.79,1.79,0,0,0-.7,0h0l-.18-.08a4.56,4.56,0,0,0-2.76,0,2.67,2.67,0,0,0-.87.48,1.5,1.5,0,0,0-.63.59A9.77,9.77,0,0,0,7.89,7.87c-.13.12-.14.22-.09.29a8.86,8.86,0,0,0-.75,1.13,4.21,4.21,0,0,0-.76,1.85,8.72,8.72,0,0,0,0,5.44,0,0,0,0,0,0,0,9,9,0,0,0,.92,2.52c1.19,2.16,1.83,2.34,3.13,2.25a1.37,1.37,0,0,0,.52.07,15.26,15.26,0,0,0,1.89-.24,2.34,2.34,0,0,0,.52-.2,8.87,8.87,0,0,0,1.12,0A3.71,3.71,0,0,0,16,20.9h0a1.51,1.51,0,0,0,.44.22l.05,0a4,4,0,0,0,1.41.34c0,.67,2.39-.09,2.61-.24C22.92,19.61,24.16,15.61,23.92,12.85Z"/><path d="M27.64,25.78H5.35c-1.09,0-2.21.1-3.29,0-.53-.05.61,1.32.65.53,0-.62,0-1.25,0-1.87V11.77c0-3.53.13-7.08,0-10.6,0,.76-1.44.12.55.53,1.74.36,4,0,5.73,0H22.64a20.23,20.23,0,0,0,4.4,0c1-.24-.09,0-.25-.8a3.18,3.18,0,0,1,0,1.11c-.52,1.61,0,4.3,0,6V26.63a.85.85,0,0,0,1.7,0V.85A.86.86,0,0,0,27.64,0H1.86A.86.86,0,0,0,1,.85V26.63a.86.86,0,0,0,.85.85H27.64A.85.85,0,0,0,27.64,25.78Z"/><path class="cls-5" d="M14.28,8.74l0,.1c-.2,1,2.27.51,2.47-.49V8.26C16.94,7.26,14.48,7.74,14.28,8.74Z"/><path class="cls-5" d="M20.14,8.13c-.31-1.27-3.06-.52-2.78.81a1.29,1.29,0,0,0,.42.71,1.62,1.62,0,0,0,1.51.08,1.41,1.41,0,0,0,1-1v0A.68.68,0,0,0,20.14,8.13Z"/><path class="cls-5" d="M22.72,12.47a1.27,1.27,0,0,1-.06-.39c0-.25-.41-.42-.58-.47a2.23,2.23,0,0,0-1.09,0c-.59.16-1.26.53-1.23,1.2a1.34,1.34,0,0,0,.06.4c.19.63,1.19.56,1.67.43S22.91,13.11,22.72,12.47Z"/><path class="cls-5" d="M24.27,16.51a3.09,3.09,0,0,1-.14-.43c-.29-1.13-3.19-.36-2.9.78,0,.14.09.29.14.43.22.63,1.15.57,1.67.43S24.48,17.14,24.27,16.51Z"/><path class="cls-5" d="M19.67,16.67l-.1-.22a.34.34,0,0,0-.19-.16s-.07-.1-.11-.14-.61-.07-.73-.06a4.42,4.42,0,0,0-1.13.26c-.22.07-1.21.42-.88.76a2.8,2.8,0,0,1,.25.35l.33.75c.26.58,3-.21,2.9-.78A2.49,2.49,0,0,0,19.67,16.67Z"/><path class="cls-5" d="M13.58,7.24a.88.88,0,0,0-.16-.57,1,1,0,0,0-1.14-.36c-.44.07-1.18.23-1.37.7a.62.62,0,0,0,.33.73h0a.23.23,0,0,0,.07.07.81.81,0,0,0,.37.36,1.94,1.94,0,0,0,1.86-.59A.49.49,0,0,0,13.58,7.24Z"/><path class="cls-5" d="M12.31,11.11c.61-.23,1.06-.77.73-1.43a1.24,1.24,0,0,0-1.45-.48,1.39,1.39,0,0,0-1.09.69.53.53,0,0,0-.11.31,1.15,1.15,0,0,0,.63,1,1.52,1.52,0,0,0,1.18-.07l.07,0Z"/><path class="cls-5" d="M8.36,8.79l0-.06a.67.67,0,0,0-.41-.27A1.61,1.61,0,0,0,6.32,9a1.11,1.11,0,0,0-.2.64.8.8,0,0,0,0,.72.36.36,0,0,0,0,.45c.27.35,1.06.23,1.37.06a1.24,1.24,0,0,0,.78-.94.19.19,0,0,0,0-.08,1,1,0,0,0,.13-.27A1,1,0,0,0,8.36,8.79Z"/><path class="cls-5" d="M10.63,14.14a.61.61,0,0,0-.13-.22s-.08-.05-.12-.08a.75.75,0,0,0-.4-.15,2.49,2.49,0,0,0-1.66.53,1,1,0,0,0-.1.95.67.67,0,0,0,.71.58,2.42,2.42,0,0,0,1.64-.54A.92.92,0,0,0,10.63,14.14Z"/><path class="cls-5" d="M12.09,17a.61.61,0,0,0-.25-.49.87.87,0,0,0-.38-.17l-.11,0a1.53,1.53,0,0,0-1.72.91.81.81,0,0,0,.17,1.18A1.73,1.73,0,0,0,12,17.77,1,1,0,0,0,12.09,17Z"/><path class="cls-5" d="M13.68,17.87l0,.11s0,0,0,0a2.77,2.77,0,0,1-.19,1.14c-.45,1.09,1.61,1.09,2,.24a3.76,3.76,0,0,0,.32-1.68C15.7,16.64,13.78,16.94,13.68,17.87Z"/><path class="cls-2" d="M28.46,30.42c.2-1.86,0-3.69,0-5.56A29.25,29.25,0,0,0,28.62,21a3.44,3.44,0,0,0-.27-1.18l.09-.58c0-.19-2.43-.07-2.84.63-.22.14-.35.27-.3.36s.1.27.15.41a30.17,30.17,0,0,0,.1,10.76c0,.15.24.2.54.19,0,.18.24.31.79.31C27.81,31.93,29.6,30.66,28.46,30.42Z"/><path class="cls-6" d="M12.59,8.44a2.06,2.06,0,0,0,1.31-.87,1,1,0,0,0-.4-1.4A2.58,2.58,0,0,0,10.43,7c-.12.26,1.07.15,1.23-.19s.77-.29,1,0,.21,1-.21,1.11c-.14,0-.61.18-.55.4s.56.1.68.06Z"/><path class="cls-6" d="M16.42,7.53c-.73,0-1.79.09-2.17.82a.92.92,0,0,0,.89,1.44A1.67,1.67,0,0,0,16,9.56c.17-.12.19-.23-.06-.23a.66.66,0,0,1-.64-.7,2.15,2.15,0,0,1,.15-.51L15.55,8c-.17,0-.15,0,.07,0a1.5,1.5,0,0,0,.87-.23c.18-.13.18-.22-.07-.23Z"/><path class="cls-6" d="M20,7.82c-.35-.83-1.52-.65-2.12-.21a1.46,1.46,0,0,0-.29,2.17,1.82,1.82,0,0,0,2.32-.16,1.18,1.18,0,0,0-.14-2c-.37-.28-1.48.25-1,.65a.86.86,0,0,1,.41.59c0,.26-.21.57-.47.44a.71.71,0,0,1-.27-.69,1.57,1.57,0,0,1,.08-.31c.08-.18.13-.32.21-.12.21.48,1.43.12,1.24-.33Z"/><path class="cls-6" d="M22.22,11.75A2,2,0,0,0,20,12c-.51.52-.61,1.55.2,1.82a2.8,2.8,0,0,0,2.31-.56c.75-.6.3-1.27-.35-1.71-.19-.13-.59,0-.79.08s-.54.22-.37.33a1.57,1.57,0,0,1,.65.65c.12.31-.06.82-.36.76s-.5-.53-.44-.86a1.48,1.48,0,0,1,.16-.46,1,1,0,0,1,.14-.2c-.33.13-.37.22-.11.28a1.15,1.15,0,0,0,.79-.08s.55-.24.37-.33Z"/><path class="cls-6" d="M18.5,18.79a1.87,1.87,0,0,0,1.45-1,1.47,1.47,0,0,0-.28-1.55,1.92,1.92,0,0,0-3.13.35c-.15.39,1.08.24,1.23-.16s.27-.13.5,0a1.54,1.54,0,0,1,.44.54,1.12,1.12,0,0,1,.11.57.73.73,0,0,1-.09.32c0,.07-.22.23-.06.2-.21,0-.67.14-.7.41s.35.29.53.26Z"/><path class="cls-6" d="M21.51,15.68a1.65,1.65,0,0,0-.22,1.75,1.44,1.44,0,0,0,1.48.77c.23,0,.69-.09.82-.31s-.11-.29-.32-.29c-.86,0-1.19-1.43-.63-2,.22-.2-.18-.28-.31-.28a1.3,1.3,0,0,0-.82.31Z"/><path class="cls-6" d="M13.64,20.12a2.37,2.37,0,0,0,2.69-1.59c.32-1.16-.81-1.81-1.81-1.71-.22,0-.66.16-.7.42s.35.31.54.29c.44-.05.74.42.77.8s-.32,1.21-.75,1.1a1,1,0,0,0-.87.23c-.19.19-.13.39.13.46Z"/><path class="cls-6" d="M11,16.54c.22.34.73,1.1.19,1.35A.86.86,0,0,1,10,17.26c-.14-.54-1.37-.21-1.24.33.32,1.25,1.78,1.44,2.82,1,.46-.18,1-.49,1.1-1a2.31,2.31,0,0,0-.53-1.6c-.29-.43-1.47,0-1.13.53Z"/><path class="cls-6" d="M7.78,15.05c.25,1.66,3.15,1.18,3.26-.31a1.51,1.51,0,0,0-1.46-1.51,2,2,0,0,0-1.25.34,1.49,1.49,0,0,0-.55,1.14c0,.35,1.18.12,1.22-.2s.13-.46.16-.68l.11-.16c-.41.07-.45.14-.14.21a1.26,1.26,0,0,1,.65.81,1,1,0,0,1,0,.6l-.09.17q-.18.15,0,.06c-.35,0-.57-.55-.61-.8s-1.29,0-1.23.33Z"/><path class="cls-6" d="M12.06,11,12,11.2c.15,0,.17,0,.06,0a.92.92,0,0,1-.28-.09.81.81,0,0,1-.45-.51,1.1,1.1,0,0,1,.14-.79,2.61,2.61,0,0,1,.17-.28,1.56,1.56,0,0,1,.16-.2c.16-.13.09-.13-.21,0a1.46,1.46,0,0,0,.87-.23c.18-.13.19-.23-.06-.24a2.31,2.31,0,0,0-1.79.69c-.4.44-.79,1.19-.33,1.73a1.76,1.76,0,0,0,1.61.4c.57-.09,1.33-.32,1.4-1,0-.13-1.2,0-1.23.33Z"/><path class="cls-6" d="M7.19,8.57a1.19,1.19,0,0,1,.63,1.21.87.87,0,0,1-1,.83,1,1,0,0,0-.87.23c-.17.19-.15.48.14.53a2.56,2.56,0,0,0,2.65-1,1.73,1.73,0,0,0-.64-2.46c-.41-.24-1.52.34-1,.66Z"/><path class="cls-2" d="M5.26,21.73A2.94,2.94,0,0,0,4.72,19c0-.05,0-.11,0-.16.17-1.31-2.77-.84-2.92.3,0,.16,0,.32,0,.49a1.15,1.15,0,0,0-.38.57,5.1,5.1,0,0,0-.1,1.67,28,28,0,0,0-.45,6,.64.64,0,0,0,.41.69,13.12,13.12,0,0,0-.43,2.63c0,1.36,2.76.82,2.92-.29.3-2.18,1.66-3.57,1.58-5.8A21.71,21.71,0,0,0,5.26,21.73Z"/><path d="M21.59,27.58c9.9,7.64,4,26-9.72,22.5C1.13,47.34-.44,33.63,7.72,27.17c.93-.74-1.1-.86-1.67-.41C-4.58,35.17,1.2,52.5,15.13,51.69c13-.75,18.57-17.06,8.08-25.15-.58-.45-2.46.4-1.62,1Z"/><path d="M28.91,36.27c.35-3,.79-6.05,1-9.08.14-2.17.84-7-1-8.77-4.61-4.52-5.73,8.27-5.71,10,0,1.08,2.09.77,2.08-.15,0-2.1-.06-5,.79-6.91,1.64-3.73,1.86,2.36,1.83,3.75-.06,3.8-.64,7.57-1.07,11.34-.12,1,2,.77,2.08-.16Z"/><path class="cls-7" d="M9.43,5.78l10,16.52c.27.44,1.45,0,1.14-.53l-10-16.52c-.27-.44-1.45,0-1.13.53Z"/><path class="cls-7" d="M5.12,11.73l18.76,4.6c.31.07,1.39-.41,1-.51L6.12,11.22c-.3-.07-1.39.41-1,.51Z"/><path class="cls-7" d="M7.14,19,23.66,9c.71-.43-.34-.74-.79-.47l-16.52,10c-.72.43.33.74.79.47Z"/><path class="cls-7" d="M13.31,23l4.6-18.76c.05-.23-1.14-.07-1.22.22L12.1,23.27c-.06.23,1.14.07,1.21-.23Z"/><path class="cls-7" d="M23.55,13.93c-.28,5.24-4.44,9.87-10.08,8.73a9.21,9.21,0,0,1-7.12-9C6.35,8,11.57,3.45,17.24,5.27c3.94,1.26,6.1,4.84,6.32,8.83,0,.74,2.1.3,2.05-.55C24.89.14,4.26.81,4.23,14c0,13.58,20.68,12.71,21.38-.31C25.66,12.79,23.59,13.17,23.55,13.93Z"/><path class="cls-8" d="M21.51,37.8A40.32,40.32,0,0,0,21.88,29c-.1-2.5-.13-5.27-2.19-7a1.86,1.86,0,0,0-1.14,0L18,21.8a1.88,1.88,0,0,0-1,0c0-.11,0-.22,0-.29,0-.26-1.14-.14-1.72.16a5.15,5.15,0,0,0-1.37.12l-.77,0-.19,0a8,8,0,0,0-1.43.16,4.4,4.4,0,0,0-3.23,1.75c-.07.1,0,.16.1.19a.76.76,0,0,0-.08.11c0,.05-.09.08-.13.13s0,0,0,0a2.35,2.35,0,0,0-.85,2.34,7.66,7.66,0,0,0-.14,2.64A11,11,0,0,0,7.13,31c0,.11.17.15.39.15a23.28,23.28,0,0,0-.31,4c0,.21.66.16,1.23,0,0,.13-.11.25-.15.38a.33.33,0,0,0,0,.1,1.27,1.27,0,0,0-.12.69,2.42,2.42,0,0,0-1.08,2.29,2.7,2.7,0,0,0,0,.95,2.52,2.52,0,0,0,.34,1.51,6,6,0,0,0,.81,2.7s.07.08.11.12c.08.21.17.41.25.59a.52.52,0,0,0,.42.28l.12.26a.41.41,0,0,0,.26.22c.06.11.11.22.18.33a.56.56,0,0,0,.39.25,1.44,1.44,0,0,0,.39.35,2,2,0,0,0,2.18.88c.22.43.82.65,1.63.44.07,0,.12-.06.18-.08a2.86,2.86,0,0,0,1.57-.49,5.61,5.61,0,0,0,3.87-1.69A.63.63,0,0,0,20,45a6,6,0,0,0,.87-1.32c1.2-1.55,1-3.13.73-4.81A6,6,0,0,0,21.51,37.8Z"/><path class="cls-9" d="M13.06,21.16a4.35,4.35,0,0,0-1,.33,2.2,2.2,0,0,0-1.46.2c-4.26,2.59-3.24,7.68-3.69,11.89-.14,1.36,2.15.84,2.66.25,1-1.18,1.13-2.39,1.25-3.91.15-1.69.54-6.44,2.72-6.91C15.37,22.62,14.85,20.77,13.06,21.16Z"/><path class="cls-9" d="M15.88,45.24c-2.1,0-4-2.15-5-3.87a6,6,0,0,1-.3-5.32,5.38,5.38,0,0,1,.53-.65c.39-.42.36-.72.11-.92-.21-.7-2.35-.5-2.85.3a6.32,6.32,0,0,0-.5,1c-3.64,5.28.75,12,7.35,11.32C16.27,47,17.72,45.24,15.88,45.24Z"/><path class="cls-10" d="M21.59,40.09a8.19,8.19,0,0,1-1.54,4.56c-1.13,1.55-1.3,1.26-3.69,1.89s-3,1-4.88-.15a8,8,0,0,1-3.92-6.85,7.89,7.89,0,0,1,1.09-4c1.18-2,1.7-1.85,4.14-2.5s2.42-1,4.18-.17a8,8,0,0,1,4.62,7.18c0,.41,2.08.06,2.05-.55C23,28.3,5.47,29.2,5.51,40.09c0,11.38,17.55,10.18,18.13-.55C23.66,39.18,21.62,39.44,21.59,40.09Z"/><path class="cls-10" d="M22.93,36.13c-.8-4.19,1.71-10.21-1.66-13.59-2.21-2.22-6.18-1.88-9.06-1.69-7.88.51-6,10.12-6,15.56,0,.86,1.66.61,1.66-.13V29.94c0-3.44-.43-7.32,4.3-7.89,3.41-.42,8.28-.24,9,3.93.6,3.44-.55,7.14.11,10.59.15.75,1.79.33,1.64-.44Z"/><path class="cls-10" d="M13.54,39.82,13.93,41c.13.4,1.64,0,1.64-.44v-.29c0-.3-1.64-.06-1.64.44V41l1.64-.44-.38-1.14c-.14-.41-1.77.07-1.65.44Z"/><path class="cls-10" d="M16.64,38.76a30.28,30.28,0,0,1,3.64-2.95.53.53,0,0,0,.08-.87,1,1,0,0,0-1.18.09A29.34,29.34,0,0,0,15.54,38c-.8.76.48,1.37,1.1.78Z"/><path class="cls-10" d="M13.56,38.07c-1.43-1.31-2.9-2.52-4.87-2.78-.39,0-1.9.61-1.06.72,1.76.23,3.13,1.49,4.39,2.64.34.31,1.84-.31,1.54-.58Z"/><path class="cls-10" d="M12.25,41.55A9.13,9.13,0,0,0,9,44.9c-.38.7,1.26.55,1.53.06a7.78,7.78,0,0,1,2.71-2.9c.25-.15.45-.46.14-.66a1.29,1.29,0,0,0-1.17.15Z"/><path class="cls-10" d="M16.36,41.62a7.35,7.35,0,0,1,3.13,3c.3.55,1.89,0,1.65-.44a8,8,0,0,0-3.47-3.38c-.47-.24-2,.44-1.31.78Z"/><path d="M6.63,28.39c0-2.06.5-14.41-4.59-10.7C-.3,19.4,0,23.3,0,25.82a46.32,46.32,0,0,0,.56,10c.18.86,2.24.33,2.05-.55A44.26,44.26,0,0,1,2.19,22.3c.08-.8.14-3.13,1-3.11s1,1.77,1.13,2.66c.22,2.22.18,4.5.22,6.73,0,1,2.09.64,2.07-.19Z"/></g></svg>