<svg xmlns="http://www.w3.org/2000/svg" xmlns:xlink="http://www.w3.org/1999/xlink" viewBox="0 0 72.16 78.7"><defs><style>.cls-1{fill:url(#radial-gradient);}.cls-2{fill:url(#radial-gradient-2);}.cls-3{fill:url(#radial-gradient-3);}.cls-12,.cls-23,.cls-32,.cls-4{fill:none;}.cls-5{clip-path:url(#clip-path);}.cls-6{clip-path:url(#clip-path-3);}.cls-7{mask:url(#mask);}.cls-8{fill:url(#radial-gradient-4);}.cls-9{fill:#333;}.cls-10{fill:#666766;}.cls-11{fill:#dcdbdb;}.cls-12,.cls-23,.cls-32{stroke:#e6e6e6;stroke-miterlimit:10;}.cls-12{stroke-width:0.03px;}.cls-13{fill:#f15a26;}.cls-14{fill:#0d71ba;}.cls-15{fill:#fff;}.cls-16{fill:#b87b2f;}.cls-17{fill:#744e24;}.cls-18{clip-path:url(#clip-path-5);}.cls-19{clip-path:url(#clip-path-7);}.cls-20{mask:url(#mask-2);}.cls-21{fill:url(#radial-gradient-5);}.cls-22{clip-path:url(#clip-path-8);}.cls-23{stroke-width:0.12px;}.cls-24{fill:#5a3216;}.cls-25{fill:#736357;}.cls-26{fill:#412311;}.cls-27{clip-path:url(#clip-path-9);}.cls-28{clip-path:url(#clip-path-11);}.cls-29{mask:url(#mask-3);}.cls-30{fill:url(#radial-gradient-6);}.cls-31{clip-path:url(#clip-path-12);}.cls-32{stroke-width:0.03px;}.cls-33{fill:#3b50a2;}.cls-34{fill:#423629;}.cls-35{fill:#383838;}.cls-36{fill:#292929;}</style><radialGradient id="radial-gradient" cx="330.09" cy="325.29" r="1" gradientTransform="matrix(0, 7.99, 7.99, 0, -2561.25, -2623.01)" gradientUnits="userSpaceOnUse"><stop offset="0" stop-color="#fff"/><stop offset="0.29" stop-color="#fff"/><stop offset="1"/></radialGradient><radialGradient id="radial-gradient-2" cx="330.09" cy="325.29" gradientTransform="matrix(0, 7.51, 7.51, 0, -2381.82, -2412.16)" xlink:href="#radial-gradient"/><radialGradient id="radial-gradient-3" cx="330.09" cy="325.29" gradientTransform="matrix(0, 7.83, 7.83, 0, -2513.29, -2528.45)" xlink:href="#radial-gradient"/><clipPath id="clip-path" transform="translate(-2.66 -2.73)"><rect class="cls-4" x="7.05" y="-2.1" width="31.18" height="41.12" transform="translate(1.04 38.12) rotate(-81.51)"/></clipPath><clipPath id="clip-path-3" transform="translate(-2.66 -2.73)"><path class="cls-4" d="M44.1,13.94a7.52,7.52,0,0,0,.07-1.58A8,8,0,0,0,37.42,4.9h-.07a7.55,7.55,0,0,0-1.58-.07A8,8,0,1,0,44.09,14Z"/></clipPath><mask id="mask" x="22.76" y="0" width="20.74" height="20.74" maskUnits="userSpaceOnUse"><g transform="translate(-2.66 -2.73)"><rect class="cls-1" x="25.93" y="3.24" width="19.71" height="19.71" transform="translate(-0.65 1.95) rotate(-3.09)"/></g></mask><radialGradient id="radial-gradient-4" cx="330.09" cy="325.29" r="1" gradientTransform="matrix(0, 7.99, 7.99, 0, -2561.25, -2623.01)" gradientUnits="userSpaceOnUse"><stop offset="0" stop-color="#fff"/><stop offset="0.29" stop-color="#fff"/><stop offset="1" stop-color="#fff"/></radialGradient><clipPath id="clip-path-5" transform="translate(-2.66 -2.73)"><rect class="cls-4" x="38.97" y="49.33" width="26.13" height="31.15" transform="translate(-29.98 50.97) rotate(-41.64)"/></clipPath><clipPath id="clip-path-7" transform="translate(-2.66 -2.73)"><path class="cls-4" d="M67.12,62.22a5.84,5.84,0,1,0,.08.08Z"/></clipPath><mask id="mask-2" x="44.83" y="51.03" width="27.33" height="27.67" maskUnits="userSpaceOnUse"><g transform="translate(-2.66 -2.73)"><rect class="cls-2" x="50.36" y="56.53" width="21.6" height="22.13" transform="translate(-17.74 21.94) rotate(-17.81)"/></g></mask><radialGradient id="radial-gradient-5" cx="330.09" cy="325.29" r="1" gradientTransform="matrix(0, 7.51, 7.51, 0, -2381.82, -2412.16)" xlink:href="#radial-gradient-4"/><clipPath id="clip-path-8" transform="translate(-2.66 -2.73)"><rect class="cls-4" x="38.97" y="49.33" width="26.13" height="31.15" transform="translate(-29.98 50.97) rotate(-41.64)"/></clipPath><clipPath id="clip-path-9" transform="translate(-2.66 -2.73)"><rect class="cls-4" x="12.92" y="32.82" width="28.91" height="31.57" transform="translate(-25.08 67.59) rotate(-80.52)"/></clipPath><clipPath id="clip-path-11" transform="translate(-2.66 -2.73)"><path class="cls-4" d="M41.85,55.19a7.83,7.83,0,1,0-9.06,9h.09a7.77,7.77,0,0,0,2.5,0,7.81,7.81,0,0,0,6.47-9"/></clipPath><mask id="mask-3" x="18.96" y="41.05" width="24.21" height="24.21" maskUnits="userSpaceOnUse"><g transform="translate(-2.66 -2.73)"><rect class="cls-3" x="23.18" y="45.34" width="21.1" height="21.1" transform="translate(-8.54 6.14) rotate(-9.25)"/></g></mask><radialGradient id="radial-gradient-6" cx="330.09" cy="325.29" r="1" gradientTransform="matrix(0, 7.83, 7.83, 0, -2513.29, -2528.45)" xlink:href="#radial-gradient-4"/><clipPath id="clip-path-12" transform="translate(-2.66 -2.73)"><rect class="cls-4" x="12.92" y="32.82" width="28.91" height="31.57" transform="translate(-25.08 67.6) rotate(-80.52)"/></clipPath></defs><title>Asset 3</title><g id="Layer_2" data-name="Layer 2"><g id="Layer_4" data-name="Layer 4"><g class="cls-5"><g class="cls-5"><g class="cls-6"><g class="cls-7"><rect class="cls-8" x="25.93" y="3.24" width="19.71" height="19.71" transform="matrix(1, -0.05, 0.05, 1, -3.31, -0.78)"/></g></g><g class="cls-5"><path class="cls-9" d="M37.46,13.9,37.3,11a1.45,1.45,0,0,0-1.53-1.37L29.5,10a1.44,1.44,0,0,0-1.37,1.52l.16,2.88a1.44,1.44,0,0,0,1.52,1.37l6.27-.34a1.45,1.45,0,0,0,1.38-1.53" transform="translate(-2.66 -2.73)"/><path class="cls-10" d="M31,14.77l-.6,0a1.06,1.06,0,0,1-1.11-1L29.19,12a1.07,1.07,0,0,1,1-1.11l.6,0Z" transform="translate(-2.66 -2.73)"/><path class="cls-11" d="M35.44,14.53,31,14.77l-.21-3.91,4.44-.24a1.06,1.06,0,0,1,1.11,1l.1,1.8a1.06,1.06,0,0,1-1,1.11" transform="translate(-2.66 -2.73)"/><path class="cls-9" d="M30.09,13.37a.48.48,0,1,1-.05-1,.48.48,0,1,1,.05,1" transform="translate(-2.66 -2.73)"/><path class="cls-12" d="M30.09,13.37a.48.48,0,1,1-.05-1,.48.48,0,1,1,.05,1Z" transform="translate(-2.66 -2.73)"/><path class="cls-13" d="M24.56,14.82l.84-.14a1.55,1.55,0,0,0,1.13-.79c.17-.35,0-.71-.44-.64l-.58.09a1.1,1.1,0,0,0-.61.13l-.08,0a1.39,1.39,0,0,0-.77.84.41.41,0,0,0,.51.46" transform="translate(-2.66 -2.73)"/><path class="cls-14" d="M27.2,15c.29.26.81.11,1.1-.1s.71-.71.44-1.09a.93.93,0,0,0-1-.29,1.26,1.26,0,0,0-1,.95.46.46,0,0,0,.45.53" transform="translate(-2.66 -2.73)"/><path class="cls-13" d="M26.71,15.62a.84.84,0,0,0,.55-.33.45.45,0,0,0,.23,0C28,15,28,14,27.91,13.6s-.54-.58-.94-.69h0l-.08,0a.08.08,0,0,0-.08,0,.58.58,0,0,0-.61.07.53.53,0,0,0-.55.11.41.41,0,0,1-.05-.09c-.21-.36-.45.07-.53.29A1.88,1.88,0,0,0,25,14.63a2.74,2.74,0,0,0,.68.82l0,0a.79.79,0,0,0,1,.14" transform="translate(-2.66 -2.73)"/><path class="cls-15" d="M31.3,12.5c.3-.44-.63-1.24-1-1.38-.57-.23-1.2.18-1.72.43-.34.16-.67.33-1,.52l-.72.28a.22.22,0,0,0-.15.27l-.06,0c-.4.28.86,1.58,1.28,1.45l.55-.2a3.76,3.76,0,0,0,.86-.24A4,4,0,0,0,31.3,12.5" transform="translate(-2.66 -2.73)"/><path class="cls-13" d="M28.76,13.63l-.65-1A1.62,1.62,0,0,0,27.3,12l-.07,0c-.12,0-.45-.11-.47.12,0,0,0,.07,0,.1h0c-.22-.1-.38,0-.45.12a.18.18,0,0,0-.17.18c-.26,0-.33.55-.63.72s.39.71.61.48.6.32,1,.37h.06a2,2,0,0,0,.31.19c.16.08.46.21.59.08a.35.35,0,0,0,.14-.06.77.77,0,0,0,.63.2c.4-.12,0-.69-.1-.86" transform="translate(-2.66 -2.73)"/><path d="M26.28,16.68c1.3-.7,2.58-1.48,3.82-2.29.93-.6,2.35-1.65,2.1-3-.68-3.44-7.61,1.06-8.72,2-.49.4,0,1.64.63,1.14a16,16,0,0,1,3.64-2.14A7.6,7.6,0,0,1,30,11.62c1-.08,1.24.25.41,1a25.86,25.86,0,0,1-4.55,2.8c-.56.3-.21,1.64.42,1.3" transform="translate(-2.66 -2.73)"/><path class="cls-13" d="M23.45,28.61a.87.87,0,0,1,.41.49.45.45,0,0,1,.2.12c.35.38.07,1.34-.16,1.7s-.71.36-1.11.33l-.05,0h-.09l-.07-.05a.6.6,0,0,1-.55-.27.55.55,0,0,1-.48-.29.22.22,0,0,0-.07.06c-.32.28-.4-.21-.4-.44a1.93,1.93,0,0,1,.4-1.29,2.94,2.94,0,0,1,.92-.54l0,0a.81.81,0,0,1,1,.22" transform="translate(-2.66 -2.73)"/><path class="cls-15" d="M26.61,33c.14.52-1,1-1.39,1-.62,0-1.06-.57-1.47-1s-.52-.54-.76-.82l-.59-.51a.23.23,0,0,1,0-.3s-.06-.68-.07-.66c-.25.42,1.16.8,1.48.5.14-.14.54-.58.69-.45s.72.08,1,.29a4.07,4.07,0,0,1,1.18,2" transform="translate(-2.66 -2.73)"/><path class="cls-13" d="M24.63,30.81l-.94.69a1.6,1.6,0,0,1-1,.33h-.08c-.13,0-.47-.05-.41-.27a.94.94,0,0,1,0-.09h0c-.23,0-.37-.1-.38-.26a.19.19,0,0,1-.1-.23c-.24-.12-.12-.63-.36-.89s.61-.54.74-.25.67-.1,1.08,0l.06,0,.35-.08c.19,0,.51,0,.59.13a.18.18,0,0,1,.11.1A.78.78,0,0,1,25,30c.34.25-.21.66-.38.78" transform="translate(-2.66 -2.73)"/><path d="M23.2,28.65c.55.6,1.05,1.24,1.56,1.87s1.59,1.61,1.41,2.38-.07.36-.55.4a2.18,2.18,0,0,1-1-.35,9.21,9.21,0,0,1-1.51-1.14,13.32,13.32,0,0,1-2.81-3.09c-.2-.33-.27.93-.1,1.22a14.91,14.91,0,0,0,3.9,4c.76.55,2.7,1.51,2.92-.05.33-2.41-2.27-4.84-3.71-6.44-.29-.33-.32,1-.1,1.22" transform="translate(-2.66 -2.73)"/><path class="cls-16" d="M11.79,21.69s-4.48.52-4.95-.44a26,26,0,0,1-1.19-5.88C5.78,15.16,3,13.42,3,13.42a3.16,3.16,0,0,1,4.69-.08c2.47,2.39,1.73,4,2.6,4.16s1.09.45,1.09.45Z" transform="translate(-2.66 -2.73)"/><path class="cls-17" d="M11.68,20.72a14.72,14.72,0,0,1-3.63.08c-1.14-.17-1.2-.59-1.44-1.62-.19-.81-.36-1.63-.49-2.46,0-.33-.1-.66-.14-1,.08.73,0-.06,0-.14a2.55,2.55,0,0,0-.29-1.15,8.78,8.78,0,0,0-2.68-2l.21,1.88a3,3,0,0,1,3.54-.77,5.85,5.85,0,0,1,2.53,3,7.65,7.65,0,0,0,.49,1.39,1.44,1.44,0,0,0,.56.51c.43.26,1.32.61.75-.42a2.11,2.11,0,0,1,.06.61c.08,1,.2,2.06.3,3.09s.78,1.07.66-.08S12,19.15,11.76,18a1.81,1.81,0,0,0-.4-1c-.16-.17-.41-.2-.6-.3-.88-.46-.43-.07-.86-.76-1-1.64-1.49-3.71-3.63-4.4a3.38,3.38,0,0,0-3.43,1,1.73,1.73,0,0,0,.22,1.87c.51.33,1,.66,1.5,1,1,.72.54.85.76-.6a2.26,2.26,0,0,0,0,.58,29,29,0,0,0,.83,4.81c.28,1.13.41,2.17,1.65,2.5a11.46,11.46,0,0,0,4.13,0c.47-.05.26-2-.22-1.94" transform="translate(-2.66 -2.73)"/><path class="cls-16" d="M15.42,28.43a3.06,3.06,0,0,0,1.68-.53,1.73,1.73,0,0,0,.25-.22c1-.24,2.25-1.21,1.44-2.36l0,0c.12-.56-.52-1-1.16-.8-.05-.08-.08-.55-.13-.63s.19-.36.07-.39a1.44,1.44,0,0,0-.27-.28,1.72,1.72,0,0,0,.05-.26c.06-.28.11-.57.17-.85,0-.12.28-.11.27-.24s.36-.19.47-.38.14,0,.31-.25c0,0,.42-.06.44,0l-.2-.15a2.4,2.4,0,0,1-.26-.18c.31.15.62-.08.71-.48a2.09,2.09,0,0,0,0-1,3.3,3.3,0,0,0-.36-1.15,1.69,1.69,0,0,0,0-.89c.1-1-.83-2.29-1.81-2a5.08,5.08,0,0,0-.62-1c0-.07,0-.13,0-.19.08-.37-.06-1.55-.7-1.4-2.72.66-5.15,4.43-5.62,7-.58,3.17,1,5.75,3.26,7.82a.35.35,0,0,0,.36.12,2.33,2.33,0,0,0,1.77.77" transform="translate(-2.66 -2.73)"/><path class="cls-15" d="M20.17,28.94a4,4,0,0,0,.77-.32,2.06,2.06,0,0,0,.48-.05,2.79,2.79,0,0,0,1.66-1,.43.43,0,0,0,.55,0A4.92,4.92,0,0,0,25.8,24.8a2.52,2.52,0,0,0,.53-1.29,3.87,3.87,0,0,0,.25-2.46,3.72,3.72,0,0,0-.15-2.37,3.14,3.14,0,0,0-.53-1.2.11.11,0,0,0,0-.05,2.58,2.58,0,0,0-1.1-2c-.44-.67-.95-1.15-1.45-1.07a4.38,4.38,0,0,0-1.29-.71,3.43,3.43,0,0,0-1.86-.75,1.61,1.61,0,0,0-1.3-.06,4.16,4.16,0,0,0-1.23-.09,2.52,2.52,0,0,0-.85,0c-.34.07-.41.49-.42.78a1.53,1.53,0,0,0,0,.43,1.63,1.63,0,0,0,.17,1.6c.34-.23.84.08,1.12.45a1.09,1.09,0,0,1,.63.58,1.1,1.1,0,0,1,.2.71,1.61,1.61,0,0,1,.39,1.07,1.94,1.94,0,0,1,.24,1.21.85.85,0,0,1,0,.76,1.06,1.06,0,0,1-.11.21.25.25,0,0,1-.18.1,3.26,3.26,0,0,0,.39.58l-.5.17c-1,.45-1.43,1.09-1.41,1.76a2.52,2.52,0,0,0-.19,1.05.34.34,0,0,1,.53.27.55.55,0,0,1,.14.09.93.93,0,0,1,.86.08.38.38,0,0,1,.22.44.68.68,0,0,1-.31.47.61.61,0,0,1-.4.78.49.49,0,0,1-.12.32.67.67,0,0,1-.39.23.61.61,0,0,1-.6.54l-.15,0a.55.55,0,0,1-.42.2.43.43,0,0,1-.11.21c0,.46.18.95.53,1.06a4.2,4.2,0,0,0,3.21,0" transform="translate(-2.66 -2.73)"/><path class="cls-17" d="M15.33,29.23c3.17-.4,4.46-2.49,4.31-5.49,0-.32-1.62.14-1.81.61-.28-1.24,0-3.05,2-3a.55.55,0,0,0,.29-.74c-.77-1.76.17-6.94-3.46-5.61l.54.75c.44-1.58.49-3.53-1.58-3.62-.5,0-.39,1.08.14,1.11l.7,2c-.1.34.11.91.54.75,1.69-.61,2,4,2.4,5l.29-.75c-1.69.52-4,3.09-2.27,4.7a1.36,1.36,0,0,0,1.76-.27c-.24-.11-1.56,3.15-3.94,3.45-.52.07-.38,1.17.14,1.1" transform="translate(-2.66 -2.73)"/><path d="M17.17,28.76c-4.5-.85-8-4.88-6.87-9.67A8.31,8.31,0,0,1,19.51,13a7.92,7.92,0,0,1,6.56,10.37,8.43,8.43,0,0,1-9,5.41c-.57-.05-.46,1.33.16,1.38,11.8,1,14-17,2.27-18.58C7.62,10,5.63,28,17.09,30.12c.65.13.64-1.25.08-1.36" transform="translate(-2.66 -2.73)"/><path d="M22.58,25.83c-.7-.1-1.2-.61-1.13-1.14a1.15,1.15,0,0,1,1.4-.8c.7.1,1.21.61,1.13,1.14a1.15,1.15,0,0,1-1.4.8" transform="translate(-2.66 -2.73)"/><path d="M23.47,19.41c-.7-.09-1.21-.6-1.14-1.14a1.17,1.17,0,0,1,1.4-.8c.7.1,1.21.61,1.14,1.15a1.16,1.16,0,0,1-1.4.79" transform="translate(-2.66 -2.73)"/><path class="cls-17" d="M13.36,20.05a4.37,4.37,0,0,0,1.29,4.59c.2.17.25-.44.25-.51a1.12,1.12,0,0,0-.27-.83,2.09,2.09,0,0,1-.8-2.32,1.36,1.36,0,0,0-.11-1c-.15-.22-.28-.24-.36,0" transform="translate(-2.66 -2.73)"/><path class="cls-17" d="M14,19c-.26-.63.32-1.21.84-1.49.33-.18.09-1.52-.29-1.31a2.77,2.77,0,0,0-.94,3.55c.09.2.22.43.4.21a1.23,1.23,0,0,0,0-1" transform="translate(-2.66 -2.73)"/><path class="cls-17" d="M14.28,21.11a2,2,0,0,0,2-.55,1.05,1.05,0,0,0,.08-.87c0-.09-.19-.64-.37-.44a1.75,1.75,0,0,1-1.7.52c-.39-.1-.33,1.25,0,1.34" transform="translate(-2.66 -2.73)"/></g></g></g><g class="cls-18"><g class="cls-18"><g class="cls-19"><g class="cls-20"><rect class="cls-21" x="50.36" y="56.53" width="21.6" height="22.13" transform="translate(-20.4 19.21) rotate(-17.81)"/></g></g><g class="cls-22"><path class="cls-9" d="M63,68l-.88-2.74a1.46,1.46,0,0,0-1.83-.94l-6,1.92a1.45,1.45,0,0,0-.93,1.83l.88,2.74a1.45,1.45,0,0,0,1.82.94l6-1.92A1.45,1.45,0,0,0,63,68" transform="translate(-2.66 -2.73)"/><path class="cls-10" d="M57,70.48l-.57.19A1.06,1.06,0,0,1,55.12,70l-.55-1.72a1,1,0,0,1,.68-1.32l.57-.19Z" transform="translate(-2.66 -2.73)"/><path class="cls-11" d="M61.25,69.12,57,70.48l-1.2-3.73,4.23-1.36a1.07,1.07,0,0,1,1.33.68l.55,1.73a1,1,0,0,1-.68,1.32" transform="translate(-2.66 -2.73)"/><path class="cls-9" d="M55.79,69.36a.49.49,0,0,1-.61-.31.47.47,0,0,1,.31-.61.48.48,0,1,1,.3.92" transform="translate(-2.66 -2.73)"/><path class="cls-23" d="M55.79,69.36a.49.49,0,0,1-.61-.31.47.47,0,0,1,.31-.61.48.48,0,1,1,.3.92Z" transform="translate(-2.66 -2.73)"/><path class="cls-24" d="M50.6,72.37a3,3,0,0,0,.7-1.62,2,2,0,0,0,0-.33c.47-.92.55-2.5-.86-2.63h0c-.35-.45-1.09-.24-1.36.36-.1,0-.47-.29-.56-.3s-.16-.39-.26-.32a2.34,2.34,0,0,0-.38,0,1.46,1.46,0,0,0-.16-.21l-.55-.68c-.07-.09.1-.29,0-.35s.09-.4,0-.62.08-.12,0-.39c0,0,.23-.35.25-.36l-.24.06s-.34.09-.31.07c.32-.13.34-.52.1-.85a2.11,2.11,0,0,0-.8-.65A3.57,3.57,0,0,0,45,63.11a1.7,1.7,0,0,0-.71-.55c-.69-.73-2.28-.85-2.7.08a4.67,4.67,0,0,0-1.17-.18l-.15-.11c-.23-.31-1.22-1-1.52-.38-1.26,2.5,0,6.79,1.69,8.84,2,2.5,5,3,8.07,2.61a.37.37,0,0,0,.32-.2,2.3,2.3,0,0,0,1.73-.85" transform="translate(-2.66 -2.73)"/><path class="cls-25" d="M45.8,56.36c.16-.1.23-.29.07-.54a1.1,1.1,0,0,0-.33-.67,2.11,2.11,0,0,0-.36-.31A4.24,4.24,0,0,0,43.81,54a1.06,1.06,0,0,0-.31,0,1.65,1.65,0,0,0-1.62.6h0c-.06.07-.13.14-.19.22v0a.7.7,0,0,0-.21.64.46.46,0,0,0,0,.2.48.48,0,0,0-.12,0c-.64.37-1,1.1-1.47,1.61-.29.28,1.23,1.48,1.63,1.08l.79-.79a1.34,1.34,0,0,0,.33-.34.08.08,0,0,0,0,0h0a.29.29,0,0,0,.24-.07l.34-.3a.11.11,0,0,0,0-.11,2.18,2.18,0,0,0,1.41-.55l0,0,.17.07.1,0,.19,0,.11,0h.17a.38.38,0,0,0,.15,0h0l.06,0h0l.07,0" transform="translate(-2.66 -2.73)"/><path class="cls-25" d="M56.48,71.25a.44.44,0,0,0,.19-.45,2.39,2.39,0,0,0,.28-.35.64.64,0,0,0,.08-.2.84.84,0,0,0,.37-.61.87.87,0,0,0-.15-.51.9.9,0,0,0,0-.18.94.94,0,0,0-.29-.69s0,0,0-.07a2.24,2.24,0,0,0-.09-.45c0-.11-.09-.23-.13-.35a.86.86,0,0,0-.21-.3,1.41,1.41,0,0,0-1-.56c-.28,0-.61.17-.52.51a5.85,5.85,0,0,0,.23.63v.08a.07.07,0,0,0,0,0c-.26.11-.42.36-.34.81a1.16,1.16,0,0,0,0,.32,2.59,2.59,0,0,0-.78,1,7.67,7.67,0,0,0-.89.73.63.63,0,0,0-.12.18l-.75.37c-.86.41.75,1.44,1.24,1.37a3.86,3.86,0,0,0,1.27-.41.35.35,0,0,0,.21-.27,4.24,4.24,0,0,0,1.37-.7" transform="translate(-2.66 -2.73)"/><path class="cls-15" d="M54.09,69.09a4.52,4.52,0,0,0,.25-.79,3.13,3.13,0,0,0,.28-.4A2.91,2.91,0,0,0,54.94,66a.42.42,0,0,0,.38-.39,4.88,4.88,0,0,0-.73-3.48A2.4,2.4,0,0,0,54,60.88a3.87,3.87,0,0,0-1.71-1.79,3.6,3.6,0,0,0-1.89-1.42,3,3,0,0,0-1.25-.38l-.05,0a2.6,2.6,0,0,0-2.25-.49c-.8-.09-1.5,0-1.77.41a4.31,4.31,0,0,0-1.37.52,3.38,3.38,0,0,0-1.78.93,1.57,1.57,0,0,0-.89.94,4,4,0,0,0-.86.88,2.47,2.47,0,0,0-.53.68c-.16.3.12.63.32.83a1.78,1.78,0,0,0,.36.25,1.62,1.62,0,0,0,1.33.91c0-.41.61-.59,1.06-.56a1.09,1.09,0,0,1,.86-.1,1,1,0,0,1,.66.3,1.72,1.72,0,0,1,1.08.4,2.06,2.06,0,0,1,1.07.61.82.82,0,0,1,.57.49.85.85,0,0,1,.09.22.24.24,0,0,1,0,.2,3.4,3.4,0,0,0,.69.08,2.74,2.74,0,0,0-.19.49,1.88,1.88,0,0,0,.41,2.21,2.43,2.43,0,0,0,.68.84.34.34,0,0,1,.54-.24l.16,0a.94.94,0,0,1,.63-.6.39.39,0,0,1,.48.12.66.66,0,0,1,.15.54.6.6,0,0,1,.33.81.48.48,0,0,1,.17.3.68.68,0,0,1-.08.45.6.6,0,0,1,0,.8.52.52,0,0,1-.11.1.54.54,0,0,1-.12.45.35.35,0,0,1,.08.22,1.09,1.09,0,0,0,1.15.29,4.29,4.29,0,0,0,2.13-2.42" transform="translate(-2.66 -2.73)"/><path class="cls-26" d="M51.16,73c1.76-2.67,1-5-1.37-6.84-.26-.2-.95,1.32-.72,1.76-1.12-.59-2.3-2-1-3.42a.55.55,0,0,0-.38-.7c-1.84-.56-5.16-4.64-6.51-1l.93.08c-.92-1.37-2.37-2.66-3.78-1.15-.35.37.56,1,.93.61l2,.8c.2.29.77.5.93.07.63-1.68,4.31,1.1,5.33,1.41-.12-.24-.25-.47-.38-.71-.7,1.62-.24,5,2.1,4.78.54-.06,1.16-1,.93-1.52-.23.12,1.39,3.24.08,5.24-.3.44.63,1.05.92.61" transform="translate(-2.66 -2.73)"/><path d="M52,71.27c-3.57,2.87-8.93,3-11.82-1.06a8.35,8.35,0,0,1,1.35-11C45.17,56,51.16,56.51,53.67,61a8.47,8.47,0,0,1-1.76,10.39c-.38.37.74,1.18,1.16.76,8.44-8.3-3.93-21.63-12.66-13.78-8.9,8,3.52,21.13,12.58,13.86.49-.4-.58-1.26-1-.92" transform="translate(-2.66 -2.73)"/><path d="M53.29,65.24a1,1,0,1,1,.3-1.58,1.16,1.16,0,0,1-.3,1.58" transform="translate(-2.66 -2.73)"/><path d="M49,60.4a1,1,0,1,1-1.3-1.47A1,1,0,1,1,49,60.4" transform="translate(-2.66 -2.73)"/><path class="cls-26" d="M43.78,70c1.08.88,2.69,1.54,4,.8.48-.26-.58-1.14-1-.9a2.07,2.07,0,0,1-2.29-.29c-.19-.16-.61-.43-.86-.25s0,.51.15.64" transform="translate(-2.66 -2.73)"/><path class="cls-26" d="M42.51,67.75a1.23,1.23,0,0,1-.63-1.53c.11-.55-1.11-1.18-1.25-.54a2.71,2.71,0,0,0,2,3.09.39.39,0,0,0,.55-.37c0-.34-.42-.56-.71-.65" transform="translate(-2.66 -2.73)"/><path class="cls-26" d="M44.24,69a2.1,2.1,0,0,0,.88-2c0-.47-1.29-1-1.21-.34a1.59,1.59,0,0,1-.68,1.46c-.47.33.61,1.19,1,.91" transform="translate(-2.66 -2.73)"/><path class="cls-26" d="M41.89,69a2.31,2.31,0,0,0-.44,2.27c.19.59,1.45.79,1.2,0a1.54,1.54,0,0,1,.4-1.48c.22-.25-.12-.65-.32-.78a.63.63,0,0,0-.84,0" transform="translate(-2.66 -2.73)"/><path d="M51.33,73.61c1.92-.45,6.09-.42,6.71-2.86A4.54,4.54,0,0,0,55.74,66c-.71-.46-1.18.24-.46.7,1.38.88,2.37,3.1.89,4.35s-3.92,1.13-5.61,1.53c-.69.16.26,1.14.77,1" transform="translate(-2.66 -2.73)"/><path d="M40.14,60.37c.6-1.7.59-3.85,1.67-5.33C43.33,53,45.21,55,46,56.5c.21.41,1.47.81,1.1.11-.93-1.79-2.32-3.4-4.48-3.35-3,.07-2.88,4.3-3.61,6.34-.18.51,1,1.19,1.16.77" transform="translate(-2.66 -2.73)"/></g></g></g><g class="cls-27"><g class="cls-27"><g class="cls-28"><g class="cls-29"><rect class="cls-30" x="23.18" y="45.34" width="21.1" height="21.1" transform="translate(-11.2 3.42) rotate(-9.25)"/></g></g><g class="cls-31"><path class="cls-9" d="M35.49,57.42,35,54.57a1.44,1.44,0,0,0-1.66-1.19l-6.2,1A1.44,1.44,0,0,0,26,56.05l.46,2.84a1.46,1.46,0,0,0,1.67,1.2l6.19-1a1.44,1.44,0,0,0,1.2-1.66" transform="translate(-2.66 -2.73)"/><path class="cls-10" d="M29.17,59l-.59.1a1,1,0,0,1-1.21-.87l-.29-1.79A1.05,1.05,0,0,1,28,55.2l.59-.09Z" transform="translate(-2.66 -2.73)"/><path class="cls-11" d="M33.56,58.26,29.17,59l-.63-3.86,4.39-.72a1.07,1.07,0,0,1,1.21.88l.29,1.78a1.06,1.06,0,0,1-.87,1.21" transform="translate(-2.66 -2.73)"/><path class="cls-9" d="M28.12,57.68a.48.48,0,1,1-.16-1,.47.47,0,0,1,.56.4.48.48,0,0,1-.4.55" transform="translate(-2.66 -2.73)"/><path class="cls-32" d="M28.12,57.68a.48.48,0,1,1-.16-1,.47.47,0,0,1,.56.4A.48.48,0,0,1,28.12,57.68Z" transform="translate(-2.66 -2.73)"/><path class="cls-14" d="M26.91,39.65l.84-.16a1.56,1.56,0,0,0,1.12-.81c.15-.36,0-.71-.46-.63l-.58.11a1,1,0,0,0-.6.14l-.09.05a1.4,1.4,0,0,0-.74.86.4.4,0,0,0,.51.44" transform="translate(-2.66 -2.73)"/><path class="cls-14" d="M29.56,39.74c.29.26.82.09,1.09-.13s.7-.72.41-1.1a.93.93,0,0,0-1-.27,1.28,1.28,0,0,0-.95,1,.45.45,0,0,0,.46.52" transform="translate(-2.66 -2.73)"/><path class="cls-14" d="M29.09,40.4a.86.86,0,0,0,.54-.34.45.45,0,0,0,.23,0c.45-.26.48-1.25.38-1.67s-.56-.57-1-.67h-.05l-.08,0-.08,0a.6.6,0,0,0-.61.08.56.56,0,0,0-.55.13l-.05-.08c-.21-.36-.44.07-.52.29a1.9,1.9,0,0,0,0,1.35,2.71,2.71,0,0,0,.71.8l0,0a.8.8,0,0,0,1,.11" transform="translate(-2.66 -2.73)"/><path class="cls-15" d="M33.6,37.17c.29-.45-.66-1.23-1-1.36-.58-.22-1.19.22-1.71.48-.33.17-.66.35-1,.54l-.72.3a.22.22,0,0,0-.14.27.1.1,0,0,0-.05,0c-.4.28.9,1.55,1.31,1.41l.54-.21a4.07,4.07,0,0,0,.85-.26,4,4,0,0,0,1.91-1.21" transform="translate(-2.66 -2.73)"/><path class="cls-14" d="M31.09,38.36c-.23-.32-.45-.64-.68-1a1.6,1.6,0,0,0-.82-.61l-.07,0c-.13-.05-.46-.11-.48.12V37h0c-.22-.09-.38,0-.44.13a.19.19,0,0,0-.17.19c-.26,0-.31.56-.61.73s.41.71.61.47.62.3,1,.34h.06a2.58,2.58,0,0,0,.32.18c.16.08.47.2.6.07a.24.24,0,0,0,.13-.07.78.78,0,0,0,.64.19c.39-.13,0-.69-.12-.86" transform="translate(-2.66 -2.73)"/><path d="M28.59,41.49c1.28-.74,2.53-1.56,3.76-2.39,1-.67,2.06-1.64,1.86-3-.52-3.36-7.11,1.1-8.21,2-.29.24,0,1.52.26,1.32,1.13-1,6.25-4.68,7.64-2.73L33.72,36c0,1-1.77,1.9-2.51,2.39-.95.61-1.9,1.24-2.88,1.8-.3.17-.06,1.5.26,1.32" transform="translate(-2.66 -2.73)"/><path class="cls-14" d="M26.16,53.47a1,1,0,0,1,.42.48.64.64,0,0,1,.2.11c.36.38.11,1.34-.12,1.71s-.69.38-1.1.36l0,0h-.09l-.07,0a.59.59,0,0,1-.55-.25.55.55,0,0,1-.49-.28l-.08.06c-.3.29-.4-.2-.41-.43a2,2,0,0,1,.37-1.3,2.78,2.78,0,0,1,.91-.56l0,0a.8.8,0,0,1,1,.19" transform="translate(-2.66 -2.73)"/><path class="cls-15" d="M29.42,57.74c.15.52-1,1-1.36,1-.62,0-1.08-.55-1.5-1-.27-.26-.53-.53-.78-.8l-.6-.49a.21.21,0,0,1-.05-.3s-.09-.68-.1-.66c-.23.43,1.19.77,1.5.46.14-.14.53-.59.68-.47s.72.06,1,.27a4.08,4.08,0,0,1,1.22,1.93" transform="translate(-2.66 -2.73)"/><path class="cls-14" d="M27.39,55.64l-.92.72a1.6,1.6,0,0,1-1,.34l-.08,0c-.14,0-.47,0-.42-.26a.94.94,0,0,1,0-.09h0c-.24,0-.38-.09-.39-.25a.19.19,0,0,1-.11-.23c-.24-.12-.14-.63-.37-.87s.59-.56.72-.28.68-.11,1.09,0l.05,0,.36-.08c.18,0,.5-.06.59.11a.18.18,0,0,1,.11.1.79.79,0,0,1,.66,0c.34.24-.2.66-.36.79" transform="translate(-2.66 -2.73)"/><path d="M25.81,53.52c.6.64,1.17,1.32,1.74,2,.31.37,1.74,1.77,1.6,2.29-.49,1.75-5.54-3.4-6-4.05s-.71.62-.45,1c.72,1.1,6.14,6.93,7.17,4,.41-1.15-.47-2.49-1.14-3.34-.85-1.07-1.75-2.14-2.69-3.14-.44-.46-.6.89-.27,1.23" transform="translate(-2.66 -2.73)"/><path class="cls-14" d="M26.91,39.65l.84-.16a1.56,1.56,0,0,0,1.12-.81c.15-.36,0-.71-.46-.63l-.58.11a1,1,0,0,0-.6.14l-.09.05a1.4,1.4,0,0,0-.74.86.4.4,0,0,0,.51.44" transform="translate(-2.66 -2.73)"/><path class="cls-14" d="M29.56,39.74c.29.26.82.09,1.09-.13s.7-.72.41-1.1a.93.93,0,0,0-1-.27,1.28,1.28,0,0,0-.95,1,.45.45,0,0,0,.46.52" transform="translate(-2.66 -2.73)"/><path class="cls-33" d="M29.09,40.4a.86.86,0,0,0,.54-.34.45.45,0,0,0,.23,0c.45-.26.48-1.25.38-1.67s-.56-.57-1-.67h-.05l-.08,0-.08,0a.6.6,0,0,0-.61.08.56.56,0,0,0-.55.13l-.05-.08c-.21-.36-.44.07-.52.29a1.9,1.9,0,0,0,0,1.35,2.71,2.71,0,0,0,.71.8l0,0a.8.8,0,0,0,1,.11" transform="translate(-2.66 -2.73)"/><path class="cls-15" d="M33.6,37.17c.29-.45-.66-1.23-1-1.36-.58-.22-1.19.22-1.71.48-.33.17-.66.35-1,.54l-.72.3a.22.22,0,0,0-.14.27.1.1,0,0,0-.05,0c-.4.28.9,1.55,1.31,1.41l.54-.21a4.07,4.07,0,0,0,.85-.26,4,4,0,0,0,1.91-1.21" transform="translate(-2.66 -2.73)"/><path class="cls-33" d="M31.09,38.36c-.23-.32-.45-.64-.68-1a1.6,1.6,0,0,0-.82-.61l-.07,0c-.13-.05-.46-.11-.48.12V37h0c-.22-.09-.38,0-.44.13a.19.19,0,0,0-.17.19c-.26,0-.31.56-.61.73s.41.71.61.47.62.3,1,.34h.06a2.58,2.58,0,0,0,.32.18c.16.08.47.2.6.07a.24.24,0,0,0,.13-.07.78.78,0,0,0,.64.19c.39-.13,0-.69-.12-.86" transform="translate(-2.66 -2.73)"/><path d="M28.59,41.49c1.28-.74,2.53-1.56,3.76-2.39,1-.68,2.06-1.64,1.85-3-.51-3.37-7.1,1.09-8.2,2-.28.24,0,1.51.26,1.32,1.13-1,6.25-4.68,7.64-2.73L33.72,36c0,1-1.77,1.91-2.51,2.39-.95.61-1.9,1.24-2.88,1.8-.3.17-.06,1.5.26,1.32" transform="translate(-2.66 -2.73)"/><path class="cls-33" d="M26.16,53.47a1,1,0,0,1,.42.48.64.64,0,0,1,.2.11c.36.38.11,1.34-.12,1.71s-.69.38-1.1.36l0,0h-.09l-.07,0a.59.59,0,0,1-.55-.25.55.55,0,0,1-.49-.28l-.08.06c-.3.29-.4-.2-.41-.43a2,2,0,0,1,.37-1.3,2.78,2.78,0,0,1,.91-.56l0,0a.8.8,0,0,1,1,.19" transform="translate(-2.66 -2.73)"/><path class="cls-15" d="M29.42,57.74c.15.52-1,1-1.36,1-.62,0-1.08-.55-1.5-1-.27-.26-.53-.53-.78-.8l-.6-.49a.21.21,0,0,1-.05-.3s-.09-.68-.1-.66c-.23.43,1.19.77,1.5.46.14-.14.53-.59.68-.47s.72.06,1,.27a4.08,4.08,0,0,1,1.22,1.93" transform="translate(-2.66 -2.73)"/><path class="cls-33" d="M27.39,55.64l-.92.72a1.6,1.6,0,0,1-1,.34l-.08,0c-.14,0-.47,0-.42-.26a.94.94,0,0,1,0-.09h0c-.24,0-.38-.09-.39-.25a.19.19,0,0,1-.11-.23c-.24-.12-.14-.63-.37-.87s.59-.56.72-.28.68-.11,1.09,0l.05,0,.36-.08c.18,0,.5-.06.59.11a.18.18,0,0,1,.11.1.79.79,0,0,1,.66,0c.34.24-.2.66-.36.79" transform="translate(-2.66 -2.73)"/><path d="M26,53.58c.44.46,3.92,4,3,4.55s-2.48-1-3-1.45a13.57,13.57,0,0,1-2.9-3c-.2-.3-.26.94-.09,1.21a14.7,14.7,0,0,0,4,3.88c.85.59,2.76,1.44,2.9-.19.21-2.45-2.35-4.73-3.87-6.34a1.76,1.76,0,0,0,0,1.35" transform="translate(-2.66 -2.73)"/><path class="cls-15" d="M20.44,54.52a8.69,8.69,0,1,1,9.1-8.25,8.68,8.68,0,0,1-9.1,8.25" transform="translate(-2.66 -2.73)"/><path d="M25.56,50.44c-.71,0-1.26-.5-1.23-1a1.17,1.17,0,0,1,1.33-.92c.7,0,1.25.5,1.22,1a1.16,1.16,0,0,1-1.32.92" transform="translate(-2.66 -2.73)"/><path d="M25.88,44c-.71,0-1.26-.5-1.23-1A1.16,1.16,0,0,1,26,42c.71,0,1.26.5,1.23,1a1.16,1.16,0,0,1-1.32.92" transform="translate(-2.66 -2.73)"/><path d="M20.41,53.84c-4.56-.46-8.46-4.15-7.71-9a8.37,8.37,0,0,1,8.68-6.91c4.88.25,8.79,4.83,7.46,9.76a8.5,8.5,0,0,1-8.54,6.19c-.51,0-.29,1.35.29,1.35,11.84,0,12.32-18.19.61-18.7C9.25,36,8.94,54,20.48,55.19c.62.06.45-1.3-.07-1.35" transform="translate(-2.66 -2.73)"/><path class="cls-34" d="M17.68,53.47a2.93,2.93,0,0,0,1.7-.44,2.13,2.13,0,0,0,.26-.21c1-.19,2.31-1.1,1.55-2.29l0,0c.13-.55-.48-1-1.13-.86-.05-.08-.06-.55-.1-.63s.21-.35.09-.39a2.37,2.37,0,0,0-.25-.29c0-.07,0-.16.06-.25.07-.28.13-.57.2-.85,0-.11.29-.1.28-.22s.37-.18.49-.37.15,0,.33-.23c0,0,.42,0,.44,0l-.2-.15-.25-.2c.3.17.63,0,.74-.45a2.12,2.12,0,0,0,0-1,3.53,3.53,0,0,0-.31-1.16,1.68,1.68,0,0,0,0-.89c.15-1-.72-2.33-1.72-2.09a4.68,4.68,0,0,0-.57-1V39.2c.1-.37,0-1.56-.64-1.43C15.9,38.3,13.3,42,12.7,44.52c-.72,3.15.73,5.79,2.89,8a.36.36,0,0,0,.35.14,2.33,2.33,0,0,0,1.74.84" transform="translate(-2.66 -2.73)"/><path class="cls-35" d="M17.55,54.28C20.74,54,22.13,52,22.12,49c0-.33-1.63.06-1.84.51-.22-1.24.17-3,2.08-2.89a.55.55,0,0,0,.33-.73c-.69-1.8.5-6.93-3.19-5.77l.51.78c.51-1.57.65-3.51-1.41-3.69-.51-.05-.45,1.06.09,1.1l.59,2.08c-.11.33.08.91.51.78,1.72-.54,1.78,4.08,2.16,5.07l.33-.73c-1.71.44-4.13,2.9-2.49,4.59a1.37,1.37,0,0,0,1.77-.2c-.23-.11-1.71,3.08-4.09,3.27-.53,0-.44,1.15.08,1.11" transform="translate(-2.66 -2.73)"/><path class="cls-36" d="M15.45,46.64c0,1.34.41,3.07,1.77,3.65.36.15.38-1.19,0-1.34A2.08,2.08,0,0,1,16,47c0-.2,0-.75-.27-.83s-.27.37-.28.51" transform="translate(-2.66 -2.73)"/><path class="cls-36" d="M16.31,44.24c-.23-.63.36-1.19.87-1.43s.2-1.58-.33-1.32A2.73,2.73,0,0,0,15.71,45c.09.24.35.41.55.19s.15-.69,0-1" transform="translate(-2.66 -2.73)"/><path class="cls-36" d="M16.42,46.39a2.17,2.17,0,0,0,2.19-.55c.41-.4,0-1.68-.57-1.15a1.52,1.52,0,0,1-1.51.35c-.64-.2-.68,1.18-.11,1.35" transform="translate(-2.66 -2.73)"/><path class="cls-36" d="M15,44.51a2.12,2.12,0,0,0-1.9.93,1.11,1.11,0,0,0,0,1c.08.19.3.46.49.2a1.72,1.72,0,0,1,1.57-.71c.43,0,.37-1.34-.13-1.38" transform="translate(-2.66 -2.73)"/></g></g></g></g></g></svg>