<svg xmlns="http://www.w3.org/2000/svg" viewBox="0 0 76.79 77.41"><defs><style>.cls-1,.cls-6{fill:#458d65;}.cls-1,.cls-4{stroke:#000;}.cls-1,.cls-4,.cls-5{stroke-miterlimit:10;}.cls-2{fill:#70af79;}.cls-3{fill:#277258;}.cls-4,.cls-5{fill:none;}.cls-4{stroke-width:2.83px;}.cls-5{stroke:#246453;}</style></defs><title>palatka</title><g id="Layer_2" data-name="Layer 2"><g id="Layer_7" data-name="Layer 7"><rect class="cls-1" x="5.02" y="5.39" width="67" height="67"/><polygon class="cls-2" points="5.27 72.43 38.45 38.81 5.58 6.37 5.27 72.43"/><polygon class="cls-3" points="71.87 5.37 38.68 39 71.56 71.44 71.87 5.37"/><line class="cls-1" x1="6.1" y1="71.14" x2="38.52" y2="38.89"/><rect class="cls-4" x="5.02" y="5.39" width="67" height="67"/><line class="cls-5" x1="5.02" y1="72.39" x2="72.02" y2="5.39"/><line class="cls-5" x1="4.89" y1="5.27" x2="72.02" y2="72.39"/><circle class="cls-6" cx="5.02" cy="5.02" r="3.88"/><path d="M5,2.27A2.75,2.75,0,1,1,2.27,5,2.75,2.75,0,0,1,5,2.27M5,0H5A5,5,0,0,0,5,10,5,5,0,0,0,5,0Z"/><circle class="cls-6" cx="71.77" cy="5.02" r="3.88"/><path d="M71.77,2.27A2.75,2.75,0,1,1,69,5a2.75,2.75,0,0,1,2.75-2.75m0-2.27h0a5,5,0,1,0,5,5,5,5,0,0,0-5-5Z"/><circle class="cls-6" cx="5.02" cy="72.39" r="3.88"/><path d="M5,69.64a2.75,2.75,0,1,1-2.75,2.75A2.75,2.75,0,0,1,5,69.64m0-2.26a5,5,0,1,0,5,5,5,5,0,0,0-5-5Z"/><circle class="cls-6" cx="71.77" cy="72.39" r="3.88"/><path d="M71.77,69.64A2.75,2.75,0,1,1,69,72.39a2.75,2.75,0,0,1,2.75-2.75m0-2.26a5,5,0,1,0,5,5,5,5,0,0,0-5-5Z"/></g></g></svg>