<svg xmlns="http://www.w3.org/2000/svg" viewBox="0 0 82.46 77.4"><defs><style>.cls-1{fill:#666;}.cls-2{fill:#333;stroke:#e6e6e6;stroke-miterlimit:10;stroke-width:0.28px;}.cls-3{fill:#16bc00;}.cls-4{fill:#fff;}.cls-5{fill:#27c156;}.cls-6{fill:#422942;}.cls-7{fill:#383838;}.cls-8{fill:#292929;}.cls-9{fill:#0071bc;}.cls-10{fill:#8abc00;}.cls-11{fill:#397cbf;}.cls-12{fill:#003c73;}.cls-13{fill:#932f27;}.cls-14{fill:#4f110f;}.cls-15{fill:#fbb03b;}</style></defs><title>human_3</title><g id="Layer_2" data-name="Layer 2"><g id="Слой_1" data-name="Слой 1"><path class="cls-1" d="M46,5.52l.64-.66a1.6,1.6,0,0,1,2.28-.05l2,1.92A1.59,1.59,0,0,1,51,9l-.64.67Z" transform="translate(0 0)"/><circle class="cls-2" cx="49.02" cy="6.65" r="0.74"/><path class="cls-3" d="M66.52,27.11l-.88,1a2.37,2.37,0,0,0-.61,2c.13.57.69.83,1.13.34l.61-.66a1.56,1.56,0,0,0,.61-.73l.06-.14a2.14,2.14,0,0,0,.12-1.73A.62.62,0,0,0,66.52,27.11Z" transform="translate(0 0)"/><path class="cls-3" d="M63.21,29.43c-.61,0-1.09.65-1.23,1.16s-.19,1.53.5,1.72a1.4,1.4,0,0,0,1.5-.6,1.94,1.94,0,0,0,.26-2.07A.7.7,0,0,0,63.21,29.43Z" transform="translate(0 0)"/><path class="cls-3" d="M63.17,28.19a1.34,1.34,0,0,0-.35.91.68.68,0,0,0-.24.27c-.32.73.56,2,1.07,2.39s1.2.18,1.78-.07c0,0,0,0,.06-.05l.12-.05a.2.2,0,0,0,.08-.1.92.92,0,0,0,.66-.66.84.84,0,0,0,.56-.66l.14,0c.59.25.47-.5.36-.84a3,3,0,0,0-1.21-1.67,4.23,4.23,0,0,0-1.6-.33h-.06A1.22,1.22,0,0,0,63.17,28.19Z" transform="translate(0 0)"/><path class="cls-4" d="M60.62,36.29c.05.82,1.93.89,2.49.73.91-.27,1.26-1.36,1.65-2.15.26-.52.49-1,.7-1.57l.6-1a.34.34,0,0,0-.08-.47,1,1,0,0,0,0-.1c.23-.71-2.53-1.07-2.91-.52-.17.25-.32.51-.47.77a5.92,5.92,0,0,0-.8,1.09A6.09,6.09,0,0,0,60.62,36.29Z" transform="translate(0 0)"/><path class="cls-3" d="M62.6,32.53l1.7.54a2.52,2.52,0,0,0,1.56,0L66,33c.2-.07.67-.3.47-.6l-.09-.11h0c.35-.1.49-.34.43-.57a.32.32,0,0,0,0-.4c.28-.29-.13-1,.08-1.45s-1.16-.48-1.19,0c0,.62-1,.2-1.58.53a.34.34,0,0,0-.06.06,5,5,0,0,0-.56.06c-.28.06-.76.19-.79.48a.31.31,0,0,0-.11.2,1.2,1.2,0,0,0-1,.35C61.29,32.1,62.3,32.43,62.6,32.53Z" transform="translate(0 0)"/><path d="M62.53,27.26c-.73,1.69-5.09,10.5-1.77,11.17,1.89.38,3.92-1.43,4.86-2.82a24.61,24.61,0,0,0,3.64-8.37c.12-.52-1.91-.21-2,.34a25.21,25.21,0,0,1-2.18,5.82A16.49,16.49,0,0,1,63.59,36c-.5.66-1.22,1.88-1.88.78a2.91,2.91,0,0,1-.12-1.06A15.23,15.23,0,0,1,63,31c.51-1.37,1-2.75,1.58-4.08.17-.4-1.79-.22-2,.34Z" transform="translate(0 0)"/><path class="cls-3" d="M54.75,9.49a1.33,1.33,0,0,1-1-.21.61.61,0,0,1-.35.06c-.79-.13-1.35-1.54-1.42-2.2s.5-1.11,1-1.46l.07,0,.11-.07a.3.3,0,0,1,.13,0,.92.92,0,0,1,.92-.19.82.82,0,0,1,.85-.11c0-.06,0-.11,0-.15.11-.63.67-.12.89.16A2.88,2.88,0,0,1,56.8,7.2a4.39,4.39,0,0,1-.6,1.53s0,0,0,0A1.23,1.23,0,0,1,54.75,9.49Z" transform="translate(0 0)"/><path class="cls-4" d="M46.83,7.26c-.66-.5.31-2.11.74-2.48.72-.62,1.83-.33,2.71-.22A16.06,16.06,0,0,1,52,4.83l1.18,0a.34.34,0,0,1,.35.32s.73.76.72.73c-.11-.75-2.16.14-2.25.8,0,.3-.11,1.21-.41,1.2s-.94.59-1.46.57A6.18,6.18,0,0,1,46.83,7.26Z" transform="translate(0 0)"/><path class="cls-3" d="M51.25,8l.47-1.72a2.58,2.58,0,0,1,.85-1.31l.09-.08c.16-.14.61-.4.75-.07l.05.14h0c.27-.24.55-.23.71,0a.31.31,0,0,1,.35.18c.39-.07.74.64,1.26.73s-.22,1.23-.64,1-.72.76-1.3,1a.32.32,0,0,1-.09,0,3.65,3.65,0,0,1-.35.43c-.2.2-.57.54-.83.41a.45.45,0,0,1-.23,0,1.17,1.17,0,0,1-.81.6C50.89,9.29,51.16,8.27,51.25,8Z" transform="translate(0 0)"/><path d="M56.15,9.39A47.88,47.88,0,0,1,49.54,7.9c-.87-.29-4.36-1.67-.75-2.75a10.74,10.74,0,0,1,2.83,0,19.21,19.21,0,0,1,5.68,1C58,6.43,59.7,5.4,58.54,5A23.5,23.5,0,0,0,50,3.88c-1.49,0-4.24.42-4.93,2.05-1.33,3.15,8.11,4.35,9.85,4.65.71.12,2.42-1,1.23-1.19Z" transform="translate(0 0)"/><path class="cls-3" d="M66.52,27.11l-.88,1a2.37,2.37,0,0,0-.61,2c.13.57.69.83,1.13.34l.61-.66a1.56,1.56,0,0,0,.61-.73l.06-.14a2.14,2.14,0,0,0,.12-1.73A.62.62,0,0,0,66.52,27.11Z" transform="translate(0 0)"/><path class="cls-3" d="M63.21,29.43c-.61,0-1.09.65-1.23,1.16s-.19,1.53.5,1.72a1.4,1.4,0,0,0,1.5-.6,1.94,1.94,0,0,0,.26-2.07A.7.7,0,0,0,63.21,29.43Z" transform="translate(0 0)"/><path class="cls-5" d="M63.17,28.19a1.34,1.34,0,0,0-.35.91.68.68,0,0,0-.24.27c-.32.73.56,2,1.07,2.39s1.2.18,1.78-.07c0,0,0,0,.06-.05l.12-.05a.2.2,0,0,0,.08-.1.92.92,0,0,0,.66-.66.84.84,0,0,0,.56-.66l.14,0c.59.25.47-.5.36-.84a3,3,0,0,0-1.21-1.67,4.23,4.23,0,0,0-1.6-.33h-.06A1.22,1.22,0,0,0,63.17,28.19Z" transform="translate(0 0)"/><path class="cls-4" d="M60.62,36.29c.05.82,1.93.89,2.49.73.91-.27,1.26-1.36,1.65-2.15.26-.52.49-1,.7-1.57l.6-1a.34.34,0,0,0-.08-.47,1,1,0,0,0,0-.1c.23-.71-2.53-1.07-2.91-.52-.17.25-.32.51-.47.77a5.92,5.92,0,0,0-.8,1.09A6.09,6.09,0,0,0,60.62,36.29Z" transform="translate(0 0)"/><path class="cls-5" d="M62.6,32.53l1.7.54a2.52,2.52,0,0,0,1.56,0L66,33c.2-.07.67-.3.47-.6l-.09-.11h0c.35-.1.49-.34.43-.57a.32.32,0,0,0,0-.4c.28-.29-.13-1,.08-1.45s-1.16-.48-1.19,0c0,.62-1,.2-1.58.53a.34.34,0,0,0-.06.06,5,5,0,0,0-.56.06c-.28.06-.76.19-.79.48a.31.31,0,0,0-.11.2,1.2,1.2,0,0,0-1,.35C61.29,32.1,62.3,32.43,62.6,32.53Z" transform="translate(0 0)"/><path d="M62.53,27.26c-.73,1.68-5.09,10.51-1.77,11.17,1.89.37,3.92-1.44,4.86-2.82a24.61,24.61,0,0,0,3.64-8.37c.12-.51-1.91-.2-2,.34a24.76,24.76,0,0,1-2.18,5.82A16.49,16.49,0,0,1,63.59,36c-.51.66-1.22,1.89-1.88.78a2.91,2.91,0,0,1-.12-1.06A15.23,15.23,0,0,1,63,31c.5-1.37,1-2.75,1.58-4.09.17-.38-1.79-.2-2,.35Z" transform="translate(0 0)"/><path class="cls-5" d="M54.75,9.49a1.33,1.33,0,0,1-1-.21.61.61,0,0,1-.35.06c-.79-.13-1.35-1.54-1.42-2.2s.5-1.11,1-1.46l.07,0,.11-.07a.3.3,0,0,1,.13,0,.92.92,0,0,1,.92-.19.82.82,0,0,1,.85-.11c0-.06,0-.11,0-.15.11-.63.67-.12.89.16A2.88,2.88,0,0,1,56.8,7.2a4.39,4.39,0,0,1-.6,1.53s0,0,0,0A1.23,1.23,0,0,1,54.75,9.49Z" transform="translate(0 0)"/><path class="cls-4" d="M46.83,7.26c-.66-.5.31-2.11.74-2.48.72-.62,1.83-.33,2.71-.22A16.06,16.06,0,0,1,52,4.83l1.18,0a.34.34,0,0,1,.35.32s.73.76.72.73c-.11-.75-2.16.14-2.25.8,0,.3-.11,1.21-.41,1.2s-.94.59-1.46.57A6.18,6.18,0,0,1,46.83,7.26Z" transform="translate(0 0)"/><path class="cls-5" d="M51.25,8l.47-1.72a2.58,2.58,0,0,1,.85-1.31l.09-.08c.16-.14.61-.4.75-.07l.05.14h0c.27-.24.55-.23.71,0a.31.31,0,0,1,.35.18c.39-.07.74.64,1.26.73s-.22,1.23-.64,1-.72.76-1.3,1a.32.32,0,0,1-.09,0,3.65,3.65,0,0,1-.35.43c-.2.2-.57.54-.83.41a.45.45,0,0,1-.23,0,1.17,1.17,0,0,1-.81.6C50.89,9.29,51.16,8.27,51.25,8Z" transform="translate(0 0)"/><path d="M56.38,9.6a47.56,47.56,0,0,1-6.61-1.49c-.64-.21-2.34-.83-2.66-1.67-.67-1.77,2.8-1.54,3.51-1.52a20.24,20.24,0,0,1,6.33,1,3,3,0,0,0,1.94-.69,23.29,23.29,0,0,0-8-1.13c-1.76,0-4.26.17-5.54,1.61-2.47,2.76,7.85,4.41,9.3,4.66.47.08,2.21-.68,1.69-.77Z" transform="translate(0 0)"/><circle class="cls-4" cx="68.24" cy="13.97" r="13.3"/><ellipse cx="59.11" cy="13.9" rx="1.96" ry="1.5" transform="translate(2.36 35.5) rotate(-34.07)"/><ellipse cx="64.66" cy="22.11" rx="1.96" ry="1.5" transform="translate(-1.29 40.02) rotate(-34.07)"/><path d="M61.45,3.76c6-3.64,14.18-2.7,17.75,4a12.8,12.8,0,0,1-4.29,16.43c-6.19,4.18-15.2,2.17-18.09-5.09-2.33-5.83-.09-11.78,4.77-15.43.63-.47-.9-1.93-1.61-1.4-14.48,10.9,1.63,33.6,16.44,23.47C91.53,15.4,75.31-7,60.12,2.16,59.31,2.66,60.77,4.17,61.45,3.76Z" transform="translate(0 0)"/><path class="cls-6" d="M65.13,1.69a4.63,4.63,0,0,0-1.68,2.12,3.22,3.22,0,0,0-.12.48c-1.07,1.17-1.81,3.48.21,4.24h.05a1.28,1.28,0,0,0,2.17,0c.13,0,.57.62.7.67s.07.64.25.57a3,3,0,0,0,.58.12,2.61,2.61,0,0,0,.15.37c.18.41.36.81.53,1.22.07.17-.26.39-.14.53,0,.28-.29.56-.26.9-.14.27-.17.15-.19.58,0,0-.48.43-.52.43h.39s.53,0,.49,0c-.53.08-.72.64-.49,1.22a3.16,3.16,0,0,0,.91,1.28,5.28,5.28,0,0,0,1.45,1.14,2.6,2.6,0,0,0,.82,1.1c.74,1.36,3,2.18,4,1a7.59,7.59,0,0,0,1.65.74l.18.22c.22.54,1.42,1.91,2.1,1.17,2.87-3.18,2.7-10,1.07-13.73-2-4.52-6.22-6.42-10.86-7.11a.57.57,0,0,0-.56.16A3.57,3.57,0,0,0,65.13,1.69Z" transform="translate(0 0)"/><path class="cls-7" d="M64.55.59c-3.67,3.24-3.51,7-.74,10.66.31.41,1.94-1.56,1.77-2.31,1.42,1.32,2.59,3.88.11,5.46A.85.85,0,0,0,66,15.59c2.49,1.57,5.75,8.94,9.21,4.14l-1.34-.49c.81,2.38,2.42,4.89,5.11,3.22.66-.41-.43-1.71-1.12-1.27l-2.64-2c-.17-.5-.93-1.05-1.34-.48-1.6,2.23-5.93-3.36-7.31-4.23l.28,1.2c1.69-2.11,2.4-7.35-1.17-7.91-.83-.13-2.13,1.05-2,1.87.39-.08-.74-5.35,2-7.77.61-.53-.52-1.81-1.12-1.28Z" transform="translate(0 0)"/><path class="cls-8" d="M74.62,7.71a5.13,5.13,0,0,0-5.51-2.1c-.23,0-1,.31-.92.67s.93.16,1.14.11c1.27-.3,2.71,1.15,3.36,2.06.32.44,2.31-.22,1.93-.74Z" transform="translate(0 0)"/><path class="cls-8" d="M74.5,11.53a2.57,2.57,0,0,1,.89,3.37c-.48.93,1.58.77,1.93.11a3.39,3.39,0,0,0-1.21-4.54c-.62-.4-2.49.49-1.61,1.06Z" transform="translate(0 0)"/><path class="cls-8" d="M73.56,9.41a3.87,3.87,0,0,0-2.72,3c-.14,1,2,.72,2.08-.17a1.87,1.87,0,0,1,1-1.5c.38-.13,1-.44.84-.95s-.84-.53-1.2-.4Z" transform="translate(0 0)"/><path class="cls-8" d="M76.57,9.72a3.57,3.57,0,0,0,1.76-3.17c0-.62-2.07-.23-2,.55a2.36,2.36,0,0,1-1,2c-.29.19-.6.55-.19.78a1.68,1.68,0,0,0,1.46-.19Z" transform="translate(0 0)"/><path class="cls-1" d="M21.14,38.35l-.92-.07a1.62,1.62,0,0,1-1.49-1.74L19,33.78a1.61,1.61,0,0,1,1.73-1.48l.92.07Z" transform="translate(0 0)"/><circle class="cls-2" cx="20.1" cy="35.31" r="0.74"/><path class="cls-9" d="M24.84,8.8l1.3.07a2.34,2.34,0,0,0,2-.81c.36-.47.2-1.06-.45-1.1l-.89,0a1.58,1.58,0,0,0-1,0l-.14,0a2.14,2.14,0,0,0-1.42,1A.61.61,0,0,0,24.84,8.8Z" transform="translate(0 0)"/><path class="cls-9" d="M28.74,9.9c.35.49,1.19.43,1.68.21s1.3-.83,1-1.48A1.42,1.42,0,0,0,30,7.85,1.92,1.92,0,0,0,28.25,9,.71.71,0,0,0,28.74,9.9Z" transform="translate(0 0)"/><path class="cls-9" d="M27.81,10.71a1.3,1.3,0,0,0,.92-.31.73.73,0,0,0,.36,0c.76-.22,1.17-1.68,1.17-2.34s-.63-1-1.18-1.34H29l-.12-.06a.19.19,0,0,0-.13,0,.92.92,0,0,0-.93-.1.83.83,0,0,0-.86,0,.53.53,0,0,1-.06-.14c-.18-.62-.68,0-.87.25a3,3,0,0,0-.53,2,4.28,4.28,0,0,0,.76,1.46l0,.05A1.24,1.24,0,0,0,27.81,10.71Z" transform="translate(0 0)"/><path class="cls-4" d="M35.69,7.55c.6-.56-.54-2.06-1-2.38-.79-.54-1.86-.12-2.72.08-.56.12-1.11.28-1.65.45l-1.17.18a.34.34,0,0,0-.31.35l-.1,0c-.7.28.77,2.63,1.44,2.57.3,0,.59-.07.89-.11a5.9,5.9,0,0,0,1.35-.08A6.08,6.08,0,0,0,35.69,7.55Z" transform="translate(0 0)"/><path class="cls-9" d="M31.52,8.4l-.66-1.66a2.46,2.46,0,0,0-1-1.2l-.09-.08c-.18-.11-.65-.33-.75,0,0,0,0,.09,0,.14h0c-.29-.21-.57-.17-.71,0a.3.3,0,0,0-.32.22c-.4,0-.67.72-1.18.86s.36,1.2.75.93.8.67,1.41.88l.08,0a3.78,3.78,0,0,0,.41.39c.22.18.62.47.86.31a.37.37,0,0,0,.23,0,1.19,1.19,0,0,0,.87.51C32,9.68,31.64,8.7,31.52,8.4Z" transform="translate(0 0)"/><path d="M26.82,11.55C28.77,11,38.13,9,37.64,5.88c-.34-2.16-4.64-1.62-6-1.41A29,29,0,0,0,23.37,7c-1.23.61.64.76,1.23.46a22.91,22.91,0,0,1,6.06-1.93c1.06-.21,2.92-.72,3.87,0,1.88,1.38,0,2.29-1,2.78a49.36,49.36,0,0,1-6.91,2.36c-1.2.34-1,1.21.22.86Z" transform="translate(0 0)"/><path class="cls-9" d="M18.67,29.07a1.38,1.38,0,0,1,.44.87.63.63,0,0,1,.27.24c.4.69-.34,2-.8,2.49s-1.18.31-1.78.13c0,0,0,0-.06,0l-.13,0a.2.2,0,0,1-.09-.09.9.9,0,0,1-.73-.58.85.85,0,0,1-.63-.6l-.13.07c-.56.31-.53-.44-.45-.79a2.93,2.93,0,0,1,1-1.8,4.1,4.1,0,0,1,1.55-.5l.06,0A1.23,1.23,0,0,1,18.67,29.07Z" transform="translate(0 0)"/><path class="cls-4" d="M22,36.61c0,.82-1.83,1.1-2.4,1-.93-.17-1.4-1.21-1.88-2a16.76,16.76,0,0,1-.86-1.48c-.24-.31-.48-.62-.71-.94a.34.34,0,0,1,0-.47s.13-1,.1-1c-.5.56,1.48,1.58,2.06,1.24.25-.16,1-.68,1.18-.45s1.05.36,1.37.77A6.28,6.28,0,0,1,22,36.61Z" transform="translate(0 0)"/><path class="cls-9" d="M19.7,32.75l-1.63.73a2.53,2.53,0,0,1-1.55.16h-.13c-.2,0-.69-.22-.52-.54,0-.05.05-.08.07-.13h0c-.36-.05-.52-.28-.48-.52a.3.3,0,0,1-.08-.38c-.31-.26,0-1-.24-1.44s1.09-.61,1.18-.14,1,.08,1.62.36c0,0,0,0,.08.05a3.49,3.49,0,0,1,.56,0c.28,0,.77.1.84.38a.36.36,0,0,1,.13.19,1.16,1.16,0,0,1,1,.25C21,32.18,20,32.62,19.7,32.75Z" transform="translate(0 0)"/><path d="M17.52,28.42c.73,1.28,1.37,2.6,2,3.92a11.65,11.65,0,0,1,1.55,4A3.3,3.3,0,0,1,21,37.8l.37-.27a4.88,4.88,0,0,1-1-.46,9,9,0,0,1-2-2.1,21.33,21.33,0,0,1-3.66-6.15c-.17-.51-2.21.09-2.05.55a22.58,22.58,0,0,0,4.5,7.19c1.2,1.38,3.26,2.63,5.09,1.6s.85-3.29.2-4.71c-.87-1.89-1.79-3.78-2.81-5.58-.31-.53-2.25.22-2.06.55Z" transform="translate(0 0)"/><path class="cls-9" d="M24.84,8.8l1.3.07a2.34,2.34,0,0,0,2-.81c.36-.47.2-1.06-.45-1.1l-.89,0a1.58,1.58,0,0,0-1,0l-.14,0a2.14,2.14,0,0,0-1.42,1A.61.61,0,0,0,24.84,8.8Z" transform="translate(0 0)"/><path class="cls-9" d="M28.74,9.9c.35.49,1.19.43,1.68.21s1.3-.83,1-1.48A1.42,1.42,0,0,0,30,7.85,1.92,1.92,0,0,0,28.25,9,.71.71,0,0,0,28.74,9.9Z" transform="translate(0 0)"/><path class="cls-10" d="M27.81,10.71a1.3,1.3,0,0,0,.92-.31.73.73,0,0,0,.36,0c.76-.22,1.17-1.68,1.17-2.34s-.63-1-1.18-1.34H29l-.12-.06a.19.19,0,0,0-.13,0,.92.92,0,0,0-.93-.1.83.83,0,0,0-.86,0,.53.53,0,0,1-.06-.14c-.18-.62-.68,0-.87.25a3,3,0,0,0-.53,2,4.28,4.28,0,0,0,.76,1.46l0,.05A1.24,1.24,0,0,0,27.81,10.71Z" transform="translate(0 0)"/><path class="cls-4" d="M35.69,7.55c.6-.56-.54-2.06-1-2.38-.79-.54-1.86-.12-2.72.08-.56.12-1.11.28-1.65.45l-1.17.18a.34.34,0,0,0-.31.35l-.1,0c-.7.28.77,2.63,1.44,2.57.3,0,.59-.07.89-.11a5.9,5.9,0,0,0,1.35-.08A6.08,6.08,0,0,0,35.69,7.55Z" transform="translate(0 0)"/><path class="cls-10" d="M31.52,8.4l-.66-1.66a2.46,2.46,0,0,0-1-1.2l-.09-.08c-.18-.11-.65-.33-.75,0,0,0,0,.09,0,.14h0c-.29-.21-.57-.17-.71,0a.3.3,0,0,0-.32.22c-.4,0-.67.72-1.18.86s.36,1.2.75.93.8.67,1.41.88l.08,0a3.78,3.78,0,0,0,.41.39c.22.18.62.47.86.31a.37.37,0,0,0,.23,0,1.19,1.19,0,0,0,.87.51C32,9.68,31.64,8.7,31.52,8.4Z" transform="translate(0 0)"/><path d="M26.91,11.86C29.05,11.24,38.07,9.37,37.65,6c-.28-2.15-3.91-2.1-5.41-1.91a27.31,27.31,0,0,0-8.72,2.56c-1.25.63-.14,1.82.93,1.28A24,24,0,0,1,30.31,6a12.23,12.23,0,0,1,3.06-.44,1.58,1.58,0,0,1,2,1.19,2.5,2.5,0,0,1-1.18.92C32,9,29,9.67,26.51,10.38c-1.26.36-.88,1.84.4,1.48Z" transform="translate(0 0)"/><path class="cls-10" d="M18.67,29.07a1.38,1.38,0,0,1,.44.87.63.63,0,0,1,.27.24c.4.69-.34,2-.8,2.49s-1.18.31-1.78.13c0,0,0,0-.06,0l-.13,0a.2.2,0,0,1-.09-.09.9.9,0,0,1-.73-.58.85.85,0,0,1-.63-.6l-.13.07c-.56.31-.53-.44-.45-.79a2.93,2.93,0,0,1,1-1.8,4.1,4.1,0,0,1,1.55-.5l.06,0A1.23,1.23,0,0,1,18.67,29.07Z" transform="translate(0 0)"/><path class="cls-4" d="M22,36.61c0,.82-1.83,1.1-2.4,1-.93-.17-1.4-1.21-1.88-2a16.76,16.76,0,0,1-.86-1.48c-.24-.31-.48-.62-.71-.94a.34.34,0,0,1,0-.47s.13-1,.1-1c-.5.56,1.48,1.58,2.06,1.24.25-.16,1-.68,1.18-.45s1.05.36,1.37.77A6.28,6.28,0,0,1,22,36.61Z" transform="translate(0 0)"/><path class="cls-10" d="M19.7,32.75l-1.63.73a2.53,2.53,0,0,1-1.55.16h-.13c-.2,0-.69-.22-.52-.54,0-.05.05-.08.07-.13h0c-.36-.05-.52-.28-.48-.52a.3.3,0,0,1-.08-.38c-.31-.26,0-1-.24-1.44s1.09-.61,1.18-.14,1,.08,1.62.36c0,0,0,0,.08.05a3.49,3.49,0,0,1,.56,0c.28,0,.77.1.84.38a.36.36,0,0,1,.13.19,1.16,1.16,0,0,1,1,.25C21,32.18,20,32.62,19.7,32.75Z" transform="translate(0 0)"/><path d="M17.6,28.57c.7,1.22,1.32,2.5,1.94,3.77a12.59,12.59,0,0,1,1.54,3.86c0,.17.11,1,0,1.13s-1.51-.93-1.33-.78a12.58,12.58,0,0,1-1.61-1.88,21,21,0,0,1-3.46-5.85c-.27-.78-2.31-.2-2.05.55A22,22,0,0,0,17.46,37c1.12,1.17,3.4,2.45,5,1.26s.52-3.63-.1-5c-.88-1.88-1.79-3.77-2.82-5.57-.36-.63-2.36,0-1.9.84Z" transform="translate(0 0)"/><circle class="cls-4" cx="13.59" cy="15.79" r="13.3"/><ellipse cx="19.31" cy="22.9" rx="1.5" ry="1.96" transform="translate(-8.16 34.85) rotate(-73.37)"/><ellipse cx="22.15" cy="13.4" rx="1.5" ry="1.96" transform="translate(2.97 30.79) rotate(-73.37)"/><path d="M10,27.51C3.37,25.17-1.08,18.25,1.83,11.26a12.81,12.81,0,0,1,15.44-7.1c7.15,2.15,11.3,10.39,7.51,17.23-3,5.49-9.06,7.52-15,6.08-.76-.19-.92,1.92-.06,2.13,17.6,4.3,25-22.54,7.75-27.59C-.06-3.14-7.14,23.62,9.59,29.55,10.49,29.87,10.73,27.78,10,27.51Z" transform="translate(0 0)"/><path class="cls-11" d="M1,12.78c.88.53,1.23,1.89,1.74,2.78a4.06,4.06,0,0,0,2.15,2.09,7.93,7.93,0,0,1,1-2.92c.21-.37.67-.76,1-.49a.71.71,0,0,1,.19.57c0,1.1-.07,2.2.07,3.29A4.07,4.07,0,0,0,8.59,21a.7.7,0,0,0,.47.17c.23,0,.36-.27.47-.48,1-2.05,1.82-4.36,3.68-5.69a.93.93,0,0,1,.45-.21.73.73,0,0,1,.7.5c.11.29.7,1.13.68,1.44.76-.23.39-1.75.24-2.53a4.74,4.74,0,0,0-1.78-2.71A9.31,9.31,0,0,0,10.55,10a18.17,18.17,0,0,0-5.28-.85A5.58,5.58,0,0,0,4,9.26C2.45,9.65,1.82,11.41,1,12.78" transform="translate(0 0)"/><path class="cls-12" d="M.06,13.14C1.76,14.6,1.76,17,4,18c.4.19,1.88,0,2-.53a6.2,6.2,0,0,1,1.35-3.29l-1.37.5c.45,0-.58,7.43,3.1,6.81,2.93-.49,2.55-5.35,5.26-6.6l-1.44.25c.58.19,1,1.26,1.18,1.81s1.71-.13,2-.33c1.19-1,.33-3.3-.37-4.34C14.23,10.23,11.41,9.44,9.13,9c-1.85-.34-4-.63-5.82.09S.87,11.38,0,13c-.18.34,1.74.21,2-.34.93-1.69,1.1-2.63,3.64-3a10.93,10.93,0,0,1,4.82,1,6,6,0,0,1,3.51,3c.3.69.82,2.5.09,3.1l2-.33c-.51-1.63-1.32-2.51-3-1.84a5.73,5.73,0,0,0-2.5,2.28c-.73,1-1.28,3.59-2.3,4.21L9.9,20.7c-2.67-.95-1.37-4.88-2-6.74-.07-.21-.43-.17-.59-.17-2.37,0-3,1.88-3.42,4l2-.53c-2.12-1-2.23-3.45-3.89-4.87-.44-.37-2.29.41-1.93.72Z" transform="translate(0 0)"/><path class="cls-13" d="M42.35,65.72s.41,6.89,2,7.35a40.56,40.56,0,0,0,9.18.23c.27-.26,3.63,3.41,3.63,3.41s3.11-4-1.14-7.09-6.55-1.53-7-2.82-1-1.53-1-1.53Z" transform="translate(0 0)"/><path class="cls-14" d="M40.9,66.11c.13,2,.22,4.42,1.1,6.24s2.72,1.59,4.53,1.67a34.16,34.16,0,0,0,6.63-.11c1.88-.28-.63-.19-.68,0a18,18,0,0,0,1.39,1.27c.66.65,1.29,1.32,1.92,2,.46.5,2.33-.12,2.68-.59,3.65-4.94-1.82-8.9-6.45-9.71a4.15,4.15,0,0,1-1.32-.21c-.48-.38-.41-1.18-.88-1.59a1.64,1.64,0,0,0-1.19-.45c-1.76-.24-3.89.3-5.67.44-.81.06-3.13,1.39-1.23,1.24,1.57-.12,3.16-.19,4.73-.37a4.08,4.08,0,0,1,.94-.07c-1-.37-.22.45,0,.9.34.6.35.78,1,1.1a8.25,8.25,0,0,0,2,.3,9.92,9.92,0,0,1,5,2.55,4.62,4.62,0,0,1,.42,6l2.68-.59c-.93-1-2.26-3-3.6-3.44-.7-.23-1.22.11-1.9.17.93-.08.14-.09-.32-.11-.67,0-1.35,0-2,0-2.11,0-5.07.52-5.94-1.74a19.73,19.73,0,0,1-.93-5.77C43.76,64.75,40.84,65.26,40.9,66.11Z" transform="translate(0 0)"/><path class="cls-13" d="M54.75,55.59a4.64,4.64,0,0,0-1.08-2.48,2.76,2.76,0,0,0-.37-.34c-.53-1.49-2.22-3.23-3.84-1.8l0,0c-.87-.08-1.42,1-1,1.91-.11.09-.82.21-.92.3s-.59-.23-.62,0a4,4,0,0,0-.38.46,2.35,2.35,0,0,0-.4,0l-1.32-.1c-.19,0-.22-.42-.41-.38-.23-.16-.35-.51-.67-.65s-.05-.22-.42-.44c0,0-.15-.62-.14-.66l-.18.34s-.26.46-.25.43c.18-.5-.22-.94-.85-1a3.08,3.08,0,0,0-1.56.21,5.15,5.15,0,0,0-1.68.74,2.7,2.7,0,0,0-1.36.21c-1.54,0-3.34,1.65-2.74,3.09a7.49,7.49,0,0,0-1.43,1.11l-.29.06c-.57-.06-2.35.35-2,1.31,1.46,4,7.59,7.09,11.63,7.38,4.93.35,8.58-2.48,11.37-6.26a.55.55,0,0,0,.12-.56A3.57,3.57,0,0,0,54.75,55.59Z" transform="translate(0 0)"/><path class="cls-15" d="M31.85,44.14c.07-.29-.07-.56-.51-.65a1.74,1.74,0,0,0-1.1-.33,4.4,4.4,0,0,0-.73.07,6.36,6.36,0,0,0-2.34.67,1.26,1.26,0,0,0-.38.31,2.54,2.54,0,0,0-1,2.44v0h0c0,.14,0,.29,0,.44s0,0,0,0a1.13,1.13,0,0,0,.5.91.78.78,0,0,0,.24.19,1.73,1.73,0,0,0-.08.18c-.26,1.1.22,2.23.25,3.34,0,.61,2.95.18,2.92-.69,0-.57,0-1.14,0-1.7a2.09,2.09,0,0,0,0-.74s0,0,0-.06h0a.52.52,0,0,0,.18-.34v-.7a.16.16,0,0,0-.07-.15,3.28,3.28,0,0,0,.85-2.16l.08,0c.09,0,.17-.08.26-.12L31,45l.25-.16.15-.09.08-.09.12-.09a1.15,1.15,0,0,0,.14-.17h0s0-.06,0-.09l0-.06A.61.61,0,0,0,31.85,44.14Z" transform="translate(0 0)"/><path class="cls-15" d="M59.67,47.86a.69.69,0,0,0-.31-.69,4.1,4.1,0,0,0-.09-.68.84.84,0,0,0-.15-.3,1.28,1.28,0,0,0-.28-1,1.3,1.3,0,0,0-.72-.36c-.06-.07-.11-.15-.18-.22a1.54,1.54,0,0,0-1.08-.4l-.08-.08a2.58,2.58,0,0,0-.58-.37l-.53-.23a1.29,1.29,0,0,0-.56-.08,2.15,2.15,0,0,0-1.7.55c-.31.31-.45.88,0,1.12a5.89,5.89,0,0,0,.94.4l.1.09.07,0c-.16.4,0,.84.55,1.22a1.31,1.31,0,0,0,.37.33,3.87,3.87,0,0,0,.35,2,12.79,12.79,0,0,0-.13,1.76,1.07,1.07,0,0,0,.08.33c-.13.4-.25.81-.38,1.22-.43,1.38,2.4.67,2.83,0a6.13,6.13,0,0,0,.88-1.84.52.52,0,0,0-.09-.52A6.38,6.38,0,0,0,59.67,47.86Z" transform="translate(0 0)"/><path class="cls-4" d="M54.74,48.26a5.77,5.77,0,0,0-.61-1.12,4.21,4.21,0,0,0-.15-.72,4.35,4.35,0,0,0-1.8-2.36.63.63,0,0,0,0-.84,7.5,7.5,0,0,0-4.65-2.84,3.81,3.81,0,0,0-2.06-.59,5.94,5.94,0,0,0-3.78,0,5.51,5.51,0,0,0-3.57.62,4.53,4.53,0,0,0-1.75,1l-.07,0a3.93,3.93,0,0,0-2.9,2c-1,.79-1.6,1.65-1.41,2.39a6.76,6.76,0,0,0-.85,2.08,5.11,5.11,0,0,0-.83,3,2.44,2.44,0,0,0,.11,2,6.73,6.73,0,0,0,.08,1.89,3.71,3.71,0,0,0,.21,1.3c.17.49.82.53,1.25.51a2.43,2.43,0,0,0,.66-.14,2.43,2.43,0,0,0,2.4-.53c-.4-.47,0-1.29.5-1.77a1.66,1.66,0,0,1,.78-1.06,1.6,1.6,0,0,1,1-.41,2.53,2.53,0,0,1,1.57-.79,3.09,3.09,0,0,1,1.8-.56,1.29,1.29,0,0,1,1.16-.12,1.81,1.81,0,0,1,.34.13.36.36,0,0,1,.18.25,5.74,5.74,0,0,0,.82-.69,4.91,4.91,0,0,0,.34.73c.86,1.52,1.9,2,2.91,1.86a3.8,3.8,0,0,0,1.63.12.51.51,0,0,1,.32-.85,1,1,0,0,1,.12-.23,1.43,1.43,0,0,1,0-1.32.58.58,0,0,1,.64-.41,1,1,0,0,1,.75.4.93.93,0,0,1,1.26.47.75.75,0,0,1,.51.14,1.07,1.07,0,0,1,.42.54,1,1,0,0,1,.92.83,1.85,1.85,0,0,1,0,.23.81.81,0,0,1,.37.61.62.62,0,0,1,.34.13c.7-.07,1.41-.43,1.53-1C55.55,51.61,55.7,49.64,54.74,48.26Z" transform="translate(0 0)"/><path class="cls-14" d="M56,55.58c-1.13-4.76-4.53-6.38-9.07-5.65-.49.08.48,2.45,1.22,2.65-1.83.63-4.64.47-4.88-2.46a.85.85,0,0,0-1.18-.32c-2.55,1.47-10.59.89-8,6.2l1.06-1c-2.49-.4-5.45-.15-5.24,3,.05.77,1.7.42,1.65-.4l3-1.39c.52.08,1.36-.33,1.05-.95-1.22-2.47,5.75-3.67,7.16-4.48l-1.18-.32C42.68,53,47,56.08,49.14,53.19a2.11,2.11,0,0,0-.71-2.64c-.12.39,5.06,1.86,5.91,5.42.19.79,1.84.4,1.65-.39Z" transform="translate(0 0)"/><path d="M55,53.08a13.56,13.56,0,0,1-3.19,8.15c-3.42,3.89-10.25,5-14.78,2.35a13.32,13.32,0,0,1-6.56-11.8c.24-8.32,8.64-14.74,16.85-11,5,2.26,7.56,7,7.68,12.3,0,.42,2.07.09,2-.55-.4-18.1-28.17-17.88-28.63-.2C27.93,70.65,55.67,70,57,52.53,57.07,52.18,55,52.42,55,53.08Z" transform="translate(0 0)"/><ellipse cx="48.11" cy="45.06" rx="1.96" ry="1.5" transform="translate(1.7 91.88) rotate(-88.37)"/><ellipse cx="38.2" cy="44.78" rx="1.96" ry="1.5" transform="translate(-7.65 81.7) rotate(-88.37)"/><path class="cls-14" d="M44.43,59.8a6,6,0,0,0,5.13-4.48c.12-.56-1.92-.23-2,.33-.27,1.38-1.25,3-2.75,3.28-.29,0-1.13.22-1.19.6s.64.31.84.27Z" transform="translate(0 0)"/><path class="cls-14" d="M40.64,59.4c-.9.49-1.93-.39-2.41-1.09-.32-.46-2.31.19-1.93.74,1.27,1.84,3.77,1.75,5.56.77.29-.16.6-.43.22-.65s-1.13.06-1.44.23Z" transform="translate(0 0)"/><path class="cls-14" d="M43.81,58.49a3,3,0,0,0-1.18-2.9c-.34-.26-1-.07-1.34.07-.14.05-.91.42-.59.66a2.65,2.65,0,0,1,1.07,2.49c-.09.61,1.95.24,2-.32Z" transform="translate(0 0)"/><path class="cls-14" d="M41.32,61.18A3.05,3.05,0,0,0,43,63.69a1.76,1.76,0,0,0,1.33-.09c.09,0,1-.46.6-.63a2.79,2.79,0,0,1-1.59-2.34c0-.44-2.1-.06-2,.55Z" transform="translate(0 0)"/><path d="M56.91,56.11c1.54-2.69,5.93-7.27,3.81-10.57C59.07,43,55.8,42.38,53,43.09c-1.28.32-.89,1.78.39,1.45,2.33-.59,6,.53,5.74,3.47s-2.83,5.46-4.2,7.84c-.58,1,1.5,1.07,2,.26Z" transform="translate(0 0)"/><path d="M30.38,54.62c-1.29-2.51-3.8-4.83-4.23-7.69-.56-3.76,3.76-3.49,6.06-2.84.64.19,2.4-.77,1.26-1.1-2.94-.83-6.16-.94-8.37,1.46-3.1,3.35,1.68,7.73,3.23,10.72.35.69,2.35,0,2.05-.55Z" transform="translate(0 0)"/></g></g></svg>