<svg xmlns="http://www.w3.org/2000/svg" viewBox="0 0 57.43 61.98"><defs><style>.cls-1{fill:#353535;}.cls-2{fill:#cc7219;}.cls-3{fill:#603813;}.cls-4{fill:none;stroke-linejoin:bevel;stroke-width:2.13px;}.cls-4,.cls-6{stroke:#fff;}.cls-5{fill:#fff;}.cls-6{fill:#ffc612;stroke-miterlimit:10;}</style></defs><title>personaji_3</title><g id="Слой_1" data-name="Слой 1"><path class="cls-1" d="M26.33,48.85a5,5,0,0,0,3,.36,5.36,5.36,0,0,0,4.31-.45,3.48,3.48,0,0,0,2-.63,4.12,4.12,0,0,0,1.78-1,5.25,5.25,0,0,0,.7-.39c0,.26,0,.41.22.31a11.34,11.34,0,0,0,6.17-9.15A12.54,12.54,0,0,0,45,34.65c.09-5.89-3.63-9.72-7.69-13.33a.56.56,0,0,0-.16-.39l-.77-.63c-.5-.4-1.59,2.16-1.24,2.68l.05.09a.54.54,0,0,0,.15.29l.09.08c.3.47.57.94.82,1.41-.68,1.64-.14,4.07.64,6a22,22,0,0,0-.85,6.52c-.14.29-.26.58-.38.87a4.46,4.46,0,0,0-1.08,1.31h-.17a4,4,0,0,0-.46-.13c-.22,0-.41.14-.55.32a3.6,3.6,0,0,0-.52.26A2.73,2.73,0,0,0,29,41.07l-.06,0,0,0a4,4,0,0,0-1.72.11,1,1,0,0,0-.45.32,19.88,19.88,0,0,0-2.3-.33.72.72,0,0,0-.43.21c-.33-.07-.67-.15-1-.21s-.45.16-.66.43H22l-.79-.34a.37.37,0,0,0-.18,0c-.32-.21-.64-.42-1-.63-.64-.39-1.55,2.19-1.24,2.67C20.41,45.86,23.13,48.87,26.33,48.85Z"/><path class="cls-2" d="M7.6,23.05A4.77,4.77,0,0,1,7,18.67a9.49,9.49,0,0,1,3.84-5.38,24.31,24.31,0,0,1,2.71-1.46,13.48,13.48,0,0,0,3.73-2.5,5.73,5.73,0,0,0,1.77-4,3.7,3.7,0,0,0-2.4-3.46,2.75,2.75,0,0,1,2.68.3A4.81,4.81,0,0,1,21,4.38a7.75,7.75,0,0,1-3.87,9.92"/><path class="cls-3" d="M8.54,22.59c-4.31-7,6.71-9.47,9.91-13.37,2.17-2.65,2.17-6.26-1.07-8l-.59,1.33L19.59,4a5.19,5.19,0,0,1,.75,3.42,7.08,7.08,0,0,1-3.72,6.26c-1.21.69-.12,1.85.92,1.26C21,13,23.21,9.6,22.39,5.51c-.61-3.09-2.83-5.16-6-4.38-.45.12-1.34,1-.59,1.34,5.82,3.06-1.18,7.79-4.15,9.42a11.82,11.82,0,0,0-3.78,3c-2,2.5-3,5.78-1.22,8.63.5.82,2.45,0,1.88-.92Z"/><path d="M21.8,45.66c-6.18-5.19-8.2-14.45-2.24-20.82a14.75,14.75,0,0,1,19.52-1.43c6.85,5.2,8,15.76,1.16,21.62-5.49,4.69-12.81,4.46-18.6.52-.74-.51-1.76,1.69-.92,2.27C38,59.56,56.74,33.57,40.21,21.19,23.33,8.55,4.9,34.56,20.56,47.71,21.4,48.41,22.51,46.25,21.8,45.66Z"/><path class="cls-4" d="M2.59,55.91a3.93,3.93,0,0,1,0,.46c0,.71,0,1.15,0,1.33s0,.44,0,.57c0,.3,0,.47,0,.5a.38.38,0,0,1-.24.14s-.1-.06-.14-.16a.86.86,0,0,1-.09-.51L2.19,57c0-.31,0-.63,0-.94v-.22s0-.07,0-.11l0-.31c0-.26.3-.39.91-.39l.75,0,.83,0s.06,0,.07.09l0,.32a1.23,1.23,0,0,0,0,.27c0,.17,0,.29,0,.37s0,.16,0,.29a9.05,9.05,0,0,0,.08,1.11l.06.63c0,.17.05.28.05.32a.28.28,0,0,1-.07.2c0,.05-.11.05-.19,0a.46.46,0,0,1-.16-.15A1.25,1.25,0,0,1,4.35,58v-.61c0-.2,0-.58,0-1.12V56a1.77,1.77,0,0,0,0-.22c0-.05,0-.08-.07-.08h-1A1.67,1.67,0,0,0,2.59,55.91Z"/><path class="cls-4" d="M8,57.28a1.53,1.53,0,0,1-.15.64,2.06,2.06,0,0,1-.38.64.84.84,0,0,1-.65.26,3,3,0,0,1-.57-.08c-.58-.14-.86-.58-.86-1.32a1.83,1.83,0,0,1,0-.33,1.45,1.45,0,0,1,.41-.84,1,1,0,0,1,.85-.31h.11a3.2,3.2,0,0,1,.53.1A1.31,1.31,0,0,1,8,57.28Zm-.49-.42a.71.71,0,0,0-.46-.28l-.25,0c-.17,0-.24,0-.2,0l-.06,0A1.12,1.12,0,0,0,6,57a.82.82,0,0,0-.24.53.56.56,0,0,0,.26.5.86.86,0,0,0,.58.14,1.2,1.2,0,0,0,.61-.23,1,1,0,0,0,.36-.52A.62.62,0,0,0,7.52,56.86Z"/><path class="cls-4" d="M10.51,58.74c-.11.09-.19.11-.25.06a.25.25,0,0,1-.09-.23c0-.08,0-.21,0-.41a1.36,1.36,0,0,0,0-.24l0-.61a1.23,1.23,0,0,0-.09-.62c0-.1-.32-.1-.85,0-.19,0-.29.23-.3.59,0,.18,0,.39,0,.61s0,.22.08.4l0,.19a.21.21,0,0,1,0,.19.32.32,0,0,1-.23.09c-.05,0-.1,0-.16-.11a.56.56,0,0,1-.1-.38l0-.89c0-.38,0-.66,0-.85a.47.47,0,0,1,0-.23.27.27,0,0,1,.17-.16l.18,0,.46-.06A2,2,0,0,1,10,56c.35,0,.54.07.57.19a1.64,1.64,0,0,1,0,.67c0-.09,0,.18,0,.79a5.58,5.58,0,0,0,.05.78A.37.37,0,0,1,10.51,58.74Z"/><path class="cls-4" d="M17.36,58.77c-.05.18-.16.22-.32.13a2.69,2.69,0,0,1-.28-1.11,4.08,4.08,0,0,0-.23-1c-.15-.14-.35.08-.57.66-.05.13-.1.28-.16.46s-.09.29-.1.32l-.11.31a.39.39,0,0,1-.22.23c-.08,0-.15-.09-.22-.33s-.16-.54-.17-.57a4.88,4.88,0,0,1-.22-.48l-.21-.5c-.12-.25-.22-.37-.3-.37s-.15.14-.23.41l-.25,1c0,.1,0,.21-.07.35l0,.3c-.05.2-.12.28-.23.26h0c-.1,0-.15-.13-.15-.31a3.78,3.78,0,0,1,.18-.91c.13-.48.21-.75.22-.8A9.19,9.19,0,0,1,14,55.34a.23.23,0,0,1,.2-.14.41.41,0,0,1,.25,0c.09,0,.18.14.26.33l.09.23.08.2a3.09,3.09,0,0,1,.2.46l.17.46.09.21a.1.1,0,0,0,.17,0c.1,0,.18-.19.25-.42a8.1,8.1,0,0,0,.3-1,1,1,0,0,1,.3-.59.25.25,0,0,1,.36,0,.81.81,0,0,1,.13.48c0,.3,0,.48,0,.53a10.59,10.59,0,0,1,.25,1.09c.1.5.19.86.26,1.1A.64.64,0,0,1,17.36,58.77Z"/><path class="cls-4" d="M20.21,57.92v.36c0,.19,0,.31,0,.36s-.09.2-.18.21l-.23,0-.4,0h-.17a2.7,2.7,0,0,1-1.16-.18.68.68,0,0,1-.35-.66,1.27,1.27,0,0,1,.05-.34.81.81,0,0,1,1-.54,3,3,0,0,0,.58,0c.27,0,.41-.1.41-.2s0-.17-.18-.25a.76.76,0,0,0-.37-.1l-.46.07-.44.08c-.14,0-.21,0-.21-.19a.55.55,0,0,1,.08-.29.19.19,0,0,1,.18-.12l.54-.12.29,0a.72.72,0,0,1,.39.05,1,1,0,0,1,.45.3.93.93,0,0,1,.24.69c0,.07,0,.16,0,.27s0,.25,0,.3A2.28,2.28,0,0,0,20.21,57.92Zm-1.13.35c.46,0,.71-.11.75-.31v-.11c-.06-.14-.2-.2-.43-.2h-.34a1.23,1.23,0,0,0-.75.2.41.41,0,0,0-.15.17c0,.05,0,.11.14.15a1.54,1.54,0,0,0,.52.09Z"/><path class="cls-4" d="M23.31,58.63s0,.11-.13.17-.23,0-.51-.29l-.23-.27L22.21,58a2.43,2.43,0,0,0-.52-.46.2.2,0,0,0-.23,0l-.05,0s-.05.1-.07.23v.12l0,.23.05.26a.22.22,0,0,1-.06.23.27.27,0,0,1-.22.12s-.09,0-.14-.14a.9.9,0,0,1-.1-.49l0-1.15a6.53,6.53,0,0,1,0-1,.26.26,0,0,1,.15-.16.13.13,0,0,1,.19.06l0,.07a1.86,1.86,0,0,1,0,.48c0,.1,0,.18,0,.22a.23.23,0,0,0,.27.21.43.43,0,0,0,.22-.06,2.48,2.48,0,0,0,.57-.59.93.93,0,0,1,.53-.42c.13,0,.19,0,.18.14a.93.93,0,0,1-.08.28,2.55,2.55,0,0,1-.34.44,1.43,1.43,0,0,1-.14.2,1,1,0,0,0-.15.21c0,.07.13.3.43.69a3.16,3.16,0,0,1,.23.32l.22.33A.38.38,0,0,1,23.31,58.63Z"/><path class="cls-4" d="M26.11,57.89c.11,0,.16.09.18.25s-.14.46-.47.61a1.42,1.42,0,0,1-.8.14,1.34,1.34,0,0,1-1.21-1.13,1.94,1.94,0,0,1,0-.35,1.25,1.25,0,0,1,.67-1.25,1.66,1.66,0,0,1,.72-.18,1.72,1.72,0,0,1,.8.23l.12.07a.24.24,0,0,1,.15.25c0,.17-.07.27-.21.29a1,1,0,0,1-.38-.08l-.32-.08-.23,0a.92.92,0,0,0-.92.55.46.46,0,0,0,0,.21.72.72,0,0,0,.23.52.73.73,0,0,0,.5.28h.23a1.2,1.2,0,0,0,.57-.13A1.42,1.42,0,0,1,26.11,57.89Z"/><path class="cls-4" d="M28.79,58.08l.06.35,0,.16a.13.13,0,0,1,0,.16.35.35,0,0,1-.23.08.37.37,0,0,1-.16-.09,1,1,0,0,1-.1-.48.43.43,0,0,1-.1.1,3.77,3.77,0,0,1-.59.32.79.79,0,0,1-.68,0,.59.59,0,0,1-.18-.51,1.52,1.52,0,0,1,0-.41l0-.28a1.28,1.28,0,0,0,0-.22l0-.51a2.14,2.14,0,0,0,0-.25c0-.12,0-.21,0-.27a.3.3,0,0,1,.05-.2c.25-.19.37,0,.37.7v0c0,.09,0,.22,0,.4v.4a1.18,1.18,0,0,0,0,.49c0,.13.15.16.37.07a1.29,1.29,0,0,0,.62-.53,1.25,1.25,0,0,0,.08-.5,1.07,1.07,0,0,0,0-.35s0-.13,0-.27a1.52,1.52,0,0,1,0-.39c0-.09.09-.14.15-.14s.18.07.19.21a4.81,4.81,0,0,1,0,.7l0,.65s0,.15,0,.34S28.79,58,28.79,58.08Z"/><path class="cls-4" d="M29.24,58.78a.21.21,0,0,1-.08-.26c0-.06.08-.31.21-.73s.21-.64.24-.78,0-.21.05-.38a2.5,2.5,0,0,1,.05-.4A.43.43,0,0,1,30,56a.3.3,0,0,1,.35,0,1.58,1.58,0,0,1,.24.63c.07.22.12.33.16.33s.1-.06.16-.19c.18-.42.29-.64.31-.67a.3.3,0,0,1,.23-.11.27.27,0,0,1,.29.22,3.29,3.29,0,0,1,.06.36l.07.36a7.37,7.37,0,0,0,.19.73,5.84,5.84,0,0,1,.19.75v0a.2.2,0,0,1-.12.26.22.22,0,0,1-.27,0,1.38,1.38,0,0,1-.19-.52,5.26,5.26,0,0,0-.16-.55c-.13-.38-.23-.53-.29-.45a1.28,1.28,0,0,0-.18.51s0,.19-.06.44a1.73,1.73,0,0,1-.08.43.24.24,0,0,1-.47,0,3.35,3.35,0,0,1,0-.38,1.59,1.59,0,0,0-.05-.38s0-.07,0-.14l-.05-.18q-.06-.21-.15-.21c-.08,0-.18.24-.29.76s-.18.74-.26.79S29.31,58.84,29.24,58.78Z"/><path class="cls-4" d="M38.75,58.77c0,.18-.16.22-.32.13a2.88,2.88,0,0,1-.28-1.11,4.39,4.39,0,0,0-.22-1c-.16-.14-.35.08-.58.66-.05.13-.1.28-.15.46s-.09.29-.1.32l-.11.31a.4.4,0,0,1-.23.23q-.1,0-.21-.33c-.1-.35-.16-.54-.17-.57a3.29,3.29,0,0,1-.22-.48l-.21-.5c-.12-.25-.22-.37-.3-.37s-.16.14-.23.41l-.25,1c0,.1-.05.21-.08.35l-.05.3c0,.2-.12.28-.23.26h0c-.1,0-.15-.13-.15-.31a3.78,3.78,0,0,1,.18-.91c.14-.48.21-.75.22-.8a10.48,10.48,0,0,1,.36-1.47c0-.07.08-.12.2-.14a.38.38,0,0,1,.24,0c.1,0,.19.14.26.33l.1.23a1.14,1.14,0,0,0,.08.2,4.7,4.7,0,0,1,.2.46,4.55,4.55,0,0,0,.17.46l.09.21c0,.07.09.08.16,0a.67.67,0,0,0,.26-.42,8.1,8.1,0,0,0,.3-1,.87.87,0,0,1,.3-.59.23.23,0,0,1,.35,0,.74.74,0,0,1,.13.48,4.39,4.39,0,0,0,0,.53c.06.21.15.58.25,1.09s.19.86.26,1.1A.64.64,0,0,1,38.75,58.77Z"/><path class="cls-4" d="M39.87,57.66c-.14,0-.19.12-.15.23a.78.78,0,0,0,.74.38,1.55,1.55,0,0,0,.59-.11A1.93,1.93,0,0,1,41.4,58c.08,0,.12.09.12.26a.58.58,0,0,1-.39.49,1.64,1.64,0,0,1-.71.15.91.91,0,0,1-.27,0,1.32,1.32,0,0,1-.95-1.27,2,2,0,0,1,.14-.94,1,1,0,0,1,.57-.61,1.34,1.34,0,0,1,.52-.12,1.49,1.49,0,0,1,.92.29l.14.11a1,1,0,0,1,.29.76.72.72,0,0,1-.08.35l-.81.12c-.27,0-.5.06-.68.07ZM41,57.09c.16,0,.23-.12.2-.22a.09.09,0,0,0,0-.07l-.08-.08a.3.3,0,0,0-.07-.08s-.09,0-.36-.1a.9.9,0,0,0-.9.29c-.07.09-.08.17,0,.24a.26.26,0,0,0,.24.08h.33a1.16,1.16,0,0,0,.33,0Z"/><path class="cls-4" d="M43.82,57.12c0-.09,0-.19,0-.32a1.64,1.64,0,0,1,0-.27,1.67,1.67,0,0,1,0-.39c0-.09.09-.14.16-.14s.17.07.19.21,0,.43,0,.7v.79h0a7.07,7.07,0,0,0,0,.8.34.34,0,0,1-.06.3c-.12.09-.23.11-.31.05s-.09-.1-.09-.22a3.15,3.15,0,0,1,.08-.47,1.1,1.1,0,0,0,0-.24l0-.35-.65.06-.34,0-.12,0a1.49,1.49,0,0,1,0,.21c0,.09,0,.22.08.4l0,.19a.21.21,0,0,1,0,.19.32.32,0,0,1-.23.09s-.1,0-.16-.11a.56.56,0,0,1-.1-.38v-.41a5.12,5.12,0,0,0,0-.56l0-.51a2.14,2.14,0,0,0,0-.25c0-.12,0-.21,0-.27a.3.3,0,0,1,0-.2c.25-.19.37,0,.37.7v.32a.29.29,0,0,0,.23.06h.33a1.07,1.07,0,0,0,.32,0Z"/><path class="cls-4" d="M45.29,57.78a2.07,2.07,0,0,0-.23-.18.73.73,0,0,1-.27-.39.84.84,0,0,1,0-.29.6.6,0,0,1,.08-.29,1.11,1.11,0,0,1,.65-.53,2.21,2.21,0,0,1,.6-.1,4.78,4.78,0,0,1,.62,0c.28,0,.38.15.32.36a.47.47,0,0,0-.11.37.88.88,0,0,1,0,.2c0,.2,0,.4,0,.6a1,1,0,0,0,0,.18q0,.1.09.69a.48.48,0,0,1-.07.26c-.06.1-.13.14-.23.11a.19.19,0,0,1-.14-.19l0-.34a1.2,1.2,0,0,0,0-.27c0-.08-.06-.12-.2-.11a.91.91,0,0,0-.26,0,1.25,1.25,0,0,0-.22.16l-.25.27-.26.29a.72.72,0,0,1-.28.22.16.16,0,0,1-.16,0,.17.17,0,0,1-.08-.12.17.17,0,0,1,0-.14l.41-.67A.18.18,0,0,0,45.29,57.78Zm1.07-1.23a.88.88,0,0,0-.58,0,.69.69,0,0,0-.5.44c0,.11,0,.21.17.3a1.14,1.14,0,0,0,.52.12,2.22,2.22,0,0,0,.34,0,.25.25,0,0,0,.12-.08.26.26,0,0,0,.06-.13V57C46.51,56.75,46.46,56.59,46.36,56.55Z"/><path class="cls-4" d="M49.53,58.08l.06.35,0,.16a.13.13,0,0,1,0,.16.35.35,0,0,1-.23.08.37.37,0,0,1-.16-.09,1,1,0,0,1-.1-.48.43.43,0,0,1-.1.1,3.77,3.77,0,0,1-.59.32.76.76,0,0,1-.67,0,.57.57,0,0,1-.19-.51,1.52,1.52,0,0,1,0-.41l0-.28a1.28,1.28,0,0,0,0-.22l0-.51s0-.12,0-.25a1.8,1.8,0,0,1,0-.27.3.3,0,0,1,.05-.2c.25-.19.37,0,.37.7v0a2.59,2.59,0,0,0,0,.4v.4a1.39,1.39,0,0,0,0,.49c0,.13.15.16.37.07a1.29,1.29,0,0,0,.62-.53,1.1,1.1,0,0,0,.08-.5,1.07,1.07,0,0,0,0-.35v-.27a1.67,1.67,0,0,1,0-.39c0-.09.09-.14.15-.14s.18.07.19.21a4.81,4.81,0,0,1,0,.7l0,.65s0,.15,0,.34S49.53,58,49.53,58.08Zm-.41-2.77a.18.18,0,0,1,0,.23.84.84,0,0,1-.65.37.73.73,0,0,1-.48-.2c-.16-.14-.19-.28-.07-.4a.19.19,0,0,1,.09,0,.9.9,0,0,1,.27.11.48.48,0,0,0,.29,0,.8.8,0,0,0,.21-.08l.13-.09A.16.16,0,0,1,49.12,55.31Z"/><path class="cls-4" d="M50,58.59A.67.67,0,0,1,50,58.3a1.8,1.8,0,0,0,.09-.27c.06-.19.14-.47.26-.85,0,.06.09-.22.32-.85a1.88,1.88,0,0,1,.18-.36.23.23,0,0,1,.35,0,2.51,2.51,0,0,1,.31.7q.33.83.3.78l.15.36c.06.15.11.26.15.34a1.11,1.11,0,0,1,.16.38.35.35,0,0,1-.17.17c-.09,0-.15.07-.19,0l0,0a2.36,2.36,0,0,1-.12-.26l-.12-.28-.39-.72a.27.27,0,0,0,0-.08l0-.09a.22.22,0,0,0-.15-.12c-.08,0-.17.09-.27.28a2.89,2.89,0,0,0-.26.87,2.55,2.55,0,0,1-.07.4c-.06.14-.18.18-.35.12A.19.19,0,0,1,50,58.59Z"/><path class="cls-4" d="M55.3,57.28a1.51,1.51,0,0,1-.14.64,2.28,2.28,0,0,1-.38.64.86.86,0,0,1-.65.26,2.85,2.85,0,0,1-.57-.08q-.87-.21-.87-1.32c0-.11,0-.22,0-.33a1.47,1.47,0,0,1,.42-.84,1,1,0,0,1,.84-.31h.12a3,3,0,0,1,.52.1A1.31,1.31,0,0,1,55.3,57.28Zm-.48-.42a.71.71,0,0,0-.46-.28l-.25,0c-.17,0-.24,0-.2,0l-.07,0a1.09,1.09,0,0,0-.51.36.89.89,0,0,0-.25.53.6.6,0,0,0,.27.5.86.86,0,0,0,.58.14,1.2,1.2,0,0,0,.6-.23,1,1,0,0,0,.37-.52A.66.66,0,0,0,54.82,56.86Z"/><path d="M2.59,55.91a3.93,3.93,0,0,1,0,.46c0,.71,0,1.15,0,1.33s0,.44,0,.57c0,.3,0,.47,0,.5a.38.38,0,0,1-.24.14s-.1-.06-.14-.16a.86.86,0,0,1-.09-.51L2.19,57c0-.31,0-.63,0-.94v-.22s0-.07,0-.11l0-.31c0-.26.3-.39.91-.39l.75,0,.83,0s.06,0,.07.09l0,.32a1.23,1.23,0,0,0,0,.27c0,.17,0,.29,0,.37s0,.16,0,.29a9.05,9.05,0,0,0,.08,1.11l.06.63c0,.17.05.28.05.32a.28.28,0,0,1-.07.2c0,.05-.11.05-.19,0a.46.46,0,0,1-.16-.15A1.27,1.27,0,0,1,4.35,58v-.6c0-.2,0-.58,0-1.12V56a1.7,1.7,0,0,0,0-.22c0-.05,0-.08-.07-.08h-1A1.67,1.67,0,0,0,2.59,55.91Z"/><path d="M8,57.28a1.53,1.53,0,0,1-.15.64,2.06,2.06,0,0,1-.38.64.86.86,0,0,1-.65.26,3,3,0,0,1-.57-.08c-.58-.14-.86-.58-.86-1.32a1.83,1.83,0,0,1,0-.33,1.45,1.45,0,0,1,.41-.84,1,1,0,0,1,.85-.31h.11a3.2,3.2,0,0,1,.53.1A1.31,1.31,0,0,1,8,57.28Zm-.49-.42a.71.71,0,0,0-.46-.28l-.25,0c-.17,0-.24,0-.2,0l-.06,0A1.12,1.12,0,0,0,6,57a.82.82,0,0,0-.24.53.56.56,0,0,0,.26.5.86.86,0,0,0,.58.14,1.2,1.2,0,0,0,.61-.23,1,1,0,0,0,.36-.52A.62.62,0,0,0,7.52,56.86Z"/><path d="M10.51,58.74c-.11.09-.2.11-.25.06a.25.25,0,0,1-.09-.23c0-.08,0-.21,0-.41a1.49,1.49,0,0,0,0-.24l0-.61a1.23,1.23,0,0,0-.09-.62c0-.1-.32-.1-.85,0-.19,0-.29.23-.3.59,0,.18,0,.39,0,.61s0,.22.08.4l0,.19a.21.21,0,0,1,0,.19.32.32,0,0,1-.23.09c-.05,0-.1,0-.16-.11a.56.56,0,0,1-.1-.38l0-.89c0-.38,0-.66,0-.85a.47.47,0,0,1,0-.23.27.27,0,0,1,.17-.16l.18,0,.46-.06A2,2,0,0,1,10,56c.35,0,.54.07.57.19a1.64,1.64,0,0,1,0,.67c0-.09,0,.18,0,.79a5.58,5.58,0,0,0,.05.78A.37.37,0,0,1,10.51,58.74Z"/><path d="M17.36,58.77c-.05.18-.16.22-.32.13a2.7,2.7,0,0,1-.28-1.12,4.07,4.07,0,0,0-.23-1c-.16-.14-.35.08-.58.66,0,.13-.1.28-.15.46s-.09.29-.1.32l-.11.31a.37.37,0,0,1-.23.23q-.11,0-.21-.33c-.1-.35-.16-.54-.17-.57a4.29,4.29,0,0,1-.22-.49l-.21-.49c-.12-.25-.22-.37-.3-.37s-.15.14-.23.41l-.25,1c0,.1,0,.21-.07.35l0,.3c-.05.2-.12.28-.24.26h0c-.1,0-.15-.13-.15-.31a3.78,3.78,0,0,1,.18-.91c.13-.48.21-.75.22-.8A9.19,9.19,0,0,1,14,55.34a.23.23,0,0,1,.2-.14.41.41,0,0,1,.25,0c.09,0,.18.14.26.33l.09.23.08.2a3.09,3.09,0,0,1,.2.46c.08.22.13.37.17.46l.09.21a.1.1,0,0,0,.17,0c.1,0,.18-.19.25-.42a7.63,7.63,0,0,0,.3-1,.92.92,0,0,1,.3-.58.25.25,0,0,1,.36,0,.76.76,0,0,1,.13.48c0,.3,0,.48,0,.53a10.59,10.59,0,0,1,.25,1.09c.1.5.19.86.26,1.1A.64.64,0,0,1,17.36,58.77Z"/><path d="M20.21,57.92v.36a2.24,2.24,0,0,1,0,.36c0,.12-.08.2-.17.21l-.23,0-.4,0h-.17a2.79,2.79,0,0,1-1.17-.18.69.69,0,0,1-.34-.66,1,1,0,0,1,.05-.34.81.81,0,0,1,1-.54,3,3,0,0,0,.58,0c.27,0,.41-.1.41-.2s0-.17-.18-.25a.77.77,0,0,0-.38-.1l-.45.07-.44.08c-.14,0-.21,0-.21-.19a.55.55,0,0,1,.08-.29.19.19,0,0,1,.18-.12l.54-.12.29,0a.72.72,0,0,1,.39.05,1.08,1.08,0,0,1,.45.3.93.93,0,0,1,.24.69c0,.07,0,.16,0,.27s0,.25,0,.3S20.2,57.78,20.21,57.92Zm-1.13.35c.46,0,.71-.11.75-.31v-.11c-.06-.14-.21-.2-.43-.2h-.34a1.23,1.23,0,0,0-.75.2c-.09.07-.15.13-.15.17s0,.1.14.15a1.52,1.52,0,0,0,.51.09Z"/><path d="M23.31,58.63s0,.11-.13.17-.23,0-.51-.29l-.23-.27L22.21,58a2.43,2.43,0,0,0-.52-.46.2.2,0,0,0-.23,0l-.06,0a.61.61,0,0,0-.06.23v.12l0,.23.05.26a.22.22,0,0,1-.06.23.27.27,0,0,1-.22.12s-.09,0-.14-.14a.9.9,0,0,1-.1-.49l0-1.15a6.53,6.53,0,0,1,0-1,.24.24,0,0,1,.15-.16.13.13,0,0,1,.19.06l0,.07a1.86,1.86,0,0,1,0,.48c0,.1,0,.18,0,.22a.23.23,0,0,0,.27.21.43.43,0,0,0,.22-.06,2.48,2.48,0,0,0,.57-.59.93.93,0,0,1,.53-.42c.13,0,.19,0,.18.14a.93.93,0,0,1-.08.28,2.55,2.55,0,0,1-.34.44,1.43,1.43,0,0,1-.14.2,1,1,0,0,0-.15.21c0,.07.13.3.43.68,0,.06.12.17.23.33l.22.33A.38.38,0,0,1,23.31,58.63Z"/><path d="M26.11,57.89c.11,0,.16.09.18.25s-.14.46-.48.61a1.38,1.38,0,0,1-.79.14,1.34,1.34,0,0,1-1.21-1.13,1.9,1.9,0,0,1,0-.35,1.26,1.26,0,0,1,.68-1.25,1.66,1.66,0,0,1,.72-.18,1.72,1.72,0,0,1,.8.23l.12.07a.23.23,0,0,1,.14.25c0,.17-.06.27-.2.29a1,1,0,0,1-.38-.08l-.32-.08-.23,0a.92.92,0,0,0-.92.55.46.46,0,0,0,0,.21.75.75,0,0,0,.22.52.78.78,0,0,0,.51.28h.23a1.2,1.2,0,0,0,.57-.13A1.42,1.42,0,0,1,26.11,57.89Z"/><path d="M28.79,58.08l.06.35,0,.16a.13.13,0,0,1,0,.16.35.35,0,0,1-.23.08.33.33,0,0,1-.16-.09,1,1,0,0,1-.11-.48s0,.05-.09.1a3.77,3.77,0,0,1-.59.32.78.78,0,0,1-.68,0,.59.59,0,0,1-.18-.51,1.52,1.52,0,0,1,0-.41l0-.28c0-.05,0-.12,0-.22l0-.51a2.14,2.14,0,0,0,0-.25c0-.12,0-.21,0-.27a.3.3,0,0,1,.05-.2c.25-.19.37,0,.37.7v0c0,.09,0,.22,0,.4v.4a1.18,1.18,0,0,0,0,.49c0,.13.15.16.37.07a1.34,1.34,0,0,0,.62-.53,1.25,1.25,0,0,0,.08-.5,1.07,1.07,0,0,0,0-.35s0-.13,0-.27a1.52,1.52,0,0,1,0-.39c0-.09.09-.14.15-.14s.18.07.19.21a4.81,4.81,0,0,1,0,.7l0,.65s0,.15,0,.34S28.79,58,28.79,58.08Z"/><path d="M29.24,58.78a.21.21,0,0,1-.08-.26c0-.06.08-.31.21-.74a7.6,7.6,0,0,0,.24-.77c0-.08,0-.21.05-.38a2.5,2.5,0,0,1,.05-.4A.43.43,0,0,1,30,56a.3.3,0,0,1,.35,0,1.58,1.58,0,0,1,.24.63c.07.22.12.33.16.33s.1-.06.16-.19a5.4,5.4,0,0,1,.31-.67.3.3,0,0,1,.23-.11.27.27,0,0,1,.29.22,3.29,3.29,0,0,1,.06.36l.07.36a7.37,7.37,0,0,0,.19.73,5.84,5.84,0,0,1,.19.75v0a.2.2,0,0,1-.12.26.22.22,0,0,1-.27,0,1.38,1.38,0,0,1-.19-.52,4.63,4.63,0,0,0-.16-.55c-.13-.38-.23-.53-.29-.45a1.28,1.28,0,0,0-.18.51s0,.19-.06.44a2.38,2.38,0,0,1-.08.43.24.24,0,0,1-.47,0,3.35,3.35,0,0,1,0-.38,1.59,1.59,0,0,0-.05-.38s0-.07,0-.14l-.05-.18q-.06-.21-.15-.21c-.08,0-.18.23-.29.76s-.18.74-.26.79S29.31,58.84,29.24,58.78Z"/><path d="M38.75,58.77c0,.18-.16.22-.32.13a2.9,2.9,0,0,1-.28-1.12,4.38,4.38,0,0,0-.22-1c-.16-.14-.35.08-.58.66-.05.13-.1.28-.15.46s-.09.29-.1.32l-.11.31a.4.4,0,0,1-.23.23q-.1,0-.21-.33a4.93,4.93,0,0,0-.18-.57,4.67,4.67,0,0,1-.21-.49L36,56.86c-.12-.25-.22-.37-.3-.37s-.16.14-.24.41l-.24,1c0,.1-.05.21-.08.35l-.05.3c0,.2-.12.28-.23.26h0c-.1,0-.15-.13-.15-.31a3.78,3.78,0,0,1,.18-.91c.14-.48.21-.75.22-.8a10.48,10.48,0,0,1,.36-1.47.21.21,0,0,1,.19-.14.41.41,0,0,1,.25,0c.1,0,.19.14.26.33l.1.23a1.14,1.14,0,0,0,.08.2,3.24,3.24,0,0,1,.19.46c.08.22.14.37.18.46l.09.21c0,.07.09.08.16,0a.67.67,0,0,0,.26-.42,7.63,7.63,0,0,0,.3-1,.87.87,0,0,1,.3-.58.23.23,0,0,1,.35,0,.7.7,0,0,1,.13.48,4.39,4.39,0,0,0,0,.53c.06.21.14.58.25,1.09s.19.86.26,1.1A.64.64,0,0,1,38.75,58.77Z"/><path d="M39.87,57.66c-.14,0-.19.11-.15.23a.78.78,0,0,0,.74.38,1.55,1.55,0,0,0,.59-.11A1.93,1.93,0,0,1,41.4,58c.08,0,.12.09.12.26a.58.58,0,0,1-.39.49,1.64,1.64,0,0,1-.71.15.91.91,0,0,1-.27,0,1.32,1.32,0,0,1-.95-1.27,2,2,0,0,1,.14-.94,1,1,0,0,1,.56-.61,1.43,1.43,0,0,1,.53-.12,1.49,1.49,0,0,1,.92.29l.14.11a1,1,0,0,1,.28.76.57.57,0,0,1-.08.34l-.8.13c-.27,0-.5.06-.68.07ZM41,57.09c.16,0,.23-.12.2-.22a.09.09,0,0,0,0-.07l-.08-.08L41,56.64s-.09,0-.36-.1a.9.9,0,0,0-.9.29c-.07.09-.08.17,0,.24a.26.26,0,0,0,.24.08h.33a1.16,1.16,0,0,0,.33,0Z"/><path d="M43.82,57.12c0-.09,0-.19,0-.32a1.64,1.64,0,0,1,0-.27,1.67,1.67,0,0,1,0-.39c0-.09.09-.14.16-.14s.17.07.19.21,0,.43,0,.7v.79h0a7.17,7.17,0,0,0,0,.8.38.38,0,0,1-.06.3c-.12.09-.23.11-.31.05s-.09-.1-.09-.22a3.15,3.15,0,0,1,.08-.47,1.25,1.25,0,0,0,0-.24l0-.35-.65.06-.34,0-.12,0a1.49,1.49,0,0,1,0,.21c0,.09,0,.22.08.4l0,.19a.21.21,0,0,1,0,.19.33.33,0,0,1-.24.09s-.09,0-.15-.11a.56.56,0,0,1-.1-.38v-.41a5.12,5.12,0,0,0,0-.56l0-.51a1.52,1.52,0,0,0,0-.25c0-.12,0-.21,0-.27a.3.3,0,0,1,0-.2c.24-.19.37,0,.37.7v.32a.29.29,0,0,0,.23.06h.33a1.07,1.07,0,0,0,.32,0Z"/><path d="M45.29,57.78a2.07,2.07,0,0,0-.23-.18.73.73,0,0,1-.27-.39.84.84,0,0,1,0-.29.6.6,0,0,1,.08-.29,1.11,1.11,0,0,1,.65-.53,2.21,2.21,0,0,1,.6-.1,4.78,4.78,0,0,1,.62,0c.28,0,.38.15.32.36a.47.47,0,0,0-.11.37.49.49,0,0,1,0,.2c0,.2,0,.4,0,.6a1,1,0,0,0,0,.18c0,.07,0,.3.08.69a.4.4,0,0,1-.06.26c-.06.1-.13.14-.23.11a.19.19,0,0,1-.14-.19l0-.34a1.2,1.2,0,0,0,0-.27c0-.08-.06-.12-.2-.11a.91.91,0,0,0-.26,0,1.25,1.25,0,0,0-.22.16l-.25.27-.26.29a.72.72,0,0,1-.28.22.16.16,0,0,1-.16,0,.17.17,0,0,1-.08-.12.17.17,0,0,1,0-.14l.4-.67C45.3,57.86,45.31,57.82,45.29,57.78Zm1.07-1.23a.88.88,0,0,0-.58,0,.69.69,0,0,0-.5.44c0,.11,0,.21.17.3a1.11,1.11,0,0,0,.52.12,2.22,2.22,0,0,0,.34,0,.25.25,0,0,0,.12-.08.26.26,0,0,0,.06-.13V57C46.51,56.75,46.46,56.59,46.36,56.55Z"/><path d="M49.53,58.08l.06.35,0,.16a.13.13,0,0,1,0,.16.35.35,0,0,1-.23.08.37.37,0,0,1-.16-.09,1,1,0,0,1-.1-.48.43.43,0,0,1-.1.1,3.77,3.77,0,0,1-.59.32.79.79,0,0,1-.68,0,.59.59,0,0,1-.18-.51,1.52,1.52,0,0,1,0-.41l0-.28a1.28,1.28,0,0,0,0-.22l0-.51a2.14,2.14,0,0,0,0-.25c0-.12,0-.21,0-.27a.3.3,0,0,1,.05-.2c.25-.19.37,0,.37.7v0a2.59,2.59,0,0,0,0,.4v.4a1.39,1.39,0,0,0,0,.49c0,.13.15.16.37.07a1.29,1.29,0,0,0,.62-.53,1.1,1.1,0,0,0,.08-.5,1.07,1.07,0,0,0,0-.35v-.27a1.67,1.67,0,0,1,0-.39c0-.09.09-.14.15-.14s.18.07.19.21a4.81,4.81,0,0,1,0,.7l0,.65s0,.15,0,.34S49.53,58,49.53,58.08Zm-.41-2.77a.18.18,0,0,1,0,.23.84.84,0,0,1-.65.37.69.69,0,0,1-.48-.2c-.17-.15-.19-.28-.07-.4a.19.19,0,0,1,.09,0,.9.9,0,0,1,.27.11.48.48,0,0,0,.29,0l.21-.08.13-.09A.16.16,0,0,1,49.12,55.31Z"/><path d="M50,58.59A.67.67,0,0,1,50,58.3a1.8,1.8,0,0,0,.09-.27c.06-.19.14-.47.26-.85,0,.06.09-.22.32-.85a1.88,1.88,0,0,1,.18-.36.23.23,0,0,1,.35,0,2.35,2.35,0,0,1,.31.7q.33.83.3.78l.15.35c.06.15.11.27.15.35a1.11,1.11,0,0,1,.16.38.35.35,0,0,1-.17.17c-.09,0-.15.07-.19,0l0,0a1.31,1.31,0,0,1-.12-.26l-.12-.28-.39-.72a.27.27,0,0,0,0-.08l0-.09a.22.22,0,0,0-.15-.12c-.08,0-.17.09-.27.28a2.89,2.89,0,0,0-.26.87,2.55,2.55,0,0,1-.07.4c-.06.14-.18.18-.35.12A.19.19,0,0,1,50,58.59Z"/><path d="M55.3,57.28a1.51,1.51,0,0,1-.14.64,2.28,2.28,0,0,1-.38.64.87.87,0,0,1-.66.26,2.86,2.86,0,0,1-.56-.08q-.87-.21-.87-1.32c0-.11,0-.22,0-.33a1.47,1.47,0,0,1,.42-.84.94.94,0,0,1,.84-.31h.12a3,3,0,0,1,.52.1A1.31,1.31,0,0,1,55.3,57.28Zm-.48-.42a.71.71,0,0,0-.46-.28l-.25,0c-.17,0-.24,0-.2,0l-.07,0a1.17,1.17,0,0,0-.52.36.93.93,0,0,0-.24.53.6.6,0,0,0,.27.5.86.86,0,0,0,.58.14,1.2,1.2,0,0,0,.6-.23,1,1,0,0,0,.37-.52A.66.66,0,0,0,54.82,56.86Z"/><circle class="cls-5" cx="21.93" cy="28.05" r="13.3"/><ellipse cx="24.8" cy="36.71" rx="1.5" ry="1.96" transform="translate(-19.44 34.32) rotate(-52.87)"/><ellipse cx="30.78" cy="28.8" rx="1.5" ry="1.96" transform="translate(-10.76 35.96) rotate(-52.87)"/><path d="M14.44,37.76C9.07,33.25,7.32,25.21,12.5,19.68a12.79,12.79,0,0,1,16.94-1.24c5.95,4.51,7,13.69,1,18.77-4.77,4.08-11.12,3.87-16.15.45-.64-.44-1.53,1.47-.8,2,15,10.2,31.28-12.37,16.92-23.12-14.66-11-30.65,11.61-17.06,23C14.09,40.15,15.05,38.27,14.44,37.76Z"/><path class="cls-2" d="M11.71,34.74a10.57,10.57,0,0,0,2.75-.33,3.57,3.57,0,0,0,2.16-1.61A4.76,4.76,0,0,1,14,30.31a1.48,1.48,0,0,1,0-1.48,1.55,1.55,0,0,1,1.39-.42c.95.08,1.87.38,2.82.42a2.28,2.28,0,0,0,1.36-.28,2.16,2.16,0,0,0,.63-2.43A21.56,21.56,0,0,0,19,23.69a1.08,1.08,0,0,1-.12-.72c.18-.6,1-.56,1.63-.4.81.21,1.63.38,2.46.52a1,1,0,0,0,.73-.07,1,1,0,0,0,.29-.78,10.7,10.7,0,0,0-.38-3.33c-.1-.36-.15-.87.2-1,.2-.06.41.06.62.11a1.17,1.17,0,0,0,1.28-1,2.89,2.89,0,0,0-.42-1.75,3.32,3.32,0,0,0-1.21-1.43,3.87,3.87,0,0,0-2.75-.09l-2.94.62A21.39,21.39,0,0,0,15,15.3c-4.59,1.77-7.6,6.59-8,11.49a8.64,8.64,0,0,0,1.7,6.38,11.78,11.78,0,0,0,2.79,2.11"/><path class="cls-3" d="M11.59,35.37c2.49-.13,4.44-.5,6-2.52a.39.39,0,0,0-.15-.58c-1.22-.66-2.74-2.09-1-3-.56.29,1.65.16,1.95.13A3,3,0,0,0,21,28c.73-1.3-.09-2.13-.34-3.41-.39-2-.45-.91,1.7-.93.43,0,.77,0,1.22,0a1.33,1.33,0,0,0,1.16-.74c.49-1.3-.57-4,0-4.92l-1.58.55c2.39.42,4.32-1,3.12-3.53-1.85-3.88-8.07-1.45-11-.48-8.7,2.92-13.52,15.76-4.69,21.28.63.4,2.5-.51,1.61-1.06-5.11-3.2-5.35-9.44-2.25-14.3a11.76,11.76,0,0,1,7.36-5.24A18.38,18.38,0,0,1,20,14.65c2.25-1,3.65-.62,4.21,1a1.35,1.35,0,0,1,.21,1.68,1.58,1.58,0,0,0-1.58.55c-1,1.47.48,3.5-.19,5.25l1.16-.75c-2.19.21-3.66-1.2-5.59.22-.21.16-.42.35-.37.64.14.87,1.37,2.4,1.28,3.16-.66,5.55-2.4.94-3.67,1.38-.83.29-1.57-.07-2.26.76-2.18,2.61,4.91,5.24-1.4,5.56-1.08.06-1.67,1.34-.25,1.27Z"/><path class="cls-3" d="M20.16,22.62a6.41,6.41,0,0,0-4.55-3,2,2,0,0,0-1.45.39c-.31.26-.28.46.14.54a5.59,5.59,0,0,1,3.8,2.66c.34.56,2.28-.19,2.06-.55Z"/><path class="cls-3" d="M14.76,28a4,4,0,0,1-3-1.74c-.42-.56-2.4.13-1.91.8a5.35,5.35,0,0,0,4.1,2.1,1.59,1.59,0,0,0,1.35-.56c.25-.42-.21-.58-.55-.6Z"/><path class="cls-3" d="M20.07,26.87a12,12,0,0,0-3.71-2.41c-.88-.37-2.39.9-1.18,1.4a11,11,0,0,1,3.31,2.21c.67.64,2.44-.37,1.58-1.2Z"/><path class="cls-3" d="M24.06,21.31A12.46,12.46,0,0,0,23,18.6a5.61,5.61,0,0,0-2-1.81,1.81,1.81,0,0,0-1.33.1c-.1,0-.93.42-.61.6a5.24,5.24,0,0,1,2,1.81,14,14,0,0,1,1,2.56c.17.5,2.2-.11,2-.55Z"/><path class="cls-6" d="M26.48,44.54c3.49.07,8.78-.33,11.7-2.9.81.67,1.6,1.36,2.38,2.06l-.94,1c-.48.51-1.13,1.51-.83,2.25s1,.56,1.44.07c.61-.64,1.28-1.3,2-2a10.25,10.25,0,0,1,2.35,2.28c0,.19,0,.35.2.4l.07,0c1,.34,2-2.19,1.77-2.93a6.38,6.38,0,0,0-2.1-2.26,10.26,10.26,0,0,0,1.82-3.25c.71-2.22-1.52-1.7-2-.06a5.2,5.2,0,0,1-1.34,2C42,40.4,41,39.57,40.06,38.77c1.07-3.33-.34-7.13-.91-10.43l-.08-.12-.23,0c-.82-.09-2,2.28-1.74,2.95l0,.11a.15.15,0,0,0,.15.12A18.56,18.56,0,0,1,38,34.44c.28,1.22-.66,2.24-1.24,3.48l-.09.14a1.54,1.54,0,0,1-.27.36c-.82.75-1.71,2.18-2.8,2.43a23.35,23.35,0,0,1-5.77.62C27.05,41.45,25.82,44.53,26.48,44.54Z"/><path class="cls-2" d="M29.67,37.9a3.22,3.22,0,0,0-.78.74l-.22.13a2.38,2.38,0,0,0-1.56.86,1.79,1.79,0,0,0-.69.31l-.11,0a1.69,1.69,0,0,0-1.45.68l-1.2-.16s0-.07,0-.1l-.25-.28c-.23-.27-.59,0-.78.22l-.18.18,0,0a.77.77,0,0,0-.58.31l0,0a.27.27,0,0,0-.07-.08,1.44,1.44,0,0,0-1.58-.74l-.44-.18a.56.56,0,0,0-.5.14.73.73,0,0,1-.08.09c-.47.16-.73,1-.73,1.48a1.54,1.54,0,0,0,.25,1.33,1.49,1.49,0,0,0,.17.36,1.66,1.66,0,0,0,.49.66,1.14,1.14,0,0,0,.91.43A2,2,0,0,0,22,43.86a1.2,1.2,0,0,0,1.25.89,1.89,1.89,0,0,0,1.45.88,2.56,2.56,0,0,0,1.7-.38c.53.32,1.27.25,2.11-.54l0-.05a2.35,2.35,0,0,0,2.33-1.56,1.4,1.4,0,0,0,.1-.35l.14-.19a.36.36,0,0,0,.38.21,1.37,1.37,0,0,0,.87-.35,1.21,1.21,0,0,0,1.18-.69l.12-.23a1,1,0,0,0,.63-.45.38.38,0,0,0,.4,0l.15-.08a1.54,1.54,0,0,0,.55-.53,1.13,1.13,0,0,0,.62-.62.38.38,0,0,0,.28.12c.83.31,1.88-1.26,1.46-2.11l-.12-.19c0-.15.14-.14,0-.22l.3-.24c.35-.29.67-.41.6-.85a7.28,7.28,0,0,0-.47-.82c.18-.21,1-.35,1.07-.64a2,2,0,0,0-.43-2.6l0-.12a6.3,6.3,0,0,0,.29-.81,2.78,2.78,0,0,0-.4-2.46,2.94,2.94,0,0,0,.28-1,1.34,1.34,0,0,0-1.11-1.54l0-.1a3.68,3.68,0,0,0,.07-1.64,2.63,2.63,0,0,0,.07-1,2.72,2.72,0,0,0-1.07-1.55A1.15,1.15,0,0,0,36.12,21a.72.72,0,0,0-.29-.06,1.45,1.45,0,0,0,0-.9,1.12,1.12,0,0,0-1.45-1,2.22,2.22,0,0,0-1,.16,1.4,1.4,0,0,0-.72,1.67,1.48,1.48,0,0,0,.13.21,1,1,0,0,0,0,1.1.36.36,0,0,0,.12.35l.2.12a.5.5,0,0,0,0,.12c0,.12,0,.3.08.36a1.42,1.42,0,0,0,.34.15A3.32,3.32,0,0,0,34,24.61a2.15,2.15,0,0,0,.39,2.58,2.3,2.3,0,0,0,0,.87.16.16,0,0,0,0,.11.92.92,0,0,0,.09.23,3.06,3.06,0,0,0,.22,1.32,3.66,3.66,0,0,0,0,.57,2,2,0,0,0-.14.25A4.08,4.08,0,0,0,34,31.93a2.48,2.48,0,0,0-.39,1.79,2,2,0,0,0-.44.32,2.33,2.33,0,0,0-1.85,2.11c0,.15-.74.73-.86.94s-.5.61-.69.95c-.41.73.53,1.64,1.08,2"/><path class="cls-3" d="M29.12,38c-1.7,1.6-3.54,1.67-5.24,1.9-.47.06-.91.07-1.39.16-2.67.48,1.22,1.3-.86,0-4.46-2.86-5.09,7.36.81,3.89L21.36,44c2.11,2.9,7.07,1.88,9.48-.1.5-.41,1.23-1.71.05-1,.06,0,.37.06.47,0,.65-.32,1.45-.37,2.11-.71a19.24,19.24,0,0,0,2.4-2.06c1.93-1.24,2.26-.9,3.14-3.49.15-.44-.18-.88,0-1.18s.7-.5.74-.7c.38-1.73-.06-3.13,0-5a10.16,10.16,0,0,0-.53-3.2c-.12-.47-.6-.62-.78-1.35s.16-1.49-.08-2.26a23.92,23.92,0,0,0-2.39-4.1c-1.41-1-3.53.27-3.89,1.57-.81,2.94,2.31,6.65,2,9.76s-6.9,7.25-3.73,10c.25.21,1.34-.26,1.17-.41-2.46-2.13,1.11-4.14,2.14-5.78a7.92,7.92,0,0,0,1.56-3.66A9.57,9.57,0,0,0,35,27.9a27.21,27.21,0,0,0-.4-3.4c.46,1.5-.84-2.43-.92-2a.07.07,0,0,0,0-.1c-1.8-1,1.47-3.86,1.57-1.32a.11.11,0,0,0,.11.06c2.21.46,1.8,5,2.24,6.68.35,1.3,1.68,6.87.16,7.66,0,0-.32.15-.26.24a38.3,38.3,0,0,1-.9,3.93,1.31,1.31,0,0,0-1.14.26c-.43.43-3.19,2.76-3.76,2.45a1.28,1.28,0,0,0-1.19.32c-1.51,2.12-5.83,3.85-7.89,1-.19-.26-.88,0-1.09.15-2.73,1.61-3.56-6.35-.32-2.75.18.2,1-.08,1.14-.26.69-.78,1.65.11,3.05-.22a11.82,11.82,0,0,0,4.86-2.77c.24-.23-.9-.1-1.11.11Z"/><path class="cls-3" d="M33.72,34.73c-.19.07-.18.12,0,.17l.19.13a2.3,2.3,0,0,1,.35.42c.32.48,1.49,0,1.13-.55-.58-.87-1.92-1.53-2.73-.55-.5.61.67.83,1,.38Z"/><path class="cls-3" d="M35,31.27c.15-.12.33-.36.54-.29s.26.31.33.42c.32.49,1.49,0,1.13-.55A1.63,1.63,0,0,0,35.79,30a2.22,2.22,0,0,0-1.65.68c-.64.54.34,1,.82.59Z"/><path class="cls-3" d="M35.82,39.2q.42-.12.18-.39a1.55,1.55,0,0,1-.06-.31c-.09-.48-.92-.23-1.13,0s-.45-.24-.36-.46c.25-.65-1-.62-1.17-.13A1.09,1.09,0,0,0,34,39.4a1.81,1.81,0,0,0,1.88-.56H34.7A1.23,1.23,0,0,0,35.83,40a1.15,1.15,0,0,0,1.24-.88c.09-.61-1.17-.44-1.25.1Z"/><path class="cls-3" d="M31.24,42c-.09,0-.39.28-.37,0,.05-.64-.88-.42-1.14-.16-.11.11-.25-.34-.25-.38,0-.67-1.27-.5-1.25.08.05,1.41,1.69,1.56,2.54.7l-1.15-.16a.9.9,0,0,0,.68.94,2,2,0,0,0,1.5-.24c.76-.37.09-1.08-.56-.77Z"/><path class="cls-3" d="M24.57,40.42c-1.16.44-.79,1.87-.24,2.66.3.43,1.48,0,1.13-.52a2.34,2.34,0,0,1-.35-.75c0-.11-.16-.67,0-.73s.47-.36.3-.59-.6-.16-.83-.07Z"/><path class="cls-3" d="M21.26,41a1,1,0,0,0-.18,1.34c.17.38,1.37,0,1.24-.33s-.32-.67-.09-.87.15-.32-.09-.37a1.17,1.17,0,0,0-.88.23Z"/><path class="cls-3" d="M39.05,34.82a.87.87,0,0,0-.29-.93,1.23,1.23,0,0,0-.42-.19c-.07,0-.22,0-.27,0,.14.1.15,0,.14-.12,0-.32-.49-.5-.75-.56a2.22,2.22,0,0,0-1.27.15c-.16.07-.49.27-.33.48s.63.07.81,0,.34.54.5.64.28,0,.41.09a.5.5,0,0,1,.24.63c-.11.43,1.13.24,1.23-.17Z"/><path class="cls-3" d="M35.24,27c-.37,0-.43.05-.17.14a.55.55,0,0,1,.18.24c.16.34.75.15,1,0-.23,0-.26,0-.08.09a.42.42,0,0,1,.17.18c.26.33,1.45-.1,1.15-.49a1.58,1.58,0,0,0-2-.16l1,0a1.23,1.23,0,0,0-1.21-.7c-.46,0-1.22.25-1.27.8s1.2.27,1.24-.15Z"/><path class="cls-3" d="M37.7,22.27A2,2,0,0,0,36,21c-.68,0-1.67.33-1.67,1.14,0,.55,1.23.3,1.23-.14,0-.08.1-.31,0-.25.08,0,.33.11.39.15a1.44,1.44,0,0,1,.57.69c.19.46,1.41.09,1.23-.33Z"/><path class="cls-3" d="M27.9,44.58c.24-.07.11,0,0-.11a1.26,1.26,0,0,1-.28-.33,1.36,1.36,0,0,1-.09-.69c0-.18-1.21-.05-1.23.33-.09,1.09.77,1.43,1.7,1.19.12,0,.62-.17.57-.36s-.58-.06-.67,0Z"/></g></svg>