<svg xmlns="http://www.w3.org/2000/svg" viewBox="0 0 102.75 118.3"><defs><style>.cls-1{fill:#fff;}.cls-2{fill:#282751;}.cls-3,.cls-8{fill:#333;}.cls-4{fill:#1a1a1a;}.cls-5{fill:none;stroke:#fff;stroke-width:2.13px;}.cls-6{fill:#666;}.cls-7{fill:#dbdbdb;}.cls-8{stroke:#e6e6e6;stroke-miterlimit:10;stroke-width:0.28px;}.cls-9{fill:red;}.cls-10{fill:#0071bc;}.cls-11{fill:#a67c52;}.cls-12{fill:#603813;}.cls-13{fill:#f15a24;}.cls-14{fill:#c69c6d;}.cls-15{fill:#42210b;}.cls-16{fill:#f7931e;}</style></defs><title>personaji_3</title><g id="Слой_1" data-name="Слой 1"><path class="cls-1" d="M14.54,68.8c-.5.65-2.11-.33-2.48-.77-.61-.73-.3-1.83-.19-2.71.07-.57.17-1.13.29-1.69,0-.39,0-.79.06-1.18a.33.33,0,0,1,.32-.34s0-.07,0-.1c.21-.73,2.7.5,2.71,1.17,0,.3.52.67.5,1a8.42,8.42,0,0,1-.18,1.44A5.8,5.8,0,0,1,14.54,68.8Z"/><path class="cls-2" d="M15.29,64.39l-1.72-.49a2.53,2.53,0,0,1-1.3-.87l-.08-.09c-.14-.16-.39-.61-.06-.75l.14,0h0c-.24-.27-.23-.55,0-.71a.3.3,0,0,1,.18-.34c-.07-.4.65-.74.74-1.26s1.23.24,1,.65.75.73,1,1.32a.26.26,0,0,1,0,.08,3.73,3.73,0,0,1,.43.36c.2.2.53.57.4.83a.44.44,0,0,1,0,.23,1.22,1.22,0,0,1,.59.82C16.61,64.76,15.59,64.47,15.29,64.39Z"/><path d="M15.55,63.45c-.26,1.46-.64,5.3-2.37,5.89l1.21-.11c-3.52-1.26-.85-10,0-12.38.21-.54-1.81-.31-2,.3a26.23,26.23,0,0,0-1.53,7.38c-.12,1.61-.33,4.3,1.27,5.36,3.52,2.34,5.16-5,5.47-6.74.12-.66-1.93-.31-2.05.3Z"/><path class="cls-1" d="M48,39.81c.71-.4,0-2.13-.41-2.56-.64-.71-1.77-.56-2.66-.57-.57,0-1.14,0-1.71,0l-1.18-.11a.35.35,0,0,0-.38.27h-.11c-.74.1.11,2.74.77,2.85.3,0,.6.07.9.1a5.94,5.94,0,0,0,1.33.25A6,6,0,0,0,48,39.81Z"/><path class="cls-2" d="M43.53,39.93l-.24-1.77a2.51,2.51,0,0,0-.67-1.41l-.08-.1c-.14-.15-.55-.47-.73-.17a.91.91,0,0,0-.07.14h0c-.24-.28-.51-.31-.7-.15a.33.33,0,0,0-.37.14c-.38-.13-.81.54-1.34.55s.05,1.25.5,1.08.61.85,1.15,1.2l.08,0a3.88,3.88,0,0,0,.3.48c.17.23.49.6.77.51a.3.3,0,0,0,.23,0c.17.35.42.66.72.71C43.71,41.29,43.57,40.24,43.53,39.93Z"/><path d="M42.18,41.81c2.25-.08,5.07-.07,6.91-1.59,1.18-1,1.19-2,0-3-3-2.52-9.26-1.73-12.79-.94-1.29.29-.9,1.73.38,1.44a24.25,24.25,0,0,1,7.65-.36c.94.1,3.75.39,3.39,1.89-.26,1.08-4.39,1-5.36,1-1.17,0-1.57,1.58-.18,1.53Z"/><path class="cls-2" d="M15.91,61.73a.8.8,0,0,0,.46.16l0,0a1.41,1.41,0,0,0,.71.67,1.94,1.94,0,0,0,2-.4l.2-.07c.27-.12.86-.7,1.15-.64,1.38.33,2.67-2.36,1.13-2.72a2.16,2.16,0,0,0-1.13,0,2,2,0,0,0-1.31-.34A2.55,2.55,0,0,0,18.5,58a2.79,2.79,0,0,0-1.67-1.33,2.69,2.69,0,0,0-1.62-1c-.11-.16-.2-.33-.31-.5C14,54,12.2,55.9,12.65,57A11.29,11.29,0,0,0,15.91,61.73Z"/><path class="cls-2" d="M38,45.89c.09,0,.24,0,.46-.16a8.75,8.75,0,0,0,2.84-3.46c0-.08.28-.79.07-.88.54-1.31.52-2.59-.83-2.82a1.51,1.51,0,0,0-.52,0,1.42,1.42,0,0,0-.33-.21.91.91,0,0,0-.36-.06,2.27,2.27,0,0,0-.81-.82l-.07-.06a1.69,1.69,0,0,0-1-.47c-.08-.1-.16-.19-.24-.3-.35-.47-1.89,1.85-1.76,2.37a.24.24,0,0,1,0,.08A1.58,1.58,0,0,0,36,40.55a2.65,2.65,0,0,0,1.09,1.77A2.44,2.44,0,0,0,38,44.21a3.94,3.94,0,0,0-.32.93C37.57,45.78,37.74,46,38,45.89Z"/><path d="M11.18,52.58c.71,3.09.49,9.41,4.47,10.25a7.55,7.55,0,0,0,7.74-3.4c.47-.74-1.57-.51-1.9,0-1.51,2.37-4.9,3.66-6.41.59-1.21-2.46-1.24-5.37-1.84-8-.15-.63-2.21-.11-2.06.55Z"/><path d="M32.94,36.74c2.34.86,7.24.78,7.9,3.86.61,2.84-1.61,4.71-3.88,5.85-1.21.6.69.51,1.18.27,2.41-1.21,4.79-2.85,4.81-5.78,0-4.08-5.55-4-8.32-5-.46-.17-2.29.58-1.69.8Z"/><circle class="cls-1" cx="23.93" cy="45.58" r="13.3"/><ellipse cx="24.93" cy="54.65" rx="1.5" ry="1.96" transform="translate(-29.7 29.66) rotate(-40.9)"/><ellipse cx="32.43" cy="48.16" rx="1.5" ry="1.96" transform="translate(-23.62 32.99) rotate(-40.9)"/><path d="M14.59,53.53C10.27,48,10.22,39.78,16.44,35.44a12.81,12.81,0,0,1,16.83,2.3c4.88,5.66,4,14.84-2.91,18.57-5.51,3-11.68,1.49-15.89-2.9-.54-.57-1.8,1.12-1.19,1.76,12.54,13.08,33.16-5.61,21.35-19.11-12.06-13.78-32.4,5-21.47,19C13.75,55.79,15.08,54.16,14.59,53.53Z"/><path class="cls-3" d="M11.09,49.56a3.85,3.85,0,0,0-.35,4.66,10.68,10.68,0,0,1,3.69-2.17,2.07,2.07,0,0,1,1-.14,3.31,3.31,0,0,1,.92.46,3,3,0,0,0,3.35,0,2,2,0,0,0,0-3.05,4.76,4.76,0,0,0,5.16-1,1.25,1.25,0,0,0,.43-.74c0-.41-.25-.77-.41-1.15a2.66,2.66,0,0,1,1.35-3.15,7.87,7.87,0,0,1,3.64-.73,3.57,3.57,0,0,0-2.63-2.49c.55-1,1.73-1.28,2.78-1.64A16.44,16.44,0,0,0,33,37a1.86,1.86,0,0,0,1.12-2A4.32,4.32,0,0,0,33.8,33a3.22,3.22,0,0,0-4.4-1c0-1.39-1.31-2.43-2.64-2.82a4.66,4.66,0,0,0-3.52.26,3,3,0,0,0-1.54,3,4.7,4.7,0,0,0-3.8-1.53A5,5,0,0,0,14.44,32a3.35,3.35,0,0,0,0,4.63,5.86,5.86,0,0,0-4.22-.17,3.66,3.66,0,0,0-1.73,1.17,3.9,3.9,0,0,0-.34,3.39,3.13,3.13,0,0,0,.76,1.41,1.48,1.48,0,0,0,1.48.41A4.57,4.57,0,0,0,6.49,44.8a3.84,3.84,0,0,0,0,4.24,3.31,3.31,0,0,0,4,1.13,3,3,0,0,0,.4-.21"/><path class="cls-4" d="M9.65,49.8a4.33,4.33,0,0,0-.36,4.81c.33.72,2.16,0,2.58-.29,2.74-2.15,4.63-.17,7.48-1.17,2.13-.75,3.17-2.38,1.7-4.37L18.51,49.9a8.14,8.14,0,0,0,6.07-.5c2.42-1.3,2.09-6,4.67-6.19.29,0,2.37-.42,2.06-1.05.16.32-1.65-3-1.74-2.21.12-1.09,2.19-1.57,2.84-1.88,1.61-.78,2.9-1.38,3.18-3.3.6-4.24-4-4.13-6.71-3.18l2,0c-1.53-5.06-10.32-4.1-10.6,1.23l2.81-.91C19.4,28.78,9,30.88,13,37.06l2.63-1c-2.53-.74-6.07-.79-8.07,1.32-2.13,2.27-1,6.16,2.23,6.16l.86-1.28C7.43,42.7,2.25,45.35,5,49.43c1.5,2.2,4.62,1.89,6.69.8,1.7-.9-1-.94-1.71-.53q-5.43-2.55.1-6.2c.78-.11,2.7-1.28.86-1.28a2.53,2.53,0,0,1-1.51-2.13c-.51-1.76.74-2.7,3.77-2.82.37.11,3.06-.33,2.63-1C14.61,34.35,14.56,28,20.34,33c.57.49,2.76-.08,2.81-.91l4.8.32c.18.6,1.67.13,2,0q5.79,2.12-.44,5.6a9.66,9.66,0,0,0-1.39.52c-1,.79-1.26.63-2.19,1.6-.22.24-.12.43.15.54l2.36,2.27,2.06-1c-1.76.09-3.87.21-5.38,1.28-1.19.85-1.06,1.15-1.77,2.3s3,4.63-2.45,3.21c-.46-.12-3.14.3-2.54,1.12,1.14,1.53-3.59,1.61-3.85,1.67a12.91,12.91,0,0,0-4.87,2.63l2.58-.28a4.32,4.32,0,0,1,.33-4.5c.29-.44-2.38-.29-2.87.47Z"/><path class="cls-4" d="M14.26,46.86A7.35,7.35,0,0,0,19,46.31c.44-.23.82-.82.26-1.13a2.47,2.47,0,0,0-2.06.27c.28-.14.25,0,0,0H17a7.16,7.16,0,0,1-.93-.11,2.57,2.57,0,0,0-2,.55c-.43.39-.35.92.27,1Z"/><path class="cls-4" d="M23.66,39c1.44-.21,3.53-1.26,3.05-3-.2-.75-3.1,0-2.9.78a1.24,1.24,0,0,1,0,.89c-.05.12-.14.21-.19.32s-.19,0,.59-.16a3.54,3.54,0,0,0-1.1.35c-.15.08-.54.29-.58.5-.13.55.92.41,1.18.37Z"/><path class="cls-4" d="M16.33,38.06c-1.3,1.11-1.57,3.06,0,4.1a2.12,2.12,0,0,0,1.9,0c.21-.08,1.32-.69.8-1a1.71,1.71,0,0,1-.39-2.68c.44-.38.33-.78-.24-.89a2.78,2.78,0,0,0-2.05.55Z"/><path class="cls-4" d="M13,35.54c.76.25.3,1.33.1,1.81s.95.59,1.23.55A2,2,0,0,0,16,37c.4-1,.59-2.36-.67-2.77a2.6,2.6,0,0,0-2,.29c-.31.19-1,.84-.27,1.06Z"/><path class="cls-4" d="M29.09,34.34c-1.35.31-2.8,1.45-2.47,3,.2,1,3.11.24,2.89-.77a1.12,1.12,0,0,1,.07-.72c.17-.37.21-.17-.12-.1.42-.1,1.4-.5,1.26-1.08s-1.27-.39-1.63-.31Z"/><path class="cls-4" d="M28.58,40.51c-.6-1.13-3-.48-3.95-.23-1.15.3-3.29.91-3.72,2.18-.18.52,2.6.22,2.85-.52.16-.44,1.58-1.3,1.93-.66s3.12-.34,2.89-.77Z"/><path class="cls-4" d="M25.81,41.52a1.55,1.55,0,0,1,1.25.68c.5.71,3.12-.46,2.9-.77a2.6,2.6,0,0,0-2.27-1.09,4.06,4.06,0,0,0-2.05.55c-.43.28-.43.65.17.63Z"/><path class="cls-1" d="M97.6,4.32v13A3.57,3.57,0,0,1,94,20.9l-48.3-.42c-2.35,3.4-12.68,5.94-12.68,5.94a8.76,8.76,0,0,0,2.6-6.15c-1.95,0-4.45-1-4.45-2.95v-13A3.57,3.57,0,0,1,34.79.75H94A3.56,3.56,0,0,1,97.6,4.32Z"/><path d="M97,4.32V14.51c0,3.45-1.51,5.56-5,5.73-7.16.35-14.46-.12-21.63-.19l-22.17-.19c-1.87,0-2-.06-3.42.76a44.72,44.72,0,0,1-11.91,5.19l.62,1.06a9.9,9.9,0,0,0,2.79-6.6.66.66,0,0,0-.64-.64C30,19,31.85,11,31.85,7.13c0-3,1.11-5.39,4.29-5.75,6.13-.69,12.76,0,18.93,0H81c3.09,0,15.17-2.07,16,3.11.13.81,1.36.47,1.23-.34-.83-5.19-6.57-4-10.47-4H39.56c-3.92,0-8.34-.67-9,4.44a64.79,64.79,0,0,0,0,12,4.19,4.19,0,0,0,.83,2.7c.65.78,1.6.79,2.28,1.34,1.87,1.5.58,3.6-1.07,5.4A.64.64,0,0,0,33.23,27a37.7,37.7,0,0,0,11.7-4.85c1-.64.61-.8,1.46-1.07a12.91,12.91,0,0,1,3.4,0l26.48.23c5.72.05,12.1.91,17.77.15,6.72-.89,4.2-12.58,4.2-17.21A.64.64,0,0,0,97,4.32Z"/><path d="M38.44,7.38a1.07,1.07,0,0,1-.42.49,2.5,2.5,0,0,1-.83.32,3.68,3.68,0,0,1-.49,0A2.85,2.85,0,0,1,36,8.16a.36.36,0,0,1-.16-.08.41.41,0,0,1-.17-.14,1.08,1.08,0,0,1-.08-.49c0-.26,0-.53,0-.79s0-.33,0-.42a2.45,2.45,0,0,1,0-.3v-.3l0-.37a.73.73,0,0,1,0-.08c-.11-.18-.16-.29-.14-.33a0,0,0,0,1,0-.05l0,0a1.79,1.79,0,0,1,.68-.13h1.24c.59,0,.94.18,1.08.4a.54.54,0,0,1,.06.25c0,.25-.18.51-.54.79-.05.1,0,.17.14.23s.42.24.45.44A1.38,1.38,0,0,1,38.44,7.38ZM36.29,5.26a.42.42,0,0,0-.32.25l0,.32c0,.19.19.28.52.28a5,5,0,0,0,.59-.1A1.63,1.63,0,0,0,38,5.56q.12-.12.12-.18c0-.11-.3-.17-.89-.17l-.56,0Zm1.78,1.63a.93.93,0,0,0-.42-.15l-.19,0-.21,0a3.39,3.39,0,0,0-1,.09A.28.28,0,0,0,36,7.1a.88.88,0,0,1,0,.2l.21.19a1.16,1.16,0,0,0,.61.11,2.15,2.15,0,0,0,.43,0,1.53,1.53,0,0,0,.81-.35C38.17,7.08,38.17,7,38.07,6.89Z"/><path d="M39.8,6.56a4.62,4.62,0,0,1,.5,0,1.31,1.31,0,0,1,.77.25.34.34,0,0,1,.17.3,2.06,2.06,0,0,1,0,.21c0,.1,0,.16,0,.17,0,.21-.24.4-.65.57a1.27,1.27,0,0,1-.52.11,1,1,0,0,1-.55-.14c-.17,0-.23-.13-.2-.32a.62.62,0,0,1,0-.24.78.78,0,0,1,0-.19c0-.19,0-.38,0-.56V6.56c0-.06,0-.27-.08-.64a.37.37,0,0,1,.06-.25.18.18,0,0,1,.21-.1c.08,0,.12.08.14.18v.32c0,.1,0,.23,0,.39S39.66,6.57,39.8,6.56Zm0,1a1,1,0,0,0,.51.08c.44,0,.62-.14.55-.29s-.07-.17-.24-.24A1,1,0,0,0,40.25,7a3.12,3.12,0,0,0-.46,0,.14.14,0,0,0-.11.06.12.12,0,0,0,0,.12v.12C39.64,7.46,39.67,7.53,39.76,7.55Zm2.17.15,0,.16a.13.13,0,0,1,0,.15.34.34,0,0,1-.21.07A.37.37,0,0,1,41.56,8a.43.43,0,0,1-.09-.31l0-.72c0-.44,0-.73,0-.89a1.44,1.44,0,0,1,0-.32s.07-.08.15-.11.15,0,.19,0l0,0a1.64,1.64,0,0,1,0,.33,2.47,2.47,0,0,0,0,.56c0,.53.06.78,0,.73Z"/><path d="M46.53,8.12c-.1.09-.18.11-.23.06A.24.24,0,0,1,46.21,8c0-.07,0-.2,0-.38a1.22,1.22,0,0,0,0-.22l0-.58a1.15,1.15,0,0,0-.08-.58c0-.09-.31-.09-.8,0-.18,0-.27.22-.28.56,0,.16,0,.36,0,.57s0,.2.07.37l0,.18a.16.16,0,0,1-.05.17.28.28,0,0,1-.22.09s-.09,0-.14-.1a.56.56,0,0,1-.09-.36l0-.83c0-.36,0-.62,0-.8a.32.32,0,0,1,0-.21.19.19,0,0,1,.15-.15l.17,0,.43-.06a2.26,2.26,0,0,1,.54,0c.32,0,.5.07.53.18a1.45,1.45,0,0,1,0,.63c0-.08,0,.16,0,.74a6.81,6.81,0,0,0,.05.73A.33.33,0,0,1,46.53,8.12Z"/><path d="M49.5,6.82a1.24,1.24,0,0,1-.11.54,1.23,1.23,0,0,1-1,.74.59.59,0,0,1-.35,0c-.15,0-.26-.05-.3,0a.23.23,0,0,0-.1.13c0,.1,0,.26,0,.48a4.23,4.23,0,0,1,0,.54.25.25,0,0,1-.15.17.11.11,0,0,1-.18-.05l-.05-.07s0-.19,0-.55c0-.13,0-.25,0-.38V7.51a3.32,3.32,0,0,0,0-.61,1.89,1.89,0,0,0,0-.29l0-.3,0-.26a.31.31,0,0,1,0-.25.29.29,0,0,1,.21-.13h0a1.25,1.25,0,0,1,.61-.13,1.81,1.81,0,0,1,1,.25A1.23,1.23,0,0,1,49.5,6.82Zm-.6-.45a1,1,0,0,0-.63-.23.73.73,0,0,0-.23,0,.55.55,0,0,0-.34.43,1.2,1.2,0,0,0,0,.6v0c.05.15.2.23.43.23a1.17,1.17,0,0,0,.32,0A.71.71,0,0,0,49.09,7,.51.51,0,0,0,48.9,6.37Z"/><path d="M52.47,6.76a1.51,1.51,0,0,1-.13.6A2.29,2.29,0,0,1,52,8a.79.79,0,0,1-.61.24,2.8,2.8,0,0,1-.54-.08Q50,7.93,50,6.89a3,3,0,0,1,0-.31,1.45,1.45,0,0,1,.39-.79.86.86,0,0,1,.79-.29h.11a2.79,2.79,0,0,1,.49.09A1.23,1.23,0,0,1,52.47,6.76ZM52,6.36a.7.7,0,0,0-.43-.27h-.24c-.16,0-.22,0-.19,0l-.06,0a1,1,0,0,0-.48.33.86.86,0,0,0-.23.5.55.55,0,0,0,.25.47.81.81,0,0,0,.54.13,1.09,1.09,0,0,0,.57-.22.86.86,0,0,0,.34-.48A.58.58,0,0,0,52,6.36Z"/><path d="M55.09,7.33c.1,0,.15.08.17.23s-.13.43-.45.58a1.39,1.39,0,0,1-.75.13A1.24,1.24,0,0,1,52.94,7.2a1.61,1.61,0,0,1,0-.33,1.15,1.15,0,0,1,.64-1.16,1.43,1.43,0,0,1,.66-.18,1.67,1.67,0,0,1,.76.22l.11.06a.24.24,0,0,1,.14.24.25.25,0,0,1-.19.28,1.09,1.09,0,0,1-.36-.08,1.08,1.08,0,0,0-.31-.07.71.71,0,0,0-.21,0,.86.86,0,0,0-.86.51.42.42,0,0,0,0,.2.74.74,0,0,0,.21.49.77.77,0,0,0,.47.26h.22a1,1,0,0,0,.53-.13A1.6,1.6,0,0,1,55.09,7.33Z"/><path d="M57.61,7.5l0,.33.05.15a.15.15,0,0,1-.05.16.46.46,0,0,1-.22.07.44.44,0,0,1-.15-.09,1,1,0,0,1-.09-.45l-.09.1a4.32,4.32,0,0,1-.56.3.7.7,0,0,1-.63,0,.52.52,0,0,1-.18-.47,1.87,1.87,0,0,1,0-.39l0-.27a1,1,0,0,0,0-.19l0-.49s0-.11,0-.23,0-.19,0-.25a.27.27,0,0,1,0-.19c.23-.18.34,0,.34.66v0a2.1,2.1,0,0,0,0,.36v.38a1.23,1.23,0,0,0,0,.46c0,.13.14.15.34.07a1.19,1.19,0,0,0,.58-.5,1,1,0,0,0,.09-.47,1.22,1.22,0,0,0,0-.32,1.64,1.64,0,0,1,0-.26,1.58,1.58,0,0,1,0-.37c0-.08.08-.13.15-.13s.16.07.17.2a4.24,4.24,0,0,1,0,.66l0,.61s0,.14,0,.32A.57.57,0,0,0,57.61,7.5Z"/><path d="M58,8a.71.71,0,0,1,.07-.27,1.59,1.59,0,0,0,.09-.25c.05-.18.13-.44.24-.8,0,.06.09-.21.31-.8a1.22,1.22,0,0,1,.16-.33.21.21,0,0,1,.33,0,2.4,2.4,0,0,1,.29.65,7.72,7.72,0,0,1,.28.73c0,.07.08.18.14.34s.1.25.14.33.17.32.15.35a.35.35,0,0,1-.16.16c-.08,0-.14.06-.17,0l0,0a1.28,1.28,0,0,1-.12-.24,1.05,1.05,0,0,0-.11-.25l-.36-.68a.27.27,0,0,0,0-.08.56.56,0,0,0,0-.08A.16.16,0,0,0,59,6.61c-.08,0-.16.08-.25.26a2.74,2.74,0,0,0-.25.81,1.79,1.79,0,0,1-.06.38c-.06.13-.17.17-.33.11A.18.18,0,0,1,58,8Z"/><path d="M62.45,7.5l.06.33.05.15a.18.18,0,0,1-.05.16.46.46,0,0,1-.22.07.31.31,0,0,1-.15-.09s-.08-.19-.09-.45l-.09.1a5.09,5.09,0,0,1-.56.3.7.7,0,0,1-.63,0,.52.52,0,0,1-.18-.47,1.87,1.87,0,0,1,0-.39l0-.27a1,1,0,0,0,0-.19l0-.49s0-.11,0-.23a1.29,1.29,0,0,1,0-.25c0-.1,0-.16,0-.19.22-.18.34,0,.34.66v0c0,.08,0,.2,0,.36v.38a1,1,0,0,0,0,.46c0,.13.14.15.34.07a1.19,1.19,0,0,0,.58-.5A1,1,0,0,0,62,6.63a.9.9,0,0,0,0-.32V6.05a1.58,1.58,0,0,1,0-.37c0-.08.08-.13.14-.13s.17.07.18.2a6,6,0,0,1,0,.66l0,.61s0,.14,0,.32S62.45,7.47,62.45,7.5Z"/><path d="M63.56,7.22c.14,0,.2.12.19.35l0,0a2.9,2.9,0,0,1-.22.77q-.24.57-.45.45c-.07-.05-.07-.18,0-.41l.1-.26A1.51,1.51,0,0,1,63.25,8s0-.15,0-.35a.53.53,0,0,1,.09-.32A.29.29,0,0,1,63.56,7.22Z"/><path d="M68.28,7.5l0,.33,0,.15a.15.15,0,0,1,0,.16.43.43,0,0,1-.22.07A.44.44,0,0,1,68,8.12a1,1,0,0,1-.09-.45l-.09.1a5,5,0,0,1-.55.3.72.72,0,0,1-.64,0,.52.52,0,0,1-.18-.47,1.87,1.87,0,0,1,0-.39l0-.27V6.78l0-.49a1.34,1.34,0,0,0,0-.23c0-.11,0-.19,0-.25a.27.27,0,0,1,0-.19c.23-.18.34,0,.34.66v0a2.1,2.1,0,0,0,0,.36v.38a1.23,1.23,0,0,0,0,.46c0,.13.14.15.35.07a1.29,1.29,0,0,0,.58-.5,1.09,1.09,0,0,0,.08-.47,1.22,1.22,0,0,0,0-.32,1.64,1.64,0,0,1,0-.26,1.58,1.58,0,0,1,0-.37c0-.08.08-.13.15-.13s.16.07.17.2a4.24,4.24,0,0,1,0,.66l0,.61s0,.14,0,.32S68.27,7.47,68.28,7.5Z"/><path d="M71.34,7.22l-.22-.16a.68.68,0,0,1-.25-.37.74.74,0,0,1,0-.27.57.57,0,0,1,.08-.28,1.06,1.06,0,0,1,.6-.5,2.43,2.43,0,0,1,.56-.09,4.27,4.27,0,0,1,.59,0c.26,0,.36.15.29.34a.49.49,0,0,0-.1.34.53.53,0,0,1,0,.2c0,.18,0,.37,0,.56v.17c0,.06,0,.28.09.64a.54.54,0,0,1-.06.25c-.06.09-.13.13-.22.1A.19.19,0,0,1,72.52,8l0-.33a1,1,0,0,0,0-.25c0-.08-.06-.11-.19-.1a.75.75,0,0,0-.24,0l-.21.15a2.38,2.38,0,0,1-.24.26l-.24.27a.67.67,0,0,1-.26.21s-.09,0-.15,0a.17.17,0,0,1-.08-.11.21.21,0,0,1,0-.13l.38-.63A.16.16,0,0,0,71.34,7.22Zm1-1.15a.86.86,0,0,0-.55,0c-.27.1-.42.23-.46.41s0,.2.16.29a1.26,1.26,0,0,0,.49.11,1.76,1.76,0,0,0,.31,0,.19.19,0,0,0,.11-.08.23.23,0,0,0,.06-.12V6.53C72.48,6.26,72.43,6.1,72.34,6.07Z"/><path d="M77.45,8.12q-.17.14-.24.06A.24.24,0,0,1,77.12,8c0-.07,0-.2,0-.38a1,1,0,0,0,0-.22l0-.58a1.15,1.15,0,0,0-.08-.58c0-.09-.3-.09-.8,0-.18,0-.27.22-.28.56,0,.16,0,.36,0,.57s0,.2.07.37l0,.18a.16.16,0,0,1-.05.17.28.28,0,0,1-.22.09s-.08,0-.14-.1a.56.56,0,0,1-.09-.36l0-.83c0-.36,0-.62,0-.8a.32.32,0,0,1,0-.21.21.21,0,0,1,.15-.15l.17,0,.43-.06a2.26,2.26,0,0,1,.54,0c.32,0,.5.07.53.18a1.45,1.45,0,0,1,0,.63c0-.08,0,.16,0,.74a4.47,4.47,0,0,0,0,.73A.37.37,0,0,1,77.45,8.12Z"/><path d="M80.41,6.82a1.24,1.24,0,0,1-.11.54,1.23,1.23,0,0,1-1,.74.59.59,0,0,1-.35,0,.46.46,0,0,0-.3,0,.28.28,0,0,0-.1.13c0,.1,0,.26,0,.48a2.12,2.12,0,0,1,0,.54.25.25,0,0,1-.15.17.11.11,0,0,1-.18-.05l-.05-.07s0-.19,0-.55c0-.13,0-.25,0-.38V7.51a4.77,4.77,0,0,0,0-.61c0-.07,0-.17,0-.29l0-.3,0-.26a.31.31,0,0,1,0-.25.31.31,0,0,1,.22-.13h0A1.25,1.25,0,0,1,79,5.55a1.81,1.81,0,0,1,1,.25A1.23,1.23,0,0,1,80.41,6.82Zm-.6-.45a1,1,0,0,0-.63-.23.73.73,0,0,0-.23,0,.55.55,0,0,0-.34.43,1.33,1.33,0,0,0,0,.6v0c0,.15.2.23.43.23a1.12,1.12,0,0,0,.32,0A.74.74,0,0,0,80,7,.53.53,0,0,0,79.81,6.37Z"/><path d="M82.82,7.5l.05.33,0,.15a.15.15,0,0,1,0,.16.43.43,0,0,1-.22.07.44.44,0,0,1-.15-.09,1,1,0,0,1-.09-.45l-.09.1a5,5,0,0,1-.55.3.72.72,0,0,1-.64,0A.52.52,0,0,1,81,7.63a1.87,1.87,0,0,1,0-.39L81,7V6.78l0-.49a1.34,1.34,0,0,0,0-.23c0-.11,0-.19,0-.25A.27.27,0,0,1,81,5.62c.23-.18.34,0,.34.66v0a2.1,2.1,0,0,0,0,.36v.38a1.23,1.23,0,0,0,0,.46c0,.13.14.15.35.07a1.29,1.29,0,0,0,.58-.5,1.09,1.09,0,0,0,.08-.47,1.22,1.22,0,0,0,0-.32,1.64,1.64,0,0,1,0-.26,1.58,1.58,0,0,1,0-.37c0-.08.08-.13.15-.13s.16.07.18.2a6.25,6.25,0,0,1,0,.66l0,.61s0,.14,0,.32S82.81,7.47,82.82,7.5Z"/><path d="M83.39,6.18a2.76,2.76,0,0,1,0-.37.22.22,0,0,1,.24-.19.17.17,0,0,1,.2.14.62.62,0,0,1,0,.36,1.55,1.55,0,0,0,0,.42c0,.08,0,.18,0,.3s0,.23,0,.37.08.3.24.32a.56.56,0,0,0,.43,0,1.08,1.08,0,0,0,.27-.73,2.33,2.33,0,0,0,0-.39s0-.08,0-.17a.92.92,0,0,0,0-.18.35.35,0,0,1,.06-.28c.11-.1.2-.12.28-.07s.09.1.09.21a2,2,0,0,1-.06.44s0,.18,0,.59.08.5.2.56a.66.66,0,0,0,.43,0,.47.47,0,0,0,.28-.52l0-.25a.94.94,0,0,1,0-.32c0-.08,0-.21-.08-.37l0-.19a.17.17,0,0,1,0-.17.32.32,0,0,1,.22-.09s.09,0,.15.1a.6.6,0,0,1,.11.35l0,.84a5.17,5.17,0,0,0,.09.85,1.63,1.63,0,0,1,0,.39.27.27,0,0,1-.12.14.32.32,0,0,1-.22,0l0,0a.3.3,0,0,1-.06-.09A.72.72,0,0,0,86,8l-.34.1a.85.85,0,0,1-.26,0A.47.47,0,0,1,85,8h0a.3.3,0,0,0-.16,0,.55.55,0,0,0-.29.08,1.05,1.05,0,0,1-.44.11.65.65,0,0,1-.46-.1.76.76,0,0,1-.19-.28q-.08-.28-.09-.36a.88.88,0,0,1,0-.23c0-.16,0-.26,0-.3Z"/><path d="M87.65,7.11c-.13,0-.17.11-.14.21a.83.83,0,0,0,.37.32,1,1,0,0,0,.32,0,1.4,1.4,0,0,0,.56-.1l.33-.15c.07,0,.11.08.11.24a.56.56,0,0,1-.37.47,1.53,1.53,0,0,1-.66.13.77.77,0,0,1-.25,0A1.22,1.22,0,0,1,87,7.06a1.92,1.92,0,0,1,.13-.88,1,1,0,0,1,.54-.58,1.37,1.37,0,0,1,.49-.11,1.4,1.4,0,0,1,.86.27l.13.1a.91.91,0,0,1,.27.72.53.53,0,0,1-.08.32L88.61,7,88,7.08Zm1.06-.53c.15,0,.22-.12.19-.21s0,0,0-.07l-.08-.08s0-.06-.06-.06l-.34-.1a.81.81,0,0,0-.84.27.17.17,0,0,0,0,.23.25.25,0,0,0,.23.07h.3a1,1,0,0,0,.31,0Zm-.92-2.06a.44.44,0,0,1,.16.36.31.31,0,0,1-.07.2c0,.09-.1.12-.16.11s-.22-.15-.23-.41v0a.36.36,0,0,1,0-.11.3.3,0,0,1,.12-.13A.14.14,0,0,1,87.79,4.52Zm.86,0a.12.12,0,0,1,.13.07.56.56,0,0,1,.07.38.26.26,0,0,1-.31.2c-.12,0-.16-.15-.12-.35v0a.24.24,0,0,1,.06-.15A.23.23,0,0,1,88.65,4.54Z"/><path d="M89.77,8a.77.77,0,0,1,.08-.27c.05-.15.08-.23.09-.25,0-.18.13-.44.24-.8,0,.06.09-.21.3-.8a1.48,1.48,0,0,1,.17-.33.21.21,0,0,1,.33,0,2.4,2.4,0,0,1,.29.65c.2.52.3.76.28.73s.08.18.14.34.1.25.14.33a1,1,0,0,1,.15.35.35.35,0,0,1-.16.16q-.12.07-.18,0l0,0a1.28,1.28,0,0,1-.12-.24,1.79,1.79,0,0,0-.11-.25L91,6.88s0,0,0-.08a.56.56,0,0,0,0-.08.16.16,0,0,0-.14-.11c-.08,0-.16.08-.25.26a2.74,2.74,0,0,0-.25.81,1.79,1.79,0,0,1-.06.38c-.06.13-.17.17-.34.11A.2.2,0,0,1,89.77,8Z"/><path d="M93.23,7.81a.17.17,0,0,1-.08.17.74.74,0,0,1-.45.2c-.19,0-.27-.12-.23-.31s.17-.24.41-.25h.05a.33.33,0,0,1,.18,0A.19.19,0,0,1,93.23,7.81Z"/><path d="M36.32,11.62c.12-.14.14-.23,0-.27l0,0a1.33,1.33,0,0,1-.63-.29.7.7,0,0,1-.26-.61,1.13,1.13,0,0,1,.09-.41,1.31,1.31,0,0,1,.27-.33,1.52,1.52,0,0,1,.59-.3,3.75,3.75,0,0,1,1.14-.16,2.47,2.47,0,0,1,.59,0l.12.07a.18.18,0,0,1,.07.08,1,1,0,0,1-.15.37l0,.07,0,.39v.87c0,.21,0,.52.07.94a1.1,1.1,0,0,1-.07.5.32.32,0,0,1-.14.14.15.15,0,0,1-.17,0,.28.28,0,0,1-.06-.2s0-.07,0-.27l0-.41c0-.15-.07-.23-.11-.24a1.32,1.32,0,0,0-.25-.05,1.17,1.17,0,0,0-.39.09l-.21.19-.31.37c-.15.18-.26.3-.33.37a1.39,1.39,0,0,1-.4.27.18.18,0,0,1-.19-.05c-.07,0-.1-.09-.1-.12a.33.33,0,0,1,.1-.18Zm.76-1.84a1.62,1.62,0,0,0-.91.3c-.17.15-.24.29-.21.41s.07.21.27.3a1.6,1.6,0,0,0,.63.15h.44a.55.55,0,0,0,.47-.28,1.21,1.21,0,0,0,0-.52c0-.2-.1-.31-.18-.34Z"/><path d="M43.28,11.31a1.53,1.53,0,0,1-.14.6,2.08,2.08,0,0,1-.35.6.81.81,0,0,1-.62.24,2.62,2.62,0,0,1-.53-.08q-.81-.2-.81-1.23a3,3,0,0,1,0-.31,1.32,1.32,0,0,1,.39-.79.88.88,0,0,1,.79-.29h.11a3.33,3.33,0,0,1,.49.09A1.25,1.25,0,0,1,43.28,11.31Zm-.46-.4a.62.62,0,0,0-.43-.26l-.23,0c-.16,0-.23,0-.19,0l-.06,0a1,1,0,0,0-.49.33.84.84,0,0,0-.22.5.52.52,0,0,0,.24.47.82.82,0,0,0,.55.13,1,1,0,0,0,.56-.22.88.88,0,0,0,.35-.48A.59.59,0,0,0,42.82,10.91Z"/><path d="M45.9,11.88c.1,0,.15.08.16.23s-.13.43-.44.58a1.39,1.39,0,0,1-.75.13,1.26,1.26,0,0,1-1.13-1.07,1.62,1.62,0,0,1,0-.33,1.16,1.16,0,0,1,.63-1.16,1.47,1.47,0,0,1,.67-.18,1.67,1.67,0,0,1,.76.22l.11.07c.09,0,.13.11.13.23s-.06.25-.19.28a1,1,0,0,1-.35-.08,1.73,1.73,0,0,0-.31-.07.75.75,0,0,0-.21,0,.85.85,0,0,0-.86.51.42.42,0,0,0,0,.2.74.74,0,0,0,.21.49.75.75,0,0,0,.47.26H45a1.07,1.07,0,0,0,.53-.13A1.6,1.6,0,0,1,45.9,11.88Z"/><path d="M49.64,12.13a2.67,2.67,0,0,1,0,.37.23.23,0,0,1-.25.19.18.18,0,0,1-.2-.15.73.73,0,0,1,0-.36,1.63,1.63,0,0,0,0-.42c0-.08,0-.18,0-.3s0-.2,0-.29a.3.3,0,0,0-.23-.33.65.65,0,0,0-.43.05c-.15.07-.25.28-.28.61a2,2,0,0,0,0,.38v.17a1,1,0,0,0,0,.19c0,.14,0,.23-.07.28s-.2.11-.28.06a.23.23,0,0,1-.08-.21,2.28,2.28,0,0,1,.07-.44s0-.18,0-.6-.06-.52-.19-.59a.59.59,0,0,0-.43,0c-.19.07-.29.26-.29.55l0,.25a1.2,1.2,0,0,1,0,.32c0,.08,0,.21.07.37l.05.18a.16.16,0,0,1-.05.17.28.28,0,0,1-.22.09s-.09,0-.15-.1a.56.56,0,0,1-.09-.35l0-.84c0-.35,0-.62,0-.8a1,1,0,0,1,0-.38.25.25,0,0,1,.12-.13.17.17,0,0,1,.17,0l0,0a.3.3,0,0,1,.06.09l.07,0,.35-.09a.81.81,0,0,1,.25,0,.46.46,0,0,1,.37.18h0a.35.35,0,0,0,.16.06.94.94,0,0,0,.39-.07l.41-.11a.5.5,0,0,1,.39.09.81.81,0,0,1,.18.35c.05.19.08.32.09.37a2.11,2.11,0,0,1,0,.23c0,.1,0,.18,0,.22Z"/><path d="M52.5,11.91v.33a2,2,0,0,1,0,.34c0,.12-.07.18-.16.2l-.22,0-.37,0h-.16a2.59,2.59,0,0,1-1.09-.17.66.66,0,0,1-.33-.62.87.87,0,0,1,.06-.32.76.76,0,0,1,.89-.51,2.64,2.64,0,0,0,.55,0c.25,0,.38-.1.38-.19s0-.16-.17-.23a.69.69,0,0,0-.35-.1l-.43.07-.41.07c-.13,0-.2,0-.2-.17a.63.63,0,0,1,.08-.28.17.17,0,0,1,.17-.11l.5-.11.28,0a.85.85,0,0,1,.36.05,1.18,1.18,0,0,1,.43.28.9.9,0,0,1,.22.65c0,.06,0,.15,0,.26s0,.23,0,.28S52.49,11.78,52.5,11.91Zm-1.06.32c.43,0,.66-.1.7-.29v-.1c-.06-.13-.2-.19-.41-.19h-.32a1.14,1.14,0,0,0-.7.19c-.09.06-.14.12-.14.16s0,.1.13.14a1.44,1.44,0,0,0,.48.08Z"/><path d="M54.54,11.15c0-.08,0-.17,0-.29a1.57,1.57,0,0,1,0-.26,1,1,0,0,1,0-.36c0-.09.08-.13.14-.13s.16.06.18.19a6.25,6.25,0,0,1,0,.66v.74h0a6.34,6.34,0,0,0,0,.75.38.38,0,0,1-.06.28c-.12.08-.21.1-.29,0a.23.23,0,0,1-.08-.21,2.39,2.39,0,0,1,.07-.44,1,1,0,0,0,0-.22l0-.34a5.88,5.88,0,0,1-.61.06l-.32,0-.11,0c0,.07,0,.13,0,.2s0,.21.07.37l0,.18a.16.16,0,0,1-.05.17.28.28,0,0,1-.22.09s-.09,0-.14-.1a.54.54,0,0,1-.1-.35v-.39a4.53,4.53,0,0,0,0-.52l0-.49s0-.11,0-.23a1.29,1.29,0,0,1,0-.25c0-.1,0-.16,0-.19.23-.18.35,0,.35.66v.29a.24.24,0,0,0,.21.06h.31a1,1,0,0,0,.31,0A.66.66,0,0,0,54.54,11.15Z"/><path d="M57.92,11.31a1.51,1.51,0,0,1-.13.6,2.29,2.29,0,0,1-.36.6.79.79,0,0,1-.61.24,2.7,2.7,0,0,1-.54-.08q-.81-.2-.81-1.23a3,3,0,0,1,0-.31,1.45,1.45,0,0,1,.39-.79.88.88,0,0,1,.79-.29h.11a3,3,0,0,1,.49.09A1.23,1.23,0,0,1,57.92,11.31Zm-.45-.4a.67.67,0,0,0-.44-.26l-.23,0c-.16,0-.22,0-.19,0l-.06,0a1,1,0,0,0-.48.33.8.8,0,0,0-.23.5.55.55,0,0,0,.25.47.81.81,0,0,0,.54.13,1.09,1.09,0,0,0,.57-.22.86.86,0,0,0,.34-.48A.62.62,0,0,0,57.47,10.91Z"/><path d="M60.22,11.27a.69.69,0,0,1,.34.39,1.13,1.13,0,0,1,0,.32.66.66,0,0,1-.33.62,2.6,2.6,0,0,1-1,.15H59.1l-.37,0-.19,0a.26.26,0,0,1-.19-.23,1.1,1.1,0,0,1,0-.24v-.33c0-.13,0-.25,0-.35s0-.15,0-.29,0-.34,0-.41a3.59,3.59,0,0,1,0-.4.37.37,0,0,1,.12-.2.69.69,0,0,1,.37-.12,3.21,3.21,0,0,1,.81,0,1.16,1.16,0,0,1,.41.16.76.76,0,0,1,.21.23,1.05,1.05,0,0,1,.07.3.61.61,0,0,1-.08.3A.3.3,0,0,1,60.22,11.27Zm-.64,1a1.74,1.74,0,0,0,.49-.09c.09-.07.13-.13.13-.18a.48.48,0,0,0-.15-.18,1.14,1.14,0,0,0-.7-.19H59.1a.43.43,0,0,0-.41.21v.1c0,.22.25.33.64.33Zm.24-1.58a1.15,1.15,0,0,0-.22-.07l-.28,0c-.26,0-.42,0-.48.11a.46.46,0,0,0,0,.29c0,.09.13.14.38.15a1.39,1.39,0,0,0,.3,0c.4-.07.57-.17.5-.31A.33.33,0,0,0,59.82,10.68Z"/><path d="M62.93,12.05l0,.33.05.16a.14.14,0,0,1-.05.15.37.37,0,0,1-.22.07.31.31,0,0,1-.15-.09.87.87,0,0,1-.09-.45l-.09.1a3.37,3.37,0,0,1-.56.3.7.7,0,0,1-.63,0,.52.52,0,0,1-.18-.47,1.92,1.92,0,0,1,0-.39l0-.26a1.15,1.15,0,0,0,0-.2l0-.49s0-.11,0-.23,0-.19,0-.25a.27.27,0,0,1,0-.19c.22-.18.34,0,.34.66v.05a2.21,2.21,0,0,0,0,.37v.37a1.3,1.3,0,0,0,0,.47c0,.12.14.14.34.06a1.23,1.23,0,0,0,.58-.49,1,1,0,0,0,.09-.48,1.22,1.22,0,0,0,0-.32,1.57,1.57,0,0,1,0-.26,1.43,1.43,0,0,1,0-.36c0-.09.08-.13.15-.13s.16.06.17.19a4.24,4.24,0,0,1,0,.66l0,.61s0,.14,0,.32A.57.57,0,0,0,62.93,12.05Z"/><path d="M63.32,12.53a.76.76,0,0,1,.07-.27c.06-.15.08-.23.09-.25.05-.18.13-.44.24-.8,0,.06.09-.21.31-.8a1.41,1.41,0,0,1,.16-.33.21.21,0,0,1,.33,0,2.4,2.4,0,0,1,.29.65c.2.52.3.76.28.73s.08.18.14.34.1.25.14.33a1,1,0,0,1,.15.35.31.31,0,0,1-.16.16c-.08.05-.14.06-.17,0l0-.05a1.47,1.47,0,0,1-.12-.23,1,1,0,0,0-.11-.26l-.36-.68a.27.27,0,0,0,0-.08l0-.08a.16.16,0,0,0-.14-.11c-.08,0-.16.08-.25.26a2.71,2.71,0,0,0-.25.82,1.65,1.65,0,0,1-.06.37c-.06.13-.17.17-.33.11A.18.18,0,0,1,63.32,12.53Z"/><path d="M70.18,11.88c.09,0,.15.08.16.23s-.13.43-.44.58a1.44,1.44,0,0,1-.76.13A1.24,1.24,0,0,1,68,11.75a1.55,1.55,0,0,1,0-.33,1.15,1.15,0,0,1,.64-1.16,1.43,1.43,0,0,1,.67-.18,1.67,1.67,0,0,1,.75.22l.11.07a.22.22,0,0,1,.14.23.25.25,0,0,1-.19.28,1.09,1.09,0,0,1-.36-.08,1.63,1.63,0,0,0-.3-.07.78.78,0,0,0-.22,0,.86.86,0,0,0-.86.51.59.59,0,0,0,0,.2.74.74,0,0,0,.21.49.77.77,0,0,0,.47.26h.22a1.08,1.08,0,0,0,.54-.13A1.36,1.36,0,0,1,70.18,11.88Z"/><path d="M73.92,12.13a2,2,0,0,1,0,.37.21.21,0,0,1-.24.19.17.17,0,0,1-.2-.15.56.56,0,0,1,0-.36,2.86,2.86,0,0,0,0-.42v-.3c0-.11,0-.2,0-.29a.3.3,0,0,0-.24-.33.66.66,0,0,0-.43.05c-.15.07-.24.28-.28.61a2,2,0,0,0,0,.38.46.46,0,0,1,0,.17.92.92,0,0,0,0,.19.35.35,0,0,1-.07.28c-.11.09-.21.11-.29.06a.26.26,0,0,1-.08-.21,2.6,2.6,0,0,1,.08-.44,4.84,4.84,0,0,1,0-.6c0-.32-.07-.52-.19-.59a.59.59,0,0,0-.43,0c-.2.07-.3.26-.3.55l0,.25a1.29,1.29,0,0,1,0,.32c0,.08,0,.21.07.37l0,.18a.16.16,0,0,1,0,.17.3.3,0,0,1-.22.09.19.19,0,0,1-.15-.1.5.5,0,0,1-.1-.35l0-.84c0-.35,0-.62,0-.8a2.07,2.07,0,0,1,0-.38.37.37,0,0,1,.12-.13.19.19,0,0,1,.18,0l0,0a.2.2,0,0,1,0,.09l.07,0,.35-.09a.87.87,0,0,1,.26,0,.46.46,0,0,1,.37.18h0a.33.33,0,0,0,.15.06,1,1,0,0,0,.4-.07l.41-.11a.47.47,0,0,1,.38.09.64.64,0,0,1,.18.35,2.86,2.86,0,0,1,.09.37.87.87,0,0,1,0,.23,1.08,1.08,0,0,0,0,.22Z"/><path d="M76.87,11.37a1.25,1.25,0,0,1-.12.54,1.23,1.23,0,0,1-1,.74.69.69,0,0,1-.35,0q-.23-.08-.3,0a.34.34,0,0,0-.1.13c0,.1,0,.26,0,.48a2.12,2.12,0,0,1,0,.54.23.23,0,0,1-.15.17.11.11,0,0,1-.18,0l0-.07s0-.19,0-.55c0-.13,0-.25,0-.38v-.83a4.77,4.77,0,0,0,0-.61c0-.07,0-.17,0-.29l0-.3,0-.26a.33.33,0,0,1,0-.25.35.35,0,0,1,.22-.13h0a1.27,1.27,0,0,1,.61-.13,1.91,1.91,0,0,1,1,.25A1.23,1.23,0,0,1,76.87,11.37Zm-.61-.45a1,1,0,0,0-.63-.23.79.79,0,0,0-.23,0,.55.55,0,0,0-.34.43,1.33,1.33,0,0,0,0,.6l0,.05c0,.15.19.22.42.22a1.24,1.24,0,0,0,.33,0,.72.72,0,0,0,.58-.49A.53.53,0,0,0,76.26,10.92Z"/><path d="M79.84,11.31a1.53,1.53,0,0,1-.14.6,2.29,2.29,0,0,1-.36.6.79.79,0,0,1-.61.24,2.62,2.62,0,0,1-.53-.08,1.1,1.1,0,0,1-.82-1.23,1.55,1.55,0,0,1,0-.31,1.37,1.37,0,0,1,.38-.79.9.9,0,0,1,.8-.29h.11a3.33,3.33,0,0,1,.49.09A1.25,1.25,0,0,1,79.84,11.31Zm-.46-.4a.65.65,0,0,0-.43-.26l-.23,0c-.17,0-.23,0-.2,0l-.06,0A1,1,0,0,0,78,11a.86.86,0,0,0-.23.5A.55.55,0,0,0,78,12a.82.82,0,0,0,.55.13,1.09,1.09,0,0,0,.56-.22.86.86,0,0,0,.34-.48A.58.58,0,0,0,79.38,10.91Z"/><path d="M82.17,12.05l0,.33,0,.16a.13.13,0,0,1,0,.15.33.33,0,0,1-.21.07.31.31,0,0,1-.15-.09s-.08-.19-.1-.45c0,0,0,0-.09.1a3.73,3.73,0,0,1-.55.3.72.72,0,0,1-.64,0,.54.54,0,0,1-.17-.47,1.39,1.39,0,0,1,0-.39l0-.26s0-.12,0-.2l0-.49a1.34,1.34,0,0,0,0-.23c0-.11,0-.19,0-.25a.27.27,0,0,1,0-.19c.23-.18.34,0,.34.66v.05a2.52,2.52,0,0,0,0,.37v.37a1,1,0,0,0,0,.47c0,.12.13.14.34.06a1.28,1.28,0,0,0,.58-.49,1.16,1.16,0,0,0,.08-.48,1.22,1.22,0,0,0,0-.32s0-.13,0-.26a1,1,0,0,1,0-.36c0-.09.08-.13.14-.13s.16.06.18.19a6.25,6.25,0,0,1,0,.66l0,.61s0,.14,0,.32S82.17,12,82.17,12.05Zm-.39-2.59a.17.17,0,0,1,0,.22.8.8,0,0,1-.61.34.69.69,0,0,1-.45-.19c-.15-.13-.17-.26-.06-.37a.16.16,0,0,1,.09,0,.72.72,0,0,1,.24.1.45.45,0,0,0,.28,0,.71.71,0,0,0,.19-.08l.13-.08A.14.14,0,0,1,81.78,9.46Z"/><path d="M85,12.57s0,.1-.12.16-.22,0-.48-.28a3,3,0,0,1-.22-.24L84,12a2.39,2.39,0,0,0-.49-.43.18.18,0,0,0-.21,0l-.06,0a.52.52,0,0,0-.06.21v.11l0,.22,0,.25a.24.24,0,0,1-.06.21c-.08.08-.15.12-.21.11s-.08,0-.13-.13a.88.88,0,0,1-.09-.46l0-1.07a5.71,5.71,0,0,1,0-.9.27.27,0,0,1,.14-.16.12.12,0,0,1,.18.06l0,.06a2.3,2.3,0,0,1,0,.45,1.1,1.1,0,0,0,0,.21c0,.13.1.2.25.2a.42.42,0,0,0,.21-.06,2.55,2.55,0,0,0,.53-.55.89.89,0,0,1,.5-.39c.12,0,.18,0,.17.13a1.43,1.43,0,0,1-.08.26,2,2,0,0,1-.32.41.85.85,0,0,1-.14.19.86.86,0,0,0-.13.2c0,.06.12.27.4.64a2.69,2.69,0,0,1,.22.31l.2.3A.33.33,0,0,1,85,12.57Z"/><path d="M87.53,10c.15,0,.2.11.14.31a2.49,2.49,0,0,1-.14.42,3.53,3.53,0,0,0-.27.6l-.06.22c0,.15-.12.35-.19.6l-.18.63-.16.58a1.71,1.71,0,0,1-.09.3.17.17,0,0,1-.18.12.29.29,0,0,1-.19-.08.18.18,0,0,1-.09-.17.58.58,0,0,1,.07-.25,1.34,1.34,0,0,0,.14-.31,4.36,4.36,0,0,0,.12-.6.71.71,0,0,0,0-.21,1.33,1.33,0,0,0-.32-.63,2,2,0,0,1-.17-.29L85.8,11a3,3,0,0,1-.36-.57.52.52,0,0,1,.06-.33c.07-.12.13-.16.21-.12a1.83,1.83,0,0,1,.4.57l.12.21a.85.85,0,0,0,.4.47c.19.12.36-.06.51-.52a1.74,1.74,0,0,1,.13-.58A.36.36,0,0,1,87.53,10Z"/><path d="M88.83,12.36a.18.18,0,0,1-.09.18.75.75,0,0,1-.44.19c-.19,0-.27-.11-.23-.31s.17-.24.41-.25h0a.38.38,0,0,1,.17,0A.21.21,0,0,1,88.83,12.36Z"/><path d="M35.91,16.77v.1a1.22,1.22,0,0,1-.06.33c-.06.11-.14.1-.25,0l-.05-.07a.4.4,0,0,1-.11-.29,2.39,2.39,0,0,1,.41-1,9.64,9.64,0,0,0,.71-1.42,1,1,0,0,1,.32-.53.35.35,0,0,1,.22-.08c.09,0,.18.07.25.2a1.59,1.59,0,0,1,.12.34,2.05,2.05,0,0,0,.13.35q.12.3.24.69a6.52,6.52,0,0,0,.32.77c.17.36.28.62.33.76s.07.33,0,.39-.12.06-.23,0a.46.46,0,0,1-.18-.19q-.22-.47-.69-1.5c-.17-.48-.34-.72-.49-.72a.23.23,0,0,0-.19.11,3.9,3.9,0,0,0-.46.87C36.06,16.34,35.94,16.65,35.91,16.77Z"/><path d="M39.72,16.21l0,0-.24,0-.11,0a1.36,1.36,0,0,1,0,.2c0,.08,0,.21.07.37l0,.18a.17.17,0,0,1-.05.18.29.29,0,0,1-.21.08c-.05,0-.09,0-.15-.1a.54.54,0,0,1-.09-.35V16.4a2.24,2.24,0,0,0,0-.52l0-.49s0-.1,0-.23,0-.19,0-.25a.27.27,0,0,1,0-.19c.22-.18.34,0,.34.66v0a1,1,0,0,0,0,.24.28.28,0,0,0,.21.07l.15,0s0,0,0,0a1.55,1.55,0,0,1,.41-.78.9.9,0,0,1,.8-.29H41a3.33,3.33,0,0,1,.49.09,1.25,1.25,0,0,1,.65,1.16,1.53,1.53,0,0,1-.14.6,2.29,2.29,0,0,1-.36.6.79.79,0,0,1-.61.24,2.62,2.62,0,0,1-.53-.08A1,1,0,0,1,39.72,16.21Zm2-.75a.65.65,0,0,0-.43-.26l-.23,0c-.17,0-.23,0-.2,0l-.06,0a1,1,0,0,0-.48.33.86.86,0,0,0-.23.5.55.55,0,0,0,.25.47.82.82,0,0,0,.55.13,1.07,1.07,0,0,0,.56-.21.88.88,0,0,0,.34-.49A.58.58,0,0,0,41.71,15.46Z"/><path d="M43.22,15.24a1.36,1.36,0,0,1,.47-.14,1.19,1.19,0,0,1,.67.08,1.08,1.08,0,0,1,.46.32,1.06,1.06,0,0,1,.19.43,1.86,1.86,0,0,1,0,.62.82.82,0,0,1-.15.36,1.11,1.11,0,0,1-.36.3,1.28,1.28,0,0,1-.43.12,1.68,1.68,0,0,1-1-.2.81.81,0,0,1-.37-.44,1.81,1.81,0,0,1-.09-.58,2.7,2.7,0,0,1,0-.61,2.78,2.78,0,0,1,.13-.55,1.19,1.19,0,0,1,.27-.46.79.79,0,0,1,.37-.25,2.2,2.2,0,0,1,.33-.07l.32,0a1.23,1.23,0,0,0,.31-.08A.8.8,0,0,1,44.6,14a.2.2,0,0,1,.17.11.56.56,0,0,1,.07.23.21.21,0,0,1-.19.22.83.83,0,0,1-.43.1l-.45,0a.56.56,0,0,0-.49.32A1.76,1.76,0,0,0,43.22,15.24Zm1.18.54a.64.64,0,0,0-.43-.19,1,1,0,0,0-.35,0,.67.67,0,0,0-.49.27c-.07.35,0,.58.09.69a.85.85,0,0,0,.67.2.71.71,0,0,0,.23,0,.45.45,0,0,0,.39-.3.88.88,0,0,0,0-.35A.8.8,0,0,0,44.4,15.78Z"/><path d="M47.48,16.6l.05.33,0,.16c0,.07,0,.12,0,.15a.37.37,0,0,1-.22.07.44.44,0,0,1-.15-.09,1,1,0,0,1-.09-.45l-.09.1a3.37,3.37,0,0,1-.56.3.7.7,0,0,1-.63,0c-.12-.07-.18-.23-.18-.47a1.92,1.92,0,0,1,0-.39l0-.26a1.09,1.09,0,0,0,0-.2l0-.49s0-.1,0-.23,0-.19,0-.25a.27.27,0,0,1,.05-.19c.23-.18.34,0,.34.66v0a2.21,2.21,0,0,0,0,.37v.37a1.29,1.29,0,0,0,0,.47c0,.12.14.14.34.06a1.3,1.3,0,0,0,.59-.49,1.14,1.14,0,0,0,.08-.47,1.27,1.27,0,0,0,0-.33,1.49,1.49,0,0,1,0-.25,1.47,1.47,0,0,1,0-.37c0-.09.08-.13.15-.13s.16.06.17.19a4.33,4.33,0,0,1,0,.66l0,.61s0,.14,0,.32A1.32,1.32,0,0,0,47.48,16.6Z"/><path d="M51.08,16.68a2.67,2.67,0,0,1,0,.37.22.22,0,0,1-.25.19.18.18,0,0,1-.2-.15.74.74,0,0,1,0-.36,1.58,1.58,0,0,0,0-.41c0-.09,0-.19,0-.3v-.3a.3.3,0,0,0-.24-.33.65.65,0,0,0-.43,0c-.15.07-.25.28-.28.61a2,2,0,0,0,0,.38v.17a1,1,0,0,0,0,.19c0,.14,0,.23-.07.28s-.2.11-.28.06-.08-.1-.08-.21a2.28,2.28,0,0,1,.07-.44s0-.18,0-.59-.06-.53-.19-.6a.64.64,0,0,0-.43,0,.53.53,0,0,0-.29.55l0,.25a1.2,1.2,0,0,1,0,.32c0,.08,0,.21.07.37l0,.18a.19.19,0,0,1,0,.18.3.3,0,0,1-.22.08s-.09,0-.15-.1a.56.56,0,0,1-.09-.35l0-.84c0-.35,0-.62,0-.8a1,1,0,0,1,0-.38.29.29,0,0,1,.12-.13.17.17,0,0,1,.17,0l0,0a.3.3,0,0,1,.06.09s.05,0,.07,0l.35-.09a.82.82,0,0,1,.26,0,.45.45,0,0,1,.36.18h0a.35.35,0,0,0,.16.06.94.94,0,0,0,.39-.07l.41-.1a.46.46,0,0,1,.39.08.81.81,0,0,1,.18.35c0,.19.08.32.09.37a2,2,0,0,1,0,.23c0,.11,0,.18,0,.22Z"/><path d="M52.31,16.21c-.13,0-.17.11-.14.21a.83.83,0,0,0,.37.32,1,1,0,0,0,.32.05,1.4,1.4,0,0,0,.56-.11l.33-.15c.07,0,.11.08.11.24a.56.56,0,0,1-.37.47,1.53,1.53,0,0,1-.66.13l-.25,0a1.24,1.24,0,0,1-.9-1.19,1.94,1.94,0,0,1,.13-.88,1,1,0,0,1,.53-.58,1.46,1.46,0,0,1,.5-.11,1.4,1.4,0,0,1,.86.27l.13.1a.91.91,0,0,1,.27.72A.61.61,0,0,1,54,16l-.75.12-.64.07Zm1.06-.53c.15,0,.22-.12.19-.21s0,0,0-.07l-.08-.07a.14.14,0,0,0-.06-.07,1.73,1.73,0,0,1-.34-.1.83.83,0,0,0-.84.28.16.16,0,0,0,0,.22.28.28,0,0,0,.23.08H53Z"/><path d="M56.58,17.26c-.08,0-.1-.12-.08-.24s.08-.29.2-.69a6.92,6.92,0,0,0,.22-.72,2.05,2.05,0,0,0,0-.37,2.06,2.06,0,0,1,.05-.36.41.41,0,0,1,.23-.27.3.3,0,0,1,.33,0,1.55,1.55,0,0,1,.23.6c.06.21.11.31.15.31s.09-.06.15-.18a6.05,6.05,0,0,1,.29-.62.25.25,0,0,1,.22-.11.24.24,0,0,1,.26.21c0,.07,0,.18.07.33l.06.34c0,.14.09.37.18.69a6.63,6.63,0,0,1,.18.7v0a.2.2,0,0,1-.11.24c-.11.06-.19.06-.26,0a1.28,1.28,0,0,1-.18-.49q-.07-.29-.15-.51-.18-.54-.27-.42a1.13,1.13,0,0,0-.17.47s0,.18-.05.41a2.28,2.28,0,0,1-.08.41.21.21,0,0,1-.21.15.22.22,0,0,1-.23-.19,3.14,3.14,0,0,1,0-.35,1.49,1.49,0,0,0,0-.36.5.5,0,0,1,0-.13c0-.08,0-.13,0-.18s-.09-.19-.14-.19-.17.22-.27.71-.17.7-.25.75A.21.21,0,0,1,56.58,17.26Z"/><path d="M60.33,16.21c-.13,0-.17.11-.13.21a.76.76,0,0,0,.36.32,1,1,0,0,0,.32.05,1.4,1.4,0,0,0,.56-.11l.33-.15c.07,0,.11.08.11.24a.56.56,0,0,1-.37.47,1.53,1.53,0,0,1-.66.13l-.25,0a1.24,1.24,0,0,1-.9-1.19,1.94,1.94,0,0,1,.13-.88,1,1,0,0,1,.54-.58,1.37,1.37,0,0,1,.49-.11,1.4,1.4,0,0,1,.86.27l.13.1a.91.91,0,0,1,.27.72.61.61,0,0,1-.07.32l-.76.12-.64.07Zm1.06-.53c.16,0,.22-.12.19-.21s0,0,0-.07l-.07-.07a.22.22,0,0,0-.07-.07l-.34-.1a.83.83,0,0,0-.84.28.16.16,0,0,0,0,.22.28.28,0,0,0,.23.08H61Z"/><path d="M64,15.7c0-.08,0-.17,0-.29a1.49,1.49,0,0,1,0-.25,1.47,1.47,0,0,1,0-.37c0-.09.08-.13.15-.13s.16.06.17.19a4.33,4.33,0,0,1,0,.66v.74h0c0,.15,0,.39,0,.75a.31.31,0,0,1-.06.28c-.11.08-.21.1-.28,0s-.08-.1-.08-.21a2.39,2.39,0,0,1,.07-.44,1.22,1.22,0,0,0,0-.22l0-.34c-.24,0-.45.06-.6.07l-.33,0-.1,0a1.36,1.36,0,0,0,0,.2c0,.08,0,.21.06.37l.05.18a.22.22,0,0,1-.05.18.32.32,0,0,1-.22.08s-.09,0-.14-.1a.49.49,0,0,1-.1-.35V16.4a3,3,0,0,0,0-.52l0-.49a1.41,1.41,0,0,0,0-.23c0-.11,0-.19,0-.25a.27.27,0,0,1,0-.19c.23-.18.34,0,.34.66v0a1,1,0,0,0,0,.24.28.28,0,0,0,.21.07h.61Z"/><path d="M65.42,16.32l-.21-.16a.7.7,0,0,1-.26-.37.74.74,0,0,1,0-.27.6.6,0,0,1,.08-.28,1,1,0,0,1,.61-.49,1.6,1.6,0,0,1,.56-.09,3.17,3.17,0,0,1,.58,0c.26,0,.36.15.3.34a.46.46,0,0,0-.11.35.5.5,0,0,1,0,.19c0,.18,0,.37,0,.56a.91.91,0,0,0,0,.17c0,.06,0,.28.08.65a.5.5,0,0,1-.06.24c-.06.09-.13.13-.21.11a.21.21,0,0,1-.14-.18v-.58c0-.08-.07-.11-.2-.1a1.2,1.2,0,0,0-.24,0l-.21.15-.23.26-.24.27a.76.76,0,0,1-.27.21.13.13,0,0,1-.14,0,.27.27,0,0,1-.09-.11.3.3,0,0,1,0-.14l.38-.63A.13.13,0,0,0,65.42,16.32Zm1-1.15a.83.83,0,0,0-.54,0c-.27.1-.43.23-.47.41s0,.2.16.29a1.26,1.26,0,0,0,.49.11,1.76,1.76,0,0,0,.31,0,.35.35,0,0,0,.12-.07.21.21,0,0,0,.05-.13v-.14C66.56,15.36,66.52,15.21,66.42,15.17Z"/><path d="M68.31,17.05a.17.17,0,0,1-.09.18.76.76,0,0,1-.43.2c-.19,0-.27-.12-.24-.32s.16-.23.41-.24l.05,0a.33.33,0,0,1,.18,0A.16.16,0,0,1,68.31,17.05Zm.26-2.84c-.13.54-.19.83-.2.86a1,1,0,0,1-.06.26l-.06.26s0,.2,0,.53a.28.28,0,0,1-.09.17.2.2,0,0,1-.21,0c-.09,0-.13-.07-.13-.14l0-.23a1.07,1.07,0,0,0,0-.17,1,1,0,0,1,0-.19,1.7,1.7,0,0,0,0-.25c0-.08,0-.23,0-.44a2.93,2.93,0,0,0,0-.45V14c0-.18,0-.29.07-.32a.61.61,0,0,1,.28,0c.14,0,.21,0,.23.06A.76.76,0,0,1,68.57,14.21Z"/><path class="cls-5" d="M25.09,68.77c-.06.17-.16.21-.32.12s-.18-.41-.29-1.11a4.39,4.39,0,0,0-.22-1c-.16-.13-.35.09-.58.66-.05.13-.1.28-.15.46s-.09.29-.1.32l-.11.32a.38.38,0,0,1-.23.22q-.11,0-.21-.33c-.1-.35-.16-.53-.17-.56a5.31,5.31,0,0,1-.22-.49l-.21-.5c-.12-.24-.22-.37-.3-.37s-.16.14-.23.42l-.25,1a1.94,1.94,0,0,0-.07.35l-.05.29q-.07.3-.24.27h0c-.11,0-.16-.12-.16-.31a3.78,3.78,0,0,1,.18-.91c.14-.48.21-.75.22-.8a10.48,10.48,0,0,1,.36-1.47c0-.07.08-.12.2-.14a.38.38,0,0,1,.24,0q.15,0,.27.33l.09.24a1.35,1.35,0,0,0,.08.19c.06.11.12.27.2.46a3.75,3.75,0,0,0,.17.46l.09.21c0,.07.09.08.17,0a.79.79,0,0,0,.25-.42,8.11,8.11,0,0,0,.3-1,.9.9,0,0,1,.3-.59.23.23,0,0,1,.35,0,.69.69,0,0,1,.13.48,4.39,4.39,0,0,0,0,.53c.06.22.15.58.25,1.09s.19.87.26,1.1A.75.75,0,0,1,25.09,68.77Z"/><path class="cls-5" d="M27.45,67.05A.41.41,0,0,0,27.4,67a.84.84,0,0,0-.52-.35l-.24,0a1.36,1.36,0,0,0-.63.15.61.61,0,0,1-.35.18c-.1,0-.16-.07-.17-.21s.16-.41.47-.58a1.39,1.39,0,0,1,2,1,1.83,1.83,0,0,1,0,.35,1.26,1.26,0,0,1-.68,1.25,1.59,1.59,0,0,1-.71.18,1.52,1.52,0,0,1-.82-.28l-.1-.09a.34.34,0,0,1-.14-.26c0-.12.06-.19.19-.22a.69.69,0,0,1,.31.1,1.48,1.48,0,0,0,.4.14l.23,0a.83.83,0,0,0,.8-.58c0-.06,0-.09-.19-.08h-.91a.44.44,0,0,1-.2,0,.19.19,0,0,1-.09-.19c0-.15.07-.23.32-.23l.64,0,.35,0s.06,0,.07,0A.11.11,0,0,0,27.45,67.05Z"/><path class="cls-5" d="M31,67.34a1.4,1.4,0,0,1-1.16,1.37.66.66,0,0,1-.37,0c-.17,0-.27-.06-.32,0a.37.37,0,0,0-.11.15c0,.11,0,.28,0,.51a2.35,2.35,0,0,1,0,.57.23.23,0,0,1-.16.18.12.12,0,0,1-.19,0l0-.08s0-.2,0-.59c0-.13,0-.26,0-.4v-.88a3.73,3.73,0,0,0-.05-.65c0-.07,0-.18,0-.31l0-.32,0-.28a.29.29,0,0,1,0-.26.31.31,0,0,1,.23-.14h0a1.3,1.3,0,0,1,.65-.14,2,2,0,0,1,1,.27A1.3,1.3,0,0,1,31,67.34Zm-.65-.47a1,1,0,0,0-.67-.25,1,1,0,0,0-.25,0,.62.62,0,0,0-.35.46,1.24,1.24,0,0,0,0,.64v0c.06.16.21.24.46.24A1.33,1.33,0,0,0,30,68a.75.75,0,0,0,.62-.52A.55.55,0,0,0,30.37,66.87Z"/><path d="M25.09,68.77c-.06.17-.16.21-.32.12s-.18-.41-.29-1.11a4.39,4.39,0,0,0-.22-1c-.16-.13-.35.09-.58.66-.05.13-.1.28-.15.46s-.09.29-.1.32l-.11.32a.38.38,0,0,1-.23.22q-.11,0-.21-.33c-.1-.35-.16-.53-.17-.56a5.31,5.31,0,0,1-.22-.49l-.21-.5c-.12-.24-.22-.37-.3-.37s-.16.14-.23.42l-.25,1a1.94,1.94,0,0,0-.07.35l-.05.29q-.07.3-.24.27h0c-.11,0-.16-.12-.16-.31a3.78,3.78,0,0,1,.18-.91c.14-.48.21-.75.22-.8a10.48,10.48,0,0,1,.36-1.47c0-.07.08-.12.2-.14a.38.38,0,0,1,.24,0q.15,0,.27.33l.09.24a1.35,1.35,0,0,0,.08.19c.06.11.12.27.2.46a3.75,3.75,0,0,0,.17.46l.09.21c0,.07.09.08.17,0a.79.79,0,0,0,.25-.42,8.11,8.11,0,0,0,.3-1,.9.9,0,0,1,.3-.59.23.23,0,0,1,.35,0,.69.69,0,0,1,.13.48,4.39,4.39,0,0,0,0,.53c.06.22.15.58.25,1.09s.19.87.26,1.1A.75.75,0,0,1,25.09,68.77Z"/><path d="M27.45,67.05A.41.41,0,0,0,27.4,67a.84.84,0,0,0-.52-.35l-.24,0a1.36,1.36,0,0,0-.63.15.61.61,0,0,1-.35.18c-.1,0-.16-.07-.17-.21s.16-.41.47-.58a1.39,1.39,0,0,1,2,1,1.83,1.83,0,0,1,0,.35,1.26,1.26,0,0,1-.68,1.25,1.59,1.59,0,0,1-.71.18,1.52,1.52,0,0,1-.82-.28l-.1-.09a.34.34,0,0,1-.14-.26c0-.12.06-.19.19-.22a.69.69,0,0,1,.31.1,1.48,1.48,0,0,0,.4.14l.23,0a.83.83,0,0,0,.8-.58c0-.06,0-.09-.19-.08h-.91a.44.44,0,0,1-.2,0,.19.19,0,0,1-.09-.19c0-.15.07-.23.32-.23l.64,0,.35,0s.06,0,.07,0A.11.11,0,0,0,27.45,67.05Z"/><path d="M31,67.34a1.4,1.4,0,0,1-1.16,1.37.66.66,0,0,1-.37,0c-.17,0-.27-.06-.32,0a.37.37,0,0,0-.11.15c0,.11,0,.28,0,.51a2.35,2.35,0,0,1,0,.57.23.23,0,0,1-.16.18.12.12,0,0,1-.19,0l0-.08s0-.2,0-.59c0-.13,0-.26,0-.4v-.88a3.73,3.73,0,0,0-.05-.65c0-.07,0-.18,0-.31l0-.32,0-.28a.29.29,0,0,1,0-.26.31.31,0,0,1,.23-.14h0a1.3,1.3,0,0,1,.65-.14,2,2,0,0,1,1,.27A1.3,1.3,0,0,1,31,67.34Zm-.65-.47a1,1,0,0,0-.67-.25,1,1,0,0,0-.25,0,.62.62,0,0,0-.35.46,1.24,1.24,0,0,0,0,.64v0c.06.16.21.24.46.24A1.33,1.33,0,0,0,30,68a.75.75,0,0,0,.62-.52A.55.55,0,0,0,30.37,66.87Z"/><rect class="cls-3" x="63.33" y="27.18" width="8.85" height="14.06" rx="2.22" ry="2.22" transform="translate(20.23 93.38) rotate(-78.02)"/><path class="cls-6" d="M71.22,31.87l.9.2A1.6,1.6,0,0,1,73.36,34l-.57,2.71a1.61,1.61,0,0,1-1.92,1.24l-.9-.19Z"/><path class="cls-7" d="M64.57,30.46l6.65,1.41L70,37.74l-6.65-1.41a1.61,1.61,0,0,1-1.24-1.91l.57-2.71A1.63,1.63,0,0,1,64.57,30.46Z"/><circle class="cls-8" cx="71.85" cy="35.03" r="0.74"/><circle class="cls-9" cx="63.93" cy="31.81" r="0.45"/><path class="cls-3" d="M69.23,32.13a2.13,2.13,0,0,0-2.56,1.31,2.19,2.19,0,0,0,1.68,3c.28.08,1-.34.5-.46a2,2,0,0,1-1.51-1.4c-.21-.9.29-2.13,1.39-2,.28,0,1-.4.5-.46Z"/><path class="cls-3" d="M67.13,34.23A1.26,1.26,0,0,0,65,32.86a1.23,1.23,0,0,0,0,1.71,1.4,1.4,0,0,0,1.76,0,1.14,1.14,0,0,0,0-1.67,1.08,1.08,0,0,0-1.52.48.67.67,0,0,0,.77,1c.48-.1,1.07-.84.58-1.26-.33-.3-1.56-.11-1.33.49s1.38.36,1.35-.23a.28.28,0,0,0-.19-.27.67.67,0,0,0-.52,0c-.49.18-.34.79.16.61l.12,0H66l.1,0-.19-.27.31,0-.21.21a.49.49,0,0,1,.14.11.21.21,0,0,1,.06-.28c.16-.17.17.1.19.27,0,.65-.7.55-.82,0s.28-1,.71-.63a.83.83,0,0,1,.1.95c-.21.43.62.47.79.11Z"/><path class="cls-10" d="M82.53,59.81l-1.17.56A2.39,2.39,0,0,0,80,62c-.09.58.34,1,.93.74l.8-.39a1.65,1.65,0,0,0,.84-.44l.11-.12a2.17,2.17,0,0,0,.76-1.56A.62.62,0,0,0,82.53,59.81Z"/><path class="cls-10" d="M78.6,60.73c-.55-.26-1.25.2-1.58.63s-.74,1.35-.16,1.79a1.42,1.42,0,0,0,1.61,0,1.93,1.93,0,0,0,1-1.82A.7.7,0,0,0,78.6,60.73Z"/><path class="cls-10" d="M79,59.57a1.3,1.3,0,0,0-.66.72.77.77,0,0,0-.33.15c-.56.57-.21,2.05.11,2.62s1.06.61,1.68.6l.07,0H80a.24.24,0,0,0,.11-.06A.9.9,0,0,0,81,63.2a.83.83,0,0,0,.76-.41l.11.1c.46.45.63-.28.65-.64a3,3,0,0,0-.51-2,4.12,4.12,0,0,0-1.36-.9l-.05,0A1.22,1.22,0,0,0,79,59.57Z"/><path class="cls-1" d="M73.65,66.15c-.25.78,1.47,1.54,2,1.6,1,.09,1.68-.79,2.34-1.39.42-.38.83-.78,1.22-1.19l.94-.72a.34.34,0,0,0,.1-.46l.07-.08c.47-.58-2-1.94-2.51-1.56-.25.17-.48.35-.72.53a8.92,8.92,0,0,0-3.48,3.27Z"/><path class="cls-10" d="M76.88,63.39l1.38,1.13a2.53,2.53,0,0,0,1.46.57l.12,0c.21,0,.72,0,.65-.38,0,0,0-.09,0-.14h0c.36,0,.58-.13.61-.37a.29.29,0,0,0,.17-.35c.37-.17.24-.95.61-1.32s-.89-.88-1.1-.45-1-.2-1.65-.09L79,62a3.63,3.63,0,0,0-.54-.15c-.28,0-.77-.11-.91.15a.37.37,0,0,0-.18.15,1.16,1.16,0,0,0-1,0C75.83,62.51,76.64,63.18,76.88,63.39Z"/><path d="M79,58.53c-1.27,1.26-8.72,8-6.09,9.94,1.46,1.1,4.28-.32,5.49-1.16A26.16,26.16,0,0,0,85,60.74c.52-.75-1.54-.57-1.91,0a24.26,24.26,0,0,1-4.29,4.65,13,13,0,0,1-2.45,1.87c-.88.45-1.66.34-1.8-.81a3.89,3.89,0,0,1,.67-1.57,42.17,42.17,0,0,1,5.4-6c.84-.83-1.17-.78-1.64-.31Z"/><path class="cls-10" d="M78.13,39.08a1.33,1.33,0,0,1-.81-.55.67.67,0,0,1-.35-.07c-.68-.42-.69-1.94-.51-2.57s.88-.84,1.49-1c0,0,0,0,.08,0l.13,0a.28.28,0,0,1,.12,0,.92.92,0,0,1,.93.15.83.83,0,0,1,.83.22s.07-.09.09-.12c.33-.55.67.13.77.47a2.92,2.92,0,0,1,0,2.06,4.26,4.26,0,0,1-1.12,1.2l0,.05A1.24,1.24,0,0,1,78.13,39.08Z"/><path class="cls-1" d="M71.6,34.07c-.43-.7,1.07-1.84,1.61-2,.9-.31,1.82.38,2.6.8.5.27,1,.57,1.47.88l1.08.48a.34.34,0,0,1,.2.42s.39,1,.4,1c.18-.74-2-.67-2.39-.09-.15.26-.55,1.08-.82,1s-1.09.2-1.57,0A6.19,6.19,0,0,1,71.6,34.07Z"/><path class="cls-10" d="M75.44,36.37l1.08-1.43A2.5,2.5,0,0,1,77.8,34l.11,0c.2-.06.71-.14.72.22v.15h0c.34-.13.59,0,.67.22a.3.3,0,0,1,.26.3c.39.07.45.86.9,1.14s-.66,1.06-1,.69-.95.43-1.59.48h-.08a4.08,4.08,0,0,1-.5.27c-.26.11-.72.29-.92.07a.35.35,0,0,1-.2-.1,1.23,1.23,0,0,1-1,.26C74.62,37.46,75.25,36.62,75.44,36.37Z"/><path d="M79.63,39.44a36.72,36.72,0,0,1-6.13-4.27c-.6-.56-1.85-1.74-.71-2.53.47-.33,2.87.89,3.47,1.15A20,20,0,0,1,81.57,37c.5.44,2.4-.34,1.91-.77a21.51,21.51,0,0,0-8.11-4.39c-1.31-.37-3.7-.53-4.81.55-2.52,2.44,5.66,6.9,7.16,7.82.57.35,2.39-.48,1.91-.78Z"/><path class="cls-10" d="M82.53,59.81l-1.17.56A2.39,2.39,0,0,0,80,62c-.09.58.34,1,.93.74l.8-.39a1.65,1.65,0,0,0,.84-.44l.11-.12a2.17,2.17,0,0,0,.76-1.56A.62.62,0,0,0,82.53,59.81Z"/><path class="cls-10" d="M78.6,60.73c-.55-.26-1.25.2-1.58.63s-.74,1.35-.16,1.79a1.42,1.42,0,0,0,1.61,0,1.93,1.93,0,0,0,1-1.82A.7.7,0,0,0,78.6,60.73Z"/><path class="cls-10" d="M79,59.57a1.3,1.3,0,0,0-.66.72.77.77,0,0,0-.33.15c-.56.57-.21,2.05.11,2.62s1.06.61,1.68.6l.07,0H80a.24.24,0,0,0,.11-.06A.9.9,0,0,0,81,63.2a.83.83,0,0,0,.76-.41l.11.1c.46.45.63-.28.65-.64a3,3,0,0,0-.51-2,4.12,4.12,0,0,0-1.36-.9l-.05,0A1.22,1.22,0,0,0,79,59.57Z"/><path class="cls-1" d="M73.65,66.15c-.25.78,1.47,1.54,2,1.6,1,.09,1.68-.79,2.34-1.39.42-.38.83-.78,1.22-1.19l.94-.72a.34.34,0,0,0,.1-.46l.07-.08c.47-.58-2-1.94-2.51-1.56-.25.17-.48.35-.72.53a8.92,8.92,0,0,0-3.48,3.27Z"/><path class="cls-10" d="M76.88,63.39l1.38,1.13a2.53,2.53,0,0,0,1.46.57l.12,0c.21,0,.72,0,.65-.38,0,0,0-.09,0-.14h0c.36,0,.58-.13.61-.37a.29.29,0,0,0,.17-.35c.37-.17.24-.95.61-1.32s-.89-.88-1.1-.45-1-.2-1.65-.09L79,62a3.63,3.63,0,0,0-.54-.15c-.28,0-.77-.11-.91.15a.37.37,0,0,0-.18.15,1.16,1.16,0,0,0-1,0C75.83,62.51,76.64,63.18,76.88,63.39Z"/><path d="M78.84,58.72c-1.12,1.12-8.65,8.07-5.91,9.76,1.59,1,4.36-.51,5.63-1.4A26.12,26.12,0,0,0,85,60.69c.43-.64-1.57-.38-1.88.08a25,25,0,0,1-4.53,4.89,8.09,8.09,0,0,1-2.48,1.71c-2.24.73-1.52-1.59-.83-2.61a43.44,43.44,0,0,1,5.47-6.12c.49-.49-1.49-.31-1.88.08Z"/><path class="cls-10" d="M78.13,39.08a1.33,1.33,0,0,1-.81-.55.67.67,0,0,1-.35-.07c-.68-.42-.69-1.94-.51-2.57s.88-.84,1.49-1c0,0,0,0,.08,0l.13,0a.28.28,0,0,1,.12,0,.92.92,0,0,1,.93.15.83.83,0,0,1,.83.22s.07-.09.09-.12c.33-.55.67.13.77.47a2.92,2.92,0,0,1,0,2.06,4.26,4.26,0,0,1-1.12,1.2l0,.05A1.24,1.24,0,0,1,78.13,39.08Z"/><path class="cls-1" d="M71.6,34.07c-.43-.7,1.07-1.84,1.61-2,.9-.31,1.82.38,2.6.8.5.27,1,.57,1.47.88l1.08.48a.34.34,0,0,1,.2.42s.39,1,.4,1c.18-.74-2-.67-2.39-.09-.15.26-.55,1.08-.82,1s-1.09.2-1.57,0A6.19,6.19,0,0,1,71.6,34.07Z"/><path class="cls-10" d="M75.44,36.37l1.08-1.43A2.5,2.5,0,0,1,77.8,34l.11,0c.2-.06.71-.14.72.22v.15h0c.34-.13.59,0,.67.22a.3.3,0,0,1,.26.3c.39.07.45.86.9,1.14s-.66,1.06-1,.69-.95.43-1.59.48h-.08a4.08,4.08,0,0,1-.5.27c-.26.11-.72.29-.92.07a.35.35,0,0,1-.2-.1,1.23,1.23,0,0,1-1,.26C74.62,37.46,75.25,36.62,75.44,36.37Z"/><path d="M79.64,39.46A33.06,33.06,0,0,1,73.3,35a3.23,3.23,0,0,1-.86-1.21c-.23-.81-.66-.62.49-.91a4.77,4.77,0,0,1,3,.74A20.4,20.4,0,0,1,81.56,37c.45.4,2.33-.38,1.93-.73a21.25,21.25,0,0,0-8.11-4.37c-1.33-.37-3.68-.48-4.81.56-2.52,2.33,5.7,6.86,7.14,7.75.54.32,2.3-.51,1.93-.74Z"/><circle class="cls-1" cx="88.99" cy="48.24" r="13.3"/><ellipse cx="80.55" cy="44.79" rx="1.96" ry="1.5" transform="translate(-7.7 18.21) rotate(-12.32)"/><ellipse cx="82.66" cy="54.48" rx="1.96" ry="1.5" transform="translate(-9.72 18.89) rotate(-12.32)"/><path d="M86.48,36.24c6.92-1.15,14.16,2.75,15,10.28A12.8,12.8,0,0,1,91.41,60.2c-7.3,1.59-14.92-3.62-14.92-11.44,0-6.27,4.29-11,10.15-12.56.76-.21-.12-2.12-1-1.89C68.18,39.06,74.73,66.12,92.24,62.2c17.87-4,11.11-30.84-6.41-27.93C84.9,34.42,85.69,36.37,86.48,36.24Z"/><path class="cls-11" d="M100.7,42.81c-.76.68-.84,2.09-1.17,3.06a4.07,4.07,0,0,1-1.71,2.46,7.85,7.85,0,0,0-1.52-2.68c-.27-.32-.8-.62-1.06-.29a.78.78,0,0,0-.08.6,32.8,32.8,0,0,1,.57,3.24,4,4,0,0,1-.88,3.08.71.71,0,0,1-.42.25c-.23,0-.41-.19-.55-.37-1.39-1.83-2.63-3.94-4.71-4.89a1,1,0,0,0-.49-.11.72.72,0,0,0-.59.63,6.67,6.67,0,0,0-.38,1.54c-.8-.08-.73-1.64-.73-2.44a4.67,4.67,0,0,1,1.22-3,9.14,9.14,0,0,1,2.62-2,18.32,18.32,0,0,1,5-1.85,5.52,5.52,0,0,1,1.28-.14c1.58.08,2.54,1.69,3.57,2.89"/><path class="cls-12" d="M99.75,42.8c-1.32,1.67-.9,4-2.75,5.38l1.85-.12c-.63-1.63-1.47-3.6-3.46-3.24-.33.06-1.12.24-1.18.68-.23,1.82,1.71,5.5-.41,6.75l1.45-.2c-1.09-.41-2.2-2.77-3-3.62a5.39,5.39,0,0,0-2.92-1.81c-1.77-.13-2.45,1.29-2.63,2.85l1.85-.62c-.79-.43-.57-2.29-.43-2.91.39-1.79,1.84-2.91,3.35-3.75,1.68-.94,4.61-2.32,6.47-1.08a10.48,10.48,0,0,1,1.83,2.09c.43.52,2.4-.2,1.91-.78-1.15-1.39-2.19-2.9-4.13-3.05-2.09-.17-4.6.91-6.43,1.79s-3.92,2.18-4.76,4.2c-.54,1.26-.86,3.68.55,4.45.41.23,1.78,0,1.84-.62A2.78,2.78,0,0,1,89,48.12c.45-.69,0-.19.52.34a28.94,28.94,0,0,1,2.06,2.22c.71.93,1.27,2.4,2.6,2.4,4,0,1.87-5.93,2.11-7.85l-1.17.67c.7-.13,1.52,2.22,1.71,2.71s1.49.13,1.84-.13c2-1.5,1.58-3.85,3-5.66.54-.69-1.51-.52-1.91,0Z"/><rect class="cls-6" x="73.86" y="74.89" width="2.31" height="9.85" transform="translate(-34.13 70.61) rotate(-41.96)"/><rect class="cls-13" x="71.7" y="76" width="2.31" height="2.81" transform="translate(-33.08 68.55) rotate(-41.96)"/><rect class="cls-3" x="67.55" y="70.55" width="5.06" height="7.82" rx="1.94" ry="1.94" transform="translate(-31.81 65.95) rotate(-41.96)"/><path class="cls-13" d="M57.29,101.21l-1-.84a2.37,2.37,0,0,0-2-.55c-.57.16-.81.73-.31,1.15l.68.58a1.59,1.59,0,0,0,.75.59l.15,0a2.09,2.09,0,0,0,1.73.06A.61.61,0,0,0,57.29,101.21Z"/><path class="cls-10" d="M54.85,98c0-.6-.69-1.06-1.21-1.19s-1.53-.13-1.7.57a1.4,1.4,0,0,0,.66,1.47,1.93,1.93,0,0,0,2.07.19A.7.7,0,0,0,54.85,98Z"/><path class="cls-13" d="M56.09,97.9a1.39,1.39,0,0,0-.93-.32.6.6,0,0,0-.27-.23c-.74-.29-2,.63-2.35,1.16a1.68,1.68,0,0,0,.13,1.77s0,0,0,.06a.45.45,0,0,0,.06.12.27.27,0,0,0,.1.08.92.92,0,0,0,.68.64.85.85,0,0,0,.68.53c0,.05,0,.1,0,.14-.23.6.51.45.84.33a2.92,2.92,0,0,0,1.63-1.27A4.38,4.38,0,0,0,57,99.3v-.06A1.23,1.23,0,0,0,56.09,97.9Z"/><path class="cls-1" d="M47.9,95.64c-.82.08-.82,2-.64,2.51.3.9,1.4,1.21,2.21,1.58.52.24,1.05.45,1.59.64l1,.56a.34.34,0,0,0,.46-.09l.1,0c.72.2,1-2.56.41-2.92-.25-.16-.51-.3-.78-.44a5.74,5.74,0,0,0-1.12-.77A6,6,0,0,0,47.9,95.64Z"/><path class="cls-13" d="M51.73,97.48l-.48,1.72a2.61,2.61,0,0,0,.06,1.56.53.53,0,0,1,0,.12c.07.2.32.66.61.45l.12-.1h0c.11.35.35.48.58.41a.3.3,0,0,0,.39,0c.3.27,1-.17,1.46,0s.44-1.16,0-1.18-.24-1-.59-1.56l-.06-.06a5,5,0,0,0-.08-.56c-.07-.27-.21-.75-.5-.77a.41.41,0,0,0-.21-.1,1.18,1.18,0,0,0-.39-.94C52.11,96.16,51.82,97.18,51.73,97.48Z"/><path d="M57.81,97.59c-2-.78-4.09-1.44-6.15-2.08-1.72-.54-4.26-1.2-5.84.11-4.06,3.38,9.11,7.69,10.85,8,.94.18,2.11-1.12.75-1.37a24,24,0,0,1-6-2.12,14.56,14.56,0,0,1-2.61-1.47,3.54,3.54,0,0,1-1.15-1.31c-.38-1.35.75-1.12,1.75-.89a51.52,51.52,0,0,1,7.23,2.41c.78.3,2.39-.82,1.21-1.29Z"/><path class="cls-13" d="M74.48,88.82a1.36,1.36,0,0,1,.17-1,.65.65,0,0,1-.07-.35c.1-.79,1.49-1.41,2.15-1.5s1.12.46,1.49,1a.1.1,0,0,1,0,.07s.07.07.08.11a.25.25,0,0,1,0,.12.92.92,0,0,1,.23.91.85.85,0,0,1,.14.85.44.44,0,0,0,.15,0c.63.09.14.67-.13.9a3,3,0,0,1-1.89.82,4.43,4.43,0,0,1-1.55-.54l-.06,0A1.23,1.23,0,0,1,74.48,88.82Z"/><path class="cls-1" d="M76.42,80.82c.47-.67,2.12.24,2.51.66.65.7.39,1.81.32,2.7,0,.57-.12,1.14-.21,1.7,0,.39,0,.78,0,1.18a.34.34,0,0,1-.3.36s-.74.75-.7.74c.74-.13-.22-2.15-.89-2.22-.3,0-1.21-.06-1.2-.36s-.63-.92-.63-1.44A6.25,6.25,0,0,1,76.42,80.82Z"/><path class="cls-13" d="M75.88,85.26l1.74.41a2.56,2.56,0,0,1,1.33.81l.09.09c.14.16.42.59.1.75l-.14.05h0c.25.26.25.54.07.71a.3.3,0,0,1-.17.35c.09.39-.61.76-.68,1.29s-1.24-.18-1-.61-.77-.69-1.07-1.26a.41.41,0,0,1,0-.08,3.87,3.87,0,0,1-.45-.35c-.2-.19-.55-.54-.43-.81a.37.37,0,0,1,0-.23,1.17,1.17,0,0,1-.63-.79C74.54,85,75.57,85.19,75.88,85.26Z"/><path d="M75.05,89.55c.17-1.23.41-2.46.65-3.69s.31-3.21,1.08-4.18.9-.65,1.3.73a12.68,12.68,0,0,1,.2,3.2,19.68,19.68,0,0,1-.77,6.11c-.37,1.15,1.68,1.18,2,.27.71-2.22,2.64-13.39-2.19-12.85-3.62.4-4,8-4.33,10.55-.15,1.08,2,.83,2.08-.14Z"/><circle class="cls-1" cx="69.52" cy="102.47" r="13.3"/><ellipse cx="70.98" cy="93.46" rx="1.5" ry="1.96" transform="translate(-33.17 39.37) rotate(-25.34)"/><ellipse cx="62.02" cy="97.71" rx="1.5" ry="1.96" transform="translate(-35.85 35.94) rotate(-25.34)"/><path class="cls-14" d="M90.08,110.21a1.67,1.67,0,0,0-.12-.16,1.92,1.92,0,0,0-.12-.25,1.7,1.7,0,0,0,0-.54c-.16-2-2.31-2-3.67-1l0,0-.2,0-.21,0a2.1,2.1,0,0,0-.85.12,6.57,6.57,0,0,0-2.21,1.88,6.91,6.91,0,0,0-1.52.54,2.52,2.52,0,0,0-1.75.05l.1-.17a1,1,0,0,0,.37-.29A16.86,16.86,0,0,0,81.38,107a5.1,5.1,0,0,0,.8-2.68A2.47,2.47,0,0,0,82,102s0,0,0,0l-.07-.08h0a2,2,0,0,0-1.57-.89,2.71,2.71,0,0,0-.78-.43,2.63,2.63,0,0,0-2-.4,1.72,1.72,0,0,0-1.28,0,10.55,10.55,0,0,0-1.06.61c-1.45.15-2.94.76-3.4,2.19a.22.22,0,0,0,0,.08l0,0c-1.07.73-2.75,3.34-1.87,4.63v0a4.35,4.35,0,0,0-3.06-.52,6.15,6.15,0,0,0-2.09.24,4.93,4.93,0,0,0-3.41.83c-1.18.86-2,2.79-.91,3.37a1.49,1.49,0,0,0,.5.29,1.43,1.43,0,0,0,1.22,1l.14,0c.09,1.35,1,1.74,2.08,1.66a3.39,3.39,0,0,0,1.7-.07s0,0,0,0a2.83,2.83,0,0,0,1.25.19c.25,0,.49.08.74.1a1.6,1.6,0,0,0,.23,0c.24,0,.47,0,.71,0a3.72,3.72,0,0,0,2.14-.07,2.28,2.28,0,0,0,.86-.13,4.15,4.15,0,0,0,.48-.11,1.22,1.22,0,0,0,.55,0c.85-.26,1.38-.45,2.11-.74a2.45,2.45,0,0,0,.83-.24l.13-.09a3.56,3.56,0,0,0,.68-.13.4.4,0,0,0,0,.11A.83.83,0,0,0,77,114c.42,1,1.73.93,2.68.39a6.24,6.24,0,0,0,1.3-.26,6.89,6.89,0,0,0,2.67-.91,3.8,3.8,0,0,0,2.47.07c.3.16.6.34.9.52a2.67,2.67,0,0,0,.2.42,1,1,0,0,0-.13.16c-.29.37-.23.61,0,.74,0,0,0,0,0,0-.13,1,1.53.45,1.88.15a4.45,4.45,0,0,0,1.61-2.72A2,2,0,0,0,90.08,110.21Z"/><path class="cls-15" d="M83.31,100.83c-5.26-3.83-15,.21-14.73,7l2-.63c-3.58-1.37-11-1.74-12.09,3.14-.1.43,1.91.14,2-.37.62-2.68,6-2.88,8.12-2.07.37.14,2,0,2-.62-.11-2.49.38-3.43,2.32-5,2.1-1.7,6.07-2.53,8.43-.82.46.34,2.22-.48,1.93-.69Z"/><path class="cls-15" d="M68.39,107.8a5.72,5.72,0,0,0,5.12,5.28c1,.14,2.12-1.2.74-1.4a4.55,4.55,0,0,1-3.8-4.43c0-.86-2.11-.39-2.06.55Z"/><path class="cls-15" d="M79.91,111.19c1.78.76,2.91-.11,4.27-1.2S86,105.73,89,109a4.46,4.46,0,0,1,.81,3c-.16,2.44-1.94,4-4.08,4.87l1.34,1c1.51-1.57,2.52-4.06-.13-5.07a7.66,7.66,0,0,0-3.4-.2c-.91.11-5.54,1.93-5.74,1.37-.37-1-2.42-.41-2.06.55.53,1.43,2,1.48,3.35,1.19a16.69,16.69,0,0,0,2.6-1,7.38,7.38,0,0,1,2.45-.58c1.09-.35,1.6,0,1.52,1.2.58.79.47,1.4-.33,1.84-.85.87.75,1.22,1.34,1,3.76-1.5,6.89-5.83,4.41-9.81a4.06,4.06,0,0,0-4.37-1.93,6.25,6.25,0,0,0-2.24.86c-1,.62-2.18,2.9-3.4,2.39-.93-.4-2.38.94-1.16,1.45Z"/><path d="M80.65,97.32c2.68,6.48.52,14.42-6.63,16.93a12.81,12.81,0,0,1-15.6-6.73c-3.19-6.76.16-15.35,7.78-17.11,6.12-1.41,11.65,1.71,14.53,7.06.37.69,2-.59,1.62-1.38-8.57-16-33.45-3.49-25.69,12.69,7.92,16.51,32.55,3.87,25.77-12.53C82.07,95.37,80.35,96.58,80.65,97.32Z"/><path class="cls-15" d="M75.79,102.27a6.38,6.38,0,0,0-2.43,3.61c-.33,1.21-.76,3,.24,4,.69.69,2.62-.17,1.88-.93s-.35-1.94-.15-2.77a4.88,4.88,0,0,1,1.84-2.93c1.12-.81-.53-1.62-1.38-1Z"/><path class="cls-15" d="M69.58,112.67A6.1,6.1,0,0,0,63,111.08c-.16,0-1.06.29-.95.58s.94.08,1.11,0a4.48,4.48,0,0,1,4.44,1.67c.32.38,2.24-.34,1.94-.69Z"/><rect class="cls-6" x="5.53" y="75.41" width="2.31" height="9.85" transform="translate(-35.3 11.52) rotate(-26.63)"/><rect class="cls-13" x="4.09" y="76.04" width="2.31" height="2.81" transform="translate(-34.16 10.57) rotate(-26.63)"/><rect class="cls-3" x="0.82" y="69.96" width="5.06" height="7.82" rx="1.94" ry="1.94" transform="translate(-32.76 9.34) rotate(-26.63)"/><path class="cls-14" d="M15.12,89.44c-.22-.38-.43-.76-.64-1.14a2.39,2.39,0,0,0-1.73-1.22c-.59,0-1,.4-.69,1l.44.78a1.58,1.58,0,0,0,.5.81l.11.1a2.11,2.11,0,0,0,1.61.66A.62.62,0,0,0,15.12,89.44Z"/><path class="cls-10" d="M14,85.56c.22-.56-.28-1.23-.72-1.53s-1.4-.66-1.8-.06a1.41,1.41,0,0,0,.11,1.61,1.92,1.92,0,0,0,1.88.89A.7.7,0,0,0,14,85.56Z"/><path class="cls-14" d="M15.14,85.91a1.28,1.28,0,0,0-.75-.61.72.72,0,0,0-.18-.32c-.59-.53-2.05-.09-2.6.27s-.55,1.09-.5,1.71a.15.15,0,0,0,0,.07.29.29,0,0,0,0,.13.21.21,0,0,0,.07.11.92.92,0,0,0,.42.84.8.8,0,0,0,.45.73L12,89c-.42.48.33.61.68.61a2.91,2.91,0,0,0,2-.63,4.06,4.06,0,0,0,.82-1.42l0,0A1.22,1.22,0,0,0,15.14,85.91Z"/><path class="cls-1" d="M8.25,80.94c-.79-.2-1.45,1.56-1.47,2.14,0,1,.89,1.62,1.52,2.25.41.4.83.78,1.27,1.15.26.3.51.6.77.89a.35.35,0,0,0,.47.07l.08.07c.61.44,1.82-2.06,1.41-2.59-.18-.24-.38-.47-.58-.69a6.14,6.14,0,0,0-.78-1.11A6.19,6.19,0,0,0,8.25,80.94Z"/><path class="cls-14" d="M11.21,84l-1.06,1.44a2.57,2.57,0,0,0-.48,1.49s0,.08,0,.12c0,.21.07.72.41.63l.14,0h0c0,.37.17.57.41.59a.31.31,0,0,0,.36.15c.19.36,1,.18,1.36.53s.82-.94.38-1.12.14-1,0-1.66l0-.09a3.35,3.35,0,0,0,.11-.55c0-.28.06-.77-.2-.9a.31.31,0,0,0-.16-.16,1.17,1.17,0,0,0,0-1C12,82.91,11.39,83.75,11.21,84Z"/><path d="M17,86.27c-1.63-1.46-3.37-2.81-5.1-4.15C10.46,81,8.77,80,6.82,80.44c-5.62,1.42,4.76,9.87,6.5,10.9.51.3,2.22-.54,1.93-.71-2.13-1.27-9.85-6.86-7.66-9.9l-.65.43c1-.42,3.68,2.15,4.43,2.74,1.26,1,2.53,2,3.74,3.07.41.37,2.26-.41,1.93-.7Z"/><path class="cls-14" d="M35.55,83.81A1.33,1.33,0,0,1,36,83a.7.7,0,0,1,.05-.35c.38-.7,1.9-.8,2.54-.66s.89.83,1.07,1.44c0,0,0,0,0,.07l0,.13a.27.27,0,0,1,0,.12,1,1,0,0,1-.1.94.84.84,0,0,1-.17.84l.13.08c.56.3-.09.68-.43.8a2.93,2.93,0,0,1-2.06.1,4.13,4.13,0,0,1-1.26-1l-.05,0A1.22,1.22,0,0,1,35.55,83.81Z"/><path class="cls-1" d="M40.15,77c.68-.47,1.91,1,2.13,1.49.36.88-.27,1.83-.65,2.64-.24.52-.5,1-.79,1.52s-.27.74-.41,1.1A.33.33,0,0,1,40,84s-1,.45-.92.46c.74.13.54-2.09-.05-2.39-.27-.14-1.12-.49-1-.76s-.27-1.08-.09-1.57A6.17,6.17,0,0,1,40.15,77Z"/><path class="cls-14" d="M38.09,81l1.49,1a2.46,2.46,0,0,1,1,1.23l.06.11c.07.19.18.7-.18.73h-.14c.14.34,0,.6-.18.69a.3.3,0,0,1-.29.27c0,.4-.83.51-1.08,1s-1.1-.59-.75-.92-.49-.92-.57-1.56v-.09a4.66,4.66,0,0,1-.3-.47c-.13-.26-.33-.71-.12-.92a.36.36,0,0,1,.09-.21,1.19,1.19,0,0,1-.32-1C37,80.21,37.83,80.79,38.09,81Z"/><path d="M35.85,84.25c.54-1,3.45-7.13,4.75-6.9,2.54.44-2.51,9.71-3.29,10.71-.52.66,1.51.48,1.9,0,1.21-1.54,7.09-12.65,2-12.12-3.66.38-5.89,5.83-7.38,8.61-.26.5,1.73.32,2.05-.29Z"/><circle class="cls-1" cx="27.27" cy="95.28" r="13.3"/><ellipse cx="30.14" cy="86.62" rx="1.5" ry="1.96" transform="translate(-23.03 11.89) rotate(-16.25)"/><ellipse cx="20.62" cy="89.39" rx="1.5" ry="1.96" transform="matrix(0.96, -0.28, 0.28, 0.96, -24.19, 9.34)"/><path d="M39.07,92c1.62,6.83-1.77,14.32-9.23,15.67a12.79,12.79,0,0,1-14.33-9.11C13.42,91.34,18.1,83.38,25.9,82.85c6.26-.43,11.23,3.52,13.23,9.26.25.74,2.1-.26,1.81-1.1C35,73.89,8.46,82.28,13.57,99.47c5.21,17.56,31.53,9,27.43-8.3C40.78,90.25,38.89,91.18,39.07,92Z"/><path class="cls-16" d="M37.49,95.65a1.46,1.46,0,0,0-1-.62c-.68,0-1.07.74-1.28,1.39a8.8,8.8,0,0,0-2.07-2.91A1.31,1.31,0,0,0,32,93.05c-.57.19-.64,1-.54,1.56A9.79,9.79,0,0,0,32,96.67a7.09,7.09,0,0,0-1.91-2.48,2.4,2.4,0,0,0-2.92,0,2.21,2.21,0,0,0-.31,2.59,2.35,2.35,0,1,0-4.36,1.61,7,7,0,0,0-1.14-1.51,2.61,2.61,0,0,0-1.71-.76,1.65,1.65,0,0,0-1.53.94,1.21,1.21,0,0,0,.68,1.56,1.07,1.07,0,0,0-.81-1c-.67-.16-.91.3-1.23.74a13.11,13.11,0,0,0-1.05,1.45,2.85,2.85,0,0,0-.24,2.35c.67,1.86,2.81,4.2,4.73,4.59a1.09,1.09,0,0,1,.36.12,1.06,1.06,0,0,1,.29.4c.85,1.63,2.87,2.18,4.67,2.56a14,14,0,0,0,3.58.44,4.7,4.7,0,0,0,3.25-1.37c.39-.42.66-.93,1-1.37a8.63,8.63,0,0,1,1.17-1.09L38.68,103a3.74,3.74,0,0,0,1.13-1.25C40.6,99.94,38.58,96.93,37.49,95.65Z"/><path class="cls-13" d="M38.46,95.3l-1-.63c-.38-.24-1.22,0-1.56.21-1.11.61-1.13.55-1.7,1.72l2-.45c-.83-1.59-2.07-4-4.23-3.45S30.41,95.22,31,97l2-.55c-1.17-1.94-2.56-3.6-5-3-1.93.47-2.73,1.71-2.15,3.64l2.05-.55c-1.67-3.59-7.55-1.89-6.41,2.16l2.05-.55c-1.1-1.69-2.37-2.79-4.42-2.2-1.62.46-2.81,1.59-1.28,3.05.29.28,2.15-.17,2-.63-.86-2.54-3.7-.58-4.62.86-1.57,2.46-.47,4.86,1.73,6.62.94.75,1.95,1,2.89,1.69s1.25,1.47,2.56,2c3.53,1.54,7.83,1.68,10.9-.76,1.7-1.35,3.24-3.29,5-4.72.64-.53,2.26-1.51,2.59-2.49.77-2.26-1-4.57-2.36-6.24-.31-.39-2.26.3-1.94.71a10.58,10.58,0,0,1,2.25,3.9c.49,2.36-.83,2.92-2.4,4.27-3.09,2.65-6.66,5.86-11.11,4.91-1.84-.39-2.83-1.86-4.22-2.82-1.67-1.14-3.55-1.65-4.27-3.89a2.73,2.73,0,0,1-.05-2.83c.13-.68.48-.91,1-.7l2-.62q.73-2.3,1.72.4c.27.42,2.18-.08,2.05-.55-.73-2.28,0-2.64,2.31-1.06.21.46,2.18-.11,2.05-.55-.52-.72-.36-1.19.48-1.42,1.16-1.15,2-.52,2.6,1.9.26.44,2.2-.1,2-.55a9.33,9.33,0,0,1-.68-2.3c.13-.25,1.52,1.91,1.88,2.6.25.49,1.85-.07,2-.46l.86-1.07-1.56.21,1,.63C37,96.32,38.75,95.49,38.46,95.3Z"/><path class="cls-13" d="M24.23,103.18a3.7,3.7,0,0,0,1.36-.52c.09-.07.37-.31.16-.43a6.56,6.56,0,0,0-4-.93c-.4,0-1.12.14-1.37.51s.21.43.51.41a4.81,4.81,0,0,1,2.95.73l.16-.43-.17.12,1-.36-.21,0c-.29.06-1.13.22-1.19.6s.63.3.84.26Z"/><path class="cls-13" d="M29.9,100.37a5.12,5.12,0,0,1,1-2.45c.28-.39-.25-.57-.55-.58A1.74,1.74,0,0,0,29,97.9a5.83,5.83,0,0,0-1.1,2.74c-.1.78,2,.41,2-.27Z"/><path class="cls-13" d="M32.11,102a3.32,3.32,0,0,0,3.13-1.8c.2-.43-.68-.45-.88-.43a1.46,1.46,0,0,0-1.17.69c-.07.17-.22.25-.3.39s0,0,0,0a1.67,1.67,0,0,0-1.36.56c-.24.41.2.6.55.6Z"/><path class="cls-13" d="M27.87,105.28a2.74,2.74,0,0,0,3.53.78c.37-.18.78-.63.49-1s-1-.35-1.4-.15c-.1,0-.08,0-.26,0a1,1,0,0,1-.48-.45c-.47-.79-2.43,0-1.88.9Z"/></g></svg>