<svg xmlns="http://www.w3.org/2000/svg" viewBox="0 0 37.13 61.2"><defs><style>.cls-1{fill:none;stroke:#fff;stroke-linejoin:bevel;stroke-width:2.13px;}.cls-2{fill:#1a1a1a;}.cls-3{fill:#ccbebe;}.cls-4{fill:#4d4d4d;}.cls-5{fill:#fff;}.cls-6{fill:#444884;}.cls-7{fill:#1b1464;}.cls-8{fill:#e1e8df;stroke:#4d4d4d;stroke-linejoin:round;stroke-width:1px;}</style></defs><title>personaji_3</title><g id="Слой_1" data-name="Слой 1"><path class="cls-1" d="M9.49,57.34c0,.17,0,.28,0,.32a.24.24,0,0,1-.07.2s-.1,0-.19,0a.39.39,0,0,1-.16-.15A1.25,1.25,0,0,1,9,57.16l0-.61c0-.2-.15-.3-.32-.3l-.32,0-.33,0a1.44,1.44,0,0,0-.63.17.43.43,0,0,0-.2.34c0,.25,0,.44,0,.57,0,.3,0,.47,0,.51A.41.41,0,0,1,7,58s-.1-.06-.14-.16a.84.84,0,0,1-.09-.5l.06-1.21q0-.47,0-.93l0-.54a.62.62,0,0,1,0-.21.33.33,0,0,1,.17-.18c.09,0,.16,0,.19.07l.05.06a2,2,0,0,1-.05.55c0,.15,0,.32,0,.51a.91.91,0,0,0,.17.24,2.9,2.9,0,0,1,.62,0,2.87,2.87,0,0,0,.66-.07A.37.37,0,0,0,9,55.43v-.34c0-.06,0-.16,0-.29a2.13,2.13,0,0,1,0-.3A.46.46,0,0,1,9,54.22a.21.21,0,0,1,.23-.11.21.21,0,0,1,.14.2l0,.36a1.23,1.23,0,0,0,0,.27c0,.17,0,.29,0,.37v.29a8.93,8.93,0,0,0,.07,1.11Z"/><path class="cls-1" d="M12.52,57.05v.36a2.85,2.85,0,0,1,0,.36c0,.12-.08.2-.18.22l-.23-.05-.39,0h-.18a2.74,2.74,0,0,1-1.16-.18.7.7,0,0,1-.35-.66,1,1,0,0,1,.06-.34.81.81,0,0,1,.95-.54,3.92,3.92,0,0,0,.58,0c.27,0,.41-.11.41-.21s0-.17-.18-.25a.76.76,0,0,0-.37-.1l-.45.07-.45.08q-.21,0-.21-.18a.67.67,0,0,1,.08-.3.2.2,0,0,1,.18-.12l.54-.12.29,0a.83.83,0,0,1,.39,0,1.22,1.22,0,0,1,.46.3.93.93,0,0,1,.24.69c0,.07,0,.16,0,.28s0,.24,0,.29A2.38,2.38,0,0,0,12.52,57.05Zm-1.14.35c.46,0,.71-.1.75-.31V57a.45.45,0,0,0-.44-.2h-.34a1.25,1.25,0,0,0-.74.2.38.38,0,0,0-.16.17c0,.06,0,.11.14.16a2.12,2.12,0,0,0,.52.08Z"/><path class="cls-1" d="M15.31,55.05c.16,0,.21.11.15.32a2.87,2.87,0,0,1-.15.45,4,4,0,0,0-.29.64l-.06.23a6.67,6.67,0,0,0-.2.65l-.2.67-.17.62a1.81,1.81,0,0,1-.09.31.19.19,0,0,1-.19.13A.37.37,0,0,1,13.9,59a.24.24,0,0,1-.1-.18.6.6,0,0,1,.09-.27,2,2,0,0,0,.14-.33c.07-.3.11-.51.13-.64a.79.79,0,0,0,0-.22,1.47,1.47,0,0,0-.34-.68,1.83,1.83,0,0,1-.18-.31,2.75,2.75,0,0,0-.18-.29,4.06,4.06,0,0,1-.38-.62.51.51,0,0,1,.07-.34c.07-.13.14-.18.22-.14a2.36,2.36,0,0,1,.43.61l.12.23a.89.89,0,0,0,.43.5c.2.12.38-.06.54-.55a1.84,1.84,0,0,1,.14-.62A.41.41,0,0,1,15.31,55.05Z"/><path class="cls-1" d="M15.67,57.91c-.07,0-.1-.13-.08-.26s.08-.31.21-.73.21-.64.24-.77a2.51,2.51,0,0,0,.05-.39,1.44,1.44,0,0,1,.06-.39.43.43,0,0,1,.24-.29.3.3,0,0,1,.35,0,1.52,1.52,0,0,1,.25.63c.06.22.11.34.15.34s.1-.07.16-.2a6.77,6.77,0,0,1,.32-.66.28.28,0,0,1,.23-.12.27.27,0,0,1,.28.23c0,.07,0,.19.07.35l.06.37c0,.15.1.39.2.72s.15.57.19.75v0a.21.21,0,0,1-.12.26.22.22,0,0,1-.27,0,1.25,1.25,0,0,1-.2-.52,3.6,3.6,0,0,0-.16-.55c-.12-.38-.22-.53-.29-.45a1.3,1.3,0,0,0-.17.51c0,.05,0,.19-.06.44a1.67,1.67,0,0,1-.09.43.22.22,0,0,1-.22.17.23.23,0,0,1-.24-.21,1.94,1.94,0,0,1,0-.38,2.05,2.05,0,0,0-.05-.37.75.75,0,0,1,0-.15.93.93,0,0,0-.06-.18c0-.14-.09-.21-.14-.21s-.19.24-.29.76a1.83,1.83,0,0,1-.26.79C15.84,58,15.75,58,15.67,57.91Z"/><path class="cls-1" d="M22.4,54.78l-.38,0a.44.44,0,0,0-.34.27l0,.33c0,.21.21.31.55.31s.74,0,1.05,0a2.66,2.66,0,0,1,.78.17c.29.13.44.29.47.49a1.24,1.24,0,0,1-.19.67,1.09,1.09,0,0,1-.44.52,2.44,2.44,0,0,1-.89.34,2.82,2.82,0,0,1-.52,0,3,3,0,0,1-.7-.07.43.43,0,0,1-.18-.08.38.38,0,0,1-.17-.16,1.05,1.05,0,0,1-.1-.52q0-.42,0-.84c0-.2,0-.35,0-.45a2.64,2.64,0,0,1,0-.32,2.73,2.73,0,0,0,0-.32l0-.38a.16.16,0,0,1,0-.1c-.12-.19-.17-.31-.16-.35s0,0,0,0l0,0a2,2,0,0,1,.73-.13,2.81,2.81,0,0,1,.39,0l.87,0a1.34,1.34,0,0,1,.73.18c.11.11.15.2.12.26s-.15.1-.37.1h-.21l-.64,0Zm1.52,1.78a.87.87,0,0,0-.45-.16l-.21,0-.21,0a3.88,3.88,0,0,0-1.07.09.3.3,0,0,0-.27.34,1.91,1.91,0,0,1,0,.2,1.59,1.59,0,0,0,.23.2,1.07,1.07,0,0,0,.65.13,2.58,2.58,0,0,0,.46,0,1.56,1.56,0,0,0,.86-.38A.22.22,0,0,0,23.92,56.56Z"/><path class="cls-1" d="M24.89,57.72a.67.67,0,0,1,.08-.29c.05-.16.09-.25.09-.27.05-.19.14-.47.26-.85,0,.06.09-.22.32-.85a1.88,1.88,0,0,1,.18-.36.23.23,0,0,1,.35,0,2.9,2.9,0,0,1,.31.7q.33.82.3.78l.15.36.15.35a1.11,1.11,0,0,1,.16.37.35.35,0,0,1-.17.17c-.09.06-.16.07-.19,0l-.05-.05a1.31,1.31,0,0,1-.12-.26c-.06-.14-.1-.24-.12-.27q-.33-.63-.39-.72a.23.23,0,0,0,0-.09l0-.09a.22.22,0,0,0-.15-.12c-.08,0-.17.09-.27.28a3,3,0,0,0-.26.87,2.32,2.32,0,0,1-.07.4c-.06.15-.18.18-.36.12A.19.19,0,0,1,24.89,57.72Z"/><path class="cls-1" d="M29.64,57.21l.06.35.05.16a.16.16,0,0,1-.05.16.27.27,0,0,1-.4,0,1,1,0,0,1-.1-.48s0,0-.09.1a4.28,4.28,0,0,1-.59.32c-.31.12-.53.14-.68,0a.55.55,0,0,1-.19-.5,2.18,2.18,0,0,1,0-.42l0-.28v-.21l0-.52s0-.12,0-.25,0-.2,0-.27a.3.3,0,0,1,.05-.2c.24-.19.36,0,.36.7V56c0,.08,0,.21,0,.39v.4a1,1,0,0,0,0,.49c0,.14.15.16.36.07a1.28,1.28,0,0,0,.62-.52,1.15,1.15,0,0,0,.09-.51,1.47,1.47,0,0,0,0-.35,1.64,1.64,0,0,1,0-.27,1.2,1.2,0,0,1,0-.39c0-.09.08-.14.15-.14s.17.07.19.21,0,.43,0,.7l0,.65s0,.15,0,.34S29.63,57.17,29.64,57.21Z"/><path class="cls-1" d="M32.67,57.76c0,.05-.05.11-.13.18s-.24,0-.51-.3l-.24-.26-.22-.27a2.67,2.67,0,0,0-.53-.46.2.2,0,0,0-.22,0l-.06.05s-.05.09-.07.22v.12l0,.23.05.26a.31.31,0,0,1-.06.24c-.09.08-.16.12-.23.11s-.08,0-.14-.14a1,1,0,0,1-.1-.49l0-1.14q0-.9,0-1A.3.3,0,0,1,30.4,55a.12.12,0,0,1,.18.06l.05.07a2.21,2.21,0,0,1,0,.48c0,.11,0,.18,0,.22s.1.22.27.22a.51.51,0,0,0,.22-.07,2.68,2.68,0,0,0,.56-.59,1,1,0,0,1,.54-.41c.13,0,.19,0,.18.13a1.44,1.44,0,0,1-.08.28,2.86,2.86,0,0,1-.35.44,1.43,1.43,0,0,1-.14.2,1.27,1.27,0,0,0-.15.21c0,.07.13.3.43.69a2.81,2.81,0,0,1,.24.32c.1.17.18.28.21.33S32.67,57.72,32.67,57.76Z"/><path d="M9.49,57.34c0,.17,0,.28,0,.32a.24.24,0,0,1-.07.2s-.1,0-.19,0a.39.39,0,0,1-.16-.15A1.25,1.25,0,0,1,9,57.16l0-.61c0-.2-.15-.3-.32-.3l-.32,0-.33,0a1.32,1.32,0,0,0-.63.17.43.43,0,0,0-.2.34c0,.25,0,.44,0,.57,0,.3,0,.47,0,.51A.41.41,0,0,1,7,58s-.1-.06-.14-.16a.86.86,0,0,1-.09-.51l.06-1.2q0-.47,0-.93l0-.54a.62.62,0,0,1,0-.21.33.33,0,0,1,.17-.18c.09,0,.16,0,.19.07l.05.06a2,2,0,0,1-.05.55c0,.15,0,.32,0,.51a.91.91,0,0,0,.17.24,2.9,2.9,0,0,1,.62,0,2.87,2.87,0,0,0,.66-.07A.37.37,0,0,0,9,55.43v-.34c0-.06,0-.16,0-.29a2.13,2.13,0,0,1,0-.3A.46.46,0,0,1,9,54.22a.21.21,0,0,1,.23-.11.21.21,0,0,1,.14.2l0,.36a1.23,1.23,0,0,0,0,.27c0,.17,0,.29,0,.37v.29a8.93,8.93,0,0,0,.07,1.11Z"/><path d="M12.52,57.05v.36a2.85,2.85,0,0,1,0,.36c0,.12-.08.2-.18.22l-.23-.05-.39,0h-.18a2.74,2.74,0,0,1-1.16-.18.7.7,0,0,1-.35-.66,1,1,0,0,1,.06-.34.8.8,0,0,1,.95-.54,3,3,0,0,0,.58,0c.27,0,.41-.1.41-.2s0-.17-.18-.25a.76.76,0,0,0-.37-.1l-.45.07-.45.08q-.21,0-.21-.18a.67.67,0,0,1,.08-.3.2.2,0,0,1,.18-.12l.54-.12.29,0a.83.83,0,0,1,.39,0,1.22,1.22,0,0,1,.46.3.93.93,0,0,1,.24.69c0,.07,0,.16,0,.27s0,.25,0,.3A2.38,2.38,0,0,0,12.52,57.05Zm-1.14.35c.46,0,.71-.11.75-.31V57a.45.45,0,0,0-.44-.2h-.34a1.25,1.25,0,0,0-.74.2.38.38,0,0,0-.16.17c0,.06,0,.11.14.15a1.61,1.61,0,0,0,.52.09Z"/><path d="M15.31,55.05c.16,0,.21.1.15.32a2.87,2.87,0,0,1-.15.45,4,4,0,0,0-.29.64l-.06.23a6.67,6.67,0,0,0-.2.65l-.2.67-.17.62a1.81,1.81,0,0,1-.09.31.19.19,0,0,1-.19.13A.37.37,0,0,1,13.9,59a.24.24,0,0,1-.1-.18.6.6,0,0,1,.09-.27,2,2,0,0,0,.14-.33c.07-.3.11-.51.13-.64a.79.79,0,0,0,0-.22,1.47,1.47,0,0,0-.34-.68,1.83,1.83,0,0,1-.18-.31l-.18-.3a3.67,3.67,0,0,1-.38-.61.51.51,0,0,1,.07-.34c.07-.13.14-.18.22-.14a2.36,2.36,0,0,1,.43.61l.12.23a.89.89,0,0,0,.43.5c.2.12.38-.06.54-.55a1.84,1.84,0,0,1,.14-.62A.41.41,0,0,1,15.31,55.05Z"/><path d="M15.67,57.91a.24.24,0,0,1-.08-.26c0-.06.08-.31.21-.73s.21-.64.24-.78a2.2,2.2,0,0,0,.05-.38,1.44,1.44,0,0,1,.06-.39.43.43,0,0,1,.24-.29.3.3,0,0,1,.35,0,1.52,1.52,0,0,1,.25.63q.09.33.15.33c.05,0,.1-.06.16-.19a6.77,6.77,0,0,1,.32-.66.28.28,0,0,1,.23-.12.26.26,0,0,1,.28.23c0,.07,0,.19.07.35l.06.37c0,.15.1.39.2.72s.15.57.19.75v0a.21.21,0,0,1-.12.26.22.22,0,0,1-.27,0,1.25,1.25,0,0,1-.2-.52,3.6,3.6,0,0,0-.16-.55c-.12-.38-.22-.53-.29-.45a1.3,1.3,0,0,0-.17.51c0,.05,0,.19-.06.44a1.67,1.67,0,0,1-.09.43.22.22,0,0,1-.22.17.23.23,0,0,1-.24-.21,1.94,1.94,0,0,1,0-.38,2.35,2.35,0,0,0-.05-.38.49.49,0,0,1,0-.14.93.93,0,0,0-.06-.18c0-.14-.09-.21-.14-.21s-.19.24-.29.76a1.83,1.83,0,0,1-.26.79C15.84,58,15.75,58,15.67,57.91Z"/><path d="M22.4,54.78l-.38,0a.44.44,0,0,0-.34.27l0,.33c0,.21.21.31.55.31s.74,0,1.05,0a2.66,2.66,0,0,1,.78.17c.29.13.44.29.47.49a1.27,1.27,0,0,1-.19.67,1.09,1.09,0,0,1-.44.52,2.44,2.44,0,0,1-.89.34,2.82,2.82,0,0,1-.52,0,3,3,0,0,1-.7-.07.43.43,0,0,1-.18-.08.38.38,0,0,1-.17-.16,1.05,1.05,0,0,1-.1-.52q0-.42,0-.84c0-.2,0-.35,0-.45a2.64,2.64,0,0,1,0-.32,2.73,2.73,0,0,0,0-.32l0-.39s0,0,0-.09-.17-.31-.16-.35,0,0,0,0l0,0a1.8,1.8,0,0,1,.73-.13,2.81,2.81,0,0,1,.39,0l.87,0a1.34,1.34,0,0,1,.73.18c.11.11.15.2.12.26s-.15.1-.37.1h-.21l-.64,0Zm1.52,1.78a.87.87,0,0,0-.45-.16l-.21,0-.21,0a3.88,3.88,0,0,0-1.07.09.3.3,0,0,0-.27.34,1.91,1.91,0,0,1,0,.2,1.59,1.59,0,0,0,.23.2,1.07,1.07,0,0,0,.65.13,2.58,2.58,0,0,0,.46,0,1.56,1.56,0,0,0,.86-.38A.22.22,0,0,0,23.92,56.56Z"/><path d="M24.89,57.72a.67.67,0,0,1,.08-.29c.05-.16.09-.25.09-.27.05-.19.14-.47.26-.85,0,.06.09-.22.32-.85a1.88,1.88,0,0,1,.18-.36.23.23,0,0,1,.35,0,2.9,2.9,0,0,1,.31.7q.33.82.3.78l.15.36.15.35a1,1,0,0,1,.16.37.35.35,0,0,1-.17.17c-.09,0-.16.07-.19,0l-.05-.05a1.31,1.31,0,0,1-.12-.26c-.06-.14-.1-.24-.12-.27q-.33-.63-.39-.72a.23.23,0,0,0,0-.09l0-.09a.22.22,0,0,0-.15-.12c-.08,0-.17.09-.27.28a3,3,0,0,0-.26.87,2.32,2.32,0,0,1-.07.4q-.09.21-.36.12A.19.19,0,0,1,24.89,57.72Z"/><path d="M29.64,57.21l.06.35.05.16a.16.16,0,0,1-.05.16.27.27,0,0,1-.4,0,1,1,0,0,1-.1-.48s0,0-.09.1a4.28,4.28,0,0,1-.59.32.78.78,0,0,1-.68,0,.55.55,0,0,1-.19-.5,2.18,2.18,0,0,1,0-.42l0-.28v-.21l0-.52s0-.12,0-.25,0-.2,0-.27a.3.3,0,0,1,.05-.2c.24-.19.36,0,.36.7V56c0,.08,0,.21,0,.39v.4a1,1,0,0,0,0,.49c0,.13.15.16.36.07a1.28,1.28,0,0,0,.62-.52,1.15,1.15,0,0,0,.09-.51,1.45,1.45,0,0,0,0-.35,1.64,1.64,0,0,1,0-.27,1.2,1.2,0,0,1,0-.39c0-.09.08-.14.15-.14s.17.07.19.21,0,.43,0,.7l0,.65s0,.15,0,.34S29.63,57.17,29.64,57.21Z"/><path d="M32.67,57.76c0,.05-.05.11-.13.17s-.24,0-.51-.29l-.24-.27-.22-.26a2.67,2.67,0,0,0-.53-.46.2.2,0,0,0-.22,0l-.06.05s-.05.09-.07.22v.12l0,.23.05.26a.31.31,0,0,1-.06.24c-.09.08-.16.12-.23.11s-.08,0-.14-.14a1,1,0,0,1-.1-.49l0-1.14c0-.6,0-.92,0-1A.31.31,0,0,1,30.4,55a.12.12,0,0,1,.18.06l.05.07a2.21,2.21,0,0,1,0,.48c0,.11,0,.18,0,.22s.1.22.27.22a.51.51,0,0,0,.22-.07,2.68,2.68,0,0,0,.56-.59.9.9,0,0,1,.54-.41c.13,0,.19,0,.18.13a1.44,1.44,0,0,1-.08.28,2.86,2.86,0,0,1-.35.44,1.43,1.43,0,0,1-.14.2,1,1,0,0,0-.15.21c0,.07.13.3.43.69a2.81,2.81,0,0,1,.24.32c.1.17.18.28.21.33S32.67,57.72,32.67,57.76Z"/><path class="cls-2" d="M19.53,30.59c-.12,0,0,.51,0,.6a3.26,3.26,0,0,1-.09.69c-.14.61,1.12.47,1.25-.09.16-.72.23-2-.73-2.11-.62-.09-1.25.8-.42.91Z"/><path class="cls-2" d="M21.75,29.49c.57.19.48.67.37,1.18s1.12.48,1.25-.09c.2-.9,0-1.63-.91-1.95a.84.84,0,0,0-.88.23.39.39,0,0,0,.17.63Z"/><path class="cls-2" d="M13.76,26.87a1.1,1.1,0,0,0-1.43.2,2.91,2.91,0,0,0-.71,1.5c-.12.57,1.13.4,1.24-.11a3,3,0,0,1,.21-.66c0-.09.09-.17.14-.26s.12-.15,0,0h-.47l.08.05c.38.33,1.48-.23,1-.68Z"/><path class="cls-2" d="M12.31,24.64a1.39,1.39,0,0,0-1.59,1c-.13.34,1.09.19,1.22-.18a1.29,1.29,0,0,1,.3-.52l-.34.22.12-.06-.61.1.12,0A1.17,1.17,0,0,0,12.4,25c.19-.17.16-.33-.09-.37Z"/><path class="cls-2" d="M24.64,26.86l.09-.08-.87.24c.25,0,.13.74.09.88a.18.18,0,0,0,0,.17.79.79,0,0,1,.26.8c-.08.48,1.16.27,1.23-.16a1.6,1.6,0,0,0-.18-1c-.1-.23,0-.49-.08-.76-.19-.79-1-.77-1.57-.32-.21.17-.11.38.12.44a1.06,1.06,0,0,0,.87-.23Z"/><path class="cls-2" d="M28.11,25.86A2.36,2.36,0,0,0,28,23.8a1.11,1.11,0,0,0-1.65.06c-.5.55.69.58,1,.24l.06-.05-.47.16c-.2,0,0,.17,0,.31A1.87,1.87,0,0,1,27,25a2.31,2.31,0,0,1-.16,1c-.16.45,1.08.3,1.24-.13Z"/><path class="cls-3" d="M29.47,27.9c-.06.29.09.55.53.62a1.63,1.63,0,0,0,1.11.3,2.84,2.84,0,0,0,.72-.09A6.11,6.11,0,0,0,34.15,28a1.16,1.16,0,0,0,.37-.33,2.48,2.48,0,0,0,1-2.46v0h0c0-.14,0-.29-.06-.44v0c0-.44.14-.85-.14-1A1,1,0,0,0,35,23.5a5.1,5.1,0,0,0,0-.69c.23-1.1-.57-1.58-.63-2.69,0-.61-3-.1-2.9.78,0,.56.07,1.13.1,1.69a2.13,2.13,0,0,0,.05.74s0,0,0,.06h0a.5.5,0,0,0-.16.35v.69a.18.18,0,0,0,.08.15c-.49.61-1.09.33-1,1,0,0-.49.4-.52.41s.07.61,0,.65.34.28.29.31l-.25.17a1.1,1.1,0,0,0-.14.09l-.08.09-.11.09a1.1,1.1,0,0,0-.14.18h0s0,.06,0,.09l0,.06A.5.5,0,0,0,29.47,27.9Z"/><path class="cls-3" d="M1.56,24.64a.67.67,0,0,0,.33.69A5.72,5.72,0,0,0,2,26a.77.77,0,0,0,.17.29,1.22,1.22,0,0,0,.33,1c.2.2,0,1.34.33,1.38a1.2,1.2,0,0,0,.19.21c.32.28,1.16-.65,1.57-.67l.09.09a2.5,2.5,0,0,0,.62.34c.18.09.38.15.56.22a1.62,1.62,0,0,0,.59.07,2.38,2.38,0,0,0,1.77-.61c.3-.31.44-.88-.06-1.11a6,6,0,0,0-1-.38l-.11-.08-.07,0c.15-.41,0-.84-.61-1.21a1.38,1.38,0,0,0-.4-.31,3.61,3.61,0,0,0-.43-2,11.21,11.21,0,0,0,.09-1.75,1,1,0,0,0-.09-.33L5.91,20c.41-1.4-2.53-.61-3,0a6.23,6.23,0,0,0-.86,1.87.5.5,0,0,0,.11.52A5.92,5.92,0,0,0,1.56,24.64Z"/><path class="cls-4" d="M1.81,22.23l.25,0c-.12.66-.2,1.33-.26,2-.09.09-.13.18,0,.21a21,21,0,0,0,.1,3.95c0,.26.86.08.83-.22s-.06-.57-.08-.86c.42,0,.84-.05,1.25-.1.22,1,.66,1.9,1.5,2A.7.7,0,0,0,6.05,29l0-.08c0-.1-.13-.13-.33-.11-.59-.18-.91-.88-1.08-1.71a17.67,17.67,0,0,0,3.53-1c.53-.21.06-.59-.35-.43a15.66,15.66,0,0,1-3.26.91,13.91,13.91,0,0,1,0-2.37c.68-.1,1.35-.21,2-.36.5-.11.39-.49-.1-.38s-1.26.24-1.89.33c.06-.63.13-1.28.24-1.93l.41-.06a.44.44,0,0,0,.47,0l.23-.13c.31-.18.28-.55-.14-.49l-.87.12A8.6,8.6,0,0,1,6,18.47c.18-.29-.63-.19-.76,0a9.28,9.28,0,0,0-1.13,2.9L3,21.53a22.1,22.1,0,0,1,.88-3c.1-.26-.71-.17-.82.1a21.81,21.81,0,0,0-.88,3l-.28,0C1.47,21.74,1.25,22.31,1.81,22.23Zm.78,4.52a20.8,20.8,0,0,1,0-2.37l1.1-.11c0,.24,0,.48,0,.72a10,10,0,0,0,.11,1.67C3.39,26.71,3,26.73,2.59,26.75ZM4,21.94a15.82,15.82,0,0,0-.24,1.91L2.64,24c0-.62.13-1.25.24-1.86Z"/><path class="cls-4" d="M31.32,27.33a3.07,3.07,0,0,1-.87.47c-.49.15-.37.67.13.5A4.08,4.08,0,0,0,32,27.53a9.75,9.75,0,0,0,1.19.27,2.24,2.24,0,0,0,1.78-.15.08.08,0,0,0,0-.07l0-.06c-.11-.13-.44,0-.64.08a6.63,6.63,0,0,1-1.95-.42,6.86,6.86,0,0,0,1.08-1.44,8.9,8.9,0,0,0,2.42.34c.22,0,.88-.33.4-.49l-.3-.1a.6.6,0,0,0-.36.05,9,9,0,0,1-1.87-.35,9.7,9.7,0,0,0,.51-1.36c.2,0,.41.05.62.06s1.68.08,1.49-.62c-.08-.3-.63-.21-.78,0,0,0-.06,0-.14,0a3.37,3.37,0,0,1-.55,0l-.49-.06a7.56,7.56,0,0,0,.12-2.86c-.06-.34-.88-.14-.82.22A7.19,7.19,0,0,1,33.58,23a6.54,6.54,0,0,1-1.29-.51c-.31-.17-1,.26-.64.47a7.34,7.34,0,0,0,1.79.68A10.19,10.19,0,0,1,33,24.93a8.28,8.28,0,0,1-1.23-.61c-.25-.16-1,.2-.65.42a9.14,9.14,0,0,0,1.61.77,6,6,0,0,1-1,1.44,13.33,13.33,0,0,1-1.31-.65c-.2-.1-.85.24-.78.27A11.8,11.8,0,0,0,31.32,27.33Z"/><path d="M4.09,16.31C2.53,19.24-1.42,23.46.53,26.93c.45.79,2.41,0,1.88-.9-1.55-2.76,2.41-7.19,3.64-9.49.54-1-1.54-1-2-.23Z"/><path d="M30.63,17c1.34,2.43,3.79,4.56,4.4,7.33.84,3.8-3.14,4.05-5.7,3.41-.52-.14-2.34.69-1.67.86,2.82.72,6.08.86,8.28-1.32,3.47-3.46-1.56-7.74-3.26-10.83-.31-.58-2.27.15-2.05.55Z"/><circle class="cls-5" cx="18.61" cy="18.78" r="13.3"/><ellipse cx="13.43" cy="26.3" rx="1.5" ry="1.96"/><ellipse cx="23.35" cy="26.3" rx="1.5" ry="1.96"/><path d="M6.35,18.67c.35-7,5.7-13.25,13.24-12.46A12.82,12.82,0,0,1,30.81,19c0,7.47-6.73,13.8-14.36,12.13-6.13-1.34-9.8-6.52-10.11-12.6,0-.78-2.1-.33-2,.56C5.2,37.16,33,36.53,32.93,18.59,32.84.28,5.17,1.16,4.28,18.89,4.23,19.83,6.31,19.47,6.35,18.67Z"/><path class="cls-6" d="M25.35,19a1.29,1.29,0,0,1-.65.18,3.51,3.51,0,0,1-.33.34,1.9,1.9,0,0,1-1.94.09,2.64,2.64,0,0,1-.38-.18,3.13,3.13,0,0,1-1.53,0,3.59,3.59,0,0,1-.91-.34,2.38,2.38,0,0,1-.84.39c-1.45,1-5.24,0-5.42-1.79A4.43,4.43,0,0,1,12,16.2a4.61,4.61,0,0,1-1.19-1.33C9.73,13.75,9.34,12,10.61,11a1.86,1.86,0,0,1,0-.34c-.3-1.08.49-1.65,1.51-1.8l0,0a2.66,2.66,0,0,1,.75,0,4.53,4.53,0,0,1,.92.13,7.53,7.53,0,0,1,.06-2.63c0-.14,0-.29,0-.44s-.23-.61-.33-.94a6.28,6.28,0,0,1-.83-3.53c0-.27.37-.39.58-.46a2,2,0,0,1,.23-.06c.06-.06.13-.1.19-.15C14.45-.39,16-.09,17.21.78l.15.07a5.79,5.79,0,0,1,4.22,2.8v0a6.55,6.55,0,0,1,1.59,1.56,7.48,7.48,0,0,1,1.59,1.42A1.47,1.47,0,0,1,25.6,7l0,0a5.38,5.38,0,0,1,2.87,2.41.93.93,0,0,1,.16.54,4.65,4.65,0,0,1,1.15,2.84C30.06,16.11,27.72,17.41,25.35,19Z"/><path class="cls-7" d="M28.14,10.8c1,7.32-9.07,10.59-14.25,6.68-1-.76-3.27-3.15-3.57-4.41-.48-2,1.62-3.53,3.16-4.28,1.79-.86.19-2.37-1.27-1.66-2.12,1-4.9,3-4.92,5.65,0,3.15,4.07,6.55,6.74,7.58C21.15,23.08,32.27,18.94,31,10c-.19-1.3-3.09-.58-2.9.78Z"/><path class="cls-7" d="M21.83,11.85c-2.2.65-6.22.4-6.83-2.56-.25-1.2.6-1.71.67-2.73.09-1.34-.94-1.94-1.23-3.12-.63-2.57,1.57-2.1,3-1.32,1.77.94,3.24,2.49,4.9,3.61,2.47,1.66,5.35,2.69,5.72,6,.05.48,3-.07,2.9-.77-.28-2.51-1.94-3.83-4-5.1s-3.81-2.61-5.69-4C19.06.2,15.72-.47,13.13,1c-1.71,1-2,2.2-1.18,4,.62,1.35.88,1.18.54,2.76-.2.94-.7,1.13-.39,2.32,1.12,4.28,6.86,3.49,10,2.57,1.64-.48,1.48-1.29-.22-.79Z"/><path class="cls-3" d="M7.65,28.33a1.23,1.23,0,0,1,.37.92.77.77,0,0,1,.27.27c.34.74-.71,2-1.32,2.36a2.24,2.24,0,0,1-2.07-.12l-.06-.05-.14-.05a.31.31,0,0,1-.09-.11,1,1,0,0,1-.74-.68.86.86,0,0,1-.62-.67l-.17,0c-.69.24-.53-.51-.39-.84a3,3,0,0,1,1.46-1.64A5.54,5.54,0,0,1,6,27.48h.07C7,27.46,7.48,27.82,7.65,28.33Z"/><path class="cls-5" d="M10.21,36.26c-.1.81-2.28.83-2.91.65-1-.3-1.42-1.4-1.85-2.2-.28-.52-.52-1.05-.75-1.59-.22-.34-.45-.68-.66-1a.31.31,0,0,1,.1-.46s.32-1,.29-1c-.67.48,1.44,1.77,2.15,1.51C6.9,32,7.84,31.61,8,31.87c.32.29,1.14-.14,1.44.31A7.6,7.6,0,0,1,10.21,36.26Z"/><path class="cls-3" d="M8.25,32.11l-2,.5a3.43,3.43,0,0,1-1.82-.06.61.61,0,0,1-.13,0c-.23-.07-.76-.31-.52-.61l.11-.11h0c-.41-.11-.56-.35-.48-.58a.27.27,0,0,1,0-.39c-.32-.3.18-1,0-1.46s1.35-.45,1.37,0,1.19.22,1.81.58l.07.05c.22,0,.44,0,.65.08s.87.21.9.5a.35.35,0,0,1,.12.21,1.44,1.44,0,0,1,1.08.38C9.77,31.73,8.6,32,8.25,32.11Z"/><path class="cls-4" d="M3.52,29l.71,0a14.28,14.28,0,0,0,.49,1.73c-.27,0-.85.36-.45.4l.62,0a13.46,13.46,0,0,0,.64,1.4c.15.3,1,0,.82-.22S6,31.57,5.8,31.17a6.56,6.56,0,0,0,.88-.09c.17.38.35.75.53,1.12s1,0,.83-.22L7.51,30.9a6.89,6.89,0,0,0,.84-.28c.09,0,.41-.23.18-.32l-.11-.05a1,1,0,0,0-.65.18l-.41.14a17.79,17.79,0,0,1-.69-1.7,3,3,0,0,0,.73-.26c.17-.09.36-.32.14-.48h0a.5.5,0,0,0-.59.06,1.88,1.88,0,0,1-.42.14,9.59,9.59,0,0,1-.34-1.71c0-.27-.85-.09-.82.22a11,11,0,0,0,.31,1.62H5c-.06-.33-.12-.65-.16-1S4,27.37,4,27.7s.08.48.12.72l-.53,0C3.13,28.4,3,29,3.52,29Zm2.3,0a18.33,18.33,0,0,0,.69,1.73,8.14,8.14,0,0,1-.87.05A14.74,14.74,0,0,1,5.11,29C5.35,29,5.59,29,5.82,29Z"/><path d="M7.14,27.53A33.57,33.57,0,0,1,8.52,31.9C8.84,33,10.11,36,9,36.56c-2.25,1-6.24-9-6.59-10.54-.18-.8-2.24-.27-2.06.55A25.84,25.84,0,0,0,4,34.41c1.16,1.82,3,4.22,5.52,3.81,2.32-.39,2.17-3,1.67-4.79a50,50,0,0,0-2-6.45c-.34-.79-2.36-.17-2,.55Z"/><path class="cls-8" d="M6.16,44.84s6.27-.33,9,.7a.87.87,0,0,0,1.17-.7l1.38-10.28s-7.68-1.85-9.5.28Z"/><path class="cls-4" d="M14.81,43.06a27.92,27.92,0,0,0-3.29-.57,10.82,10.82,0,0,0-2.11-.23c-.39,0-.69.47-.12.42A12.32,12.32,0,0,1,11.6,43c.91.12,1.81.29,2.71.5.24.06,1-.32.5-.43Z"/><path class="cls-4" d="M14.69,41.2c-.71.1-1.31-.3-2-.27a4.12,4.12,0,0,1-1.05-.11,8.82,8.82,0,0,1-1.27-.1c-.37-.13-1,.39-.47.56a3.45,3.45,0,0,0,1,.12,11.51,11.51,0,0,0,1.28.24,3,3,0,0,1,1.22.09,2.56,2.56,0,0,0,1.23.09c.46-.06.63-.7.07-.62Z"/><path class="cls-4" d="M15.23,39,13.55,39c-.55,0-1.68.08-2.12-.35-.18-.19-1,.12-.76.31a2.7,2.7,0,0,0,1.68.43c.85.05,1.7.06,2.54.09.29,0,.89-.41.34-.43Z"/><path class="cls-4" d="M15.15,36.81a2.76,2.76,0,0,1-1,0,3.16,3.16,0,0,1-.73-.38,2.25,2.25,0,0,0-.71-.22c-.21,0-.52,0-.71-.07s-1,.24-.62.49a1.09,1.09,0,0,0,.58.2,2.91,2.91,0,0,1,1.28.37,3,3,0,0,0,1.79.23c.47-.05.63-.7.07-.64Z"/></g></svg>