<svg xmlns="http://www.w3.org/2000/svg" viewBox="0 0 15.62 14.5"><defs><style>.cls-1{fill:#fbb03b;}.cls-2{fill:#ff8031;}.cls-3{fill:#e16923;}.cls-4{fill:#c1272d;}.cls-5{fill:#a41c13;}</style></defs><title>pizza_v2</title><g id="Слой_1" data-name="Слой 1"><path class="cls-1" d="M14.14,1.54c.08-.12-6.69,1.93-10.09,3a4.76,4.76,0,0,0-1.51.35.57.57,0,0,0-.35.29l0,0a.24.24,0,0,0,0,.12A.66.66,0,0,0,2.4,6l.2.39a4.66,4.66,0,0,0,.83,1.43l0,0c.58.94,1.25,2,1.8,2.76A4.06,4.06,0,0,0,6,11.91a.55.55,0,0,0,.23.14l.08.1s0,0,.1-.08a.48.48,0,0,0,.17,0,3.74,3.74,0,0,0,1.67-1.9.9.9,0,0,0,0-.56C10.6,6.47,14.15,1.55,14.14,1.54Z"/><path class="cls-2" d="M6.53,7.94c-.43-.52-.61-1.18-1-1.69S4.73,5.5,4.39,5c-.7-.94-1.49-.68-2.56-.27a.74.74,0,0,0-.11,1.32c.6,1.18,1.55,2.14,2.16,3.33a13.33,13.33,0,0,0,1.9,3.26.71.71,0,0,0,.84.11A3.76,3.76,0,0,0,8.1,10.61C8.19,9.53,7.15,8.66,6.53,7.94Z"/><path class="cls-3" d="M8.21,10.11,5.86,13.32h.85L1.32,4.68,1,5.41l3.09-1c.61-.19.35-1.14-.26-1l-3.09,1a.51.51,0,0,0-.3.73l5.4,8.64a.5.5,0,0,0,.85,0l2.35-3.21c.37-.52-.48-1-.85-.5Z"/><path class="cls-3" d="M4.51,4.72,14.88,1.5,14.4.88,8,9.59c-.32.44.41.87.73.43l6.36-8.71a.43.43,0,0,0-.48-.63L4.29,3.9c-.52.16-.3,1,.22.82Z"/><path class="cls-4" d="M6.23,3.81a1.13,1.13,0,0,0-.34.31,1,1,0,0,0-.3.64v0A1.48,1.48,0,0,0,5.6,5a.22.22,0,0,0,0,.08s0,.07,0,.11l0,.07a1,1,0,0,0,.1.17A1.21,1.21,0,0,0,6,5.71,1.26,1.26,0,0,0,7.93,5C8.17,3.92,6.88,3.49,6.23,3.81Z"/><path class="cls-5" d="M7.64,4.81a.9.9,0,0,1-1.79,0,.9.9,0,0,1,1.79,0c0,.34.55.34.53,0A1.43,1.43,0,1,0,6.68,6.23,1.45,1.45,0,0,0,8.17,4.81C8.19,4.47,7.66,4.47,7.64,4.81Z"/><path class="cls-4" d="M10.7,5.54a.61.61,0,0,0-.15-.13.43.43,0,0,0-.12-.11l-.17-.07h0a1,1,0,0,0-.3,0,.77.77,0,0,0-.84.46.68.68,0,0,0,0,.49s0,.07,0,.11c0,.43.43.59.85.55h.09C10.64,6.69,11.17,6.23,10.7,5.54Z"/><path class="cls-5" d="M10.7,5.94a.75.75,0,0,1-1.5,0,.75.75,0,0,1,1.5,0c0,.27.44.27.42,0A1.19,1.19,0,0,0,10,4.77a1.17,1.17,0,0,0-.07,2.34,1.19,1.19,0,0,0,1.24-1.17C11.14,5.67,10.71,5.67,10.7,5.94Z"/><path class="cls-3" d="M3.53,4.17l4.71,6.56c.19.25.61,0,.43-.25L4,3.92c-.19-.26-.62,0-.43.25Z"/><path class="cls-1" d="M14.66,3a3.77,3.77,0,0,0-.47,0,.46.46,0,0,0-.38-.18c-.33,0-.65,0-1,.06a.54.54,0,0,0-.47.59A.55.55,0,0,0,12,4c-.52.06-.71.87-.12,1l.63.15c.41.14.65-.24.6-.57h.41A.47.47,0,0,0,14,3.92a1.6,1.6,0,0,1,.38,0C15,4,15.3,3.05,14.66,3Z"/><path class="cls-4" d="M12.08,2.67A.5.5,0,0,0,12,2.55a.43.43,0,0,0-.1-.09.94.94,0,0,0-.15-.06h0a.52.52,0,0,0-.25,0,.66.66,0,0,0-.73.39.58.58,0,0,0,0,.43.32.32,0,0,0,0,.09c0,.37.37.52.73.48h.08C12,3.67,12.49,3.26,12.08,2.67Z"/><path class="cls-5" d="M12.07,3a.65.65,0,0,1-1.29,0,.65.65,0,0,1,1.29,0c0,.24.39.24.37,0a1,1,0,0,0-2,0,1,1,0,0,0,2,0C12.46,2.78,12.09,2.78,12.07,3Z"/></g></svg>