<svg xmlns="http://www.w3.org/2000/svg" viewBox="0 0 24.17 24.5"><defs><style>.cls-1{fill:#fbb03b;}.cls-2{fill:#c1272d;}</style></defs><title>pizza</title><g id="Слой_2" data-name="Слой 2"><path class="cls-1" d="M17.07,7.61a.07.07,0,0,0,0-.07c.12-.15-.34-.17-.52-.1-.34.13-.67.28-1,.42-.56.19-1.12.4-1.67.62a0,0,0,0,0,0,0c0-.09-.16-.09-.24-.09a1.23,1.23,0,0,0-.52.17.89.89,0,0,0-.28.07.67.67,0,0,0-.88.29c-.1,0-.27.11-.26.23a.75.75,0,0,0,.25.49,1.31,1.31,0,0,0,.23.4c0,.23,0,.46.06.68a.7.7,0,0,0-.23.11.27.27,0,0,0-.15.1l-.1.15a.37.37,0,0,0-.18,0l-.46.17a.92.92,0,0,0-.4,0h0a.76.76,0,0,0-.33-.24,2.38,2.38,0,0,0-.24-.51.71.71,0,0,0,0-.25c.16-.19.18-.4-.16-.57a1.23,1.23,0,0,0-1.36.43c-.06-.1-.12-.2-.17-.3-.17-.31-.94,0-.76.35a.51.51,0,0,0-.15-.07.58.58,0,0,0-.49.07H7a.53.53,0,0,0-.54.25c-.3.51.22,1.29.85,1.62.12.2.26.39.4.58l.49,1c.24.51.47,1,.73,1.54h0l0,.08a.25.25,0,0,0,.19.12l.19.41a.31.31,0,0,0,.26.17c0,.16.1.31.14.47s0,0,0,0a.16.16,0,0,0,.12.18c0,.31.49.32.68.16l.08-.08a.38.38,0,0,0,.17-.1l.16-.23a2.61,2.61,0,0,0,.81-1.48A.56.56,0,0,0,12,14.7c.16-.25.41-.62.63-1A2.75,2.75,0,0,0,14,12c0-.12-.09-.13-.25-.11,0-.18-.07-.35-.11-.53h0c0-.05,0-.07,0-.09-.08-.35-.18-.69-.29-1a3.44,3.44,0,0,0,1.12-.54l.05.07h0a.8.8,0,0,0,.37.24v.08c0,.2.49,0,.7-.07a.7.7,0,0,0,.6-.81,2.75,2.75,0,0,0,.95-1.55S17.11,7.63,17.07,7.61Z"/><path class="cls-2" d="M10.74,9.5a.55.55,0,0,0-.22.16.59.59,0,0,0-.21.36h0a.49.49,0,0,0,0,.12v0a.33.33,0,0,0,0,.06l0,0,.06.09a.69.69,0,0,0,.18.16c.37.24,1.14.11,1.26-.37S11.17,9.31,10.74,9.5Z"/><path class="cls-2" d="M15.19,10.42l-.13-.1-.1-.08a.43.43,0,0,0-.16-.05h0a1.09,1.09,0,0,0-.26,0,.67.67,0,0,0-.72.36.46.46,0,0,0,0,.38s0,0,0,.08c0,.33.37.46.73.43h.08C15.13,11.31,15.59,11,15.19,10.42Z"/></g><g id="Слой_1" data-name="Слой 1"><path d="M10.86,17.46,6.21,10,5.83,11l13-4L18.13,6,9.75,17.46c-.48.66.63,1.3,1.11.64L19.23,6.62c.33-.45-.22-1.09-.72-.93l-13,4a.65.65,0,0,0-.38.94L9.75,18.1C10.19,18.79,11.29,18.15,10.86,17.46Z"/><path d="M7.75,9.79l4.05,5.65c.32.44,1.06,0,.74-.43L8.48,9.36c-.32-.44-1.05,0-.73.43Z"/><path d="M11.59,10.05a.51.51,0,0,1-1,0,.51.51,0,0,1,1,0c0,.54.89.54.85,0A1.36,1.36,0,1,0,11,11.41a1.38,1.38,0,0,0,1.43-1.36C12.48,9.5,11.63,9.5,11.59,10.05Z"/><path d="M15,10.84a.53.53,0,0,1-1.06,0,.53.53,0,0,1,1.06,0c0,.54.89.55.85,0a1.38,1.38,0,1,0-1.44,1.38,1.4,1.4,0,0,0,1.44-1.38C15.85,10.29,15,10.3,15,10.84Z"/></g></svg>