<svg xmlns="http://www.w3.org/2000/svg" xmlns:xlink="http://www.w3.org/1999/xlink" viewBox="0 0 51.29 62.92"><defs><style>.cls-1{opacity:0.54;fill:url(#linear-gradient);}.cls-2{fill:#333;}.cls-3,.cls-5{fill:#fff;}.cls-3{stroke:#534741;}.cls-10,.cls-3{stroke-miterlimit:10;}.cls-10,.cls-4{fill:none;}.cls-4{stroke:#fff;stroke-linecap:round;stroke-linejoin:round;stroke-width:1px;}.cls-6{fill:#9595e5;}.cls-7{fill:red;}.cls-8{fill:#cc0e0e;}.cls-9{fill:#87000b;}.cls-10{stroke:#87000b;}.cls-11{fill:#fbb03b;}.cls-12{fill:#ff8031;}.cls-13{fill:#e16923;}.cls-14{fill:#c1272d;}.cls-15{fill:#a41c13;}</style><linearGradient id="linear-gradient" x1="27.79" y1="26.72" x2="27.79" y2="0.89" gradientUnits="userSpaceOnUse"><stop offset="0" stop-color="#fff"/><stop offset="1" stop-color="#fff" stop-opacity="0"/></linearGradient></defs><title>GG_v2</title><g id="Слой_1" data-name="Слой 1"><path class="cls-1" d="M30.93,25.12,53.71-1.61s-9.4-3.88-23.9-4.16A78.29,78.29,0,0,0,1.88-1.61L24.21,25.12l6.43,0,.29,0h0l-.29,0"/><rect class="cls-2" x="26.33" y="26.23" width="2.45" height="7.83"/><path class="cls-2" d="M28.41,29.23a5,5,0,0,0,2.76-4.11c-.2-.2-7.23,0-7.23,0s.33,3.72,2.75,4.11a11.61,11.61,0,0,0,1.44,0"/><ellipse class="cls-3" cx="27.55" cy="25.49" rx="3.31" ry="0.88"/><line class="cls-4" x1="30.17" y1="23.18" x2="37.02" y2="12.21"/><line class="cls-4" x1="27.69" y1="22.38" x2="27.69" y2="19.1"/><line class="cls-4" x1="25.02" y1="23.18" x2="18.21" y2="12.21"/><path class="cls-5" d="M28.11,43.38a17.61,17.61,0,0,0-.17-2.94c0-2.73.59-5.42.57-8.18,0-.79-2.69,0-2.88.61a45.12,45.12,0,0,1-1.48,5.51c-.06,0-.4,0-.46,0a1.88,1.88,0,0,0-.23-.16c0-.15-.07.25-.14.06-.32-.87-1.86-1.42-3.53-1.57a2.48,2.48,0,0,0-.48-.17,6.06,6.06,0,0,0-4.57-.15l-.71,0C11.62,36,7.88,38.63,7,41a3.91,3.91,0,0,0-.55.88A8.31,8.31,0,0,0,4.7,45.17a8.85,8.85,0,0,0-1.05,4.35c-.09.56-.17,1.1-.24,1.56-.12.7.39.9,1,.85,0,.15,0,.29,0,.45a.92.92,0,0,0,.05.25c-1,.95.89,1.57,1.86,1.19l.45-.19a1.38,1.38,0,0,0,.17-.08h0a6.5,6.5,0,0,0,1.13-.71c.79-.59.61-1.07.1-1.32a4.34,4.34,0,0,0,.3-1.15l.06-.09,1.36-3,0-.06A8,8,0,0,0,11,45.94a7.1,7.1,0,0,0,1.29-1.23l.59-.26a5,5,0,0,0,1.24-.32,7.55,7.55,0,0,0,1.25-.4l.56,0a23.86,23.86,0,0,0,2.69.09h.05a5.66,5.66,0,0,0,2.44,1l.36.33a16.53,16.53,0,0,0,1.31,2.24h0l.09.15a1,1,0,0,0,1,.22l.07,0,.06.28v.07a13.22,13.22,0,0,0,1.19,4.14v0c0,.09.07.19.11.28a.33.33,0,0,0,.07.13c0,.25,0,.5,0,.76s.12.23.31.28c.6.43,2.75.54,2.75-.23V51.92a.17.17,0,0,0,0-.12c0-1.58,1.27-2,1.11-3.56.82,0-1.17-1.4-1.14-1.55A5.23,5.23,0,0,0,28.11,43.38Z"/><path class="cls-5" d="M7.69,31.78c-.37-.74-2.14-.09-2.58.27-.75.59-.66,1.73-.72,2.62,0,.57-.06,1.14,0,1.71l-.18,1.17a.35.35,0,0,0,.25.4v.1c.07.75,2.75,0,2.89-.61.06-.3.11-.59.15-.89a6.68,6.68,0,0,0,.33-1.32A6.13,6.13,0,0,0,7.69,31.78Z"/><path class="cls-5" d="M7.57,31.15c-.37-.74-2.13-.09-2.58.27-.75.59-.66,1.73-.72,2.62,0,.57-.06,1.14,0,1.71-.06.39-.12.78-.17,1.17a.34.34,0,0,0,.24.4.34.34,0,0,0,0,.1c.06.75,2.74,0,2.88-.61.07-.3.11-.59.15-.89a6.05,6.05,0,0,0,.33-1.32A6.13,6.13,0,0,0,7.57,31.15Z"/><path class="cls-6" d="M28.65,37.59a.63.63,0,0,0,.12-.38c.13-.22.15-.49-.19-.58a5.52,5.52,0,0,0-.68-.15l-.07,0a1.71,1.71,0,0,0-1-.07H26.8a3.22,3.22,0,0,0-1,.19,2.72,2.72,0,0,0-.9.45c-.26.22-.49.68,0,.83l.15,0a.38.38,0,0,0,0,.24.61.61,0,0,0,.24.31.28.28,0,0,0,.09.3s0,0,0,0a.4.4,0,0,0,0,.49,1.31,1.31,0,0,0,.25.22c.07.28.54.4.85.38l.24,0c.59-.05,1.24,1.12,1.72.73a3.81,3.81,0,0,0,.24-2,.33.33,0,0,0,0-.37C28.82,38,28.88,37.74,28.65,37.59Z"/><path class="cls-6" d="M7.55,36.25l-1.78.14a2.48,2.48,0,0,0-1.44.6l-.1.07c-.16.14-.5.52-.21.73l.13.07h0c-.29.22-.33.5-.18.69a.3.3,0,0,0,.12.37c-.15.38.49.85.47,1.38s1.26,0,1.11-.44.88-.57,1.25-1.09a.3.3,0,0,0,0-.08,3.38,3.38,0,0,0,.5-.27c.23-.15.63-.45.55-.74a.33.33,0,0,0,0-.22,1.2,1.2,0,0,0,.75-.69C8.92,36.15,7.87,36.23,7.55,36.25Z"/><path class="cls-7" d="M26.17,55.22a4,4,0,0,0-.9-.9c-.29-.69-1.33-1.13-1.88-1.41a1.34,1.34,0,0,0-.52-.07,2,2,0,0,0-.13-.42,1.3,1.3,0,0,0,.43-.37c.71-.22,1.31-.65,1.09-1.06-1.67-3.07-3-7-7.18-6.57l-.13,0a2.23,2.23,0,0,0-1.59-.09,10.76,10.76,0,0,0-1.46.41c-.13,0-.59-.26-.8-.05-.55.06-.94.74-1.11.84a6.15,6.15,0,0,0-3.07,4.28.48.48,0,0,0,.06.39c0,.14-.1.26-.13.4-.11.44.2.59.64.61A11.6,11.6,0,0,0,9,53.17c-.08.09-.46.17-.53.26s-.6,0-.74.17c-.29.09.06.43-.26.55a1.31,1.31,0,0,0-.75.56,1.42,1.42,0,0,0-.25.23c-.51.23-1.35.93-.3,1h.35c.08.16-.08.37.06.46s.25,0,.25,0c.06.36.09,1,.45,1.09a3,3,0,0,0,1,.8c.11.51.81.45,1.32.91a3.13,3.13,0,0,0,.44.36c.17.13.36.25.54.37a5,5,0,0,0,3.85,1.33,3.41,3.41,0,0,0,1.86.28,6.73,6.73,0,0,0,.95.16A5.12,5.12,0,0,0,19,61.32c1.47.49,3.23-.92,4.28-2.23.45-.37,1.4-.44,1.66-.9.36-.25.17-.9.51-1.19l.1,0a2.38,2.38,0,0,0,.62-.6l.69-.7C27.22,55.3,26.78,55.19,26.17,55.22Z"/><path class="cls-8" d="M26.88,55.13a.64.64,0,0,0,0-.33,2.28,2.28,0,0,0-.53-.81c-.41-.87-1.66-1.29-2.88-1.46-.62-.2-1.25-.36-1.81-.51a11.09,11.09,0,0,0-1.95-.63A17.61,17.61,0,0,0,14,51.14a2.58,2.58,0,0,0-1,.49,4.82,4.82,0,0,0-2.67,1,9.38,9.38,0,0,0-2.13.89l-.06,0a5.29,5.29,0,0,0-2.08,1,.87.87,0,0,0,0,1.53,1.81,1.81,0,0,0,.79,1.23,9.34,9.34,0,0,0,3,2.6,1.51,1.51,0,0,0,.53.15,4.87,4.87,0,0,0,.56.28,5,5,0,0,0,2.72.92,5.64,5.64,0,0,0,1.9.28c1.35.37,2.19,0,3.59-.49a2.12,2.12,0,0,0,1.18-.13c.49-.24,1-.49,1.4-.75a1.52,1.52,0,0,0,.52-.13,12.17,12.17,0,0,0,2.55-1.66A8.08,8.08,0,0,0,26,57.26a2.51,2.51,0,0,0,.61-.75c.13-.18.26-.36.39-.56A.58.58,0,0,0,26.88,55.13Z"/><path class="cls-8" d="M19.11,49.12a15.91,15.91,0,0,0,.51,1.66,6,6,0,0,0,1.31,1.5c.54.55,2.57,0,2.79-.74.66-2.07-.69-4.51-2.13-5.93-.62-.61-3.32.46-2.72,1,1.25,1.23,2.55,3.52,2,5.32l2.79-.75a5,5,0,0,1-1.26-1.63c-.27-.68-.4-1.4-.68-2.08a10.84,10.84,0,0,0-2.24-3.38c-.6-.61-3.55-.07-2.94.53A27.7,27.7,0,0,1,19.11,49.12Z"/><ellipse cx="21.52" cy="41.17" rx="1.5" ry="1.96"/><ellipse cx="11.6" cy="41.17" rx="1.5" ry="1.96"/><path class="cls-9" d="M5.68,55.64c6.39-5.3,14.82-5.55,21.08.09.54.49,2.47-.3,1.9-.81-7.25-6.54-17.3-5.73-24.63.36-.91.75,1.12.8,1.65.36Z"/><path class="cls-9" d="M9.69,52.79c-.06-2.63.87-6.13,3.28-7.56a7,7,0,0,1,8.58,1.84c1.27,1.86,1.76,4.33,2.51,6.43.18.49,2.21-.13,2.06-.55-1-2.69-1.55-6.34-4.09-8.06-2.25-1.52-5.81-1.47-8.32-.74-4.1,1.18-6.17,5.08-6.07,9.19,0,.35,2.07,0,2.05-.55Z"/><path class="cls-9" d="M16.75,57.45a1.76,1.76,0,0,1-.07.33c-.11.12-.11.13,0,0s.15-.1.18,0-.13-.1-.17-.14a.62.62,0,0,1-.15-.35,1.2,1.2,0,0,1,.06-.33c.12-.12.11-.12,0,0s-.15.1-.18,0,.13.1.16.14a.66.66,0,0,1,.16.35c0,.5.48.67.93.63s1.17-.32,1.14-.81a1.84,1.84,0,0,0-2.06-1.75,2.24,2.24,0,0,0-2.26,1.93c-.06,2.53,4.19,2.14,4.32-.18C18.88,56.25,16.8,56.56,16.75,57.45Z"/><path class="cls-10" d="M17.53,56.65s3-4.24,4.73-4.49"/><path class="cls-10" d="M17.78,57.36s6.88-.25,7.31,1.42"/><path class="cls-10" d="M15.11,56.94s-2.78-4.62-4.35-4.62"/><path class="cls-10" d="M14.83,57.79s-5.72-1.72-7.1,0"/><path class="cls-10" d="M16.34,58.49s0,2.36,0,3.11"/><path d="M29.58,42.73C29.87,40,32,31.47,28.34,30.16s-4.87,5.21-4.87,7.53c0,1,2.08.71,2.08-.18a11.12,11.12,0,0,1,.56-3.75c.28-.79.68-2,1.74-1.1.52.42.33,2.21.33,2.74,0,2.48-.41,5-.67,7.51-.11,1,2,.71,2.07-.18Z"/><path d="M9.64,37.35c0-2.11.35-5.42-1.41-7a2.22,2.22,0,0,0-3.07.25c-3,2.63-2.52,9.13-1.93,12.65.16,1,2.22.45,2.06-.55a25,25,0,0,1,.06-8c.15-.93.47-3.3,1.49-2.77s.74,4.68.72,5.57c0,1.08,2.07.79,2.08-.15Z"/><path d="M28.6,48.78c-.35,7-5.7,13.24-13.24,12.46A12.79,12.79,0,0,1,4.14,48.49c0-7.47,6.72-13.78,14.36-12.12,6.13,1.34,9.8,6.52,10.11,12.59,0,.8,2.1.35,2.05-.55C29.75,30.3,1.92,30.9,2,48.87c.1,18.32,27.76,17.47,28.66-.29C30.72,47.61,28.64,48,28.6,48.78Z"/><path class="cls-11" d="M14.25,23.65c.09-.12-6.68,1.94-10.09,3a4.56,4.56,0,0,0-1.5.36.54.54,0,0,0-.35.28l-.05,0a.24.24,0,0,0,0,.12.63.63,0,0,0,.25.66c.06.12.13.26.21.4A4.25,4.25,0,0,0,3.55,30l0,.05c.58.94,1.25,1.95,1.8,2.76A4.07,4.07,0,0,0,6.12,34a.58.58,0,0,0,.23.13c0,.06.07.1.08.1s0,0,.09-.08a.37.37,0,0,0,.18,0,3.78,3.78,0,0,0,1.66-1.89.91.91,0,0,0,0-.56C10.71,28.59,14.27,23.67,14.25,23.65Z"/><path class="cls-12" d="M6.65,30.05c-.44-.51-.61-1.17-1-1.69s-.77-.75-1.1-1.2c-.7-.94-1.49-.68-2.56-.28a.75.75,0,0,0-.12,1.33c.61,1.18,1.55,2.13,2.17,3.33a13,13,0,0,0,1.9,3.25.7.7,0,0,0,.84.11,3.75,3.75,0,0,0,1.48-2.18C8.3,31.65,7.26,30.78,6.65,30.05Z"/><path class="cls-13" d="M8.32,32.22,6,35.44h.85L1.43,26.8l-.29.72,3.08-1c.61-.18.35-1.14-.26-.95l-3.09,1a.49.49,0,0,0-.29.72L6,35.93a.5.5,0,0,0,.85,0l2.34-3.21c.38-.51-.48-1-.85-.5Z"/><path class="cls-13" d="M4.63,26.83,15,23.62,14.51,23,8.15,31.7c-.32.45.42.87.74.43l6.35-8.71c.23-.3-.14-.73-.48-.62L4.4,26a.43.43,0,0,0,.23.82Z"/><path class="cls-14" d="M6.34,25.93a.87.87,0,0,0-.33.3,1,1,0,0,0-.31.64v0a1.48,1.48,0,0,0,0,.21v.08a.28.28,0,0,0,0,.11l0,.07a.46.46,0,0,0,.09.17,1.23,1.23,0,0,0,.27.29,1.26,1.26,0,0,0,1.9-.68C8.28,26,7,25.6,6.34,25.93Z"/><path class="cls-15" d="M7.76,26.93a.9.9,0,0,1-1.8,0,.9.9,0,0,1,1.8,0c0,.33.54.33.52,0a1.42,1.42,0,1,0-1.49,1.41,1.44,1.44,0,0,0,1.49-1.41C8.3,26.59,7.78,26.59,7.76,26.93Z"/><path class="cls-14" d="M10.82,27.66a1,1,0,0,0-.15-.14.53.53,0,0,0-.12-.1.67.67,0,0,0-.18-.07h0a.7.7,0,0,0-.29,0,.75.75,0,0,0-.84.45.66.66,0,0,0,0,.5.38.38,0,0,0,0,.1c0,.43.43.6.85.55h.09C10.75,28.81,11.28,28.34,10.82,27.66Z"/><path class="cls-15" d="M10.81,28.05a.75.75,0,0,1-1.49,0,.75.75,0,0,1,1.49,0c0,.28.44.28.42,0A1.17,1.17,0,1,0,10,29.22a1.18,1.18,0,0,0,1.23-1.17C11.25,27.78,10.83,27.78,10.81,28.05Z"/><path class="cls-13" d="M3.64,26.29l4.71,6.55c.19.26.62,0,.43-.25L4.07,26c-.18-.26-.61,0-.43.25Z"/><path class="cls-11" d="M14.77,25.08a1.85,1.85,0,0,0-.47,0,.41.41,0,0,0-.37-.18,8.22,8.22,0,0,0-1,.06.54.54,0,0,0-.47.59.53.53,0,0,0-.33.54c-.52.06-.7.87-.12,1a3.4,3.4,0,0,1,.63.15c.41.13.65-.24.6-.57h.41a.47.47,0,0,0,.46-.57,1.7,1.7,0,0,1,.39,0C15.14,26.13,15.41,25.16,14.77,25.08Z"/><path class="cls-14" d="M12.2,24.78a1.27,1.27,0,0,0-.13-.11.44.44,0,0,0-.11-.09l-.15-.06h0a1.15,1.15,0,0,0-.26,0,.66.66,0,0,0-.73.4.6.6,0,0,0,0,.42l0,.1c0,.37.37.51.74.47h.07C12.14,25.78,12.6,25.38,12.2,24.78Z"/><path class="cls-15" d="M12.19,25.13a.65.65,0,0,1-1.29,0,.65.65,0,0,1,1.29,0c0,.23.39.24.37,0a1,1,0,0,0-2,0,1,1,0,0,0,2,0C12.58,24.89,12.21,24.89,12.19,25.13Z"/></g></svg>