<svg xmlns="http://www.w3.org/2000/svg" viewBox="0 0 42 64.5"><defs><style>.cls-1{fill:#fbb03b;}.cls-2{fill:#c1272d;}.cls-3,.cls-4,.cls-9{fill:#fff;}.cls-4{opacity:0.54;}.cls-5{fill:#9595e5;}.cls-6{fill:red;}.cls-7{fill:#333;}.cls-8{fill:#534741;}.cls-9{stroke:#534741;}.cls-10,.cls-12,.cls-9{stroke-miterlimit:10;}.cls-10,.cls-12{fill:none;}.cls-10{stroke:#fff;}.cls-11{fill:#cc0e0e;}.cls-12{stroke:#000;}</style></defs><title>personaji_v1-</title><g id="Слой_1" data-name="Слой 1"><path class="cls-1" d="M17.3,19.81a.1.1,0,0,0,0-.07c.11-.15-.35-.17-.53-.1l-1,.42c-.56.19-1.11.4-1.66.62l0,0c0-.09-.15-.09-.24-.08a1.09,1.09,0,0,0-.52.16.74.74,0,0,0-.28.08.68.68,0,0,0-.88.28c-.1,0-.26.11-.25.23a.68.68,0,0,0,.24.49,1.22,1.22,0,0,0,.24.4c0,.23,0,.46,0,.68a.56.56,0,0,0-.22.11.36.36,0,0,0-.16.1,1.19,1.19,0,0,0-.09.15.31.31,0,0,0-.19,0l-.46.16a1.38,1.38,0,0,0-.4,0h0a.85.85,0,0,0-.33-.24,2.38,2.38,0,0,0-.24-.51.72.72,0,0,0,0-.25c.15-.19.17-.4-.16-.57a1.25,1.25,0,0,0-1.37.43,2.91,2.91,0,0,1-.17-.3c-.17-.31-.93,0-.76.35a.51.51,0,0,0-.15-.07.61.61,0,0,0-.49.07H7.19a.53.53,0,0,0-.53.25c-.31.51.21,1.29.84,1.62.13.2.27.39.41.58l.48,1c.24.51.47,1,.73,1.54h0l0,.07a.25.25,0,0,0,.2.12l.18.41a.34.34,0,0,0,.26.17c0,.16.1.31.14.47s0,0,0,0a.18.18,0,0,0,.12.19c0,.3.49.31.68.15a.6.6,0,0,0,.08-.08.38.38,0,0,0,.17-.1l.17-.23A2.66,2.66,0,0,0,12,27a.52.52,0,0,0,.29-.13,11.79,11.79,0,0,0,.63-1,2.8,2.8,0,0,0,1.33-1.63c0-.12-.1-.13-.26-.11,0-.18-.06-.35-.1-.53h0a.08.08,0,0,0,0-.09,9.32,9.32,0,0,0-.3-1,3.44,3.44,0,0,0,1.12-.54s0,0,.05.07h0a.72.72,0,0,0,.36.24v.08c0,.2.5,0,.7-.07a.71.71,0,0,0,.61-.81,2.79,2.79,0,0,0,.94-1.55A.08.08,0,0,0,17.3,19.81Z"/><path class="cls-2" d="M11,21.7a.73.73,0,0,0-.22.16.53.53,0,0,0-.2.36h0a.24.24,0,0,0,0,.12v0l0,.06s0,0,0,0a.36.36,0,0,0,.07.1.88.88,0,0,0,.17.16c.37.23,1.14.1,1.27-.38S11.39,21.51,11,21.7Z"/><path class="cls-2" d="M15.41,22.62a.64.64,0,0,0-.13-.1.39.39,0,0,0-.1-.08.44.44,0,0,0-.15-.05h0a1,1,0,0,0-.25,0,.68.68,0,0,0-.73.36.5.5,0,0,0,0,.38l0,.08c0,.33.37.46.73.43h.08C15.35,23.52,15.81,23.16,15.41,22.62Z"/><path d="M11.08,29.66,6.43,22.22l-.38.94,13-4-.72-.94L10,29.66c-.49.66.62,1.3,1.1.64l8.37-11.48c.34-.45-.21-1.09-.72-.93l-13,4a.64.64,0,0,0-.38.93L10,30.3C10.41,31,11.51,30.36,11.08,29.66Z"/><path d="M8,22,12,27.64c.31.44,1.05,0,.73-.43L8.7,21.56c-.31-.44-1,0-.73.43Z"/><path d="M11.81,22.25a.51.51,0,0,1-1,0,.51.51,0,0,1,1,0c0,.54.89.55.85,0a1.36,1.36,0,1,0-1.43,1.36,1.38,1.38,0,0,0,1.43-1.36C12.7,21.7,11.85,21.71,11.81,22.25Z"/><path d="M15.19,23a.54.54,0,0,1-1.07,0c0-.69,1-.68,1.07,0s.88.55.85,0a1.41,1.41,0,0,0-1.39-1.38,1.38,1.38,0,0,0-.06,2.76A1.41,1.41,0,0,0,16,23C16.07,22.49,15.22,22.5,15.19,23Z"/><path class="cls-3" d="M31.65,38.46a17.61,17.61,0,0,0-.17-2.94c0-2.73.6-5.43.58-8.18,0-.79-2.7,0-2.89.61a45.12,45.12,0,0,1-1.48,5.51c-.06,0-.4,0-.46,0s-.13-.11-.23-.17-.07.25-.13.07c-.33-.87-1.87-1.43-3.53-1.57a2.35,2.35,0,0,0-.49-.17c-1-.67-3-.66-4.57-.15a5.67,5.67,0,0,0-.71,0c-2.41-.44-6.15,2.24-7.07,4.59a4.08,4.08,0,0,0-.55.87,8.55,8.55,0,0,0-1.71,3.32,8.84,8.84,0,0,0-1,4.34C7.1,45.16,7,45.7,7,46.15c-.11.7.39.91,1,.86,0,.15,0,.28,0,.44a.71.71,0,0,0,.06.26c-1,.95.88,1.57,1.85,1.18l.45-.18.17-.08h0a6.5,6.5,0,0,0,1.13-.71c.79-.59.61-1.06.1-1.31A4.79,4.79,0,0,0,12,45.45s0-.06.05-.09l1.37-3s0,0,0-.05A8.43,8.43,0,0,0,14.5,41a7.48,7.48,0,0,0,1.29-1.23l.59-.26a5.52,5.52,0,0,0,1.24-.32,7.26,7.26,0,0,0,1.25-.4l.56,0c.89.07,1.77.1,2.69.09h.05a5.42,5.42,0,0,0,2.44,1l.36.34a18.37,18.37,0,0,0,1.31,2.24h0l.09.14c.16.23.53.28.95.23l.07,0a2.86,2.86,0,0,0,.07.28.17.17,0,0,0,0,.07,13.29,13.29,0,0,0,1.19,4.14,0,0,0,0,0,0,0l.11.29a.54.54,0,0,0,.07.13c0,.25,0,.5,0,.75s.12.24.31.28c.6.44,2.75.55,2.75-.22V47a.21.21,0,0,0,0-.12c0-1.59,1.26-2,1.1-3.57.83,0-1.17-1.4-1.14-1.55A5.2,5.2,0,0,0,31.65,38.46Z"/><path class="cls-3" d="M11.23,26.85c-.37-.73-2.13-.08-2.58.27-.75.6-.66,1.74-.72,2.63,0,.57-.06,1.14,0,1.71-.06.39-.12.77-.17,1.16A.35.35,0,0,0,8,33a.38.38,0,0,0,0,.1c.06.75,2.74,0,2.88-.62.07-.29.11-.59.15-.88a6.05,6.05,0,0,0,.33-1.32A6.16,6.16,0,0,0,11.23,26.85Z"/><path class="cls-3" d="M11.11,26.22c-.37-.73-2.13-.08-2.58.27-.74.6-.66,1.74-.72,2.63,0,.57-.06,1.14,0,1.71-.06.39-.12.77-.17,1.16a.35.35,0,0,0,.24.41.31.31,0,0,1,0,.1c.06.75,2.74,0,2.88-.62.07-.29.11-.59.15-.88a5.53,5.53,0,0,0,.33-1.32A6.16,6.16,0,0,0,11.11,26.22Z"/><path class="cls-4" d="M35,17.86,40.4,10S32.34,2,22.77,10l5,7.9,6.93-.05.3.05h0l-.3-.05"/><path class="cls-5" d="M32.19,32.66a.58.58,0,0,0,.12-.37c.13-.23.15-.49-.19-.59s-.45-.1-.68-.14l-.06,0a1.85,1.85,0,0,0-1-.07h-.06a3.3,3.3,0,0,0-1,.18,2.73,2.73,0,0,0-.9.46c-.26.21-.49.68,0,.83l.15,0a.36.36,0,0,0,0,.25.52.52,0,0,0,.23.3.32.32,0,0,0,.09.31l0,0a.38.38,0,0,0,0,.49,1.27,1.27,0,0,0,.25.21c.07.28.54.41.85.38l.24,0c.6,0,1.24,1.13,1.72.74a3.81,3.81,0,0,0,.24-2,.33.33,0,0,0,0-.37C32.36,33.07,32.42,32.82,32.19,32.66Z"/><path class="cls-5" d="M11.1,31.33l-1.79.14a2.53,2.53,0,0,0-1.44.6l-.1.07c-.16.13-.5.52-.21.72l.13.08h0c-.29.22-.33.49-.18.69a.3.3,0,0,0,.12.37c-.15.38.49.85.48,1.38s1.25,0,1.1-.45.88-.56,1.26-1.08c0,0,0-.06,0-.08A3.84,3.84,0,0,0,11,33.5c.23-.16.63-.46.55-.74a.36.36,0,0,0,0-.23,1.17,1.17,0,0,0,.74-.68C12.46,31.23,11.41,31.3,11.1,31.33Z"/><path class="cls-6" d="M29.72,50.29a4.29,4.29,0,0,0-.91-.89c-.28-.69-1.33-1.14-1.88-1.41a1,1,0,0,0-.52-.07,2,2,0,0,0-.12-.42,1.74,1.74,0,0,0,.43-.37c.7-.23,1.31-.66,1.09-1.06-1.68-3.08-3-7-7.19-6.57l-.13,0a2.23,2.23,0,0,0-1.59-.09,8.74,8.74,0,0,0-1.46.41c-.13,0-.59-.27-.8-.06-.55.07-.94.74-1.11.84a6.17,6.17,0,0,0-3.07,4.29.52.52,0,0,0,.06.39c0,.13-.1.25-.13.39-.11.45.21.6.64.61a11.47,11.47,0,0,0-.49,1.94c-.08.09-.46.16-.53.26s-.6,0-.74.17.06.42-.26.55a1.27,1.27,0,0,0-.75.56A1.86,1.86,0,0,0,10,50c-.5.24-1.34.94-.3,1h.35c.08.15-.08.37.06.46s.25,0,.25,0c.06.37.09,1,.45,1.1a3.1,3.1,0,0,0,1,.8c.11.5.81.44,1.33.91a3,3,0,0,0,.43.35c.18.14.36.26.55.38A5.05,5.05,0,0,0,18,56.4a3.52,3.52,0,0,0,1.86.28,6.58,6.58,0,0,0,1,.15,5.17,5.17,0,0,0,1.75-.43c1.46.49,3.22-.93,4.27-2.23.45-.37,1.4-.45,1.66-.9.36-.25.17-.9.51-1.19l.1,0a2.11,2.11,0,0,0,.62-.61c.23-.22.46-.45.69-.7S30.33,50.26,29.72,50.29Z"/><rect class="cls-7" x="30.12" y="18.97" width="2.45" height="7.83"/><path class="cls-8" d="M32.21,22A5,5,0,0,0,35,17.86c-.2-.2-7.23,0-7.23,0s.34,3.72,2.75,4.12a11.13,11.13,0,0,0,1.44,0"/><ellipse class="cls-9" cx="31.34" cy="18.23" rx="3.31" ry="0.88"/><line class="cls-10" x1="33.96" y1="15.92" x2="37.83" y2="10.04"/><line class="cls-10" x1="31.48" y1="15.13" x2="31.48" y2="11.84"/><line class="cls-10" x1="28.81" y1="15.92" x2="25.47" y2="10.04"/><path class="cls-11" d="M30.42,50.21a.68.68,0,0,0,0-.34,2.33,2.33,0,0,0-.53-.8c-.4-.87-1.66-1.3-2.88-1.47-.62-.19-1.25-.35-1.81-.5a12,12,0,0,0-1.95-.64,17.86,17.86,0,0,0-5.67-.24,2.53,2.53,0,0,0-1,.48,4.9,4.9,0,0,0-2.67,1,9.91,9.91,0,0,0-2.13.9l-.06,0a5.47,5.47,0,0,0-2.08,1,.87.87,0,0,0,0,1.53,1.78,1.78,0,0,0,.8,1.22A9.22,9.22,0,0,0,13.29,55a1.76,1.76,0,0,0,.53.15,4.32,4.32,0,0,0,.57.28,4.92,4.92,0,0,0,2.71.91,5.18,5.18,0,0,0,1.9.28c1.36.37,2.19,0,3.59-.48A2.11,2.11,0,0,0,23.77,56a14.29,14.29,0,0,0,1.4-.75,1.53,1.53,0,0,0,.52-.12,12.31,12.31,0,0,0,2.55-1.66,7.66,7.66,0,0,0,1.27-1.14,2.47,2.47,0,0,0,.61-.74l.39-.56A.58.58,0,0,0,30.42,50.21Z"/><path class="cls-11" d="M22.65,44.19a15.38,15.38,0,0,0,.51,1.67,6.46,6.46,0,0,0,1.31,1.5c.54.55,2.57,0,2.8-.75.65-2.06-.7-4.5-2.14-5.93-.62-.6-3.32.46-2.72,1.06,1.25,1.22,2.56,3.51,2,5.32l2.79-.75a5,5,0,0,1-1.26-1.64c-.26-.67-.4-1.4-.68-2.07A10.55,10.55,0,0,0,23,39.22c-.6-.61-3.54-.08-2.94.53A27.47,27.47,0,0,1,22.65,44.19Z"/><path d="M32.14,43.86c-.35,7-5.7,13.24-13.24,12.45A12.8,12.8,0,0,1,7.68,43.57c0-7.48,6.72-13.78,14.37-12.12C28.17,32.78,31.84,38,32.15,44c0,.81,2.1.36,2.05-.55C33.29,25.38,5.46,26,5.56,44c.09,18.31,27.75,17.47,28.65-.29C34.26,42.69,32.18,43,32.14,43.86Z"/><ellipse cx="25.06" cy="36.24" rx="1.5" ry="1.96"/><ellipse cx="15.14" cy="36.24" rx="1.5" ry="1.96"/><path d="M9.22,50.71c6.39-5.3,14.82-5.55,21.08.09.55.5,2.48-.29,1.9-.81-7.24-6.54-17.3-5.72-24.63.36-.91.76,1.12.8,1.65.36Z"/><path d="M13.23,47.86c-.06-2.63.88-6.13,3.28-7.55a7,7,0,0,1,8.58,1.83c1.28,1.87,1.76,4.34,2.51,6.44.18.49,2.21-.13,2.06-.55-1-2.69-1.55-6.35-4.09-8.06-2.25-1.53-5.81-1.47-8.32-.75-4.1,1.19-6.17,5.09-6.07,9.19,0,.36,2.07,0,2.05-.55Z"/><path d="M20.29,52.52a3,3,0,0,1-.06.34c-.12.12-.11.12,0,0s.15-.09.18,0-.13-.1-.16-.14a.8.8,0,0,1-.16-.35,1,1,0,0,1,.07-.34c.11-.11.11-.12,0,0s-.15.1-.18,0,.13.1.17.14a.7.7,0,0,1,.15.34c0,.5.48.68.94.64s1.16-.32,1.13-.81a1.84,1.84,0,0,0-2.06-1.76A2.27,2.27,0,0,0,18,52.52c-.06,2.54,4.19,2.15,4.32-.17C22.42,51.32,20.34,51.64,20.29,52.52Z"/><path class="cls-12" d="M21.07,51.73s3-4.24,4.73-4.49"/><path class="cls-12" d="M21.33,52.44s6.88-.25,7.3,1.41"/><path class="cls-12" d="M18.65,52S15.87,47.4,14.3,47.4"/><path class="cls-12" d="M18.37,52.87s-5.72-1.72-7.1,0"/><path class="cls-12" d="M19.89,53.56s0,2.37,0,3.12"/><path d="M33.12,37.81c.29-2.7,2.41-11.26-1.23-12.57S27,30.45,27,32.76c0,1,2.08.71,2.08-.17a11.37,11.37,0,0,1,.56-3.75c.28-.79.68-2,1.74-1.1.52.42.33,2.21.33,2.74a72.53,72.53,0,0,1-.67,7.5c-.11,1,2,.72,2.07-.17Z"/><path d="M13.18,32.43c0-2.11.36-5.42-1.41-7a2.22,2.22,0,0,0-3.07.24c-3,2.64-2.52,9.13-1.93,12.66.17,1,2.22.44,2.06-.55a25,25,0,0,1,.06-8c.15-.93.47-3.3,1.49-2.77s.74,4.67.72,5.57c0,1.08,2.07.79,2.08-.15Z"/></g></svg>