<svg xmlns="http://www.w3.org/2000/svg" viewBox="0 0 43.94 43.54"><defs><style>.cls-1,.cls-4{fill:#333;}.cls-2{fill:#666;}.cls-3{fill:#dbdbdb;}.cls-4{stroke:#e6e6e6;stroke-width:0.28px;}.cls-12,.cls-4{stroke-miterlimit:10;}.cls-5{fill:red;}.cls-12,.cls-6{fill:#fff;}.cls-7{fill:#5a9385;}.cls-8{fill:#495772;}.cls-9{fill:#1a1a1a;}.cls-10,.cls-11{font-size:7.28px;font-family:v_SilverAgeLCBB, v;}.cls-10{fill:none;stroke:#fff;stroke-linejoin:bevel;stroke-width:2.13px;}.cls-12{stroke:#000;stroke-width:0.71px;}</style></defs><title>personaji_4</title><g id="Слой_1" data-name="Слой 1"><rect class="cls-1" x="30.04" y="14.11" width="8.85" height="14.06" rx="2.22" ry="2.22" transform="matrix(0.97, -0.26, 0.26, 0.97, -4.29, 9.63)"/><path class="cls-2" d="M36.61,17.55l-.23-.89a1.62,1.62,0,0,0-2-1.14l-2.68.72a1.61,1.61,0,0,0-1.14,2l.24.9Z"/><path class="cls-3" d="M38.37,24.12l-1.76-6.57-5.79,1.56,1.76,6.56a1.62,1.62,0,0,0,2,1.15l2.67-.72A1.61,1.61,0,0,0,38.37,24.12Z"/><circle class="cls-4" cx="33.43" cy="17.09" r="0.74"/><circle class="cls-5" cx="37.06" cy="24.83" r="0.45"/><path class="cls-1" d="M35.84,19.93a1.29,1.29,0,0,1-1.26,1.72,1.67,1.67,0,0,1-1.75-1.36c-.11-.35-.93-.12-.82.22a2.38,2.38,0,0,0,2.84,1.71,2.06,2.06,0,0,0,1.81-2.51c-.07-.35-.89-.14-.82.22Z"/><path class="cls-1" d="M34.79,22.22c.52-.29,1,.53.84.93s-.3.52-.66.33a.79.79,0,0,1-.33-.5c-.06-.23-.1-.89.44-.62a.38.38,0,0,1,.14.47c-.18.16-.18.22,0,.18a.25.25,0,0,1-.08-.33c-.06-.13-.18.44-.12.41l.65-.15c-.12,0-.07-.35,0-.4l-.64.2h.07l-.15-.06v.17c-.06.18.74.08.81-.14s.06-.13,0-.26-.09-.06-.14-.06c-.35,0-1.22.29-.76.8.31.33,1-.06,1-.43.12-.77-.86-.53-1.24-.28s-.41.91.23.91c.47,0,1.33-.4,1.22-1s-1.12-.51-1.54-.35A.94.94,0,0,0,34,23.5a1.32,1.32,0,0,0,1.65.29c.64-.25,1.26-1,.63-1.65a1.68,1.68,0,0,0-1.92-.06c-.47.27.28.25.48.14Z"/><path class="cls-6" d="M33,18.33c.7.44,2.06-1.26,2.32-1.87.42-1-.21-2-.57-2.81-.24-.54-.5-1.07-.77-1.58s-.26-.77-.4-1.16a.32.32,0,0,0-.43-.21s-1-.38-1-.39c.79-.23.48,2.23-.16,2.62-.29.18-1.21.66-1.11,1s-.82.8-.65,1.32A7.6,7.6,0,0,0,33,18.33Z"/><path class="cls-7" d="M28.35,11.39a1.21,1.21,0,0,0,.49.87.78.78,0,0,0,0,.38c.37.73,2,.66,2.67.43s1-1,1.2-1.69c0,0,0-.05,0-.08a.78.78,0,0,0,0-.14.35.35,0,0,0,0-.14,1,1,0,0,0-.06-1,.87.87,0,0,0-.15-.91L32.7,9c.61-.4-.07-.73-.43-.83a3,3,0,0,0-2.18.12A5.61,5.61,0,0,0,28.7,9.59l-.05.05C28.07,10.35,28.06,11,28.35,11.39Z"/><path class="cls-7" d="M30.94,14.22,32.56,13a3.37,3.37,0,0,0,1.09-1.46.67.67,0,0,0,.06-.12c.09-.22.23-.79-.15-.78H33.4c.17-.38.08-.66-.16-.73A.28.28,0,0,0,33,9.62c0-.43-.87-.45-1.11-.94s-1.2.78-.84,1.1-.56,1.06-.67,1.77a.34.34,0,0,0,0,.1,6.26,6.26,0,0,0-.34.55c-.15.29-.59.6-.38.81,0,.08-.35.18-.29.24-.26.37.13,1,.21,1.27C29.69,15.17,30.65,14.44,30.94,14.22Z"/><path class="cls-7" d="M14.47,27.93c.26.14.37.42.15.81a1.72,1.72,0,0,1-.45,1.05,3.18,3.18,0,0,1-.53.51,6.2,6.2,0,0,1-2,1.36,1.24,1.24,0,0,1-.48.09A2.51,2.51,0,0,1,8.62,31s0,0,0,0h0a3.14,3.14,0,0,1-.31-.32l0,0c-.31-.32-.75-.43-.71-.75a1.08,1.08,0,0,1,0-.31A4.15,4.15,0,0,1,7,29.09c-1-.51-.89-1.43-1.71-2.17-.46-.41,1.76-2.37,2.41-1.78L9,26.27a2.09,2.09,0,0,1,.55.49s0,0,0,.07h0a.52.52,0,0,1,.37.1l.54.43a.18.18,0,0,1,.07.15c.78,0,.94-.64,1.45-.15l.65-.15c.08-.05.43.43.52.39s0,.44.06.42a1.31,1.31,0,0,1,.28-.09,1.15,1.15,0,0,1,.17-.06.48.48,0,0,1,.12,0,.7.7,0,0,1,.14,0,.81.81,0,0,1,.22,0h0l.09,0,.07,0Z"/><path class="cls-7" d="M29.3,4.07a.66.66,0,0,1,.33.69,3.88,3.88,0,0,1,.46.52.74.74,0,0,1,.12.31,1.2,1.2,0,0,1,.61.9c0,.28,1,.78.82,1a6.72,6.72,0,0,1-.18.71c0,.42-.95.16-1.22.48,0,0,0,.07,0,.12a2.34,2.34,0,0,1-.12.7,3.77,3.77,0,0,1-.18.57,1.52,1.52,0,0,1-.31.51,2.36,2.36,0,0,1-1.57,1c-.44.05-1-.2-.84-.74a6.63,6.63,0,0,1,.33-1V9.72s0-.05,0-.08c-.41-.14-.66-.51-.56-1.23a1.46,1.46,0,0,1,0-.51,3.81,3.81,0,0,1-1.27-1.55,11.73,11.73,0,0,1-1.42-1,.82.82,0,0,1-.2-.27l-1.19-.48C21.58,4,24,2.2,24.8,2.25a6.18,6.18,0,0,1,2,.49.48.48,0,0,1,.34.41A5.86,5.86,0,0,1,29.3,4.07Z"/><path class="cls-8" d="M29.69,13.1a34.12,34.12,0,0,1,3-3.37c.36-.36-.43-.49-.69-.24a34.14,34.14,0,0,0-3,3.38c-.32.41.46.53.68.23Z"/><path class="cls-8" d="M28,11a10.87,10.87,0,0,1,3.25-4.44c.35-.29-.47-.25-.65-.1a11.52,11.52,0,0,0-3.42,4.65c-.09.23.72.13.82-.11Z"/><path class="cls-8" d="M26.41,8a12.8,12.8,0,0,1,3-3.5c.35-.22-.48-.14-.64,0A13.21,13.21,0,0,0,25.6,8.11c-.06.09.67.06.81-.14Z"/><path class="cls-8" d="M26.12,9.89c.92.6,1.74,1.33,2.64,2s2,1,2.88,1.61c.19.14.9-.19.77-.28-.9-.64-2-1-2.88-1.61s-1.72-1.36-2.64-2c-.19-.13-.89.21-.77.29Z"/><path class="cls-8" d="M26.65,8.38a24.38,24.38,0,0,1,6.18,2.37c.2.11.85-.23.78-.27a24.92,24.92,0,0,0-6.28-2.4c-.18,0-.88.26-.68.3Z"/><path class="cls-8" d="M26.48,6.17a23.79,23.79,0,0,1,4.81.54c.35,0,.86-.45.3-.52a24.94,24.94,0,0,0-5-.54c-.43,0-.66.56-.1.52Z"/><path class="cls-8" d="M9.92,31.25a9.79,9.79,0,0,1,3.33-3c.51-.23.06-.65-.36-.46A10.41,10.41,0,0,0,9.24,31c-.32.41.46.51.68.23Z"/><path class="cls-8" d="M8.13,30.09c.9-1.32,2.53-1.82,3.65-2.92.34-.33-.46-.32-.66-.13-1.16,1.14-2.81,1.66-3.76,3-.21.31.61.24.77,0Z"/><path class="cls-8" d="M12.87,30.28c-1-1.28-2.45-2.06-3.39-3.37-.14-.2-.93.07-.77.3.94,1.32,2.41,2.1,3.39,3.37.15.2.94-.08.77-.3Z"/><path class="cls-8" d="M10.87,31.51c-.26-.55-.81-.92-1.15-1.43A14.57,14.57,0,0,1,8.84,28c-.15-.32-1-.07-.83.22.28.59.4,1.23.72,1.81a4.66,4.66,0,0,0,.5.75c.25.32.65.58.82.95s.95.07.82-.22Z"/><path d="M20.07,2.28c2.56.47,5.31.41,7.74,1.41C29.3,4.3,32.07,7,31.29,8.86c-.3.7,1.76.47,2.06-.24C34,7,31.94,4.23,30.72,3.34c-2.6-1.91-6.38-1.67-9.41-2.23-.7-.13-2.42,1-1.24,1.17Z"/><path d="M3.35,23c1.24,2.92,1.49,9.15,5.57,9.47,3.71.29,6-2.08,7.4-5.24.22-.49-1.77-.29-2,.31-1.19,2.63-4.21,6-6.39,2.11-1.26-2.21-1.5-4.87-2.48-7.2-.26-.61-2.27,0-2.06.55Z"/><path class="cls-9" d="M21.87,22c-.36.61.84,1.28,1.24,1.47s1.44-.32,1-.53-1.27-.7-1-1.13c.13-.22-.43-.2-.51-.19a1,1,0,0,0-.71.38Z"/><path class="cls-9" d="M19.55,23.15c-.3.84.22,1.3.94,1.65.31.15,1.44-.33,1-.54s-.95-.63-.71-1.3c.11-.33-1.1-.18-1.23.19Z"/><path class="cls-9" d="M24.84,15c-.36.1-.45.15-.26.15l.23,0a2.32,2.32,0,0,1,.59.22.84.84,0,0,0,.89-.08c.17-.13.35-.48.07-.63a3.53,3.53,0,0,0-1.74-.43c-.46,0-1.05.31-1,.84s1.27.44,1.25-.1Z"/><path class="cls-9" d="M23.89,12.41c-.64.07-.81.14-.52.2l.27.08a1.3,1.3,0,0,0,.86-.15c.12-.07.41-.24.15-.33-.56-.18-1.68-.25-2,.42-.09.2,1.07.1,1.21-.22Z"/><path class="cls-9" d="M17,22.79a.72.72,0,0,0-.63.94,1.55,1.55,0,0,0,1,.9L17,24.25a1.27,1.27,0,0,0,.72,1.15.79.79,0,0,0,.88-.07c.19-.14.35-.49.07-.64s-.44-.28-.42-.53a.38.38,0,0,0-.27-.37c-.1,0-.56-.3-.45-.48l-.48.36.11,0c.25-.05.58-.3.5-.59s-.48-.32-.73-.26Z"/><path class="cls-9" d="M14.94,25.11a2.41,2.41,0,0,1-1-.57,1.89,1.89,0,0,1-.35-.44,3.39,3.39,0,0,1-.15-.45l-.62.17H13c.21,0,.7-.09.82-.28s-.11-.18-.28-.17c-.44,0-1.32.21-1.22.83s.92,1.15,1.47,1.33a1.26,1.26,0,0,0,.79-.09s.56-.26.38-.32Z"/><circle class="cls-6" cx="14.3" cy="13.92" r="13.3"/><ellipse cx="23.79" cy="14.61" rx="1.96" ry="1.11" transform="translate(5.81 35.96) rotate(-81.47)"/><ellipse cx="17.65" cy="22.31" rx="1.96" ry="1.11" transform="translate(-6.94 8.01) rotate(-21.47)"/><path d="M21.86,4.26C16.16.17,7.94.47,3.86,6.85a12.81,12.81,0,0,0,3,16.73c5.85,4.64,15,3.34,18.44-3.68,2.77-5.63,1-11.73-3.56-15.75-.59-.52,1-1.85,1.71-1.27C37,14.87,19.2,36.25,5.23,25-9,13.52,8.88-7.57,23.31,2.77,24.08,3.33,22.51,4.72,21.86,4.26Z"/><text class="cls-10" transform="translate(3.82 40.32)">Ринат Низамов</text><text class="cls-11" transform="translate(3.82 40.32)">Ринат Низамов</text><path class="cls-1" d="M15,9.88c-.45,2.24-2.41,6.74-1.27,11.35A10.18,10.18,0,0,1,11,18.82c-1,1.58-.47,3.08-1,4.9C8.14,23,8.18,21,7.89,19.9L5.45,23.14a8.36,8.36,0,0,1-3.62-4.93A17.59,17.59,0,0,1,1.36,12,11.3,11.3,0,0,1,2,8.67,11.45,11.45,0,0,1,4.12,5.48a12.72,12.72,0,0,1,4.1-3.42,14.71,14.71,0,0,1,5.72-.95,16.44,16.44,0,0,1,4.65.29,5.53,5.53,0,0,1,3.64,2.71,1.4,1.4,0,0,1,.17.65c-.09,1.43-2.3.69-3.08.46C17.9,4.81,16.93,9,17,10.79a3.39,3.39,0,0,1-1,2.07c-.58.71-1.83,1.75-2.41,2.47"/><path class="cls-9" d="M14,10.05c-.95,3.94-2,7.36-1.27,11.46l2-.64A11.25,11.25,0,0,1,12,18.45c-.31-.41-1.8.14-2,.54-.75,1.71-.67,3-1,4.9l2-.53c-1.63-1-1.71-2.08-2.05-3.73-.12-.55-1.77.07-2,.33L4.52,23.19l1.9-.41C2.22,19.78,1.16,13.19,3,8.5,4.65,4.35,9.35,2,13.5,1.56c0,0,8.22.05,7.7,2.83-.16.87-.74.22-1.13.39-1.08.49-1.74,0-2.69,1s-1,2.7-1.33,4c-.66,2.65-1.59,3.71-3.42,5.64-.46.49,1.51.28,1.87-.11,2.46-2.6,3.05-3.51,3.74-6.82s.88-2,3.22-2.45C26.52,5,20,1,17.72.69,12.14,0,6.89,1.21,3.18,5.54c-4.23,4.94-4.28,14,1.31,18a1.91,1.91,0,0,0,1.9-.42l2.43-3.23-2,.33c.37,1.73.63,2.94,2.18,3.9.39.23,1.89,0,2-.53a20.23,20.23,0,0,1,1-4.9l-2,.53a11.37,11.37,0,0,0,2.76,2.41c.35.24,2.1-.05,2-.63-.71-4,.33-7.43,1.25-11.25.12-.51-1.9-.22-2,.34Z"/><path d="M26.24,11.56c1.24,2.29,5.26,9.81,8.72,7.55,4-2.63-1.34-11.83-3.33-14.34-.51-.65-2.48.11-1.89.86C31.42,7.75,36.31,16,33.37,18.54l1.22-.43c-2.36,0-5.46-5.57-6.45-7.41-.38-.7-2.37,0-1.9.86Z"/><ellipse class="cls-12" cx="24.7" cy="4.24" rx="1.76" ry="2.1" transform="translate(5.99 20.92) rotate(-51.47)"/><ellipse class="cls-12" cx="7.02" cy="26.43" rx="1.76" ry="2.1" transform="translate(-18.03 15.46) rotate(-51.47)"/><path class="cls-9" d="M10.37,16.53a11.48,11.48,0,0,0-.19-1.31,6.18,6.18,0,0,1-.24-1.34c0-1-2-.65-2.07.19a26,26,0,0,0,.45,3c.07.84,2.13.37,2-.55Z"/><path class="cls-9" d="M12.45,13.79A15.71,15.71,0,0,1,14,6.5c.51-1-1.57-1-2-.23A16.6,16.6,0,0,0,10.37,14c0,1.07,2.1.75,2.08-.16Z"/><path class="cls-9" d="M6.32,16.7a5.12,5.12,0,0,1,.6-5.1c.65-1,.93-2.51,1.73-3.41S7.58,6.78,6.92,7.52a5.57,5.57,0,0,0-1,2A27.44,27.44,0,0,1,4.5,12a6,6,0,0,0-.23,5.22c.42,1,2.46.38,2.05-.55Z"/></g></svg>