<svg xmlns="http://www.w3.org/2000/svg" viewBox="0 0 80.75 66.75"><defs><style>.cls-1{fill:#999;}.cls-2{fill:red;}.cls-3{fill:#fff;}.cls-4{font-size:7.28px;fill:none;stroke:#fff;stroke-width:2.13px;font-family:v_SilverAgeLCBB, v;}.cls-5{fill:#4d4d4d;}.cls-6{fill:#475993;}.cls-7{fill:#cc812f;}.cls-8{fill:#539995;}</style></defs><title>personaji_4</title><g id="Слой_1" data-name="Слой 1"><path class="cls-1" d="M40.54,43a4.54,4.54,0,0,0-1.15-2.44,2.49,2.49,0,0,0-.38-.33c-.57-1.47-2.31-3.17-3.89-1.69,0,0,0,0,0,0-.87-.05-1.39,1-1,1.94-.11.09-.81.23-.92.33s-.59-.22-.62,0a5.32,5.32,0,0,0-.36.47,2.49,2.49,0,0,0-.4,0l-1.33-.07c-.18,0-.23-.41-.41-.36-.24-.16-.37-.51-.69-.64s-.06-.21-.44-.42c0,0-.17-.62-.15-.66l-.18.34s-.24.48-.23.44c.17-.51-.25-.93-.88-1a3.25,3.25,0,0,0-1.55.26,5.09,5.09,0,0,0-1.66.79,2.65,2.65,0,0,0-1.35.25c-1.54,0-3.3,1.74-2.66,3.17a7.47,7.47,0,0,0-1.4,1.15l-.28.06c-.58,0-2.34.42-2,1.36,1.57,4,7.79,6.88,11.83,7,4.94.22,8.51-2.72,11.18-6.57a.54.54,0,0,0,.11-.57A3.58,3.58,0,0,0,40.54,43Z"/><path class="cls-2" d="M17.33,32.22c.05-.29-.09-.56-.53-.63a1.77,1.77,0,0,0-1.12-.3,3.55,3.55,0,0,0-.72.09,6.31,6.31,0,0,0-2.32.74,1.13,1.13,0,0,0-.37.32,2.5,2.5,0,0,0-1,2.46v0h0c0,.15,0,.29.06.45v0a1.08,1.08,0,0,0,.53.89.65.65,0,0,0,.24.19l-.07.18c-.22,1.11.28,2.23.35,3.33,0,.62,3,.1,2.9-.77,0-.57-.07-1.13-.11-1.7a2,2,0,0,0,0-.73l0-.06h0a.53.53,0,0,0,.16-.35v-.7a.22.22,0,0,0-.08-.15A3.32,3.32,0,0,0,16,33.34l.07,0,.26-.13.15-.08.25-.16a.71.71,0,0,0,.14-.1l.09-.09.11-.09.13-.18h0s0,0,0-.08l0-.07Z"/><path class="cls-2" d="M45.24,35.16a.69.69,0,0,0-.33-.69,4.18,4.18,0,0,0-.11-.68.8.8,0,0,0-.15-.29,1.3,1.3,0,0,0-.32-1,1.16,1.16,0,0,0-.73-.34,1,1,0,0,0-.19-.22,1.53,1.53,0,0,0-1.08-.37.6.6,0,0,1-.08-.08,3,3,0,0,0-.6-.35c-.17-.08-.36-.14-.53-.21a1.52,1.52,0,0,0-.57-.07,2.17,2.17,0,0,0-1.68.6c-.3.32-.43.89.05,1.12a6,6,0,0,0,1,.38L40,33l.07,0c-.15.41,0,.84.58,1.2a1.18,1.18,0,0,0,.38.32,3.85,3.85,0,0,0,.41,2,11.41,11.41,0,0,0-.08,1.76,1.06,1.06,0,0,0,.09.33c-.12.41-.23.82-.35,1.23-.39,1.4,2.42.61,2.83,0A6.15,6.15,0,0,0,44.74,38a.54.54,0,0,0-.1-.52A6.47,6.47,0,0,0,45.24,35.16Z"/><path class="cls-3" d="M40.33,35.69a6.37,6.37,0,0,0-.65-1.1,5.69,5.69,0,0,0-.17-.72,4.39,4.39,0,0,0-1.86-2.3.64.64,0,0,0,0-.84A7.47,7.47,0,0,0,32.87,28a3.83,3.83,0,0,0-2.07-.53,5.91,5.91,0,0,0-3.78.14,5.64,5.64,0,0,0-3.56.71,4.66,4.66,0,0,0-1.71,1.06l-.07,0a4,4,0,0,0-2.85,2.09c-.92.82-1.55,1.69-1.33,2.43a6.62,6.62,0,0,0-.8,2.1A5.15,5.15,0,0,0,16,39a2.4,2.4,0,0,0,.16,2,7.17,7.17,0,0,0,.13,1.89,3.72,3.72,0,0,0,.25,1.29c.19.48.84.51,1.27.47a2.68,2.68,0,0,0,.65-.15,2.46,2.46,0,0,0,2.39-.6c-.41-.46,0-1.29.45-1.79A1.68,1.68,0,0,1,22,41a1.61,1.61,0,0,1,1-.44,2.57,2.57,0,0,1,1.55-.83,3,3,0,0,1,1.79-.61A1.27,1.27,0,0,1,27.52,39a1.67,1.67,0,0,1,.34.11.37.37,0,0,1,.19.25,5.11,5.11,0,0,0,.8-.71,6,6,0,0,0,.36.72c.9,1.49,2,2,3,1.77a3.87,3.87,0,0,0,1.64.08.52.52,0,0,1,.29-.86,1.63,1.63,0,0,1,.11-.23,1.46,1.46,0,0,1-.05-1.33.59.59,0,0,1,.62-.42,1,1,0,0,1,.77.38.92.92,0,0,1,1.27.43.83.83,0,0,1,.52.12,1.15,1.15,0,0,1,.43.54,1,1,0,0,1,.94.79,1.92,1.92,0,0,1,0,.24.8.8,0,0,1,.39.6.61.61,0,0,1,.34.12c.7-.09,1.4-.47,1.5-1C41.23,39,41.32,37.05,40.33,35.69Z"/><text class="cls-4" transform="translate(19 59.85)">Ройзман</text><path class="cls-3" d="M77.32,8.6v6a3.57,3.57,0,0,1-3.57,3.58l-26.29-.42c-2.36,3.4-12.69,5.94-12.69,5.94a8.75,8.75,0,0,0,2.61-6.15c-2,0-4.46-1-4.46-3v-6A3.58,3.58,0,0,1,36.5,5H73.75A3.57,3.57,0,0,1,77.32,8.6Z"/><path d="M76.68,8.6c0,1.58.58,4.36,0,5.8-1.34,3.3-3.33,3.13-6,3.09l-14.91-.24c-2.39,0-6.18-.85-8.49-.1-.73.23-1.42,1.33-2,1.77a21.83,21.83,0,0,1-5.18,2.47,53.94,53.94,0,0,1-5.46,1.7l.63,1.07A9.94,9.94,0,0,0,38,17.55a.64.64,0,0,0-.63-.63c-6.52-.73-4.63-11.25,1.18-11.25H66.37c2.79,0,9.62-1.34,10.33,3.1.13.81,1.36.47,1.23-.34-.84-5.27-6.82-4-10.76-4H44.3C40.93,4.39,34.15,3,32.56,7.15c-.75,1.94-.66,5.5-.27,7.45A3.22,3.22,0,0,0,33.61,17c-.17-.15,2.77,1.42,2.47,1,1.29,1.67-.63,4-1.76,5.2a.65.65,0,0,0,.62,1.07,50.27,50.27,0,0,0,7-2.3,23,23,0,0,0,3.52-1.73c.4-.26,1.86-1.8,2.12-1.89,1.23-.44,3.46.06,4.75.08l9.26.14c3.9.07,8.29.71,12.16.2C79,18.12,78,12.58,78,8.6A.64.64,0,0,0,76.68,8.6Z"/><path class="cls-5" d="M41.78,43c-1.26-4.72-4.7-6.24-9.22-5.39-.5.1.54,2.44,1.29,2.62-1.82.68-4.62.6-5-2.32a.84.84,0,0,0-1.19-.29C25.2,39.13,17.15,38.78,19.92,44l1-1c-2.49-.34-5.45,0-5.15,3.15.07.77,1.72.37,1.64-.44l2.95-1.48c.53.07,1.36-.37,1-1-1.28-2.44,5.64-3.83,7-4.68l-1.19-.28c1.14,2.45,5.52,5.4,7.61,2.46a2.11,2.11,0,0,0-.79-2.62c-.11.39,5.11,1.71,6.06,5.25.21.78,1.86.35,1.64-.44Z"/><path d="M40.69,40.3c-.35,7-5.71,13.22-13.25,12.45A12.79,12.79,0,0,1,16.23,40c0-7.49,6.72-13.77,14.37-12.11,6.13,1.33,9.79,6.51,10.1,12.58,0,.82,2.1.36,2-.55C41.84,21.81,14,22.41,14.1,40.39c.11,18.33,27.76,17.48,28.66-.29C42.81,39.12,40.73,39.47,40.69,40.3Z"/><ellipse cx="33.61" cy="32.69" rx="1.5" ry="1.96"/><ellipse cx="23.69" cy="32.69" rx="1.5" ry="1.96"/><path d="M22.14,57a1.19,1.19,0,0,1-.4.83,3,3,0,0,1-1.46.74c-.32.08-.48.19-.48.35s0,.24.05.37a2.13,2.13,0,0,1,0,.3.33.33,0,0,1-.06.21.16.16,0,0,1-.19,0,.3.3,0,0,1-.16-.15,1,1,0,0,1-.1-.54c0-.29,0-.59,0-.88v-.46a3.23,3.23,0,0,1,0-.34v-.38a2,2,0,0,0-.19-.43s0-.12,0-.33l0-.07.64-.08a5.62,5.62,0,0,0,.79,0h.73a.76.76,0,0,1,.59.24A1,1,0,0,1,22.14,57Zm-.39-.11a.39.39,0,0,0-.31-.18,5.92,5.92,0,0,0-.76,0,2.62,2.62,0,0,0-.43,0,.58.58,0,0,0-.49.27l0,.07,0,.27a1.71,1.71,0,0,0,0,.26,1.86,1.86,0,0,0,0,.26.15.15,0,0,0,.1.09,1,1,0,0,0,.29.05l.42-.06a2.19,2.19,0,0,0,.66-.22,1.22,1.22,0,0,0,.57-.56A.31.31,0,0,0,21.75,56.93Z"/><path d="M25.16,58.37A1.53,1.53,0,0,1,25,59a2.2,2.2,0,0,1-.38.64.84.84,0,0,1-.65.25,2.39,2.39,0,0,1-.57-.08c-.58-.13-.86-.57-.86-1.31a1.77,1.77,0,0,1,0-.33,1.51,1.51,0,0,1,.41-.85.94.94,0,0,1,.85-.3h.11a2.35,2.35,0,0,1,.53.1A1.31,1.31,0,0,1,25.16,58.37ZM24.67,58a.72.72,0,0,0-.46-.29H24c-.17,0-.24,0-.2,0l-.06,0a1,1,0,0,0-.52.36.82.82,0,0,0-.24.53.54.54,0,0,0,.26.49.92.92,0,0,0,.58.15,1.13,1.13,0,0,0,.61-.24.93.93,0,0,0,.36-.51A.61.61,0,0,0,24.67,58Z"/><path d="M27.65,59.16l.06.35.05.17a.18.18,0,0,1-.05.16.45.45,0,0,1-.24.08s-.08,0-.16-.1a1,1,0,0,1-.1-.48s0,.06-.09.1a4.37,4.37,0,0,1-.59.33.74.74,0,0,1-.68,0,.55.55,0,0,1-.19-.5,2.21,2.21,0,0,1,0-.42l.05-.28v-.21l0-.52s0-.11,0-.24a1.53,1.53,0,0,1,0-.27c0-.11,0-.17,0-.21.24-.19.36.05.36.71v0a2.76,2.76,0,0,0,0,.39v.4a1.07,1.07,0,0,0,0,.5q0,.19.36.06a1.28,1.28,0,0,0,.62-.52,1.13,1.13,0,0,0,.09-.5,1.42,1.42,0,0,0,0-.35,1.79,1.79,0,0,1,0-.27,1.17,1.17,0,0,1,0-.39c0-.1.08-.14.15-.14s.17.07.19.21a7,7,0,0,1,0,.7l0,.64s0,.16,0,.35A1.59,1.59,0,0,0,27.65,59.16Zm-.42-2.76a.18.18,0,0,1,0,.23.86.86,0,0,1-.66.36.71.71,0,0,1-.48-.19c-.16-.15-.18-.28-.07-.4l.1,0a.66.66,0,0,1,.26.11.57.57,0,0,0,.29,0,.8.8,0,0,0,.21-.08l.13-.08C27.12,56.29,27.19,56.31,27.23,56.4Z"/><path d="M28.79,58.41c0-.13,0-.21.07-.22l.26,0c.4,0,.58-.14.56-.35a.35.35,0,0,0-.18-.18l-.24-.08a1,1,0,0,0-.23,0,.74.74,0,0,0-.43.13c-.14.09-.24.1-.3,0a.28.28,0,0,1,0-.27.45.45,0,0,1,.28-.28,1,1,0,0,1,.43-.11,2.11,2.11,0,0,1,.49,0,1,1,0,0,1,.41.17.83.83,0,0,1,.22.24,1,1,0,0,1,.06.31.56.56,0,0,1-.08.32.53.53,0,0,1-.12.15.83.83,0,0,1,.36.44,1,1,0,0,1,.06.35.73.73,0,0,1-.36.68,2.11,2.11,0,0,1-1.13.24,1,1,0,0,1-.34-.09.68.68,0,0,1-.31-.3c-.1-.15-.08-.26.06-.32s.24-.07.31,0a.53.53,0,0,0,.3.14,1.76,1.76,0,0,0,.4,0,1.59,1.59,0,0,0,.47-.15q.15-.11.15-.21a.33.33,0,0,0-.12-.23,1,1,0,0,0-.66-.17C28.93,58.63,28.81,58.55,28.79,58.41Z"/><path d="M30.68,59.87c-.08,0-.1-.14-.08-.27s.08-.3.21-.73.21-.64.24-.77a2.2,2.2,0,0,0,.05-.39,1.6,1.6,0,0,1,.06-.39A.4.4,0,0,1,31.4,57a.3.3,0,0,1,.35,0,1.69,1.69,0,0,1,.25.63c.06.23.11.34.15.34s.1-.07.16-.2a6.77,6.77,0,0,1,.32-.66.28.28,0,0,1,.23-.12.27.27,0,0,1,.28.23c0,.08,0,.2.07.36l.06.36c0,.15.1.39.2.73s.15.57.19.75v0a.22.22,0,0,1-.12.26.22.22,0,0,1-.27,0,1.4,1.4,0,0,1-.2-.53,3.46,3.46,0,0,0-.16-.54c-.12-.39-.22-.54-.29-.45a1.19,1.19,0,0,0-.17.51s0,.19-.06.43a1.57,1.57,0,0,1-.09.43.22.22,0,0,1-.22.17.23.23,0,0,1-.24-.2,2.05,2.05,0,0,1,0-.38,2.2,2.2,0,0,0,0-.38,1.24,1.24,0,0,1-.05-.15.78.78,0,0,0-.05-.18c0-.14-.09-.21-.14-.2s-.19.23-.29.75a2,2,0,0,1-.26.8A.26.26,0,0,1,30.68,59.87Z"/><path d="M36.42,59v.35a2.85,2.85,0,0,1,0,.36c0,.13-.09.2-.18.22l-.23,0-.39,0h-.18a2.68,2.68,0,0,1-1.16-.19.68.68,0,0,1-.35-.65.93.93,0,0,1,.06-.34.81.81,0,0,1,.95-.55,2.91,2.91,0,0,0,.58,0c.27,0,.41-.11.41-.2s0-.17-.18-.25a.59.59,0,0,0-.37-.1,2.52,2.52,0,0,0-.46.07l-.44.08c-.14,0-.21-.05-.21-.19a.75.75,0,0,1,.08-.3.19.19,0,0,1,.18-.12l.54-.11.29,0a.83.83,0,0,1,.39,0,1.22,1.22,0,0,1,.46.3,1,1,0,0,1,.24.69c0,.07,0,.16,0,.28s0,.24,0,.3A2.27,2.27,0,0,0,36.42,59Zm-1.13.34c.46,0,.71-.1.75-.31v-.1c-.06-.14-.2-.21-.43-.21h-.34a1.3,1.3,0,0,0-.75.2.37.37,0,0,0-.15.18s0,.1.14.15a2.38,2.38,0,0,0,.52.09Z"/><path d="M38.6,58.2c0-.08,0-.19,0-.31v-.27a1.67,1.67,0,0,1,0-.39c0-.1.09-.14.16-.14s.17.07.19.21a7,7,0,0,1,0,.7v.78h0a7,7,0,0,0,0,.79.38.38,0,0,1-.06.3c-.13.09-.23.11-.31.06s-.09-.11-.09-.23a3.09,3.09,0,0,1,.08-.46,1.25,1.25,0,0,0,0-.24l0-.36c-.27,0-.48.06-.65.07l-.34,0-.12,0a1.49,1.49,0,0,1,0,.21c0,.09.05.22.08.39l0,.2a.18.18,0,0,1-.05.18.4.4,0,0,1-.24.1s-.09,0-.15-.11a.58.58,0,0,1-.1-.38v-.42a4.93,4.93,0,0,0,0-.55l0-.52a1.5,1.5,0,0,0,0-.24c0-.12,0-.21,0-.27a.34.34,0,0,1,0-.21c.24-.19.37.05.37.71v.31a.29.29,0,0,0,.23.07h.65Z"/><path class="cls-5" d="M31.22,48.32a6,6,0,0,0,4.68-4.74c.17-1-1.92-.69-2.07.18a3.87,3.87,0,0,1-3,3.24c-.39.08-1,.47-.85.93s.83.47,1.21.39Z"/><path class="cls-5" d="M27.24,47.41a1.89,1.89,0,0,1-2.62-.68c-.53-.73-2.5.06-1.88.9a4.1,4.1,0,0,0,5.4.95c1.2-.7.1-1.76-.9-1.17Z"/><path class="cls-5" d="M30.23,46.87a3.18,3.18,0,0,0-1.41-3c-.56-.39-2.46.43-1.64,1a2.48,2.48,0,0,1,1,2.28c-.1.83,2,.46,2.06-.25Z"/><path class="cls-5" d="M27.79,49.53a3.38,3.38,0,0,0,1.95,2.67,1.45,1.45,0,0,0,1.46-.15c.28-.19.61-.75.14-1a2.53,2.53,0,0,1-1.5-2.1c-.05-.48-.88-.44-1.19-.36s-.91.42-.86.91Z"/><path d="M42.69,43.41c1.41-2.63,5.7-7.4,3.56-10.53-1.71-2.5-5-2.89-7.73-2.12-1.23.34-1,1.42.28,1.07,2.44-.7,6,.56,5.92,3.51s-2.67,5.61-3.95,8c-.47.88,1.58.68,1.92.07Z"/><path d="M16.16,42.77c-1.33-2.42-4.08-4.79-4.46-7.63a3.58,3.58,0,0,1,1.7-3.46c1.09-.51,3,0,4,.3.45.11,2.22-.63,1.69-.76-2.76-.7-6.09-.8-8.27,1.32-3.5,3.42,1.54,7.7,3.24,10.78.26.47,2.19-.29,2.05-.55Z"/><path d="M37.38,10a.83.83,0,0,1,.08-.27,2.42,2.42,0,0,0,.08-.25c.05-.18.13-.44.24-.8a7.67,7.67,0,0,0,.31-.8,2.56,2.56,0,0,1,.16-.33.21.21,0,0,1,.33,0,2.24,2.24,0,0,1,.3.66c.2.51.29.75.28.73a3.57,3.57,0,0,1,.14.33,3,3,0,0,0,.14.33,1.11,1.11,0,0,1,.15.35.35.35,0,0,1-.16.16q-.13.07-.18,0l0,0a1.42,1.42,0,0,1-.11-.24A1.59,1.59,0,0,0,39,9.62l-.36-.68,0-.08a.34.34,0,0,0,0-.08.18.18,0,0,0-.15-.11c-.07,0-.16.08-.25.26a2.74,2.74,0,0,0-.24.82,2.14,2.14,0,0,1-.07.37c-.05.13-.17.17-.33.11A.18.18,0,0,1,37.38,10Z"/><path d="M42,7.54c.15,0,.19.1.14.3a4,4,0,0,1-.14.42,3.53,3.53,0,0,0-.27.6l-.06.22a5.78,5.78,0,0,0-.19.61c-.09.31-.16.52-.19.62-.08.29-.13.48-.15.58l-.09.3a.18.18,0,0,1-.18.12.31.31,0,0,1-.2-.07.26.26,0,0,1-.09-.18.61.61,0,0,1,.08-.25,1.08,1.08,0,0,0,.13-.31c.07-.28.11-.48.13-.6a.71.71,0,0,0,0-.21,1.43,1.43,0,0,0-.32-.63,1.38,1.38,0,0,1-.17-.29l-.17-.28a2.74,2.74,0,0,1-.35-.57A.39.39,0,0,1,40,7.6c.06-.13.13-.17.2-.13s.21.22.41.57l.11.21a.83.83,0,0,0,.41.47c.18.12.35-.06.51-.52a1.32,1.32,0,0,1,.13-.58A.34.34,0,0,1,42,7.54Z"/><path d="M43.91,8.66c0-.08,0-.17,0-.29s0-.13,0-.25a1.07,1.07,0,0,1,0-.37c0-.09.08-.13.14-.13s.16.06.18.2a6,6,0,0,1,0,.65v.74h0a6.25,6.25,0,0,0,0,.75.38.38,0,0,1-.06.28c-.12.09-.21.1-.29,0a.23.23,0,0,1-.08-.21,1.84,1.84,0,0,1,.06-.36.81.81,0,0,0,0-.16c0-.14,0-.21-.12-.22a1.19,1.19,0,0,0-.31,0,1.21,1.21,0,0,1-.38,0,.88.88,0,0,1-.38-.2.61.61,0,0,1-.21-.47V8.35s0-.1,0-.23a1.29,1.29,0,0,1,0-.25c0-.1,0-.16,0-.19.23-.18.35,0,.35.66a.53.53,0,0,0,.11.34.55.55,0,0,0,.38.13,1.09,1.09,0,0,0,.37,0A.21.21,0,0,0,43.91,8.66Z"/><path d="M44.92,8.25a2.67,2.67,0,0,1,0-.37.22.22,0,0,1,.24-.2.18.18,0,0,1,.21.14.62.62,0,0,1,0,.36,2.18,2.18,0,0,0,0,.42c0,.09,0,.19,0,.3s0,.24,0,.38a.29.29,0,0,0,.24.32.6.6,0,0,0,.43,0,1.05,1.05,0,0,0,.27-.72,2.4,2.4,0,0,0,0-.39V8.29a.92.92,0,0,0,0-.19.37.37,0,0,1,.06-.28c.11-.09.2-.12.28-.07a.24.24,0,0,1,.09.22,1.51,1.51,0,0,1-.06.43,5.73,5.73,0,0,1,0,.6c0,.3.08.49.21.56a.62.62,0,0,0,.43,0A.48.48,0,0,0,47.61,9l0-.25a1.29,1.29,0,0,1,0-.32c0-.08,0-.2-.08-.37l0-.18a.18.18,0,0,1,0-.17.35.35,0,0,1,.22-.1s.09,0,.15.1a.56.56,0,0,1,.11.35l0,.84a5,5,0,0,0,.09.85,1,1,0,0,1,0,.39.25.25,0,0,1-.11.14.29.29,0,0,1-.23,0l0,0-.07-.09a.36.36,0,0,0-.1-.11l-.35.09a.85.85,0,0,1-.25.05.48.48,0,0,1-.38-.14h0a.27.27,0,0,0-.15,0,.61.61,0,0,0-.3.09,1.19,1.19,0,0,1-.44.1A.54.54,0,0,1,45,9.82a2.71,2.71,0,0,1-.1-.36.8.8,0,0,1,0-.22c0-.17,0-.27,0-.31Z"/><path d="M50.41,9.56l.06.33,0,.16a.13.13,0,0,1,0,.15.37.37,0,0,1-.22.07.31.31,0,0,1-.15-.09c-.05,0-.08-.19-.1-.45,0,0,0,0-.09.1a3.29,3.29,0,0,1-.55.3.7.7,0,0,1-.63,0c-.12-.07-.18-.23-.18-.47a1.92,1.92,0,0,1,0-.39l0-.26s0-.11,0-.2l0-.49s0-.1,0-.23a1.29,1.29,0,0,1,0-.25c0-.1,0-.16,0-.19.23-.18.34,0,.34.66v.05c0,.08,0,.2,0,.37v.37a1.09,1.09,0,0,0,0,.47c0,.12.14.14.34.06a1.22,1.22,0,0,0,.58-.49A1.14,1.14,0,0,0,50,8.7a1.27,1.27,0,0,0,0-.33V8.12a1.52,1.52,0,0,1,0-.37c0-.09.08-.13.14-.13s.17.06.18.2a6,6,0,0,1,0,.65l0,.61s0,.14,0,.32S50.41,9.53,50.41,9.56Z"/><path d="M52.79,9.56l.05.33,0,.16c0,.07,0,.12,0,.15a.35.35,0,0,1-.22.07.44.44,0,0,1-.15-.09,1,1,0,0,1-.09-.45l-.09.1a3.73,3.73,0,0,1-.55.3.72.72,0,0,1-.64,0c-.12-.07-.18-.23-.18-.47a2.1,2.1,0,0,1,0-.39L51,9v-.2l0-.49a1.41,1.41,0,0,0,0-.23c0-.11,0-.19,0-.25a.27.27,0,0,1,0-.19c.23-.18.34,0,.34.66v.05c0,.08,0,.2,0,.37v.37a1.29,1.29,0,0,0,0,.47c0,.12.14.14.35.06a1.27,1.27,0,0,0,.58-.49,1.14,1.14,0,0,0,.08-.47,1.27,1.27,0,0,0,0-.33,1.49,1.49,0,0,1,0-.25,1.07,1.07,0,0,1,0-.37c0-.09.07-.13.14-.13s.16.06.18.2a6,6,0,0,1,0,.65l0,.61s0,.14,0,.32A1.32,1.32,0,0,0,52.79,9.56ZM52.4,7a.17.17,0,0,1,0,.22.79.79,0,0,1-.61.34.68.68,0,0,1-.45-.19c-.15-.13-.17-.26-.06-.37l.08,0a.68.68,0,0,1,.25.1.42.42,0,0,0,.27,0,1.21,1.21,0,0,0,.2-.07l.12-.09Q52.34,6.85,52.4,7Z"/><path d="M56,8.2a1.32,1.32,0,0,1,1.6.26.93.93,0,0,1,.18.43,1.92,1.92,0,0,1,0,.63.83.83,0,0,1-.15.35,1.17,1.17,0,0,1-.35.3,1.43,1.43,0,0,1-.43.12,1.72,1.72,0,0,1-1-.19.87.87,0,0,1-.37-.45,1.81,1.81,0,0,1-.09-.58,2.17,2.17,0,0,1,0-.61,2.22,2.22,0,0,1,.12-.55,1.27,1.27,0,0,1,.27-.46.77.77,0,0,1,.38-.25,1.89,1.89,0,0,1,.32-.07l.33,0A1.07,1.07,0,0,0,57.17,7,.44.44,0,0,1,57.38,7a.2.2,0,0,1,.17.1.7.7,0,0,1,.06.23c0,.11-.06.19-.19.23a.92.92,0,0,1-.43.09l-.45,0a.83.83,0,0,0-.33.12,1.16,1.16,0,0,0-.16.2A.92.92,0,0,0,56,8.2Zm1.17.54a.64.64,0,0,0-.43-.19,1,1,0,0,0-.35,0,.7.7,0,0,0-.49.27c-.06.35,0,.58.1.69a.81.81,0,0,0,.66.2.67.67,0,0,0,.23,0,.48.48,0,0,0,.4-.3,1.08,1.08,0,0,0,0-.35A.59.59,0,0,0,57.17,8.74Z"/><path d="M59.09,8.63a4.2,4.2,0,0,1,.49,0,1.38,1.38,0,0,1,.77.25.34.34,0,0,1,.17.3,1.62,1.62,0,0,1,0,.21.76.76,0,0,1,0,.18c0,.21-.24.39-.64.56a1.17,1.17,0,0,1-.53.11,1.1,1.1,0,0,1-.55-.14c-.16,0-.23-.13-.2-.32a.69.69,0,0,1,0-.24.47.47,0,0,1,0-.19c0-.19,0-.38,0-.56a.86.86,0,0,0,0-.17c0-.07,0-.28-.08-.65a.54.54,0,0,1,.06-.25.18.18,0,0,1,.35.08v.33c0,.1,0,.23,0,.39S59,8.63,59.09,8.63Zm-.05,1a1,1,0,0,0,.52.08c.44,0,.62-.14.55-.28s-.08-.18-.24-.25a1.28,1.28,0,0,0-.34-.07h-.45a.24.24,0,0,0-.11.06.14.14,0,0,0,0,.13v.11C58.92,9.52,59,9.59,59,9.61Zm2.18.15.05.16a.15.15,0,0,1-.05.15.37.37,0,0,1-.22.07.31.31,0,0,1-.15-.09.41.41,0,0,1-.1-.3l0-.73c0-.43,0-.73,0-.88a1.55,1.55,0,0,1,0-.33.24.24,0,0,1,.15-.1.16.16,0,0,1,.2,0l0,0s0,.12,0,.34a2.25,2.25,0,0,0,0,.55,5.77,5.77,0,0,1,0,.74Z"/><path d="M63.66,8.78a.71.71,0,0,1,.33.39.86.86,0,0,1,.05.32.64.64,0,0,1-.32.62,2.66,2.66,0,0,1-1,.16h-.16l-.37,0H62a.28.28,0,0,1-.19-.24,1.1,1.1,0,0,1,0-.24V9.42c0-.13,0-.25,0-.35s0-.14,0-.29,0-.34,0-.4a3.31,3.31,0,0,1,0-.4A.33.33,0,0,1,62,7.77a.65.65,0,0,1,.36-.12,2.72,2.72,0,0,1,.81,0,.94.94,0,0,1,.41.16.73.73,0,0,1,.21.22.8.8,0,0,1,.07.31.68.68,0,0,1-.07.29A.36.36,0,0,1,63.66,8.78Zm-.65,1a1.88,1.88,0,0,0,.49-.08c.09-.08.13-.14.13-.19a.4.4,0,0,0-.15-.18,1.12,1.12,0,0,0-.7-.19h-.24c-.22,0-.35.08-.41.21v.1c0,.22.25.33.64.33Zm.24-1.58L63,8.12a1.09,1.09,0,0,0-.28,0c-.26,0-.42,0-.47.1a.4.4,0,0,0,0,.29c0,.09.12.14.38.15a1.23,1.23,0,0,0,.29,0c.4-.07.57-.17.5-.31A.29.29,0,0,0,63.25,8.19Z"/><path d="M64.56,8.25a2,2,0,0,1,0-.37.22.22,0,0,1,.24-.2.17.17,0,0,1,.21.14.62.62,0,0,1,0,.36,1.38,1.38,0,0,0,0,.42c0,.09,0,.19,0,.3s0,.24,0,.38a.29.29,0,0,0,.25.32.62.62,0,0,0,.43,0,1.1,1.1,0,0,0,.26-.72,2.3,2.3,0,0,0,0-.39.72.72,0,0,1,0-.17,1,1,0,0,0,0-.19A.3.3,0,0,1,66,7.82c.1-.09.2-.12.28-.07a.24.24,0,0,1,.09.22,2.33,2.33,0,0,1-.07.43,3.83,3.83,0,0,1,0,.6c0,.3.07.49.2.56a.62.62,0,0,0,.43,0A.47.47,0,0,0,67.24,9l0-.25a1.29,1.29,0,0,1,0-.32c0-.08,0-.2-.07-.37l-.06-.18a.18.18,0,0,1,0-.17.38.38,0,0,1,.22-.1.19.19,0,0,1,.15.1.51.51,0,0,1,.11.35l0,.84a4.75,4.75,0,0,0,.1.85,1.11,1.11,0,0,1,0,.39.21.21,0,0,1-.11.14.3.3,0,0,1-.23,0l0,0-.07-.09c0-.07-.08-.11-.1-.11l-.34.09a.91.91,0,0,1-.26.05A.49.49,0,0,1,66.2,10h0A.3.3,0,0,0,66,10a.64.64,0,0,0-.3.09,1.18,1.18,0,0,1-.43.1.62.62,0,0,1-.46-.1.6.6,0,0,1-.19-.28,2.71,2.71,0,0,1-.1-.36.8.8,0,0,1,0-.22c0-.17,0-.27,0-.31Z"/><path d="M70,9.56l.06.33.05.16a.15.15,0,0,1-.05.15.37.37,0,0,1-.22.07.31.31,0,0,1-.15-.09.87.87,0,0,1-.09-.45l-.09.1a3.82,3.82,0,0,1-.56.3.7.7,0,0,1-.63,0c-.12-.07-.18-.23-.18-.47a1.92,1.92,0,0,1,0-.39l0-.26a1.09,1.09,0,0,0,0-.2l0-.49s0-.1,0-.23,0-.19,0-.25,0-.16,0-.19c.22-.18.34,0,.34.66v.05c0,.08,0,.2,0,.37v.37a1.29,1.29,0,0,0,0,.47c0,.12.14.14.34.06a1.18,1.18,0,0,0,.58-.49,1.15,1.15,0,0,0,.09-.47,1.31,1.31,0,0,0,0-.33V8.12a1.52,1.52,0,0,1,0-.37c0-.09.08-.13.14-.13s.17.06.18.2a5.79,5.79,0,0,1,0,.65l0,.61s0,.14,0,.32S70,9.53,70,9.56Z"/><path d="M72.42,9.56l.06.33,0,.16a.13.13,0,0,1,0,.15.37.37,0,0,1-.22.07.31.31,0,0,1-.15-.09S72,10,72,9.73c0,0,0,0-.09.1a3.29,3.29,0,0,1-.55.3.72.72,0,0,1-.64,0,.53.53,0,0,1-.17-.47,1.39,1.39,0,0,1,0-.39l0-.26s0-.11,0-.2l0-.49s0-.1,0-.23,0-.19,0-.25a.27.27,0,0,1,0-.19c.23-.18.34,0,.34.66v.05c0,.08,0,.2,0,.37v.37a1,1,0,0,0,0,.47c0,.12.13.14.34.06a1.22,1.22,0,0,0,.58-.49A1.14,1.14,0,0,0,72,8.7a1.27,1.27,0,0,0,0-.33s0-.13,0-.25a1.07,1.07,0,0,1,0-.37c0-.09.08-.13.14-.13s.16.06.18.2a6,6,0,0,1,0,.65l0,.61s0,.14,0,.32S72.42,9.53,72.42,9.56ZM72,7a.18.18,0,0,1,0,.22.8.8,0,0,1-.62.34A.69.69,0,0,1,71,7.34c-.15-.13-.17-.26-.06-.37a.16.16,0,0,1,.09,0,.72.72,0,0,1,.24.1.45.45,0,0,0,.28,0L71.7,7l.13-.09A.14.14,0,0,1,72,7Z"/><path d="M38.14,13.72c-.13,0-.17.11-.14.22a.91.91,0,0,0,.36.31,1.14,1.14,0,0,0,.33.05,1.35,1.35,0,0,0,.55-.11,1.56,1.56,0,0,1,.34-.14c.07,0,.11.08.11.23a.56.56,0,0,1-.37.47,1.59,1.59,0,0,1-.66.14.84.84,0,0,1-.26,0,1.24,1.24,0,0,1-.89-1.19,1.94,1.94,0,0,1,.13-.88,1,1,0,0,1,.53-.57,1.25,1.25,0,0,1,.49-.12,1.41,1.41,0,0,1,.87.27l.13.11a.88.88,0,0,1,.27.71.61.61,0,0,1-.08.32l-.75.12c-.26,0-.47.06-.64.07Zm1.06-.53c.15,0,.22-.11.19-.21s0,0,0-.07a.23.23,0,0,1-.08-.07l-.06-.07s-.08,0-.34-.1A.83.83,0,0,0,38,13c-.07.08-.08.16,0,.22a.23.23,0,0,0,.22.08h.62Z"/><path d="M42.71,14.63s0,.1-.12.17-.22,0-.48-.28l-.22-.25L41.68,14a2.77,2.77,0,0,0-.49-.43.18.18,0,0,0-.21,0l-.06,0a.52.52,0,0,0-.06.21V14l0,.22,0,.25a.26.26,0,0,1,0,.22.41.41,0,0,1-.22.11s-.08,0-.13-.13a.93.93,0,0,1-.09-.47l0-1.07a7.72,7.72,0,0,1,0-.9.27.27,0,0,1,.14-.16.13.13,0,0,1,.18.06l0,.06a2.3,2.3,0,0,1,0,.45c0,.11,0,.17,0,.21s.1.2.25.2a.42.42,0,0,0,.21-.06,2.34,2.34,0,0,0,.53-.55.89.89,0,0,1,.5-.39c.12,0,.18,0,.17.13a1.43,1.43,0,0,1-.08.26,2,2,0,0,1-.32.41,1.27,1.27,0,0,1-.13.19,1.15,1.15,0,0,0-.14.2,1.85,1.85,0,0,0,.4.64c.05.06.12.16.22.31a3.65,3.65,0,0,0,.21.31A.39.39,0,0,1,42.71,14.63Z"/><path d="M45.46,14v.33a2.57,2.57,0,0,1,0,.34c0,.12-.08.19-.16.2l-.22,0-.37,0h-.16a2.67,2.67,0,0,1-1.1-.17.64.64,0,0,1-.32-.61.88.88,0,0,1,.05-.33.76.76,0,0,1,.89-.51,2.07,2.07,0,0,0,.55,0c.26,0,.38-.1.38-.19s0-.16-.17-.23a.67.67,0,0,0-.35-.1l-.42.07-.42.08c-.13,0-.19,0-.19-.18a.61.61,0,0,1,.07-.28.2.2,0,0,1,.17-.11l.51-.11.27,0a.69.69,0,0,1,.36,0,1.18,1.18,0,0,1,.43.28.92.92,0,0,1,.23.65c0,.07,0,.15,0,.26s0,.23,0,.28S45.45,13.84,45.46,14Zm-1.07.32c.43,0,.67-.09.7-.29v-.1c-.06-.13-.19-.19-.41-.19h-.31a1.24,1.24,0,0,0-.71.19c-.09.07-.13.12-.14.16s0,.1.13.15a2.48,2.48,0,0,0,.49.08Z"/><path d="M49.13,14.2a2.57,2.57,0,0,1,0,.36.23.23,0,0,1-.25.2.18.18,0,0,1-.2-.16.56.56,0,0,1,0-.36,1.58,1.58,0,0,0,0-.41c0-.09,0-.19,0-.3s0-.21,0-.3a.29.29,0,0,0-.24-.32A.61.61,0,0,0,48,13c-.15.08-.24.28-.28.61a3.79,3.79,0,0,0,0,.38v.17a1,1,0,0,0,0,.19c0,.14,0,.23-.07.28s-.2.11-.28.06-.09-.1-.09-.21a2.6,2.6,0,0,1,.08-.44,4.58,4.58,0,0,1,0-.59c0-.33-.06-.52-.19-.6a.64.64,0,0,0-.43,0c-.2.08-.29.26-.29.55l0,.25a1.2,1.2,0,0,1,0,.32c0,.08,0,.21.07.37l0,.19a.2.2,0,0,1,0,.17.4.4,0,0,1-.22.09.23.23,0,0,1-.15-.11.54.54,0,0,1-.09-.35l0-.84c0-.35,0-.62,0-.8a1.06,1.06,0,0,1,0-.38.29.29,0,0,1,.12-.13.17.17,0,0,1,.17,0l0,0,.06.09a.13.13,0,0,0,.07,0l.34-.09a1.51,1.51,0,0,1,.26,0,.46.46,0,0,1,.37.18h0a.35.35,0,0,0,.16.06.94.94,0,0,0,.39-.07l.41-.1a.41.41,0,0,1,.38.09.68.68,0,0,1,.19.34c0,.19.08.32.09.37a2,2,0,0,1,0,.23c0,.11,0,.18,0,.22Z"/><path d="M50.36,13.72c-.13,0-.17.11-.14.22a.91.91,0,0,0,.36.31,1.14,1.14,0,0,0,.33.05,1.35,1.35,0,0,0,.55-.11,1.56,1.56,0,0,1,.34-.14c.07,0,.11.08.11.23a.56.56,0,0,1-.37.47,1.59,1.59,0,0,1-.66.14.84.84,0,0,1-.26,0,1.24,1.24,0,0,1-.89-1.19,1.94,1.94,0,0,1,.13-.88,1,1,0,0,1,.53-.57,1.25,1.25,0,0,1,.49-.12,1.41,1.41,0,0,1,.87.27l.13.11a.88.88,0,0,1,.27.71.61.61,0,0,1-.08.32l-.75.12c-.26,0-.47.06-.64.07Zm1.06-.53c.15,0,.21-.11.19-.21s0,0,0-.07a.23.23,0,0,1-.08-.07l-.06-.07s-.08,0-.34-.1a.83.83,0,0,0-.84.28c-.07.08-.08.16,0,.22a.23.23,0,0,0,.22.08h.62Z"/><path d="M55,13.43a1.25,1.25,0,0,1-.12.54,1.21,1.21,0,0,1-1,.74.69.69,0,0,1-.35,0q-.23-.08-.3,0a.32.32,0,0,0-.1.14c0,.1,0,.26,0,.47a4.23,4.23,0,0,1,0,.54A.28.28,0,0,1,53,16c-.09.05-.15,0-.19-.05l0-.07s0-.19,0-.55a2.36,2.36,0,0,0,0-.38v-.22c0-.05,0-.25,0-.61a3.44,3.44,0,0,0,0-.61c0-.07,0-.16,0-.29l0-.29-.05-.27a.37.37,0,0,1,.05-.25.35.35,0,0,1,.22-.13h0a1.36,1.36,0,0,1,.6-.13,1.91,1.91,0,0,1,1,.25A1.21,1.21,0,0,1,55,13.43ZM54.35,13a.91.91,0,0,0-.63-.23.59.59,0,0,0-.23,0,.54.54,0,0,0-.33.42,1.34,1.34,0,0,0,0,.61l0,0c.05.15.19.22.43.22a1.22,1.22,0,0,0,.32,0,.71.71,0,0,0,.58-.49A.5.5,0,0,0,54.35,13Z"/><path d="M57.36,14.11l.06.33,0,.16a.13.13,0,0,1,0,.15.37.37,0,0,1-.22.07.31.31,0,0,1-.15-.09s-.08-.19-.1-.45c0,0,0,.05-.09.1a3.29,3.29,0,0,1-.55.3c-.29.11-.5.13-.64,0a.53.53,0,0,1-.17-.47,1.92,1.92,0,0,1,0-.39l0-.26c0-.05,0-.11,0-.2l0-.48s0-.11,0-.24a1.49,1.49,0,0,1,0-.25.29.29,0,0,1,0-.19c.23-.18.34,0,.34.66v0c0,.08,0,.2,0,.37v.37a1,1,0,0,0,0,.47c0,.12.13.14.34.06a1.22,1.22,0,0,0,.58-.49,1.14,1.14,0,0,0,.08-.47,1.27,1.27,0,0,0,0-.33s0-.13,0-.25a1.39,1.39,0,0,1,0-.37c0-.09.08-.13.14-.13s.17.06.18.2a6,6,0,0,1,0,.65l0,.61s0,.14,0,.32S57.36,14.08,57.36,14.11Z"/><path d="M59.33,13.21c0-.07,0-.17,0-.29s0-.13,0-.25a1.39,1.39,0,0,1,0-.37c0-.09.08-.13.14-.13s.17.06.18.2a6,6,0,0,1,0,.65v.74h0a6.2,6.2,0,0,0,0,.74.38.38,0,0,1-.06.28.24.24,0,0,1-.29.05.23.23,0,0,1-.08-.21,2.54,2.54,0,0,1,.08-.43s0-.12,0-.23l0-.33-.61.06-.32,0-.11,0a1.11,1.11,0,0,1,0,.19c0,.08,0,.21.07.37l0,.19a.17.17,0,0,1-.05.17.37.37,0,0,1-.22.09s-.08,0-.14-.11A.54.54,0,0,1,58,14.3v-.39a3,3,0,0,0,0-.52l0-.48s0-.11,0-.24,0-.19,0-.25,0-.16,0-.19c.22-.18.34,0,.34.66v.3a.25.25,0,0,0,.22.06h.61A.6.6,0,0,0,59.33,13.21Z"/><path d="M60.86,12.76A1.38,1.38,0,0,1,62,12.69a1.08,1.08,0,0,1,.46.32,1.06,1.06,0,0,1,.19.43,1.92,1.92,0,0,1,0,.63.83.83,0,0,1-.15.35,1.11,1.11,0,0,1-.36.3,1.28,1.28,0,0,1-.43.12,1.7,1.7,0,0,1-1-.19.83.83,0,0,1-.37-.45,1.81,1.81,0,0,1-.09-.58,2.7,2.7,0,0,1,0-.61,3,3,0,0,1,.13-.55A1.27,1.27,0,0,1,60.7,12a.84.84,0,0,1,.38-.25l.32-.07.32,0a.83.83,0,0,0,.32-.08.6.6,0,0,1,.2-.07.17.17,0,0,1,.17.11.53.53,0,0,1,.07.22.23.23,0,0,1-.19.23.81.81,0,0,1-.43.09l-.45,0a1,1,0,0,0-.33.12.83.83,0,0,0-.16.2A1.58,1.58,0,0,0,60.86,12.76Zm1.18.53a.64.64,0,0,0-.43-.19,1,1,0,0,0-.35,0,.67.67,0,0,0-.49.27q-.09.52.09.69a.85.85,0,0,0,.67.2.71.71,0,0,0,.23,0,.45.45,0,0,0,.39-.3.88.88,0,0,0,0-.35A.68.68,0,0,0,62,13.29Z"/><path d="M65.29,12.09q.22,0,.15.3a2.8,2.8,0,0,1-.15.42,3.18,3.18,0,0,0-.26.6l-.06.22c-.06.15-.12.35-.2.61l-.18.62c-.08.29-.13.48-.15.58s-.06.2-.1.3a.17.17,0,0,1-.17.12.31.31,0,0,1-.2-.07.26.26,0,0,1-.09-.17.5.5,0,0,1,.08-.26,1.12,1.12,0,0,0,.13-.3,5,5,0,0,0,.12-.6.79.79,0,0,0,0-.22,1.28,1.28,0,0,0-.32-.63c0-.06-.1-.16-.17-.29L63.56,13a2.74,2.74,0,0,1-.35-.57.39.39,0,0,1,.06-.32c.06-.13.13-.17.2-.13a1.8,1.8,0,0,1,.4.57l.12.21a.83.83,0,0,0,.41.47c.18.12.35-.06.5-.51a1.76,1.76,0,0,1,.13-.59A.4.4,0,0,1,65.29,12.09Z"/><path d="M68.09,13.43A1.25,1.25,0,0,1,68,14a1.23,1.23,0,0,1-1,.74.69.69,0,0,1-.35,0q-.23-.08-.3,0a.32.32,0,0,0-.1.14c0,.1,0,.26,0,.47a2.12,2.12,0,0,1,0,.54.23.23,0,0,1-.15.17.11.11,0,0,1-.18-.05l-.05-.07s0-.19,0-.55a2.36,2.36,0,0,0,0-.38v-.22c0-.05,0-.25,0-.61a4.77,4.77,0,0,0,0-.61c0-.07,0-.16,0-.29l0-.29,0-.27a.33.33,0,0,1,0-.25.35.35,0,0,1,.22-.13h0a1.4,1.4,0,0,1,.61-.13,1.91,1.91,0,0,1,1,.25A1.23,1.23,0,0,1,68.09,13.43ZM67.48,13a.91.91,0,0,0-.63-.23.56.56,0,0,0-.23,0,.58.58,0,0,0-.34.42,1.37,1.37,0,0,0,0,.61l0,0c.05.15.19.22.43.22a1.22,1.22,0,0,0,.32,0,.71.71,0,0,0,.58-.49A.5.5,0,0,0,67.48,13Z"/><path d="M70.19,12.41c-.06.15-.12.22-.19.23h-.23l-.24,0c-.32,0-.47.16-.45.34v.2a3.17,3.17,0,0,1,0,1l0,.32a.19.19,0,0,1-.13.18.19.19,0,0,1-.22-.1.54.54,0,0,1-.06-.25,3.59,3.59,0,0,0,0-.47c0-.25,0-.48,0-.67s0-.21,0-.36v-.07a.86.86,0,0,0,0-.13.19.19,0,0,0,0-.07.48.48,0,0,1,0-.32l.15-.08a1,1,0,0,1,.25,0l.33,0a1.8,1.8,0,0,1,.76,0S70.25,12.3,70.19,12.41Z"/><path d="M72.81,14v.33a2,2,0,0,1,0,.34c0,.12-.07.19-.16.2l-.22,0-.37,0h-.16a2.59,2.59,0,0,1-1.09-.17.64.64,0,0,1-.33-.61,1.14,1.14,0,0,1,0-.33.77.77,0,0,1,.9-.51,2,2,0,0,0,.54,0c.26,0,.39-.1.39-.19s0-.16-.18-.23a.63.63,0,0,0-.34-.1l-.43.07-.41.08c-.13,0-.2,0-.2-.18a.61.61,0,0,1,.07-.28.21.21,0,0,1,.18-.11l.5-.11.27,0a.69.69,0,0,1,.36,0,1.22,1.22,0,0,1,.44.28,1,1,0,0,1,.22.65c0,.07,0,.15,0,.26s0,.23,0,.28S72.8,13.84,72.81,14Zm-1.06.32c.43,0,.66-.09.7-.29v-.1c-.06-.13-.2-.19-.42-.19h-.31a1.21,1.21,0,0,0-.7.19c-.09.07-.14.12-.15.16s0,.1.13.15a2.48,2.48,0,0,0,.49.08Z"/><path class="cls-6" d="M12.93,48c-.06-.64-.81-1.16-1.33-1.48a6.09,6.09,0,0,0-1-.47,1.59,1.59,0,0,0-1.06-.34c-.24,0-.49-.1-.74-.13-.55-.07-1.93.44-2,1.13-.5.36-.74.87-.13,1.41a5.94,5.94,0,0,0,3.68,1.46l.39,0a2,2,0,0,0,2.12-1A.73.73,0,0,0,12.93,48Z"/><path class="cls-6" d="M12,54.13l-.12,0a.51.51,0,0,0-.18-.09l-.68-.2a5.17,5.17,0,0,0-.51-.18,4.83,4.83,0,0,0-1.77-.46,2.4,2.4,0,0,0-1.87.19c-.45.27-1,.9-.77,1.42a2.16,2.16,0,0,0,1.2,1.15,5.31,5.31,0,0,0,1.47.44,4,4,0,0,0,2.72,0l.24-.15a1.7,1.7,0,0,0,.83-.93A.87.87,0,0,0,12,54.13Z"/><path class="cls-7" d="M51.19,49a2.11,2.11,0,0,0-.51-1c-.08-.24-.16-.47-.23-.71-.17-.55-.8-.71-1.44-.62l-.14-.36c-.49-1.22-3.17-.54-2.9.78a8,8,0,0,0,1.37,3.1,1,1,0,0,0,.33.28,2.47,2.47,0,0,0,.87.72,2.13,2.13,0,0,0,2.35-.51A1.92,1.92,0,0,0,51.19,49Z"/><path class="cls-7" d="M55.91,46.48c-.09,0-.15-.18-.19-.37.17-.13.27-.27.25-.42a6.49,6.49,0,0,0-.18-.7.22.22,0,0,0,0-.08A2.69,2.69,0,0,0,54.94,43a2.9,2.9,0,0,1-.06-.41c.16-.14.24-.27.07-.38a2.93,2.93,0,0,0-2.9.68,1.74,1.74,0,0,0,.12,1.37,6.78,6.78,0,0,0,.27,1,6.05,6.05,0,0,0,.3.94,1.6,1.6,0,0,0,.56,1.33c.28.48,3-.14,2.87-.83A.3.3,0,0,0,55.91,46.48Z"/><path class="cls-8" d="M55.87,56.38l.07-.23c.24-.94-2.58-.37-2.89.42-.07.18-.14.37-.22.56a.32.32,0,0,0,0,.24l-.36,1.39-.06.15a.79.79,0,0,0-.43.65,2.19,2.19,0,0,1-.16.95c-.22.58.94.53,1.21.49a2.31,2.31,0,0,0,1.62-.82.84.84,0,0,0,.3-.33,13.87,13.87,0,0,0,1-3.14A.37.37,0,0,0,55.87,56.38Z"/><path class="cls-8" d="M49.08,55.31a.88.88,0,0,0-.45-.8.87.87,0,0,0-.33-.3c-.44-.84-2.32-.63-2.74.38l-.66,1.56a.82.82,0,0,0,0,.81c-.17.7-.34,1.4-.49,2.1s.67,1,1.17,1l.19,0a1.46,1.46,0,0,0,.54.12,1.89,1.89,0,0,0,1.7-.91l.14-.23a.64.64,0,0,0,0-.65A6.11,6.11,0,0,0,49.08,55.31Z"/><path d="M51.09,47.87a7,7,0,0,0-2-2.31.57.57,0,0,0-.34-.08c-1.25-.34-3-.11-3,1.51s1.36,4.19,2.89,4.79c1.24.49,3.07-.05,3.25-1.54A4.06,4.06,0,0,0,51.09,47.87Zm-3-1.54a5.08,5.08,0,0,1,.95,1,3.28,3.28,0,0,0-1.42.85C47.23,47.27,46.87,46,48.06,46.33Zm1.41,4.57a3.57,3.57,0,0,1-1.38-1.71.58.58,0,0,0,.36-.32,1.29,1.29,0,0,1,.43-.65,1.42,1.42,0,0,0,.28-.2l.09,0a.59.59,0,0,0,.34.1c.06.09.11.18.16.27C50,48.94,51.3,51.7,49.47,50.9Z"/><path d="M54,41.2a1.75,1.75,0,0,0-2.41,1.7c-.23.13-.38.32-.31.55a9,9,0,0,0,1.29,2.69,5.24,5.24,0,0,0,1.68,1.93c1.62.77,2.44-1.28,2.39-2.53C56.54,44.05,55.5,41.7,54,41.2Zm-1,1.67c.3-.5.55-.59.74-.27a3.61,3.61,0,0,1,.33.44c.1.14.19.29.28.44a3.1,3.1,0,0,0-1.23.72,7.68,7.68,0,0,1-.35-.88A.51.51,0,0,0,53,42.87Zm2,3.84c-.23.34-.17.18-.45-.18s-.51-.66-.74-1c-.11-.16-.2-.31-.3-.47.23-.07.42-.17.46-.3a1.76,1.76,0,0,1,.4-.67,1.39,1.39,0,0,1,.19-.15c.07.14.15.29.21.43C55.06,45,55.43,46.12,55.05,46.71Z"/><path d="M49.2,58.26a7.4,7.4,0,0,0,.41-3.13.56.56,0,0,0-.18-.31c-.61-1.21-2-2.41-3.27-1.27s-2.29,4-1.68,5.59c.5,1.3,2.19,2.34,3.47,1.43A4.14,4.14,0,0,0,49.2,58.26Zm-.93-3.41a5.06,5.06,0,0,1-.09,1.4,3.42,3.42,0,0,0-1.64-.5C47,54.86,47.72,53.67,48.27,54.85Zm-2.54,4.29a3.75,3.75,0,0,1,.34-2.26.63.63,0,0,0,.51,0,1.3,1.3,0,0,1,.8-.12c.1,0,.25.07.35.07a.22.22,0,0,0,0,.1.57.57,0,0,0,.16.34c0,.11-.06.21-.1.31C47.64,58.21,46.39,61.11,45.73,59.14Z"/><path d="M56.37,55.81a1.83,1.83,0,0,0-3-.67.53.53,0,0,0-.64.14,9.78,9.78,0,0,0-1.18,2.9,5.61,5.61,0,0,0-.31,2.65c.54,1.78,2.7,1,3.63.06C56,59.8,57.06,57.34,56.37,55.81Zm-2,.42c.6-.12.85,0,.73.38a2.62,2.62,0,0,1-.11.57c0,.18-.09.35-.14.52a3.19,3.19,0,0,0-1.43-.44,8.16,8.16,0,0,1,.44-.89A.54.54,0,0,0,54.4,56.23Zm-1.53,4.28c-.42.06-.25,0-.17-.47s.15-.86.25-1.28c0-.19.1-.37.16-.56.21.13.42.21.55.15a1.71,1.71,0,0,1,.8-.16,1,1,0,0,1,.24,0c-.06.15-.11.31-.18.46C54.23,59.29,53.6,60.39,52.87,60.51Z"/><path d="M10.45,52.59a7.44,7.44,0,0,0-3.15-.15.54.54,0,0,0-.3.21c-1.15.71-2.23,2.21-1,3.37s4.16,1.95,5.71,1.2c1.26-.6,2.15-2.38,1.14-3.57A4.18,4.18,0,0,0,10.45,52.59ZM7.12,53.81a5.56,5.56,0,0,1,1.41,0,3.42,3.42,0,0,0-.36,1.69C7.25,55.11,6,54.45,7.12,53.81ZM11.62,56a3.8,3.8,0,0,1-2.29-.15.6.6,0,0,0,0-.51,1.37,1.37,0,0,1-.19-.79,2.23,2.23,0,0,0,0-.36l.1,0A.61.61,0,0,0,9.62,54l.32.07C10.53,54.15,13.53,55.15,11.62,56Z"/><path d="M7.42,45.65A1.83,1.83,0,0,0,7,48.7a.51.51,0,0,0,.19.63,10,10,0,0,0,3,.93,5.62,5.62,0,0,0,2.67.09c1.73-.69.75-2.78-.24-3.63C11.42,45.72,8.88,44.83,7.42,45.65ZM8,47.58c-.17-.59-.06-.85.32-.76a2.93,2.93,0,0,1,.58.06,4.76,4.76,0,0,1,.52.1,3.24,3.24,0,0,0-.32,1.46c-.31-.11-.62-.22-.92-.36A.53.53,0,0,0,8,47.58Zm4.38,1.17c.11.42,0,.25-.45.21s-.86-.08-1.29-.15l-.57-.11a.69.69,0,0,0,.1-.56,1.81,1.81,0,0,1-.23-.78,2.11,2.11,0,0,1,0-.25l.48.15C11.06,47.49,12.21,48,12.38,48.75Z"/></g></svg>