<svg xmlns="http://www.w3.org/2000/svg" viewBox="0 0 61.5 59.17"><defs><style>.cls-1{fill:none;stroke:#fff;stroke-linecap:round;stroke-linejoin:bevel;stroke-width:2.13px;}.cls-2{fill:#e81a1a;}.cls-3{fill:#f15a24;}.cls-4{fill:#0071bc;}.cls-5{fill:#fff;}.cls-6{fill:#5e1616;}.cls-7{fill:#b52132;}.cls-8{fill:#433e63;}.cls-9{fill:#3f3f3f;}.cls-10{fill:#1a1a1a;}</style></defs><title>personaji_3</title><g id="Слой_1" data-name="Слой 1"><path class="cls-1" d="M26.48,54.86a.27.27,0,0,1,0,.32,1.42,1.42,0,0,1-.25.3l-.08.1a5.53,5.53,0,0,1-.75.35,1.47,1.47,0,0,1-.56.1,1.45,1.45,0,0,1-1.32-.71,2.15,2.15,0,0,1-.36-1,2.32,2.32,0,0,1,.26-1.12,1.43,1.43,0,0,1,.76-.75,2.33,2.33,0,0,1,1.09-.2,1.42,1.42,0,0,1,.63.12,2,2,0,0,1,.47.31.21.21,0,0,1,.08.17c0,.16,0,.26-.11.29a.26.26,0,0,1-.3,0L25.9,53a2.16,2.16,0,0,0-.78-.15,1.54,1.54,0,0,0-1.21.56,1.07,1.07,0,0,0-.32.76,1.26,1.26,0,0,0,.05.33,1.17,1.17,0,0,0,1.3.86,2.76,2.76,0,0,0,.81-.14,1.51,1.51,0,0,0,.52-.37C26.37,54.83,26.44,54.83,26.48,54.86Z"/><path class="cls-1" d="M29.42,55.11v.36a2.85,2.85,0,0,1,0,.36c0,.12-.08.2-.18.22L29,56l-.39,0h-.18a2.74,2.74,0,0,1-1.16-.18.7.7,0,0,1-.35-.66,1,1,0,0,1,.06-.34.8.8,0,0,1,.95-.54,2.93,2.93,0,0,0,.58,0c.27,0,.41-.1.41-.2s0-.17-.18-.25a.76.76,0,0,0-.37-.1l-.45.07-.45.08c-.14,0-.21,0-.21-.19a.67.67,0,0,1,.08-.29.21.21,0,0,1,.18-.12l.54-.12.29,0a.72.72,0,0,1,.39,0,1.22,1.22,0,0,1,.46.3.93.93,0,0,1,.24.69c0,.07,0,.16,0,.27s0,.25,0,.3A2.38,2.38,0,0,0,29.42,55.11Zm-1.14.35c.46,0,.71-.11.75-.31V55a.45.45,0,0,0-.44-.2h-.33a1.26,1.26,0,0,0-.75.2.38.38,0,0,0-.16.17s0,.11.14.15a1.61,1.61,0,0,0,.52.09Z"/><path class="cls-1" d="M29.9,55.78a.85.85,0,0,1,.08-.29l.1-.27c.05-.19.14-.47.25-.85a6.83,6.83,0,0,0,.33-.85,2.08,2.08,0,0,1,.17-.36.23.23,0,0,1,.35,0,2.38,2.38,0,0,1,.32.7c.21.55.31.81.29.78A3.77,3.77,0,0,1,32,55c.06.15.1.26.14.34s.18.35.16.38a.32.32,0,0,1-.16.17c-.1.05-.16.07-.19,0l0,0a1.23,1.23,0,0,1-.13-.26c0-.14-.09-.24-.11-.28q-.34-.62-.39-.72l0-.08a.46.46,0,0,0,0-.09.21.21,0,0,0-.16-.12c-.08,0-.17.09-.27.28a3.32,3.32,0,0,0-.26.87,2,2,0,0,1-.06.4c-.07.14-.18.18-.36.12A.2.2,0,0,1,29.9,55.78Z"/><path class="cls-1" d="M33.42,54.27a4.72,4.72,0,0,1,.52,0,1.39,1.39,0,0,1,.82.27.34.34,0,0,1,.19.32c0,.06,0,.13,0,.22a.78.78,0,0,1,0,.19c0,.22-.25.43-.68.61a1.51,1.51,0,0,1-.56.11,1.1,1.1,0,0,1-.59-.15c-.18,0-.25-.13-.21-.34a.72.72,0,0,1,0-.26.88.88,0,0,1,0-.2c0-.2,0-.4,0-.6v-.18l-.09-.69a.48.48,0,0,1,.07-.26.17.17,0,0,1,.22-.11.21.21,0,0,1,.15.19v.35c0,.1,0,.24,0,.41S33.27,54.27,33.42,54.27Zm-.05,1a1,1,0,0,0,.55.08c.47,0,.66-.15.58-.3s-.08-.19-.25-.26a1.17,1.17,0,0,0-.36-.08h-.48a.19.19,0,0,0-.12.07.14.14,0,0,0,0,.13v.12C33.24,55.22,33.28,55.3,33.37,55.32Z"/><path class="cls-1" d="M37.78,55.08c.1,0,.16.09.17.25s-.14.46-.47.61a1.41,1.41,0,0,1-.8.14A1.32,1.32,0,0,1,35.48,55a1.9,1.9,0,0,1,0-.35,1.25,1.25,0,0,1,.67-1.25,1.66,1.66,0,0,1,.72-.18,1.79,1.79,0,0,1,.81.23l.11.07a.24.24,0,0,1,.15.25c0,.17-.07.27-.21.29a1,1,0,0,1-.37-.07,2,2,0,0,0-.33-.09l-.23,0a.9.9,0,0,0-.91.55.46.46,0,0,0,0,.21.77.77,0,0,0,.23.52.73.73,0,0,0,.5.28h.23a1.2,1.2,0,0,0,.57-.13A1.62,1.62,0,0,1,37.78,55.08Z"/><path class="cls-1" d="M40.88,55.11v.36a2.85,2.85,0,0,1,0,.36.26.26,0,0,1-.18.22l-.23,0-.39,0H39.9a2.74,2.74,0,0,1-1.16-.18.68.68,0,0,1-.35-.66,1,1,0,0,1,.06-.34.8.8,0,0,1,.95-.54,3,3,0,0,0,.58,0c.27,0,.41-.1.41-.2s0-.17-.18-.25a.76.76,0,0,0-.37-.1l-.45.07-.45.08c-.14,0-.21,0-.21-.19a.67.67,0,0,1,.08-.29.19.19,0,0,1,.18-.12l.54-.12.29,0a.72.72,0,0,1,.39,0,1.22,1.22,0,0,1,.46.3.93.93,0,0,1,.24.69c0,.07,0,.16,0,.27s0,.25,0,.3A2.28,2.28,0,0,0,40.88,55.11Zm-1.13.35c.46,0,.71-.11.75-.31V55a.45.45,0,0,0-.44-.2h-.34A1.25,1.25,0,0,0,39,55a.38.38,0,0,0-.16.17s0,.11.14.15a1.61,1.61,0,0,0,.52.09Z"/><path d="M26.48,54.86a.27.27,0,0,1,0,.32,1.42,1.42,0,0,1-.25.3l-.08.1a5.53,5.53,0,0,1-.75.35,1.47,1.47,0,0,1-.56.1,1.45,1.45,0,0,1-1.32-.71,2.15,2.15,0,0,1-.36-1,2.32,2.32,0,0,1,.26-1.12,1.43,1.43,0,0,1,.76-.75,2.33,2.33,0,0,1,1.09-.2,1.42,1.42,0,0,1,.63.12,2,2,0,0,1,.47.31.21.21,0,0,1,.08.17c0,.16,0,.26-.11.29a.26.26,0,0,1-.3,0L25.9,53a2.16,2.16,0,0,0-.78-.15,1.54,1.54,0,0,0-1.21.56,1.07,1.07,0,0,0-.32.76,1.26,1.26,0,0,0,.05.33,1.17,1.17,0,0,0,1.3.86,2.76,2.76,0,0,0,.81-.14,1.51,1.51,0,0,0,.52-.37C26.37,54.83,26.44,54.83,26.48,54.86Z"/><path d="M29.42,55.11v.36a2.85,2.85,0,0,1,0,.36c0,.12-.08.2-.18.22L29,56l-.39,0h-.18a2.74,2.74,0,0,1-1.16-.18.7.7,0,0,1-.35-.66,1,1,0,0,1,.06-.34.8.8,0,0,1,.95-.54,2.93,2.93,0,0,0,.58,0c.27,0,.41-.1.41-.2s0-.17-.18-.25a.76.76,0,0,0-.37-.1l-.45.07-.45.08c-.14,0-.21,0-.21-.19a.67.67,0,0,1,.08-.29.21.21,0,0,1,.18-.12l.54-.12.29,0a.72.72,0,0,1,.39,0,1.22,1.22,0,0,1,.46.3.93.93,0,0,1,.24.69c0,.07,0,.16,0,.27s0,.25,0,.3A2.38,2.38,0,0,0,29.42,55.11Zm-1.14.35c.46,0,.71-.11.75-.31V55a.45.45,0,0,0-.44-.2h-.33a1.26,1.26,0,0,0-.75.2.38.38,0,0,0-.16.17s0,.11.14.15a1.61,1.61,0,0,0,.52.09Z"/><path d="M29.9,55.78a.85.85,0,0,1,.08-.29l.1-.27c.05-.19.14-.47.25-.85a6.83,6.83,0,0,0,.33-.85,2.08,2.08,0,0,1,.17-.36.23.23,0,0,1,.35,0,2.38,2.38,0,0,1,.32.7c.21.55.31.81.29.78A3.77,3.77,0,0,1,32,55c.06.15.1.26.14.34s.18.35.16.38a.32.32,0,0,1-.16.17c-.1.05-.16.07-.19,0l0,0a1.23,1.23,0,0,1-.13-.26c0-.14-.09-.24-.11-.28q-.34-.62-.39-.72l0-.08a.46.46,0,0,0,0-.09.21.21,0,0,0-.16-.12c-.08,0-.17.09-.27.28a3.32,3.32,0,0,0-.26.87,2,2,0,0,1-.06.4c-.07.14-.18.18-.36.12A.2.2,0,0,1,29.9,55.78Z"/><path d="M33.42,54.27a4.72,4.72,0,0,1,.52,0,1.39,1.39,0,0,1,.82.27.34.34,0,0,1,.19.32c0,.06,0,.13,0,.22a.78.78,0,0,1,0,.19c0,.22-.25.43-.68.61a1.51,1.51,0,0,1-.56.11,1.1,1.1,0,0,1-.59-.15c-.18,0-.25-.13-.21-.34a.72.72,0,0,1,0-.26.88.88,0,0,1,0-.2c0-.2,0-.4,0-.6v-.18l-.09-.69a.48.48,0,0,1,.07-.26.17.17,0,0,1,.22-.11.21.21,0,0,1,.15.19v.35c0,.1,0,.24,0,.41S33.27,54.27,33.42,54.27Zm-.05,1a1,1,0,0,0,.55.08c.47,0,.66-.15.58-.3s-.08-.19-.25-.26a1.17,1.17,0,0,0-.36-.08h-.48a.19.19,0,0,0-.12.07.14.14,0,0,0,0,.13v.12C33.24,55.22,33.28,55.3,33.37,55.32Z"/><path d="M37.78,55.08c.1,0,.16.09.17.25s-.14.46-.47.61a1.41,1.41,0,0,1-.8.14A1.32,1.32,0,0,1,35.48,55a1.9,1.9,0,0,1,0-.35,1.25,1.25,0,0,1,.67-1.25,1.66,1.66,0,0,1,.72-.18,1.79,1.79,0,0,1,.81.23l.11.07a.24.24,0,0,1,.15.25c0,.17-.07.27-.21.29a1,1,0,0,1-.37-.07,2,2,0,0,0-.33-.09l-.23,0a.9.9,0,0,0-.91.55.46.46,0,0,0,0,.21.77.77,0,0,0,.23.52.73.73,0,0,0,.5.28h.23a1.2,1.2,0,0,0,.57-.13A1.62,1.62,0,0,1,37.78,55.08Z"/><path d="M40.88,55.11v.36a2.85,2.85,0,0,1,0,.36.26.26,0,0,1-.18.22l-.23,0-.39,0H39.9a2.74,2.74,0,0,1-1.16-.18.68.68,0,0,1-.35-.66,1,1,0,0,1,.06-.34.8.8,0,0,1,.95-.54,3,3,0,0,0,.58,0c.27,0,.41-.1.41-.2s0-.17-.18-.25a.76.76,0,0,0-.37-.1l-.45.07-.45.08c-.14,0-.21,0-.21-.19a.67.67,0,0,1,.08-.29.19.19,0,0,1,.18-.12l.54-.12.29,0a.72.72,0,0,1,.39,0,1.22,1.22,0,0,1,.46.3.93.93,0,0,1,.24.69c0,.07,0,.16,0,.27s0,.25,0,.3A2.28,2.28,0,0,0,40.88,55.11Zm-1.13.35c.46,0,.71-.11.75-.31V55a.45.45,0,0,0-.44-.2h-.34A1.25,1.25,0,0,0,39,55a.38.38,0,0,0-.16.17s0,.11.14.15a1.61,1.61,0,0,0,.52.09Z"/><path class="cls-2" d="M38.1,34.31l-.43-.19a1.88,1.88,0,0,0-.13-.49c.57-1,0-2.14-.91-3l-.12-.19a4.18,4.18,0,0,0-2.6-1.81,11.53,11.53,0,0,0-.64-1.39,10.58,10.58,0,0,0-.23-1l0-.05,0,0a2.63,2.63,0,0,0,.1-3.88,3.75,3.75,0,0,0-.61-.84,3.75,3.75,0,0,0-3.88-2.14l-.1-.63c0-.08-.18-.11-.41-.08a3.34,3.34,0,0,0-1.42-2.83.8.8,0,0,0-.53-.08,1.86,1.86,0,0,0-.91-.36,1.49,1.49,0,0,0-.79.13c-.25,0-.49,0-.68.06a1.22,1.22,0,0,0-.34.11,1.08,1.08,0,0,0-.8,0c-.74.12-2.36.7-2.21,1.28a1.6,1.6,0,0,0,.24.51.06.06,0,0,0,0,0l-.09.08c-.09.07-.35.28-.29.44l.21.57a.24.24,0,0,0,.14.09.43.43,0,0,0,0,.07.13.13,0,0,0,.08.19.83.83,0,0,0,.16.09c-.34.2-.54.39-.42.52l.06.07c-.18.14-.28.28-.21.4a1.56,1.56,0,0,0,.38.39,1.12,1.12,0,0,0-.1.22v.12c.57.59.66.54,1.49.38l.37-.08a3.7,3.7,0,0,0,1.17.82A3.66,3.66,0,0,0,25,23.27c.13.1.44.06.8-.05.12.13.25.25.38.38a4.28,4.28,0,0,0,2.32,2.22,14.38,14.38,0,0,0,1,2.05c0,.24.1.49.15.72a30.43,30.43,0,0,0,1,4.8c.05.18.4.17.82,0,0,.12.08.25.13.37a1.66,1.66,0,0,0-.32.88l-.2.2a.3.3,0,0,0-.11.27l.15.46a.13.13,0,0,0,0,.12l0,.08a.26.26,0,0,0,.27.1h.15a3.75,3.75,0,0,0,2.29-.33,3.2,3.2,0,0,0,.41.07h0c0,.09.05.18.19.41s.39.1.51.09a3.25,3.25,0,0,0,2.42-1,.93.93,0,0,0,.39-.37C38.13,34.57,38.29,34.39,38.1,34.31Z"/><path class="cls-3" d="M17.13,21.74c.23-.37.46-.74.68-1.11A2.32,2.32,0,0,0,18,18.52a.63.63,0,0,0-1.18-.13c-.15.26-.31.51-.47.76a1.71,1.71,0,0,0-.47.83l0,.15a2.21,2.21,0,0,0,.2,1.73A.62.62,0,0,0,17.13,21.74Z"/><path class="cls-4" d="M20,18.84c.6-.07.95-.84,1-1.37s-.1-1.54-.82-1.6a1.41,1.41,0,0,0-1.35.87,1.91,1.91,0,0,0,.13,2.08A.69.69,0,0,0,20,18.84Z"/><path class="cls-2" d="M20.23,20.05a1.32,1.32,0,0,0,.17-1,.8.8,0,0,0,.19-.3c.17-.78-.92-1.84-1.5-2.15s-1.22,0-1.74.39c0,0,0,0,0,.06a.47.47,0,0,0-.12.07.22.22,0,0,0-.05.12.87.87,0,0,0-.53.77.82.82,0,0,0-.43.75l-.15,0c-.62-.14-.37.57-.19.88.28.51.88,1.29,1.49,1.42a4.22,4.22,0,0,0,1.64,0H19A1.24,1.24,0,0,0,20.23,20.05Z"/><path class="cls-5" d="M21.23,11.61c-.21-.79-2.07-.51-2.58-.25-.85.44-1,1.57-1.23,2.43-.15.55-.28,1.1-.39,1.66l-.4,1.11a.32.32,0,0,0,.16.44.43.43,0,0,0,0,.11c-.09.74,2.68.58,2.95,0,.12-.27.22-.55.32-.84A6,6,0,0,0,20.63,15,6.07,6.07,0,0,0,21.23,11.61Z"/><path class="cls-2" d="M20,15.68l-1.77-.22a2.59,2.59,0,0,0-1.54.3l-.11.05c-.18.1-.6.41-.34.67a1.09,1.09,0,0,0,.11.1h0c-.32.16-.42.42-.31.64a.3.3,0,0,0,0,.39c-.22.34.31.93.19,1.44s1.23.26,1.17-.21,1-.38,1.45-.81l.06-.07a4.68,4.68,0,0,0,.53-.17c.26-.1.71-.32.69-.61a.34.34,0,0,0,.07-.22,1.19,1.19,0,0,0,.87-.52C21.34,15.86,20.3,15.72,20,15.68Z"/><path d="M21.09,21.08c.48-2.16,3-10.56-.13-11.53-2-.61-3.89,1.88-4.55,3.35a24.87,24.87,0,0,0-2.06,9c0,.87,2,.46,2.06-.25a25.3,25.3,0,0,1,1.1-6.22,15.2,15.2,0,0,1,1.14-3.15c.73-1.31,1.39-1.7,1.67,0,.48,2.76-.68,6.42-1.29,9.11-.18.79,1.89.48,2.06-.25Z"/><path class="cls-2" d="M32,36.87a1.31,1.31,0,0,1,1,0,.65.65,0,0,1,.34-.13c.79,0,1.61,1.27,1.8,1.9s-.29,1.18-.73,1.63l-.07,0a.43.43,0,0,1-.1.09s-.07,0-.12,0a.92.92,0,0,1-.86.36.84.84,0,0,1-.82.26,1,1,0,0,0,0,.16c0,.64-.64.24-.91,0a2.94,2.94,0,0,1-1.09-1.75,4.43,4.43,0,0,1,.3-1.61s0,0,0-.06A1.23,1.23,0,0,1,32,36.87Z"/><path class="cls-5" d="M40.16,37.59c.74.37.09,2.13-.27,2.58-.6.74-1.74.66-2.62.72-.57,0-1.14,0-1.71,0l-1.17.17a.34.34,0,0,1-.4-.25s-.86-.61-.85-.58c.25.72,2.1-.54,2.07-1.21,0-.3-.12-1.2.18-1.24s.81-.76,1.32-.84A6.21,6.21,0,0,1,40.16,37.59Z"/><path class="cls-2" d="M35.69,37.72l-.14,1.78a2.56,2.56,0,0,1-.61,1.44l-.06.11c-.14.16-.53.5-.73.2a.83.83,0,0,1-.07-.13h0c-.23.29-.5.33-.69.18a.3.3,0,0,1-.38-.12c-.37.15-.84-.49-1.37-.47s0-1.26.44-1.11.57-.87,1.09-1.25l.08,0a4.82,4.82,0,0,1,.27-.5c.15-.23.45-.62.74-.55a.33.33,0,0,1,.22,0c.16-.36.39-.68.69-.74C35.79,36.35,35.71,37.4,35.69,37.72Z"/><path d="M30.69,37.08a49,49,0,0,1,6.64.23,4.11,4.11,0,0,1,1.92.52l.26,1.79c-.52.83-2.54.88-3.43,1a19,19,0,0,1-5.88.14c-.61-.1-2.4.88-1.27,1.07a24.16,24.16,0,0,0,8.22-.37c1.47-.27,4.85-1,5.05-3,.33-3.13-9-2.54-10.69-2.52-.74,0-2.19,1.14-.82,1.11Z"/><circle class="cls-5" cx="17.72" cy="34.02" r="13.3"/><ellipse cx="26.85" cy="34.11" rx="1.96" ry="1.5" transform="translate(-14.48 20.83) rotate(-33.98)"/><ellipse cx="21.3" cy="25.89" rx="1.96" ry="1.5" transform="matrix(0.83, -0.56, 0.56, 0.83, -10.83, 16.33)"/><path class="cls-6" d="M21.06,40.39a10.9,10.9,0,0,0-.76-1c-.37-1.41-1.2-2.79-2.68-3h-.08l0,0c-.89-.94-3.72-2.21-4.87-1.14h0a4.35,4.35,0,0,0,0-3.1,5.92,5.92,0,0,0-.55-2,5,5,0,0,0-1.33-3.25c-1-1-3.06-1.53-3.47-.39a1.44,1.44,0,0,0-.21.53,1.42,1.42,0,0,0-.85,1.37.68.68,0,0,0,0,.14,1.69,1.69,0,0,0-1.34,2.31,3.63,3.63,0,0,0,.32,1.67s0,0,0,0a2.81,2.81,0,0,0,0,1.26c0,.26,0,.5,0,.75a2.12,2.12,0,0,0,0,.24,5.53,5.53,0,0,0,.07.7,1.62,1.62,0,0,0,0,.31l-.15-.07a1,1,0,0,0-.32-.07,1.29,1.29,0,0,0-.34,0c-1,.06-2.34.61-2.59,1.4,0,0,0,0-.06.06a.43.43,0,0,0-.06.38h0a1,1,0,0,0-.14.88,1,1,0,0,0,0,.49A1.06,1.06,0,0,0,2,39.6a.65.65,0,0,0,.06.29c-.16.57.23.93.79,1.11a2.31,2.31,0,0,0-.81.76.35.35,0,0,0,0,.45,1,1,0,0,0-.17.69.93.93,0,0,0,.5.75.76.76,0,0,0,.11.14,1.6,1.6,0,0,0,1.74.26,3.75,3.75,0,0,0,.58,0,2.59,2.59,0,0,0,1.2.18,1.93,1.93,0,0,0-.34.44,2,2,0,0,0-.27,1.67.8.8,0,0,0,.27.68,1,1,0,0,0,.59,1.06,1.26,1.26,0,0,0,.67.3,2.51,2.51,0,0,0,2-.57l.17-.16a2.2,2.2,0,0,0,1-1.26,4.17,4.17,0,0,0,1.25-.93l0,0a16.62,16.62,0,0,0,3.67.93,5.1,5.1,0,0,0,2.77.38,2.44,2.44,0,0,0,2.21-.51l0,0a.27.27,0,0,0,.07-.08h0a2,2,0,0,0,.64-1.69,2.68,2.68,0,0,0,.3-.83,2.55,2.55,0,0,0,.11-2A1.77,1.77,0,0,0,21.06,40.39Z"/><path class="cls-7" d="M21.94,46.32c1.5-2.88.9-5.68-.89-8.34-1.67-2.47-3.22-2.94-5.83-3.76-1.13-.36-.76.45-1.3-.65s0-3.21-.28-4.35c-.54-2.44-1.87-4.16-4.4-4.35-.44,0-2.34.75-1.34.83,4.11.31,4.4,6.4,3.75,9.36-.08.35.67.22.82.19,5.94-1.19,9.84,6.83,7.45,11.44-.15.27,1.75.16,2-.37Z"/><path class="cls-7" d="M12.54,34a6.09,6.09,0,0,0-5,5.88c0,1,2.08.67,2.07-.18a4.23,4.23,0,0,1,3.28-4.4c1.28-.28.92-1.57-.35-1.3Z"/><path d="M9.56,22.25C4.12,26,2.74,31.23,3.89,36a1.55,1.55,0,0,1,1.53.36,1,1,0,0,1,.09.13A13,13,0,0,1,11.06,23.8c6.2-4.17,15.2-2.14,18.09,5.13,2.29,5.79.09,11.69-4.7,15.34a13.42,13.42,0,0,1-12.8.79,1.32,1.32,0,0,1-.36.92,13.73,13.73,0,0,0,14.53-.13.24.24,0,0,0,.06-.08l.07,0C40.45,34.87,24.38,12.15,9.56,22.25Z"/><path class="cls-7" d="M19.41,40.48a6.67,6.67,0,0,0-4.61-2c-1.43-.09-3.14-.08-4.07,1.18-.79,1,1.14,1.45,1.73.66.44-.59,2-.29,2.58-.19a4.49,4.49,0,0,1,2.5,1.23c.67.7,2.61-.16,1.87-.92Z"/><path class="cls-7" d="M8.09,34.62A5.36,5.36,0,0,0,9,28.76c-.22-.49-2.21.21-2.05.55a5.08,5.08,0,0,1-.69,5.48c-.4.46,1.53.2,1.86-.17Z"/><path d="M38.34,36c2-2.64,1.38-4.8-1.05-6.79-1.29-1.05-.71.23-1.85-1.57s-.37-1,.07-2.91A4.74,4.74,0,0,0,34.77,21c-.87-1.22-2-1.53-3.32-2.05-1-.39-1.58-.1-2.32-1.19-.45-.66-.18-1.44-.81-2.13-1.5-1.65-3.89-1.06-5.65-.33L24,15.24l-.47-.38c-.48-.39-2.34.4-1.92.74l.46.38c.32.26,1,.07,1.34-.06,3.63-1.51,3.14,2.5,4.46,3.77.49.48,4.24,1.25,4.14,1.16,1.93,1.64,1.43,3.3,1,5.3-.33,1.56-1.07,1.79.47,3.07a17.63,17.63,0,0,0,1.87.83c2.32,1.4,3,3.42,1.1,6-.46.62,1.55.38,1.88-.08Z"/><path class="cls-7" d="M9.7,46c.23,1.19-.27,1.76-1.52,1.71-.77.69-1.4.68-1.87,0-1.07-1-.14-2.55.61-3.29.53-.52-.87-.46-1-.4a2.17,2.17,0,0,1-2.71-.78,1.24,1.24,0,0,1-.39-1.54c.3,0,1.7-.54,1-.93a2.92,2.92,0,0,1-1.67-2.49C2,37,2.56,34.76,5,36.23c.56.33,2.35-.5,1.92-.76C2.57,32.86-3.15,38.76,2.1,41.62l1-.93c-1.61.25-3.33,1.37-2,3.16,1.13,1.57,3.4,1.47,5,1l-1-.39c-2.27,2.24-.94,5.23,2.3,5.2a4.2,4.2,0,0,0,4.41-4.19c0-.49-2.05-.15-2.05.55Z"/><path class="cls-7" d="M5,36.48a6,6,0,0,1,2.13,3,2.91,2.91,0,0,0,1.21,2c.93.8.29,1.33.76,2.29.21.42.6.65.75,1.18a8.15,8.15,0,0,0,.37,1.41c.26.54,2.25-.15,2-.55-.38-.82-.25-1.65-.7-2.36a1.94,1.94,0,0,1-.62-.71c0-.3,0-.6.08-.9a1.83,1.83,0,0,0-.46-1c-.42-.5-.73-.18-1.16-.81-.26-.38-.22-1.11-.4-1.56A6.17,6.17,0,0,0,7,35.76c-.47-.36-2.3.44-1.93.72Z"/><path class="cls-7" d="M8.61,39.23a11.18,11.18,0,0,0-2-.58A1.58,1.58,0,0,0,4.8,39.77c-.19,1,1.91.75,2.08-.16l0-.13-.18.38.09-.11-.4.3.13,0L6,40.14c-.18,0,0,0,.1.06l.48.14.85.27a1.42,1.42,0,0,0,1.45-.39.59.59,0,0,0-.26-1Z"/><path class="cls-7" d="M8.08,42.25a1.12,1.12,0,0,1-.15,1c-.26.36.24.4.5.39a2.11,2.11,0,0,0,1.37-.51,1.59,1.59,0,0,0,.34-1.42c-.12-.5-2.18,0-2.06.55Z"/><path class="cls-8" d="M46.5,28,45.77,29a2.36,2.36,0,0,0-.33,2.09.64.64,0,0,0,1.18.19c.16-.25.33-.49.5-.74a1.59,1.59,0,0,0,.51-.81l0-.15a2.21,2.21,0,0,0-.12-1.73A.62.62,0,0,0,46.5,28Z"/><path class="cls-4" d="M43.55,30.73c-.61,0-1,.79-1.06,1.32s0,1.54.74,1.63a1.41,1.41,0,0,0,1.4-.8,1.93,1.93,0,0,0,0-2.08A.69.69,0,0,0,43.55,30.73Z"/><path class="cls-8" d="M43.33,29.51a1.34,1.34,0,0,0-.21.95.75.75,0,0,0-.21.29c-.21.77.83,1.88,1.4,2.22s1.22,0,1.76-.31a.21.21,0,0,0,0-.06.47.47,0,0,0,.12-.07.24.24,0,0,0,.06-.11.92.92,0,0,0,.57-.75.84.84,0,0,0,.46-.73l.14,0c.62.17.4-.55.24-.87a2.89,2.89,0,0,0-1.43-1.49,4.39,4.39,0,0,0-1.63-.11h-.06A1.23,1.23,0,0,0,43.33,29.51Z"/><path class="cls-5" d="M41.94,37.89c.17.8,2,.6,2.56.37.87-.4,1.07-1.52,1.35-2.37.18-.54.33-1.09.47-1.64l.45-1.09a.34.34,0,0,0-.14-.45s0-.07,0-.1c.12-.75-2.65-.71-2.95-.12-.13.27-.25.55-.36.83a6.24,6.24,0,0,0-.64,1.19A6,6,0,0,0,41.94,37.89Z"/><path class="cls-8" d="M43.38,33.88l1.76.3A2.47,2.47,0,0,0,46.68,34l.12,0c.19-.09.61-.38.38-.65l-.11-.11h0c.33-.14.44-.4.34-.62a.29.29,0,0,0,0-.39c.24-.33-.26-.94-.12-1.45s-1.21-.32-1.18.15c0,.62-1,.34-1.48.75,0,0,0,.05-.06.07a4.42,4.42,0,0,0-.55.14c-.26.09-.72.29-.72.58a.38.38,0,0,0-.07.21,1.2,1.2,0,0,0-.89.48C42,33.64,43.06,33.82,43.38,33.88Z"/><path d="M42.54,28.54c-.53,1.94-3.61,11.12-.06,11.32,5,.27,6.53-8.63,6.8-12.11,0-.25-2-.05-2.05.55a24.9,24.9,0,0,1-1.49,6.41,15.29,15.29,0,0,1-1.25,2.91c-1,1.58-1.57.63-1.65-.75-.16-2.75,1-6.07,1.73-8.7.1-.38-1.89-.13-2,.37Z"/><path class="cls-8" d="M32.39,12.16a1.34,1.34,0,0,1-1-.07.72.72,0,0,1-.34.11c-.8,0-1.55-1.34-1.71-2s.34-1.17.81-1.59c0,0,0,0,.06,0l.1-.09a.28.28,0,0,1,.13,0,.89.89,0,0,1,.88-.32.82.82,0,0,1,.83-.23.86.86,0,0,0,0-.15c0-.64.65-.22.91,0a3,3,0,0,1,1,1.8,4.24,4.24,0,0,1-.38,1.6.11.11,0,0,1,0,0A1.22,1.22,0,0,1,32.39,12.16Z"/><path class="cls-5" d="M24.23,11.06c-.72-.4,0-2.13.39-2.56.63-.72,1.77-.58,2.66-.6q.86,0,1.71,0l1.17-.12a.35.35,0,0,1,.39.27s.83.65.82.62c-.22-.73-2.12.44-2.12,1.11,0,.3.06,1.21-.24,1.24s-.85.72-1.36.78A6.3,6.3,0,0,1,24.23,11.06Z"/><path class="cls-8" d="M28.71,11.14l.22-1.77A2.5,2.5,0,0,1,29.6,8s0-.07.07-.1.55-.47.74-.17l.06.14h0c.23-.27.51-.3.69-.14a.31.31,0,0,1,.37.13c.38-.13.82.53,1.35.54s0,1.25-.49,1.09-.61.84-1.15,1.2l-.08,0a4.71,4.71,0,0,1-.29.48c-.17.22-.49.6-.76.51a.37.37,0,0,1-.23,0,1.22,1.22,0,0,1-.72.71C28.54,12.5,28.67,11.45,28.71,11.14Z"/><path d="M33.65,12A45,45,0,0,1,27,11.46a4.28,4.28,0,0,1-2.19-.85L25,9c.54-.68,2.63-.73,3.48-.82a19,19,0,0,1,5.88.17c.58.12,2.4-.78,1.29-1a23.7,23.7,0,0,0-8.23,0c-1.46.21-4.88.84-5.16,2.77C21.81,13.19,31,13,32.82,13.06c.7,0,2.21-1,.83-1Z"/><circle class="cls-5" cx="46.34" cy="14.48" r="13.3"/><ellipse cx="37.31" cy="15.76" rx="1.96" ry="1.5" transform="translate(-0.82 29.42) rotate(-42.61)"/><ellipse cx="44.02" cy="23.06" rx="1.96" ry="1.5" transform="translate(-3.99 35.89) rotate(-42.61)"/><path d="M38.12,5.38C43.52.9,51.74.61,56.26,6.69a12.82,12.82,0,0,1-1.8,16.9C49,28.64,39.75,28,35.81,21.23,32.65,15.81,34,9.6,38.24,5.26c.55-.55-1.17-1.77-1.79-1.14C23.74,17.05,43,37.11,56.18,24.89,69.6,12.43,50.22-7.34,36.57,4,35.84,4.61,37.51,5.89,38.12,5.38Z"/><path class="cls-9" d="M42.14,5.16A1.46,1.46,0,0,0,42,6.31c.28.62,1.15.63,1.82.53A8.83,8.83,0,0,0,42.14,10a1.3,1.3,0,0,0,.12,1.26c.41.43,1.14.14,1.63-.2A11.37,11.37,0,0,0,45.5,9.64a6.94,6.94,0,0,0-1.38,2.8,2.4,2.4,0,0,0,1.26,2.64,2.23,2.23,0,0,0,2.46-.87,2.45,2.45,0,0,0-.19,3.58,2.47,2.47,0,0,0,3.57-.39,6.77,6.77,0,0,0-.85,1.7A2.59,2.59,0,0,0,50.45,21a1.64,1.64,0,0,0,1.52.95,1.19,1.19,0,0,0,1.09-1.29,1.07,1.07,0,0,0-.57,1.18c.16.67.68.68,1.21.78a14.68,14.68,0,0,0,1.76.29,2.88,2.88,0,0,0,2.22-.82c1.37-1.43,2.52-4.39,2-6.29a.92.92,0,0,1,0-.37,1.06,1.06,0,0,1,.23-.43c1.09-1.49.67-3.55.22-5.33a14,14,0,0,0-1.2-3.4,4.72,4.72,0,0,0-2.66-2.31c-.55-.15-1.14-.18-1.69-.31A8.26,8.26,0,0,1,53,3L48.17.84A3.53,3.53,0,0,0,46.54.39C44.6.47,42.8,3.61,42.14,5.16Z"/><path class="cls-10" d="M41.13,5.34c-.51,1.61.8,1.07,1,1.93.24,1.23-2,3.19-.85,4.29,1.5,1.41,4.31-1.17,5.17-2l-2,.25c-1.11,1.67-2.51,4.75.23,5.69,1.46.5,3-.44,4.06-1.37l-1.86.15c-3.21,4,2.48,5.53,5.24,3l-1.95.26c-1,1.7-1.71,4.51,1.1,4.76a2.67,2.67,0,0,0,2.78-1.9c.17-.56-1.75,0-1.95.25-2.59,2.6,3.46,2.85,5,2.2a6.51,6.51,0,0,0,3.42-4.57,28.89,28.89,0,0,0,.24-3.19c.27-1.8.92-2.32.63-4.4C61,8,60,4.66,57.19,3.57S51.13.75,48.22.11c-3.52-.76-5.78,2.42-7.09,5.23-.15.32,1.77.17,2-.36C44,3.19,44.78,1.06,47.2,1.19c1.29.07,3.66,1.74,4.87,2.21,3.3,1.24,5.45,1.53,6.68,5.34.92,2.88.4,4.47-.08,7.3-.24,1.41.15,3-.76,4.34-1.87,2.76-5.3,1.55-3.92.16l-1.94.26a1.25,1.25,0,0,1-.55-1.9,3.62,3.62,0,0,1,.73-1.68c.24-.41-1.71,0-1.94.25q-3.66-.13-1.52-3.34c.44-.55-1.55-.14-1.86.15-1.8-.37-2.3-1.38-1.48-3a10.31,10.31,0,0,1,1.08-1.81c.22-.34-1.68,0-1.94.25-2.29,2.22-.33-2.21.27-3.05.14-.19-.27-.25-.34-.25L43.15,5C43.28,4.57,41.3,4.8,41.13,5.34Z"/><path class="cls-10" d="M55.33,13.46a.88.88,0,0,0-.37-.37c-.47-.22-1.94,0-2,.64a5.78,5.78,0,0,0,.81,3.49c.33.55,2.26-.2,2-.55a5.7,5.7,0,0,1-.8-3.49l-2,.64a.47.47,0,0,1,.25.19c.37.54,2.26-.24,2-.55Z"/><path class="cls-10" d="M49.91,10.32a3.46,3.46,0,0,1-1.75.09,1.8,1.8,0,0,0-1.45.39c-.31.28-.26.62.18.7a7.63,7.63,0,0,0,3.82-.37c.29-.1.83-.46.56-.8s-1.05-.12-1.36,0Z"/><path class="cls-10" d="M50.53,6.78a2.43,2.43,0,0,0-2.35-1.34A1.67,1.67,0,0,0,46.82,6c-.23.4.2.6.55.59a1.25,1.25,0,0,1,1.11.74c.34.7,2.34,0,2.05-.55Z"/><path class="cls-10" d="M55.19,9a2.17,2.17,0,0,0-.57-2.89c-.72-.56-2.52.46-1.58,1.18a1.1,1.1,0,0,1,.19,1.48c-.28.44.25.82.63.86A1.36,1.36,0,0,0,55.19,9Z"/></g></svg>