<svg xmlns="http://www.w3.org/2000/svg" viewBox="0 0 74.77 51.38"><defs><style>.cls-1{fill:#333;}.cls-2{fill:#1a1a1a;}.cls-3{fill:#4a4a68;}.cls-4{fill:#fff;}.cls-5{fill:#dd9954;}.cls-5,.cls-6{stroke:#603813;stroke-width:0.99px;}.cls-11,.cls-12,.cls-14,.cls-15,.cls-16,.cls-5,.cls-6{stroke-miterlimit:10;}.cls-6{fill:#c69c6d;}.cls-7{fill:#603813;}.cls-14,.cls-8{fill:none;}.cls-8{stroke:#fff;stroke-linejoin:bevel;stroke-width:2.13px;}.cls-9{fill:#4d4d4d;}.cls-10{fill:#999;}.cls-11{fill:#ccc;stroke:#f2f2f2;}.cls-11,.cls-12,.cls-14,.cls-16{stroke-width:0.71px;}.cls-12{fill:#8cc63f;stroke:#006837;}.cls-13{fill:#3f9ac6;}.cls-14{stroke:#2d0068;}.cls-15,.cls-16{fill:#ffce8d;stroke:#c1272d;}</style></defs><title>personaji_3</title><g id="Слой_1" data-name="Слой 1"><ellipse class="cls-1" cx="51.65" cy="32.69" rx="7.19" ry="4.78" transform="matrix(0.84, -0.54, 0.54, 0.84, -9.47, 32.81)"/><path class="cls-2" d="M56.7,29.1C59.33,34,49.76,41,46.62,36.21s6.68-11.52,10.15-7c.44.57,2.42-.14,1.9-.82-2.41-3.16-7.36-1.9-10.22-.09-2.52,1.6-5.86,5.4-3.86,8.56C48.44,43,62.19,35,58.75,28.55,58.37,27.84,56.37,28.5,56.7,29.1Z"/><path class="cls-3" d="M1.57,21.28a.68.68,0,0,0,.34.69,4.11,4.11,0,0,0,.12.67.72.72,0,0,0,.16.3,1.26,1.26,0,0,0,.33,1c.2.19,0,1.33.33,1.37a1,1,0,0,0,.19.22c.32.27,1.16-.66,1.58-.67A.6.6,0,0,0,4.7,25a2.8,2.8,0,0,0,.63.35c.18.08.37.15.55.21a1.48,1.48,0,0,0,.6.08A2.35,2.35,0,0,0,8.24,25c.31-.31.44-.89-.06-1.11a5.27,5.27,0,0,0-1-.38l-.11-.09L7,23.4c.15-.41,0-.84-.61-1.21a1.53,1.53,0,0,0-.4-.31,3.8,3.8,0,0,0-.43-2,11.35,11.35,0,0,0,.08-1.76.8.8,0,0,0-.09-.32l.36-1.23c.41-1.4-2.53-.61-3,0a6.31,6.31,0,0,0-.87,1.86A.53.53,0,0,0,2.2,19,6.1,6.1,0,0,0,1.57,21.28Z"/><path d="M4.13,13.06C2.69,15.76-1.36,20.17.46,23.4c.37.65,2.34,0,2.05-.55C.79,19.79,4.65,15.66,6,13.06c.44-.81-1.6-.56-1.9,0Z"/><path class="cls-3" d="M7.66,25a1.22,1.22,0,0,1,.38.92.87.87,0,0,1,.27.27c.34.74-.72,2-1.33,2.36a2.25,2.25,0,0,1-2.06-.12s0,0-.06,0a.67.67,0,0,1-.15-.06.2.2,0,0,1-.08-.1,1,1,0,0,1-.75-.68.86.86,0,0,1-.62-.68l-.17.05c-.69.23-.53-.51-.38-.85A3,3,0,0,1,4.16,24.4,5.85,5.85,0,0,1,6,24.11H6.1C7,24.1,7.5,24.46,7.66,25Z"/><path class="cls-4" d="M10.22,32.89c-.09.82-2.27.83-2.91.66-1-.3-1.42-1.4-1.84-2.21a16.25,16.25,0,0,1-.75-1.58c-.22-.35-.45-.69-.67-1a.32.32,0,0,1,.11-.47s.31-1,.28-1c-.67.48,1.44,1.77,2.16,1.51.32-.12,1.26-.54,1.42-.27.32.29,1.14-.15,1.44.3A7.62,7.62,0,0,1,10.22,32.89Z"/><path class="cls-3" d="M8.26,28.75l-2,.49a3.39,3.39,0,0,1-1.81,0l-.14,0c-.23-.07-.76-.31-.52-.61l.11-.11h0c-.4-.11-.56-.35-.47-.58a.29.29,0,0,1,0-.4c-.31-.29.19-1,0-1.45s1.35-.45,1.38,0,1.18.23,1.8.58a.55.55,0,0,1,.08.06,6.21,6.21,0,0,1,.64.08c.32.07.84-.08.87.21.06.06.36-.16.38-.08.45,0,.66.7.86.95C9.78,28.37,8.61,28.66,8.26,28.75Z"/><path d="M7.16,24.17a35.13,35.13,0,0,1,1.37,4.37c.32,1.14,1.59,4.12.46,4.65-2.26,1-6.26-9-6.6-10.53-.19-.83-2.24-.3-2.05.55A26,26,0,0,0,4,31.05c1.15,1.82,3,4.24,5.52,3.82,2.32-.39,2.16-3.06,1.67-4.8a51.61,51.61,0,0,0-2-6.45c-.35-.81-2.38-.2-2.05.55Z"/><rect class="cls-1" x="1.75" y="31.72" width="13.3" height="1.75" transform="translate(16.8 65.19) rotate(180)"/><polygon class="cls-5" points="15.15 30.6 33.93 30.6 33.93 34.6 20.8 34.6 15.15 34.6 15.15 30.6"/><line class="cls-6" x1="20.43" y1="30.6" x2="20.43" y2="34.6"/><rect class="cls-7" x="0.47" y="31.39" width="5.72" height="2.71" transform="translate(6.65 65.48) rotate(180)"/><path class="cls-8" d="M12.43,47.26l0-.64v-.25h0l0-.2c0-.32,0-.63,0-.94l0-.53a.69.69,0,0,1,0-.22.33.33,0,0,1,.17-.18.13.13,0,0,1,.2.07l0,.06a1.46,1.46,0,0,1,0,.55q0,.23,0,.51c0,.71,0,1.16,0,1.33a2.06,2.06,0,0,0,0,.44l.74,0a5.07,5.07,0,0,0,.68-.06s.06,0,.06-.12v-2c0-.06,0-.16,0-.29a2.13,2.13,0,0,1,0-.3.5.5,0,0,1,.05-.27.19.19,0,0,1,.23-.11.22.22,0,0,1,.15.19v.37s0,.09,0,.27a3.18,3.18,0,0,0,0,.36,2.19,2.19,0,0,0,0,.29,8.93,8.93,0,0,0,.07,1.11l.05.49,0,.36a.23.23,0,0,1-.14.21l-.41,0-.57,0-.36,0H13l-.23,0H11.22l-.27,0q-.12,0-.18-.18a1.14,1.14,0,0,1-.09-.54c0-.28,0-.55,0-.81s0-.41,0-.53a1.49,1.49,0,0,1,0-.24v-.41a2.4,2.4,0,0,0,0-.29,1.8,1.8,0,0,1,0-.27.43.43,0,0,1,.06-.27.21.21,0,0,1,.23-.11.21.21,0,0,1,.14.19l0,.35a1,1,0,0,1,0,.26,1.49,1.49,0,0,1,0,.17,1.62,1.62,0,0,0,0,.18v.27a8.23,8.23,0,0,0,.07,1c0,.21,0,.32,0,.35s.2.21.43.21h.33Z"/><path class="cls-8" d="M17.79,47.06v.35a2.24,2.24,0,0,1,0,.36c0,.13-.08.2-.17.22l-.23-.05L17,48h-.17a2.79,2.79,0,0,1-1.17-.18.69.69,0,0,1-.35-.65,1,1,0,0,1,.06-.35.82.82,0,0,1,1-.54,2.93,2.93,0,0,0,.58,0c.27,0,.41-.11.41-.21s-.05-.17-.19-.24a.66.66,0,0,0-.37-.11,4.42,4.42,0,0,0-.45.08l-.44.08c-.14,0-.21,0-.21-.19a.61.61,0,0,1,.08-.3.19.19,0,0,1,.18-.12l.54-.11.29,0a.81.81,0,0,1,.38,0,1.15,1.15,0,0,1,.46.3.93.93,0,0,1,.24.69c0,.07,0,.16,0,.28s0,.24,0,.3S17.78,46.92,17.79,47.06Zm-1.14.34c.47,0,.72-.1.75-.31V47a.43.43,0,0,0-.43-.2h-.34a1.26,1.26,0,0,0-.75.2c-.1.07-.15.13-.15.17s0,.11.14.16a2,2,0,0,0,.51.08Z"/><path class="cls-8" d="M20.88,47.76a.29.29,0,0,1-.09.21.19.19,0,0,1-.26,0l-.17-.22-.17-.23L20,47.32a1.1,1.1,0,0,0-.33-.31.23.23,0,0,0-.34.08,3.85,3.85,0,0,0-.37.56c-.14.24-.28.33-.43.26s-.16-.24,0-.53a2.21,2.21,0,0,1,.24-.3l.17-.21a.72.72,0,0,0,.18-.56,2.26,2.26,0,0,0-.32-.52c-.24-.33-.35-.53-.34-.6s.12-.17.29-.17a.25.25,0,0,1,.23.12l.08.14c0-.05.08.08.34.38a1.44,1.44,0,0,0,.19.22c.06,0,.13,0,.21-.08l.16-.21.14-.22c.2-.26.34-.4.43-.4a.22.22,0,0,1,.16.22,1.68,1.68,0,0,1-.47.76,1.29,1.29,0,0,1-.12.12.91.91,0,0,0-.1.13.2.2,0,0,0,0,.27,1.33,1.33,0,0,0,.17.23l.2.21A2,2,0,0,1,20.88,47.76Z"/><path class="cls-8" d="M23.72,46.48a1.4,1.4,0,0,1-.12.58,1.32,1.32,0,0,1-1,.79.66.66,0,0,1-.37,0,.47.47,0,0,0-.32,0,.37.37,0,0,0-.11.15c0,.11,0,.28,0,.51a4.68,4.68,0,0,1,0,.57.31.31,0,0,1-.16.19.14.14,0,0,1-.2-.06l-.05-.08s0-.2,0-.59a2.61,2.61,0,0,0,0-.4v-.23c0-.06,0-.27,0-.65a5.35,5.35,0,0,0,0-.65c0-.07,0-.18,0-.31l0-.32-.05-.28a.33.33,0,0,1,.29-.4h0a1.32,1.32,0,0,1,.65-.14,2,2,0,0,1,1,.27A1.28,1.28,0,0,1,23.72,46.48ZM23.07,46a1,1,0,0,0-.67-.25.86.86,0,0,0-.24,0,.61.61,0,0,0-.36.46,1.36,1.36,0,0,0,.05.64V47c.06.16.21.24.46.24a1.48,1.48,0,0,0,.35,0,.74.74,0,0,0,.61-.52A.52.52,0,0,0,23.07,46Z"/><path class="cls-8" d="M26.28,47.21l.06.35.05.17a.14.14,0,0,1-.05.16.53.53,0,0,1-.23.08s-.08,0-.16-.1a1,1,0,0,1-.1-.48l-.1.1a3.09,3.09,0,0,1-.59.32.75.75,0,0,1-.68,0,.57.57,0,0,1-.18-.5,1.6,1.6,0,0,1,0-.42l0-.28a1.22,1.22,0,0,0,0-.21l0-.52a2.42,2.42,0,0,0,0-.25c0-.11,0-.2,0-.27a.3.3,0,0,1,.05-.2c.25-.19.37,0,.37.71V46a2.46,2.46,0,0,0,0,.39v.4a1.47,1.47,0,0,0,0,.5c0,.13.15.15.37.06a1.33,1.33,0,0,0,.62-.52,1.12,1.12,0,0,0,.08-.5,1.06,1.06,0,0,0,0-.35v-.27a1.83,1.83,0,0,1,0-.4c0-.09.09-.13.15-.13s.18.07.19.21a4.58,4.58,0,0,1,0,.69l0,.65s0,.16,0,.34S26.28,47.18,26.28,47.21Z"/><path class="cls-8" d="M28.39,46.25c0-.08,0-.19,0-.31s0-.14,0-.27a1.68,1.68,0,0,1,0-.4c0-.09.08-.13.15-.13s.18.07.19.21a4.58,4.58,0,0,1,0,.69v.79s0,0,0,0a7.83,7.83,0,0,0,0,.79.37.37,0,0,1-.07.3q-.18.14-.3.06a.25.25,0,0,1-.09-.23,2.89,2.89,0,0,1,.08-.46,1.49,1.49,0,0,0,0-.24l0-.36-.65.07-.34,0-.11,0c0,.06,0,.13,0,.21s0,.22.07.39l0,.2a.17.17,0,0,1-.05.18.3.3,0,0,1-.23.09s-.09,0-.15-.11a.53.53,0,0,1-.1-.37V47a2.51,2.51,0,0,0,0-.55l0-.52s0-.12,0-.25a1.42,1.42,0,0,1,0-.27c0-.1,0-.17.05-.2.24-.19.36,0,.36.71V46a1.11,1.11,0,0,0,0,.26.31.31,0,0,0,.22.07h.66Z"/><path d="M12.43,47.26l0-.64v-.25h0l0-.2c0-.32,0-.63,0-.94l0-.53a.69.69,0,0,1,0-.22.33.33,0,0,1,.17-.18.13.13,0,0,1,.2.07l0,.06a1.46,1.46,0,0,1,0,.55q0,.23,0,.51c0,.71,0,1.16,0,1.33a2.06,2.06,0,0,0,0,.44l.74,0a5.07,5.07,0,0,0,.68-.06s.06,0,.06-.12v-2c0-.06,0-.16,0-.29a2.13,2.13,0,0,1,0-.3.5.5,0,0,1,.05-.27.19.19,0,0,1,.23-.11.22.22,0,0,1,.15.19v.37s0,.09,0,.27a3.18,3.18,0,0,0,0,.36,2.19,2.19,0,0,0,0,.29,8.93,8.93,0,0,0,.07,1.11l.05.49,0,.36a.23.23,0,0,1-.14.21l-.41,0-.57,0-.36,0H13l-.23,0H11.22l-.27,0q-.12,0-.18-.18a1.14,1.14,0,0,1-.09-.54c0-.28,0-.55,0-.81s0-.41,0-.53a1.49,1.49,0,0,1,0-.24v-.41a2.4,2.4,0,0,0,0-.29,1.8,1.8,0,0,1,0-.27.43.43,0,0,1,.06-.27.21.21,0,0,1,.23-.11.21.21,0,0,1,.14.19l0,.35a1,1,0,0,1,0,.26,1.49,1.49,0,0,1,0,.17,1.62,1.62,0,0,0,0,.18v.27a8.23,8.23,0,0,0,.07,1c0,.21,0,.32,0,.35s.2.21.43.21h.33Z"/><path d="M17.79,47.06v.35a2.24,2.24,0,0,1,0,.36c0,.13-.08.2-.17.22l-.23-.05L17,48h-.17a2.79,2.79,0,0,1-1.17-.18.69.69,0,0,1-.35-.65,1,1,0,0,1,.06-.35.82.82,0,0,1,1-.54,2.93,2.93,0,0,0,.58,0c.27,0,.41-.11.41-.21s-.05-.17-.19-.24a.66.66,0,0,0-.37-.11,4.42,4.42,0,0,0-.45.08l-.44.08c-.14,0-.21,0-.21-.19a.61.61,0,0,1,.08-.3.19.19,0,0,1,.18-.12l.54-.11.29,0a.81.81,0,0,1,.38,0,1.15,1.15,0,0,1,.46.3.93.93,0,0,1,.24.69c0,.07,0,.16,0,.28s0,.24,0,.3S17.78,46.92,17.79,47.06Zm-1.14.34c.47,0,.72-.1.75-.31V47a.43.43,0,0,0-.43-.2h-.34a1.26,1.26,0,0,0-.75.2c-.1.07-.15.13-.15.17s0,.11.14.16a2,2,0,0,0,.51.08Z"/><path d="M20.88,47.76a.29.29,0,0,1-.09.21.19.19,0,0,1-.26,0l-.17-.22-.17-.23L20,47.32a1.1,1.1,0,0,0-.33-.31.23.23,0,0,0-.34.08,3.85,3.85,0,0,0-.37.56c-.14.24-.28.33-.43.26s-.16-.24,0-.53a2.21,2.21,0,0,1,.24-.3l.17-.21a.72.72,0,0,0,.18-.56,2.26,2.26,0,0,0-.32-.52c-.24-.33-.35-.53-.34-.6s.12-.17.29-.17a.25.25,0,0,1,.23.12l.08.14c0-.05.08.08.34.38a1.44,1.44,0,0,0,.19.22c.06,0,.13,0,.21-.08l.16-.21.14-.22c.2-.26.34-.4.43-.4a.22.22,0,0,1,.16.22,1.68,1.68,0,0,1-.47.76,1.29,1.29,0,0,1-.12.12.91.91,0,0,0-.1.13.2.2,0,0,0,0,.27,1.33,1.33,0,0,0,.17.23l.2.21A2,2,0,0,1,20.88,47.76Z"/><path d="M23.72,46.48a1.4,1.4,0,0,1-.12.58,1.32,1.32,0,0,1-1,.79.66.66,0,0,1-.37,0,.47.47,0,0,0-.32,0,.37.37,0,0,0-.11.15c0,.11,0,.28,0,.51a4.68,4.68,0,0,1,0,.57.31.31,0,0,1-.16.19.14.14,0,0,1-.2-.06l-.05-.08s0-.2,0-.59a2.61,2.61,0,0,0,0-.4v-.23c0-.06,0-.27,0-.65a5.35,5.35,0,0,0,0-.65c0-.07,0-.18,0-.31l0-.32-.05-.28a.33.33,0,0,1,.29-.4h0a1.32,1.32,0,0,1,.65-.14,2,2,0,0,1,1,.27A1.28,1.28,0,0,1,23.72,46.48ZM23.07,46a1,1,0,0,0-.67-.25.86.86,0,0,0-.24,0,.61.61,0,0,0-.36.46,1.36,1.36,0,0,0,.05.64V47c.06.16.21.24.46.24a1.48,1.48,0,0,0,.35,0,.74.74,0,0,0,.61-.52A.52.52,0,0,0,23.07,46Z"/><path d="M26.28,47.21l.06.35.05.17a.14.14,0,0,1-.05.16.53.53,0,0,1-.23.08s-.08,0-.16-.1a1,1,0,0,1-.1-.48l-.1.1a3.09,3.09,0,0,1-.59.32.75.75,0,0,1-.68,0,.57.57,0,0,1-.18-.5,1.6,1.6,0,0,1,0-.42l0-.28a1.22,1.22,0,0,0,0-.21l0-.52a2.42,2.42,0,0,0,0-.25c0-.11,0-.2,0-.27a.3.3,0,0,1,.05-.2c.25-.19.37,0,.37.71V46a2.46,2.46,0,0,0,0,.39v.4a1.47,1.47,0,0,0,0,.5c0,.13.15.15.37.06a1.33,1.33,0,0,0,.62-.52,1.12,1.12,0,0,0,.08-.5,1.06,1.06,0,0,0,0-.35v-.27a1.83,1.83,0,0,1,0-.4c0-.09.09-.13.15-.13s.18.07.19.21a4.58,4.58,0,0,1,0,.69l0,.65s0,.16,0,.34S26.28,47.18,26.28,47.21Z"/><path d="M28.39,46.25c0-.08,0-.19,0-.31s0-.14,0-.27a1.68,1.68,0,0,1,0-.4c0-.09.08-.13.15-.13s.18.07.19.21a4.58,4.58,0,0,1,0,.69v.79s0,0,0,0a7.83,7.83,0,0,0,0,.79.37.37,0,0,1-.07.3q-.18.14-.3.06a.25.25,0,0,1-.09-.23,2.89,2.89,0,0,1,.08-.46,1.49,1.49,0,0,0,0-.24l0-.36-.65.07-.34,0-.11,0c0,.06,0,.13,0,.21s0,.22.07.39l0,.2a.17.17,0,0,1-.05.18.3.3,0,0,1-.23.09s-.09,0-.15-.11a.53.53,0,0,1-.1-.37V47a2.51,2.51,0,0,0,0-.55l0-.52s0-.12,0-.25a1.42,1.42,0,0,1,0-.27c0-.1,0-.17.05-.2.24-.19.36,0,.36.71V46a1.11,1.11,0,0,0,0,.26.31.31,0,0,0,.22.07h.66Z"/><path class="cls-3" d="M36.19,19.12a.67.67,0,0,1-.22.73,5.32,5.32,0,0,1,0,.69.81.81,0,0,1-.11.32,1.23,1.23,0,0,1-.17,1.07c-.16.23.18,1.33-.1,1.42l-.16.24c-.27.32-1.25-.46-1.66-.41l-.07.09a2.76,2.76,0,0,1-.57.45,5.14,5.14,0,0,1-.51.29,1.57,1.57,0,0,1-.57.17,2.37,2.37,0,0,1-1.84-.32c-.35-.26-.58-.81-.12-1.11a5.71,5.71,0,0,1,.93-.53l.09-.1.06-.05c-.21-.38-.15-.83.41-1.29a1.53,1.53,0,0,1,.35-.37,3.7,3.7,0,0,1,.11-2,11.92,11.92,0,0,1-.36-1.72.94.94,0,0,1,0-.34l-.55-1.15c-.63-1.32,2.4-1,2.93-.45a6.22,6.22,0,0,1,1.15,1.7.51.51,0,0,1,0,.54A5.88,5.88,0,0,1,36.19,19.12Z"/><path d="M30.47,11.92c1.71,2.27,6.39,6,5.08,9.18-.17.42,1.8.22,2-.34,1.39-3.39-3.4-7.19-5.18-9.56-.32-.42-2.29.25-1.93.72Z"/><path class="cls-3" d="M30.76,23.73a1.22,1.22,0,0,0-.22,1,.92.92,0,0,0-.23.31c-.22.79,1,1.83,1.68,2.12a2.24,2.24,0,0,0,2-.44s0,0,.06-.06l.13-.08a.41.41,0,0,0,.07-.11,1,1,0,0,0,.63-.79.86.86,0,0,0,.5-.77l.18,0c.72.12.44-.58.25-.89a3.07,3.07,0,0,0-1.7-1.39,5.79,5.79,0,0,0-1.9,0h-.06C31.26,22.77,30.85,23.2,30.76,23.73Z"/><path class="cls-4" d="M29.49,32c.22.79,2.37.46,3,.18,1-.46,1.18-1.6,1.48-2.47.19-.55.35-1.11.49-1.68l.49-1.12a.31.31,0,0,0-.18-.44s-.47-1-.43-.94c.74.37-1.15,2-1.89,1.83-.34-.06-1.33-.33-1.46,0s-1.14,0-1.37.53A7.59,7.59,0,0,0,29.49,32Z"/><path class="cls-3" d="M30.77,27.55l2,.18a3.44,3.44,0,0,0,1.78-.34l.13-.05c.22-.11.7-.43.42-.68l-.13-.1h0c.38-.17.49-.43.37-.65a.26.26,0,0,0,0-.39c.27-.35-.33-.92-.18-1.44s-1.41-.24-1.36.24-1.13.41-1.69.86l-.07.07a4.4,4.4,0,0,0-.62.18c-.31.11-.83.34-.81.63a.36.36,0,0,0-.09.22,1.47,1.47,0,0,0-1,.55C29.2,27.42,30.41,27.52,30.77,27.55Z"/><path d="M29.07,22.94c-.59,2.33-2.83,11.53,1.69,10.49,2.47-.56,3.72-2.7,4.64-4.84a25.51,25.51,0,0,0,2.29-8.14c0-.23-2,0-2.06.55-.1,1.6-2.35,11.73-4.66,11.14-1.91-.48-.27-8,.12-9.58.09-.37-1.9-.11-2,.38Z"/><path class="cls-2" d="M19.54,27.23c-.11,0,0,.51,0,.6a3.09,3.09,0,0,1-.09.68c-.14.62,1.13.48,1.25-.08.16-.73.23-2-.73-2.12-.62-.09-1.25.8-.42.92Z"/><path class="cls-2" d="M21.77,26.12c.57.2.48.68.36,1.18s1.13.49,1.25-.08c.21-.9,0-1.63-.91-1.95a.81.81,0,0,0-.87.23.37.37,0,0,0,.17.62Z"/><path class="cls-2" d="M13.77,23.51a1.11,1.11,0,0,0-1.43.19,2.91,2.91,0,0,0-.71,1.5c-.12.57,1.14.41,1.25-.11a2.57,2.57,0,0,1,.2-.65,1.74,1.74,0,0,1,.15-.26c.12-.13.12-.15,0,0h-.46l.08.05c.38.33,1.47-.23.95-.68Z"/><path class="cls-2" d="M12.32,21.28a1.38,1.38,0,0,0-1.59,1c-.12.33,1.09.19,1.23-.18a1.17,1.17,0,0,1,.29-.52l-.34.21.13,0-.62.09.13,0a1.14,1.14,0,0,0,.87-.24c.19-.16.15-.32-.1-.36Z"/><path class="cls-2" d="M24.66,23.49l.08-.07-.87.23c.25,0,.14.75.09.89a.16.16,0,0,0,.05.16.79.79,0,0,1,.25.8c-.08.49,1.17.28,1.23-.15a1.52,1.52,0,0,0-.18-1c-.1-.23,0-.49-.07-.77-.2-.78-1-.76-1.57-.32-.21.18-.12.38.11.45a1.12,1.12,0,0,0,.88-.24Z"/><path class="cls-2" d="M28.12,22.49A2.3,2.3,0,0,0,28,20.43a1.1,1.1,0,0,0-1.65.07c-.5.54.7.58,1,.24l.06,0-.46.16c-.21,0,0,.17,0,.31a1.79,1.79,0,0,1,.09.46,2.46,2.46,0,0,1-.15,1c-.17.45,1.07.3,1.23-.14Z"/><circle class="cls-4" cx="18.62" cy="15.42" r="13.3"/><ellipse cx="13.45" cy="22.93" rx="1.5" ry="1.96"/><ellipse cx="23.36" cy="22.93" rx="1.5" ry="1.96"/><path d="M6.36,15.31c.35-7,5.71-13.25,13.24-12.46A12.8,12.8,0,0,1,30.82,15.61c0,7.47-6.72,13.8-14.36,12.13-6.13-1.34-9.8-6.53-10.11-12.6,0-.78-2.09-.33-2,.55C5.21,33.79,33,33.17,33,15.23c-.1-18.32-27.76-17.44-28.66.29C4.25,16.47,6.32,16.11,6.36,15.31Z"/><path class="cls-9" d="M16.65,20.25c-.17-.58-.36-1.39-.94-1.7a1.45,1.45,0,0,0-.85-.09c-.5,0-.63.28-.93-.15s-.2-.88-.95-1.09a2.16,2.16,0,0,0-.76-.06,2.79,2.79,0,0,0-.57.14c-.33.09-.35.12-.07.08a1.52,1.52,0,0,0-1.58.55L8.67,19.84c-.59.84,1.49.77,1.93.13l1.34-1.91-1.58.56c.5.15.87-.05,1.34,0s.14-.1.18.38a.85.85,0,0,0,.23.52c.64.73,1.88.31,2.68.23l-.69-.12c.26.19.41.89.49,1.17.24.82,2.3.26,2.06-.55Z"/><path class="cls-9" d="M22.21,20.13a2.28,2.28,0,0,1,.62-1.1l-1.63.37c.33.07.57.36.93.41a2.68,2.68,0,0,0,1.28-.17,2.5,2.5,0,0,0,.92-.5c.29-.28.36-.89.65-1.1l-1.63.37c.6.14.81.49,1.47.43a2.26,2.26,0,0,0,1.51-.64l-1.9.43,1.44,1.21c.42.35,2.23-.45,1.94-.7l-1.44-1.21c-.37-.3-1.62.1-1.9.43l-.13.16,1.6-.5c-.32,0-.53-.31-.83-.38a2,2,0,0,0-1,.07,2.29,2.29,0,0,0-1,.53,2,2,0,0,0-.22.34c-.25.41-.38.48.23.43.84-.07.15-.32-.19-.4a2.25,2.25,0,0,0-1.06.13,2.56,2.56,0,0,0-1.65,1.76c-.12.36,1.84.16,2-.37Z"/><path class="cls-10" d="M22.77,8.54a4.22,4.22,0,0,0,.36,2.82,3,3,0,0,0,2.29,1.57,2.29,2.29,0,0,0,2.29-1.42,3,3,0,0,0,.84,2.5,2.46,2.46,0,0,0,2.53.54,2.11,2.11,0,0,0,1.31-2.17,1,1,0,0,0,1.09-.68,2.88,2.88,0,0,0,.11-1.37A4,4,0,0,0,32.82,8a1.52,1.52,0,0,0-2.19-.18,1.81,1.81,0,0,0,.29-1.77,3.89,3.89,0,0,0-1.05-1.53,2.07,2.07,0,0,0-.9-.6.83.83,0,0,0-.95.36,5.38,5.38,0,0,0-1-1.9,2.12,2.12,0,0,0-1.95-.69,1.36,1.36,0,0,0-1,1.63,4.64,4.64,0,0,0-1.94-2c-.87-.35-2.1.07-2.22,1-.94-.77-2.12-1.55-3.29-1.22a2.93,2.93,0,0,0-1.85,2.59c-.87-.62-2.26-1.71-3.3-1.41s-1.55,2.2-1.14,3.19A2.64,2.64,0,0,0,7,5.44a2.63,2.63,0,0,0-.52,3.29c-.52,0-.87.52-1,1a4.15,4.15,0,0,0,.74,3.57,1.37,1.37,0,0,0-1.21,1,2.39,2.39,0,0,0,.1,1.62,2.37,2.37,0,0,0,2.29,1.71A1.62,1.62,0,0,0,8.42,15c.35.3.86-.12,1.05-.54a3,3,0,0,0-.11-2.58A1.82,1.82,0,0,0,11.7,9.71a1.19,1.19,0,0,0,2.3.1c.05-.15-.11-.39-.19-.26"/><path class="cls-9" d="M21.73,8.61c-.18,4,4.16,7.3,6.85,3.23l-1.89-.06c.44,4.8,4.78,4.15,6.68,1.15.85-1.34,1.87-2.08,1-4.11s-2.09-2.39-4-1.73L31.62,8c1.15-2.55-1.73-6.32-4.29-4.19L29,4C27.88,1.18,23.64-.83,23,3.4l2-.53C23.3.6,20.59-.71,18.88,2.23l1.78-.47c-3-2.18-5.95-1.74-7,2.05l1.83-.68c-3-2.07-7-2-6.26,2.67l1.62-1C8.3,3.44,6,4.37,5.13,7.07c-.2.62.17,1,.09,1.4,0,.19-.53.5-.59.79a5.34,5.34,0,0,0,.61,4.52l.48-1.11a3,3,0,0,0,.21,5.52,2.64,2.64,0,0,0,3.51-3.5l-1.1,1.07c2.38,0,2.55-2.29,2.05-4.19L9,12.63c2.12.1,3.64-.69,3.72-3l-2,.53c1,1.62,4.69,1.57,4.22-.87-.06-.31-.41-.46-.68-.51l-.15,0c-1.05-.18-2.06,1.33-.69,1.56l-.82-1.09c-.43-.68-2-.26-2,.53l-.95,1.3c-.55,0-1.58.29-1.37,1l.16,2.06c-.42,0-1.36.49-1.11,1.06L6.65,14a.8.8,0,0,0,.47-1.11L6.91,9.38c.31-.15.68-.54.56-.92L9.71,6.24c.63.34,1.73-.24,1.61-1L14,4.35a1.24,1.24,0,0,0,1.83-.68L19.09,3a1.29,1.29,0,0,0,1.77-.47L23.1,3.79a1.2,1.2,0,0,0,2-.53L27,4.56c.27.67,1.23.64,1.72.23a2.37,2.37,0,0,1,.94,2.9c-.32.72.64,1.08,1.18.89l1.36,3.05a1.1,1.1,0,0,0-.84.81l-2.61-1.21c-.08-.82-1.58-.52-1.89-.05l-3-2.7c.05-1.11-2-.85-2.08.13Z"/><path class="cls-10" d="M15.75,6.26c-.61.73,0,2.69.09,3.6s.63,1.9,1.53,1.46c-.17.56.24,1,.47,1.6a1.32,1.32,0,0,0,1.56.73c.64-.24,1-.55,1.08-1.17,0-.79-.05-1.58,0-2.38.3.36.87-.18,1.17-.55a1.3,1.3,0,0,0,.07-1.31c-.19-.42,0-1.9-.26-2.31"/><path class="cls-9" d="M14.73,6.43c-.61,1-.14,2.8.11,3.9.32,1.46,1.28,1.73,2.63,1.34l-1.13-.08A2.33,2.33,0,0,0,19.49,14c2.28-.63,2-2.13,2-4.17l-1.86.69a2.73,2.73,0,0,0,3-1.09c.42-.65.16-1.1.05-1.81a11.84,11.84,0,0,0-.19-2c-.17-.52-2.21.08-2.05.55S21,9.72,20.38,10l1.21-.15-.27-.11c-.41-.18-1.86.13-1.87.69,0,.22.11,2.75-.17,2.74-.57,0-.91-1.68-.88-2.08s-1-.09-1.12-.07-.37-1.13-.42-1.39-.08-.62-.13-.93a3.75,3.75,0,0,1,0-2.56c.18-.3-1.71-.19-2,.34Z"/><path d="M50.59,11l-.88,10.89c-.11,1.36,2,1.36,2.12,0L52.71,11c.11-1.37-2-1.36-2.12,0Z"/><rect class="cls-4" x="46.68" y="-4.1" width="9.94" height="23.17" transform="translate(37.58 57.75) rotate(-82.61)"/><path d="M62.5,12.85l-23-3,1.07,1.06,1.27-9.86L40.8,2.13l23,3L62.72,4.05l-1.28,9.86c-.18,1.35,2,1.34,2.12,0l1.28-9.86c.08-.62-.55-1-1.06-1.06l-23-3c-.62-.08-1,.55-1.06,1.06l-1.28,9.86c-.08.62.56,1,1.06,1.06l23,3C63.85,15.15,63.84,13,62.5,12.85Z"/><path d="M45,7.57a1.11,1.11,0,0,1,0,.27A.26.26,0,0,1,44.9,8a.12.12,0,0,1-.16,0,.24.24,0,0,1-.11-.14.92.92,0,0,1,0-.47l.08-.49c0-.17-.09-.27-.23-.28a1,1,0,0,0-.26,0h-.28a1,1,0,0,0-.53.07c-.09,0-.15.12-.21.26s0,.36,0,.46a.94.94,0,0,1-.07.42.29.29,0,0,1-.21.08s-.07-.06-.1-.14a.7.7,0,0,1,0-.42l.18-1c0-.26.08-.51.12-.76l0-.44a.78.78,0,0,1,0-.18.23.23,0,0,1,.15-.12c.09,0,.14,0,.16.07l0,.06a1.49,1.49,0,0,1-.1.44,3.66,3.66,0,0,0-.07.42.85.85,0,0,0,.11.21,3.42,3.42,0,0,1,.51.07,2.86,2.86,0,0,0,.55,0A.28.28,0,0,0,44.79,6l0-.28V5.44a1.7,1.7,0,0,1,0-.25A.36.36,0,0,1,44.91,5a.16.16,0,0,1,.29.11l0,.3,0,.22a2,2,0,0,0-.07.3s0,.13,0,.23a8.53,8.53,0,0,0-.06.92Z"/><path d="M47.47,7.66l0,.29c0,.15,0,.25,0,.29s-.09.15-.17.16L47,8.34l-.33,0-.14,0A2.06,2.06,0,0,1,45.64,8a.56.56,0,0,1-.22-.57.77.77,0,0,1,.08-.27.67.67,0,0,1,.84-.35,1.79,1.79,0,0,0,.48,0c.23,0,.34,0,.36-.12s0-.14-.13-.22a.56.56,0,0,0-.29-.12,2.7,2.7,0,0,0-.38,0l-.37,0q-.18,0-.15-.18A.54.54,0,0,1,46,6,.16.16,0,0,1,46.12,6l.45,0h.24a.71.71,0,0,1,.31.08,1,1,0,0,1,.34.3.75.75,0,0,1,.13.59c0,.05,0,.13,0,.22s0,.2,0,.24S47.48,7.54,47.47,7.66Zm-1,.16c.38,0,.6,0,.65-.17l0-.09c0-.12-.15-.19-.34-.21l-.27,0a1,1,0,0,0-.63.09.28.28,0,0,0-.15.12s0,.09.1.14a1.36,1.36,0,0,0,.41.13Z"/><path d="M51.76,8.8a.22.22,0,0,1-.09.16.14.14,0,0,1-.21,0l-.12-.19-.11-.21a1.28,1.28,0,0,1-.12-.21.81.81,0,0,0-.24-.29.19.19,0,0,0-.29,0,3,3,0,0,0-.35.42c-.14.18-.27.23-.39.16s-.1-.21.08-.42L50.15,8l.17-.15a.57.57,0,0,0,.2-.43,1.9,1.9,0,0,0-.2-.46c-.17-.3-.24-.48-.22-.53s.12-.13.26-.11a.2.2,0,0,1,.17.12l.06.13.23.34.13.21s.1,0,.18,0l.16-.16.14-.16c.18-.2.31-.29.38-.29a.18.18,0,0,1,.11.2c0,.12-.17.31-.46.58l-.11.09-.1.08a.19.19,0,0,0,0,.23,1.44,1.44,0,0,0,.11.2l.14.19A1.5,1.5,0,0,1,51.76,8.8Z"/><path d="M54.23,8.06a1.23,1.23,0,0,1-.17.45,1.07,1.07,0,0,1-.93.54.59.59,0,0,1-.3,0c-.13-.06-.22-.08-.26-.06a.22.22,0,0,0-.1.11c0,.08,0,.22,0,.41a2.12,2.12,0,0,1-.06.47.21.21,0,0,1-.15.14c-.07,0-.12,0-.15-.07l0-.07s0-.17.09-.48l.06-.32V9s0-.23.07-.54a2.59,2.59,0,0,0,0-.53,2.21,2.21,0,0,0,0-.26v-.5a.25.25,0,0,1,.07-.21.24.24,0,0,1,.2-.09h0a1.13,1.13,0,0,1,.54,0,1.74,1.74,0,0,1,.82.33A1.12,1.12,0,0,1,54.23,8.06Zm-.49-.46a.78.78,0,0,0-.52-.27.44.44,0,0,0-.2,0,.47.47,0,0,0-.34.33,1.08,1.08,0,0,0,0,.53v0c0,.14.14.22.35.24a.87.87,0,0,0,.28,0,.62.62,0,0,0,.56-.37A.43.43,0,0,0,53.74,7.6Z"/><path d="M56.61,8.84l0,.3c0,.15,0,.25,0,.29s-.09.15-.17.16l-.18-.07-.33,0h-.14a2.35,2.35,0,0,1-.93-.27.59.59,0,0,1-.22-.58.77.77,0,0,1,.08-.27A.68.68,0,0,1,55.48,8a1.77,1.77,0,0,0,.48.05c.22,0,.34-.05.35-.12s0-.15-.12-.23a.56.56,0,0,0-.29-.12h-.38l-.37,0q-.18,0-.15-.18a.5.5,0,0,1,.1-.23.15.15,0,0,1,.16-.08l.45,0H56a.59.59,0,0,1,.31.08.85.85,0,0,1,.34.29.76.76,0,0,1,.13.59c0,.06,0,.13,0,.23s0,.19,0,.24S56.62,8.73,56.61,8.84Zm-1,.16c.38.05.6,0,.65-.17l0-.09A.37.37,0,0,0,56,8.53l-.27,0a1.08,1.08,0,0,0-.64.08c-.08,0-.13.09-.14.13s0,.09.1.14a2,2,0,0,0,.41.12Z"/><path d="M56.94,9.6a.19.19,0,0,1,0-.22c0-.05.1-.25.25-.58s.24-.5.28-.61a1.66,1.66,0,0,0,.08-.31,1.74,1.74,0,0,1,.09-.31.37.37,0,0,1,.23-.21.25.25,0,0,1,.28,0,1.25,1.25,0,0,1,.14.54c0,.19.06.29.09.29s.09,0,.15-.14a3.55,3.55,0,0,1,.33-.51.25.25,0,0,1,.2-.07.24.24,0,0,1,.21.22c0,.06,0,.16,0,.29l0,.31a6,6,0,0,0,.08.61c0,.28.07.49.08.64v0a.18.18,0,0,1-.12.2.19.19,0,0,1-.22,0A1,1,0,0,1,59,9.34c0-.17,0-.33-.07-.47-.06-.32-.13-.46-.19-.4a1.13,1.13,0,0,0-.2.4l-.09.35a1.59,1.59,0,0,1-.12.34.19.19,0,0,1-.2.12.21.21,0,0,1-.18-.2c0-.05,0-.15,0-.31a1.56,1.56,0,0,0,0-.31s0-.06,0-.13,0-.11,0-.15,0-.18-.1-.18-.17.17-.32.59a1.69,1.69,0,0,1-.29.62A.22.22,0,0,1,56.94,9.6Z"/><path d="M60.36,9.86a.15.15,0,0,1-.1.14.61.61,0,0,1-.4.12c-.16,0-.22-.13-.17-.3s.17-.18.38-.17h0a.3.3,0,0,1,.15,0C60.34,9.75,60.37,9.8,60.36,9.86Zm.55-2.46-.27.74s0,.11-.08.22a1,1,0,0,0-.09.22s0,.16-.1.45a.34.34,0,0,1-.09.14.18.18,0,0,1-.2,0A.15.15,0,0,1,60,9l.06-.2s0-.05.05-.14l0-.16a1.73,1.73,0,0,0,.08-.21c0-.07,0-.2.08-.38a3.87,3.87,0,0,0,.08-.39l0-.17c0-.08,0-.14,0-.18s0-.26.11-.27a.56.56,0,0,1,.24,0c.12,0,.19,0,.2.07A.77.77,0,0,1,60.91,7.4Z"/><ellipse class="cls-1" cx="55.45" cy="31.39" rx="7.19" ry="6.51" transform="matrix(0.84, -0.54, 0.54, 0.84, -8.18, 34.64)"/><path class="cls-2" d="M60.57,28c3.59,6.36-6.17,13.37-10.25,6.84C46.41,28.55,56.15,21.75,60.57,28c.5.7,2.47-.06,1.89-.88-5.39-7.57-19.26.49-14,8.6,5.09,7.87,18.73-.27,14-8.6C62,26.35,60.07,27.08,60.57,28Z"/><ellipse class="cls-11" cx="53.33" cy="30.59" rx="2.12" ry="1.86"/><ellipse class="cls-11" cx="58.28" cy="28.94" rx="1.26" ry="1.43" transform="translate(24.74 84.7) rotate(-85.38)"/><ellipse class="cls-11" cx="57.17" cy="34.1" rx="1.26" ry="1.43" transform="translate(18.58 88.33) rotate(-85.38)"/><ellipse class="cls-11" cx="66.88" cy="34.1" rx="1.26" ry="1.43" transform="translate(27.51 98.02) rotate(-85.38)"/><ellipse class="cls-11" cx="55.45" cy="41.43" rx="1.26" ry="1.43" transform="translate(9.69 93.36) rotate(-85.38)"/><rect class="cls-12" x="55.4" y="22.76" width="4.05" height="7.88" transform="translate(31.01 -30.86) rotate(40.42)"/><ellipse class="cls-12" cx="57.34" cy="26.79" rx="1.26" ry="1.43" transform="translate(-2.17 48.36) rotate(-44.96)"/><rect class="cls-13" x="54.68" y="26.91" width="7.88" height="4.05" transform="translate(-6.67 25.59) rotate(-23.34)"/><rect class="cls-14" x="54.68" y="26.91" width="7.88" height="4.05" transform="translate(-6.67 25.59) rotate(-23.34)"/><ellipse class="cls-13" cx="58.5" cy="28.99" rx="1.26" ry="1.43" transform="translate(-6.21 20.31) rotate(-18.72)"/><ellipse class="cls-14" cx="58.5" cy="28.99" rx="1.26" ry="1.43" transform="translate(-6.21 20.31) rotate(-18.72)"/><rect class="cls-13" x="58.99" y="34.3" width="4.05" height="7.88" transform="translate(-2.15 72.81) rotate(-60.77)"/><rect class="cls-14" x="58.99" y="34.3" width="4.05" height="7.88" transform="translate(-2.15 72.81) rotate(-60.77)"/><ellipse class="cls-13" cx="61.13" cy="38.3" rx="1.43" ry="1.26" transform="translate(-4.73 67.73) rotate(-56.15)"/><ellipse class="cls-14" cx="61.13" cy="38.3" rx="1.43" ry="1.26" transform="translate(-4.73 67.73) rotate(-56.15)"/><rect class="cls-15" x="67.65" y="27.95" width="4.05" height="7.88" transform="translate(4.26 71.79) rotate(-55.97)"/><rect class="cls-16" x="67.65" y="27.95" width="4.05" height="7.88" transform="translate(4.26 71.79) rotate(-55.97)"/><ellipse class="cls-15" cx="69.78" cy="31.96" rx="1.43" ry="1.26" transform="translate(1.24 66.5) rotate(-51.35)"/><ellipse class="cls-16" cx="69.78" cy="31.96" rx="1.43" ry="1.26" transform="translate(1.24 66.5) rotate(-51.35)"/></g></svg>