<svg xmlns="http://www.w3.org/2000/svg" viewBox="0 0 74.33 69.55"><defs><style>.cls-1{fill:#fff;}.cls-2{fill:#232342;}.cls-3{fill:#1a1a1a;}.cls-4{fill:#333;}.cls-5{fill:none;stroke:#fff;stroke-linejoin:bevel;stroke-width:2.13px;}</style></defs><title>personaji_3</title><g id="Слой_1" data-name="Слой 1"><path class="cls-1" d="M73.62,10.68v6a3.56,3.56,0,0,1-3.56,3.57l-36.3-.42c-2.36,3.41-12.68,6-12.68,6a8.76,8.76,0,0,0,2.6-6.15c-1.95,0-4.45-1-4.45-2.95v-6A3.58,3.58,0,0,1,22.81,7.1H70.06A3.57,3.57,0,0,1,73.62,10.68Z"/><path d="M73,10.68c0,3,1,7.81-3.06,8.93-1.23.34-3,0-4.29-.05L47,19.35l-8.48-.1c-1.28,0-3.31-.44-4.55-.05-1.64.51-3.05,2.23-4.73,3.05a42.37,42.37,0,0,1-8.35,2.91l.62,1.07a9.93,9.93,0,0,0,2.79-6.6.65.65,0,0,0-.64-.64c-5.64-.62-4.92-9.48-.76-11.25.82-.35,2.61,0,3.48,0H60.92c2.91,0,11.34-1.58,12.09,3.11.13.81,1.36.46,1.23-.34-.91-5.66-8.38-4-12.52-4H25.35c-1.66,0-3.54-.24-5,.78-2.47,1.74-2,6.1-1.78,8.68A4.05,4.05,0,0,0,19.78,19c.25.23,2.4,1,2.52,1.11,1.36,1.65-.47,3.91-1.67,5.22a.64.64,0,0,0,.62,1.06,46.79,46.79,0,0,0,8.16-2.8c1.88-.86,3.58-2.69,5.2-3.11,2.14-.55,5.21.06,7.41.09l10.88.12c5.46.06,11.29.73,16.73.19,5.66-.56,4.63-5.85,4.63-10.2A.64.64,0,0,0,73,10.68Z"/><path d="M25.69,12.26c-.11.08-.19.1-.24.05s-.09-.1-.09-.21,0-.2,0-.38a1.13,1.13,0,0,0,0-.23l0-.57a1.18,1.18,0,0,0-.08-.59c0-.09-.3-.09-.8,0-.18,0-.27.22-.28.56q0,.25,0,.57c0,.09,0,.21.07.37l0,.19a.17.17,0,0,1-.05.17.28.28,0,0,1-.22.09s-.08,0-.14-.11a.54.54,0,0,1-.09-.35l0-.84c0-.35,0-.62,0-.8a.32.32,0,0,1,0-.21A.21.21,0,0,1,24,9.82l.17,0,.43-.06a1.77,1.77,0,0,1,.54,0c.32,0,.5.06.53.17a1.48,1.48,0,0,1,0,.63c0-.08,0,.17,0,.75a4.51,4.51,0,0,0,0,.73A.38.38,0,0,1,25.69,12.26Z"/><path d="M28.65,11a1.29,1.29,0,0,1-1.08,1.29.82.82,0,0,1-.35,0q-.22-.08-.3,0a.32.32,0,0,0-.1.14c0,.1,0,.26,0,.48a2.12,2.12,0,0,1,0,.54.28.28,0,0,1-.15.17.12.12,0,0,1-.18-.06l-.05-.07s0-.19,0-.55c0-.12,0-.25,0-.37v-.84a4.59,4.59,0,0,0,0-.6c0-.07,0-.17,0-.3l0-.29-.05-.27a.29.29,0,0,1,.05-.24.31.31,0,0,1,.22-.13h0a1.37,1.37,0,0,1,.61-.13,1.8,1.8,0,0,1,1,.26A1.22,1.22,0,0,1,28.65,11Zm-.6-.44a.91.91,0,0,0-.63-.23.53.53,0,0,0-.23,0,.56.56,0,0,0-.34.42,1.37,1.37,0,0,0,0,.61v0c.05.15.2.23.43.23a1.13,1.13,0,0,0,.32,0,.69.69,0,0,0,.58-.49A.5.5,0,0,0,28.05,10.51Z"/><path d="M29.62,11.36a1.63,1.63,0,0,0-.21-.17.65.65,0,0,1-.25-.37.74.74,0,0,1,0-.27.54.54,0,0,1,.07-.27,1.08,1.08,0,0,1,.61-.5,1.69,1.69,0,0,1,.56-.09,3.1,3.1,0,0,1,.59,0c.26,0,.36.14.29.33a.47.47,0,0,0-.1.35.78.78,0,0,1,0,.19c0,.19,0,.37,0,.56v.17c0,.07,0,.28.08.65a.37.37,0,0,1-.06.25.18.18,0,0,1-.21.1c-.08,0-.12-.08-.14-.18v-.33a1,1,0,0,0,0-.25c0-.07-.06-.1-.19-.1a.92.92,0,0,0-.25,0,1,1,0,0,0-.2.15l-.24.26-.24.26a.52.52,0,0,1-.26.21.15.15,0,0,1-.15,0c-.05,0-.08-.07-.08-.11a.24.24,0,0,1,.05-.14l.38-.62A.12.12,0,0,0,29.62,11.36Zm1-1.16a.87.87,0,0,0-.55,0c-.27.09-.42.23-.46.41s0,.2.15.28a1.15,1.15,0,0,0,.5.11l.31,0a.26.26,0,0,0,.11-.07.26.26,0,0,0,.06-.13v-.13C30.77,10.39,30.72,10.24,30.63,10.2Z"/><path d="M31.64,12.3a.23.23,0,0,1-.07-.25,7.18,7.18,0,0,1,.2-.69c.12-.35.19-.59.22-.72a2.06,2.06,0,0,0,.05-.36,2.05,2.05,0,0,1,.05-.37.41.41,0,0,1,.23-.27.28.28,0,0,1,.33,0,1.56,1.56,0,0,1,.23.59c.06.21.11.31.14.31s.1-.06.15-.18a6,6,0,0,1,.3-.62.28.28,0,0,1,.22-.11.25.25,0,0,1,.26.21,2.78,2.78,0,0,1,.06.34l.06.34c0,.14.09.37.19.68s.14.53.18.7v0a.2.2,0,0,1-.11.25.23.23,0,0,1-.25,0,1.19,1.19,0,0,1-.18-.5q-.07-.29-.15-.51c-.12-.36-.21-.5-.28-.42a1.31,1.31,0,0,0-.16.48s0,.17-.06.41a1.22,1.22,0,0,1-.08.4.22.22,0,0,1-.2.16.23.23,0,0,1-.23-.2,1.56,1.56,0,0,1,0-.35,1.24,1.24,0,0,0-.05-.35.82.82,0,0,0,0-.14,1.46,1.46,0,0,0,0-.17c0-.13-.09-.2-.14-.19s-.17.22-.27.71-.18.7-.25.74A.23.23,0,0,1,31.64,12.3Z"/><path d="M36.63,11.64l0,.32,0,.16c0,.07,0,.12,0,.15a.37.37,0,0,1-.22.08.44.44,0,0,1-.15-.09,1.09,1.09,0,0,1-.09-.45l-.09.09a3.73,3.73,0,0,1-.55.3.7.7,0,0,1-.64,0,.53.53,0,0,1-.18-.47,1.87,1.87,0,0,1,0-.39l0-.27v-.2l0-.48a1.34,1.34,0,0,0,0-.23c0-.11,0-.2,0-.26a.29.29,0,0,1,0-.19c.23-.18.34.05.34.66v.05a2.23,2.23,0,0,0,0,.37v.38a1.25,1.25,0,0,0,0,.46c0,.12.14.14.35.06a1.27,1.27,0,0,0,.58-.49,1.14,1.14,0,0,0,.08-.47,1.27,1.27,0,0,0,0-.33,1.43,1.43,0,0,1,0-.25,1.52,1.52,0,0,1,0-.37c0-.09.08-.13.15-.13s.16.07.18.2a6,6,0,0,1,0,.65l0,.61s0,.14,0,.32S36.62,11.6,36.63,11.64Z"/><path d="M39.47,12.15s0,.1-.13.17-.21,0-.47-.28l-.22-.25-.21-.24a2.33,2.33,0,0,0-.49-.43.18.18,0,0,0-.22,0l0,0a.53.53,0,0,0-.06.22v.11l0,.21,0,.25a.25.25,0,0,1-.06.22.31.31,0,0,1-.21.11s-.08,0-.13-.13a.93.93,0,0,1-.09-.47V10.61a6.42,6.42,0,0,1,0-.9.27.27,0,0,1,.14-.16c.08,0,.13,0,.18.07l0,.06a1.94,1.94,0,0,1,0,.45,1.8,1.8,0,0,0,0,.2c0,.14.09.21.25.21a.36.36,0,0,0,.2-.06,2.42,2.42,0,0,0,.54-.56A.91.91,0,0,1,39,9.53c.13,0,.18,0,.18.13a1.43,1.43,0,0,1-.08.26,2.06,2.06,0,0,1-.32.41,1.33,1.33,0,0,1-.14.19,1.16,1.16,0,0,0-.13.2c0,.06.12.28.4.64l.22.31.2.31A.35.35,0,0,1,39.47,12.15Z"/><path d="M42.38,10.89a1.46,1.46,0,0,1-.14.6,2.29,2.29,0,0,1-.36.6.79.79,0,0,1-.61.24,2.48,2.48,0,0,1-.53-.07c-.54-.13-.81-.54-.81-1.24a1.62,1.62,0,0,1,0-.31,1.37,1.37,0,0,1,.38-.79.9.9,0,0,1,.8-.28h.11a2.79,2.79,0,0,1,.49.1A1.23,1.23,0,0,1,42.38,10.89Zm-.46-.39a.66.66,0,0,0-.43-.27h-.23c-.17,0-.23,0-.19,0l-.07,0a1,1,0,0,0-.48.34.84.84,0,0,0-.23.5.53.53,0,0,0,.25.46.83.83,0,0,0,.55.14,1.09,1.09,0,0,0,.56-.22A.84.84,0,0,0,42,11,.56.56,0,0,0,41.92,10.5Z"/><path d="M42.75,12.3a.21.21,0,0,1-.07-.25c0-.06.07-.29.19-.69a6.35,6.35,0,0,0,.23-.72c0-.08,0-.2,0-.36a1.42,1.42,0,0,1,.05-.37.39.39,0,0,1,.23-.27.27.27,0,0,1,.32,0,1.5,1.5,0,0,1,.24.59c.06.21.1.31.14.31s.1-.06.15-.18c.17-.39.27-.59.29-.62a.29.29,0,0,1,.22-.11.26.26,0,0,1,.27.21,2.78,2.78,0,0,1,.06.34l.06.34c0,.14.09.37.19.68s.14.53.17.7v0a.2.2,0,0,1-.11.25.22.22,0,0,1-.25,0,1.15,1.15,0,0,1-.19-.5,3.09,3.09,0,0,0-.15-.51c-.11-.36-.21-.5-.27-.42a1.15,1.15,0,0,0-.16.48s0,.17-.06.41a1.55,1.55,0,0,1-.08.4.22.22,0,0,1-.2.16.24.24,0,0,1-.24-.2,3.42,3.42,0,0,1,0-.35,1.78,1.78,0,0,0-.05-.35l0-.14a1.22,1.22,0,0,0,0-.17c0-.13-.08-.2-.13-.19s-.18.22-.28.71-.17.7-.24.74S42.82,12.35,42.75,12.3Z"/><path d="M25.67,16.19l.06.32,0,.16a.13.13,0,0,1,0,.15.4.4,0,0,1-.22.08.31.31,0,0,1-.15-.09.9.9,0,0,1-.1-.45s0,.05-.09.09a3.29,3.29,0,0,1-.55.3c-.29.12-.5.13-.63,0a.53.53,0,0,1-.18-.47,1.87,1.87,0,0,1,0-.39l0-.27s0-.11,0-.2l0-.48s0-.11,0-.23a1.38,1.38,0,0,1,0-.26.3.3,0,0,1,0-.19c.23-.17.34,0,.34.66v0c0,.08,0,.21,0,.37v.38a1.06,1.06,0,0,0,0,.46c0,.12.13.14.34.06a1.22,1.22,0,0,0,.58-.49,1.14,1.14,0,0,0,.08-.47,1.27,1.27,0,0,0,0-.33s0-.12,0-.25a1.39,1.39,0,0,1,0-.37c0-.09.08-.13.14-.13s.17.07.18.2a6,6,0,0,1,0,.65l0,.61s0,.15,0,.32S25.67,16.15,25.67,16.19Z"/><path d="M26.74,15.48c0-.12,0-.19.07-.2l.25,0c.37,0,.54-.13.52-.32a.35.35,0,0,0-.17-.17.81.81,0,0,0-.22-.07l-.22,0a.77.77,0,0,0-.4.12c-.13.09-.23.1-.28,0a.24.24,0,0,1,0-.25.42.42,0,0,1,.25-.26,1,1,0,0,1,.41-.1,1.23,1.23,0,0,1,.46,0,.89.89,0,0,1,.38.15.79.79,0,0,1,.22.23,1.18,1.18,0,0,1,.05.29.55.55,0,0,1-.07.3.75.75,0,0,1-.12.14.73.73,0,0,1,.34.41.88.88,0,0,1,.06.33.69.69,0,0,1-.34.64,2,2,0,0,1-1.06.22.8.8,0,0,1-.33-.08.76.76,0,0,1-.29-.28c-.08-.14-.06-.24.07-.3a.24.24,0,0,1,.29,0,.49.49,0,0,0,.28.13,1.53,1.53,0,0,0,.38,0,1.48,1.48,0,0,0,.44-.14.25.25,0,0,0,.13-.2.27.27,0,0,0-.11-.21.92.92,0,0,0-.62-.17Q26.77,15.68,26.74,15.48Z"/><path d="M32.56,15.4a.69.69,0,0,1,.33.4.83.83,0,0,1,.06.32.64.64,0,0,1-.33.61,2.4,2.4,0,0,1-1,.16h-.17l-.37,0h-.19a.3.3,0,0,1-.19-.23,1.49,1.49,0,0,1,0-.24V16c0-.13,0-.24,0-.35a1.9,1.9,0,0,1,0-.28c0-.21,0-.35,0-.41a2.07,2.07,0,0,1,0-.4.33.33,0,0,1,.12-.21.93.93,0,0,1,.36-.12,3.78,3.78,0,0,1,.82,0,1.06,1.06,0,0,1,.41.16.86.86,0,0,1,.21.22,1,1,0,0,1,.06.31.54.54,0,0,1-.07.29A.29.29,0,0,1,32.56,15.4Zm-.64,1a1.86,1.86,0,0,0,.48-.08c.09-.07.14-.13.13-.18s-.05-.11-.14-.19a1.21,1.21,0,0,0-.7-.18h-.25A.47.47,0,0,0,31,16v.11c0,.22.24.32.63.32Zm.24-1.58-.22-.06a.86.86,0,0,0-.28,0c-.27,0-.42,0-.48.1a.42.42,0,0,0,0,.29c0,.1.13.15.38.15a1.26,1.26,0,0,0,.3,0c.4-.06.56-.16.49-.31A.3.3,0,0,0,32.16,14.81Z"/><path d="M35.66,16v.34a2.3,2.3,0,0,1,0,.33.23.23,0,0,1-.17.21l-.21,0-.37,0h-.17a2.46,2.46,0,0,1-1.09-.17.64.64,0,0,1-.33-.61.83.83,0,0,1,.06-.32.75.75,0,0,1,.89-.51,2.64,2.64,0,0,0,.55,0c.25,0,.38-.09.38-.19s0-.16-.17-.23a.58.58,0,0,0-.35-.09,2.84,2.84,0,0,0-.42.06l-.42.08c-.13,0-.2,0-.2-.18a.67.67,0,0,1,.08-.28.2.2,0,0,1,.17-.11l.51-.11.27,0a.72.72,0,0,1,.36.05,1.07,1.07,0,0,1,.43.28.89.89,0,0,1,.23.65c0,.06,0,.15,0,.26s0,.23,0,.27S35.66,15.91,35.66,16Zm-1.06.32c.43,0,.67-.09.7-.28V16a.42.42,0,0,0-.41-.19h-.31a1.24,1.24,0,0,0-.71.18c-.09.07-.14.12-.14.17s0,.09.13.14a1.86,1.86,0,0,0,.48.08Z"/><path d="M36.31,14.87a2,2,0,0,1,0-.37.22.22,0,0,1,.24-.2.18.18,0,0,1,.21.15.73.73,0,0,1,0,.36,1.34,1.34,0,0,0,0,.41c0,.09,0,.19,0,.3s0,.24,0,.38a.29.29,0,0,0,.25.32.52.52,0,0,0,.43,0,1.1,1.1,0,0,0,.26-.72,2.18,2.18,0,0,0,0-.39.72.72,0,0,1,0-.17.87.87,0,0,0,0-.18c0-.14,0-.23.06-.28s.2-.12.28-.07.09.1.09.21a2.39,2.39,0,0,1-.07.44,3.44,3.44,0,0,1,0,.59c0,.3.07.49.2.56a.66.66,0,0,0,.43,0,.47.47,0,0,0,.28-.52l0-.26a1.26,1.26,0,0,1,0-.32c0-.08,0-.2-.07-.37l-.06-.18a.19.19,0,0,1,0-.17.38.38,0,0,1,.22-.1s.1,0,.15.11a.48.48,0,0,1,.11.34l0,.84a5,5,0,0,0,.1.86,1.11,1.11,0,0,1,0,.39.2.2,0,0,1-.11.13.26.26,0,0,1-.23,0l0,0a.54.54,0,0,1-.07-.09.33.33,0,0,0-.1-.12l-.34.1a.87.87,0,0,1-.26,0,.48.48,0,0,1-.38-.13v0a.28.28,0,0,0-.16,0,.52.52,0,0,0-.3.08,1.17,1.17,0,0,1-.43.11.67.67,0,0,1-.46-.1.73.73,0,0,1-.19-.28,3.16,3.16,0,0,1-.1-.37.8.8,0,0,1,0-.22c0-.17,0-.27,0-.31Z"/><path d="M40.57,15.8c-.13,0-.18.1-.14.21a.83.83,0,0,0,.36.31.88.88,0,0,0,.33.05,1.35,1.35,0,0,0,.55-.11,2.07,2.07,0,0,1,.34-.14c.07,0,.11.08.11.24a.56.56,0,0,1-.37.46,1.59,1.59,0,0,1-.66.14.84.84,0,0,1-.26,0,1.24,1.24,0,0,1-.89-1.19,2,2,0,0,1,.13-.88,1,1,0,0,1,.53-.57,1.25,1.25,0,0,1,.49-.12,1.35,1.35,0,0,1,.87.28l.13.1a.88.88,0,0,1,.27.71.64.64,0,0,1-.08.33l-.75.11c-.26,0-.47.06-.64.07Zm1-.54c.16,0,.22-.11.2-.21a.27.27,0,0,0,0-.07s-.05,0-.08-.07l-.06-.07s-.08,0-.34-.09a.81.81,0,0,0-.84.27c-.07.09-.08.16,0,.22a.23.23,0,0,0,.22.08H41a1.5,1.5,0,0,0,.31,0Z"/><path d="M44.38,14.49c-.06.14-.12.22-.19.22l-.23,0a.9.9,0,0,0-.25,0c-.31,0-.47.15-.45.33s0,.12,0,.21c.06.7.08,1,0,1v.33a.18.18,0,0,1-.14.17c-.08,0-.15,0-.21-.1a.53.53,0,0,1-.06-.24c0-.06,0-.22,0-.47s0-.48,0-.68,0-.21,0-.36V14.9a.78.78,0,0,0,0-.14l0-.07a.51.51,0,0,1,0-.31L43,14.3a.73.73,0,0,1,.25,0l.33,0a1.79,1.79,0,0,1,.76,0C44.44,14.29,44.44,14.37,44.38,14.49Z"/><path d="M47.16,15.44A1.32,1.32,0,0,1,47,16a2.08,2.08,0,0,1-.35.6.81.81,0,0,1-.61.24,2.56,2.56,0,0,1-.54-.07c-.54-.13-.81-.54-.81-1.24,0-.1,0-.2,0-.31a1.48,1.48,0,0,1,.39-.79.88.88,0,0,1,.79-.28H46a2.57,2.57,0,0,1,.49.1A1.21,1.21,0,0,1,47.16,15.44Zm-.46-.39a.67.67,0,0,0-.43-.27H46c-.16,0-.23,0-.19,0l-.06,0a1,1,0,0,0-.49.34.82.82,0,0,0-.22.5.51.51,0,0,0,.25.46.81.81,0,0,0,.54.14,1.09,1.09,0,0,0,.57-.22,1,1,0,0,0,.34-.48A.58.58,0,0,0,46.7,15.05Z"/><path d="M52.11,15.09a3.58,3.58,0,0,1,0,.49,1.7,1.7,0,0,1-.07.51,1,1,0,0,1-.25.44,1.56,1.56,0,0,1-.34.28,1.23,1.23,0,0,1-.64.13,1.15,1.15,0,0,1-.63-.23,1.12,1.12,0,0,1-.48-1,1.1,1.1,0,0,1,.11-.49,1,1,0,0,1,.91-.63,1.41,1.41,0,0,1,.58,0l.17.05,0-.14a.43.43,0,0,0-.23-.31.85.85,0,0,0-.32-.12,1.3,1.3,0,0,0-.46,0l-.41.08c-.14,0-.2,0-.2-.17a.41.41,0,0,1,.06-.23.2.2,0,0,1,.17-.11l.52-.11h.32a1.4,1.4,0,0,1,.33.07.74.74,0,0,1,.37.25,1.25,1.25,0,0,1,.33.54A3.92,3.92,0,0,1,52.11,15.09Zm-1,.07a1,1,0,0,0-.4,0,.69.69,0,0,0-.58.47.45.45,0,0,0,.18.48.72.72,0,0,0,.55.23.47.47,0,0,0,.23,0,.57.57,0,0,0,.38-.27.72.72,0,0,0,.13-.39.89.89,0,0,0-.08-.32C51.51,15.23,51.37,15.18,51.14,15.16Z"/><path d="M53.31,15.8c-.13,0-.18.1-.14.21a.83.83,0,0,0,.36.31.88.88,0,0,0,.33.05,1.35,1.35,0,0,0,.55-.11,2.07,2.07,0,0,1,.34-.14c.07,0,.11.08.11.24a.56.56,0,0,1-.37.46,1.6,1.6,0,0,1-.67.14.81.81,0,0,1-.25,0,1.24,1.24,0,0,1-.89-1.19,1.84,1.84,0,0,1,.13-.88,1,1,0,0,1,.53-.57,1.25,1.25,0,0,1,.49-.12,1.35,1.35,0,0,1,.87.28l.13.1a.91.91,0,0,1,.26.71.65.65,0,0,1-.07.33l-.75.11c-.26,0-.48.06-.64.07Zm1-.54c.16,0,.22-.11.19-.21a.13.13,0,0,0,0-.07s0,0-.07-.07l-.06-.07s-.09,0-.34-.09a.8.8,0,0,0-.84.27c-.07.09-.08.16,0,.22a.23.23,0,0,0,.22.08h.31a1.53,1.53,0,0,0,.31,0Z"/><path d="M58.64,16.27a2.76,2.76,0,0,1,0,.37.22.22,0,0,1-.25.19c-.11,0-.18,0-.19-.15a.62.62,0,0,1,0-.36,1.63,1.63,0,0,0,0-.42c0-.09,0-.19,0-.3v-.29A.29.29,0,0,0,58,15a.6.6,0,0,0-.43,0c-.15.07-.25.27-.28.6a2.06,2.06,0,0,0,0,.39.45.45,0,0,1,0,.17c0,.07,0,.14,0,.19a.33.33,0,0,1-.06.27c-.11.1-.21.12-.29.06a.23.23,0,0,1-.08-.21,2.39,2.39,0,0,1,.07-.44v-.59c0-.32-.07-.52-.2-.59a.56.56,0,0,0-.42,0q-.3.11-.3.54l0,.25A2.19,2.19,0,0,1,56,16c0,.08,0,.2.06.36l.05.19a.15.15,0,0,1-.05.17.27.27,0,0,1-.21.09s-.1,0-.16-.1a.6.6,0,0,1-.09-.36l0-.84c0-.35,0-.62,0-.8a2,2,0,0,1,0-.37.22.22,0,0,1,.12-.13.13.13,0,0,1,.17,0l0,0,0,.09s0,0,.07,0l.35-.08a.85.85,0,0,1,.26-.05.47.47,0,0,1,.37.18v0l.16.06a1.06,1.06,0,0,0,.4-.08l.41-.1a.42.42,0,0,1,.38.09.6.6,0,0,1,.18.35c.05.19.08.31.09.37a.88.88,0,0,1,0,.22c0,.11,0,.19,0,.23Z"/><path d="M61.39,16c.09,0,.15.07.16.23s-.13.43-.44.57a1.33,1.33,0,0,1-.75.13,1.25,1.25,0,0,1-1.13-1.06,1.69,1.69,0,0,1,0-.33,1.16,1.16,0,0,1,.64-1.17,1.55,1.55,0,0,1,.67-.17,1.59,1.59,0,0,1,.76.22l.1.06a.23.23,0,0,1,.14.24c0,.16-.06.25-.19.27a1,1,0,0,1-.36-.07,1.47,1.47,0,0,0-.3-.08l-.21,0a.85.85,0,0,0-.86.51.46.46,0,0,0-.05.2.73.73,0,0,0,.22.49.68.68,0,0,0,.47.26l.22,0a1.19,1.19,0,0,0,.53-.13A1.19,1.19,0,0,1,61.39,16Z"/><path d="M65.13,16.27c0,.21,0,.33,0,.37a.23.23,0,0,1-.25.19.18.18,0,0,1-.2-.15.55.55,0,0,1,0-.36,1.63,1.63,0,0,0,0-.42c0-.09,0-.19,0-.3s0-.21,0-.29a.29.29,0,0,0-.24-.33A.61.61,0,0,0,64,15c-.15.07-.24.27-.28.6a2.18,2.18,0,0,0,0,.39v.17a1.09,1.09,0,0,0,0,.19c0,.13,0,.23-.07.27s-.2.12-.28.06-.09-.1-.09-.21a2.78,2.78,0,0,1,.08-.44,4.44,4.44,0,0,1,0-.59c0-.32-.06-.52-.19-.59a.59.59,0,0,0-.43,0c-.2.07-.29.25-.29.54l0,.25a1.27,1.27,0,0,1,0,.33c0,.08,0,.2.07.36l0,.19a.2.2,0,0,1,0,.17.29.29,0,0,1-.22.09.25.25,0,0,1-.15-.1.6.6,0,0,1-.09-.36v-.84c0-.35,0-.62,0-.8a1,1,0,0,1,0-.37.22.22,0,0,1,.12-.13.14.14,0,0,1,.17,0l0,0,.06.09a.09.09,0,0,0,.07,0l.34-.08a1,1,0,0,1,.26-.05.46.46,0,0,1,.37.18v0l.16.06a1,1,0,0,0,.39-.08l.41-.1a.41.41,0,0,1,.38.09.67.67,0,0,1,.19.35c.05.19.08.31.09.37a1.94,1.94,0,0,1,0,.22c0,.11,0,.19,0,.23Z"/><path d="M67.55,15.4a.75.75,0,0,1,.34.4,1.07,1.07,0,0,1,0,.32.64.64,0,0,1-.33.61,2.4,2.4,0,0,1-1,.16h-.16l-.37,0h-.19a.28.28,0,0,1-.19-.23,1.25,1.25,0,0,1,0-.24V16c0-.13,0-.24,0-.35s0-.14,0-.28,0-.35,0-.41a3.45,3.45,0,0,1,0-.4.38.38,0,0,1,.12-.21.93.93,0,0,1,.37-.12,3.64,3.64,0,0,1,.81,0,1,1,0,0,1,.41.16.86.86,0,0,1,.21.22,1.11,1.11,0,0,1,.07.31.55.55,0,0,1-.08.29A.25.25,0,0,1,67.55,15.4Zm-.64,1a1.88,1.88,0,0,0,.49-.08c.09-.07.13-.13.13-.18a.43.43,0,0,0-.15-.19,1.21,1.21,0,0,0-.7-.18h-.25A.47.47,0,0,0,66,16v.11c0,.22.25.32.63.32Zm.24-1.58-.22-.06a.86.86,0,0,0-.28,0c-.26,0-.42,0-.48.1a.48.48,0,0,0,0,.29c0,.1.13.15.38.15a1.39,1.39,0,0,0,.3,0c.4-.06.56-.16.5-.31A.37.37,0,0,0,67.15,14.81Z"/><path d="M70.66,16v.34a2.3,2.3,0,0,1,0,.33.23.23,0,0,1-.16.21l-.22,0-.37,0h-.16a2.51,2.51,0,0,1-1.1-.17.66.66,0,0,1-.32-.61.83.83,0,0,1,.05-.32.76.76,0,0,1,.9-.51,2.58,2.58,0,0,0,.54,0c.26,0,.38-.09.38-.19s0-.16-.17-.23a.55.55,0,0,0-.34-.09,2.75,2.75,0,0,0-.43.06l-.41.08c-.14,0-.2,0-.2-.18a.64.64,0,0,1,.07-.28.2.2,0,0,1,.17-.11l.51-.11.27,0a.72.72,0,0,1,.36.05,1,1,0,0,1,.43.28.89.89,0,0,1,.23.65c0,.06,0,.15,0,.26s0,.23,0,.27S70.65,15.91,70.66,16Zm-1.07.32c.44,0,.67-.09.71-.28V16a.41.41,0,0,0-.41-.19h-.31a1.19,1.19,0,0,0-.7.18c-.09.07-.14.12-.15.17s0,.09.13.14a1.88,1.88,0,0,0,.49.08Z"/><path class="cls-2" d="M35,45.38a.67.67,0,0,0,0-.76A4.37,4.37,0,0,0,35.2,44a.72.72,0,0,0,0-.33,1.22,1.22,0,0,0,.14-1.08c-.1-.27.53-1.23.28-1.39a1.38,1.38,0,0,0-.08-.27c-.18-.39-1.33.1-1.71-.06,0,0,0-.07,0-.11a2.82,2.82,0,0,0-.43-.58,5.51,5.51,0,0,0-.41-.43,1.85,1.85,0,0,0-.51-.32,2.35,2.35,0,0,0-1.85-.19c-.41.16-.78.62-.42,1a6,6,0,0,0,.75.76l.06.12a.18.18,0,0,0,.05.07c-.31.3-.37.75,0,1.35a1.4,1.4,0,0,0,.24.45,3.66,3.66,0,0,0-.44,2A12.16,12.16,0,0,0,30,46.5a.85.85,0,0,0-.05.34l-.85,1c-1,1.1,2,1.62,2.7,1.23a6.3,6.3,0,0,0,1.57-1.33.5.5,0,0,0,.12-.52A6.06,6.06,0,0,0,35,45.38Z"/><path d="M29.07,51.8c2.6-2,8.3-4.34,7.85-8.33-.11-.88-2.17-.39-2.06.55.21,1.85-1.86,3.26-3.19,4.2S29,50,27.73,50.93c-1.11.85.57,1.46,1.34.87Z"/><path class="cls-2" d="M31.06,39.47a1.22,1.22,0,0,1,.05-1,.69.69,0,0,1-.13-.36c0-.81,1.47-1.47,2.19-1.58a2.26,2.26,0,0,1,1.83,1,.26.26,0,0,1,0,.08,1.14,1.14,0,0,1,.11.11.28.28,0,0,1,0,.13,1,1,0,0,1,.39.93.86.86,0,0,1,.28.87l.17,0c.73.08.27.69,0,.93a3,3,0,0,1-2,.87,5.51,5.51,0,0,1-1.82-.53l-.06,0C31.28,40.53,31,40,31.06,39.47Z"/><path class="cls-1" d="M32.07,31.21c.43-.7,2.42.2,2.92.63.82.71.7,1.86.75,2.77,0,.59,0,1.18,0,1.76.06.4.12.81.17,1.21a.32.32,0,0,1-.29.38s-.71.79-.68.78c.82-.15-.56-2.21-1.32-2.27-.34,0-1.37,0-1.41-.36s-1.09-.35-1.17-.88A7.63,7.63,0,0,1,32.07,31.21Z"/><path class="cls-2" d="M32.11,35.79l2,.39a3.45,3.45,0,0,1,1.62.81l.11.09c.18.16.55.6.21.77l-.14,0h0c.32.27.36.56.18.73A.28.28,0,0,1,36,39c.16.4-.58.8-.57,1.34s-1.42-.16-1.25-.61-1-.7-1.39-1.28a.36.36,0,0,1,0-.09,3.87,3.87,0,0,1-.55-.34c-.27-.19-.8-.28-.71-.55,0-.08-.39,0-.36-.09-.41-.21-.32-.91-.39-1.23C30.57,35.5,31.75,35.72,32.11,35.79Z"/><path d="M31.17,40.12a35.1,35.1,0,0,1,.58-4.46c.18-1.15.33-4.66,1.61-4.18,1.48.57,1.58,4.5,1.69,5.8a23.13,23.13,0,0,1-.16,6.8c-.18.86,1.9.55,2.06-.22.63-3,1.31-14.07-3.57-14.26-2-.07-3,2.18-3.31,3.79a42,42,0,0,0-1,7c0,.92,2,.54,2.06-.22Z"/><path class="cls-2" d="M2.72,32.78a.68.68,0,0,1,.51-.57,5,5,0,0,1,.3-.62.72.72,0,0,1,.23-.23,1.26,1.26,0,0,1,.6-.91c.25-.14.41-1.28.7-1.24a1.1,1.1,0,0,1,.24-.15c.38-.18.94.94,1.33,1.06l.11-.05a2.46,2.46,0,0,1,.69-.16,4.2,4.2,0,0,1,.6-.06,1.77,1.77,0,0,1,.59.09A2.38,2.38,0,0,1,10.15,31c.21.38.19,1-.36,1.05a5.49,5.49,0,0,1-1.06.09l-.13.06H8.52c0,.43-.21.82-.91,1a1.5,1.5,0,0,1-.47.19,3.72,3.72,0,0,1-.95,1.78,10.58,10.58,0,0,1-.4,1.71.89.89,0,0,1-.17.29c0,.43,0,.85,0,1.28,0,1.46-2.6-.1-2.85-.83a6.11,6.11,0,0,1-.32-2,.51.51,0,0,1,.24-.47A6.25,6.25,0,0,1,2.72,32.78Z"/><path d="M4.89,41.37c-.61-2.75-3.21-8-.82-10.43.48-.48-1.48-.28-1.87.1-2.68,2.66,0,7.81.63,10.88.11.51,2.18,0,2.06-.55Z"/><path class="cls-2" d="M9.58,30.89a1.22,1.22,0,0,0,.61-.78.86.86,0,0,0,.34-.19c.53-.62-.16-2.08-.64-2.63a2.24,2.24,0,0,0-2-.45s0,0-.08,0a.68.68,0,0,0-.15,0,.21.21,0,0,0-.11.07,1,1,0,0,0-.91.46.85.85,0,0,0-.78.48l-.15-.09c-.6-.42-.64.34-.6.7a3.06,3.06,0,0,0,1,2,5.75,5.75,0,0,0,1.72.79l.07,0C8.73,31.55,9.29,31.33,9.58,30.89Z"/><path class="cls-1" d="M14.2,24c.13-.81-2-1.42-2.62-1.42-1.09,0-1.75,1-2.38,1.62a16,16,0,0,0-1.15,1.32l-.92.81a.31.31,0,0,0,0,.47s0,1.07,0,1c-.52-.65,1.87-1.31,2.48-.87.28.2,1.07.86,1.3.65.39-.19,1.06.45,1.47.1A7.65,7.65,0,0,0,14.2,24Z"/><path class="cls-2" d="M11.19,27.41l-1.79-1A3.28,3.28,0,0,0,7.65,26H7.51c-.24,0-.82.09-.67.44a1,1,0,0,0,.08.14h0c-.42,0-.64.18-.62.43a.27.27,0,0,0-.13.37c-.38.2-.08,1-.44,1.39s1.18.8,1.34.35,1.2.1,1.89-.07l.09,0c.22,0,.43.08.64.1s.9,0,1-.24a.31.31,0,0,0,.16-.16A1.51,1.51,0,0,0,12,28.6C12.55,28.2,11.5,27.59,11.19,27.41Z"/><path d="M10.72,32c1.11-1.36,7.48-9.94,3.06-10.08-2.34-.07-4.32,1.21-6,2.68A26,26,0,0,0,2,31.31c-.15.28,1.75.17,2-.36A21.25,21.25,0,0,1,7.6,26.38c.72-.74,1.47-1.46,2.25-2.12,1-.87,3.71-2.05,3.48.11-.15,1.42-1.18,2.64-1.91,3.83a36.38,36.38,0,0,1-2.56,3.94c-.41.5,1.54.24,1.86-.15Z"/><path class="cls-3" d="M21.33,32.39c-.2-.13.4-1,.47-1.12.48-.62-.68-.84-1-.38s-1.15,1.73-.38,2.23c.47.3,1.54-.34.95-.73Z"/><path class="cls-3" d="M18.73,32.37c-.4-.38-.16-.76.12-1.13.48-.62-.68-.85-1-.39-.6.78-.79,1.52,0,2.25.41.4,1.47-.22.95-.73Z"/><path class="cls-3" d="M24.87,38.29c.54,1.22,2.16-.14,2.61-.75s-.7-.74-1-.32a3,3,0,0,1-.37.43.93.93,0,0,1-.18.16c-.21.1-.15.15.19.15-.23-.52-1.45-.16-1.23.33Z"/><path class="cls-3" d="M25.19,41c.65.46,1.47-.09,1.94-.56.21-.21-.18-.29-.32-.3a1.2,1.2,0,0,0-.81.32c-.29.22-.25.24.12.08l.32.08-.1-.07a.89.89,0,0,0-.81,0c-.09,0-.56.28-.34.43Z"/><path class="cls-3" d="M15.35,33.66l-.11,0h.57c-.2-.13.1-.68.19-.77s.16-.21.07-.35a.76.76,0,0,1,.14-.74c.17-.25-.14-.36-.33-.37a1,1,0,0,0-.82.33,1.18,1.18,0,0,0-.13,1.27l.08-.35a1.45,1.45,0,0,0-.47,1.12c.05.53.54.56,1,.44.19,0,.6-.22.54-.47s-.53-.2-.7-.15Z"/><path class="cls-3" d="M11.55,33.19A2.65,2.65,0,0,0,10.7,35c0,.8.79.83,1.39.6.19-.07.48-.31.31-.53s-.61-.11-.82,0l-.13.06.48-.1a3.19,3.19,0,0,1,.13-.84,2.12,2.12,0,0,1,.49-.75c.19-.19.12-.4-.13-.48a1,1,0,0,0-.87.23Z"/><circle class="cls-1" cx="17.1" cy="43.53" r="13.3"/><ellipse cx="24.96" cy="38.89" rx="1.96" ry="1.5" transform="translate(-20.82 45.18) rotate(-65.14)"/><ellipse cx="15.96" cy="34.72" rx="1.96" ry="1.5" transform="translate(-22.25 34.6) rotate(-65.14)"/><path d="M28.19,48.78C24.92,55,17.44,58.41,10.93,54.52A12.79,12.79,0,0,1,6.12,38.23c3.15-6.77,11.9-9.7,18.13-5,5,3.79,6.14,10,3.87,15.68-.29.73,1.76,1.19,2.09.36C37,32.5,11.48,21.37,4,37.68-3.59,54.34,21.88,65.17,30.15,49.46,30.59,48.62,28.56,48.08,28.19,48.78Z"/><path class="cls-4" d="M5.72,39.29c0,1.63-.9,4.46,1.16,5.31a2.8,2.8,0,0,0,2.55-.5c1.11-.75,2-2,3.41-2.19a5.23,5.23,0,0,1,3,.69l2.52,1.14a3.36,3.36,0,0,1,1.81,1.4c.77,1.62-1.06,3.13-.59,4.75a2.25,2.25,0,0,0,2.3,1.45c1.61-.08,2.55-1.28,3.63-2.28.59-.55,2.23-2.21,3-1a1.25,1.25,0,0,1,.14.66,5.47,5.47,0,0,1-2,4,16.42,16.42,0,0,1-4,2.35A14.94,14.94,0,0,1,17,56.86a12.68,12.68,0,0,1-5.21-1.23,11.41,11.41,0,0,1-3.32-1.9,11.22,11.22,0,0,1-2-2.68A17.52,17.52,0,0,1,4,45.28a8.44,8.44,0,0,1,1-6"/><path class="cls-3" d="M4.7,39.43c-.19,2.84-.45,6.59,3.62,5.72,2.87-.61,4.54-3.38,7.94-1.5,1.79.46,2.68,1.8,2.68,4A2.29,2.29,0,0,0,18.53,49c.29,1.33-.37,1.14.64,2.17a3.52,3.52,0,0,0,3.36.56c1.47-.34,3-2.68,4.08-2.77.95-1,1-.1,0,2.7a19.44,19.44,0,0,1-5.87,3.73A11.83,11.83,0,0,1,8.85,52.71c-3.43-3.49-5-9.19-2.76-13.6.27-.54-1.73-.35-2,.28C.15,47.15,6.86,56.1,14.79,57.28c3.4.5,6.72-.9,9.65-2.47,1.93-1,6.33-3.85,5.1-6.67-.59-1.35-1.83-1.14-3-.63-.9.39-1.84,2.06-2.65,2.17L21,47.38a2.49,2.49,0,0,0,.35-1.25c-.16-.44,0-1-.24-1.39-1-2.05-5.88-3.7-8.11-3.37a10.26,10.26,0,0,0-2.13.84c-.8.3-3.14,1.84-4.17.72-.52-.56,0-3.07.06-3.78s-2-.38-2,.28Z"/><path class="cls-5" d="M7.38,65.44l0-.64v-.24l0-.21c0-.31,0-.62,0-.93v-.54a1.15,1.15,0,0,1,0-.21.33.33,0,0,1,.17-.18.13.13,0,0,1,.2.07l0,.06a1.46,1.46,0,0,1,0,.55q0,.22,0,.51c0,.71,0,1.15,0,1.33a2.06,2.06,0,0,0,0,.44l.74,0a5.07,5.07,0,0,0,.68-.06s.06,0,.06-.12v-2c0-.06,0-.16,0-.29a2.13,2.13,0,0,1,0-.3.54.54,0,0,1,.05-.28.21.21,0,0,1,.23-.11.23.23,0,0,1,.15.2v.36s0,.1,0,.27a3.51,3.51,0,0,0,0,.37,2.19,2.19,0,0,0,0,.29,8.93,8.93,0,0,0,.07,1.11l0,.49,0,.36a.23.23,0,0,1-.14.21l-.41,0-.57,0-.36,0H8l-.23,0H7.15l-.33,0H5.9a.27.27,0,0,1-.18-.18,1.14,1.14,0,0,1-.09-.54c0-.28,0-.55,0-.82s0-.4,0-.52a1.49,1.49,0,0,1,0-.24v-.42a2.6,2.6,0,0,0,0-.28,1.78,1.78,0,0,1,0-.28.4.4,0,0,1,.06-.26.2.2,0,0,1,.23-.11.21.21,0,0,1,.14.19L6,63a1,1,0,0,1,0,.26,1.49,1.49,0,0,1,0,.17,1.41,1.41,0,0,0,0,.18v.26a8.26,8.26,0,0,0,.07,1c0,.2,0,.32,0,.35s.2.21.43.21H6.8Z"/><path class="cls-5" d="M11,65c-.13,0-.18.12-.14.23a.88.88,0,0,0,.38.33,1,1,0,0,0,.35,0,1.38,1.38,0,0,0,.59-.11,2.4,2.4,0,0,1,.36-.16c.07,0,.11.09.11.26a.58.58,0,0,1-.39.49,1.61,1.61,0,0,1-.71.15.91.91,0,0,1-.27,0,1.32,1.32,0,0,1-.95-1.27,2,2,0,0,1,.14-.93,1.06,1.06,0,0,1,.57-.62,1.38,1.38,0,0,1,.52-.12,1.54,1.54,0,0,1,.93.29l.13.11a1,1,0,0,1,.29.76.7.7,0,0,1-.08.35s-.26,0-.8.12c-.28,0-.51.06-.69.07Zm1.13-.57c.16,0,.23-.12.2-.22s0,0,0-.07L12.21,64a.3.3,0,0,0-.07-.08s-.08,0-.36-.1a.9.9,0,0,0-.9.29c-.07.09-.08.18,0,.24a.26.26,0,0,0,.24.08h.33a1.16,1.16,0,0,0,.33,0Z"/><path class="cls-5" d="M15.91,64.66a1.36,1.36,0,0,1-.13.57,1.3,1.3,0,0,1-1,.8.76.76,0,0,1-.37,0c-.17,0-.27-.06-.32,0a.3.3,0,0,0-.11.15c0,.1,0,.27,0,.51a2.35,2.35,0,0,1,0,.57.28.28,0,0,1-.16.18c-.09,0-.15,0-.19-.06l-.06-.07,0-.59c0-.13,0-.26,0-.4v-.23c0-.06,0-.28,0-.66a3.82,3.82,0,0,0,0-.64,2.74,2.74,0,0,0,0-.32l0-.31-.05-.28a.29.29,0,0,1,.05-.26.31.31,0,0,1,.23-.14h0a1.4,1.4,0,0,1,.65-.13,1.83,1.83,0,0,1,1,.27A1.29,1.29,0,0,1,15.91,64.66Zm-.65-.47a1,1,0,0,0-.67-.25.58.58,0,0,0-.61.49,1.54,1.54,0,0,0,0,.65l0,0c0,.16.21.24.46.24a1.4,1.4,0,0,0,.34-.05.77.77,0,0,0,.62-.52A.55.55,0,0,0,15.26,64.19Z"/><path class="cls-5" d="M17.16,65c-.14,0-.19.12-.15.23a.78.78,0,0,0,.74.38,1.38,1.38,0,0,0,.59-.11l.35-.16c.08,0,.12.09.12.26a.58.58,0,0,1-.39.49,1.64,1.64,0,0,1-.71.15.91.91,0,0,1-.27,0,1.31,1.31,0,0,1-1-1.27,1.9,1.9,0,0,1,.14-.93,1,1,0,0,1,.56-.62,1.43,1.43,0,0,1,.53-.12,1.51,1.51,0,0,1,.92.29l.14.11a1,1,0,0,1,.28.76.61.61,0,0,1-.08.35l-.8.12c-.27,0-.5.06-.68.07Zm1.13-.57c.16,0,.23-.12.2-.22s0,0,0-.07L18.37,64,18.3,64s-.09,0-.36-.1a.9.9,0,0,0-.9.29c-.07.09-.08.18,0,.24a.24.24,0,0,0,.24.08h.33a1.07,1.07,0,0,0,.32,0Z"/><path class="cls-5" d="M19.45,66.09c-.08,0-.1-.13-.08-.26s.08-.31.21-.73.21-.64.24-.78a2.2,2.2,0,0,0,.05-.38,2.2,2.2,0,0,1,.05-.39.48.48,0,0,1,.25-.29.3.3,0,0,1,.35,0,1.69,1.69,0,0,1,.25.63q.09.33.15.33s.1-.06.16-.19c.18-.41.29-.63.31-.66a.3.3,0,0,1,.24-.12.26.26,0,0,1,.28.23c0,.07,0,.19.07.35l.06.37c0,.15.1.39.2.72s.15.57.19.75v0a.2.2,0,0,1-.11.26.22.22,0,0,1-.27,0,1.12,1.12,0,0,1-.2-.52,5.26,5.26,0,0,0-.16-.55c-.12-.38-.22-.53-.29-.45a1.3,1.3,0,0,0-.17.51s0,.19-.06.44a1.67,1.67,0,0,1-.09.43.24.24,0,0,1-.46,0,1.94,1.94,0,0,1,0-.38,2.05,2.05,0,0,0,0-.37s0-.08-.05-.15a1.06,1.06,0,0,0-.05-.18c0-.14-.09-.21-.14-.21s-.19.24-.29.76-.19.75-.27.79S19.53,66.15,19.45,66.09Z"/><path class="cls-5" d="M23.45,65c-.13,0-.18.12-.14.23a.88.88,0,0,0,.38.33,1,1,0,0,0,.35,0,1.35,1.35,0,0,0,.59-.11,2.4,2.4,0,0,1,.36-.16c.08,0,.11.09.11.26a.58.58,0,0,1-.39.49,1.6,1.6,0,0,1-.7.15.82.82,0,0,1-.27,0,1.32,1.32,0,0,1-1-1.27,2,2,0,0,1,.14-.93,1.1,1.1,0,0,1,.57-.62,1.38,1.38,0,0,1,.52-.12,1.54,1.54,0,0,1,.93.29l.14.11a1,1,0,0,1,.28.76.7.7,0,0,1-.08.35s-.26,0-.8.12c-.28,0-.51.06-.69.07Zm1.13-.57c.17,0,.23-.12.2-.22s0,0,0-.07L24.66,64,24.6,64s-.09,0-.37-.1a.87.87,0,0,0-.89.29.18.18,0,0,0,0,.24.26.26,0,0,0,.24.08h.33a1.16,1.16,0,0,0,.33,0Z"/><path class="cls-5" d="M29.14,65.47a3.17,3.17,0,0,1,0,.4.23.23,0,0,1-.26.2.18.18,0,0,1-.21-.16.62.62,0,0,1,0-.38,3.43,3.43,0,0,0,0-.45v-.32c0-.11,0-.22,0-.31s-.08-.32-.25-.35a.68.68,0,0,0-.46.05c-.16.08-.26.29-.3.65a2.22,2.22,0,0,0,0,.41v.18a1.15,1.15,0,0,0,0,.2c0,.15,0,.24-.07.29s-.22.13-.3.07a.25.25,0,0,1-.09-.23,2,2,0,0,1,.08-.46,5.49,5.49,0,0,1,0-.64c0-.34-.07-.55-.2-.63a.67.67,0,0,0-.46,0c-.21.08-.31.27-.31.58l0,.27a1.43,1.43,0,0,1,0,.35,2.86,2.86,0,0,1,.07.39l.06.2a.2.2,0,0,1-.06.18.3.3,0,0,1-.23.09c-.05,0-.1,0-.16-.11a.58.58,0,0,1-.1-.38l0-.89c0-.37,0-.66,0-.85a2.26,2.26,0,0,1,0-.4.25.25,0,0,1,.13-.14.15.15,0,0,1,.18,0l0,0a.3.3,0,0,1,.06.09l.07,0,.37-.1a1,1,0,0,1,.28,0,.49.49,0,0,1,.39.19h0a.68.68,0,0,0,.17.07,1.18,1.18,0,0,0,.42-.08l.43-.11a.47.47,0,0,1,.41.09.75.75,0,0,1,.2.37c.05.21.08.34.09.4a1,1,0,0,1,0,.24,1.52,1.52,0,0,0,0,.24Z"/><path d="M7.38,65.44l0-.64v-.24l0-.21c0-.31,0-.62,0-.93v-.54a1.15,1.15,0,0,1,0-.21.33.33,0,0,1,.17-.18.13.13,0,0,1,.2.07l0,.06a1.46,1.46,0,0,1,0,.55q0,.22,0,.51c0,.71,0,1.15,0,1.33a2.06,2.06,0,0,0,0,.44l.74,0a5.07,5.07,0,0,0,.68-.06s.06,0,.06-.12v-2c0-.06,0-.16,0-.29a2.13,2.13,0,0,1,0-.3.54.54,0,0,1,.05-.28.21.21,0,0,1,.23-.11.23.23,0,0,1,.15.2v.36s0,.1,0,.27a3.51,3.51,0,0,0,0,.37,2.19,2.19,0,0,0,0,.29,8.93,8.93,0,0,0,.07,1.11l0,.49,0,.36a.23.23,0,0,1-.14.21l-.41,0-.57,0-.36,0H8l-.23,0H7.15l-.33,0H5.9a.27.27,0,0,1-.18-.18,1.14,1.14,0,0,1-.09-.54c0-.28,0-.55,0-.82s0-.4,0-.52a1.49,1.49,0,0,1,0-.24v-.42a2.6,2.6,0,0,0,0-.28,1.78,1.78,0,0,1,0-.28.4.4,0,0,1,.06-.26.2.2,0,0,1,.23-.11.21.21,0,0,1,.14.19L6,63a1,1,0,0,1,0,.26,1.49,1.49,0,0,1,0,.17,1.41,1.41,0,0,0,0,.18v.26a8.26,8.26,0,0,0,.07,1c0,.2,0,.32,0,.35s.2.21.43.21H6.8Z"/><path d="M11,65c-.13,0-.18.12-.14.23a.88.88,0,0,0,.38.33,1,1,0,0,0,.35,0,1.38,1.38,0,0,0,.59-.11,2.4,2.4,0,0,1,.36-.16c.07,0,.11.09.11.26a.58.58,0,0,1-.39.49,1.61,1.61,0,0,1-.71.15.91.91,0,0,1-.27,0,1.32,1.32,0,0,1-.95-1.27,2,2,0,0,1,.14-.93,1.06,1.06,0,0,1,.57-.62,1.38,1.38,0,0,1,.52-.12,1.54,1.54,0,0,1,.93.29l.13.11a1,1,0,0,1,.29.76.7.7,0,0,1-.08.35s-.26,0-.8.12c-.28,0-.51.06-.69.07Zm1.13-.57c.16,0,.23-.12.2-.22s0,0,0-.07L12.21,64a.3.3,0,0,0-.07-.08s-.08,0-.36-.1a.9.9,0,0,0-.9.29c-.07.09-.08.18,0,.24a.26.26,0,0,0,.24.08h.33a1.16,1.16,0,0,0,.33,0Z"/><path d="M15.91,64.66a1.36,1.36,0,0,1-.13.57,1.3,1.3,0,0,1-1,.8.76.76,0,0,1-.37,0c-.17,0-.27-.06-.32,0a.3.3,0,0,0-.11.15c0,.1,0,.27,0,.51a2.35,2.35,0,0,1,0,.57.28.28,0,0,1-.16.18c-.09,0-.15,0-.19-.06l-.06-.07,0-.59c0-.13,0-.26,0-.4v-.23c0-.06,0-.28,0-.66a3.82,3.82,0,0,0,0-.64,2.74,2.74,0,0,0,0-.32l0-.31-.05-.28a.29.29,0,0,1,.05-.26.31.31,0,0,1,.23-.14h0a1.4,1.4,0,0,1,.65-.13,1.83,1.83,0,0,1,1,.27A1.29,1.29,0,0,1,15.91,64.66Zm-.65-.47a1,1,0,0,0-.67-.25.58.58,0,0,0-.61.49,1.54,1.54,0,0,0,0,.65l0,0c0,.16.21.24.46.24a1.4,1.4,0,0,0,.34-.05.77.77,0,0,0,.62-.52A.55.55,0,0,0,15.26,64.19Z"/><path d="M17.16,65c-.14,0-.19.12-.15.23a.78.78,0,0,0,.74.38,1.38,1.38,0,0,0,.59-.11l.35-.16c.08,0,.12.09.12.26a.58.58,0,0,1-.39.49,1.64,1.64,0,0,1-.71.15.91.91,0,0,1-.27,0,1.31,1.31,0,0,1-1-1.27,1.9,1.9,0,0,1,.14-.93,1,1,0,0,1,.56-.62,1.43,1.43,0,0,1,.53-.12,1.51,1.51,0,0,1,.92.29l.14.11a1,1,0,0,1,.28.76.61.61,0,0,1-.08.35l-.8.12c-.27,0-.5.06-.68.07Zm1.13-.57c.16,0,.23-.12.2-.22s0,0,0-.07L18.37,64,18.3,64s-.09,0-.36-.1a.9.9,0,0,0-.9.29c-.07.09-.08.18,0,.24a.24.24,0,0,0,.24.08h.33a1.07,1.07,0,0,0,.32,0Z"/><path d="M19.45,66.09c-.08,0-.1-.13-.08-.26s.08-.31.21-.73.21-.64.24-.78a2.2,2.2,0,0,0,.05-.38,2.2,2.2,0,0,1,.05-.39.48.48,0,0,1,.25-.29.3.3,0,0,1,.35,0,1.69,1.69,0,0,1,.25.63q.09.33.15.33s.1-.06.16-.19c.18-.41.29-.63.31-.66a.3.3,0,0,1,.24-.12.26.26,0,0,1,.28.23c0,.07,0,.19.07.35l.06.37c0,.15.1.39.2.72s.15.57.19.75v0a.2.2,0,0,1-.11.26.22.22,0,0,1-.27,0,1.12,1.12,0,0,1-.2-.52,5.26,5.26,0,0,0-.16-.55c-.12-.38-.22-.53-.29-.45a1.3,1.3,0,0,0-.17.51s0,.19-.06.44a1.67,1.67,0,0,1-.09.43.24.24,0,0,1-.46,0,1.94,1.94,0,0,1,0-.38,2.05,2.05,0,0,0,0-.37s0-.08-.05-.15a1.06,1.06,0,0,0-.05-.18c0-.14-.09-.21-.14-.21s-.19.24-.29.76-.19.75-.27.79S19.53,66.15,19.45,66.09Z"/><path d="M23.45,65c-.13,0-.18.12-.14.23a.88.88,0,0,0,.38.33,1,1,0,0,0,.35,0,1.35,1.35,0,0,0,.59-.11,2.4,2.4,0,0,1,.36-.16c.08,0,.11.09.11.26a.58.58,0,0,1-.39.49,1.6,1.6,0,0,1-.7.15.82.82,0,0,1-.27,0,1.32,1.32,0,0,1-1-1.27,2,2,0,0,1,.14-.93,1.1,1.1,0,0,1,.57-.62,1.38,1.38,0,0,1,.52-.12,1.54,1.54,0,0,1,.93.29l.14.11a1,1,0,0,1,.28.76.7.7,0,0,1-.08.35s-.26,0-.8.12c-.28,0-.51.06-.69.07Zm1.13-.57c.17,0,.23-.12.2-.22s0,0,0-.07L24.66,64,24.6,64s-.09,0-.37-.1a.87.87,0,0,0-.89.29.18.18,0,0,0,0,.24.26.26,0,0,0,.24.08h.33a1.16,1.16,0,0,0,.33,0Z"/><path d="M29.14,65.47a3.17,3.17,0,0,1,0,.4.23.23,0,0,1-.26.2.18.18,0,0,1-.21-.16.62.62,0,0,1,0-.38,3.43,3.43,0,0,0,0-.45v-.32c0-.11,0-.22,0-.31s-.08-.32-.25-.35a.68.68,0,0,0-.46.05c-.16.08-.26.29-.3.65a2.22,2.22,0,0,0,0,.41v.18a1.15,1.15,0,0,0,0,.2c0,.15,0,.24-.07.29s-.22.13-.3.07a.25.25,0,0,1-.09-.23,2,2,0,0,1,.08-.46,5.49,5.49,0,0,1,0-.64c0-.34-.07-.55-.2-.63a.67.67,0,0,0-.46,0c-.21.08-.31.27-.31.58l0,.27a1.43,1.43,0,0,1,0,.35,2.86,2.86,0,0,1,.07.39l.06.2a.2.2,0,0,1-.06.18.3.3,0,0,1-.23.09c-.05,0-.1,0-.16-.11a.58.58,0,0,1-.1-.38l0-.89c0-.37,0-.66,0-.85a2.26,2.26,0,0,1,0-.4.25.25,0,0,1,.13-.14.15.15,0,0,1,.18,0l0,0a.3.3,0,0,1,.06.09l.07,0,.37-.1a1,1,0,0,1,.28,0,.49.49,0,0,1,.39.19h0a.68.68,0,0,0,.17.07,1.18,1.18,0,0,0,.42-.08l.43-.11a.47.47,0,0,1,.41.09.75.75,0,0,1,.2.37c.05.21.08.34.09.4a1,1,0,0,1,0,.24,1.52,1.52,0,0,0,0,.24Z"/></g></svg>