<svg xmlns="http://www.w3.org/2000/svg" viewBox="0 0 35.35 39.37"><defs><style>.cls-1{opacity:0.79;}.cls-2{fill:none;stroke:#fff;stroke-linecap:round;stroke-linejoin:bevel;stroke-width:2.13px;}</style></defs><title>personaji_3</title><g id="Слой_1" data-name="Слой 1"><g class="cls-1"><path d="M31.69,13.13c.6-1.6,1.91-1.58,2.59-3.15a5.3,5.3,0,0,0,.57-2.57C34.62,5,32.16,4.05,30.11,3.8c-.29,0-2.16.24-2.19.21C22.5-1.28,12.85-1.3,7.35,3.74c-2-.49-4.42-.53-6,1A3.86,3.86,0,0,0,.26,6.5a4.8,4.8,0,0,0,.88,3.36,14.64,14.64,0,0,0,1,1.45c.21.28,1.12,1.15,1.1,1.49s0,.62,0,.94c0,6.44,3.44,12.68,10,14.19,4.28,1,9.51.17,12.93-2.61a16.05,16.05,0,0,0,4.06-5.65c.73-1.49.77-4.6,1.31-6.19C31.6,13.36,31.64,13.25,31.69,13.13Z"/></g><path class="cls-2" d="M4.61,32.52a.19.19,0,0,1-.16.22l-.39,0-.36,0a.35.35,0,0,0-.15.17v0c0,.26,0,.53,0,.79s0,.41,0,.52a1.63,1.63,0,0,1,0,.24V35a2.2,2.2,0,0,0,0,.27,2.16,2.16,0,0,1,0,.29.48.48,0,0,1-.07.26.18.18,0,0,1-.22.1.18.18,0,0,1-.14-.18l0-.35s0-.08,0-.25a1.53,1.53,0,0,1,0-.18,1.49,1.49,0,0,0,0-.17V34.5a8.44,8.44,0,0,0-.07-1.07L3.09,33A.16.16,0,0,0,3,32.79a1.42,1.42,0,0,0-.36,0H2.24c-.09-.05-.13-.17-.11-.38a.11.11,0,0,1,.1-.11h.1l1.45-.06h.39a1,1,0,0,1,.33,0C4.58,32.27,4.61,32.36,4.61,32.52Z"/><path class="cls-2" d="M5.63,34.79c-.14,0-.19.11-.15.22a.86.86,0,0,0,.39.34,1.16,1.16,0,0,0,.34,0,1.35,1.35,0,0,0,.59-.12l.36-.15c.08,0,.12.09.12.26a.59.59,0,0,1-.4.49,1.6,1.6,0,0,1-.7.15.91.91,0,0,1-.27,0,1.32,1.32,0,0,1-1-1.27,2.07,2.07,0,0,1,.13-.94,1.08,1.08,0,0,1,.57-.61,1.38,1.38,0,0,1,.52-.12,1.47,1.47,0,0,1,.93.29l.14.11a1,1,0,0,1,.28.76.66.66,0,0,1-.08.34,7.87,7.87,0,0,0-.8.13c-.28,0-.5.06-.68.07Zm1.12-.57c.17,0,.24-.12.21-.22a.15.15,0,0,0,0-.08l-.08-.08-.06-.07s-.09,0-.37-.1a.85.85,0,0,0-.89.29c-.07.09-.08.17,0,.24a.26.26,0,0,0,.24.08h.32a1.7,1.7,0,0,0,.33,0Z"/><path class="cls-2" d="M9.58,34.24c0-.08,0-.18,0-.31s0-.13,0-.27a1.52,1.52,0,0,1,0-.39c0-.09.08-.14.15-.14s.18.07.19.21a4.72,4.72,0,0,1,0,.7v.79h0a8,8,0,0,0,.05.8.34.34,0,0,1-.07.29q-.18.15-.3.06c-.06,0-.09-.11-.09-.22a3,3,0,0,1,.08-.47,1.49,1.49,0,0,0,0-.24l0-.36c-.26,0-.48.06-.65.07l-.34,0-.11,0c0,.07,0,.14,0,.21s0,.22.07.39l0,.2a.16.16,0,0,1-.05.18.28.28,0,0,1-.23.1s-.09,0-.15-.11a.58.58,0,0,1-.1-.38V35a2.6,2.6,0,0,0,0-.56l0-.51s0-.12,0-.25a1.53,1.53,0,0,1,0-.27.3.3,0,0,1,.05-.21c.24-.18.36.05.36.71V34a1.11,1.11,0,0,0,0,.26.24.24,0,0,0,.22.07h.33a1.7,1.7,0,0,0,.33,0Z"/><path class="cls-2" d="M11.34,34.21a4.72,4.72,0,0,1,.52,0,1.39,1.39,0,0,1,.82.27.35.35,0,0,1,.19.32c0,.06,0,.13,0,.22a.78.78,0,0,1,0,.19c0,.22-.25.42-.68.6a1.34,1.34,0,0,1-.56.12,1.1,1.1,0,0,1-.59-.15c-.18,0-.25-.14-.21-.35a.65.65,0,0,1,0-.25.53.53,0,0,1,0-.2c0-.2,0-.4,0-.6v-.18c0-.07,0-.3-.09-.7a.5.5,0,0,1,.06-.26.21.21,0,0,1,.23-.11.23.23,0,0,1,.15.19v.35c0,.11,0,.25,0,.42S11.19,34.21,11.34,34.21Zm-.05,1a1.05,1.05,0,0,0,.55.09c.46-.05.66-.15.58-.3s-.08-.19-.25-.27a1.53,1.53,0,0,0-.36-.07h-.48a.23.23,0,0,0-.12.06.17.17,0,0,0,0,.14V35C11.16,35.16,11.2,35.24,11.29,35.25Z"/><path class="cls-2" d="M18.44,32.72c0,.07-.16.1-.38.1H16.79l-.4,0c-.17,0-.28,0-.33.13s0,.31,0,.49.05.78.13,2l0,.13a.32.32,0,0,1-.06.25.36.36,0,0,1-.23.13s-.1,0-.16-.14a1,1,0,0,1-.1-.51l0-1.2c0-.5,0-.88,0-1.14a4.23,4.23,0,0,1,0-.54.29.29,0,0,1,.12-.15.16.16,0,0,1,.18,0l.28,0a3.12,3.12,0,0,1,.44,0l.89.05a1.29,1.29,0,0,1,.73.19C18.42,32.58,18.46,32.66,18.44,32.72Z"/><path class="cls-2" d="M21,33c.16,0,.22.11.16.33a2.24,2.24,0,0,1-.16.44,4,4,0,0,0-.28.64l-.07.24c-.05.16-.12.37-.2.64s-.16.56-.2.67c-.08.31-.13.52-.16.62s-.06.21-.1.32a.2.2,0,0,1-.19.13.37.37,0,0,1-.21-.08.21.21,0,0,1-.09-.19.58.58,0,0,1,.08-.27,1.11,1.11,0,0,0,.14-.32,4.14,4.14,0,0,0,.13-.64.86.86,0,0,0,0-.23,1.52,1.52,0,0,0-.34-.68,1.66,1.66,0,0,1-.18-.3l-.17-.3a3.07,3.07,0,0,1-.38-.61.44.44,0,0,1,.06-.34c.07-.13.14-.18.22-.14a2,2,0,0,1,.43.61l.12.23a1,1,0,0,0,.44.5c.19.12.37-.06.54-.55a1.54,1.54,0,0,1,.14-.62A.33.33,0,0,1,21,33Z"/><path class="cls-2" d="M22.08,33.76a1.41,1.41,0,0,1,.49-.16,1.28,1.28,0,0,1,.72.08,1.26,1.26,0,0,1,.49.34,1.12,1.12,0,0,1,.2.47,1.84,1.84,0,0,1,0,.66.8.8,0,0,1-.16.38,1.13,1.13,0,0,1-.38.32A1.24,1.24,0,0,1,23,36a1.77,1.77,0,0,1-1-.2.91.91,0,0,1-.39-.47,1.83,1.83,0,0,1-.1-.62,3,3,0,0,1,.05-.65,3.21,3.21,0,0,1,.13-.59A1.51,1.51,0,0,1,21.9,33a.85.85,0,0,1,.4-.26,2.66,2.66,0,0,1,.35-.08l.35,0a1.1,1.1,0,0,0,.33-.09.74.74,0,0,1,.22-.08.19.19,0,0,1,.18.12.64.64,0,0,1,.07.24c0,.12-.06.2-.2.24a.92.92,0,0,1-.46.1l-.48,0a1.17,1.17,0,0,0-.35.13,1,1,0,0,0-.17.22A.74.74,0,0,0,22.08,33.76Zm1.25.57a.71.71,0,0,0-.46-.21,1.56,1.56,0,0,0-.37,0,.7.7,0,0,0-.52.29c-.07.38,0,.62.1.74a.91.91,0,0,0,.7.22.76.76,0,0,0,.25,0,.49.49,0,0,0,.42-.32,1,1,0,0,0,0-.37A.63.63,0,0,0,23.33,34.33Z"/><path class="cls-2" d="M25.3,34.79c-.13,0-.18.11-.14.22a.85.85,0,0,0,.38.34,1.23,1.23,0,0,0,.35,0,1.35,1.35,0,0,0,.59-.12,1.86,1.86,0,0,1,.36-.15c.08,0,.11.09.11.26a.59.59,0,0,1-.39.49,1.6,1.6,0,0,1-.7.15.82.82,0,0,1-.27,0,1.33,1.33,0,0,1-1-1.27,2.07,2.07,0,0,1,.14-.94,1.08,1.08,0,0,1,.57-.61,1.38,1.38,0,0,1,.52-.12,1.47,1.47,0,0,1,.93.29l.13.11a1,1,0,0,1,.29.76.66.66,0,0,1-.08.34,7.39,7.39,0,0,0-.8.13c-.28,0-.51.06-.69.07Zm1.13-.57c.17,0,.23-.12.2-.22a.12.12,0,0,0,0-.08.19.19,0,0,1-.08-.08l-.06-.07s-.09,0-.37-.1a.85.85,0,0,0-.89.29.18.18,0,0,0,0,.24.28.28,0,0,0,.24.08h.33a1.7,1.7,0,0,0,.33,0Z"/><path class="cls-2" d="M30.21,34.48a1.25,1.25,0,0,1-.13.57,1.29,1.29,0,0,1-1,.79.77.77,0,0,1-.37,0c-.17-.05-.27-.06-.32,0a.4.4,0,0,0-.11.14c0,.11,0,.28,0,.51a2.47,2.47,0,0,1,0,.58.26.26,0,0,1-.16.18.12.12,0,0,1-.19-.06l-.05-.07s0-.21,0-.59c0-.13,0-.27,0-.4v-.89a3.82,3.82,0,0,0-.05-.65,2.39,2.39,0,0,0,0-.31l0-.31-.05-.29a.31.31,0,0,1,.05-.26.34.34,0,0,1,.23-.14h0a1.42,1.42,0,0,1,.65-.14,2,2,0,0,1,1,.27A1.3,1.3,0,0,1,30.21,34.48ZM29.56,34a1,1,0,0,0-.67-.24.69.69,0,0,0-.25,0,.58.58,0,0,0-.35.45,1.28,1.28,0,0,0,.05.65v0c.06.16.21.24.46.24a1.32,1.32,0,0,0,.34,0,.76.76,0,0,0,.62-.53A.55.55,0,0,0,29.56,34Z"/><path class="cls-2" d="M33.2,35.05v.36a2,2,0,0,1,0,.35c0,.13-.08.2-.17.22l-.24,0-.39,0h-.17a2.79,2.79,0,0,1-1.17-.18.71.71,0,0,1-.35-.66,1,1,0,0,1,.06-.34.82.82,0,0,1,.95-.55,2.39,2.39,0,0,0,.59,0c.27,0,.4-.11.4-.2s0-.17-.18-.25a.67.67,0,0,0-.37-.1,3.63,3.63,0,0,0-.45.07l-.45.08c-.14,0-.21,0-.21-.19a.75.75,0,0,1,.08-.3.23.23,0,0,1,.19-.11l.53-.12.3,0a.81.81,0,0,1,.38,0,1.22,1.22,0,0,1,.46.3,1,1,0,0,1,.24.69c0,.07,0,.16,0,.28s0,.25,0,.3S33.19,34.91,33.2,35.05Zm-1.14.34q.69,0,.75-.3V35c-.06-.14-.21-.21-.44-.21h-.33a1.26,1.26,0,0,0-.75.19c-.1.08-.15.13-.15.18s0,.1.13.15a2.67,2.67,0,0,0,.52.09Z"/><path d="M4.61,32.52a.19.19,0,0,1-.16.22l-.39,0-.36,0a.35.35,0,0,0-.15.17v0c0,.26,0,.53,0,.79s0,.41,0,.52a1.63,1.63,0,0,1,0,.24V35a2.2,2.2,0,0,0,0,.27,2.16,2.16,0,0,1,0,.29.48.48,0,0,1-.07.26.18.18,0,0,1-.22.1.18.18,0,0,1-.14-.18l0-.35s0-.08,0-.25a1.53,1.53,0,0,1,0-.18,1.49,1.49,0,0,0,0-.17V34.5a8.44,8.44,0,0,0-.07-1.07L3.09,33A.16.16,0,0,0,3,32.79a1.42,1.42,0,0,0-.36,0H2.24c-.09-.05-.13-.17-.11-.38a.11.11,0,0,1,.1-.11h.1l1.45-.06h.39a1,1,0,0,1,.33,0C4.58,32.27,4.61,32.36,4.61,32.52Z"/><path d="M5.63,34.79c-.14,0-.19.11-.15.22a.86.86,0,0,0,.39.34,1.16,1.16,0,0,0,.34,0,1.35,1.35,0,0,0,.59-.12l.36-.15c.08,0,.12.09.12.26a.59.59,0,0,1-.4.49,1.6,1.6,0,0,1-.7.15.91.91,0,0,1-.27,0,1.32,1.32,0,0,1-1-1.27,2.07,2.07,0,0,1,.13-.94,1.08,1.08,0,0,1,.57-.61,1.38,1.38,0,0,1,.52-.12,1.47,1.47,0,0,1,.93.29l.14.11a1,1,0,0,1,.28.76.66.66,0,0,1-.08.34,7.87,7.87,0,0,0-.8.13c-.28,0-.5.06-.68.07Zm1.12-.57c.17,0,.24-.12.21-.22a.15.15,0,0,0,0-.08l-.08-.08-.06-.07s-.09,0-.37-.1a.85.85,0,0,0-.89.29c-.07.09-.08.17,0,.24a.26.26,0,0,0,.24.08h.32a1.7,1.7,0,0,0,.33,0Z"/><path d="M9.58,34.24c0-.08,0-.18,0-.31s0-.13,0-.27a1.52,1.52,0,0,1,0-.39c0-.09.08-.14.15-.14s.18.07.19.21a4.72,4.72,0,0,1,0,.7v.79h0a8,8,0,0,0,.05.8.34.34,0,0,1-.07.29q-.18.15-.3.06c-.06,0-.09-.11-.09-.22a3,3,0,0,1,.08-.47,1.49,1.49,0,0,0,0-.24l0-.36c-.26,0-.48.06-.65.07l-.34,0-.11,0c0,.07,0,.14,0,.21s0,.22.07.39l0,.2a.16.16,0,0,1-.05.18.28.28,0,0,1-.23.1s-.09,0-.15-.11a.58.58,0,0,1-.1-.38V35a2.6,2.6,0,0,0,0-.56l0-.51s0-.12,0-.25a1.53,1.53,0,0,1,0-.27.3.3,0,0,1,.05-.21c.24-.18.36.05.36.71V34a1.11,1.11,0,0,0,0,.26.24.24,0,0,0,.22.07h.33a1.7,1.7,0,0,0,.33,0Z"/><path d="M11.34,34.21a4.72,4.72,0,0,1,.52,0,1.39,1.39,0,0,1,.82.27.35.35,0,0,1,.19.32c0,.06,0,.13,0,.22a.78.78,0,0,1,0,.19c0,.22-.25.42-.68.6a1.34,1.34,0,0,1-.56.12,1.1,1.1,0,0,1-.59-.15c-.18,0-.25-.14-.21-.35a.65.65,0,0,1,0-.25.53.53,0,0,1,0-.2c0-.2,0-.4,0-.6v-.18c0-.07,0-.3-.09-.7a.5.5,0,0,1,.06-.26.21.21,0,0,1,.23-.11.23.23,0,0,1,.15.19v.35c0,.11,0,.25,0,.42S11.19,34.21,11.34,34.21Zm-.05,1a1.05,1.05,0,0,0,.55.09c.46-.05.66-.15.58-.3s-.08-.19-.25-.27a1.53,1.53,0,0,0-.36-.07h-.48a.23.23,0,0,0-.12.06.17.17,0,0,0,0,.14V35C11.16,35.16,11.2,35.24,11.29,35.25Z"/><path d="M18.44,32.72c0,.07-.16.1-.38.1H16.79l-.4,0c-.17,0-.28,0-.33.13s0,.31,0,.49.05.78.13,2l0,.13a.32.32,0,0,1-.06.25.36.36,0,0,1-.23.13s-.1,0-.16-.14a1,1,0,0,1-.1-.51l0-1.2c0-.5,0-.88,0-1.14a4.23,4.23,0,0,1,0-.54.29.29,0,0,1,.12-.15.16.16,0,0,1,.18,0l.28,0a3.12,3.12,0,0,1,.44,0l.89.05a1.29,1.29,0,0,1,.73.19C18.42,32.58,18.46,32.66,18.44,32.72Z"/><path d="M21,33c.16,0,.22.11.16.33a2.24,2.24,0,0,1-.16.44,4,4,0,0,0-.28.64l-.07.24c-.05.16-.12.37-.2.64s-.16.56-.2.67c-.08.31-.13.52-.16.62s-.06.21-.1.32a.2.2,0,0,1-.19.13.37.37,0,0,1-.21-.08.21.21,0,0,1-.09-.19.58.58,0,0,1,.08-.27,1.11,1.11,0,0,0,.14-.32,4.14,4.14,0,0,0,.13-.64.86.86,0,0,0,0-.23,1.52,1.52,0,0,0-.34-.68,1.66,1.66,0,0,1-.18-.3l-.17-.3a3.07,3.07,0,0,1-.38-.61.44.44,0,0,1,.06-.34c.07-.13.14-.18.22-.14a2,2,0,0,1,.43.61l.12.23a1,1,0,0,0,.44.5c.19.12.37-.06.54-.55a1.54,1.54,0,0,1,.14-.62A.33.33,0,0,1,21,33Z"/><path d="M22.08,33.76a1.41,1.41,0,0,1,.49-.16,1.28,1.28,0,0,1,.72.08,1.26,1.26,0,0,1,.49.34,1.12,1.12,0,0,1,.2.47,1.84,1.84,0,0,1,0,.66.8.8,0,0,1-.16.38,1.13,1.13,0,0,1-.38.32A1.24,1.24,0,0,1,23,36a1.77,1.77,0,0,1-1-.2.91.91,0,0,1-.39-.47,1.83,1.83,0,0,1-.1-.62,3,3,0,0,1,.05-.65,3.21,3.21,0,0,1,.13-.59A1.51,1.51,0,0,1,21.9,33a.85.85,0,0,1,.4-.26,2.66,2.66,0,0,1,.35-.08l.35,0a1.1,1.1,0,0,0,.33-.09.74.74,0,0,1,.22-.08.19.19,0,0,1,.18.12.64.64,0,0,1,.07.24c0,.12-.06.2-.2.24a.92.92,0,0,1-.46.1l-.48,0a1.17,1.17,0,0,0-.35.13,1,1,0,0,0-.17.22A.74.74,0,0,0,22.08,33.76Zm1.25.57a.71.71,0,0,0-.46-.21,1.56,1.56,0,0,0-.37,0,.7.7,0,0,0-.52.29c-.07.38,0,.62.1.74a.91.91,0,0,0,.7.22.76.76,0,0,0,.25,0,.49.49,0,0,0,.42-.32,1,1,0,0,0,0-.37A.63.63,0,0,0,23.33,34.33Z"/><path d="M25.3,34.79c-.13,0-.18.11-.14.22a.85.85,0,0,0,.38.34,1.23,1.23,0,0,0,.35,0,1.35,1.35,0,0,0,.59-.12,1.86,1.86,0,0,1,.36-.15c.08,0,.11.09.11.26a.59.59,0,0,1-.39.49,1.6,1.6,0,0,1-.7.15.82.82,0,0,1-.27,0,1.33,1.33,0,0,1-1-1.27,2.07,2.07,0,0,1,.14-.94,1.08,1.08,0,0,1,.57-.61,1.38,1.38,0,0,1,.52-.12,1.47,1.47,0,0,1,.93.29l.13.11a1,1,0,0,1,.29.76.66.66,0,0,1-.08.34,7.39,7.39,0,0,0-.8.13c-.28,0-.51.06-.69.07Zm1.13-.57c.17,0,.23-.12.2-.22a.12.12,0,0,0,0-.08.19.19,0,0,1-.08-.08l-.06-.07s-.09,0-.37-.1a.85.85,0,0,0-.89.29.18.18,0,0,0,0,.24.28.28,0,0,0,.24.08h.33a1.7,1.7,0,0,0,.33,0Z"/><path d="M30.21,34.48a1.25,1.25,0,0,1-.13.57,1.29,1.29,0,0,1-1,.79.77.77,0,0,1-.37,0c-.17-.05-.27-.06-.32,0a.4.4,0,0,0-.11.14c0,.11,0,.28,0,.51a2.47,2.47,0,0,1,0,.58.26.26,0,0,1-.16.18.12.12,0,0,1-.19-.06l-.05-.07s0-.21,0-.59c0-.13,0-.27,0-.4v-.89a3.82,3.82,0,0,0-.05-.65,2.39,2.39,0,0,0,0-.31l0-.31-.05-.29a.31.31,0,0,1,.05-.26.34.34,0,0,1,.23-.14h0a1.42,1.42,0,0,1,.65-.14,2,2,0,0,1,1,.27A1.3,1.3,0,0,1,30.21,34.48ZM29.56,34a1,1,0,0,0-.67-.24.69.69,0,0,0-.25,0,.58.58,0,0,0-.35.45,1.28,1.28,0,0,0,.05.65v0c.06.16.21.24.46.24a1.32,1.32,0,0,0,.34,0,.76.76,0,0,0,.62-.53A.55.55,0,0,0,29.56,34Z"/><path d="M33.2,35.05v.36a2,2,0,0,1,0,.35c0,.13-.08.2-.17.22l-.24,0-.39,0h-.17a2.79,2.79,0,0,1-1.17-.18.71.71,0,0,1-.35-.66,1,1,0,0,1,.06-.34.82.82,0,0,1,.95-.55,2.39,2.39,0,0,0,.59,0c.27,0,.4-.11.4-.2s0-.17-.18-.25a.67.67,0,0,0-.37-.1,3.63,3.63,0,0,0-.45.07l-.45.08c-.14,0-.21,0-.21-.19a.75.75,0,0,1,.08-.3.23.23,0,0,1,.19-.11l.53-.12.3,0a.81.81,0,0,1,.38,0,1.22,1.22,0,0,1,.46.3,1,1,0,0,1,.24.69c0,.07,0,.16,0,.28s0,.25,0,.3S33.19,34.91,33.2,35.05Zm-1.14.34q.69,0,.75-.3V35c-.06-.14-.21-.21-.44-.21h-.33a1.26,1.26,0,0,0-.75.19c-.1.08-.15.13-.15.18s0,.1.13.15a2.67,2.67,0,0,0,.52.09Z"/></g></svg>