<svg xmlns="http://www.w3.org/2000/svg" viewBox="0 0 30.91 48.6"><defs><style>.cls-1{fill:#7c5c5c;}.cls-2{fill:#1a1a1a;}.cls-3{fill:#ccbebe;}.cls-4,.cls-8{fill:none;}.cls-4{stroke:#fff;stroke-linejoin:bevel;stroke-width:2.13px;}.cls-5{fill:#fff;}.cls-6{fill:#e82828;}.cls-7{fill:#8e0a0a;}.cls-8{stroke:#8e0a0a;stroke-miterlimit:10;}</style></defs><title>personaji_3</title><g id="Слой_1" data-name="Слой 1"><path class="cls-1" d="M23,21.07a1.4,1.4,0,0,0-.47.53l-.16.09a1.39,1.39,0,0,0-1.12.6,1,1,0,0,0-.52.22H20.6a1.08,1.08,0,0,0-1.08.48l-1.12-.14s0-.05-.06-.07L18,22.57a.44.44,0,0,0-.63.15l-.1.13a0,0,0,0,0,0,0,.48.48,0,0,0-.43.22l0,0-.08-.06a2,2,0,0,0-1.63-.57l-.45-.14a.42.42,0,0,0-.39.1l0,.07c-.37.1-.35.7-.2,1.06a1.53,1.53,0,0,0,.62,1,2.2,2.2,0,0,0,.26.27,2.52,2.52,0,0,0,.64.49,1.67,1.67,0,0,0,.93.33,1.53,1.53,0,0,0,1.43-.36A1.75,1.75,0,0,0,19.3,26a2.79,2.79,0,0,0,1.55.66,2.13,2.13,0,0,0,1.4-.24,1.41,1.41,0,0,0,1.7-.36l0,0c.84,0,1.53-.28,1.59-1.1a1.13,1.13,0,0,0,0-.26l.06-.14a.51.51,0,0,0,.41.16.91.91,0,0,0,.66-.23.76.76,0,0,0,.87-.66.5.5,0,0,0,.43-.32.41.41,0,0,0,.37,0l.1,0a.67.67,0,0,0,.33-.39.51.51,0,0,0,.36-.44.52.52,0,0,0,.29.09c.83.25,1.28-.89.65-1.52L29.93,21c-.05-.11.08-.1,0-.16l.2-.17c.22-.21.46-.3.27-.62-.05-.09-.6-.54-.66-.6s.75-.24.76-.45c.32-.54-.47-1.6-1.17-1.92L29.24,17a4,4,0,0,0,0-.59,2.59,2.59,0,0,0-1.1-1.81,1.56,1.56,0,0,0,0-.72,1.8,1.8,0,0,0-1.45-1.15l0-.07a2.78,2.78,0,0,0-.44-1.21,1.71,1.71,0,0,0-.25-.75A3.8,3.8,0,0,0,24.5,9.58a1.5,1.5,0,0,0-.93-.83,1.41,1.41,0,0,0-.27-.05A1.15,1.15,0,0,0,23,8a1.5,1.5,0,0,0-1.58-.76,2.06,2.06,0,0,0-.86.09.74.74,0,0,0-.14,1.22l.17.15a.84.84,0,0,0,.35.81.43.43,0,0,0,.21.26l.22.09s0,.06,0,.09a.39.39,0,0,0,.19.27l.34.11a3.81,3.81,0,0,0,.88,1,2,2,0,0,0,1.12,1.89,1.82,1.82,0,0,0,.27.64.28.28,0,0,0,.06.08l.15.17a2.81,2.81,0,0,0,.59,1c.05.15.11.29.17.43a.84.84,0,0,0-.05.17,2.18,2.18,0,0,0-.06,1,1.49,1.49,0,0,0,.2,1.31,1,1,0,0,0-.29.23c-1,.24-1.21.86-1,1.51,0,.11-.44.53-.48.68s-.26.44-.32.68c-.15.54,1,1.21,1.57,1.51"/><path class="cls-2" d="M22.4,21.12a6.57,6.57,0,0,1-2.49,1.31c-.7.15-1.1-.23-1.75-.15a2.83,2.83,0,0,0-1.92,1l1.18-.32c-.93-.63-3.15-1.4-3.93-.06-1.6,2.72,3.59,2.8,4.42,3,2,.46,3.22,1.31,5.42.81a3.6,3.6,0,0,0,2.9-2.26L25,24.72c1.82.72,3.71-1,4.72-2.22l-1.12.34c3,1,2-2.59,1.95-3.54s.74-.11,0-1.85a2.23,2.23,0,0,0-.73-.59,2.34,2.34,0,0,0-.33-1.58A8.83,8.83,0,0,0,28.13,13a.56.56,0,0,0-.47-.24c-.63-.15-.93-.62-.88-1.4-1.4-2.25,1,.71-.86-1.41a18.88,18.88,0,0,0-2.7-2.4c-.77-.46-2.49-.86-3.28,0-1.22,1.3,1,2.68,1.74,3.61,1.83,2.37,3.28,4.61,2.15,7.49-.78,2-2.23,2.88.28,4.31.31.17,1.31-.34,1.17-.42-2-1.1-.92-3.33.5-4.45a.13.13,0,0,0,.06-.11c-.38-1,0-1.93-.25-2.92a17.88,17.88,0,0,0-1.11-1.91,30.74,30.74,0,0,0-2-2.92c-.34-.42-1-.54-1.11-1.18-.27-1.38,1.36,0,2,.36,1.59.89,1.64,2.25,2.67,3.55s1.53,1.32,2.09,2.83l.58,1.57c.25.4,2.13,1.41.68,2.12-.08,0-.36.17-.23.28.35.31.64.87.22,1.24a.14.14,0,0,0-.06.11c.21.39-.37,1.09.37,1.34a1.29,1.29,0,0,0-1.12.34c0,.05-1.75,1.82-2.34,1.59-.27-.11-1.05,0-1.19.32-1.07,2.34-4.77,1.84-6.51.47-.23-.18-.84.08-1.05.2-1.41.83-5.14-4.65-1.19-2,.26.18,1-.08,1.19-.32S19,23.23,20,23a7.5,7.5,0,0,0,3.49-2c.23-.26-.92-.11-1.12.1Z"/><path class="cls-2" d="M25.59,18.86c-.31.08-.35.14-.11.19a1.23,1.23,0,0,1,.26.12,2.61,2.61,0,0,1,.51.36c.44.36,1.5-.27.95-.73s-2-1.23-2.65-.32c-.45.64.7.86,1,.38Z"/><path class="cls-2" d="M25.61,16.37c.17-.16.16-.19.37-.11a1.66,1.66,0,0,1,.43.32c.44.37,1.5-.26.94-.73a1.82,1.82,0,0,0-2.57-.08c-.6.58.37,1,.83.6Z"/><path class="cls-2" d="M28.73,22.27l.43-.36a.52.52,0,0,1-.19-.17,1.42,1.42,0,0,1-.2-.28c-.21-.33-.89-.16-1.08.1,0,0-.37-.28-.37-.41,0-.62-1.22-.44-1.24.1-.06,1.27,2,1.53,2.63.65l-1.07.1a1.57,1.57,0,0,0,1.33.82c.5,0,1.09-.31,1-.88s-1.33-.24-1.23.33Z"/><path class="cls-2" d="M25.67,24c-.1,0-.3.1-.35-.06-.15-.48-.88-.33-1.13,0q.33-.09,0-.15a.59.59,0,0,1-.23-.24c-.27-.56-1.49-.21-1.24.33a1.56,1.56,0,0,0,2.54.45l-1.14,0c.29.9,1.45.81,2.13.5.25-.11.46-.41.29-.66s-.6-.22-.84-.11Z"/><path class="cls-2" d="M19.26,22.74c-1.21.49-.14,1.7.46,2.2.4.32,1.49-.25,1-.68a2.71,2.71,0,0,1-.52-.55,1.83,1.83,0,0,1-.16-.26.58.58,0,0,1-.05-.14c0-.12-.07-.09-.16.1.22-.09.47-.36.3-.6s-.6-.16-.83-.07Z"/><path class="cls-2" d="M16.31,23.26c-.29.39,0,.73.29,1s1.42-.16,1.15-.46c-.1-.1-.44-.41-.3-.59s-.15-.3-.32-.3a1.13,1.13,0,0,0-.82.32Z"/><path class="cls-2" d="M30.44,18.86A.9.9,0,0,0,30,18.2a2.09,2.09,0,0,0-.54-.16c-.24-.06,0,.07-.11-.13s-.58-.36-.83-.4a2.1,2.1,0,0,0-1.11.13c-.17.06-.5.27-.34.48s.63.06.82,0c-.07,0,.25.22.32.3a.67.67,0,0,0,.21.2c.34.18.78.05.84.57s1.28.12,1.23-.33Z"/><path class="cls-2" d="M24.69,13v0l-.33.24c-.18.09-.2,0,0,.1a.9.9,0,0,1,.27.2c.23.24.72.07,1-.05-.33.17-.17.06,0,.23a.83.83,0,0,0,.81,0c.12-.05.56-.33.33-.5a1.77,1.77,0,0,0-1.95-.12l.95-.05a1.66,1.66,0,0,0-1.3-.5c-.41,0-1.14.25-1,.79s1.33.12,1.23-.33Z"/><path class="cls-2" d="M25.44,9.6a2.79,2.79,0,0,0-1.92-.92c-.56,0-1.55.3-1.3,1,.16.46,1.38.12,1.23-.33-.23,0-.23.09,0,.12a2.07,2.07,0,0,1,.34.15,2.22,2.22,0,0,1,.53.44c.31.34,1.49-.12,1.14-.5Z"/><path class="cls-2" d="M23.62,25.85c-.11,0-.39-.21-.47-.29a1.15,1.15,0,0,1-.3-.51c-.1-.29-1.32.06-1.23.33a1.48,1.48,0,0,0,1.77.94c.14,0,.72-.14.72-.34s-.36-.16-.49-.13Z"/><path class="cls-3" d="M27.53,9c.23.18.53.17.8-.18A1.7,1.7,0,0,0,29.1,8a3.48,3.48,0,0,0,.25-.68,6.12,6.12,0,0,0,.4-2.4,1.16,1.16,0,0,0-.11-.48,2.51,2.51,0,0,0-1.76-2h0c-.14,0-.27-.11-.42-.15h0c-.42-.16-.7-.51-1-.34a1.08,1.08,0,0,0-.29.13,5.62,5.62,0,0,0-.62-.29c-.88-.71-1.67-.22-2.68-.67C22.28.83,21.41,3.66,22.21,4l1.56.69a2.3,2.3,0,0,0,.67.29h.08a.52.52,0,0,0,.24.3l.62.32a.17.17,0,0,0,.17,0c.31.72-.21,1.13.45,1.39,0,0,.13.63.13.65s.57.22.57.31.41-.17.41-.11a1.43,1.43,0,0,0,0,.29c0,.06,0,.12,0,.17s0,.08,0,.12l0,.14a1.24,1.24,0,0,0,.1.2v0s0,0,.05.07l.05.05A.34.34,0,0,0,27.53,9Z"/><path class="cls-3" d="M11.88,32.33a.68.68,0,0,0,.77,0,4.24,4.24,0,0,0,.66.2.73.73,0,0,0,.33,0,1.24,1.24,0,0,0,1.07.18,1.34,1.34,0,0,0,.66-.52,1.72,1.72,0,0,0,.28-.08,1.66,1.66,0,0,0,.85-.84l.11,0a3.06,3.06,0,0,0,.59-.4,4.28,4.28,0,0,0,.45-.4A1.46,1.46,0,0,0,18,30a2.37,2.37,0,0,0,.27-1.85c-.14-.41-.59-.8-1-.45a6,6,0,0,0-.79.71l-.13.06-.06,0c-.29-.31-.74-.4-1.35,0a1.51,1.51,0,0,0-.47.21,3.69,3.69,0,0,0-1.94-.52A11.31,11.31,0,0,0,11,27.28a.7.7,0,0,0-.33-.07l-.93-.89c-1.06-1-1.7,2-1.34,2.65a5.92,5.92,0,0,0,1.27,1.62.48.48,0,0,0,.51.14A6.15,6.15,0,0,0,11.88,32.33Z"/><path d="M5.23,25.91c1.86,2.68,3.94,8.33,7.94,8.09a6.9,6.9,0,0,0,6.19-5.83c.2-1-1.9-.74-2.07.16-.5,2.57-3.13,5.61-5.71,3.16-1.9-1.81-3-4.35-4.46-6.48-.52-.75-2.48,0-1.89.9Z"/><path d="M18.18,2.39c2.77-.07,8.37-2.22,10,.77,1.37,2.54,0,4.93-1.74,6.89-.45.51,1.52.28,1.87-.12C30.16,7.81,32,4.62,29.84,2s-8-.55-10.79-.47c-.59,0-2.23.92-.87.88Z"/><path class="cls-4" d="M7.66,45.11h0s-.12-.05-.29-.05l-.82,0-.37,0a2.71,2.71,0,0,0-.36,0l-.23,0c-.14,0-.23,0-.26-.16l0,0a1.5,1.5,0,0,1-.09-.32l0-.75v-.24l0-.21c0-.31,0-.62,0-.94v-.53a.62.62,0,0,1,0-.21.28.28,0,0,1,.16-.18.13.13,0,0,1,.2.07l0,.06a1.46,1.46,0,0,1,0,.55q0,.22,0,.51c0,.71,0,1.15,0,1.33a.57.57,0,0,1,0,.13.56.56,0,0,0,.38.28h.41a7,7,0,0,0,.93-.06h0v-.64c0-.2,0-.58,0-1.12v-.34c0-.06,0-.16,0-.29a2.13,2.13,0,0,1,0-.3.46.46,0,0,1,.06-.28.2.2,0,0,1,.22-.11.23.23,0,0,1,.15.2v.36s0,.1,0,.27a3.51,3.51,0,0,0,0,.37,2.19,2.19,0,0,0,0,.29,8.93,8.93,0,0,0,.07,1.11l0,.45a1,1,0,0,1,.31.09.31.31,0,0,1,.13.23,3.31,3.31,0,0,1,0,.8.24.24,0,0,1-.15.22.29.29,0,0,1-.24,0,2.25,2.25,0,0,1-.1-.44A.43.43,0,0,0,7.66,45.11Z"/><path class="cls-4" d="M10.94,44.28v.36a2.24,2.24,0,0,1,0,.36.24.24,0,0,1-.17.22l-.24,0-.39,0H10A2.79,2.79,0,0,1,8.79,45a.7.7,0,0,1-.35-.66A1,1,0,0,1,8.5,44a.8.8,0,0,1,.95-.54,3.07,3.07,0,0,0,.59,0c.27,0,.4-.1.4-.2s0-.17-.18-.25a.74.74,0,0,0-.37-.1L9.44,43,9,43.05c-.15,0-.22,0-.22-.19a.67.67,0,0,1,.08-.29.22.22,0,0,1,.19-.12l.54-.12.29,0a.69.69,0,0,1,.38.05,1.22,1.22,0,0,1,.46.3.93.93,0,0,1,.24.69c0,.07,0,.16,0,.27s0,.25,0,.3S10.93,44.14,10.94,44.28Zm-1.14.35c.46,0,.71-.11.75-.31v-.11c-.06-.13-.21-.2-.44-.2H9.79a1.26,1.26,0,0,0-.75.2c-.1.07-.15.13-.15.17s0,.11.13.15a1.67,1.67,0,0,0,.52.09Z"/><path class="cls-4" d="M14.07,43.71a1.22,1.22,0,0,1-.13.57,1.3,1.3,0,0,1-1,.8.76.76,0,0,1-.37,0c-.17,0-.27-.06-.32,0a.37.37,0,0,0-.11.15c0,.1,0,.27,0,.51a2.35,2.35,0,0,1,0,.57.26.26,0,0,1-.16.18.12.12,0,0,1-.19-.06l0-.07s0-.2,0-.59c0-.13,0-.26,0-.4v-.89a3.69,3.69,0,0,0-.05-.64,2.36,2.36,0,0,0,0-.32l0-.31-.05-.28a.32.32,0,0,1,.28-.4h0a1.4,1.4,0,0,1,.65-.13,1.9,1.9,0,0,1,1,.26A1.3,1.3,0,0,1,14.07,43.71Zm-.65-.47a1,1,0,0,0-.67-.25.69.69,0,0,0-.25,0,.62.62,0,0,0-.35.45,1.27,1.27,0,0,0,0,.65v0c.06.16.21.24.46.24a1.32,1.32,0,0,0,.34,0,.77.77,0,0,0,.62-.52A.55.55,0,0,0,13.42,43.24Z"/><path class="cls-4" d="M16.63,44.44l.06.35,0,.16c0,.08,0,.13,0,.16a.36.36,0,0,1-.24.08.44.44,0,0,1-.16-.09,1.13,1.13,0,0,1-.1-.48s0,.05-.09.1a4.28,4.28,0,0,1-.59.32.78.78,0,0,1-.68,0,.59.59,0,0,1-.19-.51,2.08,2.08,0,0,1,0-.41l.05-.28c0-.05,0-.12,0-.21l0-.52a1.52,1.52,0,0,0,0-.25c0-.12,0-.2,0-.27a.3.3,0,0,1,0-.2c.24-.19.36,0,.36.7v.06c0,.08,0,.21,0,.39V44a1.18,1.18,0,0,0,0,.49c0,.13.15.16.37.07a1.31,1.31,0,0,0,.61-.52,1.15,1.15,0,0,0,.09-.51,1.45,1.45,0,0,0,0-.35,1.64,1.64,0,0,1,0-.27,1.17,1.17,0,0,1,0-.39c0-.09.08-.14.15-.14s.18.07.19.21a6.81,6.81,0,0,1,0,.7l0,.65s0,.15,0,.34S16.62,44.4,16.63,44.44Z"/><path class="cls-4" d="M19.66,45s-.05.11-.13.17-.24,0-.51-.29l-.24-.27-.22-.26a2.41,2.41,0,0,0-.53-.46.2.2,0,0,0-.22,0l-.06,0a.43.43,0,0,0-.07.22v.12l0,.23.05.26a.28.28,0,0,1-.06.23c-.09.09-.16.13-.23.12s-.08,0-.14-.14a1,1,0,0,1-.1-.49l0-1.14c0-.6,0-.92,0-1a.31.31,0,0,1,.16-.16.12.12,0,0,1,.18.06l.05.07a2.21,2.21,0,0,1,0,.48c0,.11,0,.18,0,.22s.1.22.27.22a.51.51,0,0,0,.22-.07,2.68,2.68,0,0,0,.56-.59.9.9,0,0,1,.54-.41c.13,0,.19,0,.18.13a1.44,1.44,0,0,1-.08.28,3.26,3.26,0,0,1-.34.44l-.15.2a1,1,0,0,0-.15.21c0,.07.13.3.43.69a2.81,2.81,0,0,1,.24.32c.1.17.18.28.21.33S19.66,45,19.66,45Z"/><path class="cls-4" d="M22.76,43.64a1.5,1.5,0,0,1-.15.64,2.06,2.06,0,0,1-.38.64.86.86,0,0,1-.65.26A3,3,0,0,1,21,45.1q-.87-.21-.87-1.32a1.84,1.84,0,0,1,0-.33,1.4,1.4,0,0,1,.41-.84,1,1,0,0,1,.85-.31h.11a5,5,0,0,1,.53.1A1.33,1.33,0,0,1,22.76,43.64Zm-.49-.42a.71.71,0,0,0-.46-.28l-.25,0c-.17,0-.24,0-.2,0l-.07,0a1.09,1.09,0,0,0-.51.36.84.84,0,0,0-.24.53.55.55,0,0,0,.26.5.86.86,0,0,0,.58.14,1.14,1.14,0,0,0,.61-.23,1,1,0,0,0,.36-.52A.62.62,0,0,0,22.27,43.22Z"/><path class="cls-4" d="M25.21,43.6a.75.75,0,0,1,.36.42,1.27,1.27,0,0,1,.05.34.68.68,0,0,1-.35.66,2.68,2.68,0,0,1-1.09.17H24l-.39,0-.21,0a.29.29,0,0,1-.2-.24,1.42,1.42,0,0,1,0-.26v-.36c0-.14,0-.26,0-.37s0-.15,0-.3,0-.37.05-.44a4.1,4.1,0,0,1,0-.43.36.36,0,0,1,.13-.22.74.74,0,0,1,.39-.12,3.17,3.17,0,0,1,.87,0,1.1,1.1,0,0,1,.43.17.79.79,0,0,1,.22.23,1,1,0,0,1,.08.33.62.62,0,0,1-.08.31A.28.28,0,0,1,25.21,43.6Zm-.69,1.06a2.38,2.38,0,0,0,.52-.09c.1-.08.15-.15.14-.2s-.06-.11-.15-.2a1.3,1.3,0,0,0-.75-.19H24a.47.47,0,0,0-.44.22v.11c0,.23.26.35.67.35ZM24.78,43l-.23-.07-.3,0c-.28,0-.45,0-.51.11a.47.47,0,0,0,0,.31c0,.1.13.16.4.16a1.45,1.45,0,0,0,.32,0c.42-.06.6-.17.53-.32A.35.35,0,0,0,24.78,43Z"/><path d="M7.66,45.11h0s-.12-.05-.29-.05l-.82,0-.37,0a2.71,2.71,0,0,0-.36,0l-.23,0c-.14,0-.23,0-.26-.16l0,0a1.5,1.5,0,0,1-.09-.32l0-.75v-.24l0-.21c0-.31,0-.62,0-.94v-.53a.62.62,0,0,1,0-.21.28.28,0,0,1,.16-.18.13.13,0,0,1,.2.07l0,.06a1.46,1.46,0,0,1,0,.55q0,.22,0,.51c0,.71,0,1.15,0,1.33a.57.57,0,0,1,0,.13.56.56,0,0,0,.38.28h.41a7,7,0,0,0,.93-.06h0v-.64c0-.2,0-.58,0-1.12v-.34c0-.06,0-.16,0-.29a2.13,2.13,0,0,1,0-.3.46.46,0,0,1,.06-.28.2.2,0,0,1,.22-.11.23.23,0,0,1,.15.2v.36s0,.1,0,.27a3.51,3.51,0,0,0,0,.37,2.19,2.19,0,0,0,0,.29,8.93,8.93,0,0,0,.07,1.11l0,.45a1,1,0,0,1,.31.09.31.31,0,0,1,.13.23,3.31,3.31,0,0,1,0,.8.22.22,0,0,1-.15.21.25.25,0,0,1-.24,0,2.25,2.25,0,0,1-.1-.44A.43.43,0,0,0,7.66,45.11Z"/><path d="M10.94,44.28v.36a2.24,2.24,0,0,1,0,.36.24.24,0,0,1-.17.22l-.24,0-.39,0H10A2.79,2.79,0,0,1,8.79,45a.7.7,0,0,1-.35-.66A1,1,0,0,1,8.5,44a.8.8,0,0,1,.95-.54,3.07,3.07,0,0,0,.59,0c.27,0,.4-.1.4-.2s0-.17-.18-.25a.74.74,0,0,0-.37-.1L9.44,43,9,43.05c-.15,0-.22,0-.22-.19a.67.67,0,0,1,.08-.29.22.22,0,0,1,.19-.12l.54-.12.29,0a.69.69,0,0,1,.38.05,1.22,1.22,0,0,1,.46.3.93.93,0,0,1,.24.69c0,.07,0,.16,0,.27s0,.25,0,.3S10.93,44.14,10.94,44.28Zm-1.14.35c.46,0,.71-.11.75-.31v-.11c-.06-.13-.21-.2-.44-.2H9.79a1.26,1.26,0,0,0-.75.2c-.1.07-.15.13-.15.17s0,.11.13.15a1.67,1.67,0,0,0,.52.09Z"/><path d="M14.07,43.71a1.25,1.25,0,0,1-.13.57,1.3,1.3,0,0,1-1,.8.76.76,0,0,1-.37,0c-.17,0-.27-.06-.32,0a.37.37,0,0,0-.11.15c0,.1,0,.27,0,.51a2.35,2.35,0,0,1,0,.57.26.26,0,0,1-.16.18.12.12,0,0,1-.19-.06l0-.07s0-.2,0-.59c0-.13,0-.26,0-.4v-.89a3.69,3.69,0,0,0-.05-.64,2.36,2.36,0,0,0,0-.32l0-.31-.05-.28a.32.32,0,0,1,.28-.4h0a1.4,1.4,0,0,1,.65-.13,1.9,1.9,0,0,1,1,.26A1.3,1.3,0,0,1,14.07,43.71Zm-.65-.47a1,1,0,0,0-.67-.25.69.69,0,0,0-.25,0,.62.62,0,0,0-.35.45,1.28,1.28,0,0,0,0,.65v0c.06.16.21.24.46.24a1.32,1.32,0,0,0,.34,0,.77.77,0,0,0,.62-.52A.55.55,0,0,0,13.42,43.24Z"/><path d="M16.63,44.44l.06.35,0,.16c0,.08,0,.13,0,.16a.36.36,0,0,1-.24.08.44.44,0,0,1-.16-.09,1.13,1.13,0,0,1-.1-.48s0,.05-.09.1a4.28,4.28,0,0,1-.59.32.78.78,0,0,1-.68,0,.59.59,0,0,1-.19-.51,2.08,2.08,0,0,1,0-.41l.05-.28c0-.05,0-.12,0-.21l0-.52a1.52,1.52,0,0,0,0-.25c0-.12,0-.2,0-.27a.3.3,0,0,1,0-.2c.24-.19.36,0,.36.7v0c0,.09,0,.22,0,.4V44a1.18,1.18,0,0,0,0,.49c0,.13.15.16.37.07a1.27,1.27,0,0,0,.61-.53,1.11,1.11,0,0,0,.09-.5,1.45,1.45,0,0,0,0-.35,1.64,1.64,0,0,1,0-.27,1.17,1.17,0,0,1,0-.39c0-.09.08-.14.15-.14s.18.07.19.21a6.81,6.81,0,0,1,0,.7l0,.65s0,.15,0,.34S16.62,44.4,16.63,44.44Z"/><path d="M19.66,45s-.05.11-.13.17-.24,0-.51-.29l-.24-.27-.22-.26a2.41,2.41,0,0,0-.53-.46.2.2,0,0,0-.22,0l-.06,0a.54.54,0,0,0-.07.23v.12l0,.23.05.26a.28.28,0,0,1-.06.23c-.09.09-.16.13-.23.12s-.08,0-.14-.14a1,1,0,0,1-.1-.49l0-1.15q0-.89,0-1a.31.31,0,0,1,.16-.16.12.12,0,0,1,.18.06l.05.07a2.21,2.21,0,0,1,0,.48c0,.11,0,.18,0,.22s.1.21.27.21a.49.49,0,0,0,.22-.06,2.68,2.68,0,0,0,.56-.59.9.9,0,0,1,.54-.41c.13,0,.19,0,.18.13a1.44,1.44,0,0,1-.08.28,3.26,3.26,0,0,1-.34.44l-.15.2a1,1,0,0,0-.15.21c0,.07.13.3.43.69a2.81,2.81,0,0,1,.24.32c.1.17.18.28.21.33S19.66,45,19.66,45Z"/><path d="M22.76,43.64a1.5,1.5,0,0,1-.15.64,2.06,2.06,0,0,1-.38.64.86.86,0,0,1-.65.26A3,3,0,0,1,21,45.1q-.87-.21-.87-1.32a1.84,1.84,0,0,1,0-.33,1.4,1.4,0,0,1,.41-.84,1,1,0,0,1,.85-.31h.11a5,5,0,0,1,.53.1A1.33,1.33,0,0,1,22.76,43.64Zm-.49-.42a.71.71,0,0,0-.46-.28l-.25,0c-.17,0-.24,0-.2,0l-.07,0a1.09,1.09,0,0,0-.51.36.82.82,0,0,0-.24.53.55.55,0,0,0,.26.5.86.86,0,0,0,.58.14,1.14,1.14,0,0,0,.61-.23,1,1,0,0,0,.36-.52A.62.62,0,0,0,22.27,43.22Z"/><path d="M25.21,43.6a.75.75,0,0,1,.36.42,1.27,1.27,0,0,1,.05.34.68.68,0,0,1-.35.66,2.68,2.68,0,0,1-1.09.17H24l-.39,0-.21,0a.29.29,0,0,1-.2-.24,1.42,1.42,0,0,1,0-.26v-.36c0-.14,0-.26,0-.37s0-.15,0-.3,0-.37.05-.44a4.1,4.1,0,0,1,0-.43.36.36,0,0,1,.13-.22.74.74,0,0,1,.39-.12,3.17,3.17,0,0,1,.87,0,1.1,1.1,0,0,1,.43.17.79.79,0,0,1,.22.23,1,1,0,0,1,.08.33.62.62,0,0,1-.08.31A.28.28,0,0,1,25.21,43.6Zm-.69,1.06a2.38,2.38,0,0,0,.52-.09c.1-.08.15-.15.14-.2s-.06-.11-.15-.2a1.3,1.3,0,0,0-.75-.19H24a.47.47,0,0,0-.44.22v.11c0,.23.26.35.67.35ZM24.78,43l-.23-.07-.3,0c-.28,0-.45,0-.51.11a.47.47,0,0,0,0,.31c0,.1.13.15.4.16a1.45,1.45,0,0,0,.32,0c.42-.06.6-.17.53-.32A.35.35,0,0,0,24.78,43Z"/><circle class="cls-5" cx="14.46" cy="14.49" r="13.3"/><ellipse cx="18.78" cy="22.52" rx="1.5" ry="1.96" transform="translate(-9.84 28.94) rotate(-62.82)"/><ellipse cx="23.31" cy="13.7" rx="1.5" ry="1.96" transform="translate(0.47 28.18) rotate(-62.82)"/><path d="M8.76,25.35c-6.07-3.52-9.18-11.13-5-17.48A12.82,12.82,0,0,1,20.2,3.72C26.84,7.14,29.41,16,24.43,22c-4,4.84-10.28,5.74-15.82,3.24C7.89,25,7.35,27,8.16,27.35,24.68,34.81,36.83,9.77,20.83,1.66,4.5-6.62-7.36,18.39,8,27.28,8.83,27.76,9.45,25.75,8.76,25.35Z"/><path class="cls-6" d="M5.48,22.41A2,2,0,0,0,7,22.23a.84.84,0,0,0,.49-.4s0,0,0,0h0c.11,0,.23,0,.36,0a3.21,3.21,0,0,0,2.63-2.1,4.21,4.21,0,0,0,.64-.39l.06,0a2.13,2.13,0,0,0,.72-.74,3.43,3.43,0,0,0,.41-.61,4.14,4.14,0,0,0,1.13-1.42,4,4,0,0,0,.91-1.65A5.93,5.93,0,0,0,15.79,11a5.18,5.18,0,0,0,.64-2c.79-1.5.07-4.44-1-5.45A3,3,0,0,0,13.8,2.25a1.68,1.68,0,0,0-2.72.09h0a2.07,2.07,0,0,0-.68.5,2.3,2.3,0,0,0-3.17,1A4.39,4.39,0,0,0,4.79,6.61h0C4.64,6.26,4.37,6,4,6.51A9.13,9.13,0,0,0,2.68,9.63a4.42,4.42,0,0,0-.25,1.12,3.66,3.66,0,0,0-.91,1.94,6.52,6.52,0,0,0,.53,3.36,5.53,5.53,0,0,0,1.11,3.71A3.41,3.41,0,0,0,5.48,22.41Z"/><path class="cls-7" d="M.54,17.39c1.15,1.78,3.67,1.45,5.43.81a11.72,11.72,0,0,0,5.8-5.12C13,11,14,8.25,13.59,5.8c-.31-1.76-.75-4-2.79-4.39C8.22,1,5.75,3.31,4.1,5,1,8.31-.87,12.63.42,17.14c.37,1.31,3.27.53,2.89-.77-1.28-4.5,1-8.62,4.3-11.54C8,4.47,8.86,3.5,9.42,3.54c1,.08,1.36,3.43,1.29,4.29A11.05,11.05,0,0,1,9,12.77c-.73,1.17-4.39,5.57-5.82,3.35C2.5,15.05-.27,16.14.54,17.39Z"/><line class="cls-8" x1="10.7" y1="19.74" x2="7.46" y2="16.37"/><line class="cls-8" x1="8.04" y1="22.02" x2="4.81" y2="18.65"/><line class="cls-8" x1="13.45" y1="16.92" x2="9.74" y2="14.28"/><line class="cls-8" x1="15.51" y1="13.07" x2="11.56" y2="11.21"/><line class="cls-8" x1="16.58" y1="8.28" x2="12.28" y2="7.3"/><line class="cls-8" x1="16.53" y1="4.95" x2="12.24" y2="3.97"/><path class="cls-7" d="M.56,17.84c-.29,3.51,2.67,7.3,6.34,6.29C11.7,22.8,15.29,17,17.05,12.75,18.59,9,19.76,2.28,14.81.62,12.77-.06,9,.31,9.51,3.2c.2,1.11,3.11.4,2.9-.78q2.34-.19,2.85,2.64a19,19,0,0,1,0,3.77,17.15,17.15,0,0,1-2.16,6.22A21.94,21.94,0,0,1,9.5,20.18C7,22.74,3.1,22,3.47,17.53c.11-1.29-2.82-.78-2.91.31Z"/></g></svg>