<svg xmlns="http://www.w3.org/2000/svg" viewBox="0 0 51.44 13.06"><defs><style>.cls-1,.cls-2{fill:none;stroke-miterlimit:10;}.cls-1{stroke:#f48667;stroke-width:12.76px;}.cls-2{stroke:#ffcf7b;stroke-width:8.5px;}.cls-3{fill:#d65a53;}</style></defs><title>stena-razrushenie_</title><g id="Слой_1" data-name="Слой 1"><line class="cls-1" y1="6.62" x2="51.44" y2="6.62"/><line class="cls-2" y1="6.62" x2="51.44" y2="6.62"/><path class="cls-3" d="M10.87,1.18a4.27,4.27,0,0,1,.73,1.71c.09.59-.21.75-.38,1.24a1.22,1.22,0,0,0,1.22,1.6c.39,0,.92-.1,1.07-.51A.55.55,0,0,0,13,4.48c-.42,0,0-.47.11-.63a1.79,1.79,0,0,0,.18-1A5,5,0,0,0,12.37.44c-.45-.64-2,0-1.5.74Z"/><path class="cls-3" d="M18.29,12.45a2.28,2.28,0,0,0-.08-1.74c-.32-.6-1-.85-.41-1.56.25-.32-.22-.51-.46-.53a1.31,1.31,0,0,0-1.08.46,1.17,1.17,0,0,0-.11,1.6c.2.28.46.46.56.81a1.88,1.88,0,0,1-.07,1.15c-.15.36.53.41.72.39a1.1,1.1,0,0,0,.93-.58Z"/><path class="cls-3" d="M21.75.78c.05.39.33.67.42,1a1.07,1.07,0,0,1-.26,1,.4.4,0,0,0,.19.7,1.21,1.21,0,0,0,1.16-.31,2,2,0,0,0,.6-1.41c0-.56-.4-.93-.47-1.46S21.67.07,21.75.78Z"/><path class="cls-3" d="M26.6,12.83c.58-.26,1.32-.89,1.18-1.63s-1.09-.79-1.33-1.42-1.87-.16-1.64.44a2.27,2.27,0,0,0,.84,1c.13.09.41.21.46.35a.47.47,0,0,1-.19.48c-.25.12-.65.42-.42.73s.83.18,1.1.05Z"/><path class="cls-3" d="M35.89,11.85c-.26-.35-.78-1-.38-1.43a.46.46,0,0,0-.2-.77,1.18,1.18,0,0,0-1.17.31c-.77.83-.33,1.81.24,2.6.43.58,2-.05,1.51-.71Z"/><path class="cls-3" d="M39.55,4.06c.55-.18,1.55-.56,1.75-1.19a.7.7,0,0,0-.24-.7C41,2,40.12,1.16,40.51,1c.19-.06.82-.24.73-.55s-.74-.16-.9-.11C39.73.56,38.6,1,38.83,1.8a2.32,2.32,0,0,0,.59.86c.44.51.08.7-.48.89-.19.06-.67.3-.46.55s.85,0,1.07,0Z"/><path class="cls-3" d="M35.58,1.2h-.09L35.22,1l.06.08L35.21.86s.16,0,0,0a1.56,1.56,0,0,0-.41.2l-.73.38c-.27.13-.65.43-.42.76s.83.21,1.11.07a5.24,5.24,0,0,0,2-1.2c.52-.73-.36-1-1-1-.32,0-.86.23-.92.61s.46.48.74.45Z"/><path class="cls-3" d="M41.67,12.15c0-.57.32-1,0-1.61a2.45,2.45,0,0,0-1.21-1c-.7-.34-1.88.68-.94,1.14.24.12.56.26.6.56s-.18.66-.17,1c0,.88,1.71.65,1.67-.11Z"/><path class="cls-3" d="M10.45,12.71A7.26,7.26,0,0,0,12,10.66c.37-.76-1.28-.64-1.55-.09a6.18,6.18,0,0,1-1.3,1.79c-.27.26-.15.56.18.66a1.28,1.28,0,0,0,1.16-.31Z"/></g></svg>