<svg xmlns="http://www.w3.org/2000/svg" viewBox="0 0 88.72 49.03"><defs><style>.cls-1{fill:#f48667;}.cls-2{fill:#ffcf7b;}</style></defs><title>stena-razrushenie_</title><g id="Слой_1" data-name="Слой 1"><path class="cls-1" d="M24.9,48c.16-.77-.13-2.11.38-2.78.66-.85,1.6,0,1.29-1.33-.13-.57-.41-.88-.47-1.37a.46.46,0,0,1-.48-.46c.12-2-1.28-3.35-2.16-5l-5.55,6,6.5,6A2.37,2.37,0,0,0,24.9,48Z"/><path class="cls-2" d="M25.28,45.19c.66-.85,1.6,0,1.29-1.33-.13-.57-.41-.88-.47-1.37a.46.46,0,0,1-.48-.46c.12-2-1.28-3.35-2.16-5l-4.1,4.42L25,46.64A2.54,2.54,0,0,1,25.28,45.19Z"/><path class="cls-1" d="M27.06,6.94a4.24,4.24,0,0,1,.86-1.36,9.43,9.43,0,0,1,1.67-1.27c1-.75,1.74-2.42.37-3.2C29.07.61,27.86.77,27.09,0L23.42,2.4a5.91,5.91,0,0,1,.88,3.26c-.08.53-.66,1.4-.6,1.88s.51.84.63,1.32a.51.51,0,0,1-.32.63l-.11.13a14.65,14.65,0,0,1,1.68-.33A4.58,4.58,0,0,0,27.06,6.94Z"/><path class="cls-2" d="M27.06,6.94a4.24,4.24,0,0,1,.86-1.36,9.43,9.43,0,0,1,1.67-1.27c1-.75,1.74-2.42.37-3.2a3,3,0,0,0-.41-.18L24.22,4.41a3.46,3.46,0,0,1,.08,1.25c-.08.53-.66,1.4-.6,1.88s.51.84.63,1.32a.51.51,0,0,1-.32.63l-.11.13a14.65,14.65,0,0,1,1.68-.33A4.58,4.58,0,0,0,27.06,6.94Z"/><path class="cls-1" d="M5.51,8.76a.51.51,0,0,1,.58.4,4,4,0,0,1-.65,2.73l.16,0a.54.54,0,0,1,.54.3h0c1.07-.32,4.21-1.84,3.69-3.41-.33-1-1.66-1.44-2-2.51a2.14,2.14,0,0,1,.24-1.64c.44-.77,2.72-2.52,2-3.49L0,5.94A8,8,0,0,0,2.16,7a2.12,2.12,0,0,1,.95.82,2.48,2.48,0,0,1,.17,1.71A12.27,12.27,0,0,1,5.51,8.76Z"/><path class="cls-2" d="M5.51,8.76a.51.51,0,0,1,.58.4,4,4,0,0,1-.65,2.73l.16,0a.54.54,0,0,1,.54.3h0c1.07-.32,4.21-1.84,3.69-3.41-.33-1-1.66-1.44-2-2.51a2.14,2.14,0,0,1,.24-1.64l.19-.26L2.4,7.15a1.78,1.78,0,0,1,.71.68,2.48,2.48,0,0,1,.17,1.71A12.27,12.27,0,0,1,5.51,8.76Z"/><path class="cls-1" d="M60.48,32.67c-.46-.68-1.46-.9-1.8-1.59-.44-.9.32-1.64-1-1.89-.53-.1-2.46-.2-2.61.47a.42.42,0,0,1-.11.22c-.38,1.32-1.13,2.5-.32,4h6.43A5.52,5.52,0,0,0,60.48,32.67Z"/><path class="cls-2" d="M58.68,31.08c-.44-.9.32-1.64-1-1.89-.53-.1-2.46-.2-2.61.47a.36.36,0,0,1-.12.22c-.18.63-.44,1.22-.58,1.83h4.93A1.72,1.72,0,0,1,58.68,31.08Z"/><path class="cls-1" d="M70.49,9.44a2.91,2.91,0,0,0-.17-4c-.66-.54-1.52-.76-1.93-1.57a1.85,1.85,0,0,1-.2-.71L64.21,5a2.29,2.29,0,0,1,.22,1.74,3.47,3.47,0,0,1-1,1.36c-.61.63-1,.77-1,1.69,1-.59,2.67-1.68,3.64-1,.35.22.41.72.56,1.06a7.51,7.51,0,0,0,.81,1.37c0,.06.16.07.21.15l.06.11a5.56,5.56,0,0,1,2.64-1.55A.45.45,0,0,1,70.49,9.44Z"/><path class="cls-2" d="M70.49,9.44a2.91,2.91,0,0,0-.17-4,7.45,7.45,0,0,0-.83-.55L64.06,7.43a7.8,7.8,0,0,1-.61.68c-.61.63-1,.77-1,1.69,1-.59,2.67-1.68,3.64-1,.35.22.41.72.56,1.06a7.51,7.51,0,0,0,.81,1.37c0,.06.16.07.21.15l.06.11a5.56,5.56,0,0,1,2.64-1.55A.45.45,0,0,1,70.49,9.44Z"/><path class="cls-1" d="M86.64,19.75a4.23,4.23,0,0,0,1.82-1.43c.7-1.38-.19-1.8-.84-2.65s-1.75-1.82-1.76-3A2.82,2.82,0,0,1,86,12L78.6,14.58A1.61,1.61,0,0,0,79,15.81a9.49,9.49,0,0,0,1.12.86A2.77,2.77,0,0,1,81,18.23c0,.12,0,.24.06.37.88-.58,2-1.22,2.93-.8.44.2.5.57.77.92s.65,1,1.29,1.2c.15,0,.33-.07.49-.11Z"/><path class="cls-2" d="M86.64,19.75a4.23,4.23,0,0,0,1.82-1.43c.7-1.38-.19-1.8-.84-2.65-.38-.5-.89-1-1.27-1.6l-6.59,2.36a2.43,2.43,0,0,1,.32.24A2.77,2.77,0,0,1,81,18.23c0,.12,0,.24.06.37.88-.58,2-1.22,2.93-.8.44.2.5.57.77.92s.65,1,1.29,1.2c.15,0,.33-.07.49-.11Z"/><path class="cls-1" d="M76.15,7.23c.13.46-.16.59-.19,1-.13,2,.86,2.2,2.47,2.81a5.68,5.68,0,0,1,1.28.68l3.68-6.59L75.59.79A2.33,2.33,0,0,0,74,2.07c-.51,1.08-.13,2.62-.54,3.77C74.46,6,75.87,6.18,76.15,7.23Z"/><path class="cls-2" d="M76.15,7.23c.13.46-.16.59-.19,1-.13,2,.86,2.2,2.47,2.81a5.68,5.68,0,0,1,1.28.68L82.36,7,73.93,2.29c-.37,1.07-.07,2.48-.46,3.55C74.46,6,75.87,6.18,76.15,7.23Z"/><path class="cls-1" d="M66.24,36.94a2.11,2.11,0,0,1-.5,1.28c.14-.17-1,.88-.95.65-.26.71.81,1.69,1.23,2.16,1.13,0,2.23.95,3,1.9a9.49,9.49,0,0,1,1.75-2.13,5.89,5.89,0,0,1,1.5-1.18L68.1,30.75l-3.75,1.74C64.81,33.86,66.34,35.34,66.24,36.94Z"/><path class="cls-2" d="M66.24,36.94a2.11,2.11,0,0,1-.5,1.28c.14-.17-1,.88-.95.65-.26.71.81,1.69,1.23,2.16,1.13,0,2.23.95,3,1.9A8.12,8.12,0,0,1,70.53,41l-4.36-9.37-1.82.85C64.81,33.86,66.34,35.34,66.24,36.94Z"/><path class="cls-1" d="M29.69,21.08l3.45-4.59a3.26,3.26,0,0,1-2-1.07c-.45-.5-.58-1.17-1-1.69-1.75-2.33-.49-.32-1.43-.86-.32-.17-.64-.48-1-.62-1.72-.76-2.07.42-2.82,1.55.2.1.45.16.86.31,3.21,1.19,1.71,4.46-.08,6.44.71-.47,1.69-1.37,2.21-1.32s.67.39.93.74S29.43,20.73,29.69,21.08Z"/><path class="cls-2" d="M31.15,15.42c-.45-.5-.58-1.17-1-1.69-1.75-2.33-.49-.32-1.43-.86-.32-.17-.64-.48-1-.62-1.72-.76-2.07.42-2.82,1.55.2.1.45.16.86.31,3.21,1.19,1.71,4.46-.08,6.44.71-.47,1.69-1.37,2.21-1.32a.9.9,0,0,1,.36.13l2.91-3.86Z"/><path class="cls-1" d="M20.54,36.53c-.12-.32-.24-.64-.35-1-.49-1.43-.79-.76-2.06-.44s-2,.15-2.05-.74a3.89,3.89,0,0,1-.49.12c-.39.1-.83-.29-.6-.69a5.24,5.24,0,0,0,.8-2.5,17.52,17.52,0,0,0-2.24,1.32,3,3,0,0,1-1.25,1.2,4.57,4.57,0,0,0-2.18,2.42,4.9,4.9,0,0,1-1.45,2.3c.18.38,0,.83.31,1.28.57.93,2.57.88,3.42,2a.56.56,0,0,1,0,.08Z"/><path class="cls-2" d="M18.13,35.12c-1.13.29-2,.15-2.05-.74a3.89,3.89,0,0,1-.49.12c-.39.1-.83-.29-.6-.69a5.24,5.24,0,0,0,.8-2.5,17.52,17.52,0,0,0-2.24,1.32,3,3,0,0,1-1.25,1.2,4.57,4.57,0,0,0-2.18,2.42,4.9,4.9,0,0,1-1.45,2.3c.18.38,0,.83.31,1.28a2.69,2.69,0,0,0,1.39.85l9.1-6C19.17,34.71,18.78,35,18.13,35.12Z"/><path class="cls-1" d="M16.78,8.65a3.89,3.89,0,0,1,2.7.2,1.24,1.24,0,0,1,.87-.93L20,7.24a.53.53,0,0,1-.07-.61,4.56,4.56,0,0,0,.33-4.4.29.29,0,0,1,0-.1l-8,4.37,1.71,3.12A12.36,12.36,0,0,0,16.78,8.65Z"/><path class="cls-2" d="M16.78,8.65a3.89,3.89,0,0,1,2.7.2,1.24,1.24,0,0,1,.87-.93L20,7.24a.53.53,0,0,1-.07-.61,5.55,5.55,0,0,0,.74-2.31l-7.39,4,.68,1.26A12.36,12.36,0,0,0,16.78,8.65Z"/></g></svg>