<svg xmlns="http://www.w3.org/2000/svg" viewBox="0 0 51.44 13.6"><defs><style>.cls-1,.cls-2{fill:none;stroke-miterlimit:10;}.cls-1{stroke:#f48667;stroke-width:12.76px;}.cls-2{stroke:#ffcf7b;stroke-width:8.5px;}.cls-3{fill:#d65a53;}</style></defs><title>stena-razrushenie_</title><g id="Слой_1" data-name="Слой 1"><line class="cls-1" y1="6.78" x2="51.44" y2="6.78"/><line class="cls-2" y1="6.78" x2="51.44" y2="6.78"/><path class="cls-3" d="M13.29,12.54c-.28-.15-2.59-1.4-2.39-1.91s2.14-.48,2.63-.7c1.69-.77.13-2.41.08-3.6,0-.89-1.71-.66-1.67.11a4.16,4.16,0,0,0,.24,1.4c.06.18.19.35.25.53.12.43.17.34-.09.53s-1,.23-1.42.38A4.35,4.35,0,0,0,9.51,10C8,11.37,11.09,13,12,13.52c.66.36,2.08-.52,1.26-1Z"/><path class="cls-3" d="M14.36,9.67a6.13,6.13,0,0,0,1-.85l.25-.22c-.5-.07-.59,0-.28.13a1.5,1.5,0,0,0,1.35.18A3.81,3.81,0,0,0,19,6.59c.36-.9-1.29-1-1.58-.22-.14.35-.43,1.09-.85,1.21s-.61-.21-.94-.21c-.93,0-1.72.94-2.38,1.48-.85.71.45,1.37,1.11.82Z"/><path class="cls-3" d="M9.21,1.24c.41.45,1,1.09.41,1.66s-1,.27-1.57.51a1.52,1.52,0,0,0-.46,2.16c.42.66,2,0,1.5-.75a.84.84,0,0,1,0-.74l-.63.49c1.06-.28,2-.41,2.75-1.39S11.41,1.27,10.7.5c-.53-.58-2.08.11-1.49.74Z"/><path class="cls-3" d="M20.47.94c.72.16,1.43.34,2.13.57.53.16,1.2.26.9,1-.16.37-.63.6-.89.89a1,1,0,0,0-.3,1c.22.56.94.65,1.08,1.24s1.79.18,1.64-.44-1.28-1-1-1.62c.12-.26.61-.53.8-.77a2.41,2.41,0,0,0,.56-1c.1-.7-.57-.87-1.09-1A28.38,28.38,0,0,0,21.47,0c-.56-.12-1.94.71-1,.93Z"/><path class="cls-3" d="M24,3.38a9.67,9.67,0,0,1,2-.08l-.47-.25c.21.25.32.54.55.78s.62.65.93,1c.53.55,2.08-.13,1.5-.73-.34-.35-.69-.69-1-1.05s-.32-.63-.59-.82a1.83,1.83,0,0,0-1.06-.15c-.58,0-1.15.06-1.72.09-.94,0-1.26,1.29-.14,1.24Z"/><path class="cls-3" d="M29.22,12.76a7.45,7.45,0,0,1-.73-2.16c.07-.79,1.47-.93,2.14-1.15C32,9,31.79,7.73,32.89,7c.92-.63-.45-1.08-1.07-.66a4.87,4.87,0,0,0-1.5,1.78c-.29.51-.35.4-.95.59a8.68,8.68,0,0,0-1.4.6c-.43.23-1,.54-1.17,1.06-.23.81.52,2.09.78,2.84s1.88.23,1.64-.44Z"/><path class="cls-3" d="M30.75,9a2.6,2.6,0,0,0,.95,1.43,2.89,2.89,0,0,0,1.72.24A2.24,2.24,0,0,0,35.49,8.2c0-.84-1.66-.59-1.67.13,0,.4.08,1.1-.42,1.16s-.83-.43-1-.94c-.25-.74-1.89-.29-1.65.44Z"/><path class="cls-3" d="M37.59.6c-.48,1.51.15,2,1.55,2.37.83.21,2.11.43,1.92,1.55a4.38,4.38,0,0,1-1.72,2.24c-.69.54.94.42,1.28.15.88-.68,2.7-2.35,2-3.63C41.72,1.71,38.38,3,39.22.35c.14-.44-1.48-.23-1.63.25Z"/><path class="cls-3" d="M39.24,2.67a13.4,13.4,0,0,0-1,1c-.15.16-.29.34-.45.49.23,0,.24-.06,0,0l-.41,0a1.36,1.36,0,0,0-1.08.45c-.18.32.15.51.45.5A3.51,3.51,0,0,0,39,4.58c.58-.47,1-1.13,1.55-1.63.26-.23.16-.51-.16-.59a1.39,1.39,0,0,0-1.16.31Z"/><path class="cls-3" d="M41.6,12.77c0-.55,0-1.09,0-1.64s-.11-1.15.24-1.44l-.45.26c-.38.05-.42.08-.14.09a1.72,1.72,0,0,0,1.16-.31c.24-.19.23-.35-.11-.39-.69-.09-1.84,0-2.21.75a3.07,3.07,0,0,0-.13,1.35q0,.88,0,1.77c0,.33,1.67,0,1.65-.44Z"/></g></svg>