<svg xmlns="http://www.w3.org/2000/svg" viewBox="0 0 51.44 12.76"><defs><style>.cls-1,.cls-2{fill:none;stroke-miterlimit:10;}.cls-1{stroke:#f48667;stroke-width:12.76px;}.cls-2{stroke:#ffcf7b;stroke-width:8.5px;}.cls-3{fill:#d65a53;}</style></defs><title>stena-razrushenie_</title><g id="Слой_1" data-name="Слой 1"><line class="cls-1" y1="6.38" x2="51.44" y2="6.38"/><line class="cls-2" y1="6.38" x2="51.44" y2="6.38"/><path class="cls-3" d="M11.55,12.27a4,4,0,0,0,.28-1.83c-.05-.63-1.7-.26-1.64.44A2.94,2.94,0,0,1,10,12.16c-.32.81,1.32.69,1.55.11Z"/><path class="cls-3" d="M21.16,11.84a1.64,1.64,0,0,1,.07-.93c.13-.37-.51-.44-.72-.42a1,1,0,0,0-.93.6,2.09,2.09,0,0,0-.06,1.19c.14.63,1.79.22,1.64-.44Z"/><path class="cls-3" d="M32.39,11.62c-.21-.47-.75-.55-1-1s-1.8.2-1.65.44c.26.4.82.54,1,1s1.79-.11,1.64-.44Z"/><path class="cls-3" d="M38.32,12.24c.75,0,1.87-.37,1.81-1.3,0-.36-1.68-.06-1.65.44a.33.33,0,0,1,0,.26c-.13.25.06.2.57-.14a1.54,1.54,0,0,0-1.09.41c-.21.29.19.34.4.33Z"/><path class="cls-3" d="M13.24,1.41l.14,0-.54,0c.22.1.31.5.38.72.17.54,1.8.08,1.64-.44C14.63.88,14.32.45,13.48.55c-.28,0-.88.2-.94.54s.5.34.7.32Z"/><path class="cls-3" d="M23.37,1a5.49,5.49,0,0,1,0,.81c-.09.82,1.58.59,1.66-.14a5.49,5.49,0,0,0,0-.81C25,0,23.34.24,23.37,1Z"/><path class="cls-3" d="M31.59,1.18c.34.18.61.33.65.73.1.76,1.75.36,1.65-.44a1.78,1.78,0,0,0-1-1.25,1.1,1.1,0,0,0-1.18.1c-.25.19-.46.65-.09.86Z"/></g></svg>