<svg xmlns="http://www.w3.org/2000/svg" viewBox="0 0 70.43 90.4"><defs><style>.cls-1{fill:#2b348e;}.cls-2{fill:#131220;}.cls-3{fill:#fff;}.cls-4{fill:#010101;}.cls-5{fill:#f15e5f;}.cls-6{fill:#db2d29;}.cls-7{fill:#ed2224;}.cls-8{fill:#911a1d;}.cls-9{fill:#754d25;}.cls-10{fill:#412312;}.cls-11{fill:#faed24;}.cls-12{fill:#f79421;}.cls-13{fill:#367f59;}.cls-14{fill:#1a1a1a;}.cls-15,.cls-20{fill:#333;}.cls-16{fill:#32b44a;}.cls-17{fill:#ee2424;}.cls-18{fill:#676767;}.cls-19{fill:#dcdbdb;}.cls-20{stroke:#e6e6e5;stroke-miterlimit:10;stroke-width:0.19px;}.cls-21{fill:#1072ba;}.cls-22{fill:#d6bd76;}.cls-23{fill:#9b6937;}.cls-24{fill:#6c4329;}.cls-25{fill:#b4b4b4;}.cls-26{fill:#4d321c;}</style></defs><title>Asset 1</title><g id="Layer_2" data-name="Layer 2"><g id="Layer_16" data-name="Layer 16"><path class="cls-1" d="M37.47,6.09a3.6,3.6,0,0,0,.8-1.36c.06-.19.16-.7-.2-.5a1.64,1.64,0,0,0-.56.74,2.39,2.39,0,0,0-.42.92C37,6.22,37.2,6.37,37.47,6.09Z"/><path class="cls-1" d="M21.36,15.71a1.45,1.45,0,0,0,.46-1.25L21.67,14c-.14-.42-.55-.26-.79,0a1.45,1.45,0,0,0-.46,1.25l.15.48C20.71,16.1,21.12,15.94,21.36,15.71Z"/><path class="cls-1" d="M23.41,22.07c.18-.24.52-.93.23-1.22a2.86,2.86,0,0,1-.38-.48.46.46,0,0,0-.21-.47.63.63,0,0,0-.27-.06c-.68,0-1.15,1.09-.88,1.64a3.15,3.15,0,0,0,.61.88C22.81,22.66,23.21,22.34,23.41,22.07Z"/><path class="cls-1" d="M40.44,2.16a.43.43,0,0,0-.34.19l-.29-.13c-.29-.12-.47.1-.56.43a3.13,3.13,0,0,1-.32-.15C37.9,1.07,36,.94,34.24.65c-.63-.1-.76,1.72-.16,1.93A5.63,5.63,0,0,1,35.2,3a.56.56,0,0,0,.11.17c.43.38.83.78,1.22,1.19a1.05,1.05,0,0,0,.67,1.14c.48.15.54.19.89,0a5.75,5.75,0,0,1,2.1.22c.31.12.57.29.89.4.53.16.78.07.89.21.37.46.33,1.14.83,1.63a2.67,2.67,0,0,0,1.77.76c.27,0,.45-.28.54-.65a1.11,1.11,0,0,0,.27-.19,1.6,1.6,0,0,0,.22-1.5A2.54,2.54,0,0,0,43.9,4.7a.3.3,0,0,0-.24.11,2,2,0,0,0-.18.23h0a.27.27,0,0,0-.22,0,1,1,0,0,1-.15-.21c.27-.46.24-1.44-.1-1.63l-.6-.34-.09,0A2,2,0,0,0,40.44,2.16Z"/><path class="cls-2" d="M32.94,1.28a4,4,0,0,1,5.16.9c.12.15.55,0,.68,0,1.59-.36,3.79.08,3.8,1.92S41,5.26,39.88,5c-.93-.25-1.75.35-2.54.79s.43.39.77.21c1.36-.75,3,1.09,4.67.09a2.61,2.61,0,0,0,1.14-2.21c.1-1.2-.38-1.57-1.51-2a8.8,8.8,0,0,0-2.49-.34c-.65-.07-.34.06-.94-.21-.33-.15-.64-.53-1-.71-1.87-1-4.05-.4-5.82.49-.79.39.43.38.77.21Z"/><path class="cls-3" d="M46.3,8.28a2,2,0,0,0-.49-2.13,2.27,2.27,0,0,0-2.53-.4c-.72.31-1.61,1.09-.91,1.87a2.22,2.22,0,0,0,2.24.71c.81-.23,1.45-1,1-1.81A1.57,1.57,0,0,0,43.46,6a1.51,1.51,0,0,0-.73,2,1.8,1.8,0,0,0,2.18,1A1.48,1.48,0,0,0,46,8.13,1.42,1.42,0,0,0,45.68,7a2.23,2.23,0,0,0-.93-.87,1.57,1.57,0,0,0-1.52.27c-.95.84.54,1.42,1.23.82l-.89.1.11.12a3.65,3.65,0,0,0,.24.31.63.63,0,0,1,.17.59L44.25,8l.62-.12-.1-.07c0-.1-.16-.19-.21-.3a1.15,1.15,0,0,1-.09-.28.22.22,0,0,1,0-.14c0-.24-.13-.2-.5.11L43.57,7c.17.09.36.27.25.44l.27-.32c.45,0,.57,0,.34-.07l-.19-.13c-.15-.11-.24-.17-.26-.36l0,.35c-.09,0-.09,0,0,0s.08,0,0,0a.72.72,0,0,1,.33.27c.17.22.4.66.26.94s.19.71.57.75a1.23,1.23,0,0,0,1.21-.56Z"/><path class="cls-2" d="M38,2.39a2.84,2.84,0,0,1,.38,2.4c-.22.75,1.09.77,1.27.18a3.66,3.66,0,0,0-.44-3.18c-.35-.52-1.6,0-1.21.6Z"/><path class="cls-4" d="M44.17,5.3a1.75,1.75,0,0,1,1.41,1.46c.12.79-.38,1.87-1.31,1.73-1.71-.26-1.84-3.37,0-3.17.54.06,1.39-.7.5-.8a2.92,2.92,0,0,0-3.17,1.93,2.32,2.32,0,0,0,2,2.83,2.93,2.93,0,0,0,3.18-1.71,2.31,2.31,0,0,0-1.82-3C44.52,4.45,43.41,5.14,44.17,5.3Z"/><path class="cls-1" d="M22.31,21.5a.45.45,0,0,1,.17-.34l-.14-.29c-.15-.28.06-.48.38-.58a2.39,2.39,0,0,0-.16-.32c-1.5-.93-1.75-2.78-2.16-4.56-.14-.62,1.68-.86,1.92-.28a5.69,5.69,0,0,0,.5,1.09.45.45,0,0,1,.18.1c.41.41.83.78,1.26,1.14a1.06,1.06,0,0,1,1.19.59c.18.47.22.53,0,.89A5.88,5.88,0,0,0,25.83,21c.14.31.33.56.45.87.21.51.13.77.27.87.49.34,1.17.26,1.69.73a2.63,2.63,0,0,1,.87,1.71c0,.27-.25.47-.61.58a1.28,1.28,0,0,1-.17.29,1.65,1.65,0,0,1-1.49.31,2.57,2.57,0,0,1-1.77-1.59.33.33,0,0,1,.1-.25l.22-.19,0,0a.24.24,0,0,1,.05-.22L25.19,24c-.44.3-1.42.34-1.63,0l-.38-.58a.26.26,0,0,1,0-.08A2.08,2.08,0,0,1,22.31,21.5Z"/><path class="cls-3" d="M29.12,25.94a1.14,1.14,0,0,0,.1-1.67,2.34,2.34,0,0,0-2.12-.51c-.46.07-2,.28-2.07.92s1.1,1.23,1.55,1.45a2.67,2.67,0,0,0,2.29.22c.27-.09.75-.25.86-.56s-.34-.64-.55-.83A2.18,2.18,0,0,0,27,24.53c-.62.17-1.51.5-1.53,1.27s1.14.94,1.78.83a3.38,3.38,0,0,0,1.41-.51,1.07,1.07,0,0,0,.43-1c0-.24-1.87,0-1.87.5a3.9,3.9,0,0,1-.11.59L27.8,26a.66.66,0,0,1-.27-.12c-.31-.23-.23-.49-.17-.8l.07-.12c-.62.06-.8.14-.53.25a4,4,0,0,0,.34.23c.23.19.8.58.54.88l.39-.26L28,26.1l1.14-.27a3,3,0,0,1-1.35-.61c-.34-.23-1-.65-.91-1.12l-.09.16c-.44.12-.48.18-.15.17a1.09,1.09,0,0,1,.36.12,1.19,1.19,0,0,1,.5.44.93.93,0,0,1-.09,1.13c-.29.28.27.26.43.25a2.44,2.44,0,0,0,1.25-.43Z"/><path class="cls-2" d="M20.17,13.81a6.26,6.26,0,0,0-.59,3.38,6.35,6.35,0,0,0,1.34,2.51c.82,1.37,0,4.07,1.95,4.81a4.77,4.77,0,0,0,3.62-.91A1.81,1.81,0,0,0,27,21.74a6.92,6.92,0,0,0-.72-1.27c-.39-.84-.11-1.23.26-2,.11-.24-1.15-.13-1.31.22s-.66,1.06-.62,1.53.75,1.09,1,1.64c.75,2-1.66,2.29-2.54.85a4.64,4.64,0,0,1-.32-3,.11.11,0,0,0,0-.13c-2-1.48-2.05-3.82-1.15-6,.11-.26-1.15-.14-1.3.22Z"/><path class="cls-2" d="M21.62,20.07a4,4,0,0,0,3.44.31c.27-.09.63-.31.54-.65s-.53-.39-.79-.3a2.49,2.49,0,0,1-2.18-.14.85.85,0,0,0-.95.07c-.2.16-.36.54-.06.71Z"/><path class="cls-4" d="M24.68,25.63c.85,3,5.92,1.8,5.24-1.25s-5.76-1.8-5.24,1.25c.08.47,1.41.15,1.32-.36-.12-.69.14-1.76,1-1.88a1.65,1.65,0,0,1,1.61,1.35,1.57,1.57,0,0,1-.83,1.83c-.85.27-1.56-.57-1.77-1.3C25.87,24.79,24.54,25.15,24.68,25.63Z"/><circle class="cls-3" cx="28.73" cy="9.38" r="8.57" transform="matrix(1, -0.02, 0.02, 1, -0.17, 0.55)"/><path class="cls-4" d="M23.49,15.39A8.57,8.57,0,0,1,21.6,5.7,7.75,7.75,0,0,1,34,3.37a8.51,8.51,0,0,1,1.89,9.69c-2.32,5-8.4,5.76-12.37,2.33-.32-.28-1.55.22-1.24.49a9.65,9.65,0,0,0,12.22.37A8.85,8.85,0,0,0,35.2,2.88,9.61,9.61,0,0,0,23,2.5a8.89,8.89,0,0,0-.73,13.38C22.54,16.18,23.79,15.69,23.49,15.39Z"/><ellipse class="cls-4" cx="29.98" cy="15.13" rx="0.97" ry="1.26" transform="translate(-1.55 26.66) rotate(-46.87)"/><ellipse class="cls-4" cx="34.35" cy="10.46" rx="0.97" ry="1.26" transform="translate(3.23 28.38) rotate(-46.87)"/><path class="cls-5" d="M37.69,8.05c.24,1.23-4.19-2-6.1-1.51a6.55,6.55,0,0,0-4.36,3.62,7,7,0,0,0,0,5.69A4,4,0,0,0,29.4,18s-9.64,1.36-9.23-9.13c0,0,.89-8.41,8.69-8.65C28.86.26,36.27.77,37.69,8.05Z"/><path class="cls-6" d="M37,8.1c.14-.94-3.53-2-4.38-2a5.84,5.84,0,0,0-4.08,1.48c-3.32,2.75-3.63,8.62.33,10.9l.56-.89c-5.71.73-9.6-4.17-8.41-9.73C23.1-1.79,34.88-.7,37,8.23c.15.63,1.48.28,1.32-.36-2.21-9.19-14.47-11-18.1-1.78-2.55,6.51,1.87,13.38,9.1,12.45.32,0,1.12-.57.56-.89-2.48-1.43-3.19-4.86-2-7.41S32.34,6.9,34.73,7.9c.9.38,2,1.17,3.06.84a.7.7,0,0,0,.54-.51l0-.22C38.47,7.32,37.11,7.48,37,8.1Z"/><path class="cls-5" d="M29.48,18a14.06,14.06,0,0,0,.83,1.86l-.08-.14"/><path class="cls-6" d="M28.82,18.13a16.32,16.32,0,0,0,.88,2l1.22-.57-.08-.13c-.26-.49-1.53,0-1.21.56l.07.14c.26.49,1.53,0,1.22-.57a13.71,13.71,0,0,1-.78-1.75c-.2-.57-1.52-.19-1.32.36Z"/><path class="cls-5" d="M37.84,8.59c.51.07,1,.12,1.54.14.09,0,.23,0,.2-.13"/><path class="cls-6" d="M37.59,9c.67.09,2.43.51,2.66-.48.12-.56-1.22-.38-1.34.13v.08l.39-.39c.2,0,.18-.07,0-.06l-.39,0c-.26,0-.51-.05-.77-.09-.57-.08-1.37.73-.49.85Z"/><path class="cls-7" d="M41.9,30.37c.18.08.38,0,.51-.24a1.21,1.21,0,0,0,.4-.69,2.76,2.76,0,0,0,.07-.49,4.28,4.28,0,0,0-.07-1.67.75.75,0,0,0-.14-.3,1.71,1.71,0,0,0-1.44-1.08h0l-.3,0h0a.74.74,0,0,0-.67.19.43.43,0,0,0-.17.13l-.11-.08a8.75,8.75,0,0,0-2.24-.37c-.41-.08-.6,1.94,0,2.06l1.13.23a1.47,1.47,0,0,0,.49.11h.05a.41.41,0,0,0,.2.17l.46.12a.14.14,0,0,0,.11,0,2.24,2.24,0,0,0,1.28.91s0,0,0,.05a1.38,1.38,0,0,0,0,.2l0,.11a.7.7,0,0,0,.06.19l0,.11,0,.07a.25.25,0,0,0,0,.09l.09.13h0a.1.1,0,0,0,0,0l0,0Z"/><path class="cls-7" d="M35.6,46.67a.44.44,0,0,0,.48-.09,3,3,0,0,0,.43.05.59.59,0,0,0,.2-.05.83.83,0,0,0,.69,0,.71.71,0,0,0,.33-.39.48.48,0,0,0,.16-.08.92.92,0,0,0,.41-.6l.06,0a1.58,1.58,0,0,0,.32-.31,3.15,3.15,0,0,0,.22-.29.88.88,0,0,0,.13-.33A1.39,1.39,0,0,0,39,43.4c-.15-.23-.48-.41-.69-.15a3.21,3.21,0,0,0-.39.52l-.07,0s0,0,0,0c-.22-.16-.51-.15-.83.15a1.15,1.15,0,0,0-.26.19,2.36,2.36,0,0,0-1.26-.08,6.54,6.54,0,0,0-1.06-.34.56.56,0,0,0-.22,0l-.69-.41c-.79-.48-.78,1.37-.46,1.73a3.71,3.71,0,0,0,1,.81.33.33,0,0,0,.34,0A4.19,4.19,0,0,0,35.6,46.67Z"/><path class="cls-4" d="M30.67,43.53c1.53,1.45,3.55,4.65,6,4a4.24,4.24,0,0,0,3-4.27c0-.7-1.33-.52-1.32.09,0,1.49-.95,3.8-2.83,3-1.57-.65-2.7-2.46-3.9-3.6-.44-.42-1.55.24-1,.76Z"/><path class="cls-4" d="M35.83,27.62c1.55-.39,4.63-2.58,6-1.26s.52,3.07-.2,4.33c-.35.63,1,.63,1.24.14,1-1.66,1.6-3.93-.16-5.36-1.94-1.58-5.18.8-7.11,1.27-.8.21-.57,1.08.24.88Z"/><circle class="cls-3" cx="35.22" cy="35.77" r="8.42" transform="translate(-12.85 50.24) rotate(-62.19)"/><path class="cls-4" d="M33.52,43.6a8.48,8.48,0,0,1-6-6.67C26.74,31.61,31.41,26.51,37,28c9.4,2.54,6.89,17.82-3.56,15.56-.37-.08-1.51.49-.81.65,4.15.89,8.71-.69,10.73-4.63A8.67,8.67,0,0,0,37.9,27.35a9.53,9.53,0,0,0-10.74,4.52c-2.65,5,.21,10.62,5.32,12.32C32.83,44.3,34,43.76,33.52,43.6Z"/><ellipse class="cls-4" cx="38.94" cy="40.19" rx="0.95" ry="1.24" transform="translate(-10.09 67.16) rotate(-74.72)"/><ellipse class="cls-4" cx="40.6" cy="34.13" rx="0.95" ry="1.24" transform="matrix(0.26, -0.96, 0.96, 0.26, -3.03, 64.3)"/><path class="cls-7" d="M42.39,30.51c.77,1-4.54.22-6,1.49a6.37,6.37,0,0,0-2.12,5.14,6.82,6.82,0,0,0,2.64,4.92,3.93,3.93,0,0,0,2.85.92S32,48.59,27.57,39.29c0,0-3.09-7.71,3.58-11.49C31.15,27.8,37.82,24.83,42.39,30.51Z"/><path class="cls-8" d="M41.74,30.68c-.23-.56-4.1.21-4.72.45a5.57,5.57,0,0,0-3,3.49c-1.37,3.9,1.31,8.7,5.57,8.86l-.21-.81c-4.75,3.34-10.48.21-11.58-5.2-.7-3.45.22-7.65,3.72-9.29S39.3,28,41.8,30.8c.41.46,1.64-.07,1.19-.59-5.93-6.72-17.67-3.56-16.73,6.25.67,7.1,7.94,11.08,14,6.84a.44.44,0,0,0-.22-.81c-3.49-.13-5.6-3.89-4.94-7,.62-3,2.75-3.61,5.42-3.84.57-.05,3.09-.05,2.57-1.29C42.79,29.73,41.5,30.1,41.74,30.68Z"/><path class="cls-8" d="M39.21,43.15a15.18,15.18,0,0,0,1.66,1.31l1-.72-.13-.08c-.45-.3-1.6.32-1,.72l.13.08c.44.3,1.6-.31,1-.72a13.64,13.64,0,0,1-1.48-1.15.8.8,0,0,0-.88-.08c-.17.08-.56.42-.31.64Z"/><path class="cls-8" d="M43,31.22c.46-.16,2.08-.55,1.89-1.28-.14-.52-1.44-.17-1.3.35.16-.22.13-.27-.08-.13l-.35.15c-.23.1-.47.19-.71.27s-.5.35-.33.59.65.14.88,0Z"/><path class="cls-9" d="M32,81.56a3.69,3.69,0,0,1,2.58-2.25,3.78,3.78,0,0,1,2.88.19,11.38,11.38,0,0,1,1.12.85,4.43,4.43,0,0,0,2.23.93,3.15,3.15,0,0,0,2.29-.67c.16-.15.32-.4.19-.57a4.53,4.53,0,0,1-4.09-.42,25.21,25.21,0,0,0-3.74-2.05,5.87,5.87,0,0,0-3.11-.15c-.62.14-1.32.54-1.29,1.17"/><path class="cls-10" d="M32.55,81.6c1-2.26,3.72-1.65,5.5-.92.54.22.91.59,1.5.79a4.31,4.31,0,0,0,2.36.1c.87-.2,2-.68,2-1.7,0-.37-.72-.21-.88-.15-3,1.12-5.87-2.69-8.89-2.84-1.52-.08-3.18.22-3.71,1.77-.17.51,1.09.36,1.25-.12.38-1.11,2.67-.77,3.41-.58A8.71,8.71,0,0,1,37.15,79a14.35,14.35,0,0,0,2.3,1.28,5.29,5.29,0,0,0,4.06,0l-.88-.15a2.79,2.79,0,0,1-3.27,0,4.76,4.76,0,0,1-.88-.67,7.4,7.4,0,0,0-.69-.45,4.24,4.24,0,0,0-2.53-.35,4.85,4.85,0,0,0-3.88,2.74c-.28.61,1,.54,1.17.09Z"/><path class="cls-9" d="M24.15,73.52a1.73,1.73,0,0,0,.48-1.26c.07-1.05,0-2.11,0-3.16a4.44,4.44,0,0,1,1.15-2.88,2.3,2.3,0,0,1,2.89-.33,4,4,0,0,0-2.12,4c.1.82.46,1.59.56,2.4a2,2,0,0,1-.89,2.12"/><path class="cls-10" d="M24.72,73.49c.74-.95.53-2.15.54-3.29a6.59,6.59,0,0,1,.35-2.76l.21-.48,2-.86a7.8,7.8,0,0,1-.63.54A4.23,4.23,0,0,0,26,69.36c-.09,1.53,1.52,3.9-.17,5-.53.35.71.26,1,.09a2.56,2.56,0,0,0,.91-2.94c-.48-2.24-.79-4.22,1.53-5.6.06,0,.22-.19.1-.27a3.41,3.41,0,0,0-3.95.51,4.24,4.24,0,0,0-1.22,2.49c-.25,1.48.43,3.64-.54,4.88-.27.35.94.2,1.14-.06Z"/><path class="cls-10" d="M30.27,76.73a5.38,5.38,0,0,0,.69-.66c.49-.56-.71-.6-1-.25a5.38,5.38,0,0,1-.69.66c-.22.18-.1.42.13.49a1,1,0,0,0,.88-.24Z"/><path class="cls-10" d="M29.71,76.3l1.59-1.77c.2-.23-.17-.34-.33-.34a1.1,1.1,0,0,0-.82.33l-1.59,1.77c-.2.22.17.33.33.34a1.09,1.09,0,0,0,.82-.33Z"/><path class="cls-10" d="M29.08,75.91l.78-1c.47-.62-.71-.74-1-.32l-.78,1c-.47.62.71.74,1,.32Z"/><path class="cls-11" d="M22.75,73.74c.16-.1.22-.29.06-.53a1.14,1.14,0,0,0-.34-.67,2.17,2.17,0,0,0-.37-.31,3.86,3.86,0,0,0-1.37-.8.69.69,0,0,0-.32,0,1.61,1.61,0,0,0-1.6.61h0c-.06.07-.13.14-.19.22v0a.7.7,0,0,0-.2.64.44.44,0,0,0,0,.2l-.12,0c-.63.37-.94,1.1-1.44,1.62-.28.28,1.25,1.47,1.65,1.06l.76-.79a1.34,1.34,0,0,0,.33-.34s0,0,0,0h0a.28.28,0,0,0,.24-.07l.34-.3a.14.14,0,0,0,0-.11,2.12,2.12,0,0,0,1.39-.57l.05,0,.17.07.1,0,.19,0,.11,0a.21.21,0,0,0,.08,0l.09,0,.15,0h.07l0,0Z"/><path class="cls-11" d="M32.66,87.14a.41.41,0,0,0,.18-.43,2.13,2.13,0,0,0,.26-.32.47.47,0,0,0,.06-.19.71.71,0,0,0,.2-1,.91.91,0,0,0,0-.17.83.83,0,0,0-.27-.63V84.3a1.36,1.36,0,0,0-.09-.41c0-.11-.08-.22-.12-.33a1,1,0,0,0-.19-.28,1.31,1.31,0,0,0-1-.5c-.26,0-.57.17-.48.48a4.82,4.82,0,0,0,.22.57v.09s0,0,0,0c-.24.1-.38.33-.3.75a.76.76,0,0,0,0,.3,2.36,2.36,0,0,0-.71,1,7.48,7.48,0,0,0-.81.68.59.59,0,0,0-.12.17l-.69.35c-.78.39.72,1.32,1.17,1.25a3.39,3.39,0,0,0,1.16-.39.31.31,0,0,0,.2-.25A3.86,3.86,0,0,0,32.66,87.14Z"/><path class="cls-4" d="M27.67,89.29c1.81-.46,5.36-.47,6.32-2.46.83-1.7-.34-3.66-1.79-4.53-.42-.25-1.53.33-1,.66,1.14.69,2.2,2.27,1.63,3.66s-4,1.57-5.39,1.92c-.76.19-.56.95.2.75Z"/><path class="cls-4" d="M17.62,77.19c.52-1.52.27-3.89,1.33-5.14,1.37-1.63,3.14.8,3.73,1.9.27.52,1.45,0,1.13-.57-.95-1.79-2.57-3.33-4.77-2.62s-2,4.43-2.62,6.26c-.23.69,1,.73,1.2.17Z"/><circle class="cls-3" cx="23.69" cy="81.89" r="8.03" transform="translate(-22.74 10.4) rotate(-16.87)"/><path class="cls-4" d="M28.61,87.74C21,94.15,11.87,82.36,18.77,76c3.55-3.25,9.14-1.86,11.36,2.2a8,8,0,0,1-1.52,9.51c-.5.49.71.43,1,.16,3.54-3.5,3.74-9.31-.34-12.55a9,9,0,0,0-11.46.52,8.3,8.3,0,0,0,.34,12.55,9.07,9.07,0,0,0,11.46-.52C30.12,87.46,28.89,87.5,28.61,87.74Z"/><ellipse class="cls-4" cx="29.15" cy="81.14" rx="1.18" ry="0.91" transform="translate(-47.05 40.8) rotate(-42.34)"/><ellipse class="cls-4" cx="25.12" cy="76.71" rx="1.18" ry="0.91" transform="translate(-45.12 36.93) rotate(-42.34)"/><path class="cls-11" d="M23.11,73.41c1.17-.13-2.13,3.78-1.86,5.59a6.12,6.12,0,0,0,3.06,4.34,6.48,6.48,0,0,0,5.31.38,3.76,3.76,0,0,0,2.21-1.82s.56,9.1-9.21,7.95c0,0-7.79-1.45-7.43-8.76C15.19,81.09,16.2,74.2,23.11,73.41Z"/><path class="cls-12" d="M22.9,73.89c-.58-.14-2.15,3.91-2.22,4.38a5.47,5.47,0,0,0,1.71,4.32c2.67,2.73,7.74,2.75,10-.49l-1.15-.16a7,7,0,0,1-9.71,7c-7.94-2.93-7-13.71,1.57-15.08.7-.11.94-1.08.1-1C14.48,74.32,11.06,85.46,20,89.51c5.85,2.66,12.82-.83,12.48-7.65,0-.57-.89-.55-1.16-.16-2.61,3.81-8.26,1.58-9.22-2a4.56,4.56,0,0,1,.7-3.55c.41-.79,1.38-1.91,1.16-2.87-.05-.2-.24-.27-.41-.31l-.21,0C22.69,72.8,22.09,73.69,22.9,73.89Z"/><path class="cls-12" d="M31.86,82.21a15.19,15.19,0,0,0,2-.69l-.54-.68-.13.06c-.22.1-.48.36-.31.61s.62.17.84.07l.14-.06c.21-.1.47-.36.3-.61s-.61-.17-.84-.07a13.29,13.29,0,0,1-1.64.58c-.22.06-.59.27-.51.56s.51.3.73.23Z"/><path class="cls-12" d="M24.25,73.25c.11-.5.58-1.71-.12-1.93-.45-.14-1.46.52-.74.75l.07,0-.25-.21c.09.19,0,.51-.05.7s-.1.54-.16.8c-.12.53,1.14.35,1.25-.13Z"/><path class="cls-13" d="M66.61,14.73c.1.18.3.26.58.1a1.28,1.28,0,0,0,.76-.35,2.58,2.58,0,0,0,.36-.38,4.49,4.49,0,0,0,1-1.48.7.7,0,0,0,.06-.35,1.78,1.78,0,0,0-.58-1.81h0a2.44,2.44,0,0,0-.23-.22h0a.79.79,0,0,0-.7-.25.55.55,0,0,0-.22,0,.44.44,0,0,0,0-.13c-.38-.72-1.17-1.11-1.71-1.69-.3-.32-1.69,1.31-1.27,1.77l.84.89a1.38,1.38,0,0,0,.35.38l0,0h0a.47.47,0,0,0,.07.27l.32.38a.13.13,0,0,0,.11,0,2.45,2.45,0,0,0,.55,1.57s0,0,0,.05-.05.12-.08.19a1.17,1.17,0,0,0,0,.11.66.66,0,0,0-.06.2.56.56,0,0,0,0,.12s0,.06,0,.09a.36.36,0,0,1,0,.1.81.81,0,0,0,0,.16h0a.14.14,0,0,0,0,.07.11.11,0,0,0,0,.05Z"/><path class="cls-13" d="M51.23,25a.44.44,0,0,0,.46.22,2,2,0,0,0,.34.3.64.64,0,0,0,.21.09.84.84,0,0,0,.6.4.89.89,0,0,0,.53-.13l.18,0a1,1,0,0,0,.72-.27.22.22,0,0,0,.08,0,1.63,1.63,0,0,0,.45-.07c.13,0,.25-.08.37-.12a.85.85,0,0,0,.32-.2,1.43,1.43,0,0,0,.61-1c0-.28-.16-.64-.5-.55a4.49,4.49,0,0,0-.65.21h-.14c-.1-.27-.35-.44-.81-.38a1,1,0,0,0-.34,0,2.57,2.57,0,0,0-1-.84,7.73,7.73,0,0,0-.71-.94.68.68,0,0,0-.18-.13l-.35-.78c-.39-.89-1.5.71-1.45,1.21a4,4,0,0,0,.37,1.32.33.33,0,0,0,.27.22A4.13,4.13,0,0,0,51.23,25Z"/><path class="cls-4" d="M48.86,19.4c.43,2.12.18,6.31,2.84,7a4.92,4.92,0,0,0,5.22-2.2c.39-.58-1-.55-1.3-.1-.89,1.32-3.13,2.38-4.14.58s-.87-3.8-1.25-5.65c-.11-.57-1.49-.22-1.37.37Z"/><path class="cls-4" d="M62.81,8.68c1.71.68,4.19.53,5.61,1.77,1.89,1.67-.64,3.72-2.07,4.4-.85.39-.1,1.19.62.86,1.89-.89,4-2.55,3.33-5s-4.86-2.31-6.71-3c-.61-.25-1.6.64-.78,1Z"/><circle class="cls-3" cx="57.54" cy="15.32" r="8.9"/><path class="cls-4" d="M51.3,20.66a8.62,8.62,0,0,1,.07-10.94,8.16,8.16,0,0,1,12.4.25,8.58,8.58,0,0,1-.07,10.94c-3.38,3.92-9.11,3.42-12.4-.25-.43-.47-1.73.09-1.26.62A9.85,9.85,0,0,0,63,23,9.46,9.46,0,0,0,65,9.35,9.77,9.77,0,0,0,52,7.66a9.47,9.47,0,0,0-2,13.62C50.43,21.78,51.73,21.24,51.3,20.66Z"/><ellipse class="cls-4" cx="58.06" cy="21.4" rx="1" ry="1.31" transform="translate(-0.36 41.79) rotate(-39.48)"/><ellipse class="cls-4" cx="63.18" cy="17.18" rx="1" ry="1.31" transform="translate(3.49 44.09) rotate(-39.48)"/><path class="cls-14" d="M54.53,24l.06-.51.29-.21.47-.34.92-.67h0c.35.46,1.15,1.63,1.8,1.49a.28.28,0,0,0,.09-.07,3.74,3.74,0,0,0,2.38-2c.28-.67-.08-1.18-.45-1.74a5.7,5.7,0,0,0,1.33-1.12.63.63,0,0,0,.13-.23,1.85,1.85,0,0,0,2.21,1c.9-.3,2-1.51,1.66-2.51a4.61,4.61,0,0,0-.67-1.25,5.67,5.67,0,0,1,.68-.79c.15-.14.81-.84.94-.41.09.27.41-.11.42-.26a.29.29,0,0,0-.11-.3.08.08,0,0,0-.07,0c-.51-.38-1.72,1.06-2.06,1.52-.19-.23-.37-.46-.56-.66-.52-.58-.88-.13-1.42.27s-1.29.74-1.58,1.33c0,.08-.28.59-.23.69.21.39.43.84.68,1.25a.28.28,0,0,0-.17.09,5.21,5.21,0,0,1-1.33,1.1l0,0c-.37-.57-.77-1.16-1.52-1.13a3.42,3.42,0,0,0-2.58,2A1.67,1.67,0,0,0,56.12,22a9.15,9.15,0,0,0-1.77,1.34c-.26.3-.49.74-.15,1.06C54.28,24.52,54.64,24.08,54.53,24Zm6.72-7a1.86,1.86,0,0,1,.1-.2,3.52,3.52,0,0,1,.48-.55c.2-.17.38-.35.57-.52s.74-.6,1.16-.42.72.91.92,1.21A1.77,1.77,0,0,1,65,17.8a1.59,1.59,0,0,1-2.42,1.1,3,3,0,0,1-.8-.93c-.14-.25-.27-.51-.4-.77A.43.43,0,0,1,61.25,16.93ZM56.6,21.79a1.92,1.92,0,0,1-.53-1.13c.08-.75,1.11-1.5,1.78-1.63.93-.19,1.37.58,1.82,1.24.11.17.23.33.33.51.32.55.3.54,0,1.19a2.25,2.25,0,0,1-1.66,1.28h0C57.69,23.3,56.91,22.19,56.6,21.79Z"/><path class="cls-9" d="M59.44,7.1a5,5,0,0,1,1.43,3.17,10.63,10.63,0,0,1-.73,3.51,3.54,3.54,0,0,0-.75-1.53c-.14-.17-.36-.34-.56-.27a.49.49,0,0,0-.24.23,4.69,4.69,0,0,0-.44,1.63,5.1,5.1,0,0,1-2.56,3.42A2.65,2.65,0,0,0,54.19,15c-.08,0-.2-.09-.27,0a.45.45,0,0,0-.06.12,8.63,8.63,0,0,1-2.31,4,4,4,0,0,0-2.65-3.82s-1.45-2.6,2.93-6.57C51.83,8.79,56.83,4.15,59.44,7.1Z"/><path class="cls-10" d="M58.81,7.39c1.71,2.11,1.44,4,.63,6.46l1.38-.25c-.29-1-1-2.53-2.28-2a1.8,1.8,0,0,0-.87,1.16c-.69,1.81-.58,3-2.53,4.2l1.13.08c-.18-1.1-.82-2.45-2.1-2.51a1,1,0,0,0-.9.4A13,13,0,0,1,51,19l1.25,0a4.52,4.52,0,0,0-.77-2.44c-.5-.72-1.46-.88-1.89-1.4s-.12-2,.12-2.62c.95-2.57,6.23-7.92,9.11-5.15.4.38,1.7-.16,1.27-.58-2.68-2.57-6.56-.2-8.82,1.82-1.58,1.42-3.46,3.61-3.27,5.92a2.7,2.7,0,0,0,.23,1c.23.43,1.26.76,1.6,1.1a4,4,0,0,1,1,2.72c0,.52,1.07.18,1.26,0a14.65,14.65,0,0,0,2.45-4.29l-.9.4a2.28,2.28,0,0,1,1.23,2c.08.47.9.22,1.13.08a6.15,6.15,0,0,0,2.36-2.44,6,6,0,0,0,.45-1.31,1.47,1.47,0,0,0-.08-1.23A3.18,3.18,0,0,1,59.45,14c.17.59,1.24.16,1.38-.26.87-2.65,1.05-4.66-.75-6.9C59.73,6.38,58.41,6.89,58.81,7.39Z"/><path class="cls-10" d="M55.17,8.72A4.38,4.38,0,0,1,56.71,11c.1.53,1.48.19,1.37-.36a4.75,4.75,0,0,0-1.64-2.47c-.38-.36-1.68.17-1.27.56Z"/><path class="cls-10" d="M52.39,11.39c.89.52.78,1.91.86,2.79,0,.58,1.43.26,1.38-.37-.11-1.13-.06-2.52-1.17-3.19-.48-.28-1.71.38-1.07.77Z"/><path class="cls-15" d="M40.48,57.31c.18-.11.25-.31.07-.58a1.18,1.18,0,0,0-.38-.72,2.18,2.18,0,0,0-.4-.34,4.41,4.41,0,0,0-1.5-.86.67.67,0,0,0-.34,0,1.76,1.76,0,0,0-1.75.67h0a2.43,2.43,0,0,0-.2.25h0a.8.8,0,0,0-.21.7.53.53,0,0,0,0,.22l-.12,0c-.69.41-1,1.21-1.57,1.78-.3.31,1.38,1.59,1.81,1.14l.83-.86a1.56,1.56,0,0,0,.35-.37s0,0,0,0h0a.39.39,0,0,0,.26-.09l.36-.33a.15.15,0,0,0,0-.11,2.36,2.36,0,0,0,1.51-.63l0,0,.19.07.11,0,.21.06.11,0h.19l.16,0h0l.06,0h0Z"/><path class="cls-15" d="M51.36,71.85a.43.43,0,0,0,.19-.46,2.64,2.64,0,0,0,.28-.36.4.4,0,0,0,.07-.2.77.77,0,0,0,.21-1.13.9.9,0,0,0,0-.18,1.05,1.05,0,0,0-.31-.69s0,0,0-.07a1.63,1.63,0,0,0-.09-.45,3.65,3.65,0,0,0-.14-.35,1,1,0,0,0-.21-.31,1.45,1.45,0,0,0-1.05-.54c-.28,0-.62.19-.51.52a3.41,3.41,0,0,0,.24.63v.09a.09.09,0,0,1,0,.05c-.26.11-.41.36-.32.82a.88.88,0,0,0,0,.32A2.57,2.57,0,0,0,49,70.62a6.77,6.77,0,0,0-.88.74.54.54,0,0,0-.13.19l-.74.38c-.86.43.78,1.44,1.27,1.36a4.06,4.06,0,0,0,1.27-.43.36.36,0,0,0,.21-.28A4.18,4.18,0,0,0,51.36,71.85Z"/><path class="cls-4" d="M45.88,74c2-.51,5.5-.55,6.82-2.44,1.18-1.69-.29-4-1.76-4.89-.34-.2-1.47.35-1.27.47a3.78,3.78,0,0,1,1.95,4c-.52,2-4.17,2-5.86,2.4-.79.21-.68.66.12.45Z"/><path class="cls-4" d="M34.94,60.93c.55-1.63.3-3.9,1.29-5.35,1.39-2.06,3.45.59,4.12,1.83.26.49,1.58.07,1.35-.36-1.09-2-2.78-3.62-5.24-2.85S34.27,59,33.58,61.08c-.17.51,1.2.35,1.36-.15Z"/><circle class="cls-3" cx="41.56" cy="66.18" r="8.75"/><path class="cls-4" d="M47,72.55c-8.34,7.09-18.27-5.85-10.73-12.76,4-3.65,10.17-1.94,12.49,2.68a8.72,8.72,0,0,1-1.85,10.17c-.34.34,1,.22,1.24,0a9,9,0,0,0-1.09-14,9.92,9.92,0,0,0-11.95,1.09,9,9,0,0,0,.48,13.59c3.75,2.92,9,2.33,12.47-.64C48.57,72.21,47.23,72.32,47,72.55Z"/><ellipse class="cls-16" cx="47.5" cy="65.34" rx="1.29" ry="0.99" transform="translate(-31.7 49.46) rotate(-42.65)"/><ellipse class="cls-17" cx="43.08" cy="60.54" rx="1.29" ry="0.99" transform="translate(-29.62 45.19) rotate(-42.65)"/><path class="cls-9" d="M32.54,66.12a11.68,11.68,0,0,1,2.18-1.79,4.45,4.45,0,0,1,2.7-.67,3.74,3.74,0,0,0-.56,1.86,18.13,18.13,0,0,0,3.88-1.7A5.24,5.24,0,0,1,40,66.31a.32.32,0,0,0,0,.31.37.37,0,0,0,.17.1,1.41,1.41,0,0,0,.94-.16,8,8,0,0,0,1.29-.86,24.66,24.66,0,0,0-1,2.37,2.32,2.32,0,0,0,.85-.35c.29-.13.69-.14.84.14a.75.75,0,0,1,0,.57,12.38,12.38,0,0,1-.72,1.77c-.13.25-.26.57-.07.78s.48.14.73.06a11.17,11.17,0,0,0,1.63-.71,21.06,21.06,0,0,1-2.12,2.76A6.79,6.79,0,0,1,39.65,75a1.31,1.31,0,0,1-.43.08,1.57,1.57,0,0,1-.47-.13A8.83,8.83,0,0,1,36.91,74a8.55,8.55,0,0,1-1.12-1,12.52,12.52,0,0,1-1.91-2.51,14.24,14.24,0,0,1-1.15-3.52,1.46,1.46,0,0,1,0-1"/><path class="cls-10" d="M33.15,66.07c.52-.51,2.73-2.73,3.31-1.7,0,0-.28,1.4-.27,1.34,0,.22.87,0,.91,0a24.49,24.49,0,0,0,4.16-1.84L40.07,64c0,1-.67,1.83-.75,2.8l0,0c1.16.68,2.81-.58,3.65-1.21l-1.27.18c-.36.78-.69,1.56-1,2.37-.1.25.66.09.72.08,2.13-.63-.62,2.25.36,3,.74.57,2.66-.6,3.21-.87l-1.05,0c-1.12,1.63-1.95,3-3.89,3.57-1.76.52-2.45,0-3.66-1.32-1.51-1.6-3.47-4.51-3-6.9.06-.29-1.27-.08-1.33.25-.62,3.34,3,8.56,6.36,9.18,3,.55,5.48-3,6.88-5,.17-.25-1,0-1.05,0-2,1-.51-1.83-.48-2.57l0-.05c-.86-.52-1.52,0-2.39.23l.72.08c.31-.8.64-1.58,1-2.36.15-.33-1.16.08-1.28.17-.89.67-.56-.81-.49-1.1a3,3,0,0,0,.12-1c0-.28-1.09.11-1.19.17a20.92,20.92,0,0,1-3.6,1.58l.91,0a3.78,3.78,0,0,1,.54-1.8c.07-.13-.15-.15-.22-.15-2.45,0-4.21,1.11-5.93,2.79-.27.26,1,.12,1.22-.11Z"/><path class="cls-10" d="M44.36,73.85v0c.08.42,1.38.08,1.35-.36A5,5,0,0,0,45,71.19c-.25-.41-1.54.06-1.35.37a4.92,4.92,0,0,1,.71,2.33l1.35-.36v0c-.08-.41-1.44-.09-1.35.36Z"/><path class="cls-10" d="M37.72,63.16a14.38,14.38,0,0,0-2.48-1.6,1.17,1.17,0,0,0-.88.07c-.08,0-.6.25-.4.39l.06,0c.22.15.65,0,.87-.07s.6-.26.4-.4l0,0L34,62a14.73,14.73,0,0,1,2.49,1.61c.3.23,1.49-.29,1.27-.47Z"/><path class="cls-10" d="M42.51,68.72c-.39.63-.66,1.33-1.08,2a6.38,6.38,0,0,1-1.54,1.57c-.3.22.14.41.36.25a7.06,7.06,0,0,0,1.59-1.59c.47-.67.76-1.43,1.19-2.12.16-.25-.39-.26-.52-.06Z"/><path class="cls-10" d="M41.34,66.66a8.39,8.39,0,0,0-1.2,1.85,6,6,0,0,1-2.08,1.95c-.31.19.13.39.36.25a6.57,6.57,0,0,0,2-1.7,14.19,14.19,0,0,1,1.4-2.18c.24-.24-.28-.34-.45-.17Z"/><path class="cls-10" d="M34.45,70.82c0-.79.92-1.4,1.46-1.88s1.27-1.11,1.93-1.64c.22-.17-.32-.11-.42,0-.75.61-1.49,1.23-2.2,1.88-.54.5-1.3,1-1.31,1.82,0,.1.53,0,.54-.15Z"/><path class="cls-10" d="M38,65.06a19.94,19.94,0,0,0-1.83,1,19.28,19.28,0,0,0-1.58,1.25c-.25.2.29.23.44.11a16.91,16.91,0,0,1,1.48-1.17c.54-.35,1.14-.61,1.71-.91.33-.16,0-.37-.22-.25Z"/><path class="cls-10" d="M32.47,65.65a.6.6,0,0,0-.49.64l.55-.1a1,1,0,0,1,0-.45c0-.27-.45-.09-.52,0-.23.29-.11.88-.07,1.22a2.36,2.36,0,0,0,.55,1.32c.14.15.66-.05.5-.22A2.1,2.1,0,0,1,32.51,67c-.06-.3-.2-1,0-1.23H32a2,2,0,0,0,0,.54c0,.2.54.08.55-.1a.43.43,0,0,1,.1-.36l-.21.13.13,0c.32-.1.25-.41-.08-.31Z"/><path class="cls-10" d="M37.12,73.57a5.53,5.53,0,0,0,1-1c.11-.15-.41-.08-.49,0a5.13,5.13,0,0,1-1,1c-.22.16.31.1.42,0Z"/><path class="cls-10" d="M38.89,66.55a10.53,10.53,0,0,0,1.46-1.73c.19-.29-.32-.39-.46-.17a10.06,10.06,0,0,1-1.46,1.73c-.24.24.28.34.46.17Z"/><rect class="cls-15" x="19.46" y="41.64" width="6" height="9.53" rx="1.51" ry="1.51" transform="translate(-28.77 52.22) rotate(-70.65)"/><path class="cls-18" d="M19.93,47.67l-.59-.2a1.1,1.1,0,0,1-.67-1.4l.62-1.77a1.1,1.1,0,0,1,1.4-.67l.59.21Z"/><path class="cls-19" d="M24.28,49.2l-4.35-1.53,1.35-3.83,4.34,1.52a1.09,1.09,0,0,1,.67,1.4l-.62,1.77A1.09,1.09,0,0,1,24.28,49.2Z"/><circle class="cls-20" cx="19.78" cy="45.5" r="0.5"/><circle class="cls-7" cx="24.82" cy="48.35" r="0.31"/><path class="cls-15" d="M21.25,47.66a1.48,1.48,0,0,0,1.82-.61,1.45,1.45,0,0,0-.78-2.19c-.14-.06-.65.17-.45.25a1.36,1.36,0,0,1,.93,1.11c.06.63-.35,1.39-1.07,1.2-.15,0-.64.19-.45.24Z"/><path class="cls-15" d="M22.88,46.52a.75.75,0,0,0,.46,1.2,1.07,1.07,0,0,0,1.11-.65c.36-1.11-1.73-1.24-1.65-.09,0,.52.59.53.95.32s.57-.7.06-.79c-.3-.06-.94.24-.79.61s.82.19,1,0A.08.08,0,0,0,24,47a.57.57,0,0,0-.93.09s0,.07.06.09a.47.47,0,0,0,.4,0c.33-.08.27-.32-.07-.24h.19l-.17.14c.06-.26.07-.29,0-.1s-.14.15-.19-.09c-.1-.48.4-.53.54-.12s-.32.82-.55.39a.67.67,0,0,1,0-.67c.12-.2-.43-.13-.52,0Z"/><path class="cls-21" d="M14.34,28.74l.82-.34a1.63,1.63,0,0,0,1-1.07c.08-.39-.19-.71-.6-.54L15,27a1.11,1.11,0,0,0-.59.27l-.07.07a1.45,1.45,0,0,0-.58,1A.42.42,0,0,0,14.34,28.74Z"/><path class="cls-21" d="M17,28.26c.36.2.86-.09,1.09-.36s.56-.89.19-1.2a1,1,0,0,0-1.1-.06,1.3,1.3,0,0,0-.75,1.19A.48.48,0,0,0,17,28.26Z"/><path class="cls-22" d="M16.71,29a.9.9,0,0,0,.48-.46.43.43,0,0,0,.22-.09c.41-.36.23-1.38,0-1.78s-.69-.45-1.11-.47l0,0h-.09l-.08,0a.62.62,0,0,0-.6.22.59.59,0,0,0-.53.24.46.46,0,0,1-.07-.07c-.29-.32-.43.17-.46.41,0,.39-.69.93-.41,1.25a9.41,9.41,0,0,0,1.56.79s0,0,0,0A.82.82,0,0,0,16.71,29Z"/><path class="cls-3" d="M20.6,24.79c.2-.52-.93-1.1-1.32-1.16-.63-.1-1.16.47-1.63.84-.31.25-.6.5-.88.77s-.44.29-.66.45A.22.22,0,0,0,16,26L16,26c-.35.38,1.24,1.39,1.63,1.16.18-.11.34-.22.51-.34a4.11,4.11,0,0,0,.81-.44A4.16,4.16,0,0,0,20.6,24.79Z"/><path class="cls-22" d="M18.31,26.53l-.89-.82a1.71,1.71,0,0,0-1-.44l-.08,0c-.14,0-.49,0-.45.23a.44.44,0,0,0,0,.1h0c-.24,0-.4.06-.43.23a.2.2,0,0,0-.13.23c-.25.09-.19.63-.46.87s.56.62.72.34.69.18,1.12.13l.06,0a2.53,2.53,0,0,0,.36.12c.19.05.52.11.62-.06a.3.3,0,0,0,.13-.09.83.83,0,0,0,.68.05C19,27.17,18.46,26.68,18.31,26.53Z"/><path class="cls-4" d="M16.63,29.93c1.13-1,2.21-2.1,3.27-3.19.71-.72,2.22-2.28,1.49-3.39s-3-.23-3.85.28a18,18,0,0,0-4.75,4.21c-.54.7.77.94,1.16.42a16.83,16.83,0,0,1,2.89-2.83,10,10,0,0,1,1.88-1.29c.51-.22,1.22-.31,1.27.48,0,.32-.37.73-.55,1a31.88,31.88,0,0,1-3.74,3.7c-.7.62.4,1.12.93.65Z"/><path class="cls-22" d="M16.52,42.93a.92.92,0,0,1,.53.4.45.45,0,0,1,.23.07c.45.3.39,1.33.25,1.75s-.63.54-1.05.61h-.05s-.06,0-.09,0a.11.11,0,0,1-.08,0,.59.59,0,0,1-.62-.14.57.57,0,0,1-.56-.18l-.06.08c-.25.36-.45-.11-.51-.35a2,2,0,0,1,.1-1.39,2.82,2.82,0,0,1,.8-.77l0,0A.83.83,0,0,1,16.52,42.93Z"/><path class="cls-3" d="M20.75,46.57c.26.49-.8,1.21-1.17,1.31-.62.18-1.22-.32-1.73-.64-.33-.2-.65-.42-1-.65l-.71-.37a.22.22,0,0,1-.12-.29s-.23-.68-.24-.65c-.14.49,1.37.53,1.62.15.11-.17.41-.71.59-.62s.75-.09,1.06.06A4.31,4.31,0,0,1,20.75,46.57Z"/><path class="cls-22" d="M18.23,44.87l-.78.93a1.72,1.72,0,0,1-.9.55l-.08,0c-.14,0-.48.07-.48-.17,0,0,0-.07,0-.1h0a.33.33,0,0,1-.45-.18.21.21,0,0,1-.16-.21c-.26-.07-.27-.61-.56-.81s.48-.69.68-.43.66-.26,1.09-.26h.06l.34-.17c.18-.06.5-.16.63,0a.29.29,0,0,1,.13.08.82.82,0,0,1,.67-.14C18.83,44.16,18.37,44.71,18.23,44.87Z"/><path class="cls-4" d="M15.63,42.75a21.83,21.83,0,0,1,4,3.2c.34.39.93,1.23.44,1.46s-1.79-.53-2.32-.79a13.69,13.69,0,0,1-3.68-2.48c-.36-.37-1.69.16-1.28.56A14.79,14.79,0,0,0,18.13,48c.93.33,2.79.56,3.45-.44,1.18-1.8-3.71-4.72-4.85-5.51-.4-.28-1.68.3-1.1.7Z"/><circle class="cls-3" cx="9.71" cy="36.5" r="9.01"/><path class="cls-4" d="M10,45.13C-.41,44.57-1.74,28,9.43,27.88,20,27.73,21,44.53,10,45.13c-.51,0-1.48.82-.55.77,4.86-.26,9.38-3.35,9.93-8.5A9.42,9.42,0,0,0,10,27.1a9.93,9.93,0,0,0-9.85,8C-.84,41,3.8,45.6,9.43,45.9,10,45.93,10.91,45.18,10,45.13Z"/><ellipse class="cls-4" cx="14.8" cy="40.01" rx="1.33" ry="1.02"/><ellipse class="cls-4" cx="14.8" cy="33.29" rx="1.33" ry="1.02"/><path class="cls-23" d="M2.92,43a10.84,10.84,0,0,0,2.9-.17,4.52,4.52,0,0,0,2.51-1.5,3.9,3.9,0,0,1-1.72-1.12,17.15,17.15,0,0,1,4.13-1.54,5.28,5.28,0,0,0-2.28-1.52c-.11,0-.22-.12-.24-.23a.35.35,0,0,1,.06-.22,1.53,1.53,0,0,1,.83-.58,7.06,7.06,0,0,1,1.58-.27c-.82-.36-1.63-.76-2.41-1.2a2.34,2.34,0,0,1,.89-.37c.31-.11.62-.41.54-.75a.77.77,0,0,0-.42-.45,11.11,11.11,0,0,0-1.78-.92c-.27-.11-.59-.28-.6-.59s.27-.49.52-.61a10.49,10.49,0,0,1,1.72-.65,20.24,20.24,0,0,0-3.52-.67,6.62,6.62,0,0,0-3.5.64,1.68,1.68,0,0,0-.37.27A1.61,1.61,0,0,0,1.5,31a10,10,0,0,0-.75,2.17,9.05,9.05,0,0,0-.12,1.72,15.5,15.5,0,0,0,.3,3.54,16.66,16.66,0,0,0,1.59,3.77,1.51,1.51,0,0,0,.68.8"/><path class="cls-24" d="M3.1,43.73C5.16,43.79,7,43.59,8.57,42c.22-.22-.1-1.35-.36-1.46a3.84,3.84,0,0,1-1.66-1.06l.25,1.45a20.55,20.55,0,0,1,4.13-1.54c.33-.09-.11-1.3-.25-1.45-.74-.8-1.78-1-2.51-1.75l.32,1.31c.23-.83,1.81-.87,2.38-.93.31,0-.08-1.41-.31-1.51-.82-.37-1.61-.77-2.41-1.2l.31,1.51C9.2,35,9.73,35,10,34.13a1.77,1.77,0,0,0-.32-1.31c-.7-.77-2.27-1-2.73-1.86l.22,1.29c.36-.79,1.53-1,2.2-1.21.29-.1-.05-1.44-.31-1.51C7,29,3.9,28.11,2,29.49.73,30.36.42,32.48.36,34c-.12,3.07.53,7.79,3,9.78a2,2,0,0,0-.25-1.49C.72,40.31-.15,33.72,2,31.36c1.71-1.87,5.25-.83,7.25-.33L9,29.52c-1.13.37-2.53.57-2.27,2.08s2.16,1.59,3.06,2.59l-.32-1.31c-.18.67-.87.72-1.35,1-.32.17.07,1.37.31,1.51.8.43,1.59.82,2.41,1.2l-.31-1.51c-.85.09-2.23.09-2.54,1.2a1.77,1.77,0,0,0,.32,1.31c.75.76,1.74.91,2.52,1.75l-.25-1.44a21.67,21.67,0,0,0-4.13,1.54c-.31.15.07,1.28.25,1.44a5.5,5.5,0,0,0,1.79,1.19L8.1,40.58c-1.56,1.58-3.36,1.69-5.37,1.63-.2,0,0,1.51.37,1.52Z"/><path class="cls-24" d="M9,33.09c-1.63-.45-3-1.05-4.7-.86-.31,0-.43.45,0,.4,1.64-.18,2.9.42,4.43.84.24.07.66-.28.32-.38Z"/><path class="cls-24" d="M9.42,35.44a22.06,22.06,0,0,1-2.77-.71,7,7,0,0,0-2.58.14c-.35.06-.24.45.1.38a6,6,0,0,1,3.2.16,7,7,0,0,0,1.85.44c.28,0,.57-.39.2-.41Z"/><path class="cls-24" d="M.56,37.75a2.77,2.77,0,0,0,2.09.46c1.07,0,2.13,0,3.19-.11.16,0,.6-.27.24-.24-.78,0-1.56.09-2.35.11s-2,.2-2.64-.41c-.11-.11-.63.09-.53.19Z"/><path class="cls-24" d="M7.77,39.06a17.94,17.94,0,0,1-3.93.66c-.28,0-.45.36-.06.34a18.73,18.73,0,0,0,4.07-.69c.34-.1.26-.41-.08-.31Z"/><path class="cls-24" d="M.92,33.86a5,5,0,0,1,1.34,0c.13,0,.62-.19.45-.22a5.76,5.76,0,0,0-1.55-.06c-.16,0-.6.27-.24.24Z"/><path class="cls-24" d="M7.29,38.09a10.59,10.59,0,0,1,2.24.3c.28.06.56-.33.19-.42a11.32,11.32,0,0,0-2.38-.3c-.33,0-.43.41,0,.42Z"/><path class="cls-4" d="M18.28,44.54c-.25.35-.65.54-.92.87s-.37.74-.7,1c-.1.08.4,0,.5-.05a4.48,4.48,0,0,0,.66-.95c.28-.39.73-.6,1-1a.79.79,0,0,0-.55.11Z"/><path class="cls-4" d="M16.62,25.36A8.66,8.66,0,0,1,18,26.71c.09.1.61-.1.53-.19a9.54,9.54,0,0,0-1.42-1.35c-.12-.09-.6.13-.53.19Z"/><path class="cls-24" d="M16.51,39.93a2.08,2.08,0,0,0,.88-.25c.34-.18,0-.38-.23-.25a1.44,1.44,0,0,1-.58.17c-.28,0-.45.35-.07.33Z"/><path class="cls-24" d="M15.81,37.83h.5c.25,0,.58-.38.2-.38H16c-.25,0-.58.38-.2.38Z"/><path class="cls-24" d="M15.9,37a1.84,1.84,0,0,0,.57,0c.35-.08.24-.48-.11-.4l-.28,0c-.28,0-.56.41-.18.42Z"/><path class="cls-24" d="M15.74,36.08a2.22,2.22,0,0,0,.74-.24c.33-.16-.17-.21-.34-.13l-.32.1c-.25,0-.47.33-.08.27Z"/><path class="cls-24" d="M15.68,35.34a2.38,2.38,0,0,0,.74-.24c.34-.16-.17-.21-.33-.13l-.32.1c-.25,0-.48.33-.09.27Z"/><path class="cls-24" d="M16.86,33.47a5.7,5.7,0,0,1,.74-.17c.29,0,.43-.45,0-.39s-.59.12-.89.2-.24.46.1.36Z"/><path class="cls-24" d="M16.2,32.61a2.14,2.14,0,0,0,.91-.08c.33-.1.26-.4-.08-.29a1.57,1.57,0,0,1-.61,0c-.23,0-.59.28-.22.32Z"/><path class="cls-24" d="M15.72,31.88l.47-.11c.35-.09.25-.46-.1-.37l-.46.12c-.35.08-.25.45.09.36Z"/><path class="cls-24" d="M16.23,40.93l.47-.11c.34-.09.24-.46-.1-.37l-.47.12c-.34.09-.24.45.1.36Z"/><path class="cls-24" d="M15.24,31.13a1.71,1.71,0,0,0,.48-.21c.32-.19-.17-.23-.33-.13l-.22.1c-.32.09-.27.33.07.24Z"/><path class="cls-24" d="M15.53,41.78a1.77,1.77,0,0,0,.49-.21c.31-.2-.18-.23-.34-.13l-.21.1c-.33.09-.27.33.06.24Z"/><path class="cls-25" d="M12.47,52.25c.19,0,.35-.12.35-.41a1.17,1.17,0,0,0,.08-.76,1.86,1.86,0,0,0-.13-.46,4.07,4.07,0,0,0-.72-1.44.69.69,0,0,0-.24-.21,1.63,1.63,0,0,0-1.69-.37h0l-.28.08h0a.7.7,0,0,0-.52.44.42.42,0,0,0-.1.17l-.13,0A8.45,8.45,0,0,0,7,49.84c-.39.09.24,1.94.8,1.81l1.08-.24a1.21,1.21,0,0,0,.47-.1l0,0h0a.33.33,0,0,0,.25.07l.45-.07a.11.11,0,0,0,.08-.07,2.2,2.2,0,0,0,1.49.3l0,0a.91.91,0,0,0,.11.16l.06.09a.86.86,0,0,0,.13.14L12,52l.06,0,.07.07.13.06h0l.06,0h.12Z"/><path class="cls-25" d="M13.57,70.25A.43.43,0,0,0,14,70l.39-.13a.35.35,0,0,0,.16-.13.75.75,0,0,0,.6-.28.82.82,0,0,0,.14-.48l.11-.13a.93.93,0,0,0,.12-.69l0-.05a1.49,1.49,0,0,0,.15-.4,2.09,2.09,0,0,0,.08-.34,1,1,0,0,0,0-.34,1.33,1.33,0,0,0-.52-1c-.22-.15-.58-.17-.67.14a4.47,4.47,0,0,0-.14.61l0,.07a.06.06,0,0,0,0,0c-.26,0-.51.07-.67.47a.76.76,0,0,0-.16.26,2.27,2.27,0,0,0-1.14.43,6.61,6.61,0,0,0-1.07.12.54.54,0,0,0-.19.08l-.77-.09c-.88-.1-.14,1.51.28,1.7a4,4,0,0,0,1.2.32.33.33,0,0,0,.31-.11A3.77,3.77,0,0,0,13.57,70.25Z"/><path class="cls-4" d="M7.92,69.28c1.9.67,4.8,2.56,6.83,1.32a3.76,3.76,0,0,0,1.15-4.84c-.21-.47-1.44-.09-1.25.33.48,1,.73,3.12-.45,3.89-1.35.88-4.19-1-5.53-1.43-.44-.15-1.47.48-.75.73Z"/><path class="cls-4" d="M6.19,52.19c1.16-.9,2.62-3.45,4.13-3.56,1.94-.14,2.09,2.59,2,3.88-.06.65,1.22.48,1.27-.1.18-1.93-.23-4.31-2.52-4.75s-4.11,2.72-5.68,4c-.67.52.34,1,.83.58Z"/><circle class="cls-3" cx="8.74" cy="59.64" r="8.1" transform="translate(-51.25 65.48) rotate(-87.23)"/><path class="cls-4" d="M10.1,67.33C.08,68.36-2.14,52.49,8.18,52c9.23-.42,11,13.38,1.75,15.35-.76.16-.61.7.14.54,4.53-1,8.06-4.85,7.3-9.7a8.53,8.53,0,0,0-9.88-6.87A8.75,8.75,0,0,0,0,60.19C.26,65.43,5,68.44,9.9,68,10.48,67.89,11,67.24,10.1,67.33Z"/><ellipse class="cls-4" cx="13.75" cy="62.04" rx="1.19" ry="0.91" transform="translate(-9.49 2.9) rotate(-8.95)"/><ellipse class="cls-4" cx="12.81" cy="56.07" rx="1.19" ry="0.91" transform="translate(-8.57 2.68) rotate(-8.95)"/><path class="cls-26" d="M13,68.49a.43.43,0,0,0,.17-.06c.4-.06.81-.14,1.22-.24l.47-.06a2.08,2.08,0,0,0,.81-.22A1.33,1.33,0,0,0,17,66.14a2,2,0,0,0,.21-.91l.14-.15a3.38,3.38,0,0,1,.07-.78c0-.09.07-.33.08-.54-.16-.29-.37-.51-.56-.5l-.61,0a.26.26,0,0,0-.26.22v0l-3.61,1.25a.19.19,0,0,0-.09,0l-.79.2a2.19,2.19,0,0,0-.16-.3,2.16,2.16,0,0,0-.28-.74,11.13,11.13,0,0,0-1.11-1.45,3.49,3.49,0,0,0-.65-.92c-.13-.13-.24-.17-.31-.12a2.8,2.8,0,0,0-.57-.46L8.36,61,8,60.62c-.17-.15-.27-.18-.34-.13l-.33-.16A2,2,0,0,0,6.71,60a1.12,1.12,0,0,0-.3-.35,3.32,3.32,0,0,0-2-.42l-.12,0-.6-.12a1.07,1.07,0,0,0,.23-.2c.36-.31.63-.4.79-.81L5,57.87c.6.17.71-.57.93-1.34a2.52,2.52,0,0,0,.82-2.09c.12-.16,0-.31,0-.42l.05-.12.13,0a.42.42,0,0,0,.3.14l.08,0a.27.27,0,0,0,.14,0,20.38,20.38,0,0,0,2.81-.49c.07,0,.1-.09.1-.19l.2,0,.57-.11a30,30,0,0,1,3.58-.31c.19,0,.2-.28.13-.61a3.1,3.1,0,0,1-.89-.64,2.15,2.15,0,0,1-.24-.18.28.28,0,0,1-.08-.11.28.28,0,0,1-.08-.11l-.74,0a1.93,1.93,0,0,0-.21-.34l-.36-.45c-.08-.14-.32-.56-.54-.49a12.23,12.23,0,0,1-1.92.44H9.71l-.36.06c-.23,0-.47.05-.73.06,0,0-.06,0-.07.08a16.59,16.59,0,0,1-1.7.25,4.45,4.45,0,0,1-.82.39s0,.06,0,.1a.82.82,0,0,0-.31.25.1.1,0,0,0-.12,0l-.2.21a.11.11,0,0,0-.08,0,7.56,7.56,0,0,0-1.91,1.87,3.17,3.17,0,0,0-.88,1A6.27,6.27,0,0,0,2,55.4a4.65,4.65,0,0,0-.8,1.36,1.23,1.23,0,0,0,.05.57,1.87,1.87,0,0,0-.12.57A1.9,1.9,0,0,0,1,59c0,.37-.18.67,0,1,0,0-.1.21-.1.22-.06.28.24.43.34.68a3.12,3.12,0,0,0,.13.56c.06.16.13.31.2.46A4.15,4.15,0,0,0,3,64.74a2,2,0,0,0,.45.71l.57.39a.26.26,0,0,0,.17,0,4.08,4.08,0,0,0,2.89,1.55l.26.06c.9,1.2,3,1.25,4.42,1.06a.34.34,0,0,0,.12,0A8.17,8.17,0,0,0,13,68.49Z"/><path class="cls-10" d="M4.24,59.29a9,9,0,0,1,7.53,7.61c0,.09.52,0,.51-.13a9.08,9.08,0,0,0-7.62-7.66c-.12,0-.54.16-.42.18Z"/><path class="cls-10" d="M4.82,59a7.82,7.82,0,0,0-3.16.11c-.29.09-.24.32.06.23a6.9,6.9,0,0,1,2.79-.09c.14,0,.58-.22.31-.25Z"/><path class="cls-26" d="M11.63,68.8c.77-.23.06-1.91-.74-1.67A4.58,4.58,0,0,1,8,67a.34.34,0,0,0-.16,0,1,1,0,0,0-.7-.71A1.46,1.46,0,0,1,6.52,66c-.3-.2-.6-.11-.63.28a1.45,1.45,0,0,0,.53,1.18,2.86,2.86,0,0,0,1,.43,1.13,1.13,0,0,0,.66.78A5.53,5.53,0,0,0,11.63,68.8Z"/><path class="cls-10" d="M4.35,59a14.89,14.89,0,0,0,2.41-3.29,7,7,0,0,0,.18-3.56c0-.2-.52-.08-.5.14l0,.23c0,.19.52.08.5-.13l0-.24-.5.14a6.29,6.29,0,0,1-.36,3.81,19.69,19.69,0,0,1-2.14,2.79c-.19.24.29.27.41.11Z"/><path class="cls-10" d="M11.78,66.94c-3,3.56-9.34-1.75-10.37-4.71a8.06,8.06,0,0,1-.19-4.76c.12-.39,4-7.52,5.18-5.33.08.16.56,0,.5-.14-.51-.92-2.18.12-2.76.53A9.06,9.06,0,0,0,.69,61.47c.87,3.86,8,9.61,11.55,5.46.14-.15-.36-.11-.46,0Z"/><path class="cls-10" d="M11.83,66.08a14.43,14.43,0,0,0,5.53-2L17,64c-.78,4.11-6.62,6.17-9.92,3.67-.16-.12-.61.11-.39.27,3.56,2.7,10,.46,10.81-4,0-.22-.33-.13-.41-.08a13.35,13.35,0,0,1-5.16,1.89c-.26,0-.4.39-.05.34Z"/><path class="cls-10" d="M7,53.33a18.83,18.83,0,0,1,6.76-1.24c.15,0,.53-.2.23-.33-3.63-1.52-6.75-2-9.9.64-.26.22.15.36.33.21,3-2.52,6-1.92,9.28-.53l.24-.33a19.82,19.82,0,0,0-7.15,1.31c-.33.12,0,.37.21.27Z"/><path class="cls-10" d="M11.51,65l6.08-1.66-.27-.06A3.47,3.47,0,0,1,17,64.87a6.7,6.7,0,0,1-1,1c-.12.13.36.09.46,0a3.43,3.43,0,0,0,1.36-2.62c0-.12-.21-.08-.27-.06L11.46,64.8c-.3.08-.25.28,0,.2Z"/><path class="cls-10" d="M7,54.17q4.13-.59,8.23-1.31c.07,0,.43-.16.23-.26a9.08,9.08,0,0,1-2.75-2.09c-.4-.44-.33-.45-.75-.59-.65-.2-2.43.32-3.12.43a14.46,14.46,0,0,0-2.3.61c-.3.09-.24.34.06.25a18.67,18.67,0,0,1,4.61-.92c1.1,0,1.68,1.19,2.55,1.8.65.46,1.37.45.27.71-.61.15-1.27.22-1.89.32q-2.53.41-5.07.78c-.24,0-.42.32-.07.27Z"/><path class="cls-10" d="M17.33,64c-.25,1.34-.26,2.84-1.54,3.66a12.78,12.78,0,0,1-1.89.65,8.89,8.89,0,0,1-8.58-1.85c-.16-.15-.6.1-.39.29C7,68.61,10.33,69.91,13,69.06c1-.31,3.44-.58,4-1.28.7-.91.65-2.7.85-3.79.05-.25-.47-.19-.51,0Z"/><path class="cls-10" d="M1.92,59.72a15.69,15.69,0,0,1,7.65,5.52c.09.13.57,0,.46-.2a15.81,15.81,0,0,0-7.71-5.56c-.14-.06-.6.16-.4.24Z"/><path class="cls-10" d="M1.85,59.42a11.57,11.57,0,0,0,2.33,3,40.26,40.26,0,0,0,3.39,3.27c.14.13.61-.07.46-.2a41,41,0,0,1-3.09-2.95,12.48,12.48,0,0,1-2.59-3.29c-.08-.19-.58,0-.5.14Z"/><path class="cls-10" d="M2.07,59.24c1.16-1.48,2.84-3,3.24-4.94,0-.15-.46-.07-.49.07-.4,1.87-2.06,3.42-3.21,4.89-.12.14.37.09.46,0Z"/><path class="cls-10" d="M2.1,59.19c0-.66.8-1.58,1.08-2.18A12.26,12.26,0,0,0,3.9,55.1c.05-.17-.45-.1-.5.06a12.13,12.13,0,0,1-1,2.51c-.3.53-.8,1-.78,1.66,0,.15.51.05.5-.14Z"/><path class="cls-10" d="M5.57,51.47c-.41.24-.85.46-1.24.74s-.33.2.16-.05a19.65,19.65,0,0,1,1.94-.85c.21-.07.18-.19,0-.14A7.77,7.77,0,0,0,.58,60.38c0,.1.49,0,.5-.14a10.85,10.85,0,0,1,1.77-6s-.4,0-.47.07a9.06,9.06,0,0,0-1.83,3.9l.5-.12c-.18-2.19,1.57-4,2.93-5.41.1-.1-.37,0-.45,0C2.14,54.23.37,56,.55,58.25c0,.09.47,0,.5-.11a8.79,8.79,0,0,1,1.78-3.85l-.47.06a10.89,10.89,0,0,0-1.78,6l.5-.14a7.25,7.25,0,0,1,1.81-6.75,6.93,6.93,0,0,1,1.72-1.36C4.9,52,6,51.4,5.67,51.4c-.67,0-1.66.89-2.13,1.28-.11.09.36,0,.42,0l2-1.19c.21-.12-.29,0-.38,0Z"/><path class="cls-10" d="M7.71,67.91c-.56-.26-1.12-.49-1.7-.71-.11,0-.54.14-.47.17A9.82,9.82,0,0,0,7.08,68l.41-.19a7.17,7.17,0,0,1-3.78-1.94A11.22,11.22,0,0,1,1.6,62.47c-.06-.11-.54.06-.5.14C2,64.35,3.15,66.28,5,67.06a.64.64,0,0,0,.48-.17c-1.88-.77-3-2.69-3.92-4.42l-.5.14a11.61,11.61,0,0,0,2.14,3.44,7.2,7.2,0,0,0,3.84,2c.08,0,.57-.13.41-.19A9.63,9.63,0,0,1,6,67.2l-.47.17c.58.22,1.14.44,1.7.71.13.06.52-.14.47-.17Z"/><path class="cls-10" d="M1.37,61.85c-.11-.42-.22-.85-.32-1.27,0-.19-.54-.06-.5.13l.2.91.5-.14A6.81,6.81,0,0,1,1,58.31c0-.2-.47-.12-.5.06a6.89,6.89,0,0,0,.24,3.25c.06.18.54.05.5-.14l-.2-.9-.5.13c.1.43.21.85.32,1.27.05.19.55.06.5-.13Z"/><path class="cls-4" d="M13.06,63.38a.9.9,0,0,1-.79-.75c-.07-.33-.57-.19-.5.13a1.39,1.39,0,0,0,1.15,1.12c.32,0,.46-.45.14-.5Z"/><path class="cls-4" d="M11.1,54.55a2.42,2.42,0,0,0-.54,1.74c0,.33.53.33.52,0a2,2,0,0,1,.38-1.37c.22-.25-.14-.62-.36-.37Z"/></g></g></svg>