<svg xmlns="http://www.w3.org/2000/svg" viewBox="0 0 36.69 37.39"><defs><style>.cls-1{fill:#ffce00;}.cls-2{fill:#ed6e06;}.cls-3{fill:#fff;}.cls-4{fill:#65bc20;}</style></defs><title>personaji_3</title><g id="Слой_1" data-name="Слой 1"><rect class="cls-1" x="5.45" y="19.54" width="25.46" height="17"/><path class="cls-2" d="M19.11,34.93a52.93,52.93,0,0,1-5.89-1c-2.28-.62-2.83-4.95-3.32-7-.07-.3-.48-.33-1-.23,0-.43.07-.83.08-1.21,0-1.92.09-3.85.13-5.77,0-.45-2.88-.07-2.9.78,0,2-.09,4-.13,6a.53.53,0,0,0-.25.4c0,1.21,0,5.4,0,6.6,0,.06,0,.11,0,.17s0,.17,0,.25c-.32.14-.56.31-.6.46a3,3,0,0,0-.2,1.22c0,.2.31.24.66.21a3.7,3.7,0,0,0,.4.34A2.78,2.78,0,0,0,8,36a16.52,16.52,0,0,0,2.31.14c2.21.07,4.42,0,6.63,0C17.43,36.09,20,35.07,19.11,34.93Z"/><path d="M30.91,35.69H9.62c-1.16,0-2.85.32-4,0-.22-.06.63,1.2.65.5s0-1.62,0-2.42V24.09c0-.88.37-4.75-.4-4.07s1.68.37,2.33.37H27.11a15.57,15.57,0,0,1,3.61,0c.52.15-.62-1.3-.66-.49s0,1.62,0,2.42V36.54a.85.85,0,0,0,1.7,0v-17a.86.86,0,0,0-.85-.85H5.45a.86.86,0,0,0-.85.85v17a.86.86,0,0,0,.85.85H30.91A.85.85,0,0,0,30.91,35.69Z"/><path d="M24.27,19.73c-1.73,2.3-3.55,4.52-5.42,6.7a50.07,50.07,0,0,0-6.59-7.07c-.52-.5-2,.3-1.26.94a45.63,45.63,0,0,1,6.9,7.6c0,1.72,0,6.44.2,8.15.07.68,1.71.3,1.64-.44-.15-1.63-.21-6.27-.18-7.91q3.17-3.63,6.08-7.49C26.27,19.38,24.72,19.13,24.27,19.73Z"/><path d="M10.14,19.78c0-.29-1.67,0-1.64.44.23,4.47.47,12,.7,16.42,0,.29,1.67,0,1.65-.44C10.61,31.73,10.38,24.25,10.14,19.78Z"/><path d="M27.14,19.8c0,4.24,0,11.48-.15,15.71,0,.9,1.65.69,1.67-.1.11-4.24.16-11.47.15-15.71C28.81,18.8,27.14,19,27.14,19.8Z"/><path class="cls-1" d="M7.74,4.51c.06-.29-.09-.56-.53-.63a1.69,1.69,0,0,0-1.11-.3,3.56,3.56,0,0,0-.73.09,6.19,6.19,0,0,0-2.32.74,1,1,0,0,0-.36.32,2.51,2.51,0,0,0-1,2.46v0h0a3.32,3.32,0,0,0,.06.44s0,0,0,0a1.1,1.1,0,0,0,.52.89.88.88,0,0,0,.24.19A.9.9,0,0,0,2.5,9c-.23,1.11.27,2.23.34,3.33,0,.62,3,.1,2.9-.77,0-.57-.07-1.13-.1-1.7a2.06,2.06,0,0,0,0-.73s0,0,0-.06h0a.53.53,0,0,0,.16-.35V8a.19.19,0,0,0-.08-.15,3.32,3.32,0,0,0,.79-2.18l.08,0,.26-.13.14-.08.25-.16.15-.1a.73.73,0,0,0,.08-.09S7.47,5,7.5,5a1,1,0,0,0,.13-.18h0a.41.41,0,0,0,0-.08l0-.07A.26.26,0,0,0,7.74,4.51Z"/><path class="cls-1" d="M35.12,7.93a.7.7,0,0,0-.32-.69,4.11,4.11,0,0,0-.12-.67.84.84,0,0,0-.15-.3,1.28,1.28,0,0,0-.32-1,1.27,1.27,0,0,0-.73-.34,1.68,1.68,0,0,0-.18-.21,1.51,1.51,0,0,0-1.09-.37l-.08-.08a2.61,2.61,0,0,0-.6-.35c-.17-.08-.36-.15-.53-.21a1.29,1.29,0,0,0-.56-.08,2.2,2.2,0,0,0-1.69.61c-.29.31-.42.89.06,1.11a4.83,4.83,0,0,0,1,.38l.1.09.07,0c-.14.41,0,.84.58,1.21a1.43,1.43,0,0,0,.38.31,3.89,3.89,0,0,0,.41,2,12.74,12.74,0,0,0-.08,1.76,1,1,0,0,0,.09.32c-.12.41-.23.82-.35,1.23-.39,1.4,2.42.61,2.84,0a6.44,6.44,0,0,0,.82-1.86.55.55,0,0,0-.1-.53A6.26,6.26,0,0,0,35.12,7.93Z"/><path d="M32.63,16C34.08,13.3,38.37,8.59,36,5.47c-1.76-2.3-4.91-2.57-7.54-1.83-1.2.34-1,1.19.23.85,2.62-.74,6.38.86,5.89,4-.45,2.88-2.62,5.31-4,7.81-.24.44,1.73.28,2-.3Z"/><path d="M5.79,13.64c-1.06-1.92-4.62-5-3.62-7.43S6.06,4.07,8.12,4.59C9,4.82,10.54,3.5,9.3,3.18c-3-.76-6.14-.89-8.3,1.62-2.92,3.38,1.31,6.86,2.91,9.75.45.83,2.41,0,1.88-.91Z"/><circle class="cls-3" cx="18.35" cy="13.56" r="13.3"/><ellipse cx="23.53" cy="6.04" rx="1.5" ry="1.96"/><ellipse cx="13.61" cy="6.04" rx="1.5" ry="1.96"/><path class="cls-4" d="M30.79,15.53a3.87,3.87,0,0,0-.13-.7c0-.07,0-.12,0-.18.06-.41-.43-.52-1-.45a1.33,1.33,0,0,0-.59-.19,2.66,2.66,0,0,0-1.19,0,3.58,3.58,0,0,0-1.16-.32,3,3,0,0,0-1.18-.06s-.87-.48-.89-.48c-.36,0-1.77,1.06-1.13,1.7l.24.21a1.43,1.43,0,0,0,.22.52,1.14,1.14,0,0,0,0,.52,1.2,1.2,0,0,0,.17.42.29.29,0,0,0,.18.26.49.49,0,0,0,0,.11,1,1,0,0,0-.38.33c-.19.35-.38.73-.58,1.12,0,.06-.09.12-.15.18h-.17a4.28,4.28,0,0,0-1.54.43l-.31.09a5.73,5.73,0,0,0-2.1-.39,1.62,1.62,0,0,0-.63-1.59,5,5,0,0,0-.38-.81,3.11,3.11,0,0,0-.56-2.34c-.21-.26-.87-.18-1.12-.13-1.31.23-2.53.36-3.05,1.28-.16.18-.31.36-.46.55A2.53,2.53,0,0,0,11.53,17l-.1,0a.44.44,0,0,0-.13-.14c-.08-1.24-.74-1.3-1.76-1.66l-.24-.29a1.35,1.35,0,0,0-.51-.78A.87.87,0,0,0,8.36,13c.14-.33-.08-.53-.43-.63-.1-.43-1.41-.12-1.57-.08l-.08,0c-.29.07-1.42.41-1.31.88l0,.12a.35.35,0,0,0,0,.08,1,1,0,0,0,.15.49c0,.08,0,.14.14.17l0,0a.52.52,0,0,0,.33.21v.2c-.51.36-.75.78,0,1A1.61,1.61,0,0,0,6,17a5.28,5.28,0,0,0-.1,2.53c.19,1.08.65,1.64,1.44,1.75a5.29,5.29,0,0,0,1.1,2.28c.28.3,1.17.08,1.49,0a5.66,5.66,0,0,0,.64.7,1.4,1.4,0,0,0,1,.14,2.89,2.89,0,0,0,1.89.93,4.3,4.3,0,0,0,.73.3.37.37,0,0,0,.28.18c.54.14,1.05.25,1.56.34a3.54,3.54,0,0,0,2.75.27A10,10,0,0,0,21.21,26a11.84,11.84,0,0,0,4.13-1.84c.26-.18.35-.31.33-.42.29-.24.58-.48.84-.73a16,16,0,0,0,3.95-5.54c.07-.15,0-.24-.22-.3.05-.1.09-.2.14-.31a1.71,1.71,0,0,0,.4-1,.61.61,0,0,0,0-.12A.19.19,0,0,0,30.79,15.53Z"/><path d="M32,14.47A12.21,12.21,0,0,0,22.73,13c-.17,0-1.51.38-1.15.74,1.89,1,2.2,2.12.91,3.31-.36,1.41-1.15,1.65-2.37.73-1.86-.86-2.06-3.26-1.62-4.93.12-.43-1-.18-1.1-.15a10.28,10.28,0,0,0-6.92,4.7l2-.46C10.74,13.87,10,9.49,5.78,11.7c-1.2.63.69.55,1.19.29.94-.5,3.19,5,3.5,5.5s1.8-.08,2-.45a7.07,7.07,0,0,1,5.07-3.68l-1.1-.15c-2.32,8.75,13.93,6.91,7-.17l-1.15.74A10,10,0,0,1,30,15.18c.52.29,2.21-.56,1.93-.71Z"/><path d="M30.61,13.67c-.35,7-5.7,13.25-13.24,12.46A12.82,12.82,0,0,1,6.15,13.37c0-7.47,6.72-13.8,14.36-12.13,6.13,1.34,9.8,6.52,10.11,12.6,0,.78,2.1.33,2.05-.55C31.76-4.82,3.93-4.19,4,13.75c.09,18.31,27.75,17.43,28.65-.29C32.73,12.51,30.65,12.87,30.61,13.67Z"/></g></svg>