<svg xmlns="http://www.w3.org/2000/svg" viewBox="0 0 36.64 37.39"><defs><style>.cls-1{fill:#ffce00;}.cls-2{fill:#ed6e06;}.cls-3{fill:#fff;}</style></defs><title>personaji_3</title><g id="Слой_1" data-name="Слой 1"><rect class="cls-1" x="5.36" y="19.54" width="25.46" height="17"/><path class="cls-2" d="M19,34.93a52.76,52.76,0,0,1-5.88-1c-2.29-.62-2.83-4.95-3.32-7-.07-.3-.49-.33-1-.23,0-.43.07-.83.08-1.21C9,23.5,9,21.57,9,19.65c0-.45-2.88-.07-2.9.78,0,2-.09,4-.14,6a.55.55,0,0,0-.25.4c0,1.21,0,5.4,0,6.6a1,1,0,0,0,0,.17c0,.09,0,.17,0,.25a1.14,1.14,0,0,0-.6.46A3.18,3.18,0,0,0,5,35.51c0,.2.31.24.65.21a5,5,0,0,0,.4.34A2.78,2.78,0,0,0,7.94,36a16.7,16.7,0,0,0,2.31.14c2.21.07,4.43,0,6.63,0C17.34,36.09,19.92,35.07,19,34.93Z"/><path d="M30.82,35.69H9.52c-1.16,0-2.84.32-4,0-.22-.06.64,1.2.66.5s0-1.62,0-2.42V24.09c0-.88.36-4.75-.4-4.07s1.68.37,2.32.37H27a15.48,15.48,0,0,1,3.6,0c.52.15-.61-1.3-.65-.49s0,1.62,0,2.42V36.54a.85.85,0,0,0,1.7,0v-17a.86.86,0,0,0-.85-.85H5.36a.86.86,0,0,0-.85.85v17a.86.86,0,0,0,.85.85H30.82A.85.85,0,0,0,30.82,35.69Z"/><path d="M24.17,19.73c-1.73,2.3-3.54,4.52-5.42,6.7a50,50,0,0,0-6.58-7.07c-.53-.5-2,.3-1.27.94a45.26,45.26,0,0,1,6.91,7.6c0,1.72,0,6.44.2,8.15.06.68,1.71.3,1.64-.44-.16-1.63-.22-6.27-.19-7.91q3.18-3.63,6.09-7.49C26.18,19.38,24.63,19.13,24.17,19.73Z"/><path d="M10,19.78c0-.29-1.66,0-1.64.44.24,4.47.47,12,.71,16.42,0,.29,1.67,0,1.64-.44C10.52,31.73,10.28,24.25,10,19.78Z"/><path d="M27.05,19.8c0,4.24,0,11.48-.15,15.71,0,.9,1.65.69,1.67-.1.11-4.24.16-11.47.15-15.71C28.71,18.8,27.05,19,27.05,19.8Z"/><path class="cls-1" d="M7.65,4.51c0-.29-.09-.56-.53-.63A1.71,1.71,0,0,0,6,3.58a3.55,3.55,0,0,0-.72.09A6.13,6.13,0,0,0,3,4.41a1.13,1.13,0,0,0-.37.32,2.5,2.5,0,0,0-1,2.46v0h0c0,.15,0,.29.06.44s0,0,0,0a1.08,1.08,0,0,0,.53.89.65.65,0,0,0,.24.19L2.4,9c-.22,1.11.28,2.23.35,3.33,0,.62,3,.1,2.9-.77,0-.57-.07-1.13-.11-1.7a2,2,0,0,0,0-.73.13.13,0,0,0,0-.06h0a.53.53,0,0,0,.16-.35V8a.22.22,0,0,0-.08-.15,3.32,3.32,0,0,0,.79-2.18l.07,0,.26-.13.15-.08.25-.16a.71.71,0,0,0,.14-.1.34.34,0,0,0,.08-.09L7.41,5l.13-.18h0s0-.06,0-.08l0-.07Z"/><path class="cls-1" d="M35,7.93a.67.67,0,0,0-.32-.69,4.07,4.07,0,0,0-.11-.67.72.72,0,0,0-.16-.3,1.28,1.28,0,0,0-.31-1,1.31,1.31,0,0,0-.73-.34,1.8,1.8,0,0,0-.19-.21,1.49,1.49,0,0,0-1.08-.37A.6.6,0,0,0,32,4.23a2.61,2.61,0,0,0-.6-.35c-.17-.08-.36-.15-.53-.21a1.34,1.34,0,0,0-.57-.08,2.17,2.17,0,0,0-1.68.61c-.3.31-.43.89.05,1.11a5.38,5.38,0,0,0,.95.38l.11.09.06,0c-.14.41,0,.84.59,1.21a1.29,1.29,0,0,0,.38.31,3.79,3.79,0,0,0,.41,2,11.35,11.35,0,0,0-.08,1.76.79.79,0,0,0,.08.32c-.11.41-.23.82-.34,1.23-.39,1.4,2.41.61,2.83,0a6.46,6.46,0,0,0,.83-1.86.53.53,0,0,0-.11-.53A6.26,6.26,0,0,0,35,7.93Z"/><path d="M32.49,16.25C33.94,13.56,38.22,8.83,36,5.61c-1.71-2.5-5-3-7.76-2.22-1.26.35-.9,1.71.36,1.36,2.39-.68,5.95.36,5.87,3.32-.07,2.77-2.71,5.63-4,8-.54,1,1.54,1,2,.21Z"/><path d="M5.78,13.82c-1.16-2.09-4.24-4.64-3.86-7.3.44-3.11,3.57-2.84,5.84-2.26.45.12,2.22-.62,1.7-.75-2.54-.65-5.76-.8-7.89,1C-2.3,7.76,2,11.22,3.73,14.37c.25.46,2.18-.31,2.05-.55Z"/><circle class="cls-3" cx="18.26" cy="13.56" r="13.3"/><ellipse cx="23.43" cy="6.04" rx="1.5" ry="1.96"/><ellipse cx="13.52" cy="6.04" rx="1.5" ry="1.96"/><path d="M30.52,13.67c-.35,7-5.71,13.25-13.24,12.46A12.81,12.81,0,0,1,6.06,13.37c0-7.47,6.72-13.8,14.36-12.13,6.13,1.34,9.8,6.52,10.11,12.6,0,.78,2.09.33,2-.55C31.66-4.82,3.84-4.19,3.93,13.75c.1,18.31,27.76,17.43,28.66-.29C32.63,12.51,30.56,12.87,30.52,13.67Z"/></g></svg>