<svg xmlns="http://www.w3.org/2000/svg" viewBox="0 0 36.65 37.39"><defs><style>.cls-1{fill:#ffce00;}.cls-2{fill:#ed6e06;}.cls-3{fill:#fff;}.cls-4{fill:#603813;}</style></defs><title>personaji_3</title><g id="Слой_1" data-name="Слой 1"><rect class="cls-1" x="5.41" y="19.54" width="25.46" height="17"/><path class="cls-2" d="M19.06,34.93a53.16,53.16,0,0,1-5.88-1c-2.28-.62-2.83-4.95-3.32-7-.07-.3-.49-.33-1-.23,0-.43.07-.83.08-1.21,0-1.92.09-3.85.13-5.77,0-.45-2.88-.07-2.9.78,0,2-.09,4-.13,6a.57.57,0,0,0-.26.4c0,1.21,0,5.4,0,6.6,0,.06,0,.11,0,.17s0,.17,0,.25a1.14,1.14,0,0,0-.6.46,3.18,3.18,0,0,0-.19,1.22c0,.2.31.24.66.21a3.7,3.7,0,0,0,.4.34A2.78,2.78,0,0,0,8,36a16.52,16.52,0,0,0,2.31.14c2.2.07,4.42,0,6.63,0C17.39,36.09,20,35.07,19.06,34.93Z"/><path d="M30.87,35.69H9.58c-1.16,0-2.85.32-4,0-.22-.06.63,1.2.65.5s0-1.62,0-2.42V24.09c0-.88.37-4.75-.4-4.07s1.68.37,2.33.37H27.07a15.57,15.57,0,0,1,3.61,0c.51.15-.62-1.3-.66-.49s0,1.62,0,2.42V36.54a.85.85,0,0,0,1.7,0v-17a.86.86,0,0,0-.85-.85H5.41a.86.86,0,0,0-.85.85v17a.86.86,0,0,0,.85.85H30.87A.85.85,0,0,0,30.87,35.69Z"/><path d="M24.23,19.73c-1.74,2.3-3.55,4.52-5.42,6.7a50.66,50.66,0,0,0-6.59-7.07c-.53-.5-2,.3-1.27.94a45.26,45.26,0,0,1,6.91,7.6c0,1.72,0,6.44.2,8.15.06.68,1.71.3,1.64-.44-.16-1.63-.21-6.27-.19-7.91q3.18-3.63,6.09-7.49C26.23,19.38,24.68,19.13,24.23,19.73Z"/><path d="M10.1,19.78c0-.29-1.67,0-1.65.44.24,4.47.48,12,.71,16.42,0,.29,1.67,0,1.64-.44C10.57,31.73,10.33,24.25,10.1,19.78Z"/><path d="M27.1,19.8c0,4.24,0,11.48-.15,15.71,0,.9,1.65.69,1.67-.1.11-4.24.16-11.47.15-15.71C28.77,18.8,27.1,19,27.1,19.8Z"/><path class="cls-1" d="M7.7,4.51c0-.29-.09-.56-.53-.63a1.7,1.7,0,0,0-1.11-.3,3.56,3.56,0,0,0-.73.09A6.19,6.19,0,0,0,3,4.41a1.13,1.13,0,0,0-.37.32,2.52,2.52,0,0,0-1,2.46v0h0a3.29,3.29,0,0,0,.05.44l0,0a1.07,1.07,0,0,0,.52.89.88.88,0,0,0,.24.19L2.45,9c-.22,1.11.28,2.23.35,3.33,0,.62,3,.1,2.9-.77,0-.57-.07-1.13-.11-1.7a2,2,0,0,0,0-.73l0-.06h0a.53.53,0,0,0,.16-.35V8a.19.19,0,0,0-.08-.15,3.32,3.32,0,0,0,.79-2.18l.08,0,.25-.13.15-.08.25-.16a.71.71,0,0,0,.14-.1s.06-.06.09-.09S7.43,5,7.46,5l.13-.18h0a.59.59,0,0,0,0-.08l0-.07A.61.61,0,0,0,7.7,4.51Z"/><path class="cls-1" d="M35.08,7.93a.69.69,0,0,0-.33-.69,4.07,4.07,0,0,0-.11-.67.84.84,0,0,0-.15-.3,1.32,1.32,0,0,0-.32-1,1.27,1.27,0,0,0-.73-.34,1.2,1.2,0,0,0-.19-.21,1.49,1.49,0,0,0-1.08-.37l-.08-.08a2.61,2.61,0,0,0-.6-.35c-.17-.08-.36-.15-.53-.21a1.34,1.34,0,0,0-.57-.08,2.19,2.19,0,0,0-1.68.61c-.3.31-.42.89.05,1.11a5.18,5.18,0,0,0,1,.38l.1.09.07,0c-.15.41,0,.84.58,1.21a1.29,1.29,0,0,0,.38.31,3.89,3.89,0,0,0,.41,2,11.35,11.35,0,0,0-.08,1.76,1,1,0,0,0,.09.32c-.12.41-.23.82-.35,1.23-.39,1.4,2.42.61,2.83,0a6.21,6.21,0,0,0,.83-1.86.55.55,0,0,0-.1-.53A6.47,6.47,0,0,0,35.08,7.93Z"/><path d="M32.59,16C34,13.28,38.34,8.6,35.93,5.48,34.16,3.17,31,2.93,28.4,3.67c-1.2.34-1,1.14.21.79,2.48-.7,6.22.78,5.92,3.75s-2.61,5.55-4,8.1c-.22.4,1.73.25,2-.32Z"/><path d="M5.83,13.82C4.66,11.7,1.8,9.35,2,6.74c.26-3.18,3.85-2.86,6-2.3.64.16,2.41-.81,1.26-1.1-2.82-.73-6-.81-8.13,1.42-3.19,3.31,1,6.68,2.61,9.61.38.69,2.36,0,2.05-.55Z"/><circle class="cls-3" cx="18.31" cy="13.56" r="13.3"/><path d="M30.57,13.67c-.35,7-5.7,13.25-13.24,12.46A12.82,12.82,0,0,1,6.11,13.37c0-7.47,6.72-13.8,14.36-12.13,6.13,1.34,9.8,6.52,10.11,12.6,0,.78,2.1.33,2.05-.55C31.72-4.82,3.89-4.19,4,13.75c.1,18.31,27.76,17.43,28.66-.29C32.69,12.51,30.61,12.87,30.57,13.67Z"/><ellipse cx="23.48" cy="6.04" rx="1.5" ry="1.96"/><ellipse cx="13.57" cy="6.04" rx="1.5" ry="1.96"/><path class="cls-4" d="M24.92,19.29a17.72,17.72,0,0,0-3.07-.12,1.81,1.81,0,0,0-.67-.45c-.11,0-.24-.08-.36-.12A2.4,2.4,0,0,0,20,18l.16-.21A4.09,4.09,0,0,0,21.85,17a8.59,8.59,0,0,0,2.4-1l0,0a6.92,6.92,0,0,0,1-.59c1-.72-.69-1.16-1.55-1l-.33.07a4,4,0,0,0-3.34,0c0-.18-.33.06-.43-.12.32-.35.81-.25.72-.61.05,0,.06-.26.1-.31.56-.1.67-.59,1-.86a6.59,6.59,0,0,0,.73-.3c1.18-.53.16-1.22-.87-1.23-.18,0-.35,0-.53,0a7,7,0,0,0-2.41.05,6.75,6.75,0,0,0-3.36.6,1.33,1.33,0,0,0-.4.38,1.18,1.18,0,0,0-.63.66,1.06,1.06,0,0,0-.43.93,1.37,1.37,0,0,0,.63,1,1,1,0,0,0,.25,1.27,1,1,0,0,0,.11.86.76.76,0,0,0,.33.28c-.62.7-.91,1.56-.39,2.17a1,1,0,0,0,0,.8c-.37.46-.3,1,.55,1.48.13.07.26.12.39.18a1.11,1.11,0,0,0,.45.17A9.94,9.94,0,0,0,17.1,22a2.1,2.1,0,0,0,1,.16c.25,0,.5,0,.75,0a12.63,12.63,0,0,0,6.59-1.59C26.22,20,26,19.43,24.92,19.29Z"/><path d="M15.31,9.89c-1.61.5-2.88,1.49-2.75,3.34a15.13,15.13,0,0,0,.73,2.28,9.57,9.57,0,0,1,0,3.16,4.37,4.37,0,0,0,.53,3.1c3,4.19,11.23-.31,14-2.63.61-.52-.23-.89-.7-.82-2,.31-4,.58-5.74-.66l-.16.86c2-1.09,5.4-1.72,5.76-4.41.07-.46-.58-.55-.9-.5a11.71,11.71,0,0,1-5.2-.2l0,.93a14.36,14.36,0,0,0,3.71-2.81c.43-.45.07-.78-.44-.82C20.76,10.42,15.56,9,13,12.1l1.93.09c.75-1.68,6.12-.66,7.54-.57.84.06,2.16-1.15.78-1.24C20.5,10.2,14.54,8.72,13,12.1c-.46,1,1.55.55,1.93.09,1.24-1.53,6.6-.39,8.41-.24l-.44-.82a12.66,12.66,0,0,1-3.35,2.52c-.46.25-.53.79,0,.93a13.88,13.88,0,0,0,6.18.26l-.9-.5c-.27,2-3.49,2.66-5,3.5-.36.19-.53.59-.16.86,2.1,1.52,4.67,1.22,7.1.85l-.7-.82a14,14,0,0,1-5.23,2.8c-2,.56-5.23.76-5.62-1.83-.18-1.16.36-2.37.27-3.55s-2-4.5.06-5.14c1.22-.38.94-1.5-.3-1.12Z"/></g></svg>