<svg xmlns="http://www.w3.org/2000/svg" xmlns:xlink="http://www.w3.org/1999/xlink" viewBox="0 0 71.74 29.74"><defs><style>.cls-1{fill:none;}.cls-2{clip-path:url(#clip-path);}.cls-3{fill:#ffce07;}.cls-4{clip-path:url(#clip-path-2);}.cls-5{fill:#eb6f24;}.cls-6{fill:#fff;}.cls-7{fill:#65bc46;}.cls-8{clip-path:url(#clip-path-3);}.cls-9{clip-path:url(#clip-path-4);}.cls-10{fill:#5f3917;}.cls-11{clip-path:url(#clip-path-5);}.cls-12{clip-path:url(#clip-path-6);}</style><clipPath id="clip-path" transform="translate(0 -0.62)"><rect class="cls-1" y="10" width="20.76" height="20.36"/></clipPath><clipPath id="clip-path-2" transform="translate(0 -0.62)"><rect class="cls-1" y="10" width="20.76" height="20.36"/></clipPath><clipPath id="clip-path-3" transform="translate(0 -0.62)"><rect class="cls-1" x="25.59" y="3.83" width="20.76" height="20.34"/></clipPath><clipPath id="clip-path-4" transform="translate(0 -0.62)"><rect class="cls-1" x="25.59" y="3.83" width="20.76" height="20.34"/></clipPath><clipPath id="clip-path-5" transform="translate(0 -0.62)"><rect class="cls-1" x="50.97" y="0.17" width="20.56" height="20.98" transform="translate(48.35 71.47) rotate(-87.89)"/></clipPath><clipPath id="clip-path-6" transform="translate(0 -0.62)"><rect class="cls-1" x="50.97" y="0.17" width="20.56" height="20.98" transform="translate(48.35 71.47) rotate(-87.89)"/></clipPath></defs><title>Asset 4</title><g id="Layer_2" data-name="Layer 2"><g id="Layer_4" data-name="Layer 4"><g class="cls-2"><rect class="cls-3" x="0.47" y="12.41" width="9.44" height="14.13"/><g class="cls-4"><path class="cls-5" d="M1.37,20.6a27.43,27.43,0,0,1,.57-3.26c.35-1.27,2.75-1.57,3.91-1.85C6,15.45,6,15.22,6,15c.23,0,.46,0,.67,0l3.2.07c.25,0,0-1.59-.43-1.6L6.1,13.38a.32.32,0,0,0-.22-.14c-.67,0-3,0-3.67,0H2c-.08-.18-.17-.31-.26-.33A1.57,1.57,0,0,0,1,12.83c-.11,0-.12.17-.11.36a2.59,2.59,0,0,0-.19.23,1.59,1.59,0,0,0,.06,1,10.3,10.3,0,0,0-.08,1.28c0,1.23,0,2.46,0,3.68,0,.25.57,1.68.65,1.18" transform="translate(0 -0.62)"/><path d="M.94,27.16V15.34a9.61,9.61,0,0,1,0-2.21c0-.12-.66.35-.27.37H7.38c.49,0,2.64.2,2.27-.23s-.21.94-.21,1.29V25a8.45,8.45,0,0,1,0,2c-.08.28.72-.34.27-.37s-.9,0-1.34,0H.47a.48.48,0,0,0,0,.95H9.91a.48.48,0,0,0,.47-.47V13a.48.48,0,0,0-.47-.47H.47A.48.48,0,0,0,0,13V27.16a.47.47,0,0,0,.94,0" transform="translate(0 -0.62)"/><path d="M9.8,23.47c-1.27-1-2.51-2-3.72-3A27.24,27.24,0,0,0,10,16.8c.28-.29-.16-1.08-.52-.7a25.11,25.11,0,0,1-4.22,3.83c-1,0-3.57,0-4.52.11-.38,0-.17.95.24.92.91-.09,3.48-.12,4.39-.11,1.35,1.18,2.73,2.3,4.16,3.38.46.35.6-.51.26-.76" transform="translate(0 -0.62)"/><path d="M9.78,15.62c.16,0,0-.92-.25-.91-2.48.13-6.63.26-9.11.4-.16,0,0,.92.24.91,2.49-.13,6.63-.26,9.12-.4" transform="translate(0 -0.62)"/><path d="M9.76,25.06C7.41,25.07,3.39,25,1,25c-.49,0-.38.91.06.93C3.45,26,7.47,26,9.82,26c.5,0,.38-.93-.06-.93" transform="translate(0 -0.62)"/><path class="cls-3" d="M18.26,14.29c.16,0,.3,0,.34-.29a.92.92,0,0,0,.17-.62,1.75,1.75,0,0,0-.05-.4,3.48,3.48,0,0,0-.41-1.29.58.58,0,0,0-.18-.2A1.39,1.39,0,0,0,16.76,11h0l-.25,0h0a.6.6,0,0,0-.5.28.71.71,0,0,0-.1.14l-.1,0a7.7,7.7,0,0,0-1.85.19c-.34,0-.06,1.64.43,1.61l.94,0a1.19,1.19,0,0,0,.41,0l0,0h0a.26.26,0,0,0,.19.09h.39a.12.12,0,0,0,.08,0,1.85,1.85,0,0,0,1.21.44.06.06,0,0,1,0,0,1,1,0,0,0,.08.14.2.2,0,0,0,0,.08l.09.14a.56.56,0,0,0,0,.08s0,0,.05,0l.05.06.1.07h0l0,0,0,0h.07" transform="translate(0 -0.62)"/><path class="cls-3" d="M16.35,29.49a.4.4,0,0,0,.39-.18l.37-.06a.35.35,0,0,0,.16-.09.64.64,0,0,0,.77-.58l.12-.1a.88.88,0,0,0,.21-.6l0-.05a1.57,1.57,0,0,0,.19-.33,1.88,1.88,0,0,0,.12-.3.63.63,0,0,0,0-.31,1.22,1.22,0,0,0-.33-.93c-.18-.17-.5-.24-.62,0a2.57,2.57,0,0,0-.21.52l-.05.06s0,0,0,0c-.23-.08-.47,0-.67.32a.62.62,0,0,0-.17.22,2.12,2.12,0,0,0-1.09.22,6.38,6.38,0,0,0-1,0,.48.48,0,0,0-.18,0l-.68-.19c-.78-.21-.34,1.34,0,1.58a3.63,3.63,0,0,0,1,.45.28.28,0,0,0,.29-.05,3.61,3.61,0,0,0,1.26.33" transform="translate(0 -0.62)"/><path d="M11.88,28.11c1.49.8,4.11,3.18,5.84,1.85a3.83,3.83,0,0,0,1-4.18c-.18-.67-.66-.56-.46.12.41,1.46-.49,3.55-2.23,3.27-1.59-.25-2.94-1.45-4.33-2.19-.25-.14-.16.95.17,1.13" transform="translate(0 -0.62)"/><path d="M13.19,13.21c1.06-.59,2.78-2.56,4.12-2s1.19,2.16.9,3.3c-.13.5.6,1.35.78.66.42-1.66.5-3.41-.9-4.61-1.87-1.62-3.81.73-5.41,1.62-.46.25,0,1.33.51,1" transform="translate(0 -0.62)"/><path class="cls-6" d="M13.23,27.56a7.38,7.38,0,1,1,7.38-7.38,7.37,7.37,0,0,1-7.38,7.38" transform="translate(0 -0.62)"/><path d="M17.4,23.89a1,1,0,0,1-1.09-.83,1,1,0,0,1,1.09-.84,1,1,0,0,1,1.09.84,1,1,0,0,1-1.09.83" transform="translate(0 -0.62)"/><path d="M17.4,18.38a1,1,0,0,1-1.09-.83,1,1,0,0,1,1.09-.83,1,1,0,0,1,1.09.83,1,1,0,0,1-1.09.83" transform="translate(0 -0.62)"/><path class="cls-7" d="M12.14,27.09a3.24,3.24,0,0,0,.39-.07l.09,0c.23,0,.29-.24.25-.57a.76.76,0,0,0,.11-.33,1.47,1.47,0,0,0,0-.66,2.1,2.1,0,0,0,.18-.65,1.73,1.73,0,0,0,0-.65l.27-.49c0-.2-.59-1-.94-.63a1.42,1.42,0,0,0-.12.13.84.84,0,0,0-.29.12.7.7,0,0,0-.29,0,.6.6,0,0,0-.23.1.16.16,0,0,0-.15.09l-.06,0a.49.49,0,0,0-.18-.21L10.58,23l-.1-.09a.28.28,0,0,0,0-.09,2.45,2.45,0,0,0-.23-.86,1.09,1.09,0,0,1-.05-.17,3.25,3.25,0,0,0,.21-1.17.89.89,0,0,0,.88-.34,2.77,2.77,0,0,0,.46-.22,1.72,1.72,0,0,0,1.3-.31c.14-.11.1-.48.07-.62-.13-.73-.2-1.4-.71-1.69a3.88,3.88,0,0,0-.31-.26,1.37,1.37,0,0,0-.76-.77.14.14,0,0,1,0-.06.16.16,0,0,0,.07-.07c.69-.05.73-.41.93-1l.16-.13a.76.76,0,0,0,.43-.28.48.48,0,0,0,.64-.24c.19.07.29-.05.35-.24.24-.05.06-.78,0-.87v0c0-.16-.22-.78-.49-.73l-.06,0,0,0a.62.62,0,0,0-.27.09s-.07,0-.09.07l0,0a.32.32,0,0,0-.12.18H12.7c-.2-.29-.43-.42-.56,0a.9.9,0,0,0-.8.12,2.88,2.88,0,0,0-1.4-.05c-.6.1-.91.36-1,.79a2.85,2.85,0,0,0-1.27.62c-.16.15,0,.65,0,.82a3.13,3.13,0,0,0-.39.36.72.72,0,0,0-.08.55,1.58,1.58,0,0,0-.51,1.05,1.78,1.78,0,0,0-.17.4.2.2,0,0,0-.1.16c-.08.29-.14.58-.19.86a1.94,1.94,0,0,0-.15,1.53,5.87,5.87,0,0,0,.19,1.37,6.41,6.41,0,0,0,1,2.29c.09.15.17.19.23.19a6,6,0,0,0,.4.46,8.83,8.83,0,0,0,3.08,2.19c.08,0,.13,0,.16-.12l.18.08a1,1,0,0,0,.55.22l.07,0a.12.12,0,0,0,.13,0" transform="translate(0 -0.62)"/><path d="M12.72,27.74a6.73,6.73,0,0,0,.82-5.12c0-.1-.21-.84-.41-.65-.57,1.06-1.18,1.22-1.84.51-.78-.2-.91-.64-.4-1.32a2.28,2.28,0,0,1,2.73-.89c.24.06.1-.54.09-.61a5.74,5.74,0,0,0-2.61-3.85c.08.38.17.76.25,1.14,1.71-1,4.14-1.42,2.91-3.74-.35-.67-.3.38-.16.66.28.52-2.76,1.77-3,1.94s0,1,.25,1.13a3.91,3.91,0,0,1,2,2.81c0-.2.06-.4.08-.61-4.85-1.28-3.83,7.74.1,3.91l-.41-.64a5.55,5.55,0,0,1-.78,4.26c-.16.28.31,1.22.39,1.07" transform="translate(0 -0.62)"/><path d="M13.17,27c-3.89-.2-7.35-3.17-6.92-7.35a7.12,7.12,0,0,1,7.09-6.23,6.73,6.73,0,0,1,6.73,8,7.21,7.21,0,0,1-7,5.61c-.44,0-.19,1.17.3,1.14,10-.5,9.7-15.95-.26-15.9-10.16,0-9.67,15.41.17,15.91.52,0,.32-1.13-.12-1.15" transform="translate(0 -0.62)"/></g></g><g class="cls-8"><rect class="cls-3" x="26.07" y="6.22" width="9.44" height="14.13"/><g class="cls-9"><path class="cls-5" d="M27,14.42a32.37,32.37,0,0,1,.57-3.27c.35-1.27,2.75-1.57,3.91-1.84.17,0,.18-.27.13-.55l.67.05,3.2.07c.26,0,0-1.6-.43-1.61L31.69,7.2a.28.28,0,0,0-.22-.14c-.67,0-3,0-3.66,0h-.24a.67.67,0,0,0-.25-.33,1.74,1.74,0,0,0-.68-.11c-.11,0-.13.17-.12.37l-.19.22a1.59,1.59,0,0,0,.06,1,10.22,10.22,0,0,0-.07,1.28c0,1.23,0,2.46,0,3.68,0,.26.57,1.69.64,1.19" transform="translate(0 -0.62)"/><path d="M26.54,21V9.15a9,9,0,0,1,0-2.2c0-.13-.67.35-.28.36s.9,0,1.35,0H33c.49,0,2.64.2,2.26-.22S35,8,35,8.38V18.86a8.36,8.36,0,0,1,0,2c-.08.29.73-.34.27-.36s-.89,0-1.34,0H26.07a.47.47,0,0,0,0,.94H35.5A.48.48,0,0,0,36,21V6.84a.47.47,0,0,0-.47-.47H26.07a.48.48,0,0,0-.48.47V21a.48.48,0,0,0,.95,0" transform="translate(0 -0.62)"/><path d="M35.4,17.28c-1.28-1-2.51-2-3.72-3a28.87,28.87,0,0,0,3.93-3.65c.27-.3-.17-1.09-.53-.71a24.41,24.41,0,0,1-4.22,3.84c-.95,0-3.57,0-4.52.11-.38,0-.16,1,.25.91.9-.09,3.47-.12,4.38-.1,1.35,1.17,2.74,2.3,4.16,3.37.46.35.6-.51.27-.76" transform="translate(0 -0.62)"/><path d="M35.37,9.44c.17,0,0-.93-.24-.91-2.49.13-6.63.26-9.12.39-.16,0,0,.92.25.91,2.48-.13,6.63-.26,9.11-.39" transform="translate(0 -0.62)"/><path d="M35.36,18.88c-2.35,0-6.37,0-8.72-.09-.5,0-.38.92.06.93,2.35.06,6.36.09,8.72.08.49,0,.38-.93-.06-.92" transform="translate(0 -0.62)"/><path class="cls-3" d="M43.85,8.11c.16,0,.31,0,.35-.3a1,1,0,0,0,.16-.62,1.83,1.83,0,0,0,0-.4,3.21,3.21,0,0,0-.41-1.28.68.68,0,0,0-.17-.21,1.39,1.39,0,0,0-1.37-.53h0l-.24,0h0a.61.61,0,0,0-.49.29.45.45,0,0,0-.11.13l-.1,0a6.89,6.89,0,0,0-1.85.19C39.19,5.41,39.48,7,40,7l.94-.06a1.17,1.17,0,0,0,.41,0h0a.33.33,0,0,0,.2.09h.38a.09.09,0,0,0,.08,0,1.87,1.87,0,0,0,1.22.44s0,0,0,0l.07.15a.59.59,0,0,1,0,.08l.09.14.06.08,0,0A.15.15,0,0,0,43.6,8a.39.39,0,0,0,.1.08h0a.06.06,0,0,0,0,0l0,0,.06,0" transform="translate(0 -0.62)"/><path class="cls-3" d="M42,23.3a.36.36,0,0,0,.38-.18,1.76,1.76,0,0,0,.38-.06.4.4,0,0,0,.16-.08.76.76,0,0,0,.58-.18.68.68,0,0,0,.19-.41.35.35,0,0,0,.11-.1.79.79,0,0,0,.21-.6.1.1,0,0,1,0,0,1.63,1.63,0,0,0,.19-.34l.12-.29a1.08,1.08,0,0,0,0-.32,1.19,1.19,0,0,0-.34-.93c-.17-.16-.49-.24-.62,0a3.89,3.89,0,0,0-.21.53l0,.06,0,0c-.22-.08-.46,0-.66.33a.74.74,0,0,0-.18.21,2,2,0,0,0-1.09.23,6.31,6.31,0,0,0-1-.05.53.53,0,0,0-.18.05L39.35,21c-.78-.22-.34,1.34,0,1.57a3.59,3.59,0,0,0,1,.46.29.29,0,0,0,.29-.06A3.36,3.36,0,0,0,42,23.3" transform="translate(0 -0.62)"/><path d="M37.48,21.92c1.5.81,4.1,3.19,5.83,1.86a3.82,3.82,0,0,0,1-4.18c-.18-.67-.63-.56-.43.11.39,1.38-.44,3.46-2.08,3.29s-3.09-1.45-4.5-2.21c-.22-.12-.14,1,.18,1.13" transform="translate(0 -0.62)"/><path d="M38.68,7.07c1.18-.65,2.48-2.24,3.93-2.12,1.77.15,1.59,2.14,1.28,3.34-.09.36.45,1.34.61.7.4-1.56.45-3.32-.79-4.51C41.87,2.71,40,5,38.37,5.93c-.38.21,0,1.31.31,1.14" transform="translate(0 -0.62)"/><path class="cls-6" d="M38.82,21.38A7.38,7.38,0,1,1,46.2,14a7.39,7.39,0,0,1-7.38,7.38" transform="translate(0 -0.62)"/><path d="M38.77,20.8c-3.89-.19-7.36-3.16-6.92-7.35a7.09,7.09,0,0,1,7.08-6.22,6.72,6.72,0,0,1,6.73,8,7.21,7.21,0,0,1-7,5.61c-.43,0-.18,1.16.31,1.14,10-.51,9.7-16-.26-15.9-10.17,0-9.68,15.4.16,15.9.53,0,.33-1.12-.11-1.15" transform="translate(0 -0.62)"/><path d="M43,17.7a1,1,0,0,1-1.09-.83A1,1,0,0,1,43,16a1,1,0,0,1,1.08.83A1,1,0,0,1,43,17.7" transform="translate(0 -0.62)"/><path d="M43,12.2a1,1,0,0,1-1.09-.83A1,1,0,0,1,43,10.53a1,1,0,0,1,1.08.84A1,1,0,0,1,43,12.2" transform="translate(0 -0.62)"/><path class="cls-10" d="M35.64,17.66a8.9,8.9,0,0,0,.07-1.7.92.92,0,0,0,.25-.37,1.18,1.18,0,0,0,.07-.2,1.38,1.38,0,0,0,.32-.43l.12.08a2.35,2.35,0,0,0,.47.92,4.53,4.53,0,0,0,.56,1.34,0,0,0,0,1,0,0,4.56,4.56,0,0,0,.33.56c.4.56.65-.38.57-.86a1.16,1.16,0,0,1,0-.18,2.27,2.27,0,0,0,0-1.86c.1,0,0-.18.07-.24.19.18.13.46.34.41,0,0,.14,0,.17,0,.06.31.33.37.48.55a3.47,3.47,0,0,0,.16.41c.3.65.68.09.68-.49a2.83,2.83,0,0,0,0-.29,3.77,3.77,0,0,0,0-1.34,3.86,3.86,0,0,0-.34-1.87.74.74,0,0,0-.21-.22.65.65,0,0,0-.36-.34.58.58,0,0,0-.52-.24.74.74,0,0,0-.55.35.58.58,0,0,0-.7.13.59.59,0,0,0-.48.06.47.47,0,0,0-.15.19c-.39-.35-.87-.51-1.2-.22a.58.58,0,0,0-.45,0c-.26-.2-.54-.17-.82.31a1.47,1.47,0,0,0-.1.22.54.54,0,0,0-.1.24c0,.23-.06.45-.07.68a1.3,1.3,0,0,0-.09.53c0,.14,0,.28,0,.41A7,7,0,0,0,35,17.93c.27.46.61.32.68-.27" transform="translate(0 -0.62)"/><path d="M40.86,12.33A1.81,1.81,0,0,0,39,10.8a9,9,0,0,0-1.27.41,5.7,5.7,0,0,1-1.75,0,2.4,2.4,0,0,0-1.72.29c-2.33,1.64.17,6.23,1.46,7.76.29.34.49-.13.45-.39a4.11,4.11,0,0,1,.37-3.19l-.48-.09c.61,1.1,1,3,2.45,3.2.25,0,.31-.32.28-.5a6.37,6.37,0,0,1,.11-2.88h-.52A7.89,7.89,0,0,0,40,17.48c.25.24.43,0,.46-.24.16-1.88,1-4.77-.77-6.17,0,.36,0,.71,0,1.07.93.41.36,3.39.31,4.18,0,.47.64,1.2.69.43.1-1.53.92-4.84-1-5.68-.58-.26-.31.86,0,1.07.85.69.21,3.66.13,4.67l.45-.25a7.1,7.1,0,0,1-1.4-1.86c-.13-.25-.43-.29-.51,0a7.65,7.65,0,0,0-.14,3.43l.27-.5c-1.11-.15-1.48-1.94-1.94-2.78-.11-.19-.33-.29-.48-.09-.84,1.17-.68,2.6-.47,4l.45-.39a7.91,7.91,0,0,1-1.55-2.9c-.31-1.1-.42-2.91,1-3.13.64-.09,1.31.2,2,.16s2.49-1.13,2.85,0c.21.67.83.52.62-.17" transform="translate(0 -0.62)"/></g></g></g><g id="Layer_12" data-name="Layer 12"><g class="cls-11"><rect class="cls-3" x="48.87" y="5.57" width="14.28" height="9.54" transform="translate(43.63 65.31) rotate(-87.89)"/><g class="cls-12"><path class="cls-5" d="M52.13,10.71a30.35,30.35,0,0,1,.7-3.28c.4-1.27,2.84-1.48,4-1.72.17,0,.19-.26.15-.54.23,0,.46.06.67.07l3.23.19c.26,0,.1-1.61-.37-1.64l-3.35-.2A.38.38,0,0,0,57,3.44c-.68,0-3-.13-3.7-.12H53c-.08-.18-.16-.32-.24-.35a1.66,1.66,0,0,0-.69-.13C52,2.84,52,3,52,3.21a2.3,2.3,0,0,0-.2.22,1.62,1.62,0,0,0,0,1.05,9.64,9.64,0,0,0-.12,1.3c-.08,1.23-.1,2.48-.14,3.71,0,.26.52,1.73.61,1.22" transform="translate(0 -0.62)"/><path d="M51.46,17.31,51.9,5.37A9.12,9.12,0,0,1,52,3.15c0-.12-.68.33-.29.36s.9,0,1.36.05l5.42.2c.49,0,2.66.3,2.29-.14s-.24.93-.26,1.29l-.11,3.16-.28,7.43a8.51,8.51,0,0,1-.07,2c-.09.29.75-.32.29-.36s-.91,0-1.36-.05l-8-.29a.48.48,0,0,0,0,.95l9.54.35a.48.48,0,0,0,.49-.46l.52-14.27a.48.48,0,0,0-.45-.49l-9.54-.35A.48.48,0,0,0,51,3l-.52,14.27a.48.48,0,0,0,1,0" transform="translate(0 -0.62)"/><path d="M60.55,13.92c-1.26-1-2.47-2.08-3.65-3.18A28.16,28.16,0,0,0,61,7.2c.29-.29-.12-1.11-.5-.73a25.66,25.66,0,0,1-4.41,3.71c-1,0-3.6-.11-4.57-.06-.38,0-.2,1,.22.93.91-.05,3.51,0,4.43.06q2,1.86,4.08,3.57c.45.37.62-.5.3-.76" transform="translate(0 -0.62)"/><path d="M60.81,6c.16,0,0-.93-.21-.93-2.52,0-6.71,0-9.22.06-.17,0-.05.94.21.93C54.1,6,58.3,6,60.81,6" transform="translate(0 -0.62)"/><path d="M60.45,15.53c-2.38-.08-6.44-.26-8.81-.41-.5,0-.42.91,0,.94,2.38.15,6.43.32,8.81.41.5,0,.42-.93,0-.94" transform="translate(0 -0.62)"/><path class="cls-3" d="M69.42,5c.16,0,.31,0,.36-.29A.87.87,0,0,0,70,4.06a1.42,1.42,0,0,0,0-.41,3.57,3.57,0,0,0-.37-1.31.5.5,0,0,0-.17-.21A1.39,1.39,0,0,0,68,1.54s0,0,0,0h0l-.25,0h0a.63.63,0,0,0-.51.27.45.45,0,0,0-.11.13l-.1,0a7,7,0,0,0-1.88.13c-.34,0-.11,1.65.38,1.64l.95,0a1.42,1.42,0,0,0,.41,0l0,0h0a.35.35,0,0,0,.2.1h.39a.09.09,0,0,0,.08,0,1.87,1.87,0,0,0,1.21.49v0l.07.15a.3.3,0,0,0,0,.08,1.09,1.09,0,0,0,.08.15.56.56,0,0,1,0,.08l.05,0,0,.06.1.08h0l0,0,0,0,.06,0" transform="translate(0 -0.62)"/><path class="cls-3" d="M66.94,20.24a.36.36,0,0,0,.39-.16,2.65,2.65,0,0,0,.38,0,.67.67,0,0,0,.17-.08.67.67,0,0,0,.8-.56l.12-.1a.84.84,0,0,0,.23-.6.1.1,0,0,1,0,0,1.94,1.94,0,0,0,.2-.33c0-.1.09-.2.13-.3a.78.78,0,0,0,.06-.31,1.25,1.25,0,0,0-.31-1c-.17-.17-.49-.25-.62,0a2.53,2.53,0,0,0-.24.53l0,.05,0,0c-.22-.09-.47,0-.69.3a.91.91,0,0,0-.18.21,2.09,2.09,0,0,0-1.11.19,6.37,6.37,0,0,0-1-.08.53.53,0,0,0-.19,0l-.68-.22c-.78-.25-.39,1.34-.05,1.59a3.64,3.64,0,0,0,1,.5.31.31,0,0,0,.3-.05,3.55,3.55,0,0,0,1.26.38" transform="translate(0 -0.62)"/><path d="M62.32,18.65c1.49.87,4.05,3.37,5.9,2.21a3.93,3.93,0,0,0,1.41-4.31c-.18-.71-.95-.54-.77.18.32,1.35-.33,3.32-2,3.22s-3.1-1.64-4.39-2.39c-.55-.32-.58.84-.16,1.09" transform="translate(0 -0.62)"/><path d="M64.24,3.73c1.2-.61,2.69-2.28,4.17-2C70.15,2,69.93,3.77,69.56,5c-.08.25.3,1.25.38,1,.42-1.41.57-3.21-.39-4.44-1.74-2.24-3.78.09-5.58,1-.26.14.13,1.24.27,1.17" transform="translate(0 -0.62)"/><path class="cls-6" d="M63.85,18.18A7.46,7.46,0,1,1,71.58,11a7.46,7.46,0,0,1-7.73,7.18" transform="translate(0 -0.62)"/><path d="M68.2,14.63c-.6,0-1.08-.42-1.06-.89s.52-.82,1.13-.8,1.08.42,1.06.88a1,1,0,0,1-1.13.81" transform="translate(0 -0.62)"/><path d="M68.41,9.07c-.61,0-1.09-.42-1.07-.89a1.14,1.14,0,0,1,2.2.08,1,1,0,0,1-1.13.81" transform="translate(0 -0.62)"/><path d="M63.82,17.6c-3.93-.34-7.32-3.47-6.72-7.68a7.2,7.2,0,0,1,7.39-6c4.18.16,7.6,4.06,6.5,8.3a7.3,7.3,0,0,1-7.27,5.41c-.44,0-.23,1.17.27,1.16C74.15,18.62,74.38,3,64.32,2.69,54.05,2.37,54,17.9,63.89,18.76c.53,0,.37-1.12-.07-1.16" transform="translate(0 -0.62)"/></g></g></g></g></svg>